M48
; DRILL file {KiCad (5.1.0-0)} date 2019 October 24, Thursday 23:19:23
; FORMAT={-:-/ absolute / metric / decimal}
; #@! TF.CreationDate,2019-10-24T23:19:23+02:00
; #@! TF.GenerationSoftware,Kicad,Pcbnew,(5.1.0-0)
FMAT,2
METRIC
T1C0.300
T2C0.800
T3C1.000
T4C1.016
T5C1.100
T6C1.200
T7C1.300
T8C1.500
T9C1.600
T10C3.200
T11C1.700
T12C3.500
%
G90
G05
T1
X194.2Y76.0
X196.2Y76.0
X201.7Y76.0
X203.7Y76.0
X208.2Y76.0
X210.2Y76.0
X215.7Y76.0
X217.7Y76.0
X222.2Y76.0
X224.2Y76.0
X229.7Y76.0
X231.7Y76.0
X236.2Y76.0
X238.2Y76.0
X243.7Y76.0
X245.7Y76.0
X290.2Y82.0
X292.6Y54.4
X292.6Y52.4
X304.2Y82.0
X305.6Y55.7
X306.6Y53.8
X310.4Y71.1
X318.2Y82.0
X318.6Y77.7
X319.6Y76.0
X319.6Y73.8
X320.555Y69.9
X321.825Y69.9
X326.6Y78.6
X332.2Y82.0
X334.3Y78.8
X339.1Y82.1
X339.4Y84.0
X341.8Y73.0
X346.2Y76.1
X346.2Y74.1
X348.3Y78.8
X353.1Y82.1
X353.4Y84.0
X355.8Y73.0
X360.2Y76.1
X360.2Y74.1
X362.3Y78.8
X367.1Y82.1
X367.4Y84.0
X369.8Y73.0
X374.2Y76.1
X374.2Y74.1
X376.3Y78.8
X381.1Y82.1
X381.4Y84.0
X383.8Y73.0
X388.2Y76.1
X388.2Y74.1
T2
X322.46Y82.0
X325.0Y82.0
X327.54Y82.0
X308.46Y82.0
X311.0Y82.0
X313.54Y82.0
X335.445Y48.93
X336.715Y51.47
X337.985Y48.93
X339.255Y51.47
X340.525Y48.93
X341.795Y51.47
X343.065Y48.93
X344.335Y51.47
X345.605Y48.93
X346.875Y51.47
X348.145Y48.93
X349.415Y51.47
X350.685Y48.93
X351.955Y51.47
X294.46Y82.0
X297.0Y82.0
X299.54Y82.0
X280.46Y82.0
X283.0Y82.0
X285.54Y82.0
T3
X255.11Y83.8
X255.11Y81.26
X257.65Y83.8
X257.65Y81.26
X260.19Y83.8
X260.19Y81.26
X262.73Y83.8
X262.73Y81.26
X265.27Y83.8
X265.27Y81.26
X267.81Y83.8
X267.81Y81.26
X270.35Y83.8
X270.35Y81.26
X272.89Y83.8
X272.89Y81.26
T4
X12.52Y50.9
X12.52Y48.36
X15.06Y50.9
X15.06Y48.36
X17.6Y50.9
X17.6Y48.36
X20.14Y50.9
X20.14Y48.36
X22.68Y50.9
X22.68Y48.36
X25.22Y50.9
X25.22Y48.36
X27.76Y50.9
X27.76Y48.36
X30.3Y50.9
X30.3Y48.36
X32.84Y50.9
X32.84Y48.36
X35.38Y50.9
X35.38Y48.36
X37.92Y50.9
X37.92Y48.36
X40.46Y50.9
X40.46Y48.36
X43.0Y50.9
X43.0Y48.36
X53.72Y50.9
X53.72Y48.36
X56.26Y50.9
X310.0Y53.7
X310.0Y51.16
X312.54Y53.7
X312.54Y51.16
X315.08Y53.7
X315.08Y51.16
X317.62Y53.7
X317.62Y51.16
X320.16Y53.7
X320.16Y51.16
X322.7Y53.7
X322.7Y51.16
X325.24Y53.7
X56.26Y48.36
X58.8Y50.9
X58.8Y48.36
X61.34Y50.9
X61.34Y48.36
X63.88Y50.9
X63.88Y48.36
X66.42Y50.9
X66.42Y48.36
X68.96Y50.9
X68.96Y48.36
X71.5Y50.9
X71.5Y48.36
X74.04Y50.9
X74.04Y48.36
X76.58Y50.9
X76.58Y48.36
X79.12Y50.9
X79.12Y48.36
X81.66Y50.9
X81.66Y48.36
X327.78Y51.16
X325.24Y51.16
X84.2Y50.9
X327.78Y53.7
X84.2Y48.36
T5
X280.46Y84.63
X285.54Y84.63
X322.46Y84.63
X327.54Y84.63
X308.46Y84.63
X313.54Y84.63
X294.46Y84.63
X299.54Y84.63
T6
X66.0Y77.3
X66.0Y72.22
X135.0Y77.3
X135.0Y72.22
X20.0Y77.3
X20.0Y72.22
X43.0Y77.3
X43.0Y72.22
X181.0Y77.3
X181.0Y72.22
X89.0Y77.3
X89.0Y72.22
X112.0Y77.3
X112.0Y72.22
X158.0Y77.3
X158.0Y72.22
T7
X205.75Y77.5
X212.25Y77.5
X226.25Y77.5
X233.75Y77.5
X240.25Y77.5
X247.75Y77.5
X198.25Y77.5
X219.75Y77.5
T8
X198.25Y84.75
X212.25Y84.75
X226.25Y84.75
X240.25Y84.75
X353.355Y49.67
T9
X62.19Y72.22
X69.81Y81.11
X69.81Y72.22
X131.19Y86.19
X16.19Y72.22
X62.19Y86.19
X131.19Y72.22
X138.81Y81.11
X138.81Y72.22
X16.19Y86.19
X23.81Y81.11
X39.19Y86.19
X39.19Y72.22
X46.81Y81.11
X46.81Y72.22
X177.19Y86.19
X177.19Y72.22
X184.81Y81.11
X23.81Y72.22
X184.81Y72.22
X85.19Y86.19
X85.19Y72.22
X92.81Y81.11
X92.81Y72.22
X108.19Y86.19
X108.19Y72.22
X115.81Y81.11
X115.81Y72.22
X154.19Y86.19
X154.19Y72.22
X161.81Y81.11
X161.81Y72.22
T10
X393.0Y83.5
T3
G00X350.25Y81.05
M15
G01X350.25Y83.55
M16
G05
G00X357.75Y81.05
M15
G01X357.75Y83.55
M16
G05
G00X336.25Y81.05
M15
G01X336.25Y83.55
M16
G05
G00X343.75Y81.05
M15
G01X343.75Y83.55
M16
G05
G00X378.25Y81.05
M15
G01X378.25Y83.55
M16
G05
G00X385.75Y81.05
M15
G01X385.75Y83.55
M16
G05
G00X364.25Y81.05
M15
G01X364.25Y83.55
M16
G05
G00X371.75Y81.05
M15
G01X371.75Y83.55
M16
G05
T7
G00X366.75Y86.0
M15
G01X369.25Y86.0
M16
G05
G00X338.75Y86.0
M15
G01X341.25Y86.0
M16
G05
G00X352.75Y86.0
M15
G01X355.25Y86.0
M16
G05
G00X380.75Y86.0
M15
G01X383.25Y86.0
M16
G05
T11
G00X195.85Y79.75
M15
G01X195.85Y82.75
M16
G05
G00X250.15Y79.75
M15
G01X250.15Y82.75
M16
G05
T12
G00X223.0Y80.65
M15
G01X223.0Y81.85
M16
G05
T0
M30
