M48
; DRILL file {KiCad (5.1.0-0)} date Freitag, 19. April 2019 um 14:21:19
; FORMAT={-:-/ absolute / metric / decimal}
; #@! TF.CreationDate,2019-04-19T14:21:19+02:00
; #@! TF.GenerationSoftware,Kicad,Pcbnew,(5.1.0-0)
FMAT,2
METRIC
T1C0.300
T2C0.500
T3C0.800
T4C1.000
T5C1.016
T6C1.100
T7C1.199
T8C1.500
T9C3.200
T10C3.500
T11C4.000
T12C1.100
%
G90
G05
T1
X101.8Y-74.6
X101.8Y-76.0
X101.8Y-86.8
X101.8Y-99.3
X101.9Y-50.9
X102.7Y-54.4
X102.7Y-57.9
X102.7Y-60.5
X102.7Y-64.5
X102.7Y-66.9
X102.7Y-71.1
X102.7Y-79.5
X102.7Y-83.1
X102.7Y-89.8
X102.7Y-92.2
X102.7Y-95.6
X102.7Y-95.6
X105.5Y-57.85
X105.5Y-59.6
X105.5Y-70.4
X105.5Y-72.05
X105.5Y-83.1
X105.5Y-84.7
X106.7Y-64.2
X106.7Y-76.8
X106.701Y-90.301
X106.8Y-51.7
X107.3Y-65.1
X107.3Y-77.6
X107.4Y-135.0
X107.401Y-52.401
X107.5Y-109.8
X107.5Y-122.4
X107.7Y-123.6
X107.7Y-125.2
X107.7Y-127.8
X107.7Y-129.4
X107.8Y-136.2
X107.8Y-111.0
X107.8Y-142.0
X107.8Y-112.6
X107.8Y-115.2
X107.8Y-116.8
X107.8Y-137.8
X107.8Y-140.4
X108.0Y-53.6
X108.0Y-59.5
X108.0Y-66.2
X108.0Y-72.1
X108.0Y-78.8
X108.0Y-84.7
X108.0Y-86.8
X108.0Y-91.4
X108.3Y-147.6
X108.5Y-123.6
X108.5Y-125.2
X108.5Y-127.8
X108.5Y-129.4
X108.6Y-111.0
X108.6Y-112.6
X108.6Y-115.2
X108.6Y-116.8
X108.6Y-136.2
X108.6Y-137.8
X108.6Y-140.4
X108.6Y-142.0
X110.5Y-116.8
X110.5Y-129.4
X110.5Y-142.0
X111.7Y-104.8
X111.7Y-117.4
X111.7Y-130.0
X111.7Y-142.6
X112.6Y-52.4
X112.6Y-65.1
X112.6Y-77.6
X112.6Y-90.3
X112.6Y-122.4
X112.6Y-135.0
X112.6Y-147.6
X112.7Y-53.6
X112.7Y-66.2
X112.7Y-78.8
X112.7Y-91.4
X112.7Y-109.8
X113.2Y-45.575
X113.2Y-47.6
X113.2Y-60.2
X113.2Y-72.8
X113.2Y-85.4
X113.5Y-117.4
X113.5Y-130.0
X113.5Y-142.6
X115.0Y-60.2
X115.0Y-72.8
X115.0Y-85.4
X115.729Y-123.771
X115.729Y-148.971
X115.743Y-111.168
X115.743Y-136.368
X115.9Y-47.6
X116.3Y-72.1
X116.317Y-59.515
X116.372Y-84.7
X117.0Y-66.5
X117.0Y-79.1
X117.005Y-53.9
X117.005Y-91.7
X117.035Y-133.735
X117.135Y-121.035
X117.135Y-146.235
X117.4Y-51.1
X117.4Y-63.7
X117.4Y-76.3
X117.4Y-88.9
X117.4Y-108.9
X117.7Y-112.5
X117.75Y-125.1
X117.75Y-137.7
X117.75Y-150.3
X120.9Y-48.0
X120.9Y-60.7
X120.9Y-73.2
X120.9Y-85.9
X120.9Y-107.2
X120.9Y-112.4
X120.9Y-119.8
X120.9Y-125.0
X120.9Y-132.4
X120.9Y-137.6
X120.9Y-145.0
X120.9Y-150.2
X121.5Y-104.1
X122.051Y-59.5
X122.075Y-45.575
X122.093Y-47.407
X122.1Y-72.1
X122.1Y-84.7
X122.19Y-55.3
X122.2Y-57.1
X122.3Y-90.2
X122.3Y-52.4
X122.3Y-65.0
X122.3Y-77.6
X122.3Y-80.4
X122.3Y-82.5
X122.4Y-68.0
X122.4Y-69.7
X122.7Y-105.3
X123.701Y-59.5
X123.75Y-72.1
X123.75Y-84.7
X124.3Y-52.4
X124.3Y-65.0
X124.3Y-77.6
X124.3Y-90.2
X124.369Y-95.631
X124.369Y-97.3
X124.4Y-104.1
X124.7Y-91.9
X124.7Y-115.2
X124.7Y-127.8
X124.7Y-140.4
X124.8Y-89.3
X126.0Y-51.7
X126.0Y-64.3
X126.0Y-76.9
X126.5Y-109.8
X126.6Y-52.4
X126.6Y-65.0
X126.6Y-77.6
X126.6Y-90.2
X126.6Y-95.7
X126.6Y-98.1
X126.6Y-122.4
X126.6Y-135.0
X126.65Y-102.45
X126.65Y-104.9
X126.9Y-91.7
X127.0Y-123.6
X127.0Y-136.2
X127.0Y-111.0
X127.0Y-112.6
X127.0Y-115.2
X127.0Y-116.8
X127.0Y-125.2
X127.0Y-127.8
X127.0Y-129.4
X127.0Y-137.8
X127.0Y-140.3
X127.0Y-142.0
X127.2Y-53.6
X127.2Y-66.2
X127.2Y-78.8
X127.4Y-147.6
X127.8Y-111.0
X127.8Y-112.6
X127.8Y-115.2
X127.8Y-116.8
X127.8Y-123.6
X127.8Y-125.2
X127.8Y-127.8
X127.8Y-129.4
X127.8Y-136.2
X127.8Y-137.8
X127.8Y-140.4
X127.8Y-142.0
X129.8Y-129.4
X129.8Y-142.0
X129.9Y-116.8
X129.903Y-104.1
X130.6Y-102.5
X130.9Y-104.8
X130.9Y-117.4
X130.9Y-130.0
X130.9Y-142.6
X131.4Y-72.1
X131.4Y-84.7
X131.45Y-59.5
X131.8Y-52.4
X131.8Y-65.0
X131.8Y-77.6
X131.8Y-90.2
X131.8Y-122.4
X131.8Y-147.6
X131.9Y-53.6
X131.9Y-66.2
X131.9Y-78.8
X131.9Y-91.4
X131.9Y-95.2
X131.9Y-109.8
X131.9Y-135.0
X132.7Y-104.8
X132.7Y-117.4
X132.7Y-130.0
X132.7Y-142.6
X133.465Y-99.365
X134.2Y-47.6
X134.943Y-111.168
X134.943Y-136.368
X134.956Y-123.756
X134.956Y-148.956
X135.087Y-60.3
X135.087Y-72.9
X135.1Y-85.4
X135.2Y-59.5
X135.2Y-72.1
X135.2Y-84.6
X136.2Y-66.5
X136.2Y-79.1
X136.205Y-53.9
X136.205Y-91.7
X136.285Y-121.085
X136.285Y-133.685
X136.285Y-146.285
X136.3Y-108.5
X136.6Y-51.1
X136.6Y-63.7
X136.6Y-76.3
X136.6Y-88.9
X136.95Y-112.5
X136.95Y-125.1
X136.95Y-137.7
X136.95Y-150.3
X137.4Y-142.0
X139.7Y-100.8
X139.821Y-72.1
X140.026Y-59.5
X140.1Y-48.0
X140.1Y-60.6
X140.1Y-73.2
X140.1Y-85.8
X140.1Y-107.2
X140.1Y-112.4
X140.1Y-119.8
X140.1Y-125.0
X140.1Y-132.4
X140.1Y-137.6
X140.1Y-145.0
X140.1Y-150.2
X141.202Y-71.198
X141.49Y-76.21
X141.5Y-46.375
X141.707Y-141.007
X141.8Y-152.1
X142.099Y-59.493
X142.282Y-74.74
X143.4Y-141.0
X144.2Y-106.7
X144.3Y-82.45
X144.3Y-84.05
X145.3Y-86.0
X146.3Y-89.15
X146.9Y-86.0
X147.1Y-147.1
X147.114Y-129.986
X148.0Y-77.3
X148.0Y-107.7
X148.0Y-109.7
X148.0Y-110.9
X148.4Y-75.1
X148.4Y-81.3
X148.4Y-134.2
X148.811Y-113.511
X149.0Y-131.0
X149.4Y-117.2
X149.6Y-148.1
X149.8Y-93.5
X149.8Y-105.75
X149.8Y-107.7
X149.8Y-109.7
X149.8Y-111.8
X150.0Y-77.3
X150.4Y-134.2
X151.36Y-95.044
X151.4Y-117.2
X151.5Y-87.15
X151.5Y-91.5
X151.5Y-96.5
X151.5Y-98.9
X151.5Y-102.1
X151.5Y-104.5
X152.6Y-55.6
X152.6Y-60.9
X152.95Y-135.141
X153.0Y-142.4
X153.0Y-144.4
X153.3Y-91.5
X153.3Y-96.5
X153.3Y-98.9
X153.3Y-102.1
X153.3Y-109.7
X154.037Y-135.141
X154.1Y-152.3
X154.8Y-73.4
X154.8Y-82.9
X155.0Y-93.5
X155.0Y-107.7
X155.8Y-134.9
X156.606Y-72.9
X156.8Y-90.2
X156.8Y-93.5
X156.8Y-107.7
X156.8Y-111.0
X156.9Y-134.9
X157.0Y-85.8
X158.4Y-112.6
X158.5Y-120.0
X158.689Y-107.609
X158.8Y-114.9
X159.0Y-60.4
X159.0Y-85.8
X159.534Y-74.0
X160.0Y-112.6
X160.0Y-114.9
X160.1Y-78.8
X160.1Y-80.906
X160.1Y-126.1
X160.1Y-127.85
X160.286Y-137.417
X160.4Y-108.8
X160.734Y-74.0
X161.1Y-125.6
X161.1Y-129.0
X161.3Y-121.408
X161.391Y-77.143
X161.4Y-81.228
X161.7Y-128.2
X161.7Y-125.1
X161.803Y-81.919
X161.9Y-145.0
X161.937Y-122.65
X162.0Y-119.3
X162.0Y-77.8
X162.1Y-121.45
X162.176Y-104.124
X162.3Y-125.571
X162.3Y-129.0
X162.4Y-107.0
X162.4Y-108.8
X162.5Y-84.9
X162.6Y-78.4
X162.6Y-81.851
X162.9Y-58.6
X162.9Y-119.3
X162.9Y-125.1
X162.9Y-128.19
X162.9Y-141.7
X162.975Y-121.9
X163.0Y-131.06
X163.001Y-132.525
X163.15Y-94.85
X163.515Y-125.612
X163.7Y-83.6
X163.8Y-116.05
X163.8Y-117.65
X163.8Y-130.708
X163.8Y-132.5
X163.9Y-127.95
X164.2Y-145.0
X164.3Y-110.0
X164.4Y-105.7
X164.4Y-108.8
X164.4Y-121.6
X164.5Y-150.8
X164.5Y-152.8
X164.8Y-120.1
X164.8Y-118.9
X165.0Y-97.6
X165.0Y-98.8
X165.0Y-100.0
X165.0Y-102.15
X165.2Y-136.8
X165.4Y-77.8
X165.4Y-79.8
X165.417Y-81.883
X165.561Y-107.3
X165.568Y-108.5
X165.8Y-70.2
X165.884Y-103.445
X165.95Y-98.2
X166.3Y-120.0
X166.3Y-120.8
X166.35Y-99.4
X166.4Y-136.8
X166.451Y-69.551
X166.6Y-72.1
X166.6Y-75.65
X166.65Y-116.1
X166.75Y-97.1
X166.8Y-68.8
X167.0Y-96.3
X167.1Y-77.7
X167.1Y-80.0
X167.25Y-92.593
X167.3Y-105.1
X167.65Y-91.9
X167.7Y-115.3
X167.7Y-116.9
X167.7Y-125.843
X167.8Y-153.0
X168.0Y-68.8
X168.1Y-86.0
X168.1Y-88.0
X168.1Y-118.2
X168.132Y-120.75
X168.25Y-130.1
X168.25Y-132.2
X168.25Y-133.7
X168.25Y-134.8
X168.25Y-136.0
X168.25Y-137.6
X168.25Y-139.5
X168.328Y-141.628
X168.4Y-76.8
X168.4Y-110.0
X168.6Y-73.9
X168.739Y-127.542
X168.8Y-114.9
X168.8Y-116.9
X168.9Y-140.4
X169.2Y-124.8
X169.35Y-93.0
X169.35Y-94.4
X169.35Y-130.1
X169.35Y-132.2
X169.35Y-133.7
X169.35Y-134.8
X169.35Y-136.0
X169.35Y-137.6
X169.457Y-127.317
X169.6Y-74.9
X169.6Y-114.9
X169.6Y-116.9
X169.6Y-121.3
X169.9Y-86.0
X169.95Y-97.1
X169.95Y-103.2
X170.2Y-76.8
X170.35Y-96.3
X170.4Y-116.9
X170.5Y-125.642
X170.6Y-71.0
X170.6Y-72.1
X170.6Y-75.5
X170.8Y-98.601
X170.9Y-107.3
X171.0Y-124.5
X171.1Y-70.2
X171.15Y-91.8
X171.3Y-127.317
X171.4Y-125.61
X171.5Y-99.4
X171.5Y-102.3
X171.5Y-103.6
X171.6Y-66.473
X171.6Y-68.165
X171.7Y-92.4
X171.7Y-143.3
X171.75Y-94.4
X171.766Y-69.6
X171.8Y-87.7
X171.8Y-89.5
X171.85Y-76.1
X171.85Y-86.1
X172.1Y-127.337
X172.5Y-66.5
X172.5Y-68.2
X172.6Y-72.1
X172.6Y-149.2
X172.616Y-93.216
X172.7Y-77.0
X172.7Y-78.2
X172.7Y-84.3
X172.7Y-85.2
X172.7Y-123.7
X172.7Y-124.5
X172.7Y-128.3
X172.7Y-130.1
X172.7Y-133.7
X173.04Y-136.0
X173.11Y-92.297
X173.3Y-71.0
X173.5Y-123.8
X173.5Y-125.05
X173.5Y-128.3
X173.8Y-145.15
X174.066Y-76.765
X174.18Y-132.2
X174.2Y-146.8
X174.3Y-128.3
X174.4Y-134.8
X174.464Y-143.456
X174.5Y-68.835
X174.6Y-85.468
X174.6Y-88.6
X174.628Y-76.759
X174.676Y-124.5
X174.7Y-97.3
X174.7Y-139.7
X174.769Y-138.8
X174.8Y-137.6
X174.9Y-123.7
X175.2Y-143.2
X175.379Y-60.65
X175.4Y-58.249
X175.5Y-144.05
X175.5Y-145.15
X175.6Y-125.8
X175.622Y-91.122
X175.7Y-103.6
X175.9Y-128.3
X176.0Y-139.7
X176.3Y-68.835
X176.3Y-103.0
X176.7Y-144.1
X176.7Y-145.15
X176.73Y-120.1
X176.76Y-140.46
X176.8Y-73.55
X176.85Y-66.295
X177.1Y-54.1
X177.1Y-56.1
X177.1Y-59.049
X177.1Y-61.3
X177.1Y-125.6
X178.1Y-76.732
X178.226Y-75.274
X178.6Y-71.1
X178.6Y-90.9
X178.6Y-85.468
X179.0Y-61.4
X179.1Y-139.3
X179.1Y-144.05
X179.1Y-145.15
X179.3Y-125.7
X179.3Y-128.3
X180.1Y-64.9
X180.1Y-68.7
X180.1Y-123.9
X180.3Y-144.05
X180.3Y-145.15
X180.3Y-140.46
X180.54Y-95.9
X180.9Y-77.0
X181.0Y-85.2
X181.0Y-146.8
X181.031Y-77.799
X181.2Y-71.2
X181.2Y-74.8
X181.218Y-78.85
X181.266Y-128.3
X181.4Y-87.7
X181.5Y-145.15
X181.6Y-89.6
X181.7Y-76.2
X181.801Y-96.941
X181.82Y-108.9
X181.82Y-110.1
X181.85Y-86.1
X181.9Y-125.05
X182.0Y-123.95
X182.2Y-72.1
X182.2Y-75.4
X182.291Y-127.659
X182.3Y-64.9
X182.3Y-70.3
X182.6Y-79.35
X182.8Y-139.346
X182.8Y-144.05
X182.8Y-145.15
X183.2Y-62.97
X183.3Y-73.9
X183.3Y-123.95
X183.3Y-125.05
X183.488Y-71.088
X183.5Y-76.4
X183.5Y-80.4
X183.5Y-82.4
X183.5Y-85.2
X183.5Y-119.4
X183.62Y-129.025
X184.36Y-108.5
X184.36Y-110.1
X184.4Y-145.8
X184.7Y-131.9
X184.7Y-135.4
X184.7Y-143.8
X185.0Y-123.0
X185.2Y-63.2
X185.3Y-76.4
X185.3Y-84.8
X185.3Y-87.2
X185.3Y-82.75
X185.5Y-129.8
X185.5Y-138.9
X186.2Y-123.0
X186.4Y-121.1
X186.581Y-141.481
X186.8Y-90.6
X187.0Y-76.4
X187.0Y-84.8
X187.0Y-82.75
X187.1Y-127.5
X188.16Y-94.5
X188.16Y-108.1
X188.16Y-110.1
X188.4Y-140.4
X188.45Y-129.8
X188.45Y-131.9
X188.45Y-135.4
X188.45Y-136.8
X188.45Y-138.9
X188.7Y-120.2
X188.8Y-74.8
X188.8Y-82.4
X188.8Y-90.6
X189.0Y-147.0
X189.1Y-123.0
X189.55Y-129.8
X189.55Y-131.9
X189.55Y-133.6
X189.55Y-135.4
X189.55Y-136.8
X189.55Y-138.9
X189.6Y-88.75
X189.7Y-96.5
X189.834Y-71.334
X189.9Y-82.7
X189.9Y-84.4
X190.0Y-123.1
X190.0Y-125.2
X190.016Y-121.311
X190.2Y-57.4
X190.35Y-136.02
X190.5Y-85.0
X190.5Y-129.2
X190.7Y-94.5
X190.7Y-112.9
X190.701Y-82.7
X190.8Y-90.6
X190.8Y-92.4
X190.8Y-141.7
X190.932Y-140.911
X190.966Y-72.466
X191.0Y-55.6
X191.13Y-63.629
X191.2Y-128.8
X191.3Y-104.25
X191.35Y-120.4
X191.493Y-98.207
X191.55Y-85.159
X191.55Y-86.4
X191.55Y-87.7
X191.6Y-79.1
X191.6Y-146.8
X191.611Y-115.411
X191.7Y-136.7
X191.93Y-74.7
X192.2Y-100.678
X192.5Y-58.285
X192.5Y-60.3
X192.7Y-83.2
X192.886Y-110.714
X192.9Y-103.0
X192.9Y-107.9
X192.9Y-109.5
X192.9Y-112.0
X192.911Y-137.866
X193.0Y-139.7
X193.53Y-74.7
X193.56Y-87.7
X193.56Y-90.3
X193.6Y-85.2
X194.034Y-100.666
X195.4Y-58.285
X195.4Y-59.9
X195.7Y-107.9
X197.6Y-98.0
T2
X196.3Y-109.5
X196.3Y-110.75
X196.3Y-112.0
X196.3Y-113.25
X196.3Y-114.5
X194.0Y-56.2
X195.25Y-56.2
X196.5Y-56.2
X196.3Y-103.0
X196.3Y-104.25
X196.3Y-105.5
T3
X104.5Y-93.3
X106.5Y-93.3
X145.6Y-47.8
X145.6Y-51.3
X154.2Y-47.7
X154.2Y-51.2
X144.2Y-96.7
X144.2Y-98.7
X123.7Y-125.5
X125.7Y-125.5
X104.5Y-106.7
X106.5Y-106.7
X123.7Y-131.9
X125.7Y-131.9
X144.2Y-102.3
X144.2Y-104.3
X104.5Y-74.5
X106.5Y-74.5
X104.5Y-150.7
X106.5Y-150.7
X104.5Y-144.5
X110.1Y-100.0
X112.1Y-100.0
X104.5Y-61.9
X106.5Y-61.9
X126.9Y-100.0
X128.9Y-100.0
X123.7Y-49.3
X125.7Y-49.3
X104.5Y-80.7
X106.5Y-80.7
X123.7Y-68.1
X125.7Y-68.1
X123.7Y-55.5
X125.7Y-55.5
X123.7Y-93.3
X125.7Y-93.3
X104.5Y-49.3
X106.5Y-49.3
X162.8Y-47.7
X162.8Y-51.2
X106.5Y-144.5
X104.5Y-138.1
X106.5Y-138.1
X194.06Y-128.63
X194.06Y-131.17
X194.06Y-133.71
X194.06Y-136.25
X194.06Y-138.79
X194.06Y-141.33
X194.06Y-143.87
X196.6Y-129.9
X196.6Y-132.44
X196.6Y-134.98
X196.6Y-137.52
X196.6Y-140.06
X196.6Y-142.6
X196.6Y-145.14
X123.7Y-119.3
X125.7Y-119.3
X194.03Y-60.385
X194.03Y-62.925
X194.03Y-65.465
X104.5Y-131.9
X106.5Y-131.9
X106.5Y-87.1
X194.03Y-68.005
X194.03Y-70.545
X196.57Y-61.655
X196.57Y-64.195
X196.57Y-66.735
X196.57Y-69.275
X196.57Y-71.815
X123.7Y-106.7
X125.7Y-106.7
X123.7Y-112.9
X125.7Y-112.9
X144.2Y-91.1
X144.2Y-93.1
X144.2Y-108.0
X144.2Y-110.0
X123.7Y-87.1
X125.7Y-87.1
X123.7Y-74.5
X125.7Y-74.5
X115.7Y-100.0
X117.7Y-100.0
X123.7Y-61.9
X123.7Y-150.7
X125.7Y-150.7
X148.0Y-71.1
X150.0Y-71.1
X123.7Y-144.5
X125.7Y-144.5
X125.7Y-61.9
X104.5Y-87.1
X123.7Y-80.7
X125.7Y-80.7
X104.5Y-100.0
X106.5Y-100.0
X148.0Y-85.3
X150.0Y-85.3
X104.5Y-112.9
X106.5Y-112.9
X143.4Y-75.3
X145.4Y-75.3
X121.3Y-100.0
X123.3Y-100.0
X123.7Y-138.1
X125.7Y-138.1
X104.5Y-125.5
X106.5Y-125.5
X104.5Y-55.5
X106.5Y-55.5
X143.4Y-81.0
X145.4Y-81.0
X104.5Y-68.1
X106.5Y-68.1
X104.5Y-119.3
X106.5Y-119.3
T4
X175.2Y-114.4
X177.74Y-114.4
X180.28Y-114.4
X182.82Y-114.4
X185.36Y-114.4
X187.9Y-114.4
X170.02Y-151.7
X172.56Y-151.7
X175.1Y-151.7
X177.64Y-151.7
X180.18Y-151.7
T5
X93.31Y-64.62
X93.31Y-67.16
X93.31Y-69.7
X93.31Y-72.24
X93.31Y-74.78
X93.31Y-77.32
X93.31Y-79.86
X93.31Y-82.4
X93.31Y-84.94
X93.31Y-87.48
X93.31Y-90.02
X93.31Y-92.56
X93.31Y-95.1
X95.85Y-64.62
X95.85Y-67.16
X95.85Y-69.7
X95.85Y-72.24
X95.85Y-74.78
X95.85Y-77.32
X95.85Y-79.86
X95.85Y-82.4
X95.85Y-84.94
X95.85Y-87.48
X95.85Y-90.02
X95.85Y-92.56
X95.85Y-95.1
X93.31Y-105.8
X163.8Y-71.56
X93.31Y-118.5
X163.8Y-74.1
X194.16Y-76.3
X93.31Y-108.34
X93.31Y-110.88
X93.31Y-113.42
X93.31Y-115.96
X93.31Y-121.04
X93.31Y-123.58
X93.31Y-126.12
X93.31Y-128.66
X93.31Y-131.2
X93.31Y-136.28
X95.85Y-105.8
X95.85Y-108.34
X95.85Y-110.88
X95.85Y-113.42
X95.85Y-115.96
X95.85Y-118.5
X95.85Y-121.04
X95.85Y-123.58
X95.85Y-126.12
X95.85Y-128.66
X95.85Y-131.2
X95.85Y-133.74
X95.85Y-136.28
X194.16Y-78.84
X194.16Y-81.38
X194.16Y-83.92
X194.16Y-86.46
X194.16Y-89.0
X194.16Y-91.54
X194.16Y-94.08
X196.7Y-76.3
X196.7Y-78.84
X196.7Y-81.38
X196.7Y-83.92
X196.7Y-86.46
X196.7Y-89.0
X196.7Y-91.54
X196.7Y-94.08
X93.31Y-133.74
X154.9Y-118.4
X154.9Y-120.94
X154.9Y-123.48
X154.9Y-126.02
X154.9Y-128.56
X154.9Y-131.1
X154.9Y-133.64
X154.9Y-136.18
X154.9Y-138.72
X154.9Y-141.26
X157.44Y-118.4
X157.44Y-120.94
X157.44Y-123.48
X157.44Y-126.02
X157.44Y-128.56
X157.44Y-131.1
X157.44Y-133.64
X157.44Y-136.18
X157.44Y-138.72
X157.44Y-141.26
X145.36Y-151.7
X147.9Y-151.7
T6
X171.8Y-47.8
X171.8Y-50.8
X174.8Y-47.8
X174.8Y-50.8
T7
X194.8Y-117.88
X194.8Y-120.42
X194.8Y-122.96
X194.8Y-125.5
T8
X195.86Y-127.23
X194.77Y-73.215
T9
X95.0Y-150.0
X195.0Y-150.0
X195.0Y-50.0
X95.0Y-50.0
T10
X183.2Y-102.0
T11
X155.756Y-78.156
X159.4Y-100.5
X176.85Y-81.1
X178.9Y-134.5
T12
X168.8Y-51.74
X177.8Y-51.8
T0
M30
