M48
; DRILL file {KiCad (5.1.0-0)} date 2019 November 06, Wednesday 10:04:58
; FORMAT={-:-/ absolute / metric / decimal}
; #@! TF.CreationDate,2019-11-06T10:04:58+01:00
; #@! TF.GenerationSoftware,Kicad,Pcbnew,(5.1.0-0)
FMAT,2
METRIC
T1C0.300
T2C0.500
T3C0.800
T4C0.813
T5C1.000
T6C1.016
T7C1.100
T8C1.200
T9C1.300
T10C1.500
T11C1.600
T12C1.800
T13C1.854
T14C2.301
T15C3.200
%
G90
G05
T1
X36.0Y86.5
X43.555Y69.0
X44.825Y68.975
X48.635Y69.0
X49.9Y74.525
X49.905Y69.0
X50.6Y78.8
X51.175Y74.525
X51.175Y69.0
X52.445Y69.0
X54.8Y80.9
X55.8Y78.8
X60.6Y82.1
X60.9Y84.0
X63.3Y73.0
X67.7Y76.1
X67.7Y74.1
X67.8Y62.8
X69.6Y70.3
X130.0Y71.8
X134.0Y71.8
X136.0Y71.8
X140.0Y71.8
X155.7Y80.0
X157.7Y80.0
T2
X167.8Y77.8
X169.05Y77.8
X170.3Y77.8
T3
X81.245Y54.33
X82.515Y56.87
X83.785Y54.33
X85.055Y56.87
X86.325Y54.33
X87.595Y56.87
X88.865Y54.33
X90.135Y56.87
X91.405Y54.33
X92.675Y56.87
X93.945Y54.33
X95.215Y56.87
X33.46Y82.0
X36.0Y82.0
X38.54Y82.0
X96.485Y54.33
X97.755Y56.87
X45.96Y82.0
X48.5Y82.0
X51.04Y82.0
T4
X20.7Y79.999
X20.7Y78.0
X23.24Y79.999
X23.24Y78.0
T5
X15.94Y52.9
X18.48Y52.9
X21.02Y52.9
X26.1Y52.9
X166.5Y85.3
X23.56Y52.9
X169.0Y85.3
X171.5Y85.3
T6
X55.6Y56.84
X55.6Y54.3
X58.14Y56.84
X58.14Y54.3
X60.68Y56.84
X60.68Y54.3
X63.22Y56.84
X63.22Y54.3
X65.76Y56.84
X65.76Y54.3
X68.3Y56.84
X68.3Y54.3
X70.84Y56.84
X70.84Y54.3
X73.38Y56.84
X105.52Y56.9
X105.52Y54.36
X108.06Y56.9
X108.06Y54.36
X110.6Y56.9
X110.6Y54.36
X113.14Y56.9
X113.14Y54.36
X115.68Y56.9
X115.68Y54.36
X118.22Y56.9
X118.22Y54.36
X120.76Y56.9
X120.76Y54.36
X123.3Y56.9
X123.3Y54.36
X125.84Y56.9
X125.84Y54.36
X128.38Y56.9
X128.38Y54.36
X130.92Y56.9
X130.92Y54.36
X133.46Y56.9
X133.46Y54.36
X136.0Y56.9
X136.0Y54.36
X146.72Y56.9
X146.72Y54.36
X149.26Y56.9
X149.26Y54.36
X151.8Y56.9
X151.8Y54.36
X154.34Y56.9
X154.34Y54.36
X156.88Y56.9
X156.88Y54.36
X159.42Y56.9
X159.42Y54.36
X161.96Y56.9
X161.96Y54.36
X164.5Y56.9
X164.5Y54.36
X167.04Y56.9
X167.04Y54.36
X169.58Y56.9
X169.58Y54.36
X172.12Y56.9
X172.12Y54.36
X174.66Y54.36
X177.2Y56.9
X177.2Y54.36
X73.38Y54.3
X174.66Y56.9
T7
X45.96Y84.63
X51.04Y84.63
X33.46Y84.62
X38.54Y84.62
T8
X112.0Y77.3
X112.0Y72.22
X135.0Y72.85
T10
X99.155Y55.07
T11
X108.19Y86.19
X108.19Y72.22
X115.81Y81.11
X115.81Y72.22
X131.19Y86.19
X131.19Y77.3
X138.81Y81.11
X138.81Y76.665
T13
X71.301Y77.3
X71.301Y73.49
X73.46Y90.0
X76.0Y77.3
X76.0Y73.49
X78.54Y90.0
X80.699Y77.3
X80.699Y73.49
X85.301Y77.3
X85.301Y73.49
X87.46Y90.0
X90.0Y77.3
X90.0Y73.49
X92.54Y90.0
X94.699Y77.3
X94.699Y73.49
T14
X15.971Y82.699
X27.969Y82.699
T15
X10.0Y83.5
X180.0Y83.5
T5
G00X152.25Y81.05
M15
G01X152.25Y83.55
M16
G05
G00X159.75Y81.05
M15
G01X159.75Y83.55
M16
G05
G00X57.75Y81.05
M15
G01X57.75Y83.55
M16
G05
G00X65.25Y81.05
M15
G01X65.25Y83.55
M16
G05
T9
G00X154.75Y86.0
M15
G01X157.25Y86.0
M16
G05
G00X60.25Y86.0
M15
G01X62.75Y86.0
M16
G05
T12
G00X164.0Y81.85
M15
G01X164.0Y82.15
M16
G05
G00X174.0Y81.85
M15
G01X174.0Y82.15
M16
G05
T0
M30
