G04 #@! TF.GenerationSoftware,KiCad,Pcbnew,(5.1.0-0)*
G04 #@! TF.CreationDate,2020-01-03T12:25:20+01:00*
G04 #@! TF.ProjectId,AddOnA,4164644f-6e41-42e6-9b69-6361645f7063,rev?*
G04 #@! TF.SameCoordinates,Original*
G04 #@! TF.FileFunction,Paste,Bot*
G04 #@! TF.FilePolarity,Positive*
%FSLAX46Y46*%
G04 Gerber Fmt 4.6, Leading zero omitted, Abs format (unit mm)*
G04 Created by KiCad (PCBNEW (5.1.0-0)) date 2020-01-03 12:25:20*
%MOMM*%
%LPD*%
G04 APERTURE LIST*
%ADD10R,1.300000X1.000000*%
%ADD11R,1.000000X1.300000*%
%ADD12C,0.100000*%
%ADD13C,0.875000*%
%ADD14R,1.060000X0.650000*%
%ADD15R,0.600000X1.500000*%
%ADD16R,0.600000X1.550000*%
G04 APERTURE END LIST*
D10*
X85300000Y79600000D03*
X85300000Y77800000D03*
X94700000Y79600000D03*
X94700000Y77800000D03*
X71300000Y79600000D03*
X71300000Y77800000D03*
X80700000Y79600000D03*
X80700000Y77800000D03*
X130000000Y70600000D03*
X130000000Y72400000D03*
X132000000Y70600000D03*
X132000000Y72400000D03*
X136000000Y70600000D03*
X136000000Y72400000D03*
X138000000Y70600000D03*
X138000000Y72400000D03*
X36000000Y85300000D03*
X36000000Y87100000D03*
X134000000Y72400000D03*
X134000000Y70600000D03*
X140000000Y72400000D03*
X140000000Y70600000D03*
D11*
X106400000Y71500000D03*
X108200000Y71500000D03*
X112000000Y71500000D03*
X110200000Y71500000D03*
D10*
X157700000Y80600000D03*
X157700000Y78800000D03*
D11*
X53000000Y83500000D03*
X54800000Y83500000D03*
X50600000Y79200000D03*
X52400000Y79200000D03*
X53000000Y85500000D03*
X54800000Y85500000D03*
D10*
X159700000Y80600000D03*
X159700000Y78800000D03*
X155700000Y78800000D03*
X155700000Y80600000D03*
D11*
X63300000Y81600000D03*
X61500000Y81600000D03*
X66800000Y77600000D03*
X65000000Y77600000D03*
X61500000Y75600000D03*
X63300000Y75600000D03*
D10*
X55800000Y79400000D03*
X55800000Y77600000D03*
D12*
G36*
X63615191Y85973947D02*
G01*
X63636426Y85970797D01*
X63657250Y85965581D01*
X63677462Y85958349D01*
X63696868Y85949170D01*
X63715281Y85938134D01*
X63732524Y85925346D01*
X63748430Y85910930D01*
X63762846Y85895024D01*
X63775634Y85877781D01*
X63786670Y85859368D01*
X63795849Y85839962D01*
X63803081Y85819750D01*
X63808297Y85798926D01*
X63811447Y85777691D01*
X63812500Y85756250D01*
X63812500Y85243750D01*
X63811447Y85222309D01*
X63808297Y85201074D01*
X63803081Y85180250D01*
X63795849Y85160038D01*
X63786670Y85140632D01*
X63775634Y85122219D01*
X63762846Y85104976D01*
X63748430Y85089070D01*
X63732524Y85074654D01*
X63715281Y85061866D01*
X63696868Y85050830D01*
X63677462Y85041651D01*
X63657250Y85034419D01*
X63636426Y85029203D01*
X63615191Y85026053D01*
X63593750Y85025000D01*
X63156250Y85025000D01*
X63134809Y85026053D01*
X63113574Y85029203D01*
X63092750Y85034419D01*
X63072538Y85041651D01*
X63053132Y85050830D01*
X63034719Y85061866D01*
X63017476Y85074654D01*
X63001570Y85089070D01*
X62987154Y85104976D01*
X62974366Y85122219D01*
X62963330Y85140632D01*
X62954151Y85160038D01*
X62946919Y85180250D01*
X62941703Y85201074D01*
X62938553Y85222309D01*
X62937500Y85243750D01*
X62937500Y85756250D01*
X62938553Y85777691D01*
X62941703Y85798926D01*
X62946919Y85819750D01*
X62954151Y85839962D01*
X62963330Y85859368D01*
X62974366Y85877781D01*
X62987154Y85895024D01*
X63001570Y85910930D01*
X63017476Y85925346D01*
X63034719Y85938134D01*
X63053132Y85949170D01*
X63072538Y85958349D01*
X63092750Y85965581D01*
X63113574Y85970797D01*
X63134809Y85973947D01*
X63156250Y85975000D01*
X63593750Y85975000D01*
X63615191Y85973947D01*
X63615191Y85973947D01*
G37*
D13*
X63375000Y85500000D03*
D12*
G36*
X62040191Y85973947D02*
G01*
X62061426Y85970797D01*
X62082250Y85965581D01*
X62102462Y85958349D01*
X62121868Y85949170D01*
X62140281Y85938134D01*
X62157524Y85925346D01*
X62173430Y85910930D01*
X62187846Y85895024D01*
X62200634Y85877781D01*
X62211670Y85859368D01*
X62220849Y85839962D01*
X62228081Y85819750D01*
X62233297Y85798926D01*
X62236447Y85777691D01*
X62237500Y85756250D01*
X62237500Y85243750D01*
X62236447Y85222309D01*
X62233297Y85201074D01*
X62228081Y85180250D01*
X62220849Y85160038D01*
X62211670Y85140632D01*
X62200634Y85122219D01*
X62187846Y85104976D01*
X62173430Y85089070D01*
X62157524Y85074654D01*
X62140281Y85061866D01*
X62121868Y85050830D01*
X62102462Y85041651D01*
X62082250Y85034419D01*
X62061426Y85029203D01*
X62040191Y85026053D01*
X62018750Y85025000D01*
X61581250Y85025000D01*
X61559809Y85026053D01*
X61538574Y85029203D01*
X61517750Y85034419D01*
X61497538Y85041651D01*
X61478132Y85050830D01*
X61459719Y85061866D01*
X61442476Y85074654D01*
X61426570Y85089070D01*
X61412154Y85104976D01*
X61399366Y85122219D01*
X61388330Y85140632D01*
X61379151Y85160038D01*
X61371919Y85180250D01*
X61366703Y85201074D01*
X61363553Y85222309D01*
X61362500Y85243750D01*
X61362500Y85756250D01*
X61363553Y85777691D01*
X61366703Y85798926D01*
X61371919Y85819750D01*
X61379151Y85839962D01*
X61388330Y85859368D01*
X61399366Y85877781D01*
X61412154Y85895024D01*
X61426570Y85910930D01*
X61442476Y85925346D01*
X61459719Y85938134D01*
X61478132Y85949170D01*
X61497538Y85958349D01*
X61517750Y85965581D01*
X61538574Y85970797D01*
X61559809Y85973947D01*
X61581250Y85975000D01*
X62018750Y85975000D01*
X62040191Y85973947D01*
X62040191Y85973947D01*
G37*
D13*
X61800000Y85500000D03*
D14*
X57600000Y77550000D03*
X57600000Y78500000D03*
X57600000Y79450000D03*
X59800000Y79450000D03*
X59800000Y77550000D03*
D15*
X52445000Y71800000D03*
X51175000Y71800000D03*
X49905000Y71800000D03*
X48635000Y71800000D03*
X47365000Y71800000D03*
X46095000Y71800000D03*
X44825000Y71800000D03*
X43555000Y71800000D03*
X43555000Y77200000D03*
X44825000Y77200000D03*
X46095000Y77200000D03*
X47365000Y77200000D03*
X48635000Y77200000D03*
X49905000Y77200000D03*
X51175000Y77200000D03*
X52445000Y77200000D03*
D11*
X61500000Y83600000D03*
X63300000Y83600000D03*
X66800000Y79600000D03*
X65000000Y79600000D03*
X65000000Y75600000D03*
X66800000Y75600000D03*
X61500000Y79600000D03*
X63300000Y79600000D03*
X63300000Y77600000D03*
X61500000Y77600000D03*
X58000000Y75600000D03*
X59800000Y75600000D03*
D10*
X43800000Y80000000D03*
X43800000Y81800000D03*
X43800000Y85300000D03*
X43800000Y83500000D03*
D11*
X65900000Y62800000D03*
X64100000Y62800000D03*
D16*
X64095000Y70300000D03*
X65365000Y70300000D03*
X66635000Y70300000D03*
X67905000Y70300000D03*
X67905000Y64900000D03*
X66635000Y64900000D03*
X65365000Y64900000D03*
X64095000Y64900000D03*
D10*
X47400000Y69900000D03*
X47400000Y68100000D03*
M02*
