G04 #@! TF.GenerationSoftware,KiCad,Pcbnew,(5.1.0-0)*
G04 #@! TF.CreationDate,2020-01-03T12:25:20+01:00*
G04 #@! TF.ProjectId,AddOnA,4164644f-6e41-42e6-9b69-6361645f7063,rev?*
G04 #@! TF.SameCoordinates,Original*
G04 #@! TF.FileFunction,Legend,Top*
G04 #@! TF.FilePolarity,Positive*
%FSLAX46Y46*%
G04 Gerber Fmt 4.6, Leading zero omitted, Abs format (unit mm)*
G04 Created by KiCad (PCBNEW (5.1.0-0)) date 2020-01-03 12:25:20*
%MOMM*%
%LPD*%
G04 APERTURE LIST*
%ADD10C,0.300000*%
%ADD11C,0.254000*%
%ADD12C,0.120000*%
%ADD13C,0.150000*%
G04 APERTURE END LIST*
D10*
X35107142Y57800000D02*
X35821428Y57800000D01*
X34964285Y57371428D02*
X35464285Y58871428D01*
X35964285Y57371428D01*
X37107142Y57371428D02*
X37107142Y58871428D01*
X37107142Y57442857D02*
X36964285Y57371428D01*
X36678571Y57371428D01*
X36535714Y57442857D01*
X36464285Y57514285D01*
X36392857Y57657142D01*
X36392857Y58085714D01*
X36464285Y58228571D01*
X36535714Y58300000D01*
X36678571Y58371428D01*
X36964285Y58371428D01*
X37107142Y58300000D01*
X38464285Y57371428D02*
X38464285Y58871428D01*
X38464285Y57442857D02*
X38321428Y57371428D01*
X38035714Y57371428D01*
X37892857Y57442857D01*
X37821428Y57514285D01*
X37750000Y57657142D01*
X37750000Y58085714D01*
X37821428Y58228571D01*
X37892857Y58300000D01*
X38035714Y58371428D01*
X38321428Y58371428D01*
X38464285Y58300000D01*
X39464285Y58871428D02*
X39750000Y58871428D01*
X39892857Y58800000D01*
X40035714Y58657142D01*
X40107142Y58371428D01*
X40107142Y57871428D01*
X40035714Y57585714D01*
X39892857Y57442857D01*
X39750000Y57371428D01*
X39464285Y57371428D01*
X39321428Y57442857D01*
X39178571Y57585714D01*
X39107142Y57871428D01*
X39107142Y58371428D01*
X39178571Y58657142D01*
X39321428Y58800000D01*
X39464285Y58871428D01*
X40750000Y58371428D02*
X40750000Y57371428D01*
X40750000Y58228571D02*
X40821428Y58300000D01*
X40964285Y58371428D01*
X41178571Y58371428D01*
X41321428Y58300000D01*
X41392857Y58157142D01*
X41392857Y57371428D01*
X43178571Y57800000D02*
X43892857Y57800000D01*
X43035714Y57371428D02*
X43535714Y58871428D01*
X44035714Y57371428D01*
X35071428Y54821428D02*
X35071428Y55607142D01*
X34999999Y55750000D01*
X34857142Y55821428D01*
X34571428Y55821428D01*
X34428571Y55750000D01*
X35071428Y54892857D02*
X34928571Y54821428D01*
X34571428Y54821428D01*
X34428571Y54892857D01*
X34357142Y55035714D01*
X34357142Y55178571D01*
X34428571Y55321428D01*
X34571428Y55392857D01*
X34928571Y55392857D01*
X35071428Y55464285D01*
X36428571Y55821428D02*
X36428571Y54821428D01*
X35785714Y55821428D02*
X35785714Y55035714D01*
X35857142Y54892857D01*
X35999999Y54821428D01*
X36214285Y54821428D01*
X36357142Y54892857D01*
X36428571Y54964285D01*
X36999999Y55821428D02*
X37357142Y54821428D01*
X37714285Y55821428D01*
X38857142Y54892857D02*
X38714285Y54821428D01*
X38428571Y54821428D01*
X38285714Y54892857D01*
X38214285Y55035714D01*
X38214285Y55607142D01*
X38285714Y55750000D01*
X38428571Y55821428D01*
X38714285Y55821428D01*
X38857142Y55750000D01*
X38928571Y55607142D01*
X38928571Y55464285D01*
X38214285Y55321428D01*
X39571428Y54821428D02*
X39571428Y55821428D01*
X39571428Y55535714D02*
X39642857Y55678571D01*
X39714285Y55750000D01*
X39857142Y55821428D01*
X39999999Y55821428D01*
X41142857Y54821428D02*
X41142857Y56321428D01*
X41142857Y54892857D02*
X40999999Y54821428D01*
X40714285Y54821428D01*
X40571428Y54892857D01*
X40499999Y54964285D01*
X40428571Y55107142D01*
X40428571Y55535714D01*
X40499999Y55678571D01*
X40571428Y55750000D01*
X40714285Y55821428D01*
X40999999Y55821428D01*
X41142857Y55750000D01*
X41857142Y54821428D02*
X41857142Y55821428D01*
X41857142Y56321428D02*
X41785714Y56250000D01*
X41857142Y56178571D01*
X41928571Y56250000D01*
X41857142Y56321428D01*
X41857142Y56178571D01*
X42785714Y54821428D02*
X42642857Y54892857D01*
X42571428Y54964285D01*
X42500000Y55107142D01*
X42500000Y55535714D01*
X42571428Y55678571D01*
X42642857Y55750000D01*
X42785714Y55821428D01*
X43000000Y55821428D01*
X43142857Y55750000D01*
X43214285Y55678571D01*
X43285714Y55535714D01*
X43285714Y55107142D01*
X43214285Y54964285D01*
X43142857Y54892857D01*
X43000000Y54821428D01*
X42785714Y54821428D01*
X43928571Y55821428D02*
X43928571Y54821428D01*
X43928571Y55678571D02*
X44000000Y55750000D01*
X44142857Y55821428D01*
X44357142Y55821428D01*
X44500000Y55750000D01*
X44571428Y55607142D01*
X44571428Y54821428D01*
X37785714Y52271428D02*
X36928571Y52271428D01*
X37357142Y52271428D02*
X37357142Y53771428D01*
X37214285Y53557142D01*
X37071428Y53414285D01*
X36928571Y53342857D01*
X38428571Y52414285D02*
X38500000Y52342857D01*
X38428571Y52271428D01*
X38357142Y52342857D01*
X38428571Y52414285D01*
X38428571Y52271428D01*
X39428571Y53771428D02*
X39571428Y53771428D01*
X39714285Y53700000D01*
X39785714Y53628571D01*
X39857142Y53485714D01*
X39928571Y53200000D01*
X39928571Y52842857D01*
X39857142Y52557142D01*
X39785714Y52414285D01*
X39714285Y52342857D01*
X39571428Y52271428D01*
X39428571Y52271428D01*
X39285714Y52342857D01*
X39214285Y52414285D01*
X39142857Y52557142D01*
X39071428Y52842857D01*
X39071428Y53200000D01*
X39142857Y53485714D01*
X39214285Y53628571D01*
X39285714Y53700000D01*
X39428571Y53771428D01*
X40571428Y52414285D02*
X40642857Y52342857D01*
X40571428Y52271428D01*
X40500000Y52342857D01*
X40571428Y52414285D01*
X40571428Y52271428D01*
X42071428Y52271428D02*
X41214285Y52271428D01*
X41642857Y52271428D02*
X41642857Y53771428D01*
X41500000Y53557142D01*
X41357142Y53414285D01*
X41214285Y53342857D01*
D11*
X6500000Y90500000D02*
X13500000Y90500000D01*
X13500000Y91500000D02*
X6500000Y91500000D01*
X13500000Y81500000D02*
X13500000Y91500000D01*
X6500000Y81500000D02*
X13500000Y81500000D01*
X6500000Y91500000D02*
X6500000Y81500000D01*
X176500000Y90500000D02*
X183500000Y90500000D01*
X183500000Y91500000D02*
X176500000Y91500000D01*
X183500000Y81500000D02*
X183500000Y91500000D01*
X176500000Y81500000D02*
X183500000Y81500000D01*
X176500000Y91500000D02*
X176500000Y81500000D01*
D12*
X27430000Y54230000D02*
X27430000Y52900000D01*
X26100000Y54230000D02*
X27430000Y54230000D01*
X24830000Y54230000D02*
X24830000Y51570000D01*
X24830000Y51570000D02*
X14610000Y51570000D01*
X24830000Y54230000D02*
X14610000Y54230000D01*
X14610000Y54230000D02*
X14610000Y51570000D01*
D13*
X82350000Y88000000D02*
X69650000Y88000000D01*
X69650000Y88000000D02*
X69650000Y79110000D01*
X69650000Y79110000D02*
X82350000Y79110000D01*
X82350000Y79110000D02*
X82350000Y88000000D01*
X72825000Y88000000D02*
X72825000Y95620000D01*
X72825000Y95620000D02*
X79175000Y95620000D01*
X79175000Y95620000D02*
X79175000Y88000000D01*
X31150000Y81110000D02*
X40850000Y81110000D01*
X40850000Y81110000D02*
X40850000Y94610000D01*
X40850000Y94600000D02*
X31150000Y94600000D01*
X31150000Y94610000D02*
X31150000Y81110000D01*
X43650000Y81110000D02*
X53350000Y81110000D01*
X53350000Y81110000D02*
X53350000Y94610000D01*
X53350000Y94600000D02*
X43650000Y94600000D01*
X43650000Y94610000D02*
X43650000Y81110000D01*
X99500000Y91500000D02*
X99500000Y72900000D01*
X99500000Y72900000D02*
X124800000Y72900000D01*
X124800000Y72900000D02*
X124800000Y91500000D01*
X124800000Y91500000D02*
X99500000Y91500000D01*
X101000000Y91500000D02*
X101000000Y94200000D01*
X101000000Y94200000D02*
X123000000Y94200000D01*
X123000000Y94200000D02*
X123000000Y91500000D01*
X28066000Y77468000D02*
X15874000Y77468000D01*
X15874000Y94486000D02*
X28066000Y94486000D01*
X15874000Y77468000D02*
X15874000Y82548000D01*
X15874000Y85850000D02*
X15874000Y94486000D01*
X28066000Y77468000D02*
X28066000Y82548000D01*
X28066000Y85850000D02*
X28066000Y94486000D01*
X172200000Y79325000D02*
X171200000Y79325000D01*
X172200000Y79325000D02*
X172200000Y78325000D01*
X166700000Y76125000D02*
X169050000Y76125000D01*
X166700000Y77000000D02*
X166700000Y76125000D01*
X166500000Y77000000D02*
X166700000Y77000000D01*
X166500000Y77800000D02*
X166500000Y77000000D01*
X166700000Y77800000D02*
X166500000Y77800000D01*
X166700000Y78525000D02*
X166700000Y77800000D01*
X169050000Y78525000D02*
X166700000Y78525000D01*
X171400000Y76125000D02*
X169050000Y76125000D01*
X171400000Y77000000D02*
X171400000Y76125000D01*
X171600000Y77000000D02*
X171400000Y77000000D01*
X171600000Y77800000D02*
X171600000Y77000000D01*
X171400000Y77800000D02*
X171600000Y77800000D01*
X171400000Y78525000D02*
X171400000Y77800000D01*
X169050000Y78525000D02*
X171400000Y78525000D01*
X166150000Y75575000D02*
X171950000Y75575000D01*
X166150000Y79075000D02*
X166150000Y75575000D01*
X171950000Y79075000D02*
X166150000Y79075000D01*
X171950000Y75575000D02*
X171950000Y79075000D01*
D11*
X151000000Y91500000D02*
X161000000Y91500000D01*
X161000000Y91500000D02*
X161000000Y81500000D01*
X161000000Y81500000D02*
X151000000Y81500000D01*
X151000000Y81500000D02*
X151000000Y91500000D01*
X151850000Y91500000D02*
X151850000Y101000000D01*
X151850000Y101000000D02*
X160150000Y101000000D01*
X160150000Y101000000D02*
X160150000Y91500000D01*
D13*
X122500000Y91500000D02*
X122500000Y72000000D01*
X122500000Y72000000D02*
X147800000Y72000000D01*
X147800000Y72000000D02*
X147800000Y91500000D01*
X147800000Y91500000D02*
X122500000Y91500000D01*
X124000000Y91500000D02*
X124000000Y94200000D01*
X124000000Y94200000D02*
X146000000Y94200000D01*
X146000000Y94200000D02*
X146000000Y91500000D01*
X96350000Y88000000D02*
X83650000Y88000000D01*
X83650000Y88000000D02*
X83650000Y79110000D01*
X83650000Y79110000D02*
X96350000Y79110000D01*
X96350000Y79110000D02*
X96350000Y88000000D01*
X86825000Y88000000D02*
X86825000Y95620000D01*
X86825000Y95620000D02*
X93175000Y95620000D01*
X93175000Y95620000D02*
X93175000Y88000000D01*
D11*
X172000000Y95000000D02*
X166000000Y95000000D01*
X172000000Y102000000D02*
X172000000Y89600000D01*
X166000000Y102000000D02*
X166000000Y89600000D01*
X172000000Y102000000D02*
X166000000Y102000000D01*
X173900000Y79600000D02*
X164100000Y79600000D01*
X164100000Y79600000D02*
X164100000Y89600000D01*
X164100000Y89600000D02*
X173900000Y89600000D01*
X173900000Y89600000D02*
X173900000Y79600000D01*
D13*
X78460000Y51020000D02*
X77900000Y51570000D01*
X50520000Y51020000D02*
X51060000Y51570000D01*
X78460000Y60120000D02*
X77900000Y59570000D01*
X50520000Y60120000D02*
X51060000Y59570000D01*
X77900000Y59570000D02*
X77900000Y51570000D01*
X78460000Y60120000D02*
X78460000Y51020000D01*
X51060000Y59570000D02*
X51060000Y51570000D01*
X50520000Y60120000D02*
X50520000Y51020000D01*
X66740000Y51570000D02*
X66740000Y51020000D01*
X62240000Y51570000D02*
X62240000Y51020000D01*
X66740000Y51570000D02*
X77900000Y51570000D01*
X51060000Y51570000D02*
X62240000Y51570000D01*
X50520000Y51020000D02*
X78460000Y51020000D01*
X51060000Y59570000D02*
X77900000Y59570000D01*
X50520000Y60120000D02*
X78460000Y60120000D01*
X141640000Y60180000D02*
X142200000Y59630000D01*
X182280000Y60180000D02*
X181740000Y59630000D01*
X141640000Y51080000D02*
X142200000Y51630000D01*
X182280000Y51080000D02*
X181740000Y51630000D01*
X142200000Y51630000D02*
X142200000Y59630000D01*
X141640000Y51080000D02*
X141640000Y60180000D01*
X181740000Y51630000D02*
X181740000Y59630000D01*
X182280000Y51080000D02*
X182280000Y60180000D01*
X159710000Y59630000D02*
X159710000Y60180000D01*
X164210000Y59630000D02*
X164210000Y60180000D01*
X159710000Y59630000D02*
X142200000Y59630000D01*
X181740000Y59630000D02*
X164210000Y59630000D01*
X182280000Y60180000D02*
X141640000Y60180000D01*
X181740000Y51630000D02*
X142200000Y51630000D01*
X182280000Y51080000D02*
X141640000Y51080000D01*
X141080000Y51080000D02*
X100440000Y51080000D01*
X140540000Y51630000D02*
X101000000Y51630000D01*
X141080000Y60180000D02*
X100440000Y60180000D01*
X140540000Y59630000D02*
X123010000Y59630000D01*
X118510000Y59630000D02*
X101000000Y59630000D01*
X123010000Y59630000D02*
X123010000Y60180000D01*
X118510000Y59630000D02*
X118510000Y60180000D01*
X141080000Y51080000D02*
X141080000Y60180000D01*
X140540000Y51630000D02*
X140540000Y59630000D01*
X100440000Y51080000D02*
X100440000Y60180000D01*
X101000000Y51630000D02*
X101000000Y59630000D01*
X141080000Y51080000D02*
X140540000Y51630000D01*
X100440000Y51080000D02*
X101000000Y51630000D01*
X141080000Y60180000D02*
X140540000Y59630000D01*
X100440000Y60180000D02*
X101000000Y59630000D01*
D11*
X65650000Y101000000D02*
X65650000Y91500000D01*
X57350000Y101000000D02*
X65650000Y101000000D01*
X57350000Y91500000D02*
X57350000Y101000000D01*
X56500000Y81500000D02*
X56500000Y91500000D01*
X66500000Y81500000D02*
X56500000Y81500000D01*
X66500000Y91500000D02*
X66500000Y81500000D01*
X56500000Y91500000D02*
X66500000Y91500000D01*
D13*
X79570000Y53000000D02*
X79570000Y58200000D01*
X99430000Y53000000D02*
X79570000Y53000000D01*
X99430000Y58200000D02*
X99430000Y53000000D01*
X79570000Y58200000D02*
X99430000Y58200000D01*
X9595238Y91071428D02*
X9738095Y91023809D01*
X9785714Y90976190D01*
X9833333Y90880952D01*
X9833333Y90738095D01*
X9785714Y90642857D01*
X9738095Y90595238D01*
X9642857Y90547619D01*
X9261904Y90547619D01*
X9261904Y91547619D01*
X9595238Y91547619D01*
X9690476Y91500000D01*
X9738095Y91452380D01*
X9785714Y91357142D01*
X9785714Y91261904D01*
X9738095Y91166666D01*
X9690476Y91119047D01*
X9595238Y91071428D01*
X9261904Y91071428D01*
X10214285Y91452380D02*
X10261904Y91500000D01*
X10357142Y91547619D01*
X10595238Y91547619D01*
X10690476Y91500000D01*
X10738095Y91452380D01*
X10785714Y91357142D01*
X10785714Y91261904D01*
X10738095Y91119047D01*
X10166666Y90547619D01*
X10785714Y90547619D01*
X179595238Y91071428D02*
X179738095Y91023809D01*
X179785714Y90976190D01*
X179833333Y90880952D01*
X179833333Y90738095D01*
X179785714Y90642857D01*
X179738095Y90595238D01*
X179642857Y90547619D01*
X179261904Y90547619D01*
X179261904Y91547619D01*
X179595238Y91547619D01*
X179690476Y91500000D01*
X179738095Y91452380D01*
X179785714Y91357142D01*
X179785714Y91261904D01*
X179738095Y91166666D01*
X179690476Y91119047D01*
X179595238Y91071428D01*
X179261904Y91071428D01*
X180785714Y90547619D02*
X180214285Y90547619D01*
X180500000Y90547619D02*
X180500000Y91547619D01*
X180404761Y91404761D01*
X180309523Y91309523D01*
X180214285Y91261904D01*
X27882380Y52090476D02*
X28882380Y52757142D01*
X27882380Y52757142D02*
X28882380Y52090476D01*
X28882380Y53185714D02*
X28882380Y53376190D01*
X28834761Y53471428D01*
X28787142Y53519047D01*
X28644285Y53614285D01*
X28453809Y53661904D01*
X28072857Y53661904D01*
X27977619Y53614285D01*
X27930000Y53566666D01*
X27882380Y53471428D01*
X27882380Y53280952D01*
X27930000Y53185714D01*
X27977619Y53138095D01*
X28072857Y53090476D01*
X28310952Y53090476D01*
X28406190Y53138095D01*
X28453809Y53185714D01*
X28501428Y53280952D01*
X28501428Y53471428D01*
X28453809Y53566666D01*
X28406190Y53614285D01*
X28310952Y53661904D01*
X79666666Y77595238D02*
X79809523Y77547619D01*
X80047619Y77547619D01*
X80142857Y77595238D01*
X80190476Y77642857D01*
X80238095Y77738095D01*
X80238095Y77833333D01*
X80190476Y77928571D01*
X80142857Y77976190D01*
X80047619Y78023809D01*
X79857142Y78071428D01*
X79761904Y78119047D01*
X79714285Y78166666D01*
X79666666Y78261904D01*
X79666666Y78357142D01*
X79714285Y78452380D01*
X79761904Y78500000D01*
X79857142Y78547619D01*
X80095238Y78547619D01*
X80238095Y78500000D01*
X80571428Y78547619D02*
X80809523Y77547619D01*
X81000000Y78261904D01*
X81190476Y77547619D01*
X81428571Y78547619D01*
X82333333Y77547619D02*
X81761904Y77547619D01*
X82047619Y77547619D02*
X82047619Y78547619D01*
X81952380Y78404761D01*
X81857142Y78309523D01*
X81761904Y78261904D01*
X35190476Y80847619D02*
X35857142Y79847619D01*
X35857142Y80847619D02*
X35190476Y79847619D01*
X36142857Y80847619D02*
X36809523Y80847619D01*
X36380952Y79847619D01*
X46738095Y80847619D02*
X47404761Y79847619D01*
X47404761Y80847619D02*
X46738095Y79847619D01*
X48309523Y79847619D02*
X47738095Y79847619D01*
X48023809Y79847619D02*
X48023809Y80847619D01*
X47928571Y80704761D01*
X47833333Y80609523D01*
X47738095Y80561904D01*
X49261904Y79847619D02*
X48690476Y79847619D01*
X48976190Y79847619D02*
X48976190Y80847619D01*
X48880952Y80704761D01*
X48785714Y80609523D01*
X48690476Y80561904D01*
X49880952Y80847619D02*
X49976190Y80847619D01*
X50071428Y80800000D01*
X50119047Y80752380D01*
X50166666Y80657142D01*
X50214285Y80466666D01*
X50214285Y80228571D01*
X50166666Y80038095D01*
X50119047Y79942857D01*
X50071428Y79895238D01*
X49976190Y79847619D01*
X49880952Y79847619D01*
X49785714Y79895238D01*
X49738095Y79942857D01*
X49690476Y80038095D01*
X49642857Y80228571D01*
X49642857Y80466666D01*
X49690476Y80657142D01*
X49738095Y80752380D01*
X49785714Y80800000D01*
X49880952Y80847619D01*
X110238095Y72247619D02*
X110904761Y71247619D01*
X110904761Y72247619D02*
X110238095Y71247619D01*
X111809523Y71247619D02*
X111238095Y71247619D01*
X111523809Y71247619D02*
X111523809Y72247619D01*
X111428571Y72104761D01*
X111333333Y72009523D01*
X111238095Y71961904D01*
X112428571Y72247619D02*
X112523809Y72247619D01*
X112619047Y72200000D01*
X112666666Y72152380D01*
X112714285Y72057142D01*
X112761904Y71866666D01*
X112761904Y71628571D01*
X112714285Y71438095D01*
X112666666Y71342857D01*
X112619047Y71295238D01*
X112523809Y71247619D01*
X112428571Y71247619D01*
X112333333Y71295238D01*
X112285714Y71342857D01*
X112238095Y71438095D01*
X112190476Y71628571D01*
X112190476Y71866666D01*
X112238095Y72057142D01*
X112285714Y72152380D01*
X112333333Y72200000D01*
X112428571Y72247619D01*
X113714285Y71247619D02*
X113142857Y71247619D01*
X113428571Y71247619D02*
X113428571Y72247619D01*
X113333333Y72104761D01*
X113238095Y72009523D01*
X113142857Y71961904D01*
X19890476Y77147619D02*
X20557142Y76147619D01*
X20557142Y77147619D02*
X19890476Y76147619D01*
X21080952Y76719047D02*
X20985714Y76766666D01*
X20938095Y76814285D01*
X20890476Y76909523D01*
X20890476Y76957142D01*
X20938095Y77052380D01*
X20985714Y77100000D01*
X21080952Y77147619D01*
X21271428Y77147619D01*
X21366666Y77100000D01*
X21414285Y77052380D01*
X21461904Y76957142D01*
X21461904Y76909523D01*
X21414285Y76814285D01*
X21366666Y76766666D01*
X21271428Y76719047D01*
X21080952Y76719047D01*
X20985714Y76671428D01*
X20938095Y76623809D01*
X20890476Y76528571D01*
X20890476Y76338095D01*
X20938095Y76242857D01*
X20985714Y76195238D01*
X21080952Y76147619D01*
X21271428Y76147619D01*
X21366666Y76195238D01*
X21414285Y76242857D01*
X21461904Y76338095D01*
X21461904Y76528571D01*
X21414285Y76623809D01*
X21366666Y76671428D01*
X21271428Y76719047D01*
X169490476Y75247619D02*
X170157142Y74247619D01*
X170157142Y75247619D02*
X169490476Y74247619D01*
X170966666Y74914285D02*
X170966666Y74247619D01*
X170728571Y75295238D02*
X170490476Y74580952D01*
X171109523Y74580952D01*
X155190476Y87547619D02*
X155857142Y86547619D01*
X155857142Y87547619D02*
X155190476Y86547619D01*
X156142857Y87547619D02*
X156761904Y87547619D01*
X156428571Y87166666D01*
X156571428Y87166666D01*
X156666666Y87119047D01*
X156714285Y87071428D01*
X156761904Y86976190D01*
X156761904Y86738095D01*
X156714285Y86642857D01*
X156666666Y86595238D01*
X156571428Y86547619D01*
X156285714Y86547619D01*
X156190476Y86595238D01*
X156142857Y86642857D01*
X134190476Y71647619D02*
X134857142Y70647619D01*
X134857142Y71647619D02*
X134190476Y70647619D01*
X135190476Y71552380D02*
X135238095Y71600000D01*
X135333333Y71647619D01*
X135571428Y71647619D01*
X135666666Y71600000D01*
X135714285Y71552380D01*
X135761904Y71457142D01*
X135761904Y71361904D01*
X135714285Y71219047D01*
X135142857Y70647619D01*
X135761904Y70647619D01*
X93666666Y77595238D02*
X93809523Y77547619D01*
X94047619Y77547619D01*
X94142857Y77595238D01*
X94190476Y77642857D01*
X94238095Y77738095D01*
X94238095Y77833333D01*
X94190476Y77928571D01*
X94142857Y77976190D01*
X94047619Y78023809D01*
X93857142Y78071428D01*
X93761904Y78119047D01*
X93714285Y78166666D01*
X93666666Y78261904D01*
X93666666Y78357142D01*
X93714285Y78452380D01*
X93761904Y78500000D01*
X93857142Y78547619D01*
X94095238Y78547619D01*
X94238095Y78500000D01*
X94571428Y78547619D02*
X94809523Y77547619D01*
X95000000Y78261904D01*
X95190476Y77547619D01*
X95428571Y78547619D01*
X95761904Y78452380D02*
X95809523Y78500000D01*
X95904761Y78547619D01*
X96142857Y78547619D01*
X96238095Y78500000D01*
X96285714Y78452380D01*
X96333333Y78357142D01*
X96333333Y78261904D01*
X96285714Y78119047D01*
X95714285Y77547619D01*
X96333333Y77547619D01*
X172661904Y78247619D02*
X172661904Y79247619D01*
X173042857Y79247619D01*
X173138095Y79200000D01*
X173185714Y79152380D01*
X173233333Y79057142D01*
X173233333Y78914285D01*
X173185714Y78819047D01*
X173138095Y78771428D01*
X173042857Y78723809D01*
X172661904Y78723809D01*
X174185714Y78247619D02*
X173614285Y78247619D01*
X173900000Y78247619D02*
X173900000Y79247619D01*
X173804761Y79104761D01*
X173709523Y79009523D01*
X173614285Y78961904D01*
X49152380Y53530476D02*
X50152380Y54197142D01*
X49152380Y54197142D02*
X50152380Y53530476D01*
X49152380Y55006666D02*
X49152380Y54816190D01*
X49200000Y54720952D01*
X49247619Y54673333D01*
X49390476Y54578095D01*
X49580952Y54530476D01*
X49961904Y54530476D01*
X50057142Y54578095D01*
X50104761Y54625714D01*
X50152380Y54720952D01*
X50152380Y54911428D01*
X50104761Y55006666D01*
X50057142Y55054285D01*
X49961904Y55101904D01*
X49723809Y55101904D01*
X49628571Y55054285D01*
X49580952Y55006666D01*
X49533333Y54911428D01*
X49533333Y54720952D01*
X49580952Y54625714D01*
X49628571Y54578095D01*
X49723809Y54530476D01*
X175438095Y61547619D02*
X176104761Y60547619D01*
X176104761Y61547619D02*
X175438095Y60547619D01*
X177009523Y60547619D02*
X176438095Y60547619D01*
X176723809Y60547619D02*
X176723809Y61547619D01*
X176628571Y61404761D01*
X176533333Y61309523D01*
X176438095Y61261904D01*
X177961904Y60547619D02*
X177390476Y60547619D01*
X177676190Y60547619D02*
X177676190Y61547619D01*
X177580952Y61404761D01*
X177485714Y61309523D01*
X177390476Y61261904D01*
X178819047Y61214285D02*
X178819047Y60547619D01*
X178580952Y61595238D02*
X178342857Y60880952D01*
X178961904Y60880952D01*
X134238095Y61547619D02*
X134904761Y60547619D01*
X134904761Y61547619D02*
X134238095Y60547619D01*
X135809523Y60547619D02*
X135238095Y60547619D01*
X135523809Y60547619D02*
X135523809Y61547619D01*
X135428571Y61404761D01*
X135333333Y61309523D01*
X135238095Y61261904D01*
X136761904Y60547619D02*
X136190476Y60547619D01*
X136476190Y60547619D02*
X136476190Y61547619D01*
X136380952Y61404761D01*
X136285714Y61309523D01*
X136190476Y61261904D01*
X137666666Y61547619D02*
X137190476Y61547619D01*
X137142857Y61071428D01*
X137190476Y61119047D01*
X137285714Y61166666D01*
X137523809Y61166666D01*
X137619047Y61119047D01*
X137666666Y61071428D01*
X137714285Y60976190D01*
X137714285Y60738095D01*
X137666666Y60642857D01*
X137619047Y60595238D01*
X137523809Y60547619D01*
X137285714Y60547619D01*
X137190476Y60595238D01*
X137142857Y60642857D01*
X60690476Y81047619D02*
X61357142Y80047619D01*
X61357142Y81047619D02*
X60690476Y80047619D01*
X62261904Y80047619D02*
X61690476Y80047619D01*
X61976190Y80047619D02*
X61976190Y81047619D01*
X61880952Y80904761D01*
X61785714Y80809523D01*
X61690476Y80761904D01*
X97090476Y59447619D02*
X97757142Y58447619D01*
X97757142Y59447619D02*
X97090476Y58447619D01*
X98614285Y59447619D02*
X98138095Y59447619D01*
X98090476Y58971428D01*
X98138095Y59019047D01*
X98233333Y59066666D01*
X98471428Y59066666D01*
X98566666Y59019047D01*
X98614285Y58971428D01*
X98661904Y58876190D01*
X98661904Y58638095D01*
X98614285Y58542857D01*
X98566666Y58495238D01*
X98471428Y58447619D01*
X98233333Y58447619D01*
X98138095Y58495238D01*
X98090476Y58542857D01*
M02*
