G04 #@! TF.GenerationSoftware,KiCad,Pcbnew,(5.1.0-0)*
G04 #@! TF.CreationDate,2020-01-06T22:21:57+01:00*
G04 #@! TF.ProjectId,AddOnA,4164644f-6e41-42e6-9b69-6361645f7063,rev?*
G04 #@! TF.SameCoordinates,Original*
G04 #@! TF.FileFunction,Paste,Bot*
G04 #@! TF.FilePolarity,Positive*
%FSLAX46Y46*%
G04 Gerber Fmt 4.6, Leading zero omitted, Abs format (unit mm)*
G04 Created by KiCad (PCBNEW (5.1.0-0)) date 2020-01-06 22:21:57*
%MOMM*%
%LPD*%
G04 APERTURE LIST*
%ADD10R,1.300000X1.000000*%
%ADD11R,1.000000X1.300000*%
%ADD12C,0.100000*%
%ADD13C,0.875000*%
%ADD14R,1.060000X0.650000*%
%ADD15R,0.600000X1.500000*%
%ADD16R,0.600000X1.550000*%
G04 APERTURE END LIST*
D10*
X85300000Y79600000D03*
X85300000Y77800000D03*
X94700000Y79600000D03*
X94700000Y77800000D03*
X71300000Y79600000D03*
X71300000Y77800000D03*
X80700000Y79600000D03*
X80700000Y77800000D03*
X130000000Y69100000D03*
X130000000Y70900000D03*
X132000000Y69100000D03*
X132000000Y70900000D03*
X136000000Y69100000D03*
X136000000Y70900000D03*
X138000000Y69100000D03*
X138000000Y70900000D03*
X36000000Y83800000D03*
X36000000Y85600000D03*
X134000000Y70900000D03*
X134000000Y69100000D03*
X140000000Y70900000D03*
X140000000Y69100000D03*
D11*
X106400000Y70000000D03*
X108200000Y70000000D03*
X112000000Y70000000D03*
X110200000Y70000000D03*
D10*
X157700000Y79100000D03*
X157700000Y77300000D03*
D11*
X53000000Y82000000D03*
X54800000Y82000000D03*
X50600000Y77700000D03*
X52400000Y77700000D03*
X53000000Y84000000D03*
X54800000Y84000000D03*
D10*
X159700000Y79100000D03*
X159700000Y77300000D03*
X155700000Y77300000D03*
X155700000Y79100000D03*
D11*
X63300000Y80100000D03*
X61500000Y80100000D03*
X66800000Y76100000D03*
X65000000Y76100000D03*
X61500000Y74100000D03*
X63300000Y74100000D03*
D10*
X55800000Y77900000D03*
X55800000Y76100000D03*
D12*
G36*
X63615191Y84473947D02*
G01*
X63636426Y84470797D01*
X63657250Y84465581D01*
X63677462Y84458349D01*
X63696868Y84449170D01*
X63715281Y84438134D01*
X63732524Y84425346D01*
X63748430Y84410930D01*
X63762846Y84395024D01*
X63775634Y84377781D01*
X63786670Y84359368D01*
X63795849Y84339962D01*
X63803081Y84319750D01*
X63808297Y84298926D01*
X63811447Y84277691D01*
X63812500Y84256250D01*
X63812500Y83743750D01*
X63811447Y83722309D01*
X63808297Y83701074D01*
X63803081Y83680250D01*
X63795849Y83660038D01*
X63786670Y83640632D01*
X63775634Y83622219D01*
X63762846Y83604976D01*
X63748430Y83589070D01*
X63732524Y83574654D01*
X63715281Y83561866D01*
X63696868Y83550830D01*
X63677462Y83541651D01*
X63657250Y83534419D01*
X63636426Y83529203D01*
X63615191Y83526053D01*
X63593750Y83525000D01*
X63156250Y83525000D01*
X63134809Y83526053D01*
X63113574Y83529203D01*
X63092750Y83534419D01*
X63072538Y83541651D01*
X63053132Y83550830D01*
X63034719Y83561866D01*
X63017476Y83574654D01*
X63001570Y83589070D01*
X62987154Y83604976D01*
X62974366Y83622219D01*
X62963330Y83640632D01*
X62954151Y83660038D01*
X62946919Y83680250D01*
X62941703Y83701074D01*
X62938553Y83722309D01*
X62937500Y83743750D01*
X62937500Y84256250D01*
X62938553Y84277691D01*
X62941703Y84298926D01*
X62946919Y84319750D01*
X62954151Y84339962D01*
X62963330Y84359368D01*
X62974366Y84377781D01*
X62987154Y84395024D01*
X63001570Y84410930D01*
X63017476Y84425346D01*
X63034719Y84438134D01*
X63053132Y84449170D01*
X63072538Y84458349D01*
X63092750Y84465581D01*
X63113574Y84470797D01*
X63134809Y84473947D01*
X63156250Y84475000D01*
X63593750Y84475000D01*
X63615191Y84473947D01*
X63615191Y84473947D01*
G37*
D13*
X63375000Y84000000D03*
D12*
G36*
X62040191Y84473947D02*
G01*
X62061426Y84470797D01*
X62082250Y84465581D01*
X62102462Y84458349D01*
X62121868Y84449170D01*
X62140281Y84438134D01*
X62157524Y84425346D01*
X62173430Y84410930D01*
X62187846Y84395024D01*
X62200634Y84377781D01*
X62211670Y84359368D01*
X62220849Y84339962D01*
X62228081Y84319750D01*
X62233297Y84298926D01*
X62236447Y84277691D01*
X62237500Y84256250D01*
X62237500Y83743750D01*
X62236447Y83722309D01*
X62233297Y83701074D01*
X62228081Y83680250D01*
X62220849Y83660038D01*
X62211670Y83640632D01*
X62200634Y83622219D01*
X62187846Y83604976D01*
X62173430Y83589070D01*
X62157524Y83574654D01*
X62140281Y83561866D01*
X62121868Y83550830D01*
X62102462Y83541651D01*
X62082250Y83534419D01*
X62061426Y83529203D01*
X62040191Y83526053D01*
X62018750Y83525000D01*
X61581250Y83525000D01*
X61559809Y83526053D01*
X61538574Y83529203D01*
X61517750Y83534419D01*
X61497538Y83541651D01*
X61478132Y83550830D01*
X61459719Y83561866D01*
X61442476Y83574654D01*
X61426570Y83589070D01*
X61412154Y83604976D01*
X61399366Y83622219D01*
X61388330Y83640632D01*
X61379151Y83660038D01*
X61371919Y83680250D01*
X61366703Y83701074D01*
X61363553Y83722309D01*
X61362500Y83743750D01*
X61362500Y84256250D01*
X61363553Y84277691D01*
X61366703Y84298926D01*
X61371919Y84319750D01*
X61379151Y84339962D01*
X61388330Y84359368D01*
X61399366Y84377781D01*
X61412154Y84395024D01*
X61426570Y84410930D01*
X61442476Y84425346D01*
X61459719Y84438134D01*
X61478132Y84449170D01*
X61497538Y84458349D01*
X61517750Y84465581D01*
X61538574Y84470797D01*
X61559809Y84473947D01*
X61581250Y84475000D01*
X62018750Y84475000D01*
X62040191Y84473947D01*
X62040191Y84473947D01*
G37*
D13*
X61800000Y84000000D03*
D14*
X57600000Y76050000D03*
X57600000Y77000000D03*
X57600000Y77950000D03*
X59800000Y77950000D03*
X59800000Y76050000D03*
D15*
X52445000Y70300000D03*
X51175000Y70300000D03*
X49905000Y70300000D03*
X48635000Y70300000D03*
X47365000Y70300000D03*
X46095000Y70300000D03*
X44825000Y70300000D03*
X43555000Y70300000D03*
X43555000Y75700000D03*
X44825000Y75700000D03*
X46095000Y75700000D03*
X47365000Y75700000D03*
X48635000Y75700000D03*
X49905000Y75700000D03*
X51175000Y75700000D03*
X52445000Y75700000D03*
D11*
X61500000Y82100000D03*
X63300000Y82100000D03*
X66800000Y78100000D03*
X65000000Y78100000D03*
X65000000Y74100000D03*
X66800000Y74100000D03*
X61500000Y78100000D03*
X63300000Y78100000D03*
X63300000Y76100000D03*
X61500000Y76100000D03*
X58000000Y74100000D03*
X59800000Y74100000D03*
D10*
X43800000Y78500000D03*
X43800000Y80300000D03*
X43800000Y83800000D03*
X43800000Y82000000D03*
D11*
X65900000Y62800000D03*
X64100000Y62800000D03*
D16*
X64095000Y70300000D03*
X65365000Y70300000D03*
X66635000Y70300000D03*
X67905000Y70300000D03*
X67905000Y64900000D03*
X66635000Y64900000D03*
X65365000Y64900000D03*
X64095000Y64900000D03*
D10*
X47400000Y68400000D03*
X47400000Y66600000D03*
M02*
