G04 #@! TF.GenerationSoftware,KiCad,Pcbnew,(5.1.0-0)*
G04 #@! TF.CreationDate,2020-01-03T12:25:19+01:00*
G04 #@! TF.ProjectId,AddOnA,4164644f-6e41-42e6-9b69-6361645f7063,rev?*
G04 #@! TF.SameCoordinates,Original*
G04 #@! TF.FileFunction,Copper,L2,Bot*
G04 #@! TF.FilePolarity,Positive*
%FSLAX46Y46*%
G04 Gerber Fmt 4.6, Leading zero omitted, Abs format (unit mm)*
G04 Created by KiCad (PCBNEW (5.1.0-0)) date 2020-01-03 12:25:19*
%MOMM*%
%LPD*%
G04 APERTURE LIST*
%ADD10C,6.000000*%
%ADD11O,1.700000X1.700000*%
%ADD12R,1.700000X1.700000*%
%ADD13C,2.794000*%
%ADD14C,1.600000*%
%ADD15C,1.400000*%
%ADD16C,2.000000*%
%ADD17C,2.700020*%
%ADD18C,1.524000*%
%ADD19C,0.850000*%
%ADD20R,0.850000X0.850000*%
%ADD21O,1.600000X4.100000*%
%ADD22O,4.400000X1.900000*%
%ADD23R,1.300000X1.000000*%
%ADD24R,2.800000X3.100000*%
%ADD25C,1.727200*%
%ADD26R,1.727200X1.727200*%
%ADD27R,1.000000X1.300000*%
%ADD28O,1.727200X1.727200*%
%ADD29C,0.100000*%
%ADD30C,0.875000*%
%ADD31R,1.060000X0.650000*%
%ADD32R,0.600000X1.500000*%
%ADD33R,0.600000X1.550000*%
%ADD34C,1.500000*%
%ADD35C,0.600000*%
%ADD36C,0.200000*%
%ADD37C,0.500000*%
%ADD38C,0.600000*%
%ADD39C,0.180000*%
%ADD40C,0.254000*%
G04 APERTURE END LIST*
D10*
X10000000Y85000000D03*
X180000000Y85000000D03*
D11*
X15940000Y52900000D03*
X18480000Y52900000D03*
X21020000Y52900000D03*
X23560000Y52900000D03*
D12*
X26100000Y52900000D03*
D13*
X73460000Y88000000D03*
X78540000Y88000000D03*
X71301000Y71490000D03*
X76000000Y71490000D03*
X80699000Y71490000D03*
X71301000Y75300000D03*
X76000000Y75300000D03*
X80699000Y75300000D03*
D14*
X33460000Y86120000D03*
X38540000Y86120000D03*
D15*
X33460000Y83500000D03*
X36000000Y83500000D03*
X38540000Y83500000D03*
D14*
X45960000Y86130000D03*
X51040000Y86130000D03*
D15*
X45960000Y83500000D03*
X48500000Y83500000D03*
X51040000Y83500000D03*
D14*
X112000000Y78800000D03*
D16*
X108190000Y87690000D03*
X115810000Y82610000D03*
D14*
X112000000Y73720000D03*
D16*
X115810000Y73720000D03*
X108190000Y73720000D03*
D17*
X15970520Y84199000D03*
X27969480Y84199000D03*
D18*
X23240000Y81498980D03*
X20700000Y81498980D03*
X20700000Y79500000D03*
X23240000Y79500000D03*
D19*
X167800000Y77800000D03*
X169050000Y77800000D03*
D20*
X170300000Y77800000D03*
D21*
X152250000Y83800000D03*
X159750000Y83800000D03*
D22*
X156000000Y87500000D03*
D16*
X131190000Y87690000D03*
X138810000Y82610000D03*
D14*
X135000000Y74350000D03*
D16*
X138810000Y78165000D03*
X131190000Y78800000D03*
D13*
X87460000Y88000000D03*
X92540000Y88000000D03*
X85301000Y71490000D03*
X90000000Y71490000D03*
X94699000Y71490000D03*
X85301000Y75300000D03*
X90000000Y75300000D03*
X94699000Y75300000D03*
D23*
X85300000Y79600000D03*
X85300000Y77800000D03*
X94700000Y79600000D03*
X94700000Y77800000D03*
X71300000Y79600000D03*
X71300000Y77800000D03*
X80700000Y79600000D03*
X80700000Y77800000D03*
X130000000Y70600000D03*
X130000000Y72400000D03*
X132000000Y70600000D03*
X132000000Y72400000D03*
X136000000Y70600000D03*
X136000000Y72400000D03*
X138000000Y70600000D03*
X138000000Y72400000D03*
D24*
X174000000Y82000000D03*
X164000000Y82000000D03*
D14*
X166500000Y85300000D03*
X169000000Y85300000D03*
X171500000Y85300000D03*
D23*
X36000000Y85300000D03*
X36000000Y87100000D03*
X134000000Y72400000D03*
X134000000Y70600000D03*
X140000000Y72400000D03*
X140000000Y70600000D03*
D25*
X73380000Y56840000D03*
X73380000Y54300000D03*
X70840000Y56840000D03*
X70840000Y54300000D03*
X68300000Y56840000D03*
X68300000Y54300000D03*
X65760000Y56840000D03*
X65760000Y54300000D03*
X63220000Y56840000D03*
X63220000Y54300000D03*
X60680000Y56840000D03*
X60680000Y54300000D03*
X58140000Y56840000D03*
X58140000Y54300000D03*
X55600000Y56840000D03*
D26*
X55600000Y54300000D03*
D27*
X106400000Y71500000D03*
X108200000Y71500000D03*
X112000000Y71500000D03*
X110200000Y71500000D03*
D23*
X157700000Y80600000D03*
X157700000Y78800000D03*
D27*
X53000000Y83500000D03*
X54800000Y83500000D03*
X50600000Y79200000D03*
X52400000Y79200000D03*
X53000000Y85500000D03*
X54800000Y85500000D03*
D23*
X159700000Y80600000D03*
X159700000Y78800000D03*
X155700000Y78800000D03*
X155700000Y80600000D03*
D28*
X146720000Y54360000D03*
X146720000Y56900000D03*
X149260000Y54360000D03*
X149260000Y56900000D03*
X151800000Y54360000D03*
X151800000Y56900000D03*
X154340000Y54360000D03*
X154340000Y56900000D03*
X156880000Y54360000D03*
X156880000Y56900000D03*
X159420000Y54360000D03*
X159420000Y56900000D03*
X161960000Y54360000D03*
X161960000Y56900000D03*
X164500000Y54360000D03*
X164500000Y56900000D03*
X167040000Y54360000D03*
X167040000Y56900000D03*
X169580000Y54360000D03*
X169580000Y56900000D03*
X172120000Y54360000D03*
X172120000Y56900000D03*
X174660000Y54360000D03*
X174660000Y56900000D03*
X177200000Y54360000D03*
D26*
X177200000Y56900000D03*
X136000000Y56900000D03*
D28*
X136000000Y54360000D03*
X133460000Y56900000D03*
X133460000Y54360000D03*
X130920000Y56900000D03*
X130920000Y54360000D03*
X128380000Y56900000D03*
X128380000Y54360000D03*
X125840000Y56900000D03*
X125840000Y54360000D03*
X123300000Y56900000D03*
X123300000Y54360000D03*
X120760000Y56900000D03*
X120760000Y54360000D03*
X118220000Y56900000D03*
X118220000Y54360000D03*
X115680000Y56900000D03*
X115680000Y54360000D03*
X113140000Y56900000D03*
X113140000Y54360000D03*
X110600000Y56900000D03*
X110600000Y54360000D03*
X108060000Y56900000D03*
X108060000Y54360000D03*
X105520000Y56900000D03*
X105520000Y54360000D03*
D27*
X63300000Y81600000D03*
X61500000Y81600000D03*
X66800000Y77600000D03*
X65000000Y77600000D03*
X61500000Y75600000D03*
X63300000Y75600000D03*
D23*
X55800000Y79400000D03*
X55800000Y77600000D03*
D29*
G36*
X63615191Y85973947D02*
G01*
X63636426Y85970797D01*
X63657250Y85965581D01*
X63677462Y85958349D01*
X63696868Y85949170D01*
X63715281Y85938134D01*
X63732524Y85925346D01*
X63748430Y85910930D01*
X63762846Y85895024D01*
X63775634Y85877781D01*
X63786670Y85859368D01*
X63795849Y85839962D01*
X63803081Y85819750D01*
X63808297Y85798926D01*
X63811447Y85777691D01*
X63812500Y85756250D01*
X63812500Y85243750D01*
X63811447Y85222309D01*
X63808297Y85201074D01*
X63803081Y85180250D01*
X63795849Y85160038D01*
X63786670Y85140632D01*
X63775634Y85122219D01*
X63762846Y85104976D01*
X63748430Y85089070D01*
X63732524Y85074654D01*
X63715281Y85061866D01*
X63696868Y85050830D01*
X63677462Y85041651D01*
X63657250Y85034419D01*
X63636426Y85029203D01*
X63615191Y85026053D01*
X63593750Y85025000D01*
X63156250Y85025000D01*
X63134809Y85026053D01*
X63113574Y85029203D01*
X63092750Y85034419D01*
X63072538Y85041651D01*
X63053132Y85050830D01*
X63034719Y85061866D01*
X63017476Y85074654D01*
X63001570Y85089070D01*
X62987154Y85104976D01*
X62974366Y85122219D01*
X62963330Y85140632D01*
X62954151Y85160038D01*
X62946919Y85180250D01*
X62941703Y85201074D01*
X62938553Y85222309D01*
X62937500Y85243750D01*
X62937500Y85756250D01*
X62938553Y85777691D01*
X62941703Y85798926D01*
X62946919Y85819750D01*
X62954151Y85839962D01*
X62963330Y85859368D01*
X62974366Y85877781D01*
X62987154Y85895024D01*
X63001570Y85910930D01*
X63017476Y85925346D01*
X63034719Y85938134D01*
X63053132Y85949170D01*
X63072538Y85958349D01*
X63092750Y85965581D01*
X63113574Y85970797D01*
X63134809Y85973947D01*
X63156250Y85975000D01*
X63593750Y85975000D01*
X63615191Y85973947D01*
X63615191Y85973947D01*
G37*
D30*
X63375000Y85500000D03*
D29*
G36*
X62040191Y85973947D02*
G01*
X62061426Y85970797D01*
X62082250Y85965581D01*
X62102462Y85958349D01*
X62121868Y85949170D01*
X62140281Y85938134D01*
X62157524Y85925346D01*
X62173430Y85910930D01*
X62187846Y85895024D01*
X62200634Y85877781D01*
X62211670Y85859368D01*
X62220849Y85839962D01*
X62228081Y85819750D01*
X62233297Y85798926D01*
X62236447Y85777691D01*
X62237500Y85756250D01*
X62237500Y85243750D01*
X62236447Y85222309D01*
X62233297Y85201074D01*
X62228081Y85180250D01*
X62220849Y85160038D01*
X62211670Y85140632D01*
X62200634Y85122219D01*
X62187846Y85104976D01*
X62173430Y85089070D01*
X62157524Y85074654D01*
X62140281Y85061866D01*
X62121868Y85050830D01*
X62102462Y85041651D01*
X62082250Y85034419D01*
X62061426Y85029203D01*
X62040191Y85026053D01*
X62018750Y85025000D01*
X61581250Y85025000D01*
X61559809Y85026053D01*
X61538574Y85029203D01*
X61517750Y85034419D01*
X61497538Y85041651D01*
X61478132Y85050830D01*
X61459719Y85061866D01*
X61442476Y85074654D01*
X61426570Y85089070D01*
X61412154Y85104976D01*
X61399366Y85122219D01*
X61388330Y85140632D01*
X61379151Y85160038D01*
X61371919Y85180250D01*
X61366703Y85201074D01*
X61363553Y85222309D01*
X61362500Y85243750D01*
X61362500Y85756250D01*
X61363553Y85777691D01*
X61366703Y85798926D01*
X61371919Y85819750D01*
X61379151Y85839962D01*
X61388330Y85859368D01*
X61399366Y85877781D01*
X61412154Y85895024D01*
X61426570Y85910930D01*
X61442476Y85925346D01*
X61459719Y85938134D01*
X61478132Y85949170D01*
X61497538Y85958349D01*
X61517750Y85965581D01*
X61538574Y85970797D01*
X61559809Y85973947D01*
X61581250Y85975000D01*
X62018750Y85975000D01*
X62040191Y85973947D01*
X62040191Y85973947D01*
G37*
D30*
X61800000Y85500000D03*
D31*
X57600000Y77550000D03*
X57600000Y78500000D03*
X57600000Y79450000D03*
X59800000Y79450000D03*
X59800000Y77550000D03*
D32*
X52445000Y71800000D03*
X51175000Y71800000D03*
X49905000Y71800000D03*
X48635000Y71800000D03*
X47365000Y71800000D03*
X46095000Y71800000D03*
X44825000Y71800000D03*
X43555000Y71800000D03*
X43555000Y77200000D03*
X44825000Y77200000D03*
X46095000Y77200000D03*
X47365000Y77200000D03*
X48635000Y77200000D03*
X49905000Y77200000D03*
X51175000Y77200000D03*
X52445000Y77200000D03*
D27*
X61500000Y83600000D03*
X63300000Y83600000D03*
X66800000Y79600000D03*
X65000000Y79600000D03*
X65000000Y75600000D03*
X66800000Y75600000D03*
X61500000Y79600000D03*
X63300000Y79600000D03*
X63300000Y77600000D03*
X61500000Y77600000D03*
X58000000Y75600000D03*
X59800000Y75600000D03*
D22*
X61500000Y87500000D03*
D21*
X65250000Y83800000D03*
X57750000Y83800000D03*
D23*
X43800000Y80000000D03*
X43800000Y81800000D03*
X43800000Y85300000D03*
X43800000Y83500000D03*
D27*
X65900000Y62800000D03*
X64100000Y62800000D03*
D33*
X64095000Y70300000D03*
X65365000Y70300000D03*
X66635000Y70300000D03*
X67905000Y70300000D03*
X67905000Y64900000D03*
X66635000Y64900000D03*
X65365000Y64900000D03*
X64095000Y64900000D03*
D23*
X47400000Y69900000D03*
X47400000Y68100000D03*
D14*
X97755000Y56870000D03*
X96485000Y54330000D03*
X95215000Y56870000D03*
X93945000Y54330000D03*
X92675000Y56870000D03*
X91405000Y54330000D03*
X90135000Y56870000D03*
X88865000Y54330000D03*
X87595000Y56870000D03*
X86325000Y54330000D03*
X85055000Y56870000D03*
X83785000Y54330000D03*
X82515000Y56870000D03*
X81245000Y54330000D03*
D34*
X99155000Y55070000D03*
D35*
X60600000Y83600000D03*
X60900000Y85500000D03*
X67700000Y75600000D03*
X67700000Y77600000D03*
X63300000Y74500000D03*
X55800000Y80300000D03*
X155700000Y81500000D03*
X157700000Y81500000D03*
X136000000Y73300000D03*
X130000000Y73300000D03*
X54800000Y82400000D03*
X36000000Y88000000D03*
X50600000Y80300000D03*
X51175000Y76025000D03*
X51175000Y70500000D03*
X49905000Y70500000D03*
X48635000Y70500000D03*
X43555000Y70500000D03*
X140000000Y73300000D03*
X134000000Y73300000D03*
X66800000Y62800000D03*
X49900000Y76024999D03*
X44825000Y70475000D03*
X67905000Y68905000D03*
X48635000Y78465000D03*
D36*
X108200000Y73710000D02*
X108190000Y73720000D01*
X108200000Y71500000D02*
X108200000Y73710000D01*
X112000000Y72350000D02*
X112000000Y73720000D01*
X112000000Y71500000D02*
X112000000Y72350000D01*
D37*
X61500000Y83600000D02*
X60600000Y83600000D01*
X61800000Y85500000D02*
X60900000Y85500000D01*
X66800000Y75600000D02*
X67700000Y75600000D01*
X66800000Y77600000D02*
X67700000Y77600000D01*
X63300000Y75600000D02*
X63300000Y74500000D01*
X55800000Y79400000D02*
X55800000Y80300000D01*
X56700000Y78500000D02*
X55800000Y79400000D01*
X57600000Y78500000D02*
X56700000Y78500000D01*
D38*
X155700000Y80600000D02*
X155700000Y81500000D01*
X157700000Y80600000D02*
X157700000Y81500000D01*
X136000000Y72400000D02*
X136000000Y73300000D01*
X130000000Y72400000D02*
X130000000Y73300000D01*
X54800000Y83500000D02*
X54800000Y82400000D01*
X36000000Y87100000D02*
X36000000Y88000000D01*
X50600000Y79200000D02*
X50600000Y80300000D01*
X51175000Y76025000D02*
X51175000Y77200000D01*
X49905000Y70500000D02*
X49905000Y71800000D01*
X51175000Y70500000D02*
X51175000Y71800000D01*
X48635000Y70500000D02*
X48635000Y71800000D01*
X43555000Y70500000D02*
X43555000Y71800000D01*
X140000000Y72400000D02*
X140000000Y73300000D01*
X134000000Y72400000D02*
X134000000Y73300000D01*
X65900000Y62800000D02*
X66800000Y62800000D01*
D36*
X49905000Y77200000D02*
X49905000Y77650000D01*
X44825000Y71800000D02*
X44825000Y72250000D01*
D38*
X49905000Y76029999D02*
X49900000Y76024999D01*
X49905000Y77200000D02*
X49905000Y76029999D01*
X44825000Y71800000D02*
X44825000Y70475000D01*
X67905000Y70300000D02*
X67905000Y68905000D01*
D36*
X136000000Y70600000D02*
X138500000Y70600000D01*
X138500000Y70600000D02*
X140000000Y70600000D01*
X150936401Y55223599D02*
X151800000Y54360000D01*
X150636399Y55523601D02*
X150936401Y55223599D01*
X151800000Y54360000D02*
X154340000Y56900000D01*
X160283599Y55223599D02*
X161960000Y56900000D01*
X159420000Y54360000D02*
X160283599Y55223599D01*
X155203599Y57763599D02*
X154340000Y56900000D01*
X155503601Y58063601D02*
X155203599Y57763599D01*
X157438529Y58063601D02*
X155503601Y58063601D01*
X158043601Y57458529D02*
X157438529Y58063601D01*
X158043601Y55736399D02*
X158043601Y57458529D01*
X159420000Y54360000D02*
X158043601Y55736399D01*
X140150000Y70600000D02*
X140000000Y70600000D01*
X150423601Y60326399D02*
X140150000Y70600000D01*
X150423601Y55736399D02*
X150423601Y60326399D01*
X151800000Y54360000D02*
X150423601Y55736399D01*
X159700000Y78800000D02*
X157700000Y78800000D01*
X157700000Y78800000D02*
X155700000Y78800000D01*
X165663601Y55736399D02*
X165663601Y57436399D01*
X167040000Y54360000D02*
X165663601Y55736399D01*
X159700000Y63400000D02*
X159700000Y77300000D01*
X165663601Y57436399D02*
X159700000Y63400000D01*
X167040000Y54360000D02*
X169580000Y56900000D01*
X173796401Y55223599D02*
X174660000Y54360000D01*
X173496399Y55523601D02*
X173796401Y55223599D01*
X170956399Y55523601D02*
X173496399Y55523601D01*
X169580000Y56900000D02*
X170956399Y55523601D01*
X175523599Y55223599D02*
X177200000Y56900000D01*
X174660000Y54360000D02*
X175523599Y55223599D01*
X159700000Y77300000D02*
X159700000Y78800000D01*
D37*
X53000000Y85500000D02*
X53000000Y83500000D01*
X53000000Y83500000D02*
X51040000Y83500000D01*
X55850000Y77550000D02*
X55800000Y77600000D01*
X57600000Y77550000D02*
X55850000Y77550000D01*
X43800000Y85300000D02*
X43650000Y85300000D01*
X55650000Y77600000D02*
X55800000Y77600000D01*
X54800000Y85350000D02*
X54800000Y85500000D01*
D38*
X42550000Y85300000D02*
X43800000Y85300000D01*
X42069999Y84819999D02*
X42550000Y85300000D01*
X37915999Y84819999D02*
X42069999Y84819999D01*
X37435998Y85300000D02*
X37915999Y84819999D01*
X36000000Y85300000D02*
X37435998Y85300000D01*
X36000000Y83500000D02*
X36000000Y85300000D01*
X94700000Y79600000D02*
X80700000Y79600000D01*
X55000000Y85500000D02*
X54800000Y85500000D01*
X56100000Y84400000D02*
X55000000Y85500000D01*
X56100000Y82568616D02*
X56100000Y84400000D01*
X54400000Y80868616D02*
X56100000Y82568616D01*
X52400000Y79200000D02*
X54300000Y79200000D01*
X54400000Y79100000D02*
X54400000Y80868616D01*
X54300000Y79200000D02*
X54400000Y79100000D01*
X55500000Y77600000D02*
X55800000Y77600000D01*
X54400000Y78700000D02*
X55500000Y77600000D01*
X54400000Y79100000D02*
X54400000Y78700000D01*
X52445000Y79155000D02*
X52400000Y79200000D01*
X52445000Y77200000D02*
X52445000Y79155000D01*
X80700000Y79600000D02*
X71300000Y79600000D01*
X54824990Y89424990D02*
X43800000Y89424990D01*
X64100000Y64895000D02*
X64095000Y64900000D01*
X64100000Y62800000D02*
X64100000Y64895000D01*
X82515000Y56870000D02*
X82515000Y61615000D01*
X82515000Y61615000D02*
X82549999Y61649999D01*
D36*
X44825000Y76750000D02*
X44825000Y77200000D01*
X46095000Y77200000D02*
X44825000Y77200000D01*
X44825000Y77200000D02*
X44825000Y77675000D01*
D38*
X43800000Y89400000D02*
X43800000Y85300000D01*
X54800000Y89400000D02*
X54800000Y85500000D01*
X54824990Y89424990D02*
X54800000Y89400000D01*
X66800000Y89424990D02*
X54824990Y89424990D01*
X66800000Y79600000D02*
X66800000Y89424990D01*
X71300000Y79600000D02*
X66800000Y79600000D01*
X64100000Y62549998D02*
X64100000Y62800000D01*
X64999999Y61649999D02*
X64100000Y62549998D01*
X82549999Y61649999D02*
X64999999Y61649999D01*
D36*
X159700000Y83750000D02*
X159750000Y83800000D01*
X159700000Y80600000D02*
X159700000Y83750000D01*
X106600000Y71300000D02*
X106400000Y71500000D01*
X107714269Y55523601D02*
X106896399Y56341471D01*
X109436399Y55523601D02*
X107714269Y55523601D01*
X106896399Y70003601D02*
X106659992Y70240008D01*
X106659992Y70240008D02*
X106659992Y71759992D01*
X106896399Y56341471D02*
X106896399Y70003601D01*
X110600000Y54360000D02*
X109436399Y55523601D01*
X110200000Y71350000D02*
X110200000Y71500000D01*
X109250000Y70400000D02*
X110200000Y71350000D01*
X107296409Y69996409D02*
X107700000Y70400000D01*
X107296409Y57903591D02*
X107296409Y69996409D01*
X108060000Y57140000D02*
X107296409Y57903591D01*
X107700000Y70400000D02*
X109250000Y70400000D01*
X108060000Y56900000D02*
X108060000Y57140000D01*
X63500000Y83800000D02*
X63300000Y83600000D01*
X65250000Y83800000D02*
X63500000Y83800000D01*
X63300000Y82750000D02*
X63300000Y81600000D01*
X63300000Y83600000D02*
X63300000Y82750000D01*
X63300000Y85425000D02*
X63375000Y85500000D01*
X63300000Y83600000D02*
X63300000Y85425000D01*
X61500000Y81600000D02*
X61500000Y79600000D01*
X59950000Y79600000D02*
X59800000Y79450000D01*
X61500000Y79600000D02*
X59950000Y79600000D01*
X61500000Y75600000D02*
X61500000Y77600000D01*
X61500000Y77750000D02*
X60750000Y78500000D01*
X61500000Y77600000D02*
X61500000Y77750000D01*
X58330000Y79450000D02*
X57600000Y79450000D01*
X59280000Y78500000D02*
X58330000Y79450000D01*
X60750000Y78500000D02*
X59280000Y78500000D01*
X59800000Y75600000D02*
X59800000Y77550000D01*
X47400000Y71765000D02*
X47365000Y71800000D01*
X47400000Y69900000D02*
X47400000Y71765000D01*
X65000000Y79600000D02*
X63300000Y79600000D01*
X65000000Y77600000D02*
X63300000Y77600000D01*
X63300000Y78450000D02*
X63300000Y79600000D01*
X63300000Y77600000D02*
X63300000Y78450000D01*
X65000000Y75600000D02*
X65000000Y77600000D01*
X48635000Y76750000D02*
X48635000Y77200000D01*
D38*
X48635000Y78465000D02*
X48635000Y77965000D01*
X48635000Y77965000D02*
X48635000Y78365000D01*
X48635000Y77200000D02*
X48635000Y77965000D01*
D36*
X44100000Y85000000D02*
X43800000Y85300000D01*
X45940002Y85000000D02*
X44100000Y85000000D01*
X46960001Y83980001D02*
X45940002Y85000000D01*
X46960001Y83019999D02*
X46960001Y83980001D01*
X46095000Y82154998D02*
X46960001Y83019999D01*
X46095000Y77200000D02*
X46095000Y82154998D01*
D38*
X96596001Y77853999D02*
X94850000Y79600000D01*
X94850000Y79600000D02*
X94700000Y79600000D01*
X96596001Y70579439D02*
X96596001Y77853999D01*
X87666561Y61649999D02*
X96596001Y70579439D01*
X82549999Y61649999D02*
X87666561Y61649999D01*
D36*
X43800000Y80000000D02*
X43950000Y80000000D01*
X42600000Y78950000D02*
X43650000Y80000000D01*
X43650000Y80000000D02*
X43800000Y80000000D01*
X44400000Y73400000D02*
X42600000Y75200000D01*
X51295000Y73400000D02*
X44400000Y73400000D01*
X52445000Y71800000D02*
X52445000Y72250000D01*
X42600000Y75200000D02*
X42600000Y78950000D01*
X52445000Y72250000D02*
X51295000Y73400000D01*
X43800000Y81800000D02*
X43800000Y83500000D01*
X43800000Y83500000D02*
X45960000Y83500000D01*
X63389310Y66375011D02*
X62899989Y65885690D01*
X65634989Y66375011D02*
X63389310Y66375011D01*
X66635000Y65375000D02*
X65634989Y66375011D01*
X66635000Y64900000D02*
X66635000Y65375000D01*
X62899989Y61744311D02*
X62899989Y65885690D01*
X65201471Y53136399D02*
X64383601Y53954269D01*
X69676399Y53136399D02*
X65201471Y53136399D01*
X70840000Y54300000D02*
X69676399Y53136399D01*
X64383601Y60260699D02*
X63172150Y61472150D01*
X64383601Y58483601D02*
X64383601Y60260699D01*
X63383601Y61260699D02*
X63172150Y61472150D01*
X63172150Y61472150D02*
X62899989Y61744311D01*
X64383601Y53954269D02*
X64383601Y58483601D01*
X64764999Y65975001D02*
X63554999Y65975001D01*
X63554999Y65975001D02*
X63299999Y65720001D01*
X65365000Y65375000D02*
X64764999Y65975001D01*
X65365000Y64900000D02*
X65365000Y65375000D01*
X63299999Y61909999D02*
X63299999Y65720001D01*
X68300000Y54300000D02*
X66923601Y55676399D01*
X66923601Y58286397D02*
X66923601Y57423601D01*
X63299999Y61909999D02*
X66923601Y58286397D01*
X66923601Y55676399D02*
X66923601Y57423601D01*
X47400000Y67400000D02*
X47400000Y68100000D01*
X47400000Y60232798D02*
X47400000Y67400000D01*
X54896409Y52736389D02*
X47400000Y60232798D01*
X91779389Y52736389D02*
X54896409Y52736389D01*
X92844999Y53801999D02*
X91779389Y52736389D01*
X92844999Y55411997D02*
X92844999Y53801999D01*
X93775001Y56341999D02*
X92844999Y55411997D01*
X97755000Y56870000D02*
X96654999Y57970001D01*
X94686999Y57970001D02*
X93775001Y57058003D01*
X96654999Y57970001D02*
X94686999Y57970001D01*
X93775001Y57058003D02*
X93775001Y56341999D01*
X130000000Y70600000D02*
X132000000Y70600000D01*
X132000000Y70600000D02*
X134000000Y70600000D01*
X155203599Y55223599D02*
X156880000Y56900000D01*
X154340000Y54360000D02*
X155203599Y55223599D01*
X161960000Y54360000D02*
X160796399Y53196399D01*
X153176399Y53196399D02*
X154340000Y54360000D01*
X151241471Y53196399D02*
X153176399Y53196399D01*
X150636399Y53801471D02*
X151241471Y53196399D01*
X150636399Y54957903D02*
X150636399Y53801471D01*
X150023591Y55570711D02*
X150636399Y54957903D01*
X150023591Y56076409D02*
X150023591Y55570711D01*
X149260000Y56840000D02*
X150023591Y56076409D01*
X149260000Y56900000D02*
X149260000Y56840000D01*
X158861471Y53196399D02*
X159296399Y53196399D01*
X158256399Y53801471D02*
X158861471Y53196399D01*
X158256399Y54957903D02*
X158256399Y53801471D01*
X156900000Y56900000D02*
X157643591Y56156409D01*
X156880000Y56900000D02*
X156900000Y56900000D01*
X160796399Y53196399D02*
X159296399Y53196399D01*
X157643591Y55570711D02*
X158256399Y54957903D01*
X157643591Y56156409D02*
X157643591Y55570711D01*
X134150000Y70600000D02*
X134000000Y70600000D01*
X135050000Y69700000D02*
X134150000Y70600000D01*
X140484302Y69700000D02*
X135050000Y69700000D01*
X149260000Y60924302D02*
X140484302Y69700000D01*
X149260000Y56900000D02*
X149260000Y60924302D01*
X80699000Y77799000D02*
X80700000Y77800000D01*
X80699000Y75300000D02*
X80699000Y77799000D01*
X67905000Y64900000D02*
X67905000Y65375000D01*
X67905000Y64900000D02*
X67905000Y65305000D01*
X67905000Y65405000D02*
X67905000Y64900000D01*
X71492979Y68992979D02*
X67905000Y65405000D01*
X78201979Y68992979D02*
X71492979Y68992979D01*
X80699000Y71490000D02*
X78201979Y68992979D01*
X71301000Y71490000D02*
X71301000Y75300000D01*
X64095000Y70775000D02*
X65720020Y72400020D01*
X64095000Y70300000D02*
X64095000Y70775000D01*
X64095000Y70300000D02*
X64095000Y69895000D01*
X71301000Y77799000D02*
X71300000Y77800000D01*
X71301000Y75300000D02*
X71301000Y77799000D01*
X71301000Y71490000D02*
X71301000Y71499000D01*
X71301000Y71499000D02*
X70399980Y72400020D01*
X65720020Y72400020D02*
X67199980Y72400020D01*
X68445116Y72400020D02*
X69355136Y71490000D01*
X69355136Y71490000D02*
X71301000Y71490000D01*
X67199980Y72400020D02*
X68445116Y72400020D01*
X94699000Y71490000D02*
X94699000Y75300000D01*
X94699000Y77799000D02*
X94700000Y77800000D01*
X94699000Y75300000D02*
X94699000Y77799000D01*
X94550000Y77800000D02*
X94700000Y77800000D01*
X92800000Y78700000D02*
X93650000Y78700000D01*
X93650000Y78700000D02*
X93875000Y78475000D01*
X93700000Y78650000D02*
X93875000Y78475000D01*
X93875000Y78475000D02*
X94550000Y77800000D01*
X92800000Y78700000D02*
X92950000Y78700000D01*
X65365000Y70300000D02*
X65365000Y69825000D01*
X76888438Y78700000D02*
X92800000Y78700000D01*
X74302999Y76114561D02*
X76888438Y78700000D01*
X74302999Y71980437D02*
X74302999Y76114561D01*
X70486439Y69792999D02*
X72115561Y69792999D01*
X72115561Y69792999D02*
X74302999Y71980437D01*
X66590010Y72000010D02*
X68279427Y72000010D01*
X68279427Y72000010D02*
X70486439Y69792999D01*
X65365000Y70775000D02*
X66590010Y72000010D01*
X65365000Y70300000D02*
X65365000Y70775000D01*
X85301000Y73324344D02*
X85301000Y71490000D01*
X85301000Y75300000D02*
X85301000Y73324344D01*
X85301000Y77275656D02*
X85300000Y77276656D01*
X85300000Y77276656D02*
X85300000Y77800000D01*
X85301000Y75300000D02*
X85301000Y77275656D01*
X54043633Y74224969D02*
X46080031Y74224969D01*
X43555000Y76750000D02*
X43555000Y77200000D01*
X59568604Y68700000D02*
X54043633Y74224969D01*
X46080031Y74224969D02*
X43555000Y76750000D01*
X65510000Y68700000D02*
X59568604Y68700000D01*
X66635000Y69825000D02*
X65510000Y68700000D01*
X66635000Y70300000D02*
X66635000Y69825000D01*
X83325344Y75300000D02*
X85301000Y75300000D01*
X78398719Y71701281D02*
X80097438Y73400000D01*
X78398719Y71377157D02*
X78398719Y71701281D01*
X80097438Y73400000D02*
X81425344Y73400000D01*
X70320750Y69392989D02*
X76414551Y69392989D01*
X81425344Y73400000D02*
X83325344Y75300000D01*
X68113738Y71600000D02*
X70320750Y69392989D01*
X66960000Y71600000D02*
X68113738Y71600000D01*
X76414551Y69392989D02*
X78398719Y71377157D01*
X66635000Y71275000D02*
X66960000Y71600000D01*
X66635000Y70300000D02*
X66635000Y71275000D01*
X167800000Y84000000D02*
X166500000Y85300000D01*
X167800000Y77800000D02*
X167800000Y84000000D01*
X169050000Y85250000D02*
X169000000Y85300000D01*
X169050000Y77800000D02*
X169050000Y85250000D01*
X170300000Y84100000D02*
X171500000Y85300000D01*
X170300000Y77800000D02*
X170300000Y84100000D01*
X138000000Y77355000D02*
X138810000Y78165000D01*
X138000000Y72400000D02*
X138000000Y77355000D01*
X134100000Y74350000D02*
X135000000Y74350000D01*
X132150000Y72400000D02*
X134100000Y74350000D01*
X132000000Y72400000D02*
X132150000Y72400000D01*
X38540000Y82510051D02*
X38540000Y83500000D01*
X54730720Y52336379D02*
X38540000Y68527099D01*
X93919379Y52336379D02*
X54730720Y52336379D01*
X38540000Y68527099D02*
X38540000Y82510051D01*
X95215000Y53632000D02*
X93919379Y52336379D01*
X95215000Y56870000D02*
X95215000Y53632000D01*
X48690001Y75424999D02*
X47365000Y76750000D01*
X47365000Y76750000D02*
X47365000Y77200000D01*
X57600000Y75424999D02*
X48690001Y75424999D01*
D39*
G36*
X161910000Y75000000D02*
G01*
X161911729Y74982442D01*
X161916851Y74965558D01*
X161925168Y74949999D01*
X161936360Y74936360D01*
X161949999Y74925168D01*
X161965558Y74916851D01*
X161982442Y74911729D01*
X162000000Y74910000D01*
X183635000Y74910000D01*
X183635001Y51365000D01*
X100090000Y51365000D01*
X100090000Y54360000D01*
X104360819Y54360000D01*
X104383092Y54133855D01*
X104449056Y53916401D01*
X104556176Y53715994D01*
X104700335Y53540335D01*
X104875994Y53396176D01*
X105076401Y53289056D01*
X105293855Y53223092D01*
X105463334Y53206400D01*
X105576666Y53206400D01*
X105746145Y53223092D01*
X105963599Y53289056D01*
X106164006Y53396176D01*
X106339665Y53540335D01*
X106483824Y53715994D01*
X106590944Y53916401D01*
X106622185Y54019389D01*
X106957831Y54019389D01*
X107039794Y53821492D01*
X107164455Y53632807D01*
X107323531Y53472068D01*
X107510909Y53345451D01*
X107719388Y53257823D01*
X107896000Y53290609D01*
X107896000Y54196000D01*
X108224000Y54196000D01*
X108224000Y53290609D01*
X108400612Y53257823D01*
X108609091Y53345451D01*
X108796469Y53472068D01*
X108955545Y53632807D01*
X109080206Y53821492D01*
X109162169Y54019389D01*
X109128588Y54196000D01*
X108224000Y54196000D01*
X107896000Y54196000D01*
X106991412Y54196000D01*
X106957831Y54019389D01*
X106622185Y54019389D01*
X106656908Y54133855D01*
X106679181Y54360000D01*
X106656908Y54586145D01*
X106590944Y54803599D01*
X106483824Y55004006D01*
X106339665Y55179665D01*
X106164006Y55323824D01*
X105963599Y55430944D01*
X105746145Y55496908D01*
X105576666Y55513600D01*
X105463334Y55513600D01*
X105293855Y55496908D01*
X105076401Y55430944D01*
X104875994Y55323824D01*
X104700335Y55179665D01*
X104556176Y55004006D01*
X104449056Y54803599D01*
X104383092Y54586145D01*
X104360819Y54360000D01*
X100090000Y54360000D01*
X100090000Y54609639D01*
X100155033Y54766643D01*
X100195000Y54967569D01*
X100195000Y55172431D01*
X100155033Y55373357D01*
X100090000Y55530361D01*
X100090000Y56900000D01*
X104360819Y56900000D01*
X104383092Y56673855D01*
X104449056Y56456401D01*
X104556176Y56255994D01*
X104700335Y56080335D01*
X104875994Y55936176D01*
X105076401Y55829056D01*
X105293855Y55763092D01*
X105463334Y55746400D01*
X105576666Y55746400D01*
X105746145Y55763092D01*
X105963599Y55829056D01*
X106164006Y55936176D01*
X106339665Y56080335D01*
X106483824Y56255994D01*
X106508402Y56301976D01*
X106512042Y56265018D01*
X106521796Y56232863D01*
X106534343Y56191503D01*
X106570557Y56123751D01*
X106619293Y56064365D01*
X106634177Y56052150D01*
X107392076Y55294250D01*
X107323531Y55247932D01*
X107164455Y55087193D01*
X107039794Y54898508D01*
X106957831Y54700611D01*
X106991412Y54524000D01*
X107896000Y54524000D01*
X107896000Y54544000D01*
X108224000Y54544000D01*
X108224000Y54524000D01*
X109128588Y54524000D01*
X109162169Y54700611D01*
X109080206Y54898508D01*
X108955545Y55087193D01*
X108909617Y55133601D01*
X109274856Y55133601D01*
X109555460Y54852997D01*
X109529056Y54803599D01*
X109463092Y54586145D01*
X109440819Y54360000D01*
X109463092Y54133855D01*
X109529056Y53916401D01*
X109636176Y53715994D01*
X109780335Y53540335D01*
X109955994Y53396176D01*
X110156401Y53289056D01*
X110373855Y53223092D01*
X110543334Y53206400D01*
X110656666Y53206400D01*
X110826145Y53223092D01*
X111043599Y53289056D01*
X111244006Y53396176D01*
X111419665Y53540335D01*
X111563824Y53715994D01*
X111670944Y53916401D01*
X111736908Y54133855D01*
X111759181Y54360000D01*
X111980819Y54360000D01*
X112003092Y54133855D01*
X112069056Y53916401D01*
X112176176Y53715994D01*
X112320335Y53540335D01*
X112495994Y53396176D01*
X112696401Y53289056D01*
X112913855Y53223092D01*
X113083334Y53206400D01*
X113196666Y53206400D01*
X113366145Y53223092D01*
X113583599Y53289056D01*
X113784006Y53396176D01*
X113959665Y53540335D01*
X114103824Y53715994D01*
X114210944Y53916401D01*
X114276908Y54133855D01*
X114299181Y54360000D01*
X114283029Y54524002D01*
X114526400Y54524002D01*
X114526400Y54195998D01*
X114611412Y54195998D01*
X114577831Y54019389D01*
X114659794Y53821492D01*
X114784455Y53632807D01*
X114943531Y53472068D01*
X115130909Y53345451D01*
X115339388Y53257823D01*
X115516000Y53290609D01*
X115516000Y54196000D01*
X115496000Y54196000D01*
X115496000Y54524000D01*
X115516000Y54524000D01*
X115516000Y55429391D01*
X115844000Y55429391D01*
X115844000Y54524000D01*
X115864000Y54524000D01*
X115864000Y54196000D01*
X115844000Y54196000D01*
X115844000Y53290609D01*
X116020612Y53257823D01*
X116229091Y53345451D01*
X116416469Y53472068D01*
X116575545Y53632807D01*
X116700206Y53821492D01*
X116782169Y54019389D01*
X116748588Y54195998D01*
X116833600Y54195998D01*
X116833600Y54360000D01*
X117060819Y54360000D01*
X117083092Y54133855D01*
X117149056Y53916401D01*
X117256176Y53715994D01*
X117400335Y53540335D01*
X117575994Y53396176D01*
X117776401Y53289056D01*
X117993855Y53223092D01*
X118163334Y53206400D01*
X118276666Y53206400D01*
X118446145Y53223092D01*
X118663599Y53289056D01*
X118864006Y53396176D01*
X119039665Y53540335D01*
X119183824Y53715994D01*
X119290944Y53916401D01*
X119356908Y54133855D01*
X119379181Y54360000D01*
X119600819Y54360000D01*
X119623092Y54133855D01*
X119689056Y53916401D01*
X119796176Y53715994D01*
X119940335Y53540335D01*
X120115994Y53396176D01*
X120316401Y53289056D01*
X120533855Y53223092D01*
X120703334Y53206400D01*
X120816666Y53206400D01*
X120986145Y53223092D01*
X121203599Y53289056D01*
X121404006Y53396176D01*
X121579665Y53540335D01*
X121723824Y53715994D01*
X121830944Y53916401D01*
X121896908Y54133855D01*
X121919181Y54360000D01*
X121903029Y54524002D01*
X122146400Y54524002D01*
X122146400Y54195998D01*
X122231412Y54195998D01*
X122197831Y54019389D01*
X122279794Y53821492D01*
X122404455Y53632807D01*
X122563531Y53472068D01*
X122750909Y53345451D01*
X122959388Y53257823D01*
X123136000Y53290609D01*
X123136000Y54196000D01*
X123116000Y54196000D01*
X123116000Y54524000D01*
X123136000Y54524000D01*
X123136000Y55429391D01*
X123464000Y55429391D01*
X123464000Y54524000D01*
X123484000Y54524000D01*
X123484000Y54196000D01*
X123464000Y54196000D01*
X123464000Y53290609D01*
X123640612Y53257823D01*
X123849091Y53345451D01*
X124036469Y53472068D01*
X124195545Y53632807D01*
X124320206Y53821492D01*
X124402169Y54019389D01*
X124368588Y54195998D01*
X124453600Y54195998D01*
X124453600Y54360000D01*
X124680819Y54360000D01*
X124703092Y54133855D01*
X124769056Y53916401D01*
X124876176Y53715994D01*
X125020335Y53540335D01*
X125195994Y53396176D01*
X125396401Y53289056D01*
X125613855Y53223092D01*
X125783334Y53206400D01*
X125896666Y53206400D01*
X126066145Y53223092D01*
X126283599Y53289056D01*
X126484006Y53396176D01*
X126659665Y53540335D01*
X126803824Y53715994D01*
X126910944Y53916401D01*
X126976908Y54133855D01*
X126999181Y54360000D01*
X127220819Y54360000D01*
X127243092Y54133855D01*
X127309056Y53916401D01*
X127416176Y53715994D01*
X127560335Y53540335D01*
X127735994Y53396176D01*
X127936401Y53289056D01*
X128153855Y53223092D01*
X128323334Y53206400D01*
X128436666Y53206400D01*
X128606145Y53223092D01*
X128823599Y53289056D01*
X129024006Y53396176D01*
X129199665Y53540335D01*
X129343824Y53715994D01*
X129450944Y53916401D01*
X129516908Y54133855D01*
X129539181Y54360000D01*
X129523029Y54524002D01*
X129766400Y54524002D01*
X129766400Y54195998D01*
X129851412Y54195998D01*
X129817831Y54019389D01*
X129899794Y53821492D01*
X130024455Y53632807D01*
X130183531Y53472068D01*
X130370909Y53345451D01*
X130579388Y53257823D01*
X130756000Y53290609D01*
X130756000Y54196000D01*
X130736000Y54196000D01*
X130736000Y54524000D01*
X130756000Y54524000D01*
X130756000Y55429391D01*
X131084000Y55429391D01*
X131084000Y54524000D01*
X131104000Y54524000D01*
X131104000Y54196000D01*
X131084000Y54196000D01*
X131084000Y53290609D01*
X131260612Y53257823D01*
X131469091Y53345451D01*
X131656469Y53472068D01*
X131815545Y53632807D01*
X131940206Y53821492D01*
X132022169Y54019389D01*
X131988588Y54195998D01*
X132073600Y54195998D01*
X132073600Y54360000D01*
X132300819Y54360000D01*
X132323092Y54133855D01*
X132389056Y53916401D01*
X132496176Y53715994D01*
X132640335Y53540335D01*
X132815994Y53396176D01*
X133016401Y53289056D01*
X133233855Y53223092D01*
X133403334Y53206400D01*
X133516666Y53206400D01*
X133686145Y53223092D01*
X133903599Y53289056D01*
X134104006Y53396176D01*
X134279665Y53540335D01*
X134423824Y53715994D01*
X134530944Y53916401D01*
X134596908Y54133855D01*
X134619181Y54360000D01*
X134840819Y54360000D01*
X134863092Y54133855D01*
X134929056Y53916401D01*
X135036176Y53715994D01*
X135180335Y53540335D01*
X135355994Y53396176D01*
X135556401Y53289056D01*
X135773855Y53223092D01*
X135943334Y53206400D01*
X136056666Y53206400D01*
X136226145Y53223092D01*
X136443599Y53289056D01*
X136644006Y53396176D01*
X136819665Y53540335D01*
X136963824Y53715994D01*
X137070944Y53916401D01*
X137136908Y54133855D01*
X137159181Y54360000D01*
X145560819Y54360000D01*
X145583092Y54133855D01*
X145649056Y53916401D01*
X145756176Y53715994D01*
X145900335Y53540335D01*
X146075994Y53396176D01*
X146276401Y53289056D01*
X146493855Y53223092D01*
X146663334Y53206400D01*
X146776666Y53206400D01*
X146946145Y53223092D01*
X147163599Y53289056D01*
X147364006Y53396176D01*
X147539665Y53540335D01*
X147683824Y53715994D01*
X147790944Y53916401D01*
X147822185Y54019389D01*
X148157831Y54019389D01*
X148239794Y53821492D01*
X148364455Y53632807D01*
X148523531Y53472068D01*
X148710909Y53345451D01*
X148919388Y53257823D01*
X149096000Y53290609D01*
X149096000Y54196000D01*
X148191412Y54196000D01*
X148157831Y54019389D01*
X147822185Y54019389D01*
X147856908Y54133855D01*
X147879181Y54360000D01*
X147856908Y54586145D01*
X147822186Y54700611D01*
X148157831Y54700611D01*
X148191412Y54524000D01*
X149096000Y54524000D01*
X149096000Y55429391D01*
X148919388Y55462177D01*
X148710909Y55374549D01*
X148523531Y55247932D01*
X148364455Y55087193D01*
X148239794Y54898508D01*
X148157831Y54700611D01*
X147822186Y54700611D01*
X147790944Y54803599D01*
X147683824Y55004006D01*
X147539665Y55179665D01*
X147364006Y55323824D01*
X147163599Y55430944D01*
X146946145Y55496908D01*
X146776666Y55513600D01*
X146663334Y55513600D01*
X146493855Y55496908D01*
X146276401Y55430944D01*
X146075994Y55323824D01*
X145900335Y55179665D01*
X145756176Y55004006D01*
X145649056Y54803599D01*
X145583092Y54586145D01*
X145560819Y54360000D01*
X137159181Y54360000D01*
X137136908Y54586145D01*
X137070944Y54803599D01*
X136963824Y55004006D01*
X136819665Y55179665D01*
X136644006Y55323824D01*
X136443599Y55430944D01*
X136226145Y55496908D01*
X136056666Y55513600D01*
X135943334Y55513600D01*
X135773855Y55496908D01*
X135556401Y55430944D01*
X135355994Y55323824D01*
X135180335Y55179665D01*
X135036176Y55004006D01*
X134929056Y54803599D01*
X134863092Y54586145D01*
X134840819Y54360000D01*
X134619181Y54360000D01*
X134596908Y54586145D01*
X134530944Y54803599D01*
X134423824Y55004006D01*
X134279665Y55179665D01*
X134104006Y55323824D01*
X133903599Y55430944D01*
X133686145Y55496908D01*
X133516666Y55513600D01*
X133403334Y55513600D01*
X133233855Y55496908D01*
X133016401Y55430944D01*
X132815994Y55323824D01*
X132640335Y55179665D01*
X132496176Y55004006D01*
X132389056Y54803599D01*
X132323092Y54586145D01*
X132300819Y54360000D01*
X132073600Y54360000D01*
X132073600Y54524002D01*
X131988588Y54524002D01*
X132022169Y54700611D01*
X131940206Y54898508D01*
X131815545Y55087193D01*
X131656469Y55247932D01*
X131469091Y55374549D01*
X131260612Y55462177D01*
X131084000Y55429391D01*
X130756000Y55429391D01*
X130579388Y55462177D01*
X130370909Y55374549D01*
X130183531Y55247932D01*
X130024455Y55087193D01*
X129899794Y54898508D01*
X129817831Y54700611D01*
X129851412Y54524002D01*
X129766400Y54524002D01*
X129523029Y54524002D01*
X129516908Y54586145D01*
X129450944Y54803599D01*
X129343824Y55004006D01*
X129199665Y55179665D01*
X129024006Y55323824D01*
X128823599Y55430944D01*
X128606145Y55496908D01*
X128436666Y55513600D01*
X128323334Y55513600D01*
X128153855Y55496908D01*
X127936401Y55430944D01*
X127735994Y55323824D01*
X127560335Y55179665D01*
X127416176Y55004006D01*
X127309056Y54803599D01*
X127243092Y54586145D01*
X127220819Y54360000D01*
X126999181Y54360000D01*
X126976908Y54586145D01*
X126910944Y54803599D01*
X126803824Y55004006D01*
X126659665Y55179665D01*
X126484006Y55323824D01*
X126283599Y55430944D01*
X126066145Y55496908D01*
X125896666Y55513600D01*
X125783334Y55513600D01*
X125613855Y55496908D01*
X125396401Y55430944D01*
X125195994Y55323824D01*
X125020335Y55179665D01*
X124876176Y55004006D01*
X124769056Y54803599D01*
X124703092Y54586145D01*
X124680819Y54360000D01*
X124453600Y54360000D01*
X124453600Y54524002D01*
X124368588Y54524002D01*
X124402169Y54700611D01*
X124320206Y54898508D01*
X124195545Y55087193D01*
X124036469Y55247932D01*
X123849091Y55374549D01*
X123640612Y55462177D01*
X123464000Y55429391D01*
X123136000Y55429391D01*
X122959388Y55462177D01*
X122750909Y55374549D01*
X122563531Y55247932D01*
X122404455Y55087193D01*
X122279794Y54898508D01*
X122197831Y54700611D01*
X122231412Y54524002D01*
X122146400Y54524002D01*
X121903029Y54524002D01*
X121896908Y54586145D01*
X121830944Y54803599D01*
X121723824Y55004006D01*
X121579665Y55179665D01*
X121404006Y55323824D01*
X121203599Y55430944D01*
X120986145Y55496908D01*
X120816666Y55513600D01*
X120703334Y55513600D01*
X120533855Y55496908D01*
X120316401Y55430944D01*
X120115994Y55323824D01*
X119940335Y55179665D01*
X119796176Y55004006D01*
X119689056Y54803599D01*
X119623092Y54586145D01*
X119600819Y54360000D01*
X119379181Y54360000D01*
X119356908Y54586145D01*
X119290944Y54803599D01*
X119183824Y55004006D01*
X119039665Y55179665D01*
X118864006Y55323824D01*
X118663599Y55430944D01*
X118446145Y55496908D01*
X118276666Y55513600D01*
X118163334Y55513600D01*
X117993855Y55496908D01*
X117776401Y55430944D01*
X117575994Y55323824D01*
X117400335Y55179665D01*
X117256176Y55004006D01*
X117149056Y54803599D01*
X117083092Y54586145D01*
X117060819Y54360000D01*
X116833600Y54360000D01*
X116833600Y54524002D01*
X116748588Y54524002D01*
X116782169Y54700611D01*
X116700206Y54898508D01*
X116575545Y55087193D01*
X116416469Y55247932D01*
X116229091Y55374549D01*
X116020612Y55462177D01*
X115844000Y55429391D01*
X115516000Y55429391D01*
X115339388Y55462177D01*
X115130909Y55374549D01*
X114943531Y55247932D01*
X114784455Y55087193D01*
X114659794Y54898508D01*
X114577831Y54700611D01*
X114611412Y54524002D01*
X114526400Y54524002D01*
X114283029Y54524002D01*
X114276908Y54586145D01*
X114210944Y54803599D01*
X114103824Y55004006D01*
X113959665Y55179665D01*
X113784006Y55323824D01*
X113583599Y55430944D01*
X113366145Y55496908D01*
X113196666Y55513600D01*
X113083334Y55513600D01*
X112913855Y55496908D01*
X112696401Y55430944D01*
X112495994Y55323824D01*
X112320335Y55179665D01*
X112176176Y55004006D01*
X112069056Y54803599D01*
X112003092Y54586145D01*
X111980819Y54360000D01*
X111759181Y54360000D01*
X111736908Y54586145D01*
X111670944Y54803599D01*
X111563824Y55004006D01*
X111419665Y55179665D01*
X111244006Y55323824D01*
X111043599Y55430944D01*
X110826145Y55496908D01*
X110656666Y55513600D01*
X110543334Y55513600D01*
X110373855Y55496908D01*
X110156401Y55430944D01*
X110107003Y55404540D01*
X109725720Y55785823D01*
X109713505Y55800707D01*
X109654120Y55849443D01*
X109586368Y55885657D01*
X109512852Y55907958D01*
X109455558Y55913601D01*
X109436399Y55915488D01*
X109417240Y55913601D01*
X108661771Y55913601D01*
X108704006Y55936176D01*
X108879665Y56080335D01*
X109023824Y56255994D01*
X109130944Y56456401D01*
X109196908Y56673855D01*
X109219181Y56900000D01*
X109203029Y57064002D01*
X109446400Y57064002D01*
X109446400Y56735998D01*
X109531412Y56735998D01*
X109497831Y56559389D01*
X109579794Y56361492D01*
X109704455Y56172807D01*
X109863531Y56012068D01*
X110050909Y55885451D01*
X110259388Y55797823D01*
X110436000Y55830609D01*
X110436000Y56736000D01*
X110416000Y56736000D01*
X110416000Y57064000D01*
X110436000Y57064000D01*
X110436000Y57969391D01*
X110764000Y57969391D01*
X110764000Y57064000D01*
X110784000Y57064000D01*
X110784000Y56736000D01*
X110764000Y56736000D01*
X110764000Y55830609D01*
X110940612Y55797823D01*
X111149091Y55885451D01*
X111336469Y56012068D01*
X111495545Y56172807D01*
X111620206Y56361492D01*
X111702169Y56559389D01*
X111668588Y56735998D01*
X111753600Y56735998D01*
X111753600Y56900000D01*
X111980819Y56900000D01*
X112003092Y56673855D01*
X112069056Y56456401D01*
X112176176Y56255994D01*
X112320335Y56080335D01*
X112495994Y55936176D01*
X112696401Y55829056D01*
X112913855Y55763092D01*
X113083334Y55746400D01*
X113196666Y55746400D01*
X113366145Y55763092D01*
X113583599Y55829056D01*
X113784006Y55936176D01*
X113959665Y56080335D01*
X114103824Y56255994D01*
X114210944Y56456401D01*
X114276908Y56673855D01*
X114299181Y56900000D01*
X114520819Y56900000D01*
X114543092Y56673855D01*
X114609056Y56456401D01*
X114716176Y56255994D01*
X114860335Y56080335D01*
X115035994Y55936176D01*
X115236401Y55829056D01*
X115453855Y55763092D01*
X115623334Y55746400D01*
X115736666Y55746400D01*
X115906145Y55763092D01*
X116123599Y55829056D01*
X116324006Y55936176D01*
X116499665Y56080335D01*
X116643824Y56255994D01*
X116750944Y56456401D01*
X116816908Y56673855D01*
X116839181Y56900000D01*
X116823029Y57064002D01*
X117066400Y57064002D01*
X117066400Y56735998D01*
X117151412Y56735998D01*
X117117831Y56559389D01*
X117199794Y56361492D01*
X117324455Y56172807D01*
X117483531Y56012068D01*
X117670909Y55885451D01*
X117879388Y55797823D01*
X118056000Y55830609D01*
X118056000Y56736000D01*
X118036000Y56736000D01*
X118036000Y57064000D01*
X118056000Y57064000D01*
X118056000Y57969391D01*
X118384000Y57969391D01*
X118384000Y57064000D01*
X118404000Y57064000D01*
X118404000Y56736000D01*
X118384000Y56736000D01*
X118384000Y55830609D01*
X118560612Y55797823D01*
X118769091Y55885451D01*
X118956469Y56012068D01*
X119115545Y56172807D01*
X119240206Y56361492D01*
X119322169Y56559389D01*
X119288588Y56735998D01*
X119373600Y56735998D01*
X119373600Y56900000D01*
X119600819Y56900000D01*
X119623092Y56673855D01*
X119689056Y56456401D01*
X119796176Y56255994D01*
X119940335Y56080335D01*
X120115994Y55936176D01*
X120316401Y55829056D01*
X120533855Y55763092D01*
X120703334Y55746400D01*
X120816666Y55746400D01*
X120986145Y55763092D01*
X121203599Y55829056D01*
X121404006Y55936176D01*
X121579665Y56080335D01*
X121723824Y56255994D01*
X121830944Y56456401D01*
X121896908Y56673855D01*
X121919181Y56900000D01*
X122140819Y56900000D01*
X122163092Y56673855D01*
X122229056Y56456401D01*
X122336176Y56255994D01*
X122480335Y56080335D01*
X122655994Y55936176D01*
X122856401Y55829056D01*
X123073855Y55763092D01*
X123243334Y55746400D01*
X123356666Y55746400D01*
X123526145Y55763092D01*
X123743599Y55829056D01*
X123944006Y55936176D01*
X124119665Y56080335D01*
X124263824Y56255994D01*
X124370944Y56456401D01*
X124436908Y56673855D01*
X124459181Y56900000D01*
X124443029Y57064002D01*
X124686400Y57064002D01*
X124686400Y56735998D01*
X124771412Y56735998D01*
X124737831Y56559389D01*
X124819794Y56361492D01*
X124944455Y56172807D01*
X125103531Y56012068D01*
X125290909Y55885451D01*
X125499388Y55797823D01*
X125676000Y55830609D01*
X125676000Y56736000D01*
X125656000Y56736000D01*
X125656000Y57064000D01*
X125676000Y57064000D01*
X125676000Y57969391D01*
X126004000Y57969391D01*
X126004000Y57064000D01*
X126024000Y57064000D01*
X126024000Y56736000D01*
X126004000Y56736000D01*
X126004000Y55830609D01*
X126180612Y55797823D01*
X126389091Y55885451D01*
X126576469Y56012068D01*
X126735545Y56172807D01*
X126860206Y56361492D01*
X126942169Y56559389D01*
X126908588Y56735998D01*
X126993600Y56735998D01*
X126993600Y56900000D01*
X127220819Y56900000D01*
X127243092Y56673855D01*
X127309056Y56456401D01*
X127416176Y56255994D01*
X127560335Y56080335D01*
X127735994Y55936176D01*
X127936401Y55829056D01*
X128153855Y55763092D01*
X128323334Y55746400D01*
X128436666Y55746400D01*
X128606145Y55763092D01*
X128823599Y55829056D01*
X129024006Y55936176D01*
X129199665Y56080335D01*
X129343824Y56255994D01*
X129450944Y56456401D01*
X129516908Y56673855D01*
X129539181Y56900000D01*
X129760819Y56900000D01*
X129783092Y56673855D01*
X129849056Y56456401D01*
X129956176Y56255994D01*
X130100335Y56080335D01*
X130275994Y55936176D01*
X130476401Y55829056D01*
X130693855Y55763092D01*
X130863334Y55746400D01*
X130976666Y55746400D01*
X131146145Y55763092D01*
X131363599Y55829056D01*
X131564006Y55936176D01*
X131739665Y56080335D01*
X131883824Y56255994D01*
X131990944Y56456401D01*
X132022185Y56559389D01*
X132357831Y56559389D01*
X132439794Y56361492D01*
X132564455Y56172807D01*
X132723531Y56012068D01*
X132910909Y55885451D01*
X133119388Y55797823D01*
X133296000Y55830609D01*
X133296000Y56736000D01*
X133624000Y56736000D01*
X133624000Y55830609D01*
X133800612Y55797823D01*
X134009091Y55885451D01*
X134196469Y56012068D01*
X134355545Y56172807D01*
X134480206Y56361492D01*
X134562169Y56559389D01*
X134528588Y56736000D01*
X133624000Y56736000D01*
X133296000Y56736000D01*
X132391412Y56736000D01*
X132357831Y56559389D01*
X132022185Y56559389D01*
X132056908Y56673855D01*
X132079181Y56900000D01*
X132056908Y57126145D01*
X132022186Y57240611D01*
X132357831Y57240611D01*
X132391412Y57064000D01*
X133296000Y57064000D01*
X133296000Y57969391D01*
X133624000Y57969391D01*
X133624000Y57064000D01*
X134528588Y57064000D01*
X134562169Y57240611D01*
X134480206Y57438508D01*
X134355545Y57627193D01*
X134220550Y57763600D01*
X134844997Y57763600D01*
X134844997Y56036400D01*
X134850596Y55979550D01*
X134867179Y55924885D01*
X134894107Y55874505D01*
X134930347Y55830347D01*
X134974505Y55794107D01*
X135024885Y55767179D01*
X135079550Y55750596D01*
X135136400Y55744997D01*
X136863600Y55744997D01*
X136920450Y55750596D01*
X136975115Y55767179D01*
X137025495Y55794107D01*
X137069653Y55830347D01*
X137105893Y55874505D01*
X137132821Y55924885D01*
X137149404Y55979550D01*
X137155003Y56036400D01*
X137155003Y56900000D01*
X145560819Y56900000D01*
X145583092Y56673855D01*
X145649056Y56456401D01*
X145756176Y56255994D01*
X145900335Y56080335D01*
X146075994Y55936176D01*
X146276401Y55829056D01*
X146493855Y55763092D01*
X146663334Y55746400D01*
X146776666Y55746400D01*
X146946145Y55763092D01*
X147163599Y55829056D01*
X147364006Y55936176D01*
X147539665Y56080335D01*
X147683824Y56255994D01*
X147790944Y56456401D01*
X147856908Y56673855D01*
X147879181Y56900000D01*
X147856908Y57126145D01*
X147790944Y57343599D01*
X147683824Y57544006D01*
X147539665Y57719665D01*
X147364006Y57863824D01*
X147163599Y57970944D01*
X146946145Y58036908D01*
X146776666Y58053600D01*
X146663334Y58053600D01*
X146493855Y58036908D01*
X146276401Y57970944D01*
X146075994Y57863824D01*
X145900335Y57719665D01*
X145756176Y57544006D01*
X145649056Y57343599D01*
X145583092Y57126145D01*
X145560819Y56900000D01*
X137155003Y56900000D01*
X137155003Y57763600D01*
X137149404Y57820450D01*
X137132821Y57875115D01*
X137105893Y57925495D01*
X137069653Y57969653D01*
X137025495Y58005893D01*
X136975115Y58032821D01*
X136920450Y58049404D01*
X136863600Y58055003D01*
X135136400Y58055003D01*
X135079550Y58049404D01*
X135024885Y58032821D01*
X134974505Y58005893D01*
X134930347Y57969653D01*
X134894107Y57925495D01*
X134867179Y57875115D01*
X134850596Y57820450D01*
X134844997Y57763600D01*
X134220550Y57763600D01*
X134196469Y57787932D01*
X134009091Y57914549D01*
X133800612Y58002177D01*
X133624000Y57969391D01*
X133296000Y57969391D01*
X133119388Y58002177D01*
X132910909Y57914549D01*
X132723531Y57787932D01*
X132564455Y57627193D01*
X132439794Y57438508D01*
X132357831Y57240611D01*
X132022186Y57240611D01*
X131990944Y57343599D01*
X131883824Y57544006D01*
X131739665Y57719665D01*
X131564006Y57863824D01*
X131363599Y57970944D01*
X131146145Y58036908D01*
X130976666Y58053600D01*
X130863334Y58053600D01*
X130693855Y58036908D01*
X130476401Y57970944D01*
X130275994Y57863824D01*
X130100335Y57719665D01*
X129956176Y57544006D01*
X129849056Y57343599D01*
X129783092Y57126145D01*
X129760819Y56900000D01*
X129539181Y56900000D01*
X129516908Y57126145D01*
X129450944Y57343599D01*
X129343824Y57544006D01*
X129199665Y57719665D01*
X129024006Y57863824D01*
X128823599Y57970944D01*
X128606145Y58036908D01*
X128436666Y58053600D01*
X128323334Y58053600D01*
X128153855Y58036908D01*
X127936401Y57970944D01*
X127735994Y57863824D01*
X127560335Y57719665D01*
X127416176Y57544006D01*
X127309056Y57343599D01*
X127243092Y57126145D01*
X127220819Y56900000D01*
X126993600Y56900000D01*
X126993600Y57064002D01*
X126908588Y57064002D01*
X126942169Y57240611D01*
X126860206Y57438508D01*
X126735545Y57627193D01*
X126576469Y57787932D01*
X126389091Y57914549D01*
X126180612Y58002177D01*
X126004000Y57969391D01*
X125676000Y57969391D01*
X125499388Y58002177D01*
X125290909Y57914549D01*
X125103531Y57787932D01*
X124944455Y57627193D01*
X124819794Y57438508D01*
X124737831Y57240611D01*
X124771412Y57064002D01*
X124686400Y57064002D01*
X124443029Y57064002D01*
X124436908Y57126145D01*
X124370944Y57343599D01*
X124263824Y57544006D01*
X124119665Y57719665D01*
X123944006Y57863824D01*
X123743599Y57970944D01*
X123526145Y58036908D01*
X123356666Y58053600D01*
X123243334Y58053600D01*
X123073855Y58036908D01*
X122856401Y57970944D01*
X122655994Y57863824D01*
X122480335Y57719665D01*
X122336176Y57544006D01*
X122229056Y57343599D01*
X122163092Y57126145D01*
X122140819Y56900000D01*
X121919181Y56900000D01*
X121896908Y57126145D01*
X121830944Y57343599D01*
X121723824Y57544006D01*
X121579665Y57719665D01*
X121404006Y57863824D01*
X121203599Y57970944D01*
X120986145Y58036908D01*
X120816666Y58053600D01*
X120703334Y58053600D01*
X120533855Y58036908D01*
X120316401Y57970944D01*
X120115994Y57863824D01*
X119940335Y57719665D01*
X119796176Y57544006D01*
X119689056Y57343599D01*
X119623092Y57126145D01*
X119600819Y56900000D01*
X119373600Y56900000D01*
X119373600Y57064002D01*
X119288588Y57064002D01*
X119322169Y57240611D01*
X119240206Y57438508D01*
X119115545Y57627193D01*
X118956469Y57787932D01*
X118769091Y57914549D01*
X118560612Y58002177D01*
X118384000Y57969391D01*
X118056000Y57969391D01*
X117879388Y58002177D01*
X117670909Y57914549D01*
X117483531Y57787932D01*
X117324455Y57627193D01*
X117199794Y57438508D01*
X117117831Y57240611D01*
X117151412Y57064002D01*
X117066400Y57064002D01*
X116823029Y57064002D01*
X116816908Y57126145D01*
X116750944Y57343599D01*
X116643824Y57544006D01*
X116499665Y57719665D01*
X116324006Y57863824D01*
X116123599Y57970944D01*
X115906145Y58036908D01*
X115736666Y58053600D01*
X115623334Y58053600D01*
X115453855Y58036908D01*
X115236401Y57970944D01*
X115035994Y57863824D01*
X114860335Y57719665D01*
X114716176Y57544006D01*
X114609056Y57343599D01*
X114543092Y57126145D01*
X114520819Y56900000D01*
X114299181Y56900000D01*
X114276908Y57126145D01*
X114210944Y57343599D01*
X114103824Y57544006D01*
X113959665Y57719665D01*
X113784006Y57863824D01*
X113583599Y57970944D01*
X113366145Y58036908D01*
X113196666Y58053600D01*
X113083334Y58053600D01*
X112913855Y58036908D01*
X112696401Y57970944D01*
X112495994Y57863824D01*
X112320335Y57719665D01*
X112176176Y57544006D01*
X112069056Y57343599D01*
X112003092Y57126145D01*
X111980819Y56900000D01*
X111753600Y56900000D01*
X111753600Y57064002D01*
X111668588Y57064002D01*
X111702169Y57240611D01*
X111620206Y57438508D01*
X111495545Y57627193D01*
X111336469Y57787932D01*
X111149091Y57914549D01*
X110940612Y58002177D01*
X110764000Y57969391D01*
X110436000Y57969391D01*
X110259388Y58002177D01*
X110050909Y57914549D01*
X109863531Y57787932D01*
X109704455Y57627193D01*
X109579794Y57438508D01*
X109497831Y57240611D01*
X109531412Y57064002D01*
X109446400Y57064002D01*
X109203029Y57064002D01*
X109196908Y57126145D01*
X109130944Y57343599D01*
X109023824Y57544006D01*
X108879665Y57719665D01*
X108704006Y57863824D01*
X108503599Y57970944D01*
X108286145Y58036908D01*
X108116666Y58053600D01*
X108003334Y58053600D01*
X107833855Y58036908D01*
X107742383Y58009160D01*
X107686409Y58065134D01*
X107686409Y69834866D01*
X107861544Y70010000D01*
X109230841Y70010000D01*
X109250000Y70008113D01*
X109326453Y70015643D01*
X109360074Y70025842D01*
X109399969Y70037944D01*
X109467721Y70074158D01*
X109527106Y70122894D01*
X109539321Y70137778D01*
X109960140Y70558597D01*
X110700000Y70558597D01*
X110756850Y70564196D01*
X110811515Y70580779D01*
X110861895Y70607707D01*
X110906053Y70643947D01*
X110942293Y70688105D01*
X110969221Y70738485D01*
X110985804Y70793150D01*
X110991403Y70850000D01*
X110991403Y72150000D01*
X110985804Y72206850D01*
X110969221Y72261515D01*
X110942293Y72311895D01*
X110906053Y72356053D01*
X110861895Y72392293D01*
X110811515Y72419221D01*
X110756850Y72435804D01*
X110700000Y72441403D01*
X109700000Y72441403D01*
X109643150Y72435804D01*
X109588485Y72419221D01*
X109538105Y72392293D01*
X109493947Y72356053D01*
X109457707Y72311895D01*
X109430779Y72261515D01*
X109414196Y72206850D01*
X109408597Y72150000D01*
X109408597Y71110140D01*
X109088457Y70790000D01*
X108984848Y70790000D01*
X108985804Y70793150D01*
X108991403Y70850000D01*
X108991403Y72150000D01*
X108985804Y72206850D01*
X108969221Y72261515D01*
X108942293Y72311895D01*
X108906053Y72356053D01*
X108861895Y72392293D01*
X108811515Y72419221D01*
X108756850Y72435804D01*
X108700000Y72441403D01*
X108590000Y72441403D01*
X108590000Y72489400D01*
X108801044Y72576817D01*
X109012327Y72717991D01*
X109192009Y72897673D01*
X109333183Y73108956D01*
X109430426Y73343721D01*
X109480000Y73592946D01*
X109480000Y73827356D01*
X110910000Y73827356D01*
X110910000Y73612644D01*
X110951888Y73402059D01*
X111034055Y73203691D01*
X111153342Y73025166D01*
X111305166Y72873342D01*
X111483691Y72754055D01*
X111610000Y72701736D01*
X111610000Y72441403D01*
X111500000Y72441403D01*
X111443150Y72435804D01*
X111388485Y72419221D01*
X111338105Y72392293D01*
X111293947Y72356053D01*
X111257707Y72311895D01*
X111230779Y72261515D01*
X111214196Y72206850D01*
X111208597Y72150000D01*
X111208597Y70850000D01*
X111214196Y70793150D01*
X111230779Y70738485D01*
X111257707Y70688105D01*
X111293947Y70643947D01*
X111338105Y70607707D01*
X111388485Y70580779D01*
X111443150Y70564196D01*
X111500000Y70558597D01*
X112500000Y70558597D01*
X112556850Y70564196D01*
X112611515Y70580779D01*
X112661895Y70607707D01*
X112706053Y70643947D01*
X112742293Y70688105D01*
X112769221Y70738485D01*
X112785804Y70793150D01*
X112791403Y70850000D01*
X112791403Y71100000D01*
X129058597Y71100000D01*
X129058597Y70100000D01*
X129064196Y70043150D01*
X129080779Y69988485D01*
X129107707Y69938105D01*
X129143947Y69893947D01*
X129188105Y69857707D01*
X129238485Y69830779D01*
X129293150Y69814196D01*
X129350000Y69808597D01*
X130650000Y69808597D01*
X130706850Y69814196D01*
X130761515Y69830779D01*
X130811895Y69857707D01*
X130856053Y69893947D01*
X130892293Y69938105D01*
X130919221Y69988485D01*
X130935804Y70043150D01*
X130941403Y70100000D01*
X130941403Y70210000D01*
X131058597Y70210000D01*
X131058597Y70100000D01*
X131064196Y70043150D01*
X131080779Y69988485D01*
X131107707Y69938105D01*
X131143947Y69893947D01*
X131188105Y69857707D01*
X131238485Y69830779D01*
X131293150Y69814196D01*
X131350000Y69808597D01*
X132650000Y69808597D01*
X132706850Y69814196D01*
X132761515Y69830779D01*
X132811895Y69857707D01*
X132856053Y69893947D01*
X132892293Y69938105D01*
X132919221Y69988485D01*
X132935804Y70043150D01*
X132941403Y70100000D01*
X132941403Y70210000D01*
X133058597Y70210000D01*
X133058597Y70100000D01*
X133064196Y70043150D01*
X133080779Y69988485D01*
X133107707Y69938105D01*
X133143947Y69893947D01*
X133188105Y69857707D01*
X133238485Y69830779D01*
X133293150Y69814196D01*
X133350000Y69808597D01*
X134389860Y69808597D01*
X134760679Y69437778D01*
X134772894Y69422894D01*
X134832279Y69374158D01*
X134900031Y69337944D01*
X134973547Y69315643D01*
X135030841Y69310000D01*
X135030850Y69310000D01*
X135049999Y69308114D01*
X135069148Y69310000D01*
X140322759Y69310000D01*
X148870001Y60762757D01*
X148870000Y57987203D01*
X148816401Y57970944D01*
X148615994Y57863824D01*
X148440335Y57719665D01*
X148296176Y57544006D01*
X148189056Y57343599D01*
X148123092Y57126145D01*
X148100819Y56900000D01*
X148123092Y56673855D01*
X148189056Y56456401D01*
X148296176Y56255994D01*
X148440335Y56080335D01*
X148615994Y55936176D01*
X148816401Y55829056D01*
X149033855Y55763092D01*
X149203334Y55746400D01*
X149316666Y55746400D01*
X149486145Y55763092D01*
X149633592Y55807819D01*
X149633592Y55589879D01*
X149631704Y55570711D01*
X149639234Y55494258D01*
X149656032Y55438883D01*
X149600612Y55462177D01*
X149424000Y55429391D01*
X149424000Y54524000D01*
X149444000Y54524000D01*
X149444000Y54196000D01*
X149424000Y54196000D01*
X149424000Y53290609D01*
X149600612Y53257823D01*
X149809091Y53345451D01*
X149996469Y53472068D01*
X150155545Y53632807D01*
X150247427Y53771878D01*
X150252042Y53725018D01*
X150274343Y53651503D01*
X150310558Y53583750D01*
X150347080Y53539247D01*
X150347084Y53539243D01*
X150359294Y53524365D01*
X150374172Y53512155D01*
X150952154Y52934172D01*
X150964365Y52919293D01*
X150979243Y52907083D01*
X150979246Y52907080D01*
X151011671Y52880470D01*
X151023750Y52870557D01*
X151091502Y52834343D01*
X151165017Y52812042D01*
X151241470Y52804512D01*
X151260629Y52806399D01*
X153157240Y52806399D01*
X153176399Y52804512D01*
X153252852Y52812042D01*
X153326368Y52834343D01*
X153394120Y52870557D01*
X153453505Y52919293D01*
X153465720Y52934177D01*
X153847003Y53315460D01*
X153896401Y53289056D01*
X154113855Y53223092D01*
X154283334Y53206400D01*
X154396666Y53206400D01*
X154566145Y53223092D01*
X154783599Y53289056D01*
X154984006Y53396176D01*
X155159665Y53540335D01*
X155303824Y53715994D01*
X155410944Y53916401D01*
X155442185Y54019389D01*
X155777831Y54019389D01*
X155859794Y53821492D01*
X155984455Y53632807D01*
X156143531Y53472068D01*
X156330909Y53345451D01*
X156539388Y53257823D01*
X156716000Y53290609D01*
X156716000Y54196000D01*
X155811412Y54196000D01*
X155777831Y54019389D01*
X155442185Y54019389D01*
X155476908Y54133855D01*
X155499181Y54360000D01*
X155476908Y54586145D01*
X155442186Y54700611D01*
X155777831Y54700611D01*
X155811412Y54524000D01*
X156716000Y54524000D01*
X156716000Y55429391D01*
X156539388Y55462177D01*
X156330909Y55374549D01*
X156143531Y55247932D01*
X155984455Y55087193D01*
X155859794Y54898508D01*
X155777831Y54700611D01*
X155442186Y54700611D01*
X155410944Y54803599D01*
X155384540Y54852997D01*
X156387003Y55855460D01*
X156436401Y55829056D01*
X156653855Y55763092D01*
X156823334Y55746400D01*
X156936666Y55746400D01*
X157106145Y55763092D01*
X157253592Y55807819D01*
X157253592Y55589879D01*
X157251704Y55570711D01*
X157259234Y55494258D01*
X157276032Y55438883D01*
X157220612Y55462177D01*
X157044000Y55429391D01*
X157044000Y54524000D01*
X157064000Y54524000D01*
X157064000Y54196000D01*
X157044000Y54196000D01*
X157044000Y53290609D01*
X157220612Y53257823D01*
X157429091Y53345451D01*
X157616469Y53472068D01*
X157775545Y53632807D01*
X157867427Y53771878D01*
X157872042Y53725018D01*
X157894343Y53651503D01*
X157930558Y53583750D01*
X157967080Y53539247D01*
X157967084Y53539243D01*
X157979294Y53524365D01*
X157994172Y53512155D01*
X158572154Y52934172D01*
X158584365Y52919293D01*
X158599243Y52907083D01*
X158599246Y52907080D01*
X158631671Y52880470D01*
X158643750Y52870557D01*
X158711502Y52834343D01*
X158785017Y52812042D01*
X158861470Y52804512D01*
X158880629Y52806399D01*
X160777240Y52806399D01*
X160796399Y52804512D01*
X160872852Y52812042D01*
X160946368Y52834343D01*
X161014120Y52870557D01*
X161073505Y52919293D01*
X161085720Y52934177D01*
X161467003Y53315460D01*
X161516401Y53289056D01*
X161733855Y53223092D01*
X161903334Y53206400D01*
X162016666Y53206400D01*
X162186145Y53223092D01*
X162403599Y53289056D01*
X162604006Y53396176D01*
X162779665Y53540335D01*
X162923824Y53715994D01*
X163030944Y53916401D01*
X163062185Y54019389D01*
X163397831Y54019389D01*
X163479794Y53821492D01*
X163604455Y53632807D01*
X163763531Y53472068D01*
X163950909Y53345451D01*
X164159388Y53257823D01*
X164336000Y53290609D01*
X164336000Y54196000D01*
X164664000Y54196000D01*
X164664000Y53290609D01*
X164840612Y53257823D01*
X165049091Y53345451D01*
X165236469Y53472068D01*
X165395545Y53632807D01*
X165520206Y53821492D01*
X165602169Y54019389D01*
X165568588Y54196000D01*
X164664000Y54196000D01*
X164336000Y54196000D01*
X163431412Y54196000D01*
X163397831Y54019389D01*
X163062185Y54019389D01*
X163096908Y54133855D01*
X163119181Y54360000D01*
X163096908Y54586145D01*
X163062186Y54700611D01*
X163397831Y54700611D01*
X163431412Y54524000D01*
X164336000Y54524000D01*
X164336000Y55429391D01*
X164664000Y55429391D01*
X164664000Y54524000D01*
X165568588Y54524000D01*
X165602169Y54700611D01*
X165520206Y54898508D01*
X165395545Y55087193D01*
X165236469Y55247932D01*
X165049091Y55374549D01*
X164840612Y55462177D01*
X164664000Y55429391D01*
X164336000Y55429391D01*
X164159388Y55462177D01*
X163950909Y55374549D01*
X163763531Y55247932D01*
X163604455Y55087193D01*
X163479794Y54898508D01*
X163397831Y54700611D01*
X163062186Y54700611D01*
X163030944Y54803599D01*
X162923824Y55004006D01*
X162779665Y55179665D01*
X162604006Y55323824D01*
X162403599Y55430944D01*
X162186145Y55496908D01*
X162016666Y55513600D01*
X161903334Y55513600D01*
X161733855Y55496908D01*
X161516401Y55430944D01*
X161315994Y55323824D01*
X161140335Y55179665D01*
X160996176Y55004006D01*
X160889056Y54803599D01*
X160823092Y54586145D01*
X160800819Y54360000D01*
X160823092Y54133855D01*
X160889056Y53916401D01*
X160915460Y53867003D01*
X160634856Y53586399D01*
X160277469Y53586399D01*
X160383824Y53715994D01*
X160490944Y53916401D01*
X160556908Y54133855D01*
X160579181Y54360000D01*
X160556908Y54586145D01*
X160490944Y54803599D01*
X160464540Y54852997D01*
X161467003Y55855460D01*
X161516401Y55829056D01*
X161733855Y55763092D01*
X161903334Y55746400D01*
X162016666Y55746400D01*
X162186145Y55763092D01*
X162403599Y55829056D01*
X162604006Y55936176D01*
X162779665Y56080335D01*
X162923824Y56255994D01*
X163030944Y56456401D01*
X163062185Y56559389D01*
X163397831Y56559389D01*
X163479794Y56361492D01*
X163604455Y56172807D01*
X163763531Y56012068D01*
X163950909Y55885451D01*
X164159388Y55797823D01*
X164336000Y55830609D01*
X164336000Y56736000D01*
X163431412Y56736000D01*
X163397831Y56559389D01*
X163062185Y56559389D01*
X163096908Y56673855D01*
X163119181Y56900000D01*
X163096908Y57126145D01*
X163030944Y57343599D01*
X162923824Y57544006D01*
X162779665Y57719665D01*
X162604006Y57863824D01*
X162403599Y57970944D01*
X162186145Y58036908D01*
X162016666Y58053600D01*
X161903334Y58053600D01*
X161733855Y58036908D01*
X161516401Y57970944D01*
X161315994Y57863824D01*
X161140335Y57719665D01*
X160996176Y57544006D01*
X160889056Y57343599D01*
X160823092Y57126145D01*
X160800819Y56900000D01*
X160823092Y56673855D01*
X160889056Y56456401D01*
X160915460Y56407003D01*
X159912997Y55404540D01*
X159863599Y55430944D01*
X159646145Y55496908D01*
X159476666Y55513600D01*
X159363334Y55513600D01*
X159193855Y55496908D01*
X158976401Y55430944D01*
X158927003Y55404540D01*
X158433601Y55897942D01*
X158433601Y56310322D01*
X158524455Y56172807D01*
X158683531Y56012068D01*
X158870909Y55885451D01*
X159079388Y55797823D01*
X159256000Y55830609D01*
X159256000Y56736000D01*
X159584000Y56736000D01*
X159584000Y55830609D01*
X159760612Y55797823D01*
X159969091Y55885451D01*
X160156469Y56012068D01*
X160315545Y56172807D01*
X160440206Y56361492D01*
X160522169Y56559389D01*
X160488588Y56736000D01*
X159584000Y56736000D01*
X159256000Y56736000D01*
X159236000Y56736000D01*
X159236000Y57064000D01*
X159256000Y57064000D01*
X159256000Y57969391D01*
X159584000Y57969391D01*
X159584000Y57064000D01*
X160488588Y57064000D01*
X160522169Y57240611D01*
X160440206Y57438508D01*
X160315545Y57627193D01*
X160156469Y57787932D01*
X159969091Y57914549D01*
X159760612Y58002177D01*
X159584000Y57969391D01*
X159256000Y57969391D01*
X159079388Y58002177D01*
X158870909Y57914549D01*
X158683531Y57787932D01*
X158524455Y57627193D01*
X158432573Y57488122D01*
X158427958Y57534983D01*
X158405657Y57608498D01*
X158388088Y57641367D01*
X158369443Y57676250D01*
X158338869Y57713505D01*
X158332920Y57720754D01*
X158332917Y57720757D01*
X158320707Y57735635D01*
X158305828Y57747846D01*
X157727850Y58325823D01*
X157715635Y58340707D01*
X157656250Y58389443D01*
X157588498Y58425657D01*
X157514982Y58447958D01*
X157457688Y58453601D01*
X157438529Y58455488D01*
X157419370Y58453601D01*
X155522760Y58453601D01*
X155503601Y58455488D01*
X155427147Y58447958D01*
X155353632Y58425657D01*
X155285880Y58389443D01*
X155255839Y58364789D01*
X155241376Y58352920D01*
X155241373Y58352917D01*
X155226495Y58340707D01*
X155214284Y58325828D01*
X154941374Y58052917D01*
X154832997Y57944540D01*
X154783599Y57970944D01*
X154566145Y58036908D01*
X154396666Y58053600D01*
X154283334Y58053600D01*
X154113855Y58036908D01*
X153896401Y57970944D01*
X153695994Y57863824D01*
X153520335Y57719665D01*
X153376176Y57544006D01*
X153269056Y57343599D01*
X153203092Y57126145D01*
X153180819Y56900000D01*
X153203092Y56673855D01*
X153269056Y56456401D01*
X153295460Y56407003D01*
X152292997Y55404540D01*
X152243599Y55430944D01*
X152026145Y55496908D01*
X151856666Y55513600D01*
X151743334Y55513600D01*
X151573855Y55496908D01*
X151356401Y55430944D01*
X151307003Y55404540D01*
X151225723Y55485821D01*
X151225720Y55485824D01*
X150898623Y55812920D01*
X150813601Y55897942D01*
X150813601Y56310322D01*
X150904455Y56172807D01*
X151063531Y56012068D01*
X151250909Y55885451D01*
X151459388Y55797823D01*
X151636000Y55830609D01*
X151636000Y56736000D01*
X151964000Y56736000D01*
X151964000Y55830609D01*
X152140612Y55797823D01*
X152349091Y55885451D01*
X152536469Y56012068D01*
X152695545Y56172807D01*
X152820206Y56361492D01*
X152902169Y56559389D01*
X152868588Y56736000D01*
X151964000Y56736000D01*
X151636000Y56736000D01*
X151616000Y56736000D01*
X151616000Y57064000D01*
X151636000Y57064000D01*
X151636000Y57969391D01*
X151964000Y57969391D01*
X151964000Y57064000D01*
X152868588Y57064000D01*
X152902169Y57240611D01*
X152820206Y57438508D01*
X152695545Y57627193D01*
X152536469Y57787932D01*
X152349091Y57914549D01*
X152140612Y58002177D01*
X151964000Y57969391D01*
X151636000Y57969391D01*
X151459388Y58002177D01*
X151250909Y57914549D01*
X151063531Y57787932D01*
X150904455Y57627193D01*
X150813601Y57489678D01*
X150813601Y60307240D01*
X150815488Y60326399D01*
X150807958Y60402852D01*
X150785657Y60476368D01*
X150749443Y60544120D01*
X150700707Y60603505D01*
X150685829Y60615715D01*
X140941403Y70360140D01*
X140941403Y71100000D01*
X140935804Y71156850D01*
X140919221Y71211515D01*
X140892293Y71261895D01*
X140856053Y71306053D01*
X140811895Y71342293D01*
X140761515Y71369221D01*
X140706850Y71385804D01*
X140650000Y71391403D01*
X139350000Y71391403D01*
X139293150Y71385804D01*
X139238485Y71369221D01*
X139188105Y71342293D01*
X139143947Y71306053D01*
X139107707Y71261895D01*
X139080779Y71211515D01*
X139064196Y71156850D01*
X139058597Y71100000D01*
X139058597Y70990000D01*
X138941403Y70990000D01*
X138941403Y71100000D01*
X138935804Y71156850D01*
X138919221Y71211515D01*
X138892293Y71261895D01*
X138856053Y71306053D01*
X138811895Y71342293D01*
X138761515Y71369221D01*
X138706850Y71385804D01*
X138650000Y71391403D01*
X137350000Y71391403D01*
X137293150Y71385804D01*
X137238485Y71369221D01*
X137188105Y71342293D01*
X137143947Y71306053D01*
X137107707Y71261895D01*
X137080779Y71211515D01*
X137064196Y71156850D01*
X137058597Y71100000D01*
X137058597Y70990000D01*
X136941403Y70990000D01*
X136941403Y71100000D01*
X136935804Y71156850D01*
X136919221Y71211515D01*
X136892293Y71261895D01*
X136856053Y71306053D01*
X136811895Y71342293D01*
X136761515Y71369221D01*
X136706850Y71385804D01*
X136650000Y71391403D01*
X135350000Y71391403D01*
X135293150Y71385804D01*
X135238485Y71369221D01*
X135188105Y71342293D01*
X135143947Y71306053D01*
X135107707Y71261895D01*
X135080779Y71211515D01*
X135064196Y71156850D01*
X135058597Y71100000D01*
X135058597Y70242946D01*
X134941403Y70360140D01*
X134941403Y71100000D01*
X134935804Y71156850D01*
X134919221Y71211515D01*
X134892293Y71261895D01*
X134856053Y71306053D01*
X134811895Y71342293D01*
X134761515Y71369221D01*
X134706850Y71385804D01*
X134650000Y71391403D01*
X133350000Y71391403D01*
X133293150Y71385804D01*
X133238485Y71369221D01*
X133188105Y71342293D01*
X133143947Y71306053D01*
X133107707Y71261895D01*
X133080779Y71211515D01*
X133064196Y71156850D01*
X133058597Y71100000D01*
X133058597Y70990000D01*
X132941403Y70990000D01*
X132941403Y71100000D01*
X132935804Y71156850D01*
X132919221Y71211515D01*
X132892293Y71261895D01*
X132856053Y71306053D01*
X132811895Y71342293D01*
X132761515Y71369221D01*
X132706850Y71385804D01*
X132650000Y71391403D01*
X131350000Y71391403D01*
X131293150Y71385804D01*
X131238485Y71369221D01*
X131188105Y71342293D01*
X131143947Y71306053D01*
X131107707Y71261895D01*
X131080779Y71211515D01*
X131064196Y71156850D01*
X131058597Y71100000D01*
X131058597Y70990000D01*
X130941403Y70990000D01*
X130941403Y71100000D01*
X130935804Y71156850D01*
X130919221Y71211515D01*
X130892293Y71261895D01*
X130856053Y71306053D01*
X130811895Y71342293D01*
X130761515Y71369221D01*
X130706850Y71385804D01*
X130650000Y71391403D01*
X129350000Y71391403D01*
X129293150Y71385804D01*
X129238485Y71369221D01*
X129188105Y71342293D01*
X129143947Y71306053D01*
X129107707Y71261895D01*
X129080779Y71211515D01*
X129064196Y71156850D01*
X129058597Y71100000D01*
X112791403Y71100000D01*
X112791403Y72150000D01*
X112785804Y72206850D01*
X112769221Y72261515D01*
X112742293Y72311895D01*
X112706053Y72356053D01*
X112661895Y72392293D01*
X112611515Y72419221D01*
X112556850Y72435804D01*
X112500000Y72441403D01*
X112390000Y72441403D01*
X112390000Y72701736D01*
X112498127Y72746524D01*
X115068455Y72746524D01*
X115186889Y72583348D01*
X115420611Y72483626D01*
X115669298Y72431416D01*
X115923391Y72428726D01*
X116173128Y72475659D01*
X116408910Y72570411D01*
X116433111Y72583348D01*
X116551545Y72746524D01*
X116398069Y72900000D01*
X131058597Y72900000D01*
X131058597Y71900000D01*
X131064196Y71843150D01*
X131080779Y71788485D01*
X131107707Y71738105D01*
X131143947Y71693947D01*
X131188105Y71657707D01*
X131238485Y71630779D01*
X131293150Y71614196D01*
X131350000Y71608597D01*
X132650000Y71608597D01*
X132706850Y71614196D01*
X132761515Y71630779D01*
X132811895Y71657707D01*
X132856053Y71693947D01*
X132892293Y71738105D01*
X132919221Y71788485D01*
X132935804Y71843150D01*
X132941403Y71900000D01*
X132941403Y72639860D01*
X133201543Y72900000D01*
X137058597Y72900000D01*
X137058597Y71900000D01*
X137064196Y71843150D01*
X137080779Y71788485D01*
X137107707Y71738105D01*
X137143947Y71693947D01*
X137188105Y71657707D01*
X137238485Y71630779D01*
X137293150Y71614196D01*
X137350000Y71608597D01*
X138650000Y71608597D01*
X138706850Y71614196D01*
X138761515Y71630779D01*
X138811895Y71657707D01*
X138856053Y71693947D01*
X138892293Y71738105D01*
X138919221Y71788485D01*
X138935804Y71843150D01*
X138941403Y71900000D01*
X138941403Y72900000D01*
X138935804Y72956850D01*
X138919221Y73011515D01*
X138892293Y73061895D01*
X138856053Y73106053D01*
X138811895Y73142293D01*
X138761515Y73169221D01*
X138706850Y73185804D01*
X138650000Y73191403D01*
X138390000Y73191403D01*
X138390000Y76942684D01*
X138433721Y76924574D01*
X138682946Y76875000D01*
X138937054Y76875000D01*
X139186279Y76924574D01*
X139421044Y77021817D01*
X139632327Y77162991D01*
X139812009Y77342673D01*
X139953183Y77553956D01*
X140050426Y77788721D01*
X140100000Y78037946D01*
X140100000Y78292054D01*
X140050426Y78541279D01*
X139953183Y78776044D01*
X139812009Y78987327D01*
X139632327Y79167009D01*
X139433291Y79300000D01*
X154758597Y79300000D01*
X154758597Y78300000D01*
X154764196Y78243150D01*
X154780779Y78188485D01*
X154807707Y78138105D01*
X154843947Y78093947D01*
X154888105Y78057707D01*
X154938485Y78030779D01*
X154993150Y78014196D01*
X155050000Y78008597D01*
X156350000Y78008597D01*
X156406850Y78014196D01*
X156461515Y78030779D01*
X156511895Y78057707D01*
X156556053Y78093947D01*
X156592293Y78138105D01*
X156619221Y78188485D01*
X156635804Y78243150D01*
X156641403Y78300000D01*
X156641403Y78410000D01*
X156758597Y78410000D01*
X156758597Y78300000D01*
X156764196Y78243150D01*
X156780779Y78188485D01*
X156807707Y78138105D01*
X156843947Y78093947D01*
X156888105Y78057707D01*
X156938485Y78030779D01*
X156993150Y78014196D01*
X157050000Y78008597D01*
X158350000Y78008597D01*
X158406850Y78014196D01*
X158461515Y78030779D01*
X158511895Y78057707D01*
X158556053Y78093947D01*
X158592293Y78138105D01*
X158619221Y78188485D01*
X158635804Y78243150D01*
X158641403Y78300000D01*
X158641403Y78410000D01*
X158758597Y78410000D01*
X158758597Y78300000D01*
X158764196Y78243150D01*
X158780779Y78188485D01*
X158807707Y78138105D01*
X158843947Y78093947D01*
X158888105Y78057707D01*
X158938485Y78030779D01*
X158993150Y78014196D01*
X159050000Y78008597D01*
X159310000Y78008597D01*
X159310000Y77280842D01*
X159310001Y77280832D01*
X159310000Y63419159D01*
X159308113Y63400000D01*
X159310000Y63380842D01*
X159315643Y63323548D01*
X159337944Y63250032D01*
X159374158Y63182280D01*
X159422894Y63122894D01*
X159437778Y63110679D01*
X164494857Y58053600D01*
X164335998Y58053600D01*
X164335998Y57969391D01*
X164159388Y58002177D01*
X163950909Y57914549D01*
X163763531Y57787932D01*
X163604455Y57627193D01*
X163479794Y57438508D01*
X163397831Y57240611D01*
X163431412Y57064000D01*
X164336000Y57064000D01*
X164336000Y57084000D01*
X164664000Y57084000D01*
X164664000Y57064000D01*
X164684000Y57064000D01*
X164684000Y56736000D01*
X164664000Y56736000D01*
X164664000Y55830609D01*
X164840612Y55797823D01*
X165049091Y55885451D01*
X165236469Y56012068D01*
X165273601Y56049588D01*
X165273601Y55755558D01*
X165271714Y55736399D01*
X165279244Y55659946D01*
X165295015Y55607956D01*
X165301545Y55586431D01*
X165337759Y55518679D01*
X165386495Y55459293D01*
X165401379Y55447078D01*
X165995460Y54852997D01*
X165969056Y54803599D01*
X165903092Y54586145D01*
X165880819Y54360000D01*
X165903092Y54133855D01*
X165969056Y53916401D01*
X166076176Y53715994D01*
X166220335Y53540335D01*
X166395994Y53396176D01*
X166596401Y53289056D01*
X166813855Y53223092D01*
X166983334Y53206400D01*
X167096666Y53206400D01*
X167266145Y53223092D01*
X167483599Y53289056D01*
X167684006Y53396176D01*
X167859665Y53540335D01*
X168003824Y53715994D01*
X168110944Y53916401D01*
X168142185Y54019389D01*
X168477831Y54019389D01*
X168559794Y53821492D01*
X168684455Y53632807D01*
X168843531Y53472068D01*
X169030909Y53345451D01*
X169239388Y53257823D01*
X169416000Y53290609D01*
X169416000Y54196000D01*
X169744000Y54196000D01*
X169744000Y53290609D01*
X169920612Y53257823D01*
X170129091Y53345451D01*
X170316469Y53472068D01*
X170475545Y53632807D01*
X170600206Y53821492D01*
X170682169Y54019389D01*
X171017831Y54019389D01*
X171099794Y53821492D01*
X171224455Y53632807D01*
X171383531Y53472068D01*
X171570909Y53345451D01*
X171779388Y53257823D01*
X171956000Y53290609D01*
X171956000Y54196000D01*
X172284000Y54196000D01*
X172284000Y53290609D01*
X172460612Y53257823D01*
X172669091Y53345451D01*
X172856469Y53472068D01*
X173015545Y53632807D01*
X173140206Y53821492D01*
X173222169Y54019389D01*
X173188588Y54196000D01*
X172284000Y54196000D01*
X171956000Y54196000D01*
X171051412Y54196000D01*
X171017831Y54019389D01*
X170682169Y54019389D01*
X170648588Y54196000D01*
X169744000Y54196000D01*
X169416000Y54196000D01*
X168511412Y54196000D01*
X168477831Y54019389D01*
X168142185Y54019389D01*
X168176908Y54133855D01*
X168199181Y54360000D01*
X168176908Y54586145D01*
X168142186Y54700611D01*
X168477831Y54700611D01*
X168511412Y54524000D01*
X169416000Y54524000D01*
X169416000Y55429391D01*
X169744000Y55429391D01*
X169744000Y54524000D01*
X170648588Y54524000D01*
X170682169Y54700611D01*
X170600206Y54898508D01*
X170475545Y55087193D01*
X170316469Y55247932D01*
X170129091Y55374549D01*
X169920612Y55462177D01*
X169744000Y55429391D01*
X169416000Y55429391D01*
X169239388Y55462177D01*
X169030909Y55374549D01*
X168843531Y55247932D01*
X168684455Y55087193D01*
X168559794Y54898508D01*
X168477831Y54700611D01*
X168142186Y54700611D01*
X168110944Y54803599D01*
X168084540Y54852997D01*
X169087003Y55855460D01*
X169136401Y55829056D01*
X169353855Y55763092D01*
X169523334Y55746400D01*
X169636666Y55746400D01*
X169806145Y55763092D01*
X170023599Y55829056D01*
X170072997Y55855460D01*
X170667083Y55261373D01*
X170679293Y55246495D01*
X170694171Y55234285D01*
X170694174Y55234282D01*
X170707192Y55223599D01*
X170738678Y55197759D01*
X170806430Y55161545D01*
X170879946Y55139244D01*
X170937240Y55133601D01*
X170937249Y55133601D01*
X170956398Y55131715D01*
X170975547Y55133601D01*
X171270383Y55133601D01*
X171224455Y55087193D01*
X171099794Y54898508D01*
X171017831Y54700611D01*
X171051412Y54524000D01*
X171956000Y54524000D01*
X171956000Y54544000D01*
X172284000Y54544000D01*
X172284000Y54524000D01*
X173188588Y54524000D01*
X173222169Y54700611D01*
X173140206Y54898508D01*
X173015545Y55087193D01*
X172969617Y55133601D01*
X173334856Y55133601D01*
X173534176Y54934280D01*
X173534182Y54934275D01*
X173615460Y54852997D01*
X173589056Y54803599D01*
X173523092Y54586145D01*
X173500819Y54360000D01*
X173523092Y54133855D01*
X173589056Y53916401D01*
X173696176Y53715994D01*
X173840335Y53540335D01*
X174015994Y53396176D01*
X174216401Y53289056D01*
X174433855Y53223092D01*
X174603334Y53206400D01*
X174716666Y53206400D01*
X174886145Y53223092D01*
X175103599Y53289056D01*
X175304006Y53396176D01*
X175479665Y53540335D01*
X175623824Y53715994D01*
X175730944Y53916401D01*
X175762185Y54019389D01*
X176097831Y54019389D01*
X176179794Y53821492D01*
X176304455Y53632807D01*
X176463531Y53472068D01*
X176650909Y53345451D01*
X176859388Y53257823D01*
X177036000Y53290609D01*
X177036000Y54196000D01*
X177364000Y54196000D01*
X177364000Y53290609D01*
X177540612Y53257823D01*
X177749091Y53345451D01*
X177936469Y53472068D01*
X178095545Y53632807D01*
X178220206Y53821492D01*
X178302169Y54019389D01*
X178268588Y54196000D01*
X177364000Y54196000D01*
X177036000Y54196000D01*
X176131412Y54196000D01*
X176097831Y54019389D01*
X175762185Y54019389D01*
X175796908Y54133855D01*
X175819181Y54360000D01*
X175796908Y54586145D01*
X175762186Y54700611D01*
X176097831Y54700611D01*
X176131412Y54524000D01*
X177036000Y54524000D01*
X177036000Y55429391D01*
X177364000Y55429391D01*
X177364000Y54524000D01*
X178268588Y54524000D01*
X178302169Y54700611D01*
X178220206Y54898508D01*
X178095545Y55087193D01*
X177936469Y55247932D01*
X177749091Y55374549D01*
X177540612Y55462177D01*
X177364000Y55429391D01*
X177036000Y55429391D01*
X176859388Y55462177D01*
X176650909Y55374549D01*
X176463531Y55247932D01*
X176304455Y55087193D01*
X176179794Y54898508D01*
X176097831Y54700611D01*
X175762186Y54700611D01*
X175730944Y54803599D01*
X175704540Y54852997D01*
X176596540Y55744997D01*
X178063600Y55744997D01*
X178120450Y55750596D01*
X178175115Y55767179D01*
X178225495Y55794107D01*
X178269653Y55830347D01*
X178305893Y55874505D01*
X178332821Y55924885D01*
X178349404Y55979550D01*
X178355003Y56036400D01*
X178355003Y57763600D01*
X178349404Y57820450D01*
X178332821Y57875115D01*
X178305893Y57925495D01*
X178269653Y57969653D01*
X178225495Y58005893D01*
X178175115Y58032821D01*
X178120450Y58049404D01*
X178063600Y58055003D01*
X176336400Y58055003D01*
X176279550Y58049404D01*
X176224885Y58032821D01*
X176174505Y58005893D01*
X176130347Y57969653D01*
X176094107Y57925495D01*
X176067179Y57875115D01*
X176050596Y57820450D01*
X176044997Y57763600D01*
X176044997Y56296540D01*
X175152997Y55404540D01*
X175103599Y55430944D01*
X174886145Y55496908D01*
X174716666Y55513600D01*
X174603334Y55513600D01*
X174433855Y55496908D01*
X174216401Y55430944D01*
X174167003Y55404540D01*
X174085725Y55485818D01*
X174085720Y55485824D01*
X173785720Y55785824D01*
X173773505Y55800707D01*
X173714120Y55849443D01*
X173646368Y55885657D01*
X173572852Y55907958D01*
X173515558Y55913601D01*
X173496399Y55915488D01*
X173477240Y55913601D01*
X172710750Y55913601D01*
X172856469Y56012068D01*
X173015545Y56172807D01*
X173140206Y56361492D01*
X173222169Y56559389D01*
X173557831Y56559389D01*
X173639794Y56361492D01*
X173764455Y56172807D01*
X173923531Y56012068D01*
X174110909Y55885451D01*
X174319388Y55797823D01*
X174496000Y55830609D01*
X174496000Y56736000D01*
X174824000Y56736000D01*
X174824000Y55830609D01*
X175000612Y55797823D01*
X175209091Y55885451D01*
X175396469Y56012068D01*
X175555545Y56172807D01*
X175680206Y56361492D01*
X175762169Y56559389D01*
X175728588Y56736000D01*
X174824000Y56736000D01*
X174496000Y56736000D01*
X173591412Y56736000D01*
X173557831Y56559389D01*
X173222169Y56559389D01*
X173188588Y56736000D01*
X172284000Y56736000D01*
X172284000Y56716000D01*
X171956000Y56716000D01*
X171956000Y56736000D01*
X171051412Y56736000D01*
X171017831Y56559389D01*
X171099794Y56361492D01*
X171224455Y56172807D01*
X171383531Y56012068D01*
X171529250Y55913601D01*
X171117943Y55913601D01*
X170624540Y56407003D01*
X170650944Y56456401D01*
X170716908Y56673855D01*
X170739181Y56900000D01*
X170716908Y57126145D01*
X170682186Y57240611D01*
X171017831Y57240611D01*
X171051412Y57064000D01*
X171956000Y57064000D01*
X171956000Y57969391D01*
X172284000Y57969391D01*
X172284000Y57064000D01*
X173188588Y57064000D01*
X173222169Y57240611D01*
X173557831Y57240611D01*
X173591412Y57064000D01*
X174496000Y57064000D01*
X174496000Y57969391D01*
X174824000Y57969391D01*
X174824000Y57064000D01*
X175728588Y57064000D01*
X175762169Y57240611D01*
X175680206Y57438508D01*
X175555545Y57627193D01*
X175396469Y57787932D01*
X175209091Y57914549D01*
X175000612Y58002177D01*
X174824000Y57969391D01*
X174496000Y57969391D01*
X174319388Y58002177D01*
X174110909Y57914549D01*
X173923531Y57787932D01*
X173764455Y57627193D01*
X173639794Y57438508D01*
X173557831Y57240611D01*
X173222169Y57240611D01*
X173140206Y57438508D01*
X173015545Y57627193D01*
X172856469Y57787932D01*
X172669091Y57914549D01*
X172460612Y58002177D01*
X172284000Y57969391D01*
X171956000Y57969391D01*
X171779388Y58002177D01*
X171570909Y57914549D01*
X171383531Y57787932D01*
X171224455Y57627193D01*
X171099794Y57438508D01*
X171017831Y57240611D01*
X170682186Y57240611D01*
X170650944Y57343599D01*
X170543824Y57544006D01*
X170399665Y57719665D01*
X170224006Y57863824D01*
X170023599Y57970944D01*
X169806145Y58036908D01*
X169636666Y58053600D01*
X169523334Y58053600D01*
X169353855Y58036908D01*
X169136401Y57970944D01*
X168935994Y57863824D01*
X168760335Y57719665D01*
X168616176Y57544006D01*
X168509056Y57343599D01*
X168443092Y57126145D01*
X168420819Y56900000D01*
X168443092Y56673855D01*
X168509056Y56456401D01*
X168535460Y56407003D01*
X167532997Y55404540D01*
X167483599Y55430944D01*
X167266145Y55496908D01*
X167096666Y55513600D01*
X166983334Y55513600D01*
X166813855Y55496908D01*
X166596401Y55430944D01*
X166547003Y55404540D01*
X166053601Y55897942D01*
X166053601Y56310322D01*
X166144455Y56172807D01*
X166303531Y56012068D01*
X166490909Y55885451D01*
X166699388Y55797823D01*
X166876000Y55830609D01*
X166876000Y56736000D01*
X167204000Y56736000D01*
X167204000Y55830609D01*
X167380612Y55797823D01*
X167589091Y55885451D01*
X167776469Y56012068D01*
X167935545Y56172807D01*
X168060206Y56361492D01*
X168142169Y56559389D01*
X168108588Y56736000D01*
X167204000Y56736000D01*
X166876000Y56736000D01*
X166856000Y56736000D01*
X166856000Y57064000D01*
X166876000Y57064000D01*
X166876000Y57969391D01*
X167204000Y57969391D01*
X167204000Y57064000D01*
X168108588Y57064000D01*
X168142169Y57240611D01*
X168060206Y57438508D01*
X167935545Y57627193D01*
X167776469Y57787932D01*
X167589091Y57914549D01*
X167380612Y58002177D01*
X167204000Y57969391D01*
X166876000Y57969391D01*
X166699388Y58002177D01*
X166490909Y57914549D01*
X166303531Y57787932D01*
X166144455Y57627193D01*
X166050676Y57485251D01*
X166047958Y57512852D01*
X166025657Y57586368D01*
X165989443Y57654120D01*
X165940707Y57713505D01*
X165925823Y57725720D01*
X160090000Y63561543D01*
X160090000Y78008597D01*
X160350000Y78008597D01*
X160406850Y78014196D01*
X160461515Y78030779D01*
X160511895Y78057707D01*
X160556053Y78093947D01*
X160592293Y78138105D01*
X160619221Y78188485D01*
X160635804Y78243150D01*
X160641403Y78300000D01*
X160641403Y79300000D01*
X160635804Y79356850D01*
X160619221Y79411515D01*
X160592293Y79461895D01*
X160556053Y79506053D01*
X160511895Y79542293D01*
X160461515Y79569221D01*
X160406850Y79585804D01*
X160350000Y79591403D01*
X159050000Y79591403D01*
X158993150Y79585804D01*
X158938485Y79569221D01*
X158888105Y79542293D01*
X158843947Y79506053D01*
X158807707Y79461895D01*
X158780779Y79411515D01*
X158764196Y79356850D01*
X158758597Y79300000D01*
X158758597Y79190000D01*
X158641403Y79190000D01*
X158641403Y79300000D01*
X158635804Y79356850D01*
X158619221Y79411515D01*
X158592293Y79461895D01*
X158556053Y79506053D01*
X158511895Y79542293D01*
X158461515Y79569221D01*
X158406850Y79585804D01*
X158350000Y79591403D01*
X157050000Y79591403D01*
X156993150Y79585804D01*
X156938485Y79569221D01*
X156888105Y79542293D01*
X156843947Y79506053D01*
X156807707Y79461895D01*
X156780779Y79411515D01*
X156764196Y79356850D01*
X156758597Y79300000D01*
X156758597Y79190000D01*
X156641403Y79190000D01*
X156641403Y79300000D01*
X156635804Y79356850D01*
X156619221Y79411515D01*
X156592293Y79461895D01*
X156556053Y79506053D01*
X156511895Y79542293D01*
X156461515Y79569221D01*
X156406850Y79585804D01*
X156350000Y79591403D01*
X155050000Y79591403D01*
X154993150Y79585804D01*
X154938485Y79569221D01*
X154888105Y79542293D01*
X154843947Y79506053D01*
X154807707Y79461895D01*
X154780779Y79411515D01*
X154764196Y79356850D01*
X154758597Y79300000D01*
X139433291Y79300000D01*
X139421044Y79308183D01*
X139186279Y79405426D01*
X138937054Y79455000D01*
X138682946Y79455000D01*
X138433721Y79405426D01*
X138198956Y79308183D01*
X137987673Y79167009D01*
X137807991Y78987327D01*
X137666817Y78776044D01*
X137569574Y78541279D01*
X137520000Y78292054D01*
X137520000Y78037946D01*
X137569574Y77788721D01*
X137665643Y77556789D01*
X137637944Y77504968D01*
X137615643Y77431453D01*
X137608113Y77355000D01*
X137610001Y77335831D01*
X137610000Y73191403D01*
X137350000Y73191403D01*
X137293150Y73185804D01*
X137238485Y73169221D01*
X137188105Y73142293D01*
X137143947Y73106053D01*
X137107707Y73061895D01*
X137080779Y73011515D01*
X137064196Y72956850D01*
X137058597Y72900000D01*
X133201543Y72900000D01*
X134074582Y73773039D01*
X134153342Y73655166D01*
X134305166Y73503342D01*
X134483691Y73384055D01*
X134682059Y73301888D01*
X134892644Y73260000D01*
X135107356Y73260000D01*
X135317941Y73301888D01*
X135516309Y73384055D01*
X135694834Y73503342D01*
X135846658Y73655166D01*
X135965945Y73833691D01*
X136048112Y74032059D01*
X136090000Y74242644D01*
X136090000Y74457356D01*
X136048112Y74667941D01*
X135965945Y74866309D01*
X135846658Y75044834D01*
X135694834Y75196658D01*
X135516309Y75315945D01*
X135317941Y75398112D01*
X135107356Y75440000D01*
X134892644Y75440000D01*
X134682059Y75398112D01*
X134483691Y75315945D01*
X134305166Y75196658D01*
X134153342Y75044834D01*
X134034055Y74866309D01*
X133973054Y74719040D01*
X133950031Y74712056D01*
X133882279Y74675842D01*
X133822894Y74627106D01*
X133810679Y74612222D01*
X132389860Y73191403D01*
X131350000Y73191403D01*
X131293150Y73185804D01*
X131238485Y73169221D01*
X131188105Y73142293D01*
X131143947Y73106053D01*
X131107707Y73061895D01*
X131080779Y73011515D01*
X131064196Y72956850D01*
X131058597Y72900000D01*
X116398069Y72900000D01*
X115810000Y73488069D01*
X115068455Y72746524D01*
X112498127Y72746524D01*
X112516309Y72754055D01*
X112694834Y72873342D01*
X112846658Y73025166D01*
X112965945Y73203691D01*
X113048112Y73402059D01*
X113088799Y73606609D01*
X114518726Y73606609D01*
X114565659Y73356872D01*
X114660411Y73121090D01*
X114673348Y73096889D01*
X114836524Y72978455D01*
X115578069Y73720000D01*
X116041931Y73720000D01*
X116783476Y72978455D01*
X116946652Y73096889D01*
X117046374Y73330611D01*
X117098584Y73579298D01*
X117101274Y73833391D01*
X117054341Y74083128D01*
X116959589Y74318910D01*
X116946652Y74343111D01*
X116783476Y74461545D01*
X116041931Y73720000D01*
X115578069Y73720000D01*
X114836524Y74461545D01*
X114673348Y74343111D01*
X114573626Y74109389D01*
X114521416Y73860702D01*
X114518726Y73606609D01*
X113088799Y73606609D01*
X113090000Y73612644D01*
X113090000Y73827356D01*
X113048112Y74037941D01*
X112965945Y74236309D01*
X112846658Y74414834D01*
X112694834Y74566658D01*
X112516309Y74685945D01*
X112498128Y74693476D01*
X115068455Y74693476D01*
X115810000Y73951931D01*
X116551545Y74693476D01*
X116433111Y74856652D01*
X116199389Y74956374D01*
X115950702Y75008584D01*
X115696609Y75011274D01*
X115446872Y74964341D01*
X115211090Y74869589D01*
X115186889Y74856652D01*
X115068455Y74693476D01*
X112498128Y74693476D01*
X112317941Y74768112D01*
X112107356Y74810000D01*
X111892644Y74810000D01*
X111682059Y74768112D01*
X111483691Y74685945D01*
X111305166Y74566658D01*
X111153342Y74414834D01*
X111034055Y74236309D01*
X110951888Y74037941D01*
X110910000Y73827356D01*
X109480000Y73827356D01*
X109480000Y73847054D01*
X109430426Y74096279D01*
X109333183Y74331044D01*
X109192009Y74542327D01*
X109012327Y74722009D01*
X108801044Y74863183D01*
X108566279Y74960426D01*
X108317054Y75010000D01*
X108062946Y75010000D01*
X107813721Y74960426D01*
X107578956Y74863183D01*
X107367673Y74722009D01*
X107187991Y74542327D01*
X107046817Y74331044D01*
X106949574Y74096279D01*
X106900000Y73847054D01*
X106900000Y73592946D01*
X106949574Y73343721D01*
X107046817Y73108956D01*
X107187991Y72897673D01*
X107367673Y72717991D01*
X107578956Y72576817D01*
X107810000Y72481115D01*
X107810000Y72441403D01*
X107700000Y72441403D01*
X107643150Y72435804D01*
X107588485Y72419221D01*
X107538105Y72392293D01*
X107493947Y72356053D01*
X107457707Y72311895D01*
X107430779Y72261515D01*
X107414196Y72206850D01*
X107408597Y72150000D01*
X107408597Y70850000D01*
X107414196Y70793150D01*
X107430779Y70738485D01*
X107451179Y70700319D01*
X107437775Y70689319D01*
X107437772Y70689316D01*
X107422894Y70677106D01*
X107410683Y70662227D01*
X107100000Y70351543D01*
X107049992Y70401551D01*
X107049992Y70601345D01*
X107061895Y70607707D01*
X107106053Y70643947D01*
X107142293Y70688105D01*
X107169221Y70738485D01*
X107185804Y70793150D01*
X107191403Y70850000D01*
X107191403Y72150000D01*
X107185804Y72206850D01*
X107169221Y72261515D01*
X107142293Y72311895D01*
X107106053Y72356053D01*
X107061895Y72392293D01*
X107011515Y72419221D01*
X106956850Y72435804D01*
X106900000Y72441403D01*
X105900000Y72441403D01*
X105843150Y72435804D01*
X105788485Y72419221D01*
X105738105Y72392293D01*
X105693947Y72356053D01*
X105657707Y72311895D01*
X105630779Y72261515D01*
X105614196Y72206850D01*
X105608597Y72150000D01*
X105608597Y70850000D01*
X105614196Y70793150D01*
X105630779Y70738485D01*
X105657707Y70688105D01*
X105693947Y70643947D01*
X105738105Y70607707D01*
X105788485Y70580779D01*
X105843150Y70564196D01*
X105900000Y70558597D01*
X106269992Y70558597D01*
X106269992Y70259167D01*
X106268105Y70240008D01*
X106275635Y70163555D01*
X106294915Y70100000D01*
X106297936Y70090040D01*
X106334150Y70022288D01*
X106382886Y69962902D01*
X106397770Y69950687D01*
X106506400Y69842057D01*
X106506399Y57501771D01*
X106483824Y57544006D01*
X106339665Y57719665D01*
X106164006Y57863824D01*
X105963599Y57970944D01*
X105746145Y58036908D01*
X105576666Y58053600D01*
X105463334Y58053600D01*
X105293855Y58036908D01*
X105076401Y57970944D01*
X104875994Y57863824D01*
X104700335Y57719665D01*
X104556176Y57544006D01*
X104449056Y57343599D01*
X104383092Y57126145D01*
X104360819Y56900000D01*
X100090000Y56900000D01*
X100090000Y78907356D01*
X110910000Y78907356D01*
X110910000Y78692644D01*
X110951888Y78482059D01*
X111034055Y78283691D01*
X111153342Y78105166D01*
X111305166Y77953342D01*
X111483691Y77834055D01*
X111682059Y77751888D01*
X111892644Y77710000D01*
X112107356Y77710000D01*
X112317941Y77751888D01*
X112498127Y77826524D01*
X130448455Y77826524D01*
X130566889Y77663348D01*
X130800611Y77563626D01*
X131049298Y77511416D01*
X131303391Y77508726D01*
X131553128Y77555659D01*
X131788910Y77650411D01*
X131813111Y77663348D01*
X131931545Y77826524D01*
X131190000Y78568069D01*
X130448455Y77826524D01*
X112498127Y77826524D01*
X112516309Y77834055D01*
X112694834Y77953342D01*
X112846658Y78105166D01*
X112965945Y78283691D01*
X113048112Y78482059D01*
X113088799Y78686609D01*
X129898726Y78686609D01*
X129945659Y78436872D01*
X130040411Y78201090D01*
X130053348Y78176889D01*
X130216524Y78058455D01*
X130958069Y78800000D01*
X131421931Y78800000D01*
X132163476Y78058455D01*
X132326652Y78176889D01*
X132426374Y78410611D01*
X132478584Y78659298D01*
X132481274Y78913391D01*
X132434341Y79163128D01*
X132339589Y79398910D01*
X132326652Y79423111D01*
X132163476Y79541545D01*
X131421931Y78800000D01*
X130958069Y78800000D01*
X130216524Y79541545D01*
X130053348Y79423111D01*
X129953626Y79189389D01*
X129901416Y78940702D01*
X129898726Y78686609D01*
X113088799Y78686609D01*
X113090000Y78692644D01*
X113090000Y78907356D01*
X113048112Y79117941D01*
X112965945Y79316309D01*
X112846658Y79494834D01*
X112694834Y79646658D01*
X112516309Y79765945D01*
X112498128Y79773476D01*
X130448455Y79773476D01*
X131190000Y79031931D01*
X131931545Y79773476D01*
X131813111Y79936652D01*
X131579389Y80036374D01*
X131330702Y80088584D01*
X131076609Y80091274D01*
X130826872Y80044341D01*
X130591090Y79949589D01*
X130566889Y79936652D01*
X130448455Y79773476D01*
X112498128Y79773476D01*
X112317941Y79848112D01*
X112107356Y79890000D01*
X111892644Y79890000D01*
X111682059Y79848112D01*
X111483691Y79765945D01*
X111305166Y79646658D01*
X111153342Y79494834D01*
X111034055Y79316309D01*
X110951888Y79117941D01*
X110910000Y78907356D01*
X100090000Y78907356D01*
X100090000Y82737054D01*
X114520000Y82737054D01*
X114520000Y82482946D01*
X114569574Y82233721D01*
X114666817Y81998956D01*
X114807991Y81787673D01*
X114987673Y81607991D01*
X115198956Y81466817D01*
X115433721Y81369574D01*
X115682946Y81320000D01*
X115937054Y81320000D01*
X116186279Y81369574D01*
X116421044Y81466817D01*
X116632327Y81607991D01*
X116812009Y81787673D01*
X116953183Y81998956D01*
X117050426Y82233721D01*
X117100000Y82482946D01*
X117100000Y82737054D01*
X137520000Y82737054D01*
X137520000Y82482946D01*
X137569574Y82233721D01*
X137666817Y81998956D01*
X137807991Y81787673D01*
X137987673Y81607991D01*
X138198956Y81466817D01*
X138433721Y81369574D01*
X138682946Y81320000D01*
X138937054Y81320000D01*
X139186279Y81369574D01*
X139421044Y81466817D01*
X139632327Y81607991D01*
X139812009Y81787673D01*
X139953183Y81998956D01*
X140050426Y82233721D01*
X140100000Y82482946D01*
X140100000Y82737054D01*
X140050426Y82986279D01*
X139953183Y83221044D01*
X139812009Y83432327D01*
X139632327Y83612009D01*
X139421044Y83753183D01*
X139186279Y83850426D01*
X138937054Y83900000D01*
X138682946Y83900000D01*
X138433721Y83850426D01*
X138198956Y83753183D01*
X137987673Y83612009D01*
X137807991Y83432327D01*
X137666817Y83221044D01*
X137569574Y82986279D01*
X137520000Y82737054D01*
X117100000Y82737054D01*
X117050426Y82986279D01*
X116953183Y83221044D01*
X116812009Y83432327D01*
X116632327Y83612009D01*
X116421044Y83753183D01*
X116186279Y83850426D01*
X115937054Y83900000D01*
X115682946Y83900000D01*
X115433721Y83850426D01*
X115198956Y83753183D01*
X114987673Y83612009D01*
X114807991Y83432327D01*
X114666817Y83221044D01*
X114569574Y82986279D01*
X114520000Y82737054D01*
X100090000Y82737054D01*
X100090000Y85103548D01*
X151160000Y85103548D01*
X151160001Y82496451D01*
X151175772Y82336323D01*
X151238100Y82130857D01*
X151339314Y81941498D01*
X151475525Y81775524D01*
X151641499Y81639313D01*
X151830858Y81538099D01*
X152036324Y81475771D01*
X152250000Y81454726D01*
X152463677Y81475771D01*
X152669143Y81538099D01*
X152858502Y81639313D01*
X153024476Y81775524D01*
X153160687Y81941498D01*
X153261901Y82130857D01*
X153324229Y82336323D01*
X153340000Y82496451D01*
X153340000Y85103548D01*
X158660000Y85103548D01*
X158660001Y82496451D01*
X158675772Y82336323D01*
X158738100Y82130857D01*
X158839314Y81941498D01*
X158975525Y81775524D01*
X159141499Y81639313D01*
X159310000Y81549248D01*
X159310000Y81391403D01*
X159050000Y81391403D01*
X158993150Y81385804D01*
X158938485Y81369221D01*
X158888105Y81342293D01*
X158843947Y81306053D01*
X158807707Y81261895D01*
X158780779Y81211515D01*
X158764196Y81156850D01*
X158758597Y81100000D01*
X158758597Y80100000D01*
X158764196Y80043150D01*
X158780779Y79988485D01*
X158807707Y79938105D01*
X158843947Y79893947D01*
X158888105Y79857707D01*
X158938485Y79830779D01*
X158993150Y79814196D01*
X159050000Y79808597D01*
X160350000Y79808597D01*
X160406850Y79814196D01*
X160461515Y79830779D01*
X160511895Y79857707D01*
X160556053Y79893947D01*
X160592293Y79938105D01*
X160619221Y79988485D01*
X160635804Y80043150D01*
X160641403Y80100000D01*
X160641403Y81100000D01*
X160635804Y81156850D01*
X160619221Y81211515D01*
X160592293Y81261895D01*
X160556053Y81306053D01*
X160511895Y81342293D01*
X160461515Y81369221D01*
X160406850Y81385804D01*
X160350000Y81391403D01*
X160090000Y81391403D01*
X160090000Y81514091D01*
X160169143Y81538099D01*
X160358502Y81639313D01*
X160524476Y81775524D01*
X160660687Y81941498D01*
X160761901Y82130857D01*
X160824229Y82336323D01*
X160840000Y82496451D01*
X160840000Y85103549D01*
X160824229Y85263677D01*
X160761901Y85469143D01*
X160660687Y85658502D01*
X160524476Y85824476D01*
X160358502Y85960687D01*
X160169142Y86061901D01*
X159963676Y86124229D01*
X159750000Y86145274D01*
X159536323Y86124229D01*
X159330857Y86061901D01*
X159141498Y85960687D01*
X158975524Y85824476D01*
X158839313Y85658502D01*
X158738099Y85469142D01*
X158675771Y85263676D01*
X158660000Y85103548D01*
X153340000Y85103548D01*
X153340000Y85103549D01*
X153324229Y85263677D01*
X153261901Y85469143D01*
X153160687Y85658502D01*
X153024476Y85824476D01*
X152858502Y85960687D01*
X152669142Y86061901D01*
X152463676Y86124229D01*
X152250000Y86145274D01*
X152036323Y86124229D01*
X151830857Y86061901D01*
X151641498Y85960687D01*
X151475524Y85824476D01*
X151339313Y85658502D01*
X151238099Y85469142D01*
X151175771Y85263676D01*
X151160000Y85103548D01*
X100090000Y85103548D01*
X100090000Y87817054D01*
X106900000Y87817054D01*
X106900000Y87562946D01*
X106949574Y87313721D01*
X107046817Y87078956D01*
X107187991Y86867673D01*
X107367673Y86687991D01*
X107578956Y86546817D01*
X107813721Y86449574D01*
X108062946Y86400000D01*
X108317054Y86400000D01*
X108566279Y86449574D01*
X108801044Y86546817D01*
X109012327Y86687991D01*
X109192009Y86867673D01*
X109333183Y87078956D01*
X109430426Y87313721D01*
X109480000Y87562946D01*
X109480000Y87817054D01*
X129900000Y87817054D01*
X129900000Y87562946D01*
X129949574Y87313721D01*
X130046817Y87078956D01*
X130187991Y86867673D01*
X130367673Y86687991D01*
X130578956Y86546817D01*
X130813721Y86449574D01*
X131062946Y86400000D01*
X131317054Y86400000D01*
X131566279Y86449574D01*
X131801044Y86546817D01*
X132012327Y86687991D01*
X132192009Y86867673D01*
X132333183Y87078956D01*
X132360847Y87145744D01*
X153561681Y87145744D01*
X153627864Y86947454D01*
X153757222Y86739153D01*
X153924732Y86560091D01*
X154123956Y86417149D01*
X154347239Y86315821D01*
X154586000Y86260000D01*
X155836000Y86260000D01*
X155836000Y87336000D01*
X156164000Y87336000D01*
X156164000Y86260000D01*
X157414000Y86260000D01*
X157652761Y86315821D01*
X157876044Y86417149D01*
X158075268Y86560091D01*
X158242778Y86739153D01*
X158372136Y86947454D01*
X158438319Y87145744D01*
X158405924Y87336000D01*
X156164000Y87336000D01*
X155836000Y87336000D01*
X153594076Y87336000D01*
X153561681Y87145744D01*
X132360847Y87145744D01*
X132430426Y87313721D01*
X132480000Y87562946D01*
X132480000Y87817054D01*
X132472601Y87854256D01*
X153561681Y87854256D01*
X153594076Y87664000D01*
X155836000Y87664000D01*
X155836000Y87684000D01*
X156164000Y87684000D01*
X156164000Y87664000D01*
X158405924Y87664000D01*
X158438319Y87854256D01*
X158372136Y88052546D01*
X158242778Y88260847D01*
X158075268Y88439909D01*
X157876044Y88582851D01*
X157652761Y88684179D01*
X157414000Y88740000D01*
X154586000Y88740000D01*
X154347239Y88684179D01*
X154123956Y88582851D01*
X153924732Y88439909D01*
X153757222Y88260847D01*
X153627864Y88052546D01*
X153561681Y87854256D01*
X132472601Y87854256D01*
X132430426Y88066279D01*
X132333183Y88301044D01*
X132192009Y88512327D01*
X132012327Y88692009D01*
X131801044Y88833183D01*
X131566279Y88930426D01*
X131317054Y88980000D01*
X131062946Y88980000D01*
X130813721Y88930426D01*
X130578956Y88833183D01*
X130367673Y88692009D01*
X130187991Y88512327D01*
X130046817Y88301044D01*
X129949574Y88066279D01*
X129900000Y87817054D01*
X109480000Y87817054D01*
X109430426Y88066279D01*
X109333183Y88301044D01*
X109192009Y88512327D01*
X109012327Y88692009D01*
X108801044Y88833183D01*
X108566279Y88930426D01*
X108317054Y88980000D01*
X108062946Y88980000D01*
X107813721Y88930426D01*
X107578956Y88833183D01*
X107367673Y88692009D01*
X107187991Y88512327D01*
X107046817Y88301044D01*
X106949574Y88066279D01*
X106900000Y87817054D01*
X100090000Y87817054D01*
X100090000Y89635000D01*
X161910000Y89635000D01*
X161910000Y75000000D01*
X161910000Y75000000D01*
G37*
X161910000Y75000000D02*
X161911729Y74982442D01*
X161916851Y74965558D01*
X161925168Y74949999D01*
X161936360Y74936360D01*
X161949999Y74925168D01*
X161965558Y74916851D01*
X161982442Y74911729D01*
X162000000Y74910000D01*
X183635000Y74910000D01*
X183635001Y51365000D01*
X100090000Y51365000D01*
X100090000Y54360000D01*
X104360819Y54360000D01*
X104383092Y54133855D01*
X104449056Y53916401D01*
X104556176Y53715994D01*
X104700335Y53540335D01*
X104875994Y53396176D01*
X105076401Y53289056D01*
X105293855Y53223092D01*
X105463334Y53206400D01*
X105576666Y53206400D01*
X105746145Y53223092D01*
X105963599Y53289056D01*
X106164006Y53396176D01*
X106339665Y53540335D01*
X106483824Y53715994D01*
X106590944Y53916401D01*
X106622185Y54019389D01*
X106957831Y54019389D01*
X107039794Y53821492D01*
X107164455Y53632807D01*
X107323531Y53472068D01*
X107510909Y53345451D01*
X107719388Y53257823D01*
X107896000Y53290609D01*
X107896000Y54196000D01*
X108224000Y54196000D01*
X108224000Y53290609D01*
X108400612Y53257823D01*
X108609091Y53345451D01*
X108796469Y53472068D01*
X108955545Y53632807D01*
X109080206Y53821492D01*
X109162169Y54019389D01*
X109128588Y54196000D01*
X108224000Y54196000D01*
X107896000Y54196000D01*
X106991412Y54196000D01*
X106957831Y54019389D01*
X106622185Y54019389D01*
X106656908Y54133855D01*
X106679181Y54360000D01*
X106656908Y54586145D01*
X106590944Y54803599D01*
X106483824Y55004006D01*
X106339665Y55179665D01*
X106164006Y55323824D01*
X105963599Y55430944D01*
X105746145Y55496908D01*
X105576666Y55513600D01*
X105463334Y55513600D01*
X105293855Y55496908D01*
X105076401Y55430944D01*
X104875994Y55323824D01*
X104700335Y55179665D01*
X104556176Y55004006D01*
X104449056Y54803599D01*
X104383092Y54586145D01*
X104360819Y54360000D01*
X100090000Y54360000D01*
X100090000Y54609639D01*
X100155033Y54766643D01*
X100195000Y54967569D01*
X100195000Y55172431D01*
X100155033Y55373357D01*
X100090000Y55530361D01*
X100090000Y56900000D01*
X104360819Y56900000D01*
X104383092Y56673855D01*
X104449056Y56456401D01*
X104556176Y56255994D01*
X104700335Y56080335D01*
X104875994Y55936176D01*
X105076401Y55829056D01*
X105293855Y55763092D01*
X105463334Y55746400D01*
X105576666Y55746400D01*
X105746145Y55763092D01*
X105963599Y55829056D01*
X106164006Y55936176D01*
X106339665Y56080335D01*
X106483824Y56255994D01*
X106508402Y56301976D01*
X106512042Y56265018D01*
X106521796Y56232863D01*
X106534343Y56191503D01*
X106570557Y56123751D01*
X106619293Y56064365D01*
X106634177Y56052150D01*
X107392076Y55294250D01*
X107323531Y55247932D01*
X107164455Y55087193D01*
X107039794Y54898508D01*
X106957831Y54700611D01*
X106991412Y54524000D01*
X107896000Y54524000D01*
X107896000Y54544000D01*
X108224000Y54544000D01*
X108224000Y54524000D01*
X109128588Y54524000D01*
X109162169Y54700611D01*
X109080206Y54898508D01*
X108955545Y55087193D01*
X108909617Y55133601D01*
X109274856Y55133601D01*
X109555460Y54852997D01*
X109529056Y54803599D01*
X109463092Y54586145D01*
X109440819Y54360000D01*
X109463092Y54133855D01*
X109529056Y53916401D01*
X109636176Y53715994D01*
X109780335Y53540335D01*
X109955994Y53396176D01*
X110156401Y53289056D01*
X110373855Y53223092D01*
X110543334Y53206400D01*
X110656666Y53206400D01*
X110826145Y53223092D01*
X111043599Y53289056D01*
X111244006Y53396176D01*
X111419665Y53540335D01*
X111563824Y53715994D01*
X111670944Y53916401D01*
X111736908Y54133855D01*
X111759181Y54360000D01*
X111980819Y54360000D01*
X112003092Y54133855D01*
X112069056Y53916401D01*
X112176176Y53715994D01*
X112320335Y53540335D01*
X112495994Y53396176D01*
X112696401Y53289056D01*
X112913855Y53223092D01*
X113083334Y53206400D01*
X113196666Y53206400D01*
X113366145Y53223092D01*
X113583599Y53289056D01*
X113784006Y53396176D01*
X113959665Y53540335D01*
X114103824Y53715994D01*
X114210944Y53916401D01*
X114276908Y54133855D01*
X114299181Y54360000D01*
X114283029Y54524002D01*
X114526400Y54524002D01*
X114526400Y54195998D01*
X114611412Y54195998D01*
X114577831Y54019389D01*
X114659794Y53821492D01*
X114784455Y53632807D01*
X114943531Y53472068D01*
X115130909Y53345451D01*
X115339388Y53257823D01*
X115516000Y53290609D01*
X115516000Y54196000D01*
X115496000Y54196000D01*
X115496000Y54524000D01*
X115516000Y54524000D01*
X115516000Y55429391D01*
X115844000Y55429391D01*
X115844000Y54524000D01*
X115864000Y54524000D01*
X115864000Y54196000D01*
X115844000Y54196000D01*
X115844000Y53290609D01*
X116020612Y53257823D01*
X116229091Y53345451D01*
X116416469Y53472068D01*
X116575545Y53632807D01*
X116700206Y53821492D01*
X116782169Y54019389D01*
X116748588Y54195998D01*
X116833600Y54195998D01*
X116833600Y54360000D01*
X117060819Y54360000D01*
X117083092Y54133855D01*
X117149056Y53916401D01*
X117256176Y53715994D01*
X117400335Y53540335D01*
X117575994Y53396176D01*
X117776401Y53289056D01*
X117993855Y53223092D01*
X118163334Y53206400D01*
X118276666Y53206400D01*
X118446145Y53223092D01*
X118663599Y53289056D01*
X118864006Y53396176D01*
X119039665Y53540335D01*
X119183824Y53715994D01*
X119290944Y53916401D01*
X119356908Y54133855D01*
X119379181Y54360000D01*
X119600819Y54360000D01*
X119623092Y54133855D01*
X119689056Y53916401D01*
X119796176Y53715994D01*
X119940335Y53540335D01*
X120115994Y53396176D01*
X120316401Y53289056D01*
X120533855Y53223092D01*
X120703334Y53206400D01*
X120816666Y53206400D01*
X120986145Y53223092D01*
X121203599Y53289056D01*
X121404006Y53396176D01*
X121579665Y53540335D01*
X121723824Y53715994D01*
X121830944Y53916401D01*
X121896908Y54133855D01*
X121919181Y54360000D01*
X121903029Y54524002D01*
X122146400Y54524002D01*
X122146400Y54195998D01*
X122231412Y54195998D01*
X122197831Y54019389D01*
X122279794Y53821492D01*
X122404455Y53632807D01*
X122563531Y53472068D01*
X122750909Y53345451D01*
X122959388Y53257823D01*
X123136000Y53290609D01*
X123136000Y54196000D01*
X123116000Y54196000D01*
X123116000Y54524000D01*
X123136000Y54524000D01*
X123136000Y55429391D01*
X123464000Y55429391D01*
X123464000Y54524000D01*
X123484000Y54524000D01*
X123484000Y54196000D01*
X123464000Y54196000D01*
X123464000Y53290609D01*
X123640612Y53257823D01*
X123849091Y53345451D01*
X124036469Y53472068D01*
X124195545Y53632807D01*
X124320206Y53821492D01*
X124402169Y54019389D01*
X124368588Y54195998D01*
X124453600Y54195998D01*
X124453600Y54360000D01*
X124680819Y54360000D01*
X124703092Y54133855D01*
X124769056Y53916401D01*
X124876176Y53715994D01*
X125020335Y53540335D01*
X125195994Y53396176D01*
X125396401Y53289056D01*
X125613855Y53223092D01*
X125783334Y53206400D01*
X125896666Y53206400D01*
X126066145Y53223092D01*
X126283599Y53289056D01*
X126484006Y53396176D01*
X126659665Y53540335D01*
X126803824Y53715994D01*
X126910944Y53916401D01*
X126976908Y54133855D01*
X126999181Y54360000D01*
X127220819Y54360000D01*
X127243092Y54133855D01*
X127309056Y53916401D01*
X127416176Y53715994D01*
X127560335Y53540335D01*
X127735994Y53396176D01*
X127936401Y53289056D01*
X128153855Y53223092D01*
X128323334Y53206400D01*
X128436666Y53206400D01*
X128606145Y53223092D01*
X128823599Y53289056D01*
X129024006Y53396176D01*
X129199665Y53540335D01*
X129343824Y53715994D01*
X129450944Y53916401D01*
X129516908Y54133855D01*
X129539181Y54360000D01*
X129523029Y54524002D01*
X129766400Y54524002D01*
X129766400Y54195998D01*
X129851412Y54195998D01*
X129817831Y54019389D01*
X129899794Y53821492D01*
X130024455Y53632807D01*
X130183531Y53472068D01*
X130370909Y53345451D01*
X130579388Y53257823D01*
X130756000Y53290609D01*
X130756000Y54196000D01*
X130736000Y54196000D01*
X130736000Y54524000D01*
X130756000Y54524000D01*
X130756000Y55429391D01*
X131084000Y55429391D01*
X131084000Y54524000D01*
X131104000Y54524000D01*
X131104000Y54196000D01*
X131084000Y54196000D01*
X131084000Y53290609D01*
X131260612Y53257823D01*
X131469091Y53345451D01*
X131656469Y53472068D01*
X131815545Y53632807D01*
X131940206Y53821492D01*
X132022169Y54019389D01*
X131988588Y54195998D01*
X132073600Y54195998D01*
X132073600Y54360000D01*
X132300819Y54360000D01*
X132323092Y54133855D01*
X132389056Y53916401D01*
X132496176Y53715994D01*
X132640335Y53540335D01*
X132815994Y53396176D01*
X133016401Y53289056D01*
X133233855Y53223092D01*
X133403334Y53206400D01*
X133516666Y53206400D01*
X133686145Y53223092D01*
X133903599Y53289056D01*
X134104006Y53396176D01*
X134279665Y53540335D01*
X134423824Y53715994D01*
X134530944Y53916401D01*
X134596908Y54133855D01*
X134619181Y54360000D01*
X134840819Y54360000D01*
X134863092Y54133855D01*
X134929056Y53916401D01*
X135036176Y53715994D01*
X135180335Y53540335D01*
X135355994Y53396176D01*
X135556401Y53289056D01*
X135773855Y53223092D01*
X135943334Y53206400D01*
X136056666Y53206400D01*
X136226145Y53223092D01*
X136443599Y53289056D01*
X136644006Y53396176D01*
X136819665Y53540335D01*
X136963824Y53715994D01*
X137070944Y53916401D01*
X137136908Y54133855D01*
X137159181Y54360000D01*
X145560819Y54360000D01*
X145583092Y54133855D01*
X145649056Y53916401D01*
X145756176Y53715994D01*
X145900335Y53540335D01*
X146075994Y53396176D01*
X146276401Y53289056D01*
X146493855Y53223092D01*
X146663334Y53206400D01*
X146776666Y53206400D01*
X146946145Y53223092D01*
X147163599Y53289056D01*
X147364006Y53396176D01*
X147539665Y53540335D01*
X147683824Y53715994D01*
X147790944Y53916401D01*
X147822185Y54019389D01*
X148157831Y54019389D01*
X148239794Y53821492D01*
X148364455Y53632807D01*
X148523531Y53472068D01*
X148710909Y53345451D01*
X148919388Y53257823D01*
X149096000Y53290609D01*
X149096000Y54196000D01*
X148191412Y54196000D01*
X148157831Y54019389D01*
X147822185Y54019389D01*
X147856908Y54133855D01*
X147879181Y54360000D01*
X147856908Y54586145D01*
X147822186Y54700611D01*
X148157831Y54700611D01*
X148191412Y54524000D01*
X149096000Y54524000D01*
X149096000Y55429391D01*
X148919388Y55462177D01*
X148710909Y55374549D01*
X148523531Y55247932D01*
X148364455Y55087193D01*
X148239794Y54898508D01*
X148157831Y54700611D01*
X147822186Y54700611D01*
X147790944Y54803599D01*
X147683824Y55004006D01*
X147539665Y55179665D01*
X147364006Y55323824D01*
X147163599Y55430944D01*
X146946145Y55496908D01*
X146776666Y55513600D01*
X146663334Y55513600D01*
X146493855Y55496908D01*
X146276401Y55430944D01*
X146075994Y55323824D01*
X145900335Y55179665D01*
X145756176Y55004006D01*
X145649056Y54803599D01*
X145583092Y54586145D01*
X145560819Y54360000D01*
X137159181Y54360000D01*
X137136908Y54586145D01*
X137070944Y54803599D01*
X136963824Y55004006D01*
X136819665Y55179665D01*
X136644006Y55323824D01*
X136443599Y55430944D01*
X136226145Y55496908D01*
X136056666Y55513600D01*
X135943334Y55513600D01*
X135773855Y55496908D01*
X135556401Y55430944D01*
X135355994Y55323824D01*
X135180335Y55179665D01*
X135036176Y55004006D01*
X134929056Y54803599D01*
X134863092Y54586145D01*
X134840819Y54360000D01*
X134619181Y54360000D01*
X134596908Y54586145D01*
X134530944Y54803599D01*
X134423824Y55004006D01*
X134279665Y55179665D01*
X134104006Y55323824D01*
X133903599Y55430944D01*
X133686145Y55496908D01*
X133516666Y55513600D01*
X133403334Y55513600D01*
X133233855Y55496908D01*
X133016401Y55430944D01*
X132815994Y55323824D01*
X132640335Y55179665D01*
X132496176Y55004006D01*
X132389056Y54803599D01*
X132323092Y54586145D01*
X132300819Y54360000D01*
X132073600Y54360000D01*
X132073600Y54524002D01*
X131988588Y54524002D01*
X132022169Y54700611D01*
X131940206Y54898508D01*
X131815545Y55087193D01*
X131656469Y55247932D01*
X131469091Y55374549D01*
X131260612Y55462177D01*
X131084000Y55429391D01*
X130756000Y55429391D01*
X130579388Y55462177D01*
X130370909Y55374549D01*
X130183531Y55247932D01*
X130024455Y55087193D01*
X129899794Y54898508D01*
X129817831Y54700611D01*
X129851412Y54524002D01*
X129766400Y54524002D01*
X129523029Y54524002D01*
X129516908Y54586145D01*
X129450944Y54803599D01*
X129343824Y55004006D01*
X129199665Y55179665D01*
X129024006Y55323824D01*
X128823599Y55430944D01*
X128606145Y55496908D01*
X128436666Y55513600D01*
X128323334Y55513600D01*
X128153855Y55496908D01*
X127936401Y55430944D01*
X127735994Y55323824D01*
X127560335Y55179665D01*
X127416176Y55004006D01*
X127309056Y54803599D01*
X127243092Y54586145D01*
X127220819Y54360000D01*
X126999181Y54360000D01*
X126976908Y54586145D01*
X126910944Y54803599D01*
X126803824Y55004006D01*
X126659665Y55179665D01*
X126484006Y55323824D01*
X126283599Y55430944D01*
X126066145Y55496908D01*
X125896666Y55513600D01*
X125783334Y55513600D01*
X125613855Y55496908D01*
X125396401Y55430944D01*
X125195994Y55323824D01*
X125020335Y55179665D01*
X124876176Y55004006D01*
X124769056Y54803599D01*
X124703092Y54586145D01*
X124680819Y54360000D01*
X124453600Y54360000D01*
X124453600Y54524002D01*
X124368588Y54524002D01*
X124402169Y54700611D01*
X124320206Y54898508D01*
X124195545Y55087193D01*
X124036469Y55247932D01*
X123849091Y55374549D01*
X123640612Y55462177D01*
X123464000Y55429391D01*
X123136000Y55429391D01*
X122959388Y55462177D01*
X122750909Y55374549D01*
X122563531Y55247932D01*
X122404455Y55087193D01*
X122279794Y54898508D01*
X122197831Y54700611D01*
X122231412Y54524002D01*
X122146400Y54524002D01*
X121903029Y54524002D01*
X121896908Y54586145D01*
X121830944Y54803599D01*
X121723824Y55004006D01*
X121579665Y55179665D01*
X121404006Y55323824D01*
X121203599Y55430944D01*
X120986145Y55496908D01*
X120816666Y55513600D01*
X120703334Y55513600D01*
X120533855Y55496908D01*
X120316401Y55430944D01*
X120115994Y55323824D01*
X119940335Y55179665D01*
X119796176Y55004006D01*
X119689056Y54803599D01*
X119623092Y54586145D01*
X119600819Y54360000D01*
X119379181Y54360000D01*
X119356908Y54586145D01*
X119290944Y54803599D01*
X119183824Y55004006D01*
X119039665Y55179665D01*
X118864006Y55323824D01*
X118663599Y55430944D01*
X118446145Y55496908D01*
X118276666Y55513600D01*
X118163334Y55513600D01*
X117993855Y55496908D01*
X117776401Y55430944D01*
X117575994Y55323824D01*
X117400335Y55179665D01*
X117256176Y55004006D01*
X117149056Y54803599D01*
X117083092Y54586145D01*
X117060819Y54360000D01*
X116833600Y54360000D01*
X116833600Y54524002D01*
X116748588Y54524002D01*
X116782169Y54700611D01*
X116700206Y54898508D01*
X116575545Y55087193D01*
X116416469Y55247932D01*
X116229091Y55374549D01*
X116020612Y55462177D01*
X115844000Y55429391D01*
X115516000Y55429391D01*
X115339388Y55462177D01*
X115130909Y55374549D01*
X114943531Y55247932D01*
X114784455Y55087193D01*
X114659794Y54898508D01*
X114577831Y54700611D01*
X114611412Y54524002D01*
X114526400Y54524002D01*
X114283029Y54524002D01*
X114276908Y54586145D01*
X114210944Y54803599D01*
X114103824Y55004006D01*
X113959665Y55179665D01*
X113784006Y55323824D01*
X113583599Y55430944D01*
X113366145Y55496908D01*
X113196666Y55513600D01*
X113083334Y55513600D01*
X112913855Y55496908D01*
X112696401Y55430944D01*
X112495994Y55323824D01*
X112320335Y55179665D01*
X112176176Y55004006D01*
X112069056Y54803599D01*
X112003092Y54586145D01*
X111980819Y54360000D01*
X111759181Y54360000D01*
X111736908Y54586145D01*
X111670944Y54803599D01*
X111563824Y55004006D01*
X111419665Y55179665D01*
X111244006Y55323824D01*
X111043599Y55430944D01*
X110826145Y55496908D01*
X110656666Y55513600D01*
X110543334Y55513600D01*
X110373855Y55496908D01*
X110156401Y55430944D01*
X110107003Y55404540D01*
X109725720Y55785823D01*
X109713505Y55800707D01*
X109654120Y55849443D01*
X109586368Y55885657D01*
X109512852Y55907958D01*
X109455558Y55913601D01*
X109436399Y55915488D01*
X109417240Y55913601D01*
X108661771Y55913601D01*
X108704006Y55936176D01*
X108879665Y56080335D01*
X109023824Y56255994D01*
X109130944Y56456401D01*
X109196908Y56673855D01*
X109219181Y56900000D01*
X109203029Y57064002D01*
X109446400Y57064002D01*
X109446400Y56735998D01*
X109531412Y56735998D01*
X109497831Y56559389D01*
X109579794Y56361492D01*
X109704455Y56172807D01*
X109863531Y56012068D01*
X110050909Y55885451D01*
X110259388Y55797823D01*
X110436000Y55830609D01*
X110436000Y56736000D01*
X110416000Y56736000D01*
X110416000Y57064000D01*
X110436000Y57064000D01*
X110436000Y57969391D01*
X110764000Y57969391D01*
X110764000Y57064000D01*
X110784000Y57064000D01*
X110784000Y56736000D01*
X110764000Y56736000D01*
X110764000Y55830609D01*
X110940612Y55797823D01*
X111149091Y55885451D01*
X111336469Y56012068D01*
X111495545Y56172807D01*
X111620206Y56361492D01*
X111702169Y56559389D01*
X111668588Y56735998D01*
X111753600Y56735998D01*
X111753600Y56900000D01*
X111980819Y56900000D01*
X112003092Y56673855D01*
X112069056Y56456401D01*
X112176176Y56255994D01*
X112320335Y56080335D01*
X112495994Y55936176D01*
X112696401Y55829056D01*
X112913855Y55763092D01*
X113083334Y55746400D01*
X113196666Y55746400D01*
X113366145Y55763092D01*
X113583599Y55829056D01*
X113784006Y55936176D01*
X113959665Y56080335D01*
X114103824Y56255994D01*
X114210944Y56456401D01*
X114276908Y56673855D01*
X114299181Y56900000D01*
X114520819Y56900000D01*
X114543092Y56673855D01*
X114609056Y56456401D01*
X114716176Y56255994D01*
X114860335Y56080335D01*
X115035994Y55936176D01*
X115236401Y55829056D01*
X115453855Y55763092D01*
X115623334Y55746400D01*
X115736666Y55746400D01*
X115906145Y55763092D01*
X116123599Y55829056D01*
X116324006Y55936176D01*
X116499665Y56080335D01*
X116643824Y56255994D01*
X116750944Y56456401D01*
X116816908Y56673855D01*
X116839181Y56900000D01*
X116823029Y57064002D01*
X117066400Y57064002D01*
X117066400Y56735998D01*
X117151412Y56735998D01*
X117117831Y56559389D01*
X117199794Y56361492D01*
X117324455Y56172807D01*
X117483531Y56012068D01*
X117670909Y55885451D01*
X117879388Y55797823D01*
X118056000Y55830609D01*
X118056000Y56736000D01*
X118036000Y56736000D01*
X118036000Y57064000D01*
X118056000Y57064000D01*
X118056000Y57969391D01*
X118384000Y57969391D01*
X118384000Y57064000D01*
X118404000Y57064000D01*
X118404000Y56736000D01*
X118384000Y56736000D01*
X118384000Y55830609D01*
X118560612Y55797823D01*
X118769091Y55885451D01*
X118956469Y56012068D01*
X119115545Y56172807D01*
X119240206Y56361492D01*
X119322169Y56559389D01*
X119288588Y56735998D01*
X119373600Y56735998D01*
X119373600Y56900000D01*
X119600819Y56900000D01*
X119623092Y56673855D01*
X119689056Y56456401D01*
X119796176Y56255994D01*
X119940335Y56080335D01*
X120115994Y55936176D01*
X120316401Y55829056D01*
X120533855Y55763092D01*
X120703334Y55746400D01*
X120816666Y55746400D01*
X120986145Y55763092D01*
X121203599Y55829056D01*
X121404006Y55936176D01*
X121579665Y56080335D01*
X121723824Y56255994D01*
X121830944Y56456401D01*
X121896908Y56673855D01*
X121919181Y56900000D01*
X122140819Y56900000D01*
X122163092Y56673855D01*
X122229056Y56456401D01*
X122336176Y56255994D01*
X122480335Y56080335D01*
X122655994Y55936176D01*
X122856401Y55829056D01*
X123073855Y55763092D01*
X123243334Y55746400D01*
X123356666Y55746400D01*
X123526145Y55763092D01*
X123743599Y55829056D01*
X123944006Y55936176D01*
X124119665Y56080335D01*
X124263824Y56255994D01*
X124370944Y56456401D01*
X124436908Y56673855D01*
X124459181Y56900000D01*
X124443029Y57064002D01*
X124686400Y57064002D01*
X124686400Y56735998D01*
X124771412Y56735998D01*
X124737831Y56559389D01*
X124819794Y56361492D01*
X124944455Y56172807D01*
X125103531Y56012068D01*
X125290909Y55885451D01*
X125499388Y55797823D01*
X125676000Y55830609D01*
X125676000Y56736000D01*
X125656000Y56736000D01*
X125656000Y57064000D01*
X125676000Y57064000D01*
X125676000Y57969391D01*
X126004000Y57969391D01*
X126004000Y57064000D01*
X126024000Y57064000D01*
X126024000Y56736000D01*
X126004000Y56736000D01*
X126004000Y55830609D01*
X126180612Y55797823D01*
X126389091Y55885451D01*
X126576469Y56012068D01*
X126735545Y56172807D01*
X126860206Y56361492D01*
X126942169Y56559389D01*
X126908588Y56735998D01*
X126993600Y56735998D01*
X126993600Y56900000D01*
X127220819Y56900000D01*
X127243092Y56673855D01*
X127309056Y56456401D01*
X127416176Y56255994D01*
X127560335Y56080335D01*
X127735994Y55936176D01*
X127936401Y55829056D01*
X128153855Y55763092D01*
X128323334Y55746400D01*
X128436666Y55746400D01*
X128606145Y55763092D01*
X128823599Y55829056D01*
X129024006Y55936176D01*
X129199665Y56080335D01*
X129343824Y56255994D01*
X129450944Y56456401D01*
X129516908Y56673855D01*
X129539181Y56900000D01*
X129760819Y56900000D01*
X129783092Y56673855D01*
X129849056Y56456401D01*
X129956176Y56255994D01*
X130100335Y56080335D01*
X130275994Y55936176D01*
X130476401Y55829056D01*
X130693855Y55763092D01*
X130863334Y55746400D01*
X130976666Y55746400D01*
X131146145Y55763092D01*
X131363599Y55829056D01*
X131564006Y55936176D01*
X131739665Y56080335D01*
X131883824Y56255994D01*
X131990944Y56456401D01*
X132022185Y56559389D01*
X132357831Y56559389D01*
X132439794Y56361492D01*
X132564455Y56172807D01*
X132723531Y56012068D01*
X132910909Y55885451D01*
X133119388Y55797823D01*
X133296000Y55830609D01*
X133296000Y56736000D01*
X133624000Y56736000D01*
X133624000Y55830609D01*
X133800612Y55797823D01*
X134009091Y55885451D01*
X134196469Y56012068D01*
X134355545Y56172807D01*
X134480206Y56361492D01*
X134562169Y56559389D01*
X134528588Y56736000D01*
X133624000Y56736000D01*
X133296000Y56736000D01*
X132391412Y56736000D01*
X132357831Y56559389D01*
X132022185Y56559389D01*
X132056908Y56673855D01*
X132079181Y56900000D01*
X132056908Y57126145D01*
X132022186Y57240611D01*
X132357831Y57240611D01*
X132391412Y57064000D01*
X133296000Y57064000D01*
X133296000Y57969391D01*
X133624000Y57969391D01*
X133624000Y57064000D01*
X134528588Y57064000D01*
X134562169Y57240611D01*
X134480206Y57438508D01*
X134355545Y57627193D01*
X134220550Y57763600D01*
X134844997Y57763600D01*
X134844997Y56036400D01*
X134850596Y55979550D01*
X134867179Y55924885D01*
X134894107Y55874505D01*
X134930347Y55830347D01*
X134974505Y55794107D01*
X135024885Y55767179D01*
X135079550Y55750596D01*
X135136400Y55744997D01*
X136863600Y55744997D01*
X136920450Y55750596D01*
X136975115Y55767179D01*
X137025495Y55794107D01*
X137069653Y55830347D01*
X137105893Y55874505D01*
X137132821Y55924885D01*
X137149404Y55979550D01*
X137155003Y56036400D01*
X137155003Y56900000D01*
X145560819Y56900000D01*
X145583092Y56673855D01*
X145649056Y56456401D01*
X145756176Y56255994D01*
X145900335Y56080335D01*
X146075994Y55936176D01*
X146276401Y55829056D01*
X146493855Y55763092D01*
X146663334Y55746400D01*
X146776666Y55746400D01*
X146946145Y55763092D01*
X147163599Y55829056D01*
X147364006Y55936176D01*
X147539665Y56080335D01*
X147683824Y56255994D01*
X147790944Y56456401D01*
X147856908Y56673855D01*
X147879181Y56900000D01*
X147856908Y57126145D01*
X147790944Y57343599D01*
X147683824Y57544006D01*
X147539665Y57719665D01*
X147364006Y57863824D01*
X147163599Y57970944D01*
X146946145Y58036908D01*
X146776666Y58053600D01*
X146663334Y58053600D01*
X146493855Y58036908D01*
X146276401Y57970944D01*
X146075994Y57863824D01*
X145900335Y57719665D01*
X145756176Y57544006D01*
X145649056Y57343599D01*
X145583092Y57126145D01*
X145560819Y56900000D01*
X137155003Y56900000D01*
X137155003Y57763600D01*
X137149404Y57820450D01*
X137132821Y57875115D01*
X137105893Y57925495D01*
X137069653Y57969653D01*
X137025495Y58005893D01*
X136975115Y58032821D01*
X136920450Y58049404D01*
X136863600Y58055003D01*
X135136400Y58055003D01*
X135079550Y58049404D01*
X135024885Y58032821D01*
X134974505Y58005893D01*
X134930347Y57969653D01*
X134894107Y57925495D01*
X134867179Y57875115D01*
X134850596Y57820450D01*
X134844997Y57763600D01*
X134220550Y57763600D01*
X134196469Y57787932D01*
X134009091Y57914549D01*
X133800612Y58002177D01*
X133624000Y57969391D01*
X133296000Y57969391D01*
X133119388Y58002177D01*
X132910909Y57914549D01*
X132723531Y57787932D01*
X132564455Y57627193D01*
X132439794Y57438508D01*
X132357831Y57240611D01*
X132022186Y57240611D01*
X131990944Y57343599D01*
X131883824Y57544006D01*
X131739665Y57719665D01*
X131564006Y57863824D01*
X131363599Y57970944D01*
X131146145Y58036908D01*
X130976666Y58053600D01*
X130863334Y58053600D01*
X130693855Y58036908D01*
X130476401Y57970944D01*
X130275994Y57863824D01*
X130100335Y57719665D01*
X129956176Y57544006D01*
X129849056Y57343599D01*
X129783092Y57126145D01*
X129760819Y56900000D01*
X129539181Y56900000D01*
X129516908Y57126145D01*
X129450944Y57343599D01*
X129343824Y57544006D01*
X129199665Y57719665D01*
X129024006Y57863824D01*
X128823599Y57970944D01*
X128606145Y58036908D01*
X128436666Y58053600D01*
X128323334Y58053600D01*
X128153855Y58036908D01*
X127936401Y57970944D01*
X127735994Y57863824D01*
X127560335Y57719665D01*
X127416176Y57544006D01*
X127309056Y57343599D01*
X127243092Y57126145D01*
X127220819Y56900000D01*
X126993600Y56900000D01*
X126993600Y57064002D01*
X126908588Y57064002D01*
X126942169Y57240611D01*
X126860206Y57438508D01*
X126735545Y57627193D01*
X126576469Y57787932D01*
X126389091Y57914549D01*
X126180612Y58002177D01*
X126004000Y57969391D01*
X125676000Y57969391D01*
X125499388Y58002177D01*
X125290909Y57914549D01*
X125103531Y57787932D01*
X124944455Y57627193D01*
X124819794Y57438508D01*
X124737831Y57240611D01*
X124771412Y57064002D01*
X124686400Y57064002D01*
X124443029Y57064002D01*
X124436908Y57126145D01*
X124370944Y57343599D01*
X124263824Y57544006D01*
X124119665Y57719665D01*
X123944006Y57863824D01*
X123743599Y57970944D01*
X123526145Y58036908D01*
X123356666Y58053600D01*
X123243334Y58053600D01*
X123073855Y58036908D01*
X122856401Y57970944D01*
X122655994Y57863824D01*
X122480335Y57719665D01*
X122336176Y57544006D01*
X122229056Y57343599D01*
X122163092Y57126145D01*
X122140819Y56900000D01*
X121919181Y56900000D01*
X121896908Y57126145D01*
X121830944Y57343599D01*
X121723824Y57544006D01*
X121579665Y57719665D01*
X121404006Y57863824D01*
X121203599Y57970944D01*
X120986145Y58036908D01*
X120816666Y58053600D01*
X120703334Y58053600D01*
X120533855Y58036908D01*
X120316401Y57970944D01*
X120115994Y57863824D01*
X119940335Y57719665D01*
X119796176Y57544006D01*
X119689056Y57343599D01*
X119623092Y57126145D01*
X119600819Y56900000D01*
X119373600Y56900000D01*
X119373600Y57064002D01*
X119288588Y57064002D01*
X119322169Y57240611D01*
X119240206Y57438508D01*
X119115545Y57627193D01*
X118956469Y57787932D01*
X118769091Y57914549D01*
X118560612Y58002177D01*
X118384000Y57969391D01*
X118056000Y57969391D01*
X117879388Y58002177D01*
X117670909Y57914549D01*
X117483531Y57787932D01*
X117324455Y57627193D01*
X117199794Y57438508D01*
X117117831Y57240611D01*
X117151412Y57064002D01*
X117066400Y57064002D01*
X116823029Y57064002D01*
X116816908Y57126145D01*
X116750944Y57343599D01*
X116643824Y57544006D01*
X116499665Y57719665D01*
X116324006Y57863824D01*
X116123599Y57970944D01*
X115906145Y58036908D01*
X115736666Y58053600D01*
X115623334Y58053600D01*
X115453855Y58036908D01*
X115236401Y57970944D01*
X115035994Y57863824D01*
X114860335Y57719665D01*
X114716176Y57544006D01*
X114609056Y57343599D01*
X114543092Y57126145D01*
X114520819Y56900000D01*
X114299181Y56900000D01*
X114276908Y57126145D01*
X114210944Y57343599D01*
X114103824Y57544006D01*
X113959665Y57719665D01*
X113784006Y57863824D01*
X113583599Y57970944D01*
X113366145Y58036908D01*
X113196666Y58053600D01*
X113083334Y58053600D01*
X112913855Y58036908D01*
X112696401Y57970944D01*
X112495994Y57863824D01*
X112320335Y57719665D01*
X112176176Y57544006D01*
X112069056Y57343599D01*
X112003092Y57126145D01*
X111980819Y56900000D01*
X111753600Y56900000D01*
X111753600Y57064002D01*
X111668588Y57064002D01*
X111702169Y57240611D01*
X111620206Y57438508D01*
X111495545Y57627193D01*
X111336469Y57787932D01*
X111149091Y57914549D01*
X110940612Y58002177D01*
X110764000Y57969391D01*
X110436000Y57969391D01*
X110259388Y58002177D01*
X110050909Y57914549D01*
X109863531Y57787932D01*
X109704455Y57627193D01*
X109579794Y57438508D01*
X109497831Y57240611D01*
X109531412Y57064002D01*
X109446400Y57064002D01*
X109203029Y57064002D01*
X109196908Y57126145D01*
X109130944Y57343599D01*
X109023824Y57544006D01*
X108879665Y57719665D01*
X108704006Y57863824D01*
X108503599Y57970944D01*
X108286145Y58036908D01*
X108116666Y58053600D01*
X108003334Y58053600D01*
X107833855Y58036908D01*
X107742383Y58009160D01*
X107686409Y58065134D01*
X107686409Y69834866D01*
X107861544Y70010000D01*
X109230841Y70010000D01*
X109250000Y70008113D01*
X109326453Y70015643D01*
X109360074Y70025842D01*
X109399969Y70037944D01*
X109467721Y70074158D01*
X109527106Y70122894D01*
X109539321Y70137778D01*
X109960140Y70558597D01*
X110700000Y70558597D01*
X110756850Y70564196D01*
X110811515Y70580779D01*
X110861895Y70607707D01*
X110906053Y70643947D01*
X110942293Y70688105D01*
X110969221Y70738485D01*
X110985804Y70793150D01*
X110991403Y70850000D01*
X110991403Y72150000D01*
X110985804Y72206850D01*
X110969221Y72261515D01*
X110942293Y72311895D01*
X110906053Y72356053D01*
X110861895Y72392293D01*
X110811515Y72419221D01*
X110756850Y72435804D01*
X110700000Y72441403D01*
X109700000Y72441403D01*
X109643150Y72435804D01*
X109588485Y72419221D01*
X109538105Y72392293D01*
X109493947Y72356053D01*
X109457707Y72311895D01*
X109430779Y72261515D01*
X109414196Y72206850D01*
X109408597Y72150000D01*
X109408597Y71110140D01*
X109088457Y70790000D01*
X108984848Y70790000D01*
X108985804Y70793150D01*
X108991403Y70850000D01*
X108991403Y72150000D01*
X108985804Y72206850D01*
X108969221Y72261515D01*
X108942293Y72311895D01*
X108906053Y72356053D01*
X108861895Y72392293D01*
X108811515Y72419221D01*
X108756850Y72435804D01*
X108700000Y72441403D01*
X108590000Y72441403D01*
X108590000Y72489400D01*
X108801044Y72576817D01*
X109012327Y72717991D01*
X109192009Y72897673D01*
X109333183Y73108956D01*
X109430426Y73343721D01*
X109480000Y73592946D01*
X109480000Y73827356D01*
X110910000Y73827356D01*
X110910000Y73612644D01*
X110951888Y73402059D01*
X111034055Y73203691D01*
X111153342Y73025166D01*
X111305166Y72873342D01*
X111483691Y72754055D01*
X111610000Y72701736D01*
X111610000Y72441403D01*
X111500000Y72441403D01*
X111443150Y72435804D01*
X111388485Y72419221D01*
X111338105Y72392293D01*
X111293947Y72356053D01*
X111257707Y72311895D01*
X111230779Y72261515D01*
X111214196Y72206850D01*
X111208597Y72150000D01*
X111208597Y70850000D01*
X111214196Y70793150D01*
X111230779Y70738485D01*
X111257707Y70688105D01*
X111293947Y70643947D01*
X111338105Y70607707D01*
X111388485Y70580779D01*
X111443150Y70564196D01*
X111500000Y70558597D01*
X112500000Y70558597D01*
X112556850Y70564196D01*
X112611515Y70580779D01*
X112661895Y70607707D01*
X112706053Y70643947D01*
X112742293Y70688105D01*
X112769221Y70738485D01*
X112785804Y70793150D01*
X112791403Y70850000D01*
X112791403Y71100000D01*
X129058597Y71100000D01*
X129058597Y70100000D01*
X129064196Y70043150D01*
X129080779Y69988485D01*
X129107707Y69938105D01*
X129143947Y69893947D01*
X129188105Y69857707D01*
X129238485Y69830779D01*
X129293150Y69814196D01*
X129350000Y69808597D01*
X130650000Y69808597D01*
X130706850Y69814196D01*
X130761515Y69830779D01*
X130811895Y69857707D01*
X130856053Y69893947D01*
X130892293Y69938105D01*
X130919221Y69988485D01*
X130935804Y70043150D01*
X130941403Y70100000D01*
X130941403Y70210000D01*
X131058597Y70210000D01*
X131058597Y70100000D01*
X131064196Y70043150D01*
X131080779Y69988485D01*
X131107707Y69938105D01*
X131143947Y69893947D01*
X131188105Y69857707D01*
X131238485Y69830779D01*
X131293150Y69814196D01*
X131350000Y69808597D01*
X132650000Y69808597D01*
X132706850Y69814196D01*
X132761515Y69830779D01*
X132811895Y69857707D01*
X132856053Y69893947D01*
X132892293Y69938105D01*
X132919221Y69988485D01*
X132935804Y70043150D01*
X132941403Y70100000D01*
X132941403Y70210000D01*
X133058597Y70210000D01*
X133058597Y70100000D01*
X133064196Y70043150D01*
X133080779Y69988485D01*
X133107707Y69938105D01*
X133143947Y69893947D01*
X133188105Y69857707D01*
X133238485Y69830779D01*
X133293150Y69814196D01*
X133350000Y69808597D01*
X134389860Y69808597D01*
X134760679Y69437778D01*
X134772894Y69422894D01*
X134832279Y69374158D01*
X134900031Y69337944D01*
X134973547Y69315643D01*
X135030841Y69310000D01*
X135030850Y69310000D01*
X135049999Y69308114D01*
X135069148Y69310000D01*
X140322759Y69310000D01*
X148870001Y60762757D01*
X148870000Y57987203D01*
X148816401Y57970944D01*
X148615994Y57863824D01*
X148440335Y57719665D01*
X148296176Y57544006D01*
X148189056Y57343599D01*
X148123092Y57126145D01*
X148100819Y56900000D01*
X148123092Y56673855D01*
X148189056Y56456401D01*
X148296176Y56255994D01*
X148440335Y56080335D01*
X148615994Y55936176D01*
X148816401Y55829056D01*
X149033855Y55763092D01*
X149203334Y55746400D01*
X149316666Y55746400D01*
X149486145Y55763092D01*
X149633592Y55807819D01*
X149633592Y55589879D01*
X149631704Y55570711D01*
X149639234Y55494258D01*
X149656032Y55438883D01*
X149600612Y55462177D01*
X149424000Y55429391D01*
X149424000Y54524000D01*
X149444000Y54524000D01*
X149444000Y54196000D01*
X149424000Y54196000D01*
X149424000Y53290609D01*
X149600612Y53257823D01*
X149809091Y53345451D01*
X149996469Y53472068D01*
X150155545Y53632807D01*
X150247427Y53771878D01*
X150252042Y53725018D01*
X150274343Y53651503D01*
X150310558Y53583750D01*
X150347080Y53539247D01*
X150347084Y53539243D01*
X150359294Y53524365D01*
X150374172Y53512155D01*
X150952154Y52934172D01*
X150964365Y52919293D01*
X150979243Y52907083D01*
X150979246Y52907080D01*
X151011671Y52880470D01*
X151023750Y52870557D01*
X151091502Y52834343D01*
X151165017Y52812042D01*
X151241470Y52804512D01*
X151260629Y52806399D01*
X153157240Y52806399D01*
X153176399Y52804512D01*
X153252852Y52812042D01*
X153326368Y52834343D01*
X153394120Y52870557D01*
X153453505Y52919293D01*
X153465720Y52934177D01*
X153847003Y53315460D01*
X153896401Y53289056D01*
X154113855Y53223092D01*
X154283334Y53206400D01*
X154396666Y53206400D01*
X154566145Y53223092D01*
X154783599Y53289056D01*
X154984006Y53396176D01*
X155159665Y53540335D01*
X155303824Y53715994D01*
X155410944Y53916401D01*
X155442185Y54019389D01*
X155777831Y54019389D01*
X155859794Y53821492D01*
X155984455Y53632807D01*
X156143531Y53472068D01*
X156330909Y53345451D01*
X156539388Y53257823D01*
X156716000Y53290609D01*
X156716000Y54196000D01*
X155811412Y54196000D01*
X155777831Y54019389D01*
X155442185Y54019389D01*
X155476908Y54133855D01*
X155499181Y54360000D01*
X155476908Y54586145D01*
X155442186Y54700611D01*
X155777831Y54700611D01*
X155811412Y54524000D01*
X156716000Y54524000D01*
X156716000Y55429391D01*
X156539388Y55462177D01*
X156330909Y55374549D01*
X156143531Y55247932D01*
X155984455Y55087193D01*
X155859794Y54898508D01*
X155777831Y54700611D01*
X155442186Y54700611D01*
X155410944Y54803599D01*
X155384540Y54852997D01*
X156387003Y55855460D01*
X156436401Y55829056D01*
X156653855Y55763092D01*
X156823334Y55746400D01*
X156936666Y55746400D01*
X157106145Y55763092D01*
X157253592Y55807819D01*
X157253592Y55589879D01*
X157251704Y55570711D01*
X157259234Y55494258D01*
X157276032Y55438883D01*
X157220612Y55462177D01*
X157044000Y55429391D01*
X157044000Y54524000D01*
X157064000Y54524000D01*
X157064000Y54196000D01*
X157044000Y54196000D01*
X157044000Y53290609D01*
X157220612Y53257823D01*
X157429091Y53345451D01*
X157616469Y53472068D01*
X157775545Y53632807D01*
X157867427Y53771878D01*
X157872042Y53725018D01*
X157894343Y53651503D01*
X157930558Y53583750D01*
X157967080Y53539247D01*
X157967084Y53539243D01*
X157979294Y53524365D01*
X157994172Y53512155D01*
X158572154Y52934172D01*
X158584365Y52919293D01*
X158599243Y52907083D01*
X158599246Y52907080D01*
X158631671Y52880470D01*
X158643750Y52870557D01*
X158711502Y52834343D01*
X158785017Y52812042D01*
X158861470Y52804512D01*
X158880629Y52806399D01*
X160777240Y52806399D01*
X160796399Y52804512D01*
X160872852Y52812042D01*
X160946368Y52834343D01*
X161014120Y52870557D01*
X161073505Y52919293D01*
X161085720Y52934177D01*
X161467003Y53315460D01*
X161516401Y53289056D01*
X161733855Y53223092D01*
X161903334Y53206400D01*
X162016666Y53206400D01*
X162186145Y53223092D01*
X162403599Y53289056D01*
X162604006Y53396176D01*
X162779665Y53540335D01*
X162923824Y53715994D01*
X163030944Y53916401D01*
X163062185Y54019389D01*
X163397831Y54019389D01*
X163479794Y53821492D01*
X163604455Y53632807D01*
X163763531Y53472068D01*
X163950909Y53345451D01*
X164159388Y53257823D01*
X164336000Y53290609D01*
X164336000Y54196000D01*
X164664000Y54196000D01*
X164664000Y53290609D01*
X164840612Y53257823D01*
X165049091Y53345451D01*
X165236469Y53472068D01*
X165395545Y53632807D01*
X165520206Y53821492D01*
X165602169Y54019389D01*
X165568588Y54196000D01*
X164664000Y54196000D01*
X164336000Y54196000D01*
X163431412Y54196000D01*
X163397831Y54019389D01*
X163062185Y54019389D01*
X163096908Y54133855D01*
X163119181Y54360000D01*
X163096908Y54586145D01*
X163062186Y54700611D01*
X163397831Y54700611D01*
X163431412Y54524000D01*
X164336000Y54524000D01*
X164336000Y55429391D01*
X164664000Y55429391D01*
X164664000Y54524000D01*
X165568588Y54524000D01*
X165602169Y54700611D01*
X165520206Y54898508D01*
X165395545Y55087193D01*
X165236469Y55247932D01*
X165049091Y55374549D01*
X164840612Y55462177D01*
X164664000Y55429391D01*
X164336000Y55429391D01*
X164159388Y55462177D01*
X163950909Y55374549D01*
X163763531Y55247932D01*
X163604455Y55087193D01*
X163479794Y54898508D01*
X163397831Y54700611D01*
X163062186Y54700611D01*
X163030944Y54803599D01*
X162923824Y55004006D01*
X162779665Y55179665D01*
X162604006Y55323824D01*
X162403599Y55430944D01*
X162186145Y55496908D01*
X162016666Y55513600D01*
X161903334Y55513600D01*
X161733855Y55496908D01*
X161516401Y55430944D01*
X161315994Y55323824D01*
X161140335Y55179665D01*
X160996176Y55004006D01*
X160889056Y54803599D01*
X160823092Y54586145D01*
X160800819Y54360000D01*
X160823092Y54133855D01*
X160889056Y53916401D01*
X160915460Y53867003D01*
X160634856Y53586399D01*
X160277469Y53586399D01*
X160383824Y53715994D01*
X160490944Y53916401D01*
X160556908Y54133855D01*
X160579181Y54360000D01*
X160556908Y54586145D01*
X160490944Y54803599D01*
X160464540Y54852997D01*
X161467003Y55855460D01*
X161516401Y55829056D01*
X161733855Y55763092D01*
X161903334Y55746400D01*
X162016666Y55746400D01*
X162186145Y55763092D01*
X162403599Y55829056D01*
X162604006Y55936176D01*
X162779665Y56080335D01*
X162923824Y56255994D01*
X163030944Y56456401D01*
X163062185Y56559389D01*
X163397831Y56559389D01*
X163479794Y56361492D01*
X163604455Y56172807D01*
X163763531Y56012068D01*
X163950909Y55885451D01*
X164159388Y55797823D01*
X164336000Y55830609D01*
X164336000Y56736000D01*
X163431412Y56736000D01*
X163397831Y56559389D01*
X163062185Y56559389D01*
X163096908Y56673855D01*
X163119181Y56900000D01*
X163096908Y57126145D01*
X163030944Y57343599D01*
X162923824Y57544006D01*
X162779665Y57719665D01*
X162604006Y57863824D01*
X162403599Y57970944D01*
X162186145Y58036908D01*
X162016666Y58053600D01*
X161903334Y58053600D01*
X161733855Y58036908D01*
X161516401Y57970944D01*
X161315994Y57863824D01*
X161140335Y57719665D01*
X160996176Y57544006D01*
X160889056Y57343599D01*
X160823092Y57126145D01*
X160800819Y56900000D01*
X160823092Y56673855D01*
X160889056Y56456401D01*
X160915460Y56407003D01*
X159912997Y55404540D01*
X159863599Y55430944D01*
X159646145Y55496908D01*
X159476666Y55513600D01*
X159363334Y55513600D01*
X159193855Y55496908D01*
X158976401Y55430944D01*
X158927003Y55404540D01*
X158433601Y55897942D01*
X158433601Y56310322D01*
X158524455Y56172807D01*
X158683531Y56012068D01*
X158870909Y55885451D01*
X159079388Y55797823D01*
X159256000Y55830609D01*
X159256000Y56736000D01*
X159584000Y56736000D01*
X159584000Y55830609D01*
X159760612Y55797823D01*
X159969091Y55885451D01*
X160156469Y56012068D01*
X160315545Y56172807D01*
X160440206Y56361492D01*
X160522169Y56559389D01*
X160488588Y56736000D01*
X159584000Y56736000D01*
X159256000Y56736000D01*
X159236000Y56736000D01*
X159236000Y57064000D01*
X159256000Y57064000D01*
X159256000Y57969391D01*
X159584000Y57969391D01*
X159584000Y57064000D01*
X160488588Y57064000D01*
X160522169Y57240611D01*
X160440206Y57438508D01*
X160315545Y57627193D01*
X160156469Y57787932D01*
X159969091Y57914549D01*
X159760612Y58002177D01*
X159584000Y57969391D01*
X159256000Y57969391D01*
X159079388Y58002177D01*
X158870909Y57914549D01*
X158683531Y57787932D01*
X158524455Y57627193D01*
X158432573Y57488122D01*
X158427958Y57534983D01*
X158405657Y57608498D01*
X158388088Y57641367D01*
X158369443Y57676250D01*
X158338869Y57713505D01*
X158332920Y57720754D01*
X158332917Y57720757D01*
X158320707Y57735635D01*
X158305828Y57747846D01*
X157727850Y58325823D01*
X157715635Y58340707D01*
X157656250Y58389443D01*
X157588498Y58425657D01*
X157514982Y58447958D01*
X157457688Y58453601D01*
X157438529Y58455488D01*
X157419370Y58453601D01*
X155522760Y58453601D01*
X155503601Y58455488D01*
X155427147Y58447958D01*
X155353632Y58425657D01*
X155285880Y58389443D01*
X155255839Y58364789D01*
X155241376Y58352920D01*
X155241373Y58352917D01*
X155226495Y58340707D01*
X155214284Y58325828D01*
X154941374Y58052917D01*
X154832997Y57944540D01*
X154783599Y57970944D01*
X154566145Y58036908D01*
X154396666Y58053600D01*
X154283334Y58053600D01*
X154113855Y58036908D01*
X153896401Y57970944D01*
X153695994Y57863824D01*
X153520335Y57719665D01*
X153376176Y57544006D01*
X153269056Y57343599D01*
X153203092Y57126145D01*
X153180819Y56900000D01*
X153203092Y56673855D01*
X153269056Y56456401D01*
X153295460Y56407003D01*
X152292997Y55404540D01*
X152243599Y55430944D01*
X152026145Y55496908D01*
X151856666Y55513600D01*
X151743334Y55513600D01*
X151573855Y55496908D01*
X151356401Y55430944D01*
X151307003Y55404540D01*
X151225723Y55485821D01*
X151225720Y55485824D01*
X150898623Y55812920D01*
X150813601Y55897942D01*
X150813601Y56310322D01*
X150904455Y56172807D01*
X151063531Y56012068D01*
X151250909Y55885451D01*
X151459388Y55797823D01*
X151636000Y55830609D01*
X151636000Y56736000D01*
X151964000Y56736000D01*
X151964000Y55830609D01*
X152140612Y55797823D01*
X152349091Y55885451D01*
X152536469Y56012068D01*
X152695545Y56172807D01*
X152820206Y56361492D01*
X152902169Y56559389D01*
X152868588Y56736000D01*
X151964000Y56736000D01*
X151636000Y56736000D01*
X151616000Y56736000D01*
X151616000Y57064000D01*
X151636000Y57064000D01*
X151636000Y57969391D01*
X151964000Y57969391D01*
X151964000Y57064000D01*
X152868588Y57064000D01*
X152902169Y57240611D01*
X152820206Y57438508D01*
X152695545Y57627193D01*
X152536469Y57787932D01*
X152349091Y57914549D01*
X152140612Y58002177D01*
X151964000Y57969391D01*
X151636000Y57969391D01*
X151459388Y58002177D01*
X151250909Y57914549D01*
X151063531Y57787932D01*
X150904455Y57627193D01*
X150813601Y57489678D01*
X150813601Y60307240D01*
X150815488Y60326399D01*
X150807958Y60402852D01*
X150785657Y60476368D01*
X150749443Y60544120D01*
X150700707Y60603505D01*
X150685829Y60615715D01*
X140941403Y70360140D01*
X140941403Y71100000D01*
X140935804Y71156850D01*
X140919221Y71211515D01*
X140892293Y71261895D01*
X140856053Y71306053D01*
X140811895Y71342293D01*
X140761515Y71369221D01*
X140706850Y71385804D01*
X140650000Y71391403D01*
X139350000Y71391403D01*
X139293150Y71385804D01*
X139238485Y71369221D01*
X139188105Y71342293D01*
X139143947Y71306053D01*
X139107707Y71261895D01*
X139080779Y71211515D01*
X139064196Y71156850D01*
X139058597Y71100000D01*
X139058597Y70990000D01*
X138941403Y70990000D01*
X138941403Y71100000D01*
X138935804Y71156850D01*
X138919221Y71211515D01*
X138892293Y71261895D01*
X138856053Y71306053D01*
X138811895Y71342293D01*
X138761515Y71369221D01*
X138706850Y71385804D01*
X138650000Y71391403D01*
X137350000Y71391403D01*
X137293150Y71385804D01*
X137238485Y71369221D01*
X137188105Y71342293D01*
X137143947Y71306053D01*
X137107707Y71261895D01*
X137080779Y71211515D01*
X137064196Y71156850D01*
X137058597Y71100000D01*
X137058597Y70990000D01*
X136941403Y70990000D01*
X136941403Y71100000D01*
X136935804Y71156850D01*
X136919221Y71211515D01*
X136892293Y71261895D01*
X136856053Y71306053D01*
X136811895Y71342293D01*
X136761515Y71369221D01*
X136706850Y71385804D01*
X136650000Y71391403D01*
X135350000Y71391403D01*
X135293150Y71385804D01*
X135238485Y71369221D01*
X135188105Y71342293D01*
X135143947Y71306053D01*
X135107707Y71261895D01*
X135080779Y71211515D01*
X135064196Y71156850D01*
X135058597Y71100000D01*
X135058597Y70242946D01*
X134941403Y70360140D01*
X134941403Y71100000D01*
X134935804Y71156850D01*
X134919221Y71211515D01*
X134892293Y71261895D01*
X134856053Y71306053D01*
X134811895Y71342293D01*
X134761515Y71369221D01*
X134706850Y71385804D01*
X134650000Y71391403D01*
X133350000Y71391403D01*
X133293150Y71385804D01*
X133238485Y71369221D01*
X133188105Y71342293D01*
X133143947Y71306053D01*
X133107707Y71261895D01*
X133080779Y71211515D01*
X133064196Y71156850D01*
X133058597Y71100000D01*
X133058597Y70990000D01*
X132941403Y70990000D01*
X132941403Y71100000D01*
X132935804Y71156850D01*
X132919221Y71211515D01*
X132892293Y71261895D01*
X132856053Y71306053D01*
X132811895Y71342293D01*
X132761515Y71369221D01*
X132706850Y71385804D01*
X132650000Y71391403D01*
X131350000Y71391403D01*
X131293150Y71385804D01*
X131238485Y71369221D01*
X131188105Y71342293D01*
X131143947Y71306053D01*
X131107707Y71261895D01*
X131080779Y71211515D01*
X131064196Y71156850D01*
X131058597Y71100000D01*
X131058597Y70990000D01*
X130941403Y70990000D01*
X130941403Y71100000D01*
X130935804Y71156850D01*
X130919221Y71211515D01*
X130892293Y71261895D01*
X130856053Y71306053D01*
X130811895Y71342293D01*
X130761515Y71369221D01*
X130706850Y71385804D01*
X130650000Y71391403D01*
X129350000Y71391403D01*
X129293150Y71385804D01*
X129238485Y71369221D01*
X129188105Y71342293D01*
X129143947Y71306053D01*
X129107707Y71261895D01*
X129080779Y71211515D01*
X129064196Y71156850D01*
X129058597Y71100000D01*
X112791403Y71100000D01*
X112791403Y72150000D01*
X112785804Y72206850D01*
X112769221Y72261515D01*
X112742293Y72311895D01*
X112706053Y72356053D01*
X112661895Y72392293D01*
X112611515Y72419221D01*
X112556850Y72435804D01*
X112500000Y72441403D01*
X112390000Y72441403D01*
X112390000Y72701736D01*
X112498127Y72746524D01*
X115068455Y72746524D01*
X115186889Y72583348D01*
X115420611Y72483626D01*
X115669298Y72431416D01*
X115923391Y72428726D01*
X116173128Y72475659D01*
X116408910Y72570411D01*
X116433111Y72583348D01*
X116551545Y72746524D01*
X116398069Y72900000D01*
X131058597Y72900000D01*
X131058597Y71900000D01*
X131064196Y71843150D01*
X131080779Y71788485D01*
X131107707Y71738105D01*
X131143947Y71693947D01*
X131188105Y71657707D01*
X131238485Y71630779D01*
X131293150Y71614196D01*
X131350000Y71608597D01*
X132650000Y71608597D01*
X132706850Y71614196D01*
X132761515Y71630779D01*
X132811895Y71657707D01*
X132856053Y71693947D01*
X132892293Y71738105D01*
X132919221Y71788485D01*
X132935804Y71843150D01*
X132941403Y71900000D01*
X132941403Y72639860D01*
X133201543Y72900000D01*
X137058597Y72900000D01*
X137058597Y71900000D01*
X137064196Y71843150D01*
X137080779Y71788485D01*
X137107707Y71738105D01*
X137143947Y71693947D01*
X137188105Y71657707D01*
X137238485Y71630779D01*
X137293150Y71614196D01*
X137350000Y71608597D01*
X138650000Y71608597D01*
X138706850Y71614196D01*
X138761515Y71630779D01*
X138811895Y71657707D01*
X138856053Y71693947D01*
X138892293Y71738105D01*
X138919221Y71788485D01*
X138935804Y71843150D01*
X138941403Y71900000D01*
X138941403Y72900000D01*
X138935804Y72956850D01*
X138919221Y73011515D01*
X138892293Y73061895D01*
X138856053Y73106053D01*
X138811895Y73142293D01*
X138761515Y73169221D01*
X138706850Y73185804D01*
X138650000Y73191403D01*
X138390000Y73191403D01*
X138390000Y76942684D01*
X138433721Y76924574D01*
X138682946Y76875000D01*
X138937054Y76875000D01*
X139186279Y76924574D01*
X139421044Y77021817D01*
X139632327Y77162991D01*
X139812009Y77342673D01*
X139953183Y77553956D01*
X140050426Y77788721D01*
X140100000Y78037946D01*
X140100000Y78292054D01*
X140050426Y78541279D01*
X139953183Y78776044D01*
X139812009Y78987327D01*
X139632327Y79167009D01*
X139433291Y79300000D01*
X154758597Y79300000D01*
X154758597Y78300000D01*
X154764196Y78243150D01*
X154780779Y78188485D01*
X154807707Y78138105D01*
X154843947Y78093947D01*
X154888105Y78057707D01*
X154938485Y78030779D01*
X154993150Y78014196D01*
X155050000Y78008597D01*
X156350000Y78008597D01*
X156406850Y78014196D01*
X156461515Y78030779D01*
X156511895Y78057707D01*
X156556053Y78093947D01*
X156592293Y78138105D01*
X156619221Y78188485D01*
X156635804Y78243150D01*
X156641403Y78300000D01*
X156641403Y78410000D01*
X156758597Y78410000D01*
X156758597Y78300000D01*
X156764196Y78243150D01*
X156780779Y78188485D01*
X156807707Y78138105D01*
X156843947Y78093947D01*
X156888105Y78057707D01*
X156938485Y78030779D01*
X156993150Y78014196D01*
X157050000Y78008597D01*
X158350000Y78008597D01*
X158406850Y78014196D01*
X158461515Y78030779D01*
X158511895Y78057707D01*
X158556053Y78093947D01*
X158592293Y78138105D01*
X158619221Y78188485D01*
X158635804Y78243150D01*
X158641403Y78300000D01*
X158641403Y78410000D01*
X158758597Y78410000D01*
X158758597Y78300000D01*
X158764196Y78243150D01*
X158780779Y78188485D01*
X158807707Y78138105D01*
X158843947Y78093947D01*
X158888105Y78057707D01*
X158938485Y78030779D01*
X158993150Y78014196D01*
X159050000Y78008597D01*
X159310000Y78008597D01*
X159310000Y77280842D01*
X159310001Y77280832D01*
X159310000Y63419159D01*
X159308113Y63400000D01*
X159310000Y63380842D01*
X159315643Y63323548D01*
X159337944Y63250032D01*
X159374158Y63182280D01*
X159422894Y63122894D01*
X159437778Y63110679D01*
X164494857Y58053600D01*
X164335998Y58053600D01*
X164335998Y57969391D01*
X164159388Y58002177D01*
X163950909Y57914549D01*
X163763531Y57787932D01*
X163604455Y57627193D01*
X163479794Y57438508D01*
X163397831Y57240611D01*
X163431412Y57064000D01*
X164336000Y57064000D01*
X164336000Y57084000D01*
X164664000Y57084000D01*
X164664000Y57064000D01*
X164684000Y57064000D01*
X164684000Y56736000D01*
X164664000Y56736000D01*
X164664000Y55830609D01*
X164840612Y55797823D01*
X165049091Y55885451D01*
X165236469Y56012068D01*
X165273601Y56049588D01*
X165273601Y55755558D01*
X165271714Y55736399D01*
X165279244Y55659946D01*
X165295015Y55607956D01*
X165301545Y55586431D01*
X165337759Y55518679D01*
X165386495Y55459293D01*
X165401379Y55447078D01*
X165995460Y54852997D01*
X165969056Y54803599D01*
X165903092Y54586145D01*
X165880819Y54360000D01*
X165903092Y54133855D01*
X165969056Y53916401D01*
X166076176Y53715994D01*
X166220335Y53540335D01*
X166395994Y53396176D01*
X166596401Y53289056D01*
X166813855Y53223092D01*
X166983334Y53206400D01*
X167096666Y53206400D01*
X167266145Y53223092D01*
X167483599Y53289056D01*
X167684006Y53396176D01*
X167859665Y53540335D01*
X168003824Y53715994D01*
X168110944Y53916401D01*
X168142185Y54019389D01*
X168477831Y54019389D01*
X168559794Y53821492D01*
X168684455Y53632807D01*
X168843531Y53472068D01*
X169030909Y53345451D01*
X169239388Y53257823D01*
X169416000Y53290609D01*
X169416000Y54196000D01*
X169744000Y54196000D01*
X169744000Y53290609D01*
X169920612Y53257823D01*
X170129091Y53345451D01*
X170316469Y53472068D01*
X170475545Y53632807D01*
X170600206Y53821492D01*
X170682169Y54019389D01*
X171017831Y54019389D01*
X171099794Y53821492D01*
X171224455Y53632807D01*
X171383531Y53472068D01*
X171570909Y53345451D01*
X171779388Y53257823D01*
X171956000Y53290609D01*
X171956000Y54196000D01*
X172284000Y54196000D01*
X172284000Y53290609D01*
X172460612Y53257823D01*
X172669091Y53345451D01*
X172856469Y53472068D01*
X173015545Y53632807D01*
X173140206Y53821492D01*
X173222169Y54019389D01*
X173188588Y54196000D01*
X172284000Y54196000D01*
X171956000Y54196000D01*
X171051412Y54196000D01*
X171017831Y54019389D01*
X170682169Y54019389D01*
X170648588Y54196000D01*
X169744000Y54196000D01*
X169416000Y54196000D01*
X168511412Y54196000D01*
X168477831Y54019389D01*
X168142185Y54019389D01*
X168176908Y54133855D01*
X168199181Y54360000D01*
X168176908Y54586145D01*
X168142186Y54700611D01*
X168477831Y54700611D01*
X168511412Y54524000D01*
X169416000Y54524000D01*
X169416000Y55429391D01*
X169744000Y55429391D01*
X169744000Y54524000D01*
X170648588Y54524000D01*
X170682169Y54700611D01*
X170600206Y54898508D01*
X170475545Y55087193D01*
X170316469Y55247932D01*
X170129091Y55374549D01*
X169920612Y55462177D01*
X169744000Y55429391D01*
X169416000Y55429391D01*
X169239388Y55462177D01*
X169030909Y55374549D01*
X168843531Y55247932D01*
X168684455Y55087193D01*
X168559794Y54898508D01*
X168477831Y54700611D01*
X168142186Y54700611D01*
X168110944Y54803599D01*
X168084540Y54852997D01*
X169087003Y55855460D01*
X169136401Y55829056D01*
X169353855Y55763092D01*
X169523334Y55746400D01*
X169636666Y55746400D01*
X169806145Y55763092D01*
X170023599Y55829056D01*
X170072997Y55855460D01*
X170667083Y55261373D01*
X170679293Y55246495D01*
X170694171Y55234285D01*
X170694174Y55234282D01*
X170707192Y55223599D01*
X170738678Y55197759D01*
X170806430Y55161545D01*
X170879946Y55139244D01*
X170937240Y55133601D01*
X170937249Y55133601D01*
X170956398Y55131715D01*
X170975547Y55133601D01*
X171270383Y55133601D01*
X171224455Y55087193D01*
X171099794Y54898508D01*
X171017831Y54700611D01*
X171051412Y54524000D01*
X171956000Y54524000D01*
X171956000Y54544000D01*
X172284000Y54544000D01*
X172284000Y54524000D01*
X173188588Y54524000D01*
X173222169Y54700611D01*
X173140206Y54898508D01*
X173015545Y55087193D01*
X172969617Y55133601D01*
X173334856Y55133601D01*
X173534176Y54934280D01*
X173534182Y54934275D01*
X173615460Y54852997D01*
X173589056Y54803599D01*
X173523092Y54586145D01*
X173500819Y54360000D01*
X173523092Y54133855D01*
X173589056Y53916401D01*
X173696176Y53715994D01*
X173840335Y53540335D01*
X174015994Y53396176D01*
X174216401Y53289056D01*
X174433855Y53223092D01*
X174603334Y53206400D01*
X174716666Y53206400D01*
X174886145Y53223092D01*
X175103599Y53289056D01*
X175304006Y53396176D01*
X175479665Y53540335D01*
X175623824Y53715994D01*
X175730944Y53916401D01*
X175762185Y54019389D01*
X176097831Y54019389D01*
X176179794Y53821492D01*
X176304455Y53632807D01*
X176463531Y53472068D01*
X176650909Y53345451D01*
X176859388Y53257823D01*
X177036000Y53290609D01*
X177036000Y54196000D01*
X177364000Y54196000D01*
X177364000Y53290609D01*
X177540612Y53257823D01*
X177749091Y53345451D01*
X177936469Y53472068D01*
X178095545Y53632807D01*
X178220206Y53821492D01*
X178302169Y54019389D01*
X178268588Y54196000D01*
X177364000Y54196000D01*
X177036000Y54196000D01*
X176131412Y54196000D01*
X176097831Y54019389D01*
X175762185Y54019389D01*
X175796908Y54133855D01*
X175819181Y54360000D01*
X175796908Y54586145D01*
X175762186Y54700611D01*
X176097831Y54700611D01*
X176131412Y54524000D01*
X177036000Y54524000D01*
X177036000Y55429391D01*
X177364000Y55429391D01*
X177364000Y54524000D01*
X178268588Y54524000D01*
X178302169Y54700611D01*
X178220206Y54898508D01*
X178095545Y55087193D01*
X177936469Y55247932D01*
X177749091Y55374549D01*
X177540612Y55462177D01*
X177364000Y55429391D01*
X177036000Y55429391D01*
X176859388Y55462177D01*
X176650909Y55374549D01*
X176463531Y55247932D01*
X176304455Y55087193D01*
X176179794Y54898508D01*
X176097831Y54700611D01*
X175762186Y54700611D01*
X175730944Y54803599D01*
X175704540Y54852997D01*
X176596540Y55744997D01*
X178063600Y55744997D01*
X178120450Y55750596D01*
X178175115Y55767179D01*
X178225495Y55794107D01*
X178269653Y55830347D01*
X178305893Y55874505D01*
X178332821Y55924885D01*
X178349404Y55979550D01*
X178355003Y56036400D01*
X178355003Y57763600D01*
X178349404Y57820450D01*
X178332821Y57875115D01*
X178305893Y57925495D01*
X178269653Y57969653D01*
X178225495Y58005893D01*
X178175115Y58032821D01*
X178120450Y58049404D01*
X178063600Y58055003D01*
X176336400Y58055003D01*
X176279550Y58049404D01*
X176224885Y58032821D01*
X176174505Y58005893D01*
X176130347Y57969653D01*
X176094107Y57925495D01*
X176067179Y57875115D01*
X176050596Y57820450D01*
X176044997Y57763600D01*
X176044997Y56296540D01*
X175152997Y55404540D01*
X175103599Y55430944D01*
X174886145Y55496908D01*
X174716666Y55513600D01*
X174603334Y55513600D01*
X174433855Y55496908D01*
X174216401Y55430944D01*
X174167003Y55404540D01*
X174085725Y55485818D01*
X174085720Y55485824D01*
X173785720Y55785824D01*
X173773505Y55800707D01*
X173714120Y55849443D01*
X173646368Y55885657D01*
X173572852Y55907958D01*
X173515558Y55913601D01*
X173496399Y55915488D01*
X173477240Y55913601D01*
X172710750Y55913601D01*
X172856469Y56012068D01*
X173015545Y56172807D01*
X173140206Y56361492D01*
X173222169Y56559389D01*
X173557831Y56559389D01*
X173639794Y56361492D01*
X173764455Y56172807D01*
X173923531Y56012068D01*
X174110909Y55885451D01*
X174319388Y55797823D01*
X174496000Y55830609D01*
X174496000Y56736000D01*
X174824000Y56736000D01*
X174824000Y55830609D01*
X175000612Y55797823D01*
X175209091Y55885451D01*
X175396469Y56012068D01*
X175555545Y56172807D01*
X175680206Y56361492D01*
X175762169Y56559389D01*
X175728588Y56736000D01*
X174824000Y56736000D01*
X174496000Y56736000D01*
X173591412Y56736000D01*
X173557831Y56559389D01*
X173222169Y56559389D01*
X173188588Y56736000D01*
X172284000Y56736000D01*
X172284000Y56716000D01*
X171956000Y56716000D01*
X171956000Y56736000D01*
X171051412Y56736000D01*
X171017831Y56559389D01*
X171099794Y56361492D01*
X171224455Y56172807D01*
X171383531Y56012068D01*
X171529250Y55913601D01*
X171117943Y55913601D01*
X170624540Y56407003D01*
X170650944Y56456401D01*
X170716908Y56673855D01*
X170739181Y56900000D01*
X170716908Y57126145D01*
X170682186Y57240611D01*
X171017831Y57240611D01*
X171051412Y57064000D01*
X171956000Y57064000D01*
X171956000Y57969391D01*
X172284000Y57969391D01*
X172284000Y57064000D01*
X173188588Y57064000D01*
X173222169Y57240611D01*
X173557831Y57240611D01*
X173591412Y57064000D01*
X174496000Y57064000D01*
X174496000Y57969391D01*
X174824000Y57969391D01*
X174824000Y57064000D01*
X175728588Y57064000D01*
X175762169Y57240611D01*
X175680206Y57438508D01*
X175555545Y57627193D01*
X175396469Y57787932D01*
X175209091Y57914549D01*
X175000612Y58002177D01*
X174824000Y57969391D01*
X174496000Y57969391D01*
X174319388Y58002177D01*
X174110909Y57914549D01*
X173923531Y57787932D01*
X173764455Y57627193D01*
X173639794Y57438508D01*
X173557831Y57240611D01*
X173222169Y57240611D01*
X173140206Y57438508D01*
X173015545Y57627193D01*
X172856469Y57787932D01*
X172669091Y57914549D01*
X172460612Y58002177D01*
X172284000Y57969391D01*
X171956000Y57969391D01*
X171779388Y58002177D01*
X171570909Y57914549D01*
X171383531Y57787932D01*
X171224455Y57627193D01*
X171099794Y57438508D01*
X171017831Y57240611D01*
X170682186Y57240611D01*
X170650944Y57343599D01*
X170543824Y57544006D01*
X170399665Y57719665D01*
X170224006Y57863824D01*
X170023599Y57970944D01*
X169806145Y58036908D01*
X169636666Y58053600D01*
X169523334Y58053600D01*
X169353855Y58036908D01*
X169136401Y57970944D01*
X168935994Y57863824D01*
X168760335Y57719665D01*
X168616176Y57544006D01*
X168509056Y57343599D01*
X168443092Y57126145D01*
X168420819Y56900000D01*
X168443092Y56673855D01*
X168509056Y56456401D01*
X168535460Y56407003D01*
X167532997Y55404540D01*
X167483599Y55430944D01*
X167266145Y55496908D01*
X167096666Y55513600D01*
X166983334Y55513600D01*
X166813855Y55496908D01*
X166596401Y55430944D01*
X166547003Y55404540D01*
X166053601Y55897942D01*
X166053601Y56310322D01*
X166144455Y56172807D01*
X166303531Y56012068D01*
X166490909Y55885451D01*
X166699388Y55797823D01*
X166876000Y55830609D01*
X166876000Y56736000D01*
X167204000Y56736000D01*
X167204000Y55830609D01*
X167380612Y55797823D01*
X167589091Y55885451D01*
X167776469Y56012068D01*
X167935545Y56172807D01*
X168060206Y56361492D01*
X168142169Y56559389D01*
X168108588Y56736000D01*
X167204000Y56736000D01*
X166876000Y56736000D01*
X166856000Y56736000D01*
X166856000Y57064000D01*
X166876000Y57064000D01*
X166876000Y57969391D01*
X167204000Y57969391D01*
X167204000Y57064000D01*
X168108588Y57064000D01*
X168142169Y57240611D01*
X168060206Y57438508D01*
X167935545Y57627193D01*
X167776469Y57787932D01*
X167589091Y57914549D01*
X167380612Y58002177D01*
X167204000Y57969391D01*
X166876000Y57969391D01*
X166699388Y58002177D01*
X166490909Y57914549D01*
X166303531Y57787932D01*
X166144455Y57627193D01*
X166050676Y57485251D01*
X166047958Y57512852D01*
X166025657Y57586368D01*
X165989443Y57654120D01*
X165940707Y57713505D01*
X165925823Y57725720D01*
X160090000Y63561543D01*
X160090000Y78008597D01*
X160350000Y78008597D01*
X160406850Y78014196D01*
X160461515Y78030779D01*
X160511895Y78057707D01*
X160556053Y78093947D01*
X160592293Y78138105D01*
X160619221Y78188485D01*
X160635804Y78243150D01*
X160641403Y78300000D01*
X160641403Y79300000D01*
X160635804Y79356850D01*
X160619221Y79411515D01*
X160592293Y79461895D01*
X160556053Y79506053D01*
X160511895Y79542293D01*
X160461515Y79569221D01*
X160406850Y79585804D01*
X160350000Y79591403D01*
X159050000Y79591403D01*
X158993150Y79585804D01*
X158938485Y79569221D01*
X158888105Y79542293D01*
X158843947Y79506053D01*
X158807707Y79461895D01*
X158780779Y79411515D01*
X158764196Y79356850D01*
X158758597Y79300000D01*
X158758597Y79190000D01*
X158641403Y79190000D01*
X158641403Y79300000D01*
X158635804Y79356850D01*
X158619221Y79411515D01*
X158592293Y79461895D01*
X158556053Y79506053D01*
X158511895Y79542293D01*
X158461515Y79569221D01*
X158406850Y79585804D01*
X158350000Y79591403D01*
X157050000Y79591403D01*
X156993150Y79585804D01*
X156938485Y79569221D01*
X156888105Y79542293D01*
X156843947Y79506053D01*
X156807707Y79461895D01*
X156780779Y79411515D01*
X156764196Y79356850D01*
X156758597Y79300000D01*
X156758597Y79190000D01*
X156641403Y79190000D01*
X156641403Y79300000D01*
X156635804Y79356850D01*
X156619221Y79411515D01*
X156592293Y79461895D01*
X156556053Y79506053D01*
X156511895Y79542293D01*
X156461515Y79569221D01*
X156406850Y79585804D01*
X156350000Y79591403D01*
X155050000Y79591403D01*
X154993150Y79585804D01*
X154938485Y79569221D01*
X154888105Y79542293D01*
X154843947Y79506053D01*
X154807707Y79461895D01*
X154780779Y79411515D01*
X154764196Y79356850D01*
X154758597Y79300000D01*
X139433291Y79300000D01*
X139421044Y79308183D01*
X139186279Y79405426D01*
X138937054Y79455000D01*
X138682946Y79455000D01*
X138433721Y79405426D01*
X138198956Y79308183D01*
X137987673Y79167009D01*
X137807991Y78987327D01*
X137666817Y78776044D01*
X137569574Y78541279D01*
X137520000Y78292054D01*
X137520000Y78037946D01*
X137569574Y77788721D01*
X137665643Y77556789D01*
X137637944Y77504968D01*
X137615643Y77431453D01*
X137608113Y77355000D01*
X137610001Y77335831D01*
X137610000Y73191403D01*
X137350000Y73191403D01*
X137293150Y73185804D01*
X137238485Y73169221D01*
X137188105Y73142293D01*
X137143947Y73106053D01*
X137107707Y73061895D01*
X137080779Y73011515D01*
X137064196Y72956850D01*
X137058597Y72900000D01*
X133201543Y72900000D01*
X134074582Y73773039D01*
X134153342Y73655166D01*
X134305166Y73503342D01*
X134483691Y73384055D01*
X134682059Y73301888D01*
X134892644Y73260000D01*
X135107356Y73260000D01*
X135317941Y73301888D01*
X135516309Y73384055D01*
X135694834Y73503342D01*
X135846658Y73655166D01*
X135965945Y73833691D01*
X136048112Y74032059D01*
X136090000Y74242644D01*
X136090000Y74457356D01*
X136048112Y74667941D01*
X135965945Y74866309D01*
X135846658Y75044834D01*
X135694834Y75196658D01*
X135516309Y75315945D01*
X135317941Y75398112D01*
X135107356Y75440000D01*
X134892644Y75440000D01*
X134682059Y75398112D01*
X134483691Y75315945D01*
X134305166Y75196658D01*
X134153342Y75044834D01*
X134034055Y74866309D01*
X133973054Y74719040D01*
X133950031Y74712056D01*
X133882279Y74675842D01*
X133822894Y74627106D01*
X133810679Y74612222D01*
X132389860Y73191403D01*
X131350000Y73191403D01*
X131293150Y73185804D01*
X131238485Y73169221D01*
X131188105Y73142293D01*
X131143947Y73106053D01*
X131107707Y73061895D01*
X131080779Y73011515D01*
X131064196Y72956850D01*
X131058597Y72900000D01*
X116398069Y72900000D01*
X115810000Y73488069D01*
X115068455Y72746524D01*
X112498127Y72746524D01*
X112516309Y72754055D01*
X112694834Y72873342D01*
X112846658Y73025166D01*
X112965945Y73203691D01*
X113048112Y73402059D01*
X113088799Y73606609D01*
X114518726Y73606609D01*
X114565659Y73356872D01*
X114660411Y73121090D01*
X114673348Y73096889D01*
X114836524Y72978455D01*
X115578069Y73720000D01*
X116041931Y73720000D01*
X116783476Y72978455D01*
X116946652Y73096889D01*
X117046374Y73330611D01*
X117098584Y73579298D01*
X117101274Y73833391D01*
X117054341Y74083128D01*
X116959589Y74318910D01*
X116946652Y74343111D01*
X116783476Y74461545D01*
X116041931Y73720000D01*
X115578069Y73720000D01*
X114836524Y74461545D01*
X114673348Y74343111D01*
X114573626Y74109389D01*
X114521416Y73860702D01*
X114518726Y73606609D01*
X113088799Y73606609D01*
X113090000Y73612644D01*
X113090000Y73827356D01*
X113048112Y74037941D01*
X112965945Y74236309D01*
X112846658Y74414834D01*
X112694834Y74566658D01*
X112516309Y74685945D01*
X112498128Y74693476D01*
X115068455Y74693476D01*
X115810000Y73951931D01*
X116551545Y74693476D01*
X116433111Y74856652D01*
X116199389Y74956374D01*
X115950702Y75008584D01*
X115696609Y75011274D01*
X115446872Y74964341D01*
X115211090Y74869589D01*
X115186889Y74856652D01*
X115068455Y74693476D01*
X112498128Y74693476D01*
X112317941Y74768112D01*
X112107356Y74810000D01*
X111892644Y74810000D01*
X111682059Y74768112D01*
X111483691Y74685945D01*
X111305166Y74566658D01*
X111153342Y74414834D01*
X111034055Y74236309D01*
X110951888Y74037941D01*
X110910000Y73827356D01*
X109480000Y73827356D01*
X109480000Y73847054D01*
X109430426Y74096279D01*
X109333183Y74331044D01*
X109192009Y74542327D01*
X109012327Y74722009D01*
X108801044Y74863183D01*
X108566279Y74960426D01*
X108317054Y75010000D01*
X108062946Y75010000D01*
X107813721Y74960426D01*
X107578956Y74863183D01*
X107367673Y74722009D01*
X107187991Y74542327D01*
X107046817Y74331044D01*
X106949574Y74096279D01*
X106900000Y73847054D01*
X106900000Y73592946D01*
X106949574Y73343721D01*
X107046817Y73108956D01*
X107187991Y72897673D01*
X107367673Y72717991D01*
X107578956Y72576817D01*
X107810000Y72481115D01*
X107810000Y72441403D01*
X107700000Y72441403D01*
X107643150Y72435804D01*
X107588485Y72419221D01*
X107538105Y72392293D01*
X107493947Y72356053D01*
X107457707Y72311895D01*
X107430779Y72261515D01*
X107414196Y72206850D01*
X107408597Y72150000D01*
X107408597Y70850000D01*
X107414196Y70793150D01*
X107430779Y70738485D01*
X107451179Y70700319D01*
X107437775Y70689319D01*
X107437772Y70689316D01*
X107422894Y70677106D01*
X107410683Y70662227D01*
X107100000Y70351543D01*
X107049992Y70401551D01*
X107049992Y70601345D01*
X107061895Y70607707D01*
X107106053Y70643947D01*
X107142293Y70688105D01*
X107169221Y70738485D01*
X107185804Y70793150D01*
X107191403Y70850000D01*
X107191403Y72150000D01*
X107185804Y72206850D01*
X107169221Y72261515D01*
X107142293Y72311895D01*
X107106053Y72356053D01*
X107061895Y72392293D01*
X107011515Y72419221D01*
X106956850Y72435804D01*
X106900000Y72441403D01*
X105900000Y72441403D01*
X105843150Y72435804D01*
X105788485Y72419221D01*
X105738105Y72392293D01*
X105693947Y72356053D01*
X105657707Y72311895D01*
X105630779Y72261515D01*
X105614196Y72206850D01*
X105608597Y72150000D01*
X105608597Y70850000D01*
X105614196Y70793150D01*
X105630779Y70738485D01*
X105657707Y70688105D01*
X105693947Y70643947D01*
X105738105Y70607707D01*
X105788485Y70580779D01*
X105843150Y70564196D01*
X105900000Y70558597D01*
X106269992Y70558597D01*
X106269992Y70259167D01*
X106268105Y70240008D01*
X106275635Y70163555D01*
X106294915Y70100000D01*
X106297936Y70090040D01*
X106334150Y70022288D01*
X106382886Y69962902D01*
X106397770Y69950687D01*
X106506400Y69842057D01*
X106506399Y57501771D01*
X106483824Y57544006D01*
X106339665Y57719665D01*
X106164006Y57863824D01*
X105963599Y57970944D01*
X105746145Y58036908D01*
X105576666Y58053600D01*
X105463334Y58053600D01*
X105293855Y58036908D01*
X105076401Y57970944D01*
X104875994Y57863824D01*
X104700335Y57719665D01*
X104556176Y57544006D01*
X104449056Y57343599D01*
X104383092Y57126145D01*
X104360819Y56900000D01*
X100090000Y56900000D01*
X100090000Y78907356D01*
X110910000Y78907356D01*
X110910000Y78692644D01*
X110951888Y78482059D01*
X111034055Y78283691D01*
X111153342Y78105166D01*
X111305166Y77953342D01*
X111483691Y77834055D01*
X111682059Y77751888D01*
X111892644Y77710000D01*
X112107356Y77710000D01*
X112317941Y77751888D01*
X112498127Y77826524D01*
X130448455Y77826524D01*
X130566889Y77663348D01*
X130800611Y77563626D01*
X131049298Y77511416D01*
X131303391Y77508726D01*
X131553128Y77555659D01*
X131788910Y77650411D01*
X131813111Y77663348D01*
X131931545Y77826524D01*
X131190000Y78568069D01*
X130448455Y77826524D01*
X112498127Y77826524D01*
X112516309Y77834055D01*
X112694834Y77953342D01*
X112846658Y78105166D01*
X112965945Y78283691D01*
X113048112Y78482059D01*
X113088799Y78686609D01*
X129898726Y78686609D01*
X129945659Y78436872D01*
X130040411Y78201090D01*
X130053348Y78176889D01*
X130216524Y78058455D01*
X130958069Y78800000D01*
X131421931Y78800000D01*
X132163476Y78058455D01*
X132326652Y78176889D01*
X132426374Y78410611D01*
X132478584Y78659298D01*
X132481274Y78913391D01*
X132434341Y79163128D01*
X132339589Y79398910D01*
X132326652Y79423111D01*
X132163476Y79541545D01*
X131421931Y78800000D01*
X130958069Y78800000D01*
X130216524Y79541545D01*
X130053348Y79423111D01*
X129953626Y79189389D01*
X129901416Y78940702D01*
X129898726Y78686609D01*
X113088799Y78686609D01*
X113090000Y78692644D01*
X113090000Y78907356D01*
X113048112Y79117941D01*
X112965945Y79316309D01*
X112846658Y79494834D01*
X112694834Y79646658D01*
X112516309Y79765945D01*
X112498128Y79773476D01*
X130448455Y79773476D01*
X131190000Y79031931D01*
X131931545Y79773476D01*
X131813111Y79936652D01*
X131579389Y80036374D01*
X131330702Y80088584D01*
X131076609Y80091274D01*
X130826872Y80044341D01*
X130591090Y79949589D01*
X130566889Y79936652D01*
X130448455Y79773476D01*
X112498128Y79773476D01*
X112317941Y79848112D01*
X112107356Y79890000D01*
X111892644Y79890000D01*
X111682059Y79848112D01*
X111483691Y79765945D01*
X111305166Y79646658D01*
X111153342Y79494834D01*
X111034055Y79316309D01*
X110951888Y79117941D01*
X110910000Y78907356D01*
X100090000Y78907356D01*
X100090000Y82737054D01*
X114520000Y82737054D01*
X114520000Y82482946D01*
X114569574Y82233721D01*
X114666817Y81998956D01*
X114807991Y81787673D01*
X114987673Y81607991D01*
X115198956Y81466817D01*
X115433721Y81369574D01*
X115682946Y81320000D01*
X115937054Y81320000D01*
X116186279Y81369574D01*
X116421044Y81466817D01*
X116632327Y81607991D01*
X116812009Y81787673D01*
X116953183Y81998956D01*
X117050426Y82233721D01*
X117100000Y82482946D01*
X117100000Y82737054D01*
X137520000Y82737054D01*
X137520000Y82482946D01*
X137569574Y82233721D01*
X137666817Y81998956D01*
X137807991Y81787673D01*
X137987673Y81607991D01*
X138198956Y81466817D01*
X138433721Y81369574D01*
X138682946Y81320000D01*
X138937054Y81320000D01*
X139186279Y81369574D01*
X139421044Y81466817D01*
X139632327Y81607991D01*
X139812009Y81787673D01*
X139953183Y81998956D01*
X140050426Y82233721D01*
X140100000Y82482946D01*
X140100000Y82737054D01*
X140050426Y82986279D01*
X139953183Y83221044D01*
X139812009Y83432327D01*
X139632327Y83612009D01*
X139421044Y83753183D01*
X139186279Y83850426D01*
X138937054Y83900000D01*
X138682946Y83900000D01*
X138433721Y83850426D01*
X138198956Y83753183D01*
X137987673Y83612009D01*
X137807991Y83432327D01*
X137666817Y83221044D01*
X137569574Y82986279D01*
X137520000Y82737054D01*
X117100000Y82737054D01*
X117050426Y82986279D01*
X116953183Y83221044D01*
X116812009Y83432327D01*
X116632327Y83612009D01*
X116421044Y83753183D01*
X116186279Y83850426D01*
X115937054Y83900000D01*
X115682946Y83900000D01*
X115433721Y83850426D01*
X115198956Y83753183D01*
X114987673Y83612009D01*
X114807991Y83432327D01*
X114666817Y83221044D01*
X114569574Y82986279D01*
X114520000Y82737054D01*
X100090000Y82737054D01*
X100090000Y85103548D01*
X151160000Y85103548D01*
X151160001Y82496451D01*
X151175772Y82336323D01*
X151238100Y82130857D01*
X151339314Y81941498D01*
X151475525Y81775524D01*
X151641499Y81639313D01*
X151830858Y81538099D01*
X152036324Y81475771D01*
X152250000Y81454726D01*
X152463677Y81475771D01*
X152669143Y81538099D01*
X152858502Y81639313D01*
X153024476Y81775524D01*
X153160687Y81941498D01*
X153261901Y82130857D01*
X153324229Y82336323D01*
X153340000Y82496451D01*
X153340000Y85103548D01*
X158660000Y85103548D01*
X158660001Y82496451D01*
X158675772Y82336323D01*
X158738100Y82130857D01*
X158839314Y81941498D01*
X158975525Y81775524D01*
X159141499Y81639313D01*
X159310000Y81549248D01*
X159310000Y81391403D01*
X159050000Y81391403D01*
X158993150Y81385804D01*
X158938485Y81369221D01*
X158888105Y81342293D01*
X158843947Y81306053D01*
X158807707Y81261895D01*
X158780779Y81211515D01*
X158764196Y81156850D01*
X158758597Y81100000D01*
X158758597Y80100000D01*
X158764196Y80043150D01*
X158780779Y79988485D01*
X158807707Y79938105D01*
X158843947Y79893947D01*
X158888105Y79857707D01*
X158938485Y79830779D01*
X158993150Y79814196D01*
X159050000Y79808597D01*
X160350000Y79808597D01*
X160406850Y79814196D01*
X160461515Y79830779D01*
X160511895Y79857707D01*
X160556053Y79893947D01*
X160592293Y79938105D01*
X160619221Y79988485D01*
X160635804Y80043150D01*
X160641403Y80100000D01*
X160641403Y81100000D01*
X160635804Y81156850D01*
X160619221Y81211515D01*
X160592293Y81261895D01*
X160556053Y81306053D01*
X160511895Y81342293D01*
X160461515Y81369221D01*
X160406850Y81385804D01*
X160350000Y81391403D01*
X160090000Y81391403D01*
X160090000Y81514091D01*
X160169143Y81538099D01*
X160358502Y81639313D01*
X160524476Y81775524D01*
X160660687Y81941498D01*
X160761901Y82130857D01*
X160824229Y82336323D01*
X160840000Y82496451D01*
X160840000Y85103549D01*
X160824229Y85263677D01*
X160761901Y85469143D01*
X160660687Y85658502D01*
X160524476Y85824476D01*
X160358502Y85960687D01*
X160169142Y86061901D01*
X159963676Y86124229D01*
X159750000Y86145274D01*
X159536323Y86124229D01*
X159330857Y86061901D01*
X159141498Y85960687D01*
X158975524Y85824476D01*
X158839313Y85658502D01*
X158738099Y85469142D01*
X158675771Y85263676D01*
X158660000Y85103548D01*
X153340000Y85103548D01*
X153340000Y85103549D01*
X153324229Y85263677D01*
X153261901Y85469143D01*
X153160687Y85658502D01*
X153024476Y85824476D01*
X152858502Y85960687D01*
X152669142Y86061901D01*
X152463676Y86124229D01*
X152250000Y86145274D01*
X152036323Y86124229D01*
X151830857Y86061901D01*
X151641498Y85960687D01*
X151475524Y85824476D01*
X151339313Y85658502D01*
X151238099Y85469142D01*
X151175771Y85263676D01*
X151160000Y85103548D01*
X100090000Y85103548D01*
X100090000Y87817054D01*
X106900000Y87817054D01*
X106900000Y87562946D01*
X106949574Y87313721D01*
X107046817Y87078956D01*
X107187991Y86867673D01*
X107367673Y86687991D01*
X107578956Y86546817D01*
X107813721Y86449574D01*
X108062946Y86400000D01*
X108317054Y86400000D01*
X108566279Y86449574D01*
X108801044Y86546817D01*
X109012327Y86687991D01*
X109192009Y86867673D01*
X109333183Y87078956D01*
X109430426Y87313721D01*
X109480000Y87562946D01*
X109480000Y87817054D01*
X129900000Y87817054D01*
X129900000Y87562946D01*
X129949574Y87313721D01*
X130046817Y87078956D01*
X130187991Y86867673D01*
X130367673Y86687991D01*
X130578956Y86546817D01*
X130813721Y86449574D01*
X131062946Y86400000D01*
X131317054Y86400000D01*
X131566279Y86449574D01*
X131801044Y86546817D01*
X132012327Y86687991D01*
X132192009Y86867673D01*
X132333183Y87078956D01*
X132360847Y87145744D01*
X153561681Y87145744D01*
X153627864Y86947454D01*
X153757222Y86739153D01*
X153924732Y86560091D01*
X154123956Y86417149D01*
X154347239Y86315821D01*
X154586000Y86260000D01*
X155836000Y86260000D01*
X155836000Y87336000D01*
X156164000Y87336000D01*
X156164000Y86260000D01*
X157414000Y86260000D01*
X157652761Y86315821D01*
X157876044Y86417149D01*
X158075268Y86560091D01*
X158242778Y86739153D01*
X158372136Y86947454D01*
X158438319Y87145744D01*
X158405924Y87336000D01*
X156164000Y87336000D01*
X155836000Y87336000D01*
X153594076Y87336000D01*
X153561681Y87145744D01*
X132360847Y87145744D01*
X132430426Y87313721D01*
X132480000Y87562946D01*
X132480000Y87817054D01*
X132472601Y87854256D01*
X153561681Y87854256D01*
X153594076Y87664000D01*
X155836000Y87664000D01*
X155836000Y87684000D01*
X156164000Y87684000D01*
X156164000Y87664000D01*
X158405924Y87664000D01*
X158438319Y87854256D01*
X158372136Y88052546D01*
X158242778Y88260847D01*
X158075268Y88439909D01*
X157876044Y88582851D01*
X157652761Y88684179D01*
X157414000Y88740000D01*
X154586000Y88740000D01*
X154347239Y88684179D01*
X154123956Y88582851D01*
X153924732Y88439909D01*
X153757222Y88260847D01*
X153627864Y88052546D01*
X153561681Y87854256D01*
X132472601Y87854256D01*
X132430426Y88066279D01*
X132333183Y88301044D01*
X132192009Y88512327D01*
X132012327Y88692009D01*
X131801044Y88833183D01*
X131566279Y88930426D01*
X131317054Y88980000D01*
X131062946Y88980000D01*
X130813721Y88930426D01*
X130578956Y88833183D01*
X130367673Y88692009D01*
X130187991Y88512327D01*
X130046817Y88301044D01*
X129949574Y88066279D01*
X129900000Y87817054D01*
X109480000Y87817054D01*
X109430426Y88066279D01*
X109333183Y88301044D01*
X109192009Y88512327D01*
X109012327Y88692009D01*
X108801044Y88833183D01*
X108566279Y88930426D01*
X108317054Y88980000D01*
X108062946Y88980000D01*
X107813721Y88930426D01*
X107578956Y88833183D01*
X107367673Y88692009D01*
X107187991Y88512327D01*
X107046817Y88301044D01*
X106949574Y88066279D01*
X106900000Y87817054D01*
X100090000Y87817054D01*
X100090000Y89635000D01*
X161910000Y89635000D01*
X161910000Y75000000D01*
D40*
G36*
X30373000Y51402000D02*
G01*
X6402000Y51402000D01*
X6402000Y52543109D01*
X14498519Y52543109D01*
X14595843Y52268748D01*
X14744822Y52018645D01*
X14939731Y51802412D01*
X15173080Y51628359D01*
X15435901Y51503175D01*
X15583110Y51458524D01*
X15813000Y51579845D01*
X15813000Y52773000D01*
X14619186Y52773000D01*
X14498519Y52543109D01*
X6402000Y52543109D01*
X6402000Y53256891D01*
X14498519Y53256891D01*
X14619186Y53027000D01*
X15813000Y53027000D01*
X15813000Y54220155D01*
X16067000Y54220155D01*
X16067000Y53027000D01*
X16087000Y53027000D01*
X16087000Y52773000D01*
X16067000Y52773000D01*
X16067000Y51579845D01*
X16296890Y51458524D01*
X16444099Y51503175D01*
X16706920Y51628359D01*
X16940269Y51802412D01*
X17135178Y52018645D01*
X17284157Y52268748D01*
X17368986Y52507885D01*
X17387333Y52447403D01*
X17496626Y52242930D01*
X17643709Y52063709D01*
X17822930Y51916626D01*
X18027403Y51807333D01*
X18249268Y51740031D01*
X18422188Y51723000D01*
X18537812Y51723000D01*
X18710732Y51740031D01*
X18932597Y51807333D01*
X19137070Y51916626D01*
X19316291Y52063709D01*
X19463374Y52242930D01*
X19572667Y52447403D01*
X19639969Y52669268D01*
X19662694Y52900000D01*
X19837306Y52900000D01*
X19860031Y52669268D01*
X19927333Y52447403D01*
X20036626Y52242930D01*
X20183709Y52063709D01*
X20362930Y51916626D01*
X20567403Y51807333D01*
X20789268Y51740031D01*
X20962188Y51723000D01*
X21077812Y51723000D01*
X21250732Y51740031D01*
X21472597Y51807333D01*
X21677070Y51916626D01*
X21856291Y52063709D01*
X22003374Y52242930D01*
X22112667Y52447403D01*
X22179969Y52669268D01*
X22202694Y52900000D01*
X22377306Y52900000D01*
X22400031Y52669268D01*
X22467333Y52447403D01*
X22576626Y52242930D01*
X22723709Y52063709D01*
X22902930Y51916626D01*
X23107403Y51807333D01*
X23329268Y51740031D01*
X23502188Y51723000D01*
X23617812Y51723000D01*
X23790732Y51740031D01*
X24012597Y51807333D01*
X24217070Y51916626D01*
X24396291Y52063709D01*
X24543374Y52242930D01*
X24652667Y52447403D01*
X24719969Y52669268D01*
X24742694Y52900000D01*
X24719969Y53130732D01*
X24652667Y53352597D01*
X24543374Y53557070D01*
X24396291Y53736291D01*
X24379587Y53750000D01*
X24921418Y53750000D01*
X24921418Y52050000D01*
X24927732Y51985897D01*
X24946430Y51924257D01*
X24976794Y51867450D01*
X25017657Y51817657D01*
X25067450Y51776794D01*
X25124257Y51746430D01*
X25185897Y51727732D01*
X25250000Y51721418D01*
X26950000Y51721418D01*
X27014103Y51727732D01*
X27075743Y51746430D01*
X27132550Y51776794D01*
X27182343Y51817657D01*
X27223206Y51867450D01*
X27253570Y51924257D01*
X27272268Y51985897D01*
X27278582Y52050000D01*
X27278582Y53750000D01*
X27272268Y53814103D01*
X27253570Y53875743D01*
X27223206Y53932550D01*
X27182343Y53982343D01*
X27132550Y54023206D01*
X27075743Y54053570D01*
X27014103Y54072268D01*
X26950000Y54078582D01*
X25250000Y54078582D01*
X25185897Y54072268D01*
X25124257Y54053570D01*
X25067450Y54023206D01*
X25017657Y53982343D01*
X24976794Y53932550D01*
X24946430Y53875743D01*
X24927732Y53814103D01*
X24921418Y53750000D01*
X24379587Y53750000D01*
X24217070Y53883374D01*
X24012597Y53992667D01*
X23790732Y54059969D01*
X23617812Y54077000D01*
X23502188Y54077000D01*
X23329268Y54059969D01*
X23107403Y53992667D01*
X22902930Y53883374D01*
X22723709Y53736291D01*
X22576626Y53557070D01*
X22467333Y53352597D01*
X22400031Y53130732D01*
X22377306Y52900000D01*
X22202694Y52900000D01*
X22179969Y53130732D01*
X22112667Y53352597D01*
X22003374Y53557070D01*
X21856291Y53736291D01*
X21677070Y53883374D01*
X21472597Y53992667D01*
X21250732Y54059969D01*
X21077812Y54077000D01*
X20962188Y54077000D01*
X20789268Y54059969D01*
X20567403Y53992667D01*
X20362930Y53883374D01*
X20183709Y53736291D01*
X20036626Y53557070D01*
X19927333Y53352597D01*
X19860031Y53130732D01*
X19837306Y52900000D01*
X19662694Y52900000D01*
X19639969Y53130732D01*
X19572667Y53352597D01*
X19463374Y53557070D01*
X19316291Y53736291D01*
X19137070Y53883374D01*
X18932597Y53992667D01*
X18710732Y54059969D01*
X18537812Y54077000D01*
X18422188Y54077000D01*
X18249268Y54059969D01*
X18027403Y53992667D01*
X17822930Y53883374D01*
X17643709Y53736291D01*
X17496626Y53557070D01*
X17387333Y53352597D01*
X17368986Y53292115D01*
X17284157Y53531252D01*
X17135178Y53781355D01*
X16940269Y53997588D01*
X16706920Y54171641D01*
X16444099Y54296825D01*
X16296890Y54341476D01*
X16067000Y54220155D01*
X15813000Y54220155D01*
X15583110Y54341476D01*
X15435901Y54296825D01*
X15173080Y54171641D01*
X14939731Y53997588D01*
X14744822Y53781355D01*
X14595843Y53531252D01*
X14498519Y53256891D01*
X6402000Y53256891D01*
X6402000Y81606237D01*
X19611000Y81606237D01*
X19611000Y81391723D01*
X19652850Y81181330D01*
X19734941Y80983145D01*
X19854119Y80804783D01*
X20005803Y80653099D01*
X20184165Y80533921D01*
X20267289Y80499490D01*
X20184165Y80465059D01*
X20005803Y80345881D01*
X19854119Y80194197D01*
X19734941Y80015835D01*
X19652850Y79817650D01*
X19611000Y79607257D01*
X19611000Y79392743D01*
X19652850Y79182350D01*
X19734941Y78984165D01*
X19854119Y78805803D01*
X20005803Y78654119D01*
X20184165Y78534941D01*
X20382350Y78452850D01*
X20592743Y78411000D01*
X20807257Y78411000D01*
X21017650Y78452850D01*
X21215835Y78534941D01*
X21394197Y78654119D01*
X21545881Y78805803D01*
X21665059Y78984165D01*
X21747150Y79182350D01*
X21789000Y79392743D01*
X21789000Y79607257D01*
X21747150Y79817650D01*
X21665059Y80015835D01*
X21545881Y80194197D01*
X21394197Y80345881D01*
X21215835Y80465059D01*
X21132711Y80499490D01*
X21215835Y80533921D01*
X21394197Y80653099D01*
X21545881Y80804783D01*
X21665059Y80983145D01*
X21747150Y81181330D01*
X21789000Y81391723D01*
X21789000Y81606237D01*
X22151000Y81606237D01*
X22151000Y81391723D01*
X22192850Y81181330D01*
X22274941Y80983145D01*
X22394119Y80804783D01*
X22545803Y80653099D01*
X22724165Y80533921D01*
X22807289Y80499490D01*
X22724165Y80465059D01*
X22545803Y80345881D01*
X22394119Y80194197D01*
X22274941Y80015835D01*
X22192850Y79817650D01*
X22151000Y79607257D01*
X22151000Y79392743D01*
X22192850Y79182350D01*
X22274941Y78984165D01*
X22394119Y78805803D01*
X22545803Y78654119D01*
X22724165Y78534941D01*
X22922350Y78452850D01*
X23132743Y78411000D01*
X23347257Y78411000D01*
X23557650Y78452850D01*
X23755835Y78534941D01*
X23934197Y78654119D01*
X24085881Y78805803D01*
X24205059Y78984165D01*
X24287150Y79182350D01*
X24329000Y79392743D01*
X24329000Y79607257D01*
X24287150Y79817650D01*
X24205059Y80015835D01*
X24085881Y80194197D01*
X23934197Y80345881D01*
X23755835Y80465059D01*
X23672711Y80499490D01*
X23755835Y80533921D01*
X23934197Y80653099D01*
X24085881Y80804783D01*
X24205059Y80983145D01*
X24287150Y81181330D01*
X24329000Y81391723D01*
X24329000Y81606237D01*
X24287150Y81816630D01*
X24205059Y82014815D01*
X24085881Y82193177D01*
X23934197Y82344861D01*
X23755835Y82464039D01*
X23557650Y82546130D01*
X23347257Y82587980D01*
X23132743Y82587980D01*
X22922350Y82546130D01*
X22724165Y82464039D01*
X22545803Y82344861D01*
X22394119Y82193177D01*
X22274941Y82014815D01*
X22192850Y81816630D01*
X22151000Y81606237D01*
X21789000Y81606237D01*
X21747150Y81816630D01*
X21665059Y82014815D01*
X21545881Y82193177D01*
X21394197Y82344861D01*
X21215835Y82464039D01*
X21017650Y82546130D01*
X20807257Y82587980D01*
X20592743Y82587980D01*
X20382350Y82546130D01*
X20184165Y82464039D01*
X20005803Y82344861D01*
X19854119Y82193177D01*
X19734941Y82014815D01*
X19652850Y81816630D01*
X19611000Y81606237D01*
X6402000Y81606237D01*
X6402000Y85327681D01*
X6673000Y85327681D01*
X6673000Y84672319D01*
X6800855Y84029550D01*
X7051651Y83424075D01*
X7415750Y82879161D01*
X7879161Y82415750D01*
X8424075Y82051651D01*
X9029550Y81800855D01*
X9672319Y81673000D01*
X10327681Y81673000D01*
X10970450Y81800855D01*
X11575925Y82051651D01*
X12120839Y82415750D01*
X12519244Y82814155D01*
X14765280Y82814155D01*
X14903238Y82513948D01*
X15252483Y82338109D01*
X15629322Y82233784D01*
X16019273Y82204981D01*
X16407350Y82252807D01*
X16778640Y82375424D01*
X17037802Y82513948D01*
X17175760Y82814155D01*
X26764240Y82814155D01*
X26902198Y82513948D01*
X27251443Y82338109D01*
X27628282Y82233784D01*
X28018233Y82204981D01*
X28406310Y82252807D01*
X28777600Y82375424D01*
X29036762Y82513948D01*
X29174720Y82814155D01*
X27969480Y84019395D01*
X26764240Y82814155D01*
X17175760Y82814155D01*
X15970520Y84019395D01*
X14765280Y82814155D01*
X12519244Y82814155D01*
X12584250Y82879161D01*
X12948349Y83424075D01*
X13199145Y84029550D01*
X13223153Y84150247D01*
X13976501Y84150247D01*
X14024327Y83762170D01*
X14146944Y83390880D01*
X14285468Y83131718D01*
X14585675Y82993760D01*
X15790915Y84199000D01*
X16150125Y84199000D01*
X17355365Y82993760D01*
X17655572Y83131718D01*
X17831411Y83480963D01*
X17935736Y83857802D01*
X17957336Y84150247D01*
X25975461Y84150247D01*
X26023287Y83762170D01*
X26145904Y83390880D01*
X26284428Y83131718D01*
X26584635Y82993760D01*
X27789875Y84199000D01*
X28149085Y84199000D01*
X29354325Y82993760D01*
X29654532Y83131718D01*
X29830371Y83480963D01*
X29934696Y83857802D01*
X29963499Y84247753D01*
X29915673Y84635830D01*
X29793056Y85007120D01*
X29654532Y85266282D01*
X29354325Y85404240D01*
X28149085Y84199000D01*
X27789875Y84199000D01*
X26584635Y85404240D01*
X26284428Y85266282D01*
X26108589Y84917037D01*
X26004264Y84540198D01*
X25975461Y84150247D01*
X17957336Y84150247D01*
X17964539Y84247753D01*
X17916713Y84635830D01*
X17794096Y85007120D01*
X17655572Y85266282D01*
X17355365Y85404240D01*
X16150125Y84199000D01*
X15790915Y84199000D01*
X14585675Y85404240D01*
X14285468Y85266282D01*
X14109629Y84917037D01*
X14005304Y84540198D01*
X13976501Y84150247D01*
X13223153Y84150247D01*
X13327000Y84672319D01*
X13327000Y85327681D01*
X13276046Y85583845D01*
X14765280Y85583845D01*
X15970520Y84378605D01*
X17175760Y85583845D01*
X26764240Y85583845D01*
X27969480Y84378605D01*
X29174720Y85583845D01*
X29036762Y85884052D01*
X28687517Y86059891D01*
X28310678Y86164216D01*
X27920727Y86193019D01*
X27532650Y86145193D01*
X27161360Y86022576D01*
X26902198Y85884052D01*
X26764240Y85583845D01*
X17175760Y85583845D01*
X17037802Y85884052D01*
X16688557Y86059891D01*
X16311718Y86164216D01*
X15921767Y86193019D01*
X15533690Y86145193D01*
X15162400Y86022576D01*
X14903238Y85884052D01*
X14765280Y85583845D01*
X13276046Y85583845D01*
X13199145Y85970450D01*
X12948349Y86575925D01*
X12584250Y87120839D01*
X12120839Y87584250D01*
X11575925Y87948349D01*
X10970450Y88199145D01*
X10327681Y88327000D01*
X9672319Y88327000D01*
X9029550Y88199145D01*
X8424075Y87948349D01*
X7879161Y87584250D01*
X7415750Y87120839D01*
X7051651Y86575925D01*
X6800855Y85970450D01*
X6673000Y85327681D01*
X6402000Y85327681D01*
X6402000Y89598000D01*
X30373000Y89598000D01*
X30373000Y51402000D01*
X30373000Y51402000D01*
G37*
X30373000Y51402000D02*
X6402000Y51402000D01*
X6402000Y52543109D01*
X14498519Y52543109D01*
X14595843Y52268748D01*
X14744822Y52018645D01*
X14939731Y51802412D01*
X15173080Y51628359D01*
X15435901Y51503175D01*
X15583110Y51458524D01*
X15813000Y51579845D01*
X15813000Y52773000D01*
X14619186Y52773000D01*
X14498519Y52543109D01*
X6402000Y52543109D01*
X6402000Y53256891D01*
X14498519Y53256891D01*
X14619186Y53027000D01*
X15813000Y53027000D01*
X15813000Y54220155D01*
X16067000Y54220155D01*
X16067000Y53027000D01*
X16087000Y53027000D01*
X16087000Y52773000D01*
X16067000Y52773000D01*
X16067000Y51579845D01*
X16296890Y51458524D01*
X16444099Y51503175D01*
X16706920Y51628359D01*
X16940269Y51802412D01*
X17135178Y52018645D01*
X17284157Y52268748D01*
X17368986Y52507885D01*
X17387333Y52447403D01*
X17496626Y52242930D01*
X17643709Y52063709D01*
X17822930Y51916626D01*
X18027403Y51807333D01*
X18249268Y51740031D01*
X18422188Y51723000D01*
X18537812Y51723000D01*
X18710732Y51740031D01*
X18932597Y51807333D01*
X19137070Y51916626D01*
X19316291Y52063709D01*
X19463374Y52242930D01*
X19572667Y52447403D01*
X19639969Y52669268D01*
X19662694Y52900000D01*
X19837306Y52900000D01*
X19860031Y52669268D01*
X19927333Y52447403D01*
X20036626Y52242930D01*
X20183709Y52063709D01*
X20362930Y51916626D01*
X20567403Y51807333D01*
X20789268Y51740031D01*
X20962188Y51723000D01*
X21077812Y51723000D01*
X21250732Y51740031D01*
X21472597Y51807333D01*
X21677070Y51916626D01*
X21856291Y52063709D01*
X22003374Y52242930D01*
X22112667Y52447403D01*
X22179969Y52669268D01*
X22202694Y52900000D01*
X22377306Y52900000D01*
X22400031Y52669268D01*
X22467333Y52447403D01*
X22576626Y52242930D01*
X22723709Y52063709D01*
X22902930Y51916626D01*
X23107403Y51807333D01*
X23329268Y51740031D01*
X23502188Y51723000D01*
X23617812Y51723000D01*
X23790732Y51740031D01*
X24012597Y51807333D01*
X24217070Y51916626D01*
X24396291Y52063709D01*
X24543374Y52242930D01*
X24652667Y52447403D01*
X24719969Y52669268D01*
X24742694Y52900000D01*
X24719969Y53130732D01*
X24652667Y53352597D01*
X24543374Y53557070D01*
X24396291Y53736291D01*
X24379587Y53750000D01*
X24921418Y53750000D01*
X24921418Y52050000D01*
X24927732Y51985897D01*
X24946430Y51924257D01*
X24976794Y51867450D01*
X25017657Y51817657D01*
X25067450Y51776794D01*
X25124257Y51746430D01*
X25185897Y51727732D01*
X25250000Y51721418D01*
X26950000Y51721418D01*
X27014103Y51727732D01*
X27075743Y51746430D01*
X27132550Y51776794D01*
X27182343Y51817657D01*
X27223206Y51867450D01*
X27253570Y51924257D01*
X27272268Y51985897D01*
X27278582Y52050000D01*
X27278582Y53750000D01*
X27272268Y53814103D01*
X27253570Y53875743D01*
X27223206Y53932550D01*
X27182343Y53982343D01*
X27132550Y54023206D01*
X27075743Y54053570D01*
X27014103Y54072268D01*
X26950000Y54078582D01*
X25250000Y54078582D01*
X25185897Y54072268D01*
X25124257Y54053570D01*
X25067450Y54023206D01*
X25017657Y53982343D01*
X24976794Y53932550D01*
X24946430Y53875743D01*
X24927732Y53814103D01*
X24921418Y53750000D01*
X24379587Y53750000D01*
X24217070Y53883374D01*
X24012597Y53992667D01*
X23790732Y54059969D01*
X23617812Y54077000D01*
X23502188Y54077000D01*
X23329268Y54059969D01*
X23107403Y53992667D01*
X22902930Y53883374D01*
X22723709Y53736291D01*
X22576626Y53557070D01*
X22467333Y53352597D01*
X22400031Y53130732D01*
X22377306Y52900000D01*
X22202694Y52900000D01*
X22179969Y53130732D01*
X22112667Y53352597D01*
X22003374Y53557070D01*
X21856291Y53736291D01*
X21677070Y53883374D01*
X21472597Y53992667D01*
X21250732Y54059969D01*
X21077812Y54077000D01*
X20962188Y54077000D01*
X20789268Y54059969D01*
X20567403Y53992667D01*
X20362930Y53883374D01*
X20183709Y53736291D01*
X20036626Y53557070D01*
X19927333Y53352597D01*
X19860031Y53130732D01*
X19837306Y52900000D01*
X19662694Y52900000D01*
X19639969Y53130732D01*
X19572667Y53352597D01*
X19463374Y53557070D01*
X19316291Y53736291D01*
X19137070Y53883374D01*
X18932597Y53992667D01*
X18710732Y54059969D01*
X18537812Y54077000D01*
X18422188Y54077000D01*
X18249268Y54059969D01*
X18027403Y53992667D01*
X17822930Y53883374D01*
X17643709Y53736291D01*
X17496626Y53557070D01*
X17387333Y53352597D01*
X17368986Y53292115D01*
X17284157Y53531252D01*
X17135178Y53781355D01*
X16940269Y53997588D01*
X16706920Y54171641D01*
X16444099Y54296825D01*
X16296890Y54341476D01*
X16067000Y54220155D01*
X15813000Y54220155D01*
X15583110Y54341476D01*
X15435901Y54296825D01*
X15173080Y54171641D01*
X14939731Y53997588D01*
X14744822Y53781355D01*
X14595843Y53531252D01*
X14498519Y53256891D01*
X6402000Y53256891D01*
X6402000Y81606237D01*
X19611000Y81606237D01*
X19611000Y81391723D01*
X19652850Y81181330D01*
X19734941Y80983145D01*
X19854119Y80804783D01*
X20005803Y80653099D01*
X20184165Y80533921D01*
X20267289Y80499490D01*
X20184165Y80465059D01*
X20005803Y80345881D01*
X19854119Y80194197D01*
X19734941Y80015835D01*
X19652850Y79817650D01*
X19611000Y79607257D01*
X19611000Y79392743D01*
X19652850Y79182350D01*
X19734941Y78984165D01*
X19854119Y78805803D01*
X20005803Y78654119D01*
X20184165Y78534941D01*
X20382350Y78452850D01*
X20592743Y78411000D01*
X20807257Y78411000D01*
X21017650Y78452850D01*
X21215835Y78534941D01*
X21394197Y78654119D01*
X21545881Y78805803D01*
X21665059Y78984165D01*
X21747150Y79182350D01*
X21789000Y79392743D01*
X21789000Y79607257D01*
X21747150Y79817650D01*
X21665059Y80015835D01*
X21545881Y80194197D01*
X21394197Y80345881D01*
X21215835Y80465059D01*
X21132711Y80499490D01*
X21215835Y80533921D01*
X21394197Y80653099D01*
X21545881Y80804783D01*
X21665059Y80983145D01*
X21747150Y81181330D01*
X21789000Y81391723D01*
X21789000Y81606237D01*
X22151000Y81606237D01*
X22151000Y81391723D01*
X22192850Y81181330D01*
X22274941Y80983145D01*
X22394119Y80804783D01*
X22545803Y80653099D01*
X22724165Y80533921D01*
X22807289Y80499490D01*
X22724165Y80465059D01*
X22545803Y80345881D01*
X22394119Y80194197D01*
X22274941Y80015835D01*
X22192850Y79817650D01*
X22151000Y79607257D01*
X22151000Y79392743D01*
X22192850Y79182350D01*
X22274941Y78984165D01*
X22394119Y78805803D01*
X22545803Y78654119D01*
X22724165Y78534941D01*
X22922350Y78452850D01*
X23132743Y78411000D01*
X23347257Y78411000D01*
X23557650Y78452850D01*
X23755835Y78534941D01*
X23934197Y78654119D01*
X24085881Y78805803D01*
X24205059Y78984165D01*
X24287150Y79182350D01*
X24329000Y79392743D01*
X24329000Y79607257D01*
X24287150Y79817650D01*
X24205059Y80015835D01*
X24085881Y80194197D01*
X23934197Y80345881D01*
X23755835Y80465059D01*
X23672711Y80499490D01*
X23755835Y80533921D01*
X23934197Y80653099D01*
X24085881Y80804783D01*
X24205059Y80983145D01*
X24287150Y81181330D01*
X24329000Y81391723D01*
X24329000Y81606237D01*
X24287150Y81816630D01*
X24205059Y82014815D01*
X24085881Y82193177D01*
X23934197Y82344861D01*
X23755835Y82464039D01*
X23557650Y82546130D01*
X23347257Y82587980D01*
X23132743Y82587980D01*
X22922350Y82546130D01*
X22724165Y82464039D01*
X22545803Y82344861D01*
X22394119Y82193177D01*
X22274941Y82014815D01*
X22192850Y81816630D01*
X22151000Y81606237D01*
X21789000Y81606237D01*
X21747150Y81816630D01*
X21665059Y82014815D01*
X21545881Y82193177D01*
X21394197Y82344861D01*
X21215835Y82464039D01*
X21017650Y82546130D01*
X20807257Y82587980D01*
X20592743Y82587980D01*
X20382350Y82546130D01*
X20184165Y82464039D01*
X20005803Y82344861D01*
X19854119Y82193177D01*
X19734941Y82014815D01*
X19652850Y81816630D01*
X19611000Y81606237D01*
X6402000Y81606237D01*
X6402000Y85327681D01*
X6673000Y85327681D01*
X6673000Y84672319D01*
X6800855Y84029550D01*
X7051651Y83424075D01*
X7415750Y82879161D01*
X7879161Y82415750D01*
X8424075Y82051651D01*
X9029550Y81800855D01*
X9672319Y81673000D01*
X10327681Y81673000D01*
X10970450Y81800855D01*
X11575925Y82051651D01*
X12120839Y82415750D01*
X12519244Y82814155D01*
X14765280Y82814155D01*
X14903238Y82513948D01*
X15252483Y82338109D01*
X15629322Y82233784D01*
X16019273Y82204981D01*
X16407350Y82252807D01*
X16778640Y82375424D01*
X17037802Y82513948D01*
X17175760Y82814155D01*
X26764240Y82814155D01*
X26902198Y82513948D01*
X27251443Y82338109D01*
X27628282Y82233784D01*
X28018233Y82204981D01*
X28406310Y82252807D01*
X28777600Y82375424D01*
X29036762Y82513948D01*
X29174720Y82814155D01*
X27969480Y84019395D01*
X26764240Y82814155D01*
X17175760Y82814155D01*
X15970520Y84019395D01*
X14765280Y82814155D01*
X12519244Y82814155D01*
X12584250Y82879161D01*
X12948349Y83424075D01*
X13199145Y84029550D01*
X13223153Y84150247D01*
X13976501Y84150247D01*
X14024327Y83762170D01*
X14146944Y83390880D01*
X14285468Y83131718D01*
X14585675Y82993760D01*
X15790915Y84199000D01*
X16150125Y84199000D01*
X17355365Y82993760D01*
X17655572Y83131718D01*
X17831411Y83480963D01*
X17935736Y83857802D01*
X17957336Y84150247D01*
X25975461Y84150247D01*
X26023287Y83762170D01*
X26145904Y83390880D01*
X26284428Y83131718D01*
X26584635Y82993760D01*
X27789875Y84199000D01*
X28149085Y84199000D01*
X29354325Y82993760D01*
X29654532Y83131718D01*
X29830371Y83480963D01*
X29934696Y83857802D01*
X29963499Y84247753D01*
X29915673Y84635830D01*
X29793056Y85007120D01*
X29654532Y85266282D01*
X29354325Y85404240D01*
X28149085Y84199000D01*
X27789875Y84199000D01*
X26584635Y85404240D01*
X26284428Y85266282D01*
X26108589Y84917037D01*
X26004264Y84540198D01*
X25975461Y84150247D01*
X17957336Y84150247D01*
X17964539Y84247753D01*
X17916713Y84635830D01*
X17794096Y85007120D01*
X17655572Y85266282D01*
X17355365Y85404240D01*
X16150125Y84199000D01*
X15790915Y84199000D01*
X14585675Y85404240D01*
X14285468Y85266282D01*
X14109629Y84917037D01*
X14005304Y84540198D01*
X13976501Y84150247D01*
X13223153Y84150247D01*
X13327000Y84672319D01*
X13327000Y85327681D01*
X13276046Y85583845D01*
X14765280Y85583845D01*
X15970520Y84378605D01*
X17175760Y85583845D01*
X26764240Y85583845D01*
X27969480Y84378605D01*
X29174720Y85583845D01*
X29036762Y85884052D01*
X28687517Y86059891D01*
X28310678Y86164216D01*
X27920727Y86193019D01*
X27532650Y86145193D01*
X27161360Y86022576D01*
X26902198Y85884052D01*
X26764240Y85583845D01*
X17175760Y85583845D01*
X17037802Y85884052D01*
X16688557Y86059891D01*
X16311718Y86164216D01*
X15921767Y86193019D01*
X15533690Y86145193D01*
X15162400Y86022576D01*
X14903238Y85884052D01*
X14765280Y85583845D01*
X13276046Y85583845D01*
X13199145Y85970450D01*
X12948349Y86575925D01*
X12584250Y87120839D01*
X12120839Y87584250D01*
X11575925Y87948349D01*
X10970450Y88199145D01*
X10327681Y88327000D01*
X9672319Y88327000D01*
X9029550Y88199145D01*
X8424075Y87948349D01*
X7879161Y87584250D01*
X7415750Y87120839D01*
X7051651Y86575925D01*
X6800855Y85970450D01*
X6673000Y85327681D01*
X6402000Y85327681D01*
X6402000Y89598000D01*
X30373000Y89598000D01*
X30373000Y51402000D01*
M02*
