G04 #@! TF.GenerationSoftware,KiCad,Pcbnew,(5.1.0-0)*
G04 #@! TF.CreationDate,2020-01-06T22:21:57+01:00*
G04 #@! TF.ProjectId,AddOnA,4164644f-6e41-42e6-9b69-6361645f7063,rev?*
G04 #@! TF.SameCoordinates,Original*
G04 #@! TF.FileFunction,Legend,Bot*
G04 #@! TF.FilePolarity,Positive*
%FSLAX46Y46*%
G04 Gerber Fmt 4.6, Leading zero omitted, Abs format (unit mm)*
G04 Created by KiCad (PCBNEW (5.1.0-0)) date 2020-01-06 22:21:57*
%MOMM*%
%LPD*%
G04 APERTURE LIST*
%ADD10C,0.010000*%
%ADD11C,0.150000*%
%ADD12C,0.120000*%
G04 APERTURE END LIST*
D10*
G36*
X166875570Y70935152D02*
G01*
X166876189Y70848069D01*
X167327914Y70389109D01*
X167779639Y69930148D01*
X167779968Y69719529D01*
X167780297Y69508911D01*
X168055390Y69508911D01*
X168062478Y69455470D01*
X168065162Y69431112D01*
X168069687Y69385241D01*
X168075809Y69320595D01*
X168083288Y69239909D01*
X168091881Y69145919D01*
X168101346Y69041363D01*
X168111442Y68928975D01*
X168121926Y68811493D01*
X168132556Y68691652D01*
X168143091Y68572189D01*
X168153287Y68455841D01*
X168162905Y68345343D01*
X168171700Y68243431D01*
X168179432Y68152842D01*
X168185858Y68076313D01*
X168190737Y68016579D01*
X168193825Y67976376D01*
X168194883Y67958441D01*
X168194882Y67958356D01*
X168187173Y67943965D01*
X168164019Y67914252D01*
X168125105Y67868869D01*
X168070116Y67807471D01*
X167998736Y67729712D01*
X167910651Y67635246D01*
X167805546Y67523728D01*
X167683105Y67394812D01*
X167648690Y67358713D01*
X167102863Y66786584D01*
X167191119Y66698564D01*
X167262515Y66776242D01*
X167288634Y66804314D01*
X167329434Y66847726D01*
X167382223Y66903634D01*
X167444309Y66969192D01*
X167513000Y67041559D01*
X167585604Y67117888D01*
X167629040Y67163476D01*
X167710584Y67248881D01*
X167776496Y67317290D01*
X167828456Y67369947D01*
X167868145Y67408095D01*
X167897243Y67432980D01*
X167917431Y67445844D01*
X167930390Y67447932D01*
X167937800Y67440487D01*
X167941342Y67424754D01*
X167942697Y67401977D01*
X167942879Y67395761D01*
X167952297Y67352939D01*
X167975503Y67301181D01*
X168007864Y67248672D01*
X168044748Y67203597D01*
X168059507Y67189672D01*
X168135233Y67140953D01*
X168223692Y67113694D01*
X168301900Y67107227D01*
X168390532Y67119424D01*
X168472388Y67155187D01*
X168544836Y67213278D01*
X168558203Y67227738D01*
X168607082Y67283267D01*
X169452674Y67283267D01*
X169452674Y67107227D01*
X169679010Y67107227D01*
X169679010Y67189469D01*
X169681850Y67245614D01*
X169691393Y67284584D01*
X169702991Y67305781D01*
X169711277Y67320948D01*
X169718373Y67342938D01*
X169724748Y67375013D01*
X169730872Y67420431D01*
X169737216Y67482452D01*
X169744250Y67564338D01*
X169749066Y67625254D01*
X169771161Y67910657D01*
X170313565Y67361195D01*
X170411637Y67261772D01*
X170505784Y67166185D01*
X170594285Y67076190D01*
X170675420Y66993543D01*
X170747469Y66919999D01*
X170808712Y66857316D01*
X170857427Y66807248D01*
X170891896Y66771552D01*
X170910379Y66752005D01*
X170940743Y66721056D01*
X170966071Y66699470D01*
X170979695Y66692277D01*
X170997095Y66700703D01*
X171022460Y66721755D01*
X171031058Y66730329D01*
X171067514Y66768380D01*
X170866802Y66972342D01*
X170815596Y67024301D01*
X170749569Y67091180D01*
X170671618Y67170050D01*
X170584638Y67257986D01*
X170491526Y67352059D01*
X170395179Y67449342D01*
X170298492Y67546907D01*
X170229134Y67616855D01*
X170123703Y67723450D01*
X170035129Y67813693D01*
X169962281Y67888808D01*
X169904023Y67950014D01*
X169859225Y67998534D01*
X169837021Y68023871D01*
X169658724Y68023871D01*
X169636401Y67738445D01*
X169629669Y67654781D01*
X169623157Y67578273D01*
X169617234Y67512919D01*
X169612268Y67462719D01*
X169608629Y67431671D01*
X169607458Y67424727D01*
X169600838Y67396435D01*
X168651364Y67396435D01*
X168645026Y67475394D01*
X168625890Y67568685D01*
X168585846Y67651209D01*
X168527418Y67719962D01*
X168453129Y67771937D01*
X168369748Y67803137D01*
X168342698Y67817772D01*
X168329156Y67849181D01*
X168328872Y67850566D01*
X168327247Y67863826D01*
X168329256Y67877405D01*
X168336858Y67893819D01*
X168352016Y67915589D01*
X168376688Y67945233D01*
X168412836Y67985268D01*
X168462420Y68038215D01*
X168527401Y68106591D01*
X168531599Y68110995D01*
X168601493Y68184389D01*
X168675800Y68262563D01*
X168749414Y68340136D01*
X168817229Y68411725D01*
X168874140Y68471949D01*
X168886832Y68485413D01*
X168935487Y68536180D01*
X168978709Y68579625D01*
X169013395Y68612759D01*
X169036444Y68632595D01*
X169044182Y68636954D01*
X169055722Y68627830D01*
X169082710Y68602800D01*
X169123021Y68563948D01*
X169174529Y68513357D01*
X169235109Y68453112D01*
X169302636Y68385296D01*
X169357826Y68329435D01*
X169658724Y68023871D01*
X169837021Y68023871D01*
X169826751Y68035589D01*
X169805471Y68062401D01*
X169794251Y68080192D01*
X169791754Y68088430D01*
X169792700Y68106410D01*
X169795573Y68147108D01*
X169800187Y68208181D01*
X169806358Y68287287D01*
X169813898Y68382086D01*
X169822621Y68490233D01*
X169832343Y68609388D01*
X169842876Y68737209D01*
X169851365Y68839365D01*
X169899396Y69415326D01*
X169775805Y69415326D01*
X169775273Y69402896D01*
X169772769Y69367890D01*
X169768496Y69312785D01*
X169762653Y69240057D01*
X169755443Y69152186D01*
X169747066Y69051649D01*
X169737723Y68940923D01*
X169728758Y68835795D01*
X169718602Y68716517D01*
X169709142Y68603920D01*
X169700596Y68500695D01*
X169693179Y68409527D01*
X169687108Y68333105D01*
X169682601Y68274117D01*
X169679873Y68235251D01*
X169679116Y68220156D01*
X169677935Y68210762D01*
X169673256Y68207034D01*
X169663276Y68210529D01*
X169646190Y68222801D01*
X169620196Y68245406D01*
X169583490Y68279900D01*
X169534267Y68327838D01*
X169470726Y68390776D01*
X169403305Y68458032D01*
X169127601Y68733523D01*
X169129533Y68735594D01*
X168947290Y68735594D01*
X168938984Y68724220D01*
X168915733Y68697437D01*
X168879865Y68657708D01*
X168833713Y68607493D01*
X168779606Y68549254D01*
X168719874Y68485453D01*
X168656848Y68418551D01*
X168592858Y68351010D01*
X168530236Y68285290D01*
X168471310Y68223854D01*
X168418412Y68169163D01*
X168373872Y68123678D01*
X168340020Y68089862D01*
X168319188Y68070174D01*
X168313506Y68066163D01*
X168311634Y68079109D01*
X168307746Y68114866D01*
X168302057Y68171196D01*
X168294781Y68245860D01*
X168286131Y68336620D01*
X168276322Y68441238D01*
X168265566Y68557474D01*
X168254079Y68683092D01*
X168244907Y68784382D01*
X168233174Y68915721D01*
X168222335Y69039448D01*
X168212570Y69153319D01*
X168204063Y69255089D01*
X168196995Y69342513D01*
X168191549Y69413347D01*
X168187908Y69465347D01*
X168186253Y69496268D01*
X168186442Y69504297D01*
X168196334Y69497146D01*
X168221524Y69474159D01*
X168259810Y69437561D01*
X168308989Y69389578D01*
X168366861Y69332434D01*
X168431222Y69268353D01*
X168499871Y69199562D01*
X168570605Y69128284D01*
X168641222Y69056745D01*
X168709520Y68987170D01*
X168773296Y68921783D01*
X168830350Y68862809D01*
X168878478Y68812473D01*
X168915478Y68773001D01*
X168939148Y68746617D01*
X168947290Y68735594D01*
X169129533Y68735594D01*
X169230409Y68843705D01*
X169282768Y68899623D01*
X169341535Y68962052D01*
X169404385Y69028557D01*
X169468995Y69096702D01*
X169533042Y69164052D01*
X169594203Y69228172D01*
X169650153Y69286628D01*
X169698570Y69336982D01*
X169737130Y69376802D01*
X169763509Y69403650D01*
X169775384Y69415092D01*
X169775805Y69415326D01*
X169899396Y69415326D01*
X169911401Y69559274D01*
X170511938Y70190842D01*
X171112475Y70822411D01*
X171112034Y70910685D01*
X171111592Y70998960D01*
X171014583Y70895334D01*
X170960291Y70837537D01*
X170896192Y70769632D01*
X170824016Y70693428D01*
X170745492Y70610731D01*
X170662349Y70523347D01*
X170576319Y70433085D01*
X170489130Y70341750D01*
X170402513Y70251151D01*
X170318197Y70163093D01*
X170237912Y70079385D01*
X170163387Y70001833D01*
X170096354Y69932243D01*
X170038541Y69872424D01*
X169991679Y69824182D01*
X169957496Y69789324D01*
X169937724Y69769657D01*
X169933390Y69765884D01*
X169933092Y69779008D01*
X169934731Y69812611D01*
X169938023Y69862120D01*
X169942682Y69922963D01*
X169944682Y69947268D01*
X169959577Y70125049D01*
X169842955Y70125049D01*
X169836934Y70096757D01*
X169833863Y70074382D01*
X169829548Y70032283D01*
X169824488Y69975822D01*
X169819181Y69910365D01*
X169817344Y69886138D01*
X169811927Y69816579D01*
X169806459Y69751982D01*
X169801488Y69698452D01*
X169797561Y69662090D01*
X169796675Y69655491D01*
X169793334Y69641944D01*
X169786101Y69626086D01*
X169773440Y69606139D01*
X169753811Y69580327D01*
X169725678Y69546871D01*
X169687502Y69503993D01*
X169637746Y69449917D01*
X169574871Y69382864D01*
X169497341Y69301057D01*
X169418251Y69218050D01*
X169339564Y69135906D01*
X169266112Y69059831D01*
X169199724Y68991675D01*
X169142227Y68933288D01*
X169095451Y68886519D01*
X169061224Y68853218D01*
X169041373Y68835233D01*
X169037140Y68832558D01*
X169026003Y68842259D01*
X168999971Y68867559D01*
X168961570Y68905918D01*
X168913328Y68954800D01*
X168857770Y69011666D01*
X168817592Y69053094D01*
X168607831Y69270000D01*
X169226337Y69270000D01*
X169226337Y69508911D01*
X168471881Y69508911D01*
X168471881Y69402458D01*
X168333565Y69540346D01*
X168235447Y69638160D01*
X168044357Y69638160D01*
X168042529Y69622730D01*
X168033277Y69614133D01*
X168010950Y69610387D01*
X167969895Y69609511D01*
X167962624Y69609505D01*
X167880891Y69609505D01*
X167880891Y69828828D01*
X167962624Y69747821D01*
X168008730Y69698572D01*
X168036306Y69660841D01*
X168044357Y69638160D01*
X168235447Y69638160D01*
X168195248Y69678234D01*
X168195248Y69801048D01*
X168194863Y69857550D01*
X168193100Y69893495D01*
X168189050Y69913470D01*
X168181801Y69922063D01*
X168170870Y69923861D01*
X168158712Y69926502D01*
X168149727Y69937088D01*
X168142826Y69959619D01*
X168136924Y69998091D01*
X168130935Y70056502D01*
X168129013Y70077896D01*
X168124852Y70125049D01*
X169842955Y70125049D01*
X169959577Y70125049D01*
X170119109Y70125049D01*
X170119109Y70238218D01*
X170051314Y70238218D01*
X170011662Y70239304D01*
X169990116Y70244546D01*
X169987480Y70247666D01*
X169848616Y70247666D01*
X169841308Y70240538D01*
X169815993Y70238338D01*
X169798908Y70238218D01*
X169741881Y70238218D01*
X169529221Y70238218D01*
X168114698Y70238218D01*
X168162542Y70287214D01*
X168236850Y70347676D01*
X168328816Y70394309D01*
X168439998Y70427751D01*
X168550471Y70446247D01*
X168622773Y70454878D01*
X168622773Y70363960D01*
X169201188Y70363960D01*
X169201188Y70467107D01*
X169286065Y70458504D01*
X169345368Y70451244D01*
X169408551Y70441621D01*
X169446386Y70434748D01*
X169521832Y70419593D01*
X169525526Y70328905D01*
X169529221Y70238218D01*
X169741881Y70238218D01*
X169741881Y70288515D01*
X169743544Y70320024D01*
X169747697Y70337537D01*
X169749371Y70338812D01*
X169767987Y70330746D01*
X169795183Y70311180D01*
X169822448Y70287056D01*
X169841267Y70265318D01*
X169842943Y70262492D01*
X169848616Y70247666D01*
X169987480Y70247666D01*
X169979662Y70256919D01*
X169975442Y70270396D01*
X169958219Y70305373D01*
X169925138Y70347421D01*
X169881893Y70390644D01*
X169834174Y70429146D01*
X169802830Y70449199D01*
X169767123Y70471149D01*
X169748819Y70489589D01*
X169742388Y70511332D01*
X169741894Y70524282D01*
X169741894Y70527425D01*
X169100594Y70527425D01*
X169100594Y70464554D01*
X168723367Y70464554D01*
X168723367Y70527425D01*
X169100594Y70527425D01*
X169741894Y70527425D01*
X169741881Y70565148D01*
X169636048Y70565148D01*
X169587355Y70563971D01*
X169549405Y70560835D01*
X169528308Y70556329D01*
X169526023Y70554505D01*
X169512641Y70551705D01*
X169480074Y70552852D01*
X169433916Y70557607D01*
X169402376Y70561997D01*
X169345188Y70570622D01*
X169292886Y70578409D01*
X169253582Y70584153D01*
X169242055Y70585785D01*
X169211937Y70595112D01*
X169201188Y70609728D01*
X169197920Y70615680D01*
X169186230Y70620222D01*
X169163288Y70623530D01*
X169126265Y70625785D01*
X169072332Y70627166D01*
X168998660Y70627850D01*
X168911980Y70628020D01*
X168819471Y70627923D01*
X168749094Y70627470D01*
X168697836Y70626410D01*
X168662680Y70624497D01*
X168640611Y70621481D01*
X168628615Y70617115D01*
X168623676Y70611151D01*
X168622773Y70604216D01*
X168615079Y70582205D01*
X168589879Y70569679D01*
X168543991Y70565212D01*
X168535736Y70565148D01*
X168458027Y70557132D01*
X168369767Y70535064D01*
X168278915Y70501916D01*
X168193430Y70460661D01*
X168121274Y70414269D01*
X168111928Y70406918D01*
X168081467Y70383002D01*
X168063428Y70373424D01*
X168050831Y70376520D01*
X168037900Y70389296D01*
X167999707Y70414322D01*
X167950002Y70423929D01*
X167896476Y70418933D01*
X167846822Y70400149D01*
X167808733Y70368394D01*
X167805975Y70364703D01*
X167777474Y70305425D01*
X167772172Y70244066D01*
X167789482Y70185573D01*
X167828820Y70134896D01*
X167833630Y70130711D01*
X167861560Y70110833D01*
X167889898Y70102079D01*
X167929737Y70101447D01*
X167939689Y70102008D01*
X167978668Y70103438D01*
X167998746Y70100161D01*
X168006015Y70090272D01*
X168006760Y70081039D01*
X168008284Y70054256D01*
X168012065Y70013975D01*
X168014782Y69989876D01*
X168018723Y69951599D01*
X168017084Y69932004D01*
X168007579Y69924842D01*
X167990649Y69923861D01*
X167980608Y69927099D01*
X167964410Y69937580D01*
X167940855Y69956452D01*
X167908743Y69984865D01*
X167866872Y70023965D01*
X167814043Y70074903D01*
X167749055Y70138827D01*
X167670709Y70216886D01*
X167577803Y70310228D01*
X167469137Y70420002D01*
X167416769Y70473048D01*
X166874951Y71022233D01*
X166875570Y70935152D01*
X166875570Y70935152D01*
G37*
X166875570Y70935152D02*
X166876189Y70848069D01*
X167327914Y70389109D01*
X167779639Y69930148D01*
X167779968Y69719529D01*
X167780297Y69508911D01*
X168055390Y69508911D01*
X168062478Y69455470D01*
X168065162Y69431112D01*
X168069687Y69385241D01*
X168075809Y69320595D01*
X168083288Y69239909D01*
X168091881Y69145919D01*
X168101346Y69041363D01*
X168111442Y68928975D01*
X168121926Y68811493D01*
X168132556Y68691652D01*
X168143091Y68572189D01*
X168153287Y68455841D01*
X168162905Y68345343D01*
X168171700Y68243431D01*
X168179432Y68152842D01*
X168185858Y68076313D01*
X168190737Y68016579D01*
X168193825Y67976376D01*
X168194883Y67958441D01*
X168194882Y67958356D01*
X168187173Y67943965D01*
X168164019Y67914252D01*
X168125105Y67868869D01*
X168070116Y67807471D01*
X167998736Y67729712D01*
X167910651Y67635246D01*
X167805546Y67523728D01*
X167683105Y67394812D01*
X167648690Y67358713D01*
X167102863Y66786584D01*
X167191119Y66698564D01*
X167262515Y66776242D01*
X167288634Y66804314D01*
X167329434Y66847726D01*
X167382223Y66903634D01*
X167444309Y66969192D01*
X167513000Y67041559D01*
X167585604Y67117888D01*
X167629040Y67163476D01*
X167710584Y67248881D01*
X167776496Y67317290D01*
X167828456Y67369947D01*
X167868145Y67408095D01*
X167897243Y67432980D01*
X167917431Y67445844D01*
X167930390Y67447932D01*
X167937800Y67440487D01*
X167941342Y67424754D01*
X167942697Y67401977D01*
X167942879Y67395761D01*
X167952297Y67352939D01*
X167975503Y67301181D01*
X168007864Y67248672D01*
X168044748Y67203597D01*
X168059507Y67189672D01*
X168135233Y67140953D01*
X168223692Y67113694D01*
X168301900Y67107227D01*
X168390532Y67119424D01*
X168472388Y67155187D01*
X168544836Y67213278D01*
X168558203Y67227738D01*
X168607082Y67283267D01*
X169452674Y67283267D01*
X169452674Y67107227D01*
X169679010Y67107227D01*
X169679010Y67189469D01*
X169681850Y67245614D01*
X169691393Y67284584D01*
X169702991Y67305781D01*
X169711277Y67320948D01*
X169718373Y67342938D01*
X169724748Y67375013D01*
X169730872Y67420431D01*
X169737216Y67482452D01*
X169744250Y67564338D01*
X169749066Y67625254D01*
X169771161Y67910657D01*
X170313565Y67361195D01*
X170411637Y67261772D01*
X170505784Y67166185D01*
X170594285Y67076190D01*
X170675420Y66993543D01*
X170747469Y66919999D01*
X170808712Y66857316D01*
X170857427Y66807248D01*
X170891896Y66771552D01*
X170910379Y66752005D01*
X170940743Y66721056D01*
X170966071Y66699470D01*
X170979695Y66692277D01*
X170997095Y66700703D01*
X171022460Y66721755D01*
X171031058Y66730329D01*
X171067514Y66768380D01*
X170866802Y66972342D01*
X170815596Y67024301D01*
X170749569Y67091180D01*
X170671618Y67170050D01*
X170584638Y67257986D01*
X170491526Y67352059D01*
X170395179Y67449342D01*
X170298492Y67546907D01*
X170229134Y67616855D01*
X170123703Y67723450D01*
X170035129Y67813693D01*
X169962281Y67888808D01*
X169904023Y67950014D01*
X169859225Y67998534D01*
X169837021Y68023871D01*
X169658724Y68023871D01*
X169636401Y67738445D01*
X169629669Y67654781D01*
X169623157Y67578273D01*
X169617234Y67512919D01*
X169612268Y67462719D01*
X169608629Y67431671D01*
X169607458Y67424727D01*
X169600838Y67396435D01*
X168651364Y67396435D01*
X168645026Y67475394D01*
X168625890Y67568685D01*
X168585846Y67651209D01*
X168527418Y67719962D01*
X168453129Y67771937D01*
X168369748Y67803137D01*
X168342698Y67817772D01*
X168329156Y67849181D01*
X168328872Y67850566D01*
X168327247Y67863826D01*
X168329256Y67877405D01*
X168336858Y67893819D01*
X168352016Y67915589D01*
X168376688Y67945233D01*
X168412836Y67985268D01*
X168462420Y68038215D01*
X168527401Y68106591D01*
X168531599Y68110995D01*
X168601493Y68184389D01*
X168675800Y68262563D01*
X168749414Y68340136D01*
X168817229Y68411725D01*
X168874140Y68471949D01*
X168886832Y68485413D01*
X168935487Y68536180D01*
X168978709Y68579625D01*
X169013395Y68612759D01*
X169036444Y68632595D01*
X169044182Y68636954D01*
X169055722Y68627830D01*
X169082710Y68602800D01*
X169123021Y68563948D01*
X169174529Y68513357D01*
X169235109Y68453112D01*
X169302636Y68385296D01*
X169357826Y68329435D01*
X169658724Y68023871D01*
X169837021Y68023871D01*
X169826751Y68035589D01*
X169805471Y68062401D01*
X169794251Y68080192D01*
X169791754Y68088430D01*
X169792700Y68106410D01*
X169795573Y68147108D01*
X169800187Y68208181D01*
X169806358Y68287287D01*
X169813898Y68382086D01*
X169822621Y68490233D01*
X169832343Y68609388D01*
X169842876Y68737209D01*
X169851365Y68839365D01*
X169899396Y69415326D01*
X169775805Y69415326D01*
X169775273Y69402896D01*
X169772769Y69367890D01*
X169768496Y69312785D01*
X169762653Y69240057D01*
X169755443Y69152186D01*
X169747066Y69051649D01*
X169737723Y68940923D01*
X169728758Y68835795D01*
X169718602Y68716517D01*
X169709142Y68603920D01*
X169700596Y68500695D01*
X169693179Y68409527D01*
X169687108Y68333105D01*
X169682601Y68274117D01*
X169679873Y68235251D01*
X169679116Y68220156D01*
X169677935Y68210762D01*
X169673256Y68207034D01*
X169663276Y68210529D01*
X169646190Y68222801D01*
X169620196Y68245406D01*
X169583490Y68279900D01*
X169534267Y68327838D01*
X169470726Y68390776D01*
X169403305Y68458032D01*
X169127601Y68733523D01*
X169129533Y68735594D01*
X168947290Y68735594D01*
X168938984Y68724220D01*
X168915733Y68697437D01*
X168879865Y68657708D01*
X168833713Y68607493D01*
X168779606Y68549254D01*
X168719874Y68485453D01*
X168656848Y68418551D01*
X168592858Y68351010D01*
X168530236Y68285290D01*
X168471310Y68223854D01*
X168418412Y68169163D01*
X168373872Y68123678D01*
X168340020Y68089862D01*
X168319188Y68070174D01*
X168313506Y68066163D01*
X168311634Y68079109D01*
X168307746Y68114866D01*
X168302057Y68171196D01*
X168294781Y68245860D01*
X168286131Y68336620D01*
X168276322Y68441238D01*
X168265566Y68557474D01*
X168254079Y68683092D01*
X168244907Y68784382D01*
X168233174Y68915721D01*
X168222335Y69039448D01*
X168212570Y69153319D01*
X168204063Y69255089D01*
X168196995Y69342513D01*
X168191549Y69413347D01*
X168187908Y69465347D01*
X168186253Y69496268D01*
X168186442Y69504297D01*
X168196334Y69497146D01*
X168221524Y69474159D01*
X168259810Y69437561D01*
X168308989Y69389578D01*
X168366861Y69332434D01*
X168431222Y69268353D01*
X168499871Y69199562D01*
X168570605Y69128284D01*
X168641222Y69056745D01*
X168709520Y68987170D01*
X168773296Y68921783D01*
X168830350Y68862809D01*
X168878478Y68812473D01*
X168915478Y68773001D01*
X168939148Y68746617D01*
X168947290Y68735594D01*
X169129533Y68735594D01*
X169230409Y68843705D01*
X169282768Y68899623D01*
X169341535Y68962052D01*
X169404385Y69028557D01*
X169468995Y69096702D01*
X169533042Y69164052D01*
X169594203Y69228172D01*
X169650153Y69286628D01*
X169698570Y69336982D01*
X169737130Y69376802D01*
X169763509Y69403650D01*
X169775384Y69415092D01*
X169775805Y69415326D01*
X169899396Y69415326D01*
X169911401Y69559274D01*
X170511938Y70190842D01*
X171112475Y70822411D01*
X171112034Y70910685D01*
X171111592Y70998960D01*
X171014583Y70895334D01*
X170960291Y70837537D01*
X170896192Y70769632D01*
X170824016Y70693428D01*
X170745492Y70610731D01*
X170662349Y70523347D01*
X170576319Y70433085D01*
X170489130Y70341750D01*
X170402513Y70251151D01*
X170318197Y70163093D01*
X170237912Y70079385D01*
X170163387Y70001833D01*
X170096354Y69932243D01*
X170038541Y69872424D01*
X169991679Y69824182D01*
X169957496Y69789324D01*
X169937724Y69769657D01*
X169933390Y69765884D01*
X169933092Y69779008D01*
X169934731Y69812611D01*
X169938023Y69862120D01*
X169942682Y69922963D01*
X169944682Y69947268D01*
X169959577Y70125049D01*
X169842955Y70125049D01*
X169836934Y70096757D01*
X169833863Y70074382D01*
X169829548Y70032283D01*
X169824488Y69975822D01*
X169819181Y69910365D01*
X169817344Y69886138D01*
X169811927Y69816579D01*
X169806459Y69751982D01*
X169801488Y69698452D01*
X169797561Y69662090D01*
X169796675Y69655491D01*
X169793334Y69641944D01*
X169786101Y69626086D01*
X169773440Y69606139D01*
X169753811Y69580327D01*
X169725678Y69546871D01*
X169687502Y69503993D01*
X169637746Y69449917D01*
X169574871Y69382864D01*
X169497341Y69301057D01*
X169418251Y69218050D01*
X169339564Y69135906D01*
X169266112Y69059831D01*
X169199724Y68991675D01*
X169142227Y68933288D01*
X169095451Y68886519D01*
X169061224Y68853218D01*
X169041373Y68835233D01*
X169037140Y68832558D01*
X169026003Y68842259D01*
X168999971Y68867559D01*
X168961570Y68905918D01*
X168913328Y68954800D01*
X168857770Y69011666D01*
X168817592Y69053094D01*
X168607831Y69270000D01*
X169226337Y69270000D01*
X169226337Y69508911D01*
X168471881Y69508911D01*
X168471881Y69402458D01*
X168333565Y69540346D01*
X168235447Y69638160D01*
X168044357Y69638160D01*
X168042529Y69622730D01*
X168033277Y69614133D01*
X168010950Y69610387D01*
X167969895Y69609511D01*
X167962624Y69609505D01*
X167880891Y69609505D01*
X167880891Y69828828D01*
X167962624Y69747821D01*
X168008730Y69698572D01*
X168036306Y69660841D01*
X168044357Y69638160D01*
X168235447Y69638160D01*
X168195248Y69678234D01*
X168195248Y69801048D01*
X168194863Y69857550D01*
X168193100Y69893495D01*
X168189050Y69913470D01*
X168181801Y69922063D01*
X168170870Y69923861D01*
X168158712Y69926502D01*
X168149727Y69937088D01*
X168142826Y69959619D01*
X168136924Y69998091D01*
X168130935Y70056502D01*
X168129013Y70077896D01*
X168124852Y70125049D01*
X169842955Y70125049D01*
X169959577Y70125049D01*
X170119109Y70125049D01*
X170119109Y70238218D01*
X170051314Y70238218D01*
X170011662Y70239304D01*
X169990116Y70244546D01*
X169987480Y70247666D01*
X169848616Y70247666D01*
X169841308Y70240538D01*
X169815993Y70238338D01*
X169798908Y70238218D01*
X169741881Y70238218D01*
X169529221Y70238218D01*
X168114698Y70238218D01*
X168162542Y70287214D01*
X168236850Y70347676D01*
X168328816Y70394309D01*
X168439998Y70427751D01*
X168550471Y70446247D01*
X168622773Y70454878D01*
X168622773Y70363960D01*
X169201188Y70363960D01*
X169201188Y70467107D01*
X169286065Y70458504D01*
X169345368Y70451244D01*
X169408551Y70441621D01*
X169446386Y70434748D01*
X169521832Y70419593D01*
X169525526Y70328905D01*
X169529221Y70238218D01*
X169741881Y70238218D01*
X169741881Y70288515D01*
X169743544Y70320024D01*
X169747697Y70337537D01*
X169749371Y70338812D01*
X169767987Y70330746D01*
X169795183Y70311180D01*
X169822448Y70287056D01*
X169841267Y70265318D01*
X169842943Y70262492D01*
X169848616Y70247666D01*
X169987480Y70247666D01*
X169979662Y70256919D01*
X169975442Y70270396D01*
X169958219Y70305373D01*
X169925138Y70347421D01*
X169881893Y70390644D01*
X169834174Y70429146D01*
X169802830Y70449199D01*
X169767123Y70471149D01*
X169748819Y70489589D01*
X169742388Y70511332D01*
X169741894Y70524282D01*
X169741894Y70527425D01*
X169100594Y70527425D01*
X169100594Y70464554D01*
X168723367Y70464554D01*
X168723367Y70527425D01*
X169100594Y70527425D01*
X169741894Y70527425D01*
X169741881Y70565148D01*
X169636048Y70565148D01*
X169587355Y70563971D01*
X169549405Y70560835D01*
X169528308Y70556329D01*
X169526023Y70554505D01*
X169512641Y70551705D01*
X169480074Y70552852D01*
X169433916Y70557607D01*
X169402376Y70561997D01*
X169345188Y70570622D01*
X169292886Y70578409D01*
X169253582Y70584153D01*
X169242055Y70585785D01*
X169211937Y70595112D01*
X169201188Y70609728D01*
X169197920Y70615680D01*
X169186230Y70620222D01*
X169163288Y70623530D01*
X169126265Y70625785D01*
X169072332Y70627166D01*
X168998660Y70627850D01*
X168911980Y70628020D01*
X168819471Y70627923D01*
X168749094Y70627470D01*
X168697836Y70626410D01*
X168662680Y70624497D01*
X168640611Y70621481D01*
X168628615Y70617115D01*
X168623676Y70611151D01*
X168622773Y70604216D01*
X168615079Y70582205D01*
X168589879Y70569679D01*
X168543991Y70565212D01*
X168535736Y70565148D01*
X168458027Y70557132D01*
X168369767Y70535064D01*
X168278915Y70501916D01*
X168193430Y70460661D01*
X168121274Y70414269D01*
X168111928Y70406918D01*
X168081467Y70383002D01*
X168063428Y70373424D01*
X168050831Y70376520D01*
X168037900Y70389296D01*
X167999707Y70414322D01*
X167950002Y70423929D01*
X167896476Y70418933D01*
X167846822Y70400149D01*
X167808733Y70368394D01*
X167805975Y70364703D01*
X167777474Y70305425D01*
X167772172Y70244066D01*
X167789482Y70185573D01*
X167828820Y70134896D01*
X167833630Y70130711D01*
X167861560Y70110833D01*
X167889898Y70102079D01*
X167929737Y70101447D01*
X167939689Y70102008D01*
X167978668Y70103438D01*
X167998746Y70100161D01*
X168006015Y70090272D01*
X168006760Y70081039D01*
X168008284Y70054256D01*
X168012065Y70013975D01*
X168014782Y69989876D01*
X168018723Y69951599D01*
X168017084Y69932004D01*
X168007579Y69924842D01*
X167990649Y69923861D01*
X167980608Y69927099D01*
X167964410Y69937580D01*
X167940855Y69956452D01*
X167908743Y69984865D01*
X167866872Y70023965D01*
X167814043Y70074903D01*
X167749055Y70138827D01*
X167670709Y70216886D01*
X167577803Y70310228D01*
X167469137Y70420002D01*
X167416769Y70473048D01*
X166874951Y71022233D01*
X166875570Y70935152D01*
G36*
X167252178Y64982178D02*
G01*
X170772971Y64982178D01*
X170772971Y65849802D01*
X167252178Y65849802D01*
X167252178Y64982178D01*
X167252178Y64982178D01*
G37*
X167252178Y64982178D02*
X170772971Y64982178D01*
X170772971Y65849802D01*
X167252178Y65849802D01*
X167252178Y64982178D01*
G36*
X181233335Y65916406D02*
G01*
X180938985Y65916695D01*
X180837010Y65917120D01*
X180756355Y65918408D01*
X180691888Y65920914D01*
X180638476Y65924996D01*
X180590988Y65931008D01*
X180544289Y65939308D01*
X180510389Y65946436D01*
X180280549Y66009754D01*
X180061232Y66096012D01*
X179854201Y66204009D01*
X179661220Y66332544D01*
X179484049Y66480418D01*
X179324453Y66646430D01*
X179184193Y66829379D01*
X179159554Y66866449D01*
X179107756Y66953402D01*
X179054855Y67054820D01*
X179003836Y67163866D01*
X178957682Y67273702D01*
X178919375Y67377488D01*
X178891898Y67468388D01*
X178885804Y67493984D01*
X178876439Y67536979D01*
X180638021Y67536979D01*
X180638021Y68476250D01*
X178876439Y68476250D01*
X178885804Y68519244D01*
X178910864Y68610611D01*
X178948352Y68716469D01*
X178995185Y68829878D01*
X179048282Y68943892D01*
X179104560Y69051569D01*
X179160936Y69145967D01*
X179170392Y69160319D01*
X179314134Y69351791D01*
X179475333Y69523630D01*
X179652990Y69675163D01*
X179846109Y69805719D01*
X180053691Y69914624D01*
X180274738Y70001206D01*
X180508255Y70064794D01*
X180513956Y70066021D01*
X180566538Y70076622D01*
X180614958Y70084513D01*
X180664609Y70090078D01*
X180720881Y70093702D01*
X180789168Y70095769D01*
X180874859Y70096664D01*
X180945599Y70096799D01*
X181233333Y70096776D01*
X181233333Y71029479D01*
X180945599Y71027762D01*
X180853624Y71026709D01*
X180763891Y71024766D01*
X180682158Y71022126D01*
X180614179Y71018981D01*
X180565711Y71015526D01*
X180558646Y71014789D01*
X180333237Y70978594D01*
X180101386Y70921376D01*
X179869425Y70845284D01*
X179643685Y70752465D01*
X179430499Y70645068D01*
X179374697Y70613135D01*
X179211156Y70507667D01*
X179045214Y70383545D01*
X178883427Y70246431D01*
X178732350Y70101982D01*
X178598540Y69955859D01*
X178561993Y69911607D01*
X178400673Y69690012D01*
X178259348Y69452378D01*
X178139025Y69201089D01*
X178040711Y68938532D01*
X177965412Y68667092D01*
X177914135Y68389155D01*
X177911590Y68370416D01*
X177904641Y68298751D01*
X177899708Y68208046D01*
X177896792Y68104923D01*
X177895895Y67996009D01*
X177897019Y67887925D01*
X177900166Y67787298D01*
X177905338Y67700752D01*
X177911383Y67642812D01*
X177963339Y67357894D01*
X178038569Y67082354D01*
X178136391Y66817809D01*
X178256121Y66565877D01*
X178397076Y66328177D01*
X178558573Y66106325D01*
X178561993Y66102079D01*
X178742280Y65899121D01*
X178941422Y65712656D01*
X179156973Y65544214D01*
X179386485Y65395325D01*
X179627509Y65267517D01*
X179877600Y65162322D01*
X180134309Y65081267D01*
X180234619Y65056769D01*
X180358530Y65030938D01*
X180473700Y65011592D01*
X180587520Y64997981D01*
X180707385Y64989356D01*
X180840687Y64984968D01*
X180952213Y64984008D01*
X181233333Y64983750D01*
X181233335Y65916406D01*
X181233335Y65916406D01*
G37*
X181233335Y65916406D02*
X180938985Y65916695D01*
X180837010Y65917120D01*
X180756355Y65918408D01*
X180691888Y65920914D01*
X180638476Y65924996D01*
X180590988Y65931008D01*
X180544289Y65939308D01*
X180510389Y65946436D01*
X180280549Y66009754D01*
X180061232Y66096012D01*
X179854201Y66204009D01*
X179661220Y66332544D01*
X179484049Y66480418D01*
X179324453Y66646430D01*
X179184193Y66829379D01*
X179159554Y66866449D01*
X179107756Y66953402D01*
X179054855Y67054820D01*
X179003836Y67163866D01*
X178957682Y67273702D01*
X178919375Y67377488D01*
X178891898Y67468388D01*
X178885804Y67493984D01*
X178876439Y67536979D01*
X180638021Y67536979D01*
X180638021Y68476250D01*
X178876439Y68476250D01*
X178885804Y68519244D01*
X178910864Y68610611D01*
X178948352Y68716469D01*
X178995185Y68829878D01*
X179048282Y68943892D01*
X179104560Y69051569D01*
X179160936Y69145967D01*
X179170392Y69160319D01*
X179314134Y69351791D01*
X179475333Y69523630D01*
X179652990Y69675163D01*
X179846109Y69805719D01*
X180053691Y69914624D01*
X180274738Y70001206D01*
X180508255Y70064794D01*
X180513956Y70066021D01*
X180566538Y70076622D01*
X180614958Y70084513D01*
X180664609Y70090078D01*
X180720881Y70093702D01*
X180789168Y70095769D01*
X180874859Y70096664D01*
X180945599Y70096799D01*
X181233333Y70096776D01*
X181233333Y71029479D01*
X180945599Y71027762D01*
X180853624Y71026709D01*
X180763891Y71024766D01*
X180682158Y71022126D01*
X180614179Y71018981D01*
X180565711Y71015526D01*
X180558646Y71014789D01*
X180333237Y70978594D01*
X180101386Y70921376D01*
X179869425Y70845284D01*
X179643685Y70752465D01*
X179430499Y70645068D01*
X179374697Y70613135D01*
X179211156Y70507667D01*
X179045214Y70383545D01*
X178883427Y70246431D01*
X178732350Y70101982D01*
X178598540Y69955859D01*
X178561993Y69911607D01*
X178400673Y69690012D01*
X178259348Y69452378D01*
X178139025Y69201089D01*
X178040711Y68938532D01*
X177965412Y68667092D01*
X177914135Y68389155D01*
X177911590Y68370416D01*
X177904641Y68298751D01*
X177899708Y68208046D01*
X177896792Y68104923D01*
X177895895Y67996009D01*
X177897019Y67887925D01*
X177900166Y67787298D01*
X177905338Y67700752D01*
X177911383Y67642812D01*
X177963339Y67357894D01*
X178038569Y67082354D01*
X178136391Y66817809D01*
X178256121Y66565877D01*
X178397076Y66328177D01*
X178558573Y66106325D01*
X178561993Y66102079D01*
X178742280Y65899121D01*
X178941422Y65712656D01*
X179156973Y65544214D01*
X179386485Y65395325D01*
X179627509Y65267517D01*
X179877600Y65162322D01*
X180134309Y65081267D01*
X180234619Y65056769D01*
X180358530Y65030938D01*
X180473700Y65011592D01*
X180587520Y64997981D01*
X180707385Y64989356D01*
X180840687Y64984968D01*
X180952213Y64984008D01*
X181233333Y64983750D01*
X181233335Y65916406D01*
G36*
X175939187Y64984315D02*
G01*
X176003670Y64985975D01*
X176050303Y64988945D01*
X176070651Y64992088D01*
X176100417Y65000065D01*
X176100417Y65920530D01*
X175890881Y65913259D01*
X175681047Y65913523D01*
X175486859Y65930382D01*
X175302420Y65965075D01*
X175121832Y66018839D01*
X174939197Y66092911D01*
X174863489Y66128879D01*
X174682938Y66227977D01*
X174520298Y66339326D01*
X174367901Y66468408D01*
X174308622Y66525705D01*
X174151985Y66700861D01*
X174016473Y66891520D01*
X173902766Y67096394D01*
X173811544Y67314193D01*
X173743485Y67543629D01*
X173723326Y67636197D01*
X173711177Y67720244D01*
X173703066Y67823234D01*
X173698985Y67937965D01*
X173698926Y68057234D01*
X173702884Y68173837D01*
X173710851Y68280571D01*
X173722819Y68370233D01*
X173724057Y68377031D01*
X173779911Y68605759D01*
X173859299Y68823965D01*
X173960931Y69030177D01*
X174083522Y69222928D01*
X174225781Y69400748D01*
X174386421Y69562168D01*
X174564155Y69705719D01*
X174757693Y69829931D01*
X174965748Y69933336D01*
X175149237Y70002535D01*
X175252377Y70034118D01*
X175347107Y70058129D01*
X175439870Y70075463D01*
X175537106Y70087016D01*
X175645258Y70093680D01*
X175770767Y70096352D01*
X175825911Y70096504D01*
X176100417Y70096186D01*
X176100417Y71013164D01*
X176070651Y71021141D01*
X176045251Y71024138D01*
X175998256Y71026203D01*
X175934510Y71027382D01*
X175858858Y71027723D01*
X175776146Y71027274D01*
X175691217Y71026083D01*
X175608917Y71024197D01*
X175534091Y71021663D01*
X175471583Y71018531D01*
X175426238Y71014847D01*
X175425729Y71014789D01*
X175312729Y70998341D01*
X175185128Y70973706D01*
X175052662Y70943083D01*
X174925066Y70908667D01*
X174843984Y70883536D01*
X174579447Y70782498D01*
X174328723Y70659513D01*
X174092805Y70515777D01*
X173872680Y70352487D01*
X173669340Y70170838D01*
X173483773Y69972026D01*
X173316970Y69757247D01*
X173169921Y69527698D01*
X173043615Y69284573D01*
X172939042Y69029070D01*
X172857192Y68762383D01*
X172799055Y68485709D01*
X172785838Y68396875D01*
X172777382Y68312107D01*
X172771563Y68208118D01*
X172768382Y68092009D01*
X172767839Y67970887D01*
X172769934Y67851854D01*
X172774666Y67742014D01*
X172782037Y67648472D01*
X172785838Y67616354D01*
X172836759Y67333706D01*
X172912205Y67060614D01*
X173011919Y66797714D01*
X173135646Y66545637D01*
X173283128Y66305017D01*
X173361952Y66194218D01*
X173540230Y65976723D01*
X173736233Y65778344D01*
X173948598Y65599882D01*
X174175959Y65442133D01*
X174416953Y65305897D01*
X174670213Y65191971D01*
X174934377Y65101153D01*
X175208079Y65034241D01*
X175398880Y65002813D01*
X175451354Y64997490D01*
X175520218Y64992930D01*
X175600581Y64989212D01*
X175687550Y64986413D01*
X175776236Y64984612D01*
X175861745Y64983887D01*
X175939187Y64984315D01*
X175939187Y64984315D01*
G37*
X175939187Y64984315D02*
X176003670Y64985975D01*
X176050303Y64988945D01*
X176070651Y64992088D01*
X176100417Y65000065D01*
X176100417Y65920530D01*
X175890881Y65913259D01*
X175681047Y65913523D01*
X175486859Y65930382D01*
X175302420Y65965075D01*
X175121832Y66018839D01*
X174939197Y66092911D01*
X174863489Y66128879D01*
X174682938Y66227977D01*
X174520298Y66339326D01*
X174367901Y66468408D01*
X174308622Y66525705D01*
X174151985Y66700861D01*
X174016473Y66891520D01*
X173902766Y67096394D01*
X173811544Y67314193D01*
X173743485Y67543629D01*
X173723326Y67636197D01*
X173711177Y67720244D01*
X173703066Y67823234D01*
X173698985Y67937965D01*
X173698926Y68057234D01*
X173702884Y68173837D01*
X173710851Y68280571D01*
X173722819Y68370233D01*
X173724057Y68377031D01*
X173779911Y68605759D01*
X173859299Y68823965D01*
X173960931Y69030177D01*
X174083522Y69222928D01*
X174225781Y69400748D01*
X174386421Y69562168D01*
X174564155Y69705719D01*
X174757693Y69829931D01*
X174965748Y69933336D01*
X175149237Y70002535D01*
X175252377Y70034118D01*
X175347107Y70058129D01*
X175439870Y70075463D01*
X175537106Y70087016D01*
X175645258Y70093680D01*
X175770767Y70096352D01*
X175825911Y70096504D01*
X176100417Y70096186D01*
X176100417Y71013164D01*
X176070651Y71021141D01*
X176045251Y71024138D01*
X175998256Y71026203D01*
X175934510Y71027382D01*
X175858858Y71027723D01*
X175776146Y71027274D01*
X175691217Y71026083D01*
X175608917Y71024197D01*
X175534091Y71021663D01*
X175471583Y71018531D01*
X175426238Y71014847D01*
X175425729Y71014789D01*
X175312729Y70998341D01*
X175185128Y70973706D01*
X175052662Y70943083D01*
X174925066Y70908667D01*
X174843984Y70883536D01*
X174579447Y70782498D01*
X174328723Y70659513D01*
X174092805Y70515777D01*
X173872680Y70352487D01*
X173669340Y70170838D01*
X173483773Y69972026D01*
X173316970Y69757247D01*
X173169921Y69527698D01*
X173043615Y69284573D01*
X172939042Y69029070D01*
X172857192Y68762383D01*
X172799055Y68485709D01*
X172785838Y68396875D01*
X172777382Y68312107D01*
X172771563Y68208118D01*
X172768382Y68092009D01*
X172767839Y67970887D01*
X172769934Y67851854D01*
X172774666Y67742014D01*
X172782037Y67648472D01*
X172785838Y67616354D01*
X172836759Y67333706D01*
X172912205Y67060614D01*
X173011919Y66797714D01*
X173135646Y66545637D01*
X173283128Y66305017D01*
X173361952Y66194218D01*
X173540230Y65976723D01*
X173736233Y65778344D01*
X173948598Y65599882D01*
X174175959Y65442133D01*
X174416953Y65305897D01*
X174670213Y65191971D01*
X174934377Y65101153D01*
X175208079Y65034241D01*
X175398880Y65002813D01*
X175451354Y64997490D01*
X175520218Y64992930D01*
X175600581Y64989212D01*
X175687550Y64986413D01*
X175776236Y64984612D01*
X175861745Y64983887D01*
X175939187Y64984315D01*
D11*
X86175000Y78100000D02*
X86175000Y79300000D01*
X84425000Y79300000D02*
X84425000Y78100000D01*
X95575000Y78100000D02*
X95575000Y79300000D01*
X93825000Y79300000D02*
X93825000Y78100000D01*
X72175000Y78100000D02*
X72175000Y79300000D01*
X70425000Y79300000D02*
X70425000Y78100000D01*
X81575000Y78100000D02*
X81575000Y79300000D01*
X79825000Y79300000D02*
X79825000Y78100000D01*
X129125000Y70600000D02*
X129125000Y69400000D01*
X130875000Y69400000D02*
X130875000Y70600000D01*
X131125000Y70600000D02*
X131125000Y69400000D01*
X132875000Y69400000D02*
X132875000Y70600000D01*
X135125000Y70600000D02*
X135125000Y69400000D01*
X136875000Y69400000D02*
X136875000Y70600000D01*
X137125000Y70600000D02*
X137125000Y69400000D01*
X138875000Y69400000D02*
X138875000Y70600000D01*
X36850000Y85200000D02*
X36850000Y84200000D01*
X35150000Y84200000D02*
X35150000Y85200000D01*
X133150000Y69500000D02*
X133150000Y70500000D01*
X134850000Y70500000D02*
X134850000Y69500000D01*
X139150000Y69500000D02*
X139150000Y70500000D01*
X140850000Y70500000D02*
X140850000Y69500000D01*
X107900000Y70875000D02*
X106700000Y70875000D01*
X106700000Y69125000D02*
X107900000Y69125000D01*
X110500000Y69125000D02*
X111700000Y69125000D01*
X111700000Y70875000D02*
X110500000Y70875000D01*
X156850000Y77700000D02*
X156850000Y78700000D01*
X158550000Y78700000D02*
X158550000Y77700000D01*
X54400000Y81150000D02*
X53400000Y81150000D01*
X53400000Y82850000D02*
X54400000Y82850000D01*
X52000000Y76850000D02*
X51000000Y76850000D01*
X51000000Y78550000D02*
X52000000Y78550000D01*
X54400000Y83150000D02*
X53400000Y83150000D01*
X53400000Y84850000D02*
X54400000Y84850000D01*
X160575000Y77600000D02*
X160575000Y78800000D01*
X158825000Y78800000D02*
X158825000Y77600000D01*
X154825000Y78800000D02*
X154825000Y77600000D01*
X156575000Y77600000D02*
X156575000Y78800000D01*
X61900000Y80950000D02*
X62900000Y80950000D01*
X62900000Y79250000D02*
X61900000Y79250000D01*
X65400000Y76950000D02*
X66400000Y76950000D01*
X66400000Y75250000D02*
X65400000Y75250000D01*
X62900000Y73250000D02*
X61900000Y73250000D01*
X61900000Y74950000D02*
X62900000Y74950000D01*
X54950000Y76500000D02*
X54950000Y77500000D01*
X56650000Y77500000D02*
X56650000Y76500000D01*
D12*
X61787500Y84735000D02*
X64072500Y84735000D01*
X64072500Y84735000D02*
X64072500Y83265000D01*
X64072500Y83265000D02*
X61787500Y83265000D01*
D11*
X58500000Y75300000D02*
G75*
G03X58500000Y75300000I-100000J0D01*
G01*
X58950000Y75550000D02*
X58450000Y75550000D01*
X58950000Y78450000D02*
X58950000Y75550000D01*
X58450000Y78450000D02*
X58950000Y78450000D01*
X58450000Y75550000D02*
X58450000Y78450000D01*
X53075000Y70925000D02*
X53050000Y70925000D01*
X53075000Y75075000D02*
X52970000Y75075000D01*
X42925000Y75075000D02*
X43030000Y75075000D01*
X42925000Y70925000D02*
X43030000Y70925000D01*
X53075000Y70925000D02*
X53075000Y75075000D01*
X42925000Y70925000D02*
X42925000Y75075000D01*
X53050000Y70925000D02*
X53050000Y69550000D01*
X63000000Y82975000D02*
X61800000Y82975000D01*
X61800000Y81225000D02*
X63000000Y81225000D01*
X65300000Y77225000D02*
X66500000Y77225000D01*
X66500000Y78975000D02*
X65300000Y78975000D01*
X66500000Y74975000D02*
X65300000Y74975000D01*
X65300000Y73225000D02*
X66500000Y73225000D01*
X63000000Y78975000D02*
X61800000Y78975000D01*
X61800000Y77225000D02*
X63000000Y77225000D01*
X61800000Y75225000D02*
X63000000Y75225000D01*
X63000000Y76975000D02*
X61800000Y76975000D01*
X59500000Y74975000D02*
X58300000Y74975000D01*
X58300000Y73225000D02*
X59500000Y73225000D01*
X44650000Y79900000D02*
X44650000Y78900000D01*
X42950000Y78900000D02*
X42950000Y79900000D01*
X44675000Y82300000D02*
X44675000Y83500000D01*
X42925000Y83500000D02*
X42925000Y82300000D01*
X64500000Y63650000D02*
X65500000Y63650000D01*
X65500000Y61950000D02*
X64500000Y61950000D01*
X63460000Y68235000D02*
G75*
G02X63460000Y66965000I0J-635000D01*
G01*
X63425000Y69675000D02*
X63570000Y69675000D01*
X63425000Y65525000D02*
X63570000Y65525000D01*
X68575000Y65525000D02*
X68430000Y65525000D01*
X68575000Y69675000D02*
X68430000Y69675000D01*
X63425000Y69675000D02*
X63425000Y65525000D01*
X68575000Y69675000D02*
X68575000Y65525000D01*
X48275000Y66900000D02*
X48275000Y68100000D01*
X46525000Y68100000D02*
X46525000Y66900000D01*
X87452380Y79819047D02*
X86976190Y80152380D01*
X87452380Y80390476D02*
X86452380Y80390476D01*
X86452380Y80009523D01*
X86500000Y79914285D01*
X86547619Y79866666D01*
X86642857Y79819047D01*
X86785714Y79819047D01*
X86880952Y79866666D01*
X86928571Y79914285D01*
X86976190Y80009523D01*
X86976190Y80390476D01*
X87452380Y78866666D02*
X87452380Y79438095D01*
X87452380Y79152380D02*
X86452380Y79152380D01*
X86595238Y79247619D01*
X86690476Y79342857D01*
X86738095Y79438095D01*
X86547619Y78485714D02*
X86500000Y78438095D01*
X86452380Y78342857D01*
X86452380Y78104761D01*
X86500000Y78009523D01*
X86547619Y77961904D01*
X86642857Y77914285D01*
X86738095Y77914285D01*
X86880952Y77961904D01*
X87452380Y78533333D01*
X87452380Y77914285D01*
X86452380Y77295238D02*
X86452380Y77200000D01*
X86500000Y77104761D01*
X86547619Y77057142D01*
X86642857Y77009523D01*
X86833333Y76961904D01*
X87071428Y76961904D01*
X87261904Y77009523D01*
X87357142Y77057142D01*
X87404761Y77104761D01*
X87452380Y77200000D01*
X87452380Y77295238D01*
X87404761Y77390476D01*
X87357142Y77438095D01*
X87261904Y77485714D01*
X87071428Y77533333D01*
X86833333Y77533333D01*
X86642857Y77485714D01*
X86547619Y77438095D01*
X86500000Y77390476D01*
X86452380Y77295238D01*
X96852380Y79819047D02*
X96376190Y80152380D01*
X96852380Y80390476D02*
X95852380Y80390476D01*
X95852380Y80009523D01*
X95900000Y79914285D01*
X95947619Y79866666D01*
X96042857Y79819047D01*
X96185714Y79819047D01*
X96280952Y79866666D01*
X96328571Y79914285D01*
X96376190Y80009523D01*
X96376190Y80390476D01*
X96852380Y78866666D02*
X96852380Y79438095D01*
X96852380Y79152380D02*
X95852380Y79152380D01*
X95995238Y79247619D01*
X96090476Y79342857D01*
X96138095Y79438095D01*
X96852380Y77914285D02*
X96852380Y78485714D01*
X96852380Y78200000D02*
X95852380Y78200000D01*
X95995238Y78295238D01*
X96090476Y78390476D01*
X96138095Y78485714D01*
X96852380Y77438095D02*
X96852380Y77247619D01*
X96804761Y77152380D01*
X96757142Y77104761D01*
X96614285Y77009523D01*
X96423809Y76961904D01*
X96042857Y76961904D01*
X95947619Y77009523D01*
X95900000Y77057142D01*
X95852380Y77152380D01*
X95852380Y77342857D01*
X95900000Y77438095D01*
X95947619Y77485714D01*
X96042857Y77533333D01*
X96280952Y77533333D01*
X96376190Y77485714D01*
X96423809Y77438095D01*
X96471428Y77342857D01*
X96471428Y77152380D01*
X96423809Y77057142D01*
X96376190Y77009523D01*
X96280952Y76961904D01*
X73452380Y79819047D02*
X72976190Y80152380D01*
X73452380Y80390476D02*
X72452380Y80390476D01*
X72452380Y80009523D01*
X72500000Y79914285D01*
X72547619Y79866666D01*
X72642857Y79819047D01*
X72785714Y79819047D01*
X72880952Y79866666D01*
X72928571Y79914285D01*
X72976190Y80009523D01*
X72976190Y80390476D01*
X73452380Y78866666D02*
X73452380Y79438095D01*
X73452380Y79152380D02*
X72452380Y79152380D01*
X72595238Y79247619D01*
X72690476Y79342857D01*
X72738095Y79438095D01*
X73452380Y77914285D02*
X73452380Y78485714D01*
X73452380Y78200000D02*
X72452380Y78200000D01*
X72595238Y78295238D01*
X72690476Y78390476D01*
X72738095Y78485714D01*
X72452380Y77295238D02*
X72452380Y77200000D01*
X72500000Y77104761D01*
X72547619Y77057142D01*
X72642857Y77009523D01*
X72833333Y76961904D01*
X73071428Y76961904D01*
X73261904Y77009523D01*
X73357142Y77057142D01*
X73404761Y77104761D01*
X73452380Y77200000D01*
X73452380Y77295238D01*
X73404761Y77390476D01*
X73357142Y77438095D01*
X73261904Y77485714D01*
X73071428Y77533333D01*
X72833333Y77533333D01*
X72642857Y77485714D01*
X72547619Y77438095D01*
X72500000Y77390476D01*
X72452380Y77295238D01*
X82752380Y79819047D02*
X82276190Y80152380D01*
X82752380Y80390476D02*
X81752380Y80390476D01*
X81752380Y80009523D01*
X81800000Y79914285D01*
X81847619Y79866666D01*
X81942857Y79819047D01*
X82085714Y79819047D01*
X82180952Y79866666D01*
X82228571Y79914285D01*
X82276190Y80009523D01*
X82276190Y80390476D01*
X82752380Y78866666D02*
X82752380Y79438095D01*
X82752380Y79152380D02*
X81752380Y79152380D01*
X81895238Y79247619D01*
X81990476Y79342857D01*
X82038095Y79438095D01*
X81752380Y78247619D02*
X81752380Y78152380D01*
X81800000Y78057142D01*
X81847619Y78009523D01*
X81942857Y77961904D01*
X82133333Y77914285D01*
X82371428Y77914285D01*
X82561904Y77961904D01*
X82657142Y78009523D01*
X82704761Y78057142D01*
X82752380Y78152380D01*
X82752380Y78247619D01*
X82704761Y78342857D01*
X82657142Y78390476D01*
X82561904Y78438095D01*
X82371428Y78485714D01*
X82133333Y78485714D01*
X81942857Y78438095D01*
X81847619Y78390476D01*
X81800000Y78342857D01*
X81752380Y78247619D01*
X82752380Y77438095D02*
X82752380Y77247619D01*
X82704761Y77152380D01*
X82657142Y77104761D01*
X82514285Y77009523D01*
X82323809Y76961904D01*
X81942857Y76961904D01*
X81847619Y77009523D01*
X81800000Y77057142D01*
X81752380Y77152380D01*
X81752380Y77342857D01*
X81800000Y77438095D01*
X81847619Y77485714D01*
X81942857Y77533333D01*
X82180952Y77533333D01*
X82276190Y77485714D01*
X82323809Y77438095D01*
X82371428Y77342857D01*
X82371428Y77152380D01*
X82323809Y77057142D01*
X82276190Y77009523D01*
X82180952Y76961904D01*
X130452380Y67619047D02*
X129976190Y67952380D01*
X130452380Y68190476D02*
X129452380Y68190476D01*
X129452380Y67809523D01*
X129500000Y67714285D01*
X129547619Y67666666D01*
X129642857Y67619047D01*
X129785714Y67619047D01*
X129880952Y67666666D01*
X129928571Y67714285D01*
X129976190Y67809523D01*
X129976190Y68190476D01*
X130452380Y66666666D02*
X130452380Y67238095D01*
X130452380Y66952380D02*
X129452380Y66952380D01*
X129595238Y67047619D01*
X129690476Y67142857D01*
X129738095Y67238095D01*
X129452380Y66047619D02*
X129452380Y65952380D01*
X129500000Y65857142D01*
X129547619Y65809523D01*
X129642857Y65761904D01*
X129833333Y65714285D01*
X130071428Y65714285D01*
X130261904Y65761904D01*
X130357142Y65809523D01*
X130404761Y65857142D01*
X130452380Y65952380D01*
X130452380Y66047619D01*
X130404761Y66142857D01*
X130357142Y66190476D01*
X130261904Y66238095D01*
X130071428Y66285714D01*
X129833333Y66285714D01*
X129642857Y66238095D01*
X129547619Y66190476D01*
X129500000Y66142857D01*
X129452380Y66047619D01*
X129452380Y64857142D02*
X129452380Y65047619D01*
X129500000Y65142857D01*
X129547619Y65190476D01*
X129690476Y65285714D01*
X129880952Y65333333D01*
X130261904Y65333333D01*
X130357142Y65285714D01*
X130404761Y65238095D01*
X130452380Y65142857D01*
X130452380Y64952380D01*
X130404761Y64857142D01*
X130357142Y64809523D01*
X130261904Y64761904D01*
X130023809Y64761904D01*
X129928571Y64809523D01*
X129880952Y64857142D01*
X129833333Y64952380D01*
X129833333Y65142857D01*
X129880952Y65238095D01*
X129928571Y65285714D01*
X130023809Y65333333D01*
X132452380Y67619047D02*
X131976190Y67952380D01*
X132452380Y68190476D02*
X131452380Y68190476D01*
X131452380Y67809523D01*
X131500000Y67714285D01*
X131547619Y67666666D01*
X131642857Y67619047D01*
X131785714Y67619047D01*
X131880952Y67666666D01*
X131928571Y67714285D01*
X131976190Y67809523D01*
X131976190Y68190476D01*
X132452380Y66666666D02*
X132452380Y67238095D01*
X132452380Y66952380D02*
X131452380Y66952380D01*
X131595238Y67047619D01*
X131690476Y67142857D01*
X131738095Y67238095D01*
X131452380Y66047619D02*
X131452380Y65952380D01*
X131500000Y65857142D01*
X131547619Y65809523D01*
X131642857Y65761904D01*
X131833333Y65714285D01*
X132071428Y65714285D01*
X132261904Y65761904D01*
X132357142Y65809523D01*
X132404761Y65857142D01*
X132452380Y65952380D01*
X132452380Y66047619D01*
X132404761Y66142857D01*
X132357142Y66190476D01*
X132261904Y66238095D01*
X132071428Y66285714D01*
X131833333Y66285714D01*
X131642857Y66238095D01*
X131547619Y66190476D01*
X131500000Y66142857D01*
X131452380Y66047619D01*
X131785714Y64857142D02*
X132452380Y64857142D01*
X131404761Y65095238D02*
X132119047Y65333333D01*
X132119047Y64714285D01*
X136452380Y67619047D02*
X135976190Y67952380D01*
X136452380Y68190476D02*
X135452380Y68190476D01*
X135452380Y67809523D01*
X135500000Y67714285D01*
X135547619Y67666666D01*
X135642857Y67619047D01*
X135785714Y67619047D01*
X135880952Y67666666D01*
X135928571Y67714285D01*
X135976190Y67809523D01*
X135976190Y68190476D01*
X136452380Y66666666D02*
X136452380Y67238095D01*
X136452380Y66952380D02*
X135452380Y66952380D01*
X135595238Y67047619D01*
X135690476Y67142857D01*
X135738095Y67238095D01*
X135452380Y66047619D02*
X135452380Y65952380D01*
X135500000Y65857142D01*
X135547619Y65809523D01*
X135642857Y65761904D01*
X135833333Y65714285D01*
X136071428Y65714285D01*
X136261904Y65761904D01*
X136357142Y65809523D01*
X136404761Y65857142D01*
X136452380Y65952380D01*
X136452380Y66047619D01*
X136404761Y66142857D01*
X136357142Y66190476D01*
X136261904Y66238095D01*
X136071428Y66285714D01*
X135833333Y66285714D01*
X135642857Y66238095D01*
X135547619Y66190476D01*
X135500000Y66142857D01*
X135452380Y66047619D01*
X135547619Y65333333D02*
X135500000Y65285714D01*
X135452380Y65190476D01*
X135452380Y64952380D01*
X135500000Y64857142D01*
X135547619Y64809523D01*
X135642857Y64761904D01*
X135738095Y64761904D01*
X135880952Y64809523D01*
X136452380Y65380952D01*
X136452380Y64761904D01*
X138452380Y67619047D02*
X137976190Y67952380D01*
X138452380Y68190476D02*
X137452380Y68190476D01*
X137452380Y67809523D01*
X137500000Y67714285D01*
X137547619Y67666666D01*
X137642857Y67619047D01*
X137785714Y67619047D01*
X137880952Y67666666D01*
X137928571Y67714285D01*
X137976190Y67809523D01*
X137976190Y68190476D01*
X138452380Y66666666D02*
X138452380Y67238095D01*
X138452380Y66952380D02*
X137452380Y66952380D01*
X137595238Y67047619D01*
X137690476Y67142857D01*
X137738095Y67238095D01*
X137452380Y66047619D02*
X137452380Y65952380D01*
X137500000Y65857142D01*
X137547619Y65809523D01*
X137642857Y65761904D01*
X137833333Y65714285D01*
X138071428Y65714285D01*
X138261904Y65761904D01*
X138357142Y65809523D01*
X138404761Y65857142D01*
X138452380Y65952380D01*
X138452380Y66047619D01*
X138404761Y66142857D01*
X138357142Y66190476D01*
X138261904Y66238095D01*
X138071428Y66285714D01*
X137833333Y66285714D01*
X137642857Y66238095D01*
X137547619Y66190476D01*
X137500000Y66142857D01*
X137452380Y66047619D01*
X138452380Y64761904D02*
X138452380Y65333333D01*
X138452380Y65047619D02*
X137452380Y65047619D01*
X137595238Y65142857D01*
X137690476Y65238095D01*
X137738095Y65333333D01*
X37119047Y86642857D02*
X37166666Y86595238D01*
X37309523Y86547619D01*
X37404761Y86547619D01*
X37547619Y86595238D01*
X37642857Y86690476D01*
X37690476Y86785714D01*
X37738095Y86976190D01*
X37738095Y87119047D01*
X37690476Y87309523D01*
X37642857Y87404761D01*
X37547619Y87500000D01*
X37404761Y87547619D01*
X37309523Y87547619D01*
X37166666Y87500000D01*
X37119047Y87452380D01*
X36166666Y86547619D02*
X36738095Y86547619D01*
X36452380Y86547619D02*
X36452380Y87547619D01*
X36547619Y87404761D01*
X36642857Y87309523D01*
X36738095Y87261904D01*
X35547619Y87547619D02*
X35452380Y87547619D01*
X35357142Y87500000D01*
X35309523Y87452380D01*
X35261904Y87357142D01*
X35214285Y87166666D01*
X35214285Y86928571D01*
X35261904Y86738095D01*
X35309523Y86642857D01*
X35357142Y86595238D01*
X35452380Y86547619D01*
X35547619Y86547619D01*
X35642857Y86595238D01*
X35690476Y86642857D01*
X35738095Y86738095D01*
X35785714Y86928571D01*
X35785714Y87166666D01*
X35738095Y87357142D01*
X35690476Y87452380D01*
X35642857Y87500000D01*
X35547619Y87547619D01*
X34309523Y87547619D02*
X34785714Y87547619D01*
X34833333Y87071428D01*
X34785714Y87119047D01*
X34690476Y87166666D01*
X34452380Y87166666D01*
X34357142Y87119047D01*
X34309523Y87071428D01*
X34261904Y86976190D01*
X34261904Y86738095D01*
X34309523Y86642857D01*
X34357142Y86595238D01*
X34452380Y86547619D01*
X34690476Y86547619D01*
X34785714Y86595238D01*
X34833333Y86642857D01*
X134357142Y67619047D02*
X134404761Y67666666D01*
X134452380Y67809523D01*
X134452380Y67904761D01*
X134404761Y68047619D01*
X134309523Y68142857D01*
X134214285Y68190476D01*
X134023809Y68238095D01*
X133880952Y68238095D01*
X133690476Y68190476D01*
X133595238Y68142857D01*
X133500000Y68047619D01*
X133452380Y67904761D01*
X133452380Y67809523D01*
X133500000Y67666666D01*
X133547619Y67619047D01*
X134452380Y66666666D02*
X134452380Y67238095D01*
X134452380Y66952380D02*
X133452380Y66952380D01*
X133595238Y67047619D01*
X133690476Y67142857D01*
X133738095Y67238095D01*
X133452380Y66047619D02*
X133452380Y65952380D01*
X133500000Y65857142D01*
X133547619Y65809523D01*
X133642857Y65761904D01*
X133833333Y65714285D01*
X134071428Y65714285D01*
X134261904Y65761904D01*
X134357142Y65809523D01*
X134404761Y65857142D01*
X134452380Y65952380D01*
X134452380Y66047619D01*
X134404761Y66142857D01*
X134357142Y66190476D01*
X134261904Y66238095D01*
X134071428Y66285714D01*
X133833333Y66285714D01*
X133642857Y66238095D01*
X133547619Y66190476D01*
X133500000Y66142857D01*
X133452380Y66047619D01*
X133547619Y65333333D02*
X133500000Y65285714D01*
X133452380Y65190476D01*
X133452380Y64952380D01*
X133500000Y64857142D01*
X133547619Y64809523D01*
X133642857Y64761904D01*
X133738095Y64761904D01*
X133880952Y64809523D01*
X134452380Y65380952D01*
X134452380Y64761904D01*
X140357142Y67619047D02*
X140404761Y67666666D01*
X140452380Y67809523D01*
X140452380Y67904761D01*
X140404761Y68047619D01*
X140309523Y68142857D01*
X140214285Y68190476D01*
X140023809Y68238095D01*
X139880952Y68238095D01*
X139690476Y68190476D01*
X139595238Y68142857D01*
X139500000Y68047619D01*
X139452380Y67904761D01*
X139452380Y67809523D01*
X139500000Y67666666D01*
X139547619Y67619047D01*
X140452380Y66666666D02*
X140452380Y67238095D01*
X140452380Y66952380D02*
X139452380Y66952380D01*
X139595238Y67047619D01*
X139690476Y67142857D01*
X139738095Y67238095D01*
X139452380Y66047619D02*
X139452380Y65952380D01*
X139500000Y65857142D01*
X139547619Y65809523D01*
X139642857Y65761904D01*
X139833333Y65714285D01*
X140071428Y65714285D01*
X140261904Y65761904D01*
X140357142Y65809523D01*
X140404761Y65857142D01*
X140452380Y65952380D01*
X140452380Y66047619D01*
X140404761Y66142857D01*
X140357142Y66190476D01*
X140261904Y66238095D01*
X140071428Y66285714D01*
X139833333Y66285714D01*
X139642857Y66238095D01*
X139547619Y66190476D01*
X139500000Y66142857D01*
X139452380Y66047619D01*
X140452380Y64761904D02*
X140452380Y65333333D01*
X140452380Y65047619D02*
X139452380Y65047619D01*
X139595238Y65142857D01*
X139690476Y65238095D01*
X139738095Y65333333D01*
X108419047Y67847619D02*
X108752380Y68323809D01*
X108990476Y67847619D02*
X108990476Y68847619D01*
X108609523Y68847619D01*
X108514285Y68800000D01*
X108466666Y68752380D01*
X108419047Y68657142D01*
X108419047Y68514285D01*
X108466666Y68419047D01*
X108514285Y68371428D01*
X108609523Y68323809D01*
X108990476Y68323809D01*
X107466666Y67847619D02*
X108038095Y67847619D01*
X107752380Y67847619D02*
X107752380Y68847619D01*
X107847619Y68704761D01*
X107942857Y68609523D01*
X108038095Y68561904D01*
X106847619Y68847619D02*
X106752380Y68847619D01*
X106657142Y68800000D01*
X106609523Y68752380D01*
X106561904Y68657142D01*
X106514285Y68466666D01*
X106514285Y68228571D01*
X106561904Y68038095D01*
X106609523Y67942857D01*
X106657142Y67895238D01*
X106752380Y67847619D01*
X106847619Y67847619D01*
X106942857Y67895238D01*
X106990476Y67942857D01*
X107038095Y68038095D01*
X107085714Y68228571D01*
X107085714Y68466666D01*
X107038095Y68657142D01*
X106990476Y68752380D01*
X106942857Y68800000D01*
X106847619Y68847619D01*
X106180952Y68847619D02*
X105561904Y68847619D01*
X105895238Y68466666D01*
X105752380Y68466666D01*
X105657142Y68419047D01*
X105609523Y68371428D01*
X105561904Y68276190D01*
X105561904Y68038095D01*
X105609523Y67942857D01*
X105657142Y67895238D01*
X105752380Y67847619D01*
X106038095Y67847619D01*
X106133333Y67895238D01*
X106180952Y67942857D01*
X112219047Y67847619D02*
X112552380Y68323809D01*
X112790476Y67847619D02*
X112790476Y68847619D01*
X112409523Y68847619D01*
X112314285Y68800000D01*
X112266666Y68752380D01*
X112219047Y68657142D01*
X112219047Y68514285D01*
X112266666Y68419047D01*
X112314285Y68371428D01*
X112409523Y68323809D01*
X112790476Y68323809D01*
X111266666Y67847619D02*
X111838095Y67847619D01*
X111552380Y67847619D02*
X111552380Y68847619D01*
X111647619Y68704761D01*
X111742857Y68609523D01*
X111838095Y68561904D01*
X110647619Y68847619D02*
X110552380Y68847619D01*
X110457142Y68800000D01*
X110409523Y68752380D01*
X110361904Y68657142D01*
X110314285Y68466666D01*
X110314285Y68228571D01*
X110361904Y68038095D01*
X110409523Y67942857D01*
X110457142Y67895238D01*
X110552380Y67847619D01*
X110647619Y67847619D01*
X110742857Y67895238D01*
X110790476Y67942857D01*
X110838095Y68038095D01*
X110885714Y68228571D01*
X110885714Y68466666D01*
X110838095Y68657142D01*
X110790476Y68752380D01*
X110742857Y68800000D01*
X110647619Y68847619D01*
X109409523Y68847619D02*
X109885714Y68847619D01*
X109933333Y68371428D01*
X109885714Y68419047D01*
X109790476Y68466666D01*
X109552380Y68466666D01*
X109457142Y68419047D01*
X109409523Y68371428D01*
X109361904Y68276190D01*
X109361904Y68038095D01*
X109409523Y67942857D01*
X109457142Y67895238D01*
X109552380Y67847619D01*
X109790476Y67847619D01*
X109885714Y67895238D01*
X109933333Y67942857D01*
X158057142Y75719047D02*
X158104761Y75766666D01*
X158152380Y75909523D01*
X158152380Y76004761D01*
X158104761Y76147619D01*
X158009523Y76242857D01*
X157914285Y76290476D01*
X157723809Y76338095D01*
X157580952Y76338095D01*
X157390476Y76290476D01*
X157295238Y76242857D01*
X157200000Y76147619D01*
X157152380Y76004761D01*
X157152380Y75909523D01*
X157200000Y75766666D01*
X157247619Y75719047D01*
X158152380Y74766666D02*
X158152380Y75338095D01*
X158152380Y75052380D02*
X157152380Y75052380D01*
X157295238Y75147619D01*
X157390476Y75242857D01*
X157438095Y75338095D01*
X157152380Y74147619D02*
X157152380Y74052380D01*
X157200000Y73957142D01*
X157247619Y73909523D01*
X157342857Y73861904D01*
X157533333Y73814285D01*
X157771428Y73814285D01*
X157961904Y73861904D01*
X158057142Y73909523D01*
X158104761Y73957142D01*
X158152380Y74052380D01*
X158152380Y74147619D01*
X158104761Y74242857D01*
X158057142Y74290476D01*
X157961904Y74338095D01*
X157771428Y74385714D01*
X157533333Y74385714D01*
X157342857Y74338095D01*
X157247619Y74290476D01*
X157200000Y74242857D01*
X157152380Y74147619D01*
X157485714Y72957142D02*
X158152380Y72957142D01*
X157104761Y73195238D02*
X157819047Y73433333D01*
X157819047Y72814285D01*
X55019047Y80042857D02*
X55066666Y79995238D01*
X55209523Y79947619D01*
X55304761Y79947619D01*
X55447619Y79995238D01*
X55542857Y80090476D01*
X55590476Y80185714D01*
X55638095Y80376190D01*
X55638095Y80519047D01*
X55590476Y80709523D01*
X55542857Y80804761D01*
X55447619Y80900000D01*
X55304761Y80947619D01*
X55209523Y80947619D01*
X55066666Y80900000D01*
X55019047Y80852380D01*
X54066666Y79947619D02*
X54638095Y79947619D01*
X54352380Y79947619D02*
X54352380Y80947619D01*
X54447619Y80804761D01*
X54542857Y80709523D01*
X54638095Y80661904D01*
X53447619Y80947619D02*
X53352380Y80947619D01*
X53257142Y80900000D01*
X53209523Y80852380D01*
X53161904Y80757142D01*
X53114285Y80566666D01*
X53114285Y80328571D01*
X53161904Y80138095D01*
X53209523Y80042857D01*
X53257142Y79995238D01*
X53352380Y79947619D01*
X53447619Y79947619D01*
X53542857Y79995238D01*
X53590476Y80042857D01*
X53638095Y80138095D01*
X53685714Y80328571D01*
X53685714Y80566666D01*
X53638095Y80757142D01*
X53590476Y80852380D01*
X53542857Y80900000D01*
X53447619Y80947619D01*
X52257142Y80947619D02*
X52447619Y80947619D01*
X52542857Y80900000D01*
X52590476Y80852380D01*
X52685714Y80709523D01*
X52733333Y80519047D01*
X52733333Y80138095D01*
X52685714Y80042857D01*
X52638095Y79995238D01*
X52542857Y79947619D01*
X52352380Y79947619D01*
X52257142Y79995238D01*
X52209523Y80042857D01*
X52161904Y80138095D01*
X52161904Y80376190D01*
X52209523Y80471428D01*
X52257142Y80519047D01*
X52352380Y80566666D01*
X52542857Y80566666D01*
X52638095Y80519047D01*
X52685714Y80471428D01*
X52733333Y80376190D01*
X49119047Y77342857D02*
X49166666Y77295238D01*
X49309523Y77247619D01*
X49404761Y77247619D01*
X49547619Y77295238D01*
X49642857Y77390476D01*
X49690476Y77485714D01*
X49738095Y77676190D01*
X49738095Y77819047D01*
X49690476Y78009523D01*
X49642857Y78104761D01*
X49547619Y78200000D01*
X49404761Y78247619D01*
X49309523Y78247619D01*
X49166666Y78200000D01*
X49119047Y78152380D01*
X48166666Y77247619D02*
X48738095Y77247619D01*
X48452380Y77247619D02*
X48452380Y78247619D01*
X48547619Y78104761D01*
X48642857Y78009523D01*
X48738095Y77961904D01*
X47214285Y77247619D02*
X47785714Y77247619D01*
X47500000Y77247619D02*
X47500000Y78247619D01*
X47595238Y78104761D01*
X47690476Y78009523D01*
X47785714Y77961904D01*
X46833333Y78152380D02*
X46785714Y78200000D01*
X46690476Y78247619D01*
X46452380Y78247619D01*
X46357142Y78200000D01*
X46309523Y78152380D01*
X46261904Y78057142D01*
X46261904Y77961904D01*
X46309523Y77819047D01*
X46880952Y77247619D01*
X46261904Y77247619D01*
X55019047Y85147619D02*
X55495238Y85147619D01*
X55495238Y86147619D01*
X54161904Y85147619D02*
X54733333Y85147619D01*
X54447619Y85147619D02*
X54447619Y86147619D01*
X54542857Y86004761D01*
X54638095Y85909523D01*
X54733333Y85861904D01*
X53542857Y86147619D02*
X53447619Y86147619D01*
X53352380Y86100000D01*
X53304761Y86052380D01*
X53257142Y85957142D01*
X53209523Y85766666D01*
X53209523Y85528571D01*
X53257142Y85338095D01*
X53304761Y85242857D01*
X53352380Y85195238D01*
X53447619Y85147619D01*
X53542857Y85147619D01*
X53638095Y85195238D01*
X53685714Y85242857D01*
X53733333Y85338095D01*
X53780952Y85528571D01*
X53780952Y85766666D01*
X53733333Y85957142D01*
X53685714Y86052380D01*
X53638095Y86100000D01*
X53542857Y86147619D01*
X52257142Y85147619D02*
X52828571Y85147619D01*
X52542857Y85147619D02*
X52542857Y86147619D01*
X52638095Y86004761D01*
X52733333Y85909523D01*
X52828571Y85861904D01*
X160152380Y75819047D02*
X159676190Y76152380D01*
X160152380Y76390476D02*
X159152380Y76390476D01*
X159152380Y76009523D01*
X159200000Y75914285D01*
X159247619Y75866666D01*
X159342857Y75819047D01*
X159485714Y75819047D01*
X159580952Y75866666D01*
X159628571Y75914285D01*
X159676190Y76009523D01*
X159676190Y76390476D01*
X160152380Y74866666D02*
X160152380Y75438095D01*
X160152380Y75152380D02*
X159152380Y75152380D01*
X159295238Y75247619D01*
X159390476Y75342857D01*
X159438095Y75438095D01*
X159152380Y74247619D02*
X159152380Y74152380D01*
X159200000Y74057142D01*
X159247619Y74009523D01*
X159342857Y73961904D01*
X159533333Y73914285D01*
X159771428Y73914285D01*
X159961904Y73961904D01*
X160057142Y74009523D01*
X160104761Y74057142D01*
X160152380Y74152380D01*
X160152380Y74247619D01*
X160104761Y74342857D01*
X160057142Y74390476D01*
X159961904Y74438095D01*
X159771428Y74485714D01*
X159533333Y74485714D01*
X159342857Y74438095D01*
X159247619Y74390476D01*
X159200000Y74342857D01*
X159152380Y74247619D01*
X159152380Y73580952D02*
X159152380Y72914285D01*
X160152380Y73342857D01*
X156152380Y75819047D02*
X155676190Y76152380D01*
X156152380Y76390476D02*
X155152380Y76390476D01*
X155152380Y76009523D01*
X155200000Y75914285D01*
X155247619Y75866666D01*
X155342857Y75819047D01*
X155485714Y75819047D01*
X155580952Y75866666D01*
X155628571Y75914285D01*
X155676190Y76009523D01*
X155676190Y76390476D01*
X156152380Y74866666D02*
X156152380Y75438095D01*
X156152380Y75152380D02*
X155152380Y75152380D01*
X155295238Y75247619D01*
X155390476Y75342857D01*
X155438095Y75438095D01*
X155152380Y74247619D02*
X155152380Y74152380D01*
X155200000Y74057142D01*
X155247619Y74009523D01*
X155342857Y73961904D01*
X155533333Y73914285D01*
X155771428Y73914285D01*
X155961904Y73961904D01*
X156057142Y74009523D01*
X156104761Y74057142D01*
X156152380Y74152380D01*
X156152380Y74247619D01*
X156104761Y74342857D01*
X156057142Y74390476D01*
X155961904Y74438095D01*
X155771428Y74485714D01*
X155533333Y74485714D01*
X155342857Y74438095D01*
X155247619Y74390476D01*
X155200000Y74342857D01*
X155152380Y74247619D01*
X155580952Y73342857D02*
X155533333Y73438095D01*
X155485714Y73485714D01*
X155390476Y73533333D01*
X155342857Y73533333D01*
X155247619Y73485714D01*
X155200000Y73438095D01*
X155152380Y73342857D01*
X155152380Y73152380D01*
X155200000Y73057142D01*
X155247619Y73009523D01*
X155342857Y72961904D01*
X155390476Y72961904D01*
X155485714Y73009523D01*
X155533333Y73057142D01*
X155580952Y73152380D01*
X155580952Y73342857D01*
X155628571Y73438095D01*
X155676190Y73485714D01*
X155771428Y73533333D01*
X155961904Y73533333D01*
X156057142Y73485714D01*
X156104761Y73438095D01*
X156152380Y73342857D01*
X156152380Y73152380D01*
X156104761Y73057142D01*
X156057142Y73009523D01*
X155961904Y72961904D01*
X155771428Y72961904D01*
X155676190Y73009523D01*
X155628571Y73057142D01*
X155580952Y73152380D01*
X59919047Y79142857D02*
X59966666Y79095238D01*
X60109523Y79047619D01*
X60204761Y79047619D01*
X60347619Y79095238D01*
X60442857Y79190476D01*
X60490476Y79285714D01*
X60538095Y79476190D01*
X60538095Y79619047D01*
X60490476Y79809523D01*
X60442857Y79904761D01*
X60347619Y80000000D01*
X60204761Y80047619D01*
X60109523Y80047619D01*
X59966666Y80000000D01*
X59919047Y79952380D01*
X58966666Y79047619D02*
X59538095Y79047619D01*
X59252380Y79047619D02*
X59252380Y80047619D01*
X59347619Y79904761D01*
X59442857Y79809523D01*
X59538095Y79761904D01*
X58347619Y80047619D02*
X58252380Y80047619D01*
X58157142Y80000000D01*
X58109523Y79952380D01*
X58061904Y79857142D01*
X58014285Y79666666D01*
X58014285Y79428571D01*
X58061904Y79238095D01*
X58109523Y79142857D01*
X58157142Y79095238D01*
X58252380Y79047619D01*
X58347619Y79047619D01*
X58442857Y79095238D01*
X58490476Y79142857D01*
X58538095Y79238095D01*
X58585714Y79428571D01*
X58585714Y79666666D01*
X58538095Y79857142D01*
X58490476Y79952380D01*
X58442857Y80000000D01*
X58347619Y80047619D01*
X57442857Y79619047D02*
X57538095Y79666666D01*
X57585714Y79714285D01*
X57633333Y79809523D01*
X57633333Y79857142D01*
X57585714Y79952380D01*
X57538095Y80000000D01*
X57442857Y80047619D01*
X57252380Y80047619D01*
X57157142Y80000000D01*
X57109523Y79952380D01*
X57061904Y79857142D01*
X57061904Y79809523D01*
X57109523Y79714285D01*
X57157142Y79666666D01*
X57252380Y79619047D01*
X57442857Y79619047D01*
X57538095Y79571428D01*
X57585714Y79523809D01*
X57633333Y79428571D01*
X57633333Y79238095D01*
X57585714Y79142857D01*
X57538095Y79095238D01*
X57442857Y79047619D01*
X57252380Y79047619D01*
X57157142Y79095238D01*
X57109523Y79142857D01*
X57061904Y79238095D01*
X57061904Y79428571D01*
X57109523Y79523809D01*
X57157142Y79571428D01*
X57252380Y79619047D01*
X68657142Y77219047D02*
X68704761Y77266666D01*
X68752380Y77409523D01*
X68752380Y77504761D01*
X68704761Y77647619D01*
X68609523Y77742857D01*
X68514285Y77790476D01*
X68323809Y77838095D01*
X68180952Y77838095D01*
X67990476Y77790476D01*
X67895238Y77742857D01*
X67800000Y77647619D01*
X67752380Y77504761D01*
X67752380Y77409523D01*
X67800000Y77266666D01*
X67847619Y77219047D01*
X68752380Y76266666D02*
X68752380Y76838095D01*
X68752380Y76552380D02*
X67752380Y76552380D01*
X67895238Y76647619D01*
X67990476Y76742857D01*
X68038095Y76838095D01*
X67752380Y75647619D02*
X67752380Y75552380D01*
X67800000Y75457142D01*
X67847619Y75409523D01*
X67942857Y75361904D01*
X68133333Y75314285D01*
X68371428Y75314285D01*
X68561904Y75361904D01*
X68657142Y75409523D01*
X68704761Y75457142D01*
X68752380Y75552380D01*
X68752380Y75647619D01*
X68704761Y75742857D01*
X68657142Y75790476D01*
X68561904Y75838095D01*
X68371428Y75885714D01*
X68133333Y75885714D01*
X67942857Y75838095D01*
X67847619Y75790476D01*
X67800000Y75742857D01*
X67752380Y75647619D01*
X68752380Y74838095D02*
X68752380Y74647619D01*
X68704761Y74552380D01*
X68657142Y74504761D01*
X68514285Y74409523D01*
X68323809Y74361904D01*
X67942857Y74361904D01*
X67847619Y74409523D01*
X67800000Y74457142D01*
X67752380Y74552380D01*
X67752380Y74742857D01*
X67800000Y74838095D01*
X67847619Y74885714D01*
X67942857Y74933333D01*
X68180952Y74933333D01*
X68276190Y74885714D01*
X68323809Y74838095D01*
X68371428Y74742857D01*
X68371428Y74552380D01*
X68323809Y74457142D01*
X68276190Y74409523D01*
X68180952Y74361904D01*
X62719047Y69642857D02*
X62766666Y69595238D01*
X62909523Y69547619D01*
X63004761Y69547619D01*
X63147619Y69595238D01*
X63242857Y69690476D01*
X63290476Y69785714D01*
X63338095Y69976190D01*
X63338095Y70119047D01*
X63290476Y70309523D01*
X63242857Y70404761D01*
X63147619Y70500000D01*
X63004761Y70547619D01*
X62909523Y70547619D01*
X62766666Y70500000D01*
X62719047Y70452380D01*
X61766666Y69547619D02*
X62338095Y69547619D01*
X62052380Y69547619D02*
X62052380Y70547619D01*
X62147619Y70404761D01*
X62242857Y70309523D01*
X62338095Y70261904D01*
X60814285Y69547619D02*
X61385714Y69547619D01*
X61100000Y69547619D02*
X61100000Y70547619D01*
X61195238Y70404761D01*
X61290476Y70309523D01*
X61385714Y70261904D01*
X60195238Y70547619D02*
X60100000Y70547619D01*
X60004761Y70500000D01*
X59957142Y70452380D01*
X59909523Y70357142D01*
X59861904Y70166666D01*
X59861904Y69928571D01*
X59909523Y69738095D01*
X59957142Y69642857D01*
X60004761Y69595238D01*
X60100000Y69547619D01*
X60195238Y69547619D01*
X60290476Y69595238D01*
X60338095Y69642857D01*
X60385714Y69738095D01*
X60433333Y69928571D01*
X60433333Y70166666D01*
X60385714Y70357142D01*
X60338095Y70452380D01*
X60290476Y70500000D01*
X60195238Y70547619D01*
X54557142Y78119047D02*
X54604761Y78166666D01*
X54652380Y78309523D01*
X54652380Y78404761D01*
X54604761Y78547619D01*
X54509523Y78642857D01*
X54414285Y78690476D01*
X54223809Y78738095D01*
X54080952Y78738095D01*
X53890476Y78690476D01*
X53795238Y78642857D01*
X53700000Y78547619D01*
X53652380Y78404761D01*
X53652380Y78309523D01*
X53700000Y78166666D01*
X53747619Y78119047D01*
X54652380Y77166666D02*
X54652380Y77738095D01*
X54652380Y77452380D02*
X53652380Y77452380D01*
X53795238Y77547619D01*
X53890476Y77642857D01*
X53938095Y77738095D01*
X54652380Y76214285D02*
X54652380Y76785714D01*
X54652380Y76500000D02*
X53652380Y76500000D01*
X53795238Y76595238D01*
X53890476Y76690476D01*
X53938095Y76785714D01*
X54652380Y75261904D02*
X54652380Y75833333D01*
X54652380Y75547619D02*
X53652380Y75547619D01*
X53795238Y75642857D01*
X53890476Y75738095D01*
X53938095Y75833333D01*
X67690476Y84647619D02*
X67690476Y85647619D01*
X67452380Y85647619D01*
X67309523Y85600000D01*
X67214285Y85504761D01*
X67166666Y85409523D01*
X67119047Y85219047D01*
X67119047Y85076190D01*
X67166666Y84885714D01*
X67214285Y84790476D01*
X67309523Y84695238D01*
X67452380Y84647619D01*
X67690476Y84647619D01*
X66166666Y84647619D02*
X66738095Y84647619D01*
X66452380Y84647619D02*
X66452380Y85647619D01*
X66547619Y85504761D01*
X66642857Y85409523D01*
X66738095Y85361904D01*
X65547619Y85647619D02*
X65452380Y85647619D01*
X65357142Y85600000D01*
X65309523Y85552380D01*
X65261904Y85457142D01*
X65214285Y85266666D01*
X65214285Y85028571D01*
X65261904Y84838095D01*
X65309523Y84742857D01*
X65357142Y84695238D01*
X65452380Y84647619D01*
X65547619Y84647619D01*
X65642857Y84695238D01*
X65690476Y84742857D01*
X65738095Y84838095D01*
X65785714Y85028571D01*
X65785714Y85266666D01*
X65738095Y85457142D01*
X65690476Y85552380D01*
X65642857Y85600000D01*
X65547619Y85647619D01*
X64261904Y84647619D02*
X64833333Y84647619D01*
X64547619Y84647619D02*
X64547619Y85647619D01*
X64642857Y85504761D01*
X64738095Y85409523D01*
X64833333Y85361904D01*
X57128571Y74047619D02*
X57128571Y75047619D01*
X56080952Y74142857D02*
X56128571Y74095238D01*
X56271428Y74047619D01*
X56366666Y74047619D01*
X56509523Y74095238D01*
X56604761Y74190476D01*
X56652380Y74285714D01*
X56700000Y74476190D01*
X56700000Y74619047D01*
X56652380Y74809523D01*
X56604761Y74904761D01*
X56509523Y75000000D01*
X56366666Y75047619D01*
X56271428Y75047619D01*
X56128571Y75000000D01*
X56080952Y74952380D01*
X55128571Y74047619D02*
X55700000Y74047619D01*
X55414285Y74047619D02*
X55414285Y75047619D01*
X55509523Y74904761D01*
X55604761Y74809523D01*
X55700000Y74761904D01*
X54509523Y75047619D02*
X54414285Y75047619D01*
X54319047Y75000000D01*
X54271428Y74952380D01*
X54223809Y74857142D01*
X54176190Y74666666D01*
X54176190Y74428571D01*
X54223809Y74238095D01*
X54271428Y74142857D01*
X54319047Y74095238D01*
X54414285Y74047619D01*
X54509523Y74047619D01*
X54604761Y74095238D01*
X54652380Y74142857D01*
X54700000Y74238095D01*
X54747619Y74428571D01*
X54747619Y74666666D01*
X54700000Y74857142D01*
X54652380Y74952380D01*
X54604761Y75000000D01*
X54509523Y75047619D01*
X53842857Y75047619D02*
X53223809Y75047619D01*
X53557142Y74666666D01*
X53414285Y74666666D01*
X53319047Y74619047D01*
X53271428Y74571428D01*
X53223809Y74476190D01*
X53223809Y74238095D01*
X53271428Y74142857D01*
X53319047Y74095238D01*
X53414285Y74047619D01*
X53700000Y74047619D01*
X53795238Y74095238D01*
X53842857Y74142857D01*
X53228571Y67947619D02*
X53228571Y68947619D01*
X52180952Y68042857D02*
X52228571Y67995238D01*
X52371428Y67947619D01*
X52466666Y67947619D01*
X52609523Y67995238D01*
X52704761Y68090476D01*
X52752380Y68185714D01*
X52800000Y68376190D01*
X52800000Y68519047D01*
X52752380Y68709523D01*
X52704761Y68804761D01*
X52609523Y68900000D01*
X52466666Y68947619D01*
X52371428Y68947619D01*
X52228571Y68900000D01*
X52180952Y68852380D01*
X51228571Y67947619D02*
X51800000Y67947619D01*
X51514285Y67947619D02*
X51514285Y68947619D01*
X51609523Y68804761D01*
X51704761Y68709523D01*
X51800000Y68661904D01*
X50609523Y68947619D02*
X50514285Y68947619D01*
X50419047Y68900000D01*
X50371428Y68852380D01*
X50323809Y68757142D01*
X50276190Y68566666D01*
X50276190Y68328571D01*
X50323809Y68138095D01*
X50371428Y68042857D01*
X50419047Y67995238D01*
X50514285Y67947619D01*
X50609523Y67947619D01*
X50704761Y67995238D01*
X50752380Y68042857D01*
X50800000Y68138095D01*
X50847619Y68328571D01*
X50847619Y68566666D01*
X50800000Y68757142D01*
X50752380Y68852380D01*
X50704761Y68900000D01*
X50609523Y68947619D01*
X49895238Y68852380D02*
X49847619Y68900000D01*
X49752380Y68947619D01*
X49514285Y68947619D01*
X49419047Y68900000D01*
X49371428Y68852380D01*
X49323809Y68757142D01*
X49323809Y68661904D01*
X49371428Y68519047D01*
X49942857Y67947619D01*
X49323809Y67947619D01*
X60452380Y83219047D02*
X59976190Y83552380D01*
X60452380Y83790476D02*
X59452380Y83790476D01*
X59452380Y83409523D01*
X59500000Y83314285D01*
X59547619Y83266666D01*
X59642857Y83219047D01*
X59785714Y83219047D01*
X59880952Y83266666D01*
X59928571Y83314285D01*
X59976190Y83409523D01*
X59976190Y83790476D01*
X60452380Y82266666D02*
X60452380Y82838095D01*
X60452380Y82552380D02*
X59452380Y82552380D01*
X59595238Y82647619D01*
X59690476Y82742857D01*
X59738095Y82838095D01*
X60452380Y81314285D02*
X60452380Y81885714D01*
X60452380Y81600000D02*
X59452380Y81600000D01*
X59595238Y81695238D01*
X59690476Y81790476D01*
X59738095Y81885714D01*
X59785714Y80457142D02*
X60452380Y80457142D01*
X59404761Y80695238D02*
X60119047Y80933333D01*
X60119047Y80314285D01*
X67019047Y79147619D02*
X67352380Y79623809D01*
X67590476Y79147619D02*
X67590476Y80147619D01*
X67209523Y80147619D01*
X67114285Y80100000D01*
X67066666Y80052380D01*
X67019047Y79957142D01*
X67019047Y79814285D01*
X67066666Y79719047D01*
X67114285Y79671428D01*
X67209523Y79623809D01*
X67590476Y79623809D01*
X66066666Y79147619D02*
X66638095Y79147619D01*
X66352380Y79147619D02*
X66352380Y80147619D01*
X66447619Y80004761D01*
X66542857Y79909523D01*
X66638095Y79861904D01*
X65114285Y79147619D02*
X65685714Y79147619D01*
X65400000Y79147619D02*
X65400000Y80147619D01*
X65495238Y80004761D01*
X65590476Y79909523D01*
X65685714Y79861904D01*
X64257142Y80147619D02*
X64447619Y80147619D01*
X64542857Y80100000D01*
X64590476Y80052380D01*
X64685714Y79909523D01*
X64733333Y79719047D01*
X64733333Y79338095D01*
X64685714Y79242857D01*
X64638095Y79195238D01*
X64542857Y79147619D01*
X64352380Y79147619D01*
X64257142Y79195238D01*
X64209523Y79242857D01*
X64161904Y79338095D01*
X64161904Y79576190D01*
X64209523Y79671428D01*
X64257142Y79719047D01*
X64352380Y79766666D01*
X64542857Y79766666D01*
X64638095Y79719047D01*
X64685714Y79671428D01*
X64733333Y79576190D01*
X67019047Y72047619D02*
X67352380Y72523809D01*
X67590476Y72047619D02*
X67590476Y73047619D01*
X67209523Y73047619D01*
X67114285Y73000000D01*
X67066666Y72952380D01*
X67019047Y72857142D01*
X67019047Y72714285D01*
X67066666Y72619047D01*
X67114285Y72571428D01*
X67209523Y72523809D01*
X67590476Y72523809D01*
X66066666Y72047619D02*
X66638095Y72047619D01*
X66352380Y72047619D02*
X66352380Y73047619D01*
X66447619Y72904761D01*
X66542857Y72809523D01*
X66638095Y72761904D01*
X65114285Y72047619D02*
X65685714Y72047619D01*
X65400000Y72047619D02*
X65400000Y73047619D01*
X65495238Y72904761D01*
X65590476Y72809523D01*
X65685714Y72761904D01*
X64542857Y72619047D02*
X64638095Y72666666D01*
X64685714Y72714285D01*
X64733333Y72809523D01*
X64733333Y72857142D01*
X64685714Y72952380D01*
X64638095Y73000000D01*
X64542857Y73047619D01*
X64352380Y73047619D01*
X64257142Y73000000D01*
X64209523Y72952380D01*
X64161904Y72857142D01*
X64161904Y72809523D01*
X64209523Y72714285D01*
X64257142Y72666666D01*
X64352380Y72619047D01*
X64542857Y72619047D01*
X64638095Y72571428D01*
X64685714Y72523809D01*
X64733333Y72428571D01*
X64733333Y72238095D01*
X64685714Y72142857D01*
X64638095Y72095238D01*
X64542857Y72047619D01*
X64352380Y72047619D01*
X64257142Y72095238D01*
X64209523Y72142857D01*
X64161904Y72238095D01*
X64161904Y72428571D01*
X64209523Y72523809D01*
X64257142Y72571428D01*
X64352380Y72619047D01*
X62619047Y71947619D02*
X62952380Y72423809D01*
X63190476Y71947619D02*
X63190476Y72947619D01*
X62809523Y72947619D01*
X62714285Y72900000D01*
X62666666Y72852380D01*
X62619047Y72757142D01*
X62619047Y72614285D01*
X62666666Y72519047D01*
X62714285Y72471428D01*
X62809523Y72423809D01*
X63190476Y72423809D01*
X61666666Y71947619D02*
X62238095Y71947619D01*
X61952380Y71947619D02*
X61952380Y72947619D01*
X62047619Y72804761D01*
X62142857Y72709523D01*
X62238095Y72661904D01*
X60714285Y71947619D02*
X61285714Y71947619D01*
X61000000Y71947619D02*
X61000000Y72947619D01*
X61095238Y72804761D01*
X61190476Y72709523D01*
X61285714Y72661904D01*
X60380952Y72947619D02*
X59761904Y72947619D01*
X60095238Y72566666D01*
X59952380Y72566666D01*
X59857142Y72519047D01*
X59809523Y72471428D01*
X59761904Y72376190D01*
X59761904Y72138095D01*
X59809523Y72042857D01*
X59857142Y71995238D01*
X59952380Y71947619D01*
X60238095Y71947619D01*
X60333333Y71995238D01*
X60380952Y72042857D01*
X62619047Y70747619D02*
X62952380Y71223809D01*
X63190476Y70747619D02*
X63190476Y71747619D01*
X62809523Y71747619D01*
X62714285Y71700000D01*
X62666666Y71652380D01*
X62619047Y71557142D01*
X62619047Y71414285D01*
X62666666Y71319047D01*
X62714285Y71271428D01*
X62809523Y71223809D01*
X63190476Y71223809D01*
X61666666Y70747619D02*
X62238095Y70747619D01*
X61952380Y70747619D02*
X61952380Y71747619D01*
X62047619Y71604761D01*
X62142857Y71509523D01*
X62238095Y71461904D01*
X60714285Y70747619D02*
X61285714Y70747619D01*
X61000000Y70747619D02*
X61000000Y71747619D01*
X61095238Y71604761D01*
X61190476Y71509523D01*
X61285714Y71461904D01*
X60380952Y71747619D02*
X59714285Y71747619D01*
X60142857Y70747619D01*
X59019047Y71947619D02*
X59352380Y72423809D01*
X59590476Y71947619D02*
X59590476Y72947619D01*
X59209523Y72947619D01*
X59114285Y72900000D01*
X59066666Y72852380D01*
X59019047Y72757142D01*
X59019047Y72614285D01*
X59066666Y72519047D01*
X59114285Y72471428D01*
X59209523Y72423809D01*
X59590476Y72423809D01*
X58066666Y71947619D02*
X58638095Y71947619D01*
X58352380Y71947619D02*
X58352380Y72947619D01*
X58447619Y72804761D01*
X58542857Y72709523D01*
X58638095Y72661904D01*
X57114285Y71947619D02*
X57685714Y71947619D01*
X57400000Y71947619D02*
X57400000Y72947619D01*
X57495238Y72804761D01*
X57590476Y72709523D01*
X57685714Y72661904D01*
X56209523Y72947619D02*
X56685714Y72947619D01*
X56733333Y72471428D01*
X56685714Y72519047D01*
X56590476Y72566666D01*
X56352380Y72566666D01*
X56257142Y72519047D01*
X56209523Y72471428D01*
X56161904Y72376190D01*
X56161904Y72138095D01*
X56209523Y72042857D01*
X56257142Y71995238D01*
X56352380Y71947619D01*
X56590476Y71947619D01*
X56685714Y71995238D01*
X56733333Y72042857D01*
X42557142Y80519047D02*
X42604761Y80566666D01*
X42652380Y80709523D01*
X42652380Y80804761D01*
X42604761Y80947619D01*
X42509523Y81042857D01*
X42414285Y81090476D01*
X42223809Y81138095D01*
X42080952Y81138095D01*
X41890476Y81090476D01*
X41795238Y81042857D01*
X41700000Y80947619D01*
X41652380Y80804761D01*
X41652380Y80709523D01*
X41700000Y80566666D01*
X41747619Y80519047D01*
X42652380Y79566666D02*
X42652380Y80138095D01*
X42652380Y79852380D02*
X41652380Y79852380D01*
X41795238Y79947619D01*
X41890476Y80042857D01*
X41938095Y80138095D01*
X41652380Y78947619D02*
X41652380Y78852380D01*
X41700000Y78757142D01*
X41747619Y78709523D01*
X41842857Y78661904D01*
X42033333Y78614285D01*
X42271428Y78614285D01*
X42461904Y78661904D01*
X42557142Y78709523D01*
X42604761Y78757142D01*
X42652380Y78852380D01*
X42652380Y78947619D01*
X42604761Y79042857D01*
X42557142Y79090476D01*
X42461904Y79138095D01*
X42271428Y79185714D01*
X42033333Y79185714D01*
X41842857Y79138095D01*
X41747619Y79090476D01*
X41700000Y79042857D01*
X41652380Y78947619D01*
X41652380Y78280952D02*
X41652380Y77614285D01*
X42652380Y78042857D01*
X42652380Y84019047D02*
X42176190Y84352380D01*
X42652380Y84590476D02*
X41652380Y84590476D01*
X41652380Y84209523D01*
X41700000Y84114285D01*
X41747619Y84066666D01*
X41842857Y84019047D01*
X41985714Y84019047D01*
X42080952Y84066666D01*
X42128571Y84114285D01*
X42176190Y84209523D01*
X42176190Y84590476D01*
X42652380Y83066666D02*
X42652380Y83638095D01*
X42652380Y83352380D02*
X41652380Y83352380D01*
X41795238Y83447619D01*
X41890476Y83542857D01*
X41938095Y83638095D01*
X42652380Y82114285D02*
X42652380Y82685714D01*
X42652380Y82400000D02*
X41652380Y82400000D01*
X41795238Y82495238D01*
X41890476Y82590476D01*
X41938095Y82685714D01*
X42652380Y81161904D02*
X42652380Y81733333D01*
X42652380Y81447619D02*
X41652380Y81447619D01*
X41795238Y81542857D01*
X41890476Y81638095D01*
X41938095Y81733333D01*
X66119047Y60842857D02*
X66166666Y60795238D01*
X66309523Y60747619D01*
X66404761Y60747619D01*
X66547619Y60795238D01*
X66642857Y60890476D01*
X66690476Y60985714D01*
X66738095Y61176190D01*
X66738095Y61319047D01*
X66690476Y61509523D01*
X66642857Y61604761D01*
X66547619Y61700000D01*
X66404761Y61747619D01*
X66309523Y61747619D01*
X66166666Y61700000D01*
X66119047Y61652380D01*
X65166666Y60747619D02*
X65738095Y60747619D01*
X65452380Y60747619D02*
X65452380Y61747619D01*
X65547619Y61604761D01*
X65642857Y61509523D01*
X65738095Y61461904D01*
X64547619Y61747619D02*
X64452380Y61747619D01*
X64357142Y61700000D01*
X64309523Y61652380D01*
X64261904Y61557142D01*
X64214285Y61366666D01*
X64214285Y61128571D01*
X64261904Y60938095D01*
X64309523Y60842857D01*
X64357142Y60795238D01*
X64452380Y60747619D01*
X64547619Y60747619D01*
X64642857Y60795238D01*
X64690476Y60842857D01*
X64738095Y60938095D01*
X64785714Y61128571D01*
X64785714Y61366666D01*
X64738095Y61557142D01*
X64690476Y61652380D01*
X64642857Y61700000D01*
X64547619Y61747619D01*
X63880952Y61747619D02*
X63261904Y61747619D01*
X63595238Y61366666D01*
X63452380Y61366666D01*
X63357142Y61319047D01*
X63309523Y61271428D01*
X63261904Y61176190D01*
X63261904Y60938095D01*
X63309523Y60842857D01*
X63357142Y60795238D01*
X63452380Y60747619D01*
X63738095Y60747619D01*
X63833333Y60795238D01*
X63880952Y60842857D01*
X63052380Y69328571D02*
X62052380Y69328571D01*
X62957142Y68280952D02*
X63004761Y68328571D01*
X63052380Y68471428D01*
X63052380Y68566666D01*
X63004761Y68709523D01*
X62909523Y68804761D01*
X62814285Y68852380D01*
X62623809Y68900000D01*
X62480952Y68900000D01*
X62290476Y68852380D01*
X62195238Y68804761D01*
X62100000Y68709523D01*
X62052380Y68566666D01*
X62052380Y68471428D01*
X62100000Y68328571D01*
X62147619Y68280952D01*
X63052380Y67328571D02*
X63052380Y67900000D01*
X63052380Y67614285D02*
X62052380Y67614285D01*
X62195238Y67709523D01*
X62290476Y67804761D01*
X62338095Y67900000D01*
X62052380Y66709523D02*
X62052380Y66614285D01*
X62100000Y66519047D01*
X62147619Y66471428D01*
X62242857Y66423809D01*
X62433333Y66376190D01*
X62671428Y66376190D01*
X62861904Y66423809D01*
X62957142Y66471428D01*
X63004761Y66519047D01*
X63052380Y66614285D01*
X63052380Y66709523D01*
X63004761Y66804761D01*
X62957142Y66852380D01*
X62861904Y66900000D01*
X62671428Y66947619D01*
X62433333Y66947619D01*
X62242857Y66900000D01*
X62147619Y66852380D01*
X62100000Y66804761D01*
X62052380Y66709523D01*
X63052380Y65423809D02*
X63052380Y65995238D01*
X63052380Y65709523D02*
X62052380Y65709523D01*
X62195238Y65804761D01*
X62290476Y65900000D01*
X62338095Y65995238D01*
X46252380Y68619047D02*
X45776190Y68952380D01*
X46252380Y69190476D02*
X45252380Y69190476D01*
X45252380Y68809523D01*
X45300000Y68714285D01*
X45347619Y68666666D01*
X45442857Y68619047D01*
X45585714Y68619047D01*
X45680952Y68666666D01*
X45728571Y68714285D01*
X45776190Y68809523D01*
X45776190Y69190476D01*
X46252380Y67666666D02*
X46252380Y68238095D01*
X46252380Y67952380D02*
X45252380Y67952380D01*
X45395238Y68047619D01*
X45490476Y68142857D01*
X45538095Y68238095D01*
X46252380Y66714285D02*
X46252380Y67285714D01*
X46252380Y67000000D02*
X45252380Y67000000D01*
X45395238Y67095238D01*
X45490476Y67190476D01*
X45538095Y67285714D01*
X45347619Y66333333D02*
X45300000Y66285714D01*
X45252380Y66190476D01*
X45252380Y65952380D01*
X45300000Y65857142D01*
X45347619Y65809523D01*
X45442857Y65761904D01*
X45538095Y65761904D01*
X45680952Y65809523D01*
X46252380Y66380952D01*
X46252380Y65761904D01*
M02*
