G04 #@! TF.GenerationSoftware,KiCad,Pcbnew,(5.1.0-0)*
G04 #@! TF.CreationDate,2020-01-03T12:25:20+01:00*
G04 #@! TF.ProjectId,AddOnA,4164644f-6e41-42e6-9b69-6361645f7063,rev?*
G04 #@! TF.SameCoordinates,Original*
G04 #@! TF.FileFunction,Soldermask,Top*
G04 #@! TF.FilePolarity,Negative*
%FSLAX46Y46*%
G04 Gerber Fmt 4.6, Leading zero omitted, Abs format (unit mm)*
G04 Created by KiCad (PCBNEW (5.1.0-0)) date 2020-01-03 12:25:20*
%MOMM*%
%LPD*%
G04 APERTURE LIST*
%ADD10C,0.100000*%
G04 APERTURE END LIST*
D10*
G36*
X27150000Y51850000D02*
G01*
X25050000Y51850000D01*
X25050000Y53950000D01*
X27150000Y53950000D01*
X27150000Y51850000D01*
X27150000Y51850000D01*
G37*
G36*
X23688707Y53942403D02*
G01*
X23765836Y53934807D01*
X23963762Y53874767D01*
X23963765Y53874766D01*
X24146170Y53777268D01*
X24306055Y53646055D01*
X24437268Y53486170D01*
X24534766Y53303765D01*
X24534767Y53303762D01*
X24594807Y53105836D01*
X24615080Y52900000D01*
X24594807Y52694164D01*
X24534767Y52496238D01*
X24534766Y52496235D01*
X24437268Y52313830D01*
X24306055Y52153945D01*
X24146170Y52022732D01*
X23963765Y51925234D01*
X23963762Y51925233D01*
X23765836Y51865193D01*
X23688707Y51857596D01*
X23611580Y51850000D01*
X23508420Y51850000D01*
X23431293Y51857596D01*
X23354164Y51865193D01*
X23156238Y51925233D01*
X23156235Y51925234D01*
X22973830Y52022732D01*
X22813945Y52153945D01*
X22682732Y52313830D01*
X22585234Y52496235D01*
X22585233Y52496238D01*
X22525193Y52694164D01*
X22504920Y52900000D01*
X22525193Y53105836D01*
X22585233Y53303762D01*
X22585234Y53303765D01*
X22682732Y53486170D01*
X22813945Y53646055D01*
X22973830Y53777268D01*
X23156235Y53874766D01*
X23156238Y53874767D01*
X23354164Y53934807D01*
X23431293Y53942403D01*
X23508420Y53950000D01*
X23611580Y53950000D01*
X23688707Y53942403D01*
X23688707Y53942403D01*
G37*
G36*
X21148707Y53942403D02*
G01*
X21225836Y53934807D01*
X21423762Y53874767D01*
X21423765Y53874766D01*
X21606170Y53777268D01*
X21766055Y53646055D01*
X21897268Y53486170D01*
X21994766Y53303765D01*
X21994767Y53303762D01*
X22054807Y53105836D01*
X22075080Y52900000D01*
X22054807Y52694164D01*
X21994767Y52496238D01*
X21994766Y52496235D01*
X21897268Y52313830D01*
X21766055Y52153945D01*
X21606170Y52022732D01*
X21423765Y51925234D01*
X21423762Y51925233D01*
X21225836Y51865193D01*
X21148707Y51857596D01*
X21071580Y51850000D01*
X20968420Y51850000D01*
X20891293Y51857596D01*
X20814164Y51865193D01*
X20616238Y51925233D01*
X20616235Y51925234D01*
X20433830Y52022732D01*
X20273945Y52153945D01*
X20142732Y52313830D01*
X20045234Y52496235D01*
X20045233Y52496238D01*
X19985193Y52694164D01*
X19964920Y52900000D01*
X19985193Y53105836D01*
X20045233Y53303762D01*
X20045234Y53303765D01*
X20142732Y53486170D01*
X20273945Y53646055D01*
X20433830Y53777268D01*
X20616235Y53874766D01*
X20616238Y53874767D01*
X20814164Y53934807D01*
X20891293Y53942403D01*
X20968420Y53950000D01*
X21071580Y53950000D01*
X21148707Y53942403D01*
X21148707Y53942403D01*
G37*
G36*
X18608707Y53942403D02*
G01*
X18685836Y53934807D01*
X18883762Y53874767D01*
X18883765Y53874766D01*
X19066170Y53777268D01*
X19226055Y53646055D01*
X19357268Y53486170D01*
X19454766Y53303765D01*
X19454767Y53303762D01*
X19514807Y53105836D01*
X19535080Y52900000D01*
X19514807Y52694164D01*
X19454767Y52496238D01*
X19454766Y52496235D01*
X19357268Y52313830D01*
X19226055Y52153945D01*
X19066170Y52022732D01*
X18883765Y51925234D01*
X18883762Y51925233D01*
X18685836Y51865193D01*
X18608707Y51857596D01*
X18531580Y51850000D01*
X18428420Y51850000D01*
X18351293Y51857596D01*
X18274164Y51865193D01*
X18076238Y51925233D01*
X18076235Y51925234D01*
X17893830Y52022732D01*
X17733945Y52153945D01*
X17602732Y52313830D01*
X17505234Y52496235D01*
X17505233Y52496238D01*
X17445193Y52694164D01*
X17424920Y52900000D01*
X17445193Y53105836D01*
X17505233Y53303762D01*
X17505234Y53303765D01*
X17602732Y53486170D01*
X17733945Y53646055D01*
X17893830Y53777268D01*
X18076235Y53874766D01*
X18076238Y53874767D01*
X18274164Y53934807D01*
X18351293Y53942403D01*
X18428420Y53950000D01*
X18531580Y53950000D01*
X18608707Y53942403D01*
X18608707Y53942403D01*
G37*
G36*
X16068707Y53942403D02*
G01*
X16145836Y53934807D01*
X16343762Y53874767D01*
X16343765Y53874766D01*
X16526170Y53777268D01*
X16686055Y53646055D01*
X16817268Y53486170D01*
X16914766Y53303765D01*
X16914767Y53303762D01*
X16974807Y53105836D01*
X16995080Y52900000D01*
X16974807Y52694164D01*
X16914767Y52496238D01*
X16914766Y52496235D01*
X16817268Y52313830D01*
X16686055Y52153945D01*
X16526170Y52022732D01*
X16343765Y51925234D01*
X16343762Y51925233D01*
X16145836Y51865193D01*
X16068707Y51857596D01*
X15991580Y51850000D01*
X15888420Y51850000D01*
X15811293Y51857596D01*
X15734164Y51865193D01*
X15536238Y51925233D01*
X15536235Y51925234D01*
X15353830Y52022732D01*
X15193945Y52153945D01*
X15062732Y52313830D01*
X14965234Y52496235D01*
X14965233Y52496238D01*
X14905193Y52694164D01*
X14884920Y52900000D01*
X14905193Y53105836D01*
X14965233Y53303762D01*
X14965234Y53303765D01*
X15062732Y53486170D01*
X15193945Y53646055D01*
X15353830Y53777268D01*
X15536235Y53874766D01*
X15536238Y53874767D01*
X15734164Y53934807D01*
X15811293Y53942403D01*
X15888420Y53950000D01*
X15991580Y53950000D01*
X16068707Y53942403D01*
X16068707Y53942403D01*
G37*
G36*
X60990240Y55322727D02*
G01*
X61183802Y55242551D01*
X61358005Y55126152D01*
X61506152Y54978005D01*
X61622551Y54803802D01*
X61702727Y54610240D01*
X61743600Y54404757D01*
X61743600Y54195243D01*
X61702727Y53989760D01*
X61622551Y53796198D01*
X61506152Y53621995D01*
X61358005Y53473848D01*
X61183802Y53357449D01*
X60990240Y53277273D01*
X60784757Y53236400D01*
X60575243Y53236400D01*
X60369760Y53277273D01*
X60176198Y53357449D01*
X60001995Y53473848D01*
X59853848Y53621995D01*
X59737449Y53796198D01*
X59657273Y53989760D01*
X59616400Y54195243D01*
X59616400Y54404757D01*
X59657273Y54610240D01*
X59737449Y54803802D01*
X59853848Y54978005D01*
X60001995Y55126152D01*
X60176198Y55242551D01*
X60369760Y55322727D01*
X60575243Y55363600D01*
X60784757Y55363600D01*
X60990240Y55322727D01*
X60990240Y55322727D01*
G37*
G36*
X58450240Y55322727D02*
G01*
X58643802Y55242551D01*
X58818005Y55126152D01*
X58966152Y54978005D01*
X59082551Y54803802D01*
X59162727Y54610240D01*
X59203600Y54404757D01*
X59203600Y54195243D01*
X59162727Y53989760D01*
X59082551Y53796198D01*
X58966152Y53621995D01*
X58818005Y53473848D01*
X58643802Y53357449D01*
X58450240Y53277273D01*
X58244757Y53236400D01*
X58035243Y53236400D01*
X57829760Y53277273D01*
X57636198Y53357449D01*
X57461995Y53473848D01*
X57313848Y53621995D01*
X57197449Y53796198D01*
X57117273Y53989760D01*
X57076400Y54195243D01*
X57076400Y54404757D01*
X57117273Y54610240D01*
X57197449Y54803802D01*
X57313848Y54978005D01*
X57461995Y55126152D01*
X57636198Y55242551D01*
X57829760Y55322727D01*
X58035243Y55363600D01*
X58244757Y55363600D01*
X58450240Y55322727D01*
X58450240Y55322727D01*
G37*
G36*
X56663600Y53236400D02*
G01*
X54536400Y53236400D01*
X54536400Y55363600D01*
X56663600Y55363600D01*
X56663600Y53236400D01*
X56663600Y53236400D01*
G37*
G36*
X63530240Y55322727D02*
G01*
X63723802Y55242551D01*
X63898005Y55126152D01*
X64046152Y54978005D01*
X64162551Y54803802D01*
X64242727Y54610240D01*
X64283600Y54404757D01*
X64283600Y54195243D01*
X64242727Y53989760D01*
X64162551Y53796198D01*
X64046152Y53621995D01*
X63898005Y53473848D01*
X63723802Y53357449D01*
X63530240Y53277273D01*
X63324757Y53236400D01*
X63115243Y53236400D01*
X62909760Y53277273D01*
X62716198Y53357449D01*
X62541995Y53473848D01*
X62393848Y53621995D01*
X62277449Y53796198D01*
X62197273Y53989760D01*
X62156400Y54195243D01*
X62156400Y54404757D01*
X62197273Y54610240D01*
X62277449Y54803802D01*
X62393848Y54978005D01*
X62541995Y55126152D01*
X62716198Y55242551D01*
X62909760Y55322727D01*
X63115243Y55363600D01*
X63324757Y55363600D01*
X63530240Y55322727D01*
X63530240Y55322727D01*
G37*
G36*
X66070240Y55322727D02*
G01*
X66263802Y55242551D01*
X66438005Y55126152D01*
X66586152Y54978005D01*
X66702551Y54803802D01*
X66782727Y54610240D01*
X66823600Y54404757D01*
X66823600Y54195243D01*
X66782727Y53989760D01*
X66702551Y53796198D01*
X66586152Y53621995D01*
X66438005Y53473848D01*
X66263802Y53357449D01*
X66070240Y53277273D01*
X65864757Y53236400D01*
X65655243Y53236400D01*
X65449760Y53277273D01*
X65256198Y53357449D01*
X65081995Y53473848D01*
X64933848Y53621995D01*
X64817449Y53796198D01*
X64737273Y53989760D01*
X64696400Y54195243D01*
X64696400Y54404757D01*
X64737273Y54610240D01*
X64817449Y54803802D01*
X64933848Y54978005D01*
X65081995Y55126152D01*
X65256198Y55242551D01*
X65449760Y55322727D01*
X65655243Y55363600D01*
X65864757Y55363600D01*
X66070240Y55322727D01*
X66070240Y55322727D01*
G37*
G36*
X68610240Y55322727D02*
G01*
X68803802Y55242551D01*
X68978005Y55126152D01*
X69126152Y54978005D01*
X69242551Y54803802D01*
X69322727Y54610240D01*
X69363600Y54404757D01*
X69363600Y54195243D01*
X69322727Y53989760D01*
X69242551Y53796198D01*
X69126152Y53621995D01*
X68978005Y53473848D01*
X68803802Y53357449D01*
X68610240Y53277273D01*
X68404757Y53236400D01*
X68195243Y53236400D01*
X67989760Y53277273D01*
X67796198Y53357449D01*
X67621995Y53473848D01*
X67473848Y53621995D01*
X67357449Y53796198D01*
X67277273Y53989760D01*
X67236400Y54195243D01*
X67236400Y54404757D01*
X67277273Y54610240D01*
X67357449Y54803802D01*
X67473848Y54978005D01*
X67621995Y55126152D01*
X67796198Y55242551D01*
X67989760Y55322727D01*
X68195243Y55363600D01*
X68404757Y55363600D01*
X68610240Y55322727D01*
X68610240Y55322727D01*
G37*
G36*
X71150240Y55322727D02*
G01*
X71343802Y55242551D01*
X71518005Y55126152D01*
X71666152Y54978005D01*
X71782551Y54803802D01*
X71862727Y54610240D01*
X71903600Y54404757D01*
X71903600Y54195243D01*
X71862727Y53989760D01*
X71782551Y53796198D01*
X71666152Y53621995D01*
X71518005Y53473848D01*
X71343802Y53357449D01*
X71150240Y53277273D01*
X70944757Y53236400D01*
X70735243Y53236400D01*
X70529760Y53277273D01*
X70336198Y53357449D01*
X70161995Y53473848D01*
X70013848Y53621995D01*
X69897449Y53796198D01*
X69817273Y53989760D01*
X69776400Y54195243D01*
X69776400Y54404757D01*
X69817273Y54610240D01*
X69897449Y54803802D01*
X70013848Y54978005D01*
X70161995Y55126152D01*
X70336198Y55242551D01*
X70529760Y55322727D01*
X70735243Y55363600D01*
X70944757Y55363600D01*
X71150240Y55322727D01*
X71150240Y55322727D01*
G37*
G36*
X73690240Y55322727D02*
G01*
X73883802Y55242551D01*
X74058005Y55126152D01*
X74206152Y54978005D01*
X74322551Y54803802D01*
X74402727Y54610240D01*
X74443600Y54404757D01*
X74443600Y54195243D01*
X74402727Y53989760D01*
X74322551Y53796198D01*
X74206152Y53621995D01*
X74058005Y53473848D01*
X73883802Y53357449D01*
X73690240Y53277273D01*
X73484757Y53236400D01*
X73275243Y53236400D01*
X73069760Y53277273D01*
X72876198Y53357449D01*
X72701995Y53473848D01*
X72553848Y53621995D01*
X72437449Y53796198D01*
X72357273Y53989760D01*
X72316400Y54195243D01*
X72316400Y54404757D01*
X72357273Y54610240D01*
X72437449Y54803802D01*
X72553848Y54978005D01*
X72701995Y55126152D01*
X72876198Y55242551D01*
X73069760Y55322727D01*
X73275243Y55363600D01*
X73484757Y55363600D01*
X73690240Y55322727D01*
X73690240Y55322727D01*
G37*
G36*
X136208500Y55408211D02*
G01*
X136408994Y55347392D01*
X136593759Y55248633D01*
X136593762Y55248631D01*
X136593763Y55248630D01*
X136755718Y55115718D01*
X136877388Y54967461D01*
X136888633Y54953759D01*
X136987392Y54768994D01*
X137048211Y54568500D01*
X137068746Y54360000D01*
X137048211Y54151500D01*
X136987392Y53951006D01*
X136888633Y53766241D01*
X136888631Y53766238D01*
X136888630Y53766237D01*
X136755718Y53604282D01*
X136596782Y53473848D01*
X136593759Y53471367D01*
X136408994Y53372608D01*
X136208500Y53311789D01*
X136052251Y53296400D01*
X135947749Y53296400D01*
X135791500Y53311789D01*
X135591006Y53372608D01*
X135406241Y53471367D01*
X135403218Y53473848D01*
X135244282Y53604282D01*
X135111370Y53766237D01*
X135111369Y53766238D01*
X135111367Y53766241D01*
X135012608Y53951006D01*
X134951789Y54151500D01*
X134931254Y54360000D01*
X134951789Y54568500D01*
X135012608Y54768994D01*
X135111367Y54953759D01*
X135122612Y54967461D01*
X135244282Y55115718D01*
X135406237Y55248630D01*
X135406238Y55248631D01*
X135406241Y55248633D01*
X135591006Y55347392D01*
X135791500Y55408211D01*
X135947749Y55423600D01*
X136052251Y55423600D01*
X136208500Y55408211D01*
X136208500Y55408211D01*
G37*
G36*
X133668500Y55408211D02*
G01*
X133868994Y55347392D01*
X134053759Y55248633D01*
X134053762Y55248631D01*
X134053763Y55248630D01*
X134215718Y55115718D01*
X134337388Y54967461D01*
X134348633Y54953759D01*
X134447392Y54768994D01*
X134508211Y54568500D01*
X134528746Y54360000D01*
X134508211Y54151500D01*
X134447392Y53951006D01*
X134348633Y53766241D01*
X134348631Y53766238D01*
X134348630Y53766237D01*
X134215718Y53604282D01*
X134056782Y53473848D01*
X134053759Y53471367D01*
X133868994Y53372608D01*
X133668500Y53311789D01*
X133512251Y53296400D01*
X133407749Y53296400D01*
X133251500Y53311789D01*
X133051006Y53372608D01*
X132866241Y53471367D01*
X132863218Y53473848D01*
X132704282Y53604282D01*
X132571370Y53766237D01*
X132571369Y53766238D01*
X132571367Y53766241D01*
X132472608Y53951006D01*
X132411789Y54151500D01*
X132391254Y54360000D01*
X132411789Y54568500D01*
X132472608Y54768994D01*
X132571367Y54953759D01*
X132582612Y54967461D01*
X132704282Y55115718D01*
X132866237Y55248630D01*
X132866238Y55248631D01*
X132866241Y55248633D01*
X133051006Y55347392D01*
X133251500Y55408211D01*
X133407749Y55423600D01*
X133512251Y55423600D01*
X133668500Y55408211D01*
X133668500Y55408211D01*
G37*
G36*
X131128500Y55408211D02*
G01*
X131328994Y55347392D01*
X131513759Y55248633D01*
X131513762Y55248631D01*
X131513763Y55248630D01*
X131675718Y55115718D01*
X131797388Y54967461D01*
X131808633Y54953759D01*
X131907392Y54768994D01*
X131968211Y54568500D01*
X131988746Y54360000D01*
X131968211Y54151500D01*
X131907392Y53951006D01*
X131808633Y53766241D01*
X131808631Y53766238D01*
X131808630Y53766237D01*
X131675718Y53604282D01*
X131516782Y53473848D01*
X131513759Y53471367D01*
X131328994Y53372608D01*
X131128500Y53311789D01*
X130972251Y53296400D01*
X130867749Y53296400D01*
X130711500Y53311789D01*
X130511006Y53372608D01*
X130326241Y53471367D01*
X130323218Y53473848D01*
X130164282Y53604282D01*
X130031370Y53766237D01*
X130031369Y53766238D01*
X130031367Y53766241D01*
X129932608Y53951006D01*
X129871789Y54151500D01*
X129851254Y54360000D01*
X129871789Y54568500D01*
X129932608Y54768994D01*
X130031367Y54953759D01*
X130042612Y54967461D01*
X130164282Y55115718D01*
X130326237Y55248630D01*
X130326238Y55248631D01*
X130326241Y55248633D01*
X130511006Y55347392D01*
X130711500Y55408211D01*
X130867749Y55423600D01*
X130972251Y55423600D01*
X131128500Y55408211D01*
X131128500Y55408211D01*
G37*
G36*
X128588500Y55408211D02*
G01*
X128788994Y55347392D01*
X128973759Y55248633D01*
X128973762Y55248631D01*
X128973763Y55248630D01*
X129135718Y55115718D01*
X129257388Y54967461D01*
X129268633Y54953759D01*
X129367392Y54768994D01*
X129428211Y54568500D01*
X129448746Y54360000D01*
X129428211Y54151500D01*
X129367392Y53951006D01*
X129268633Y53766241D01*
X129268631Y53766238D01*
X129268630Y53766237D01*
X129135718Y53604282D01*
X128976782Y53473848D01*
X128973759Y53471367D01*
X128788994Y53372608D01*
X128588500Y53311789D01*
X128432251Y53296400D01*
X128327749Y53296400D01*
X128171500Y53311789D01*
X127971006Y53372608D01*
X127786241Y53471367D01*
X127783218Y53473848D01*
X127624282Y53604282D01*
X127491370Y53766237D01*
X127491369Y53766238D01*
X127491367Y53766241D01*
X127392608Y53951006D01*
X127331789Y54151500D01*
X127311254Y54360000D01*
X127331789Y54568500D01*
X127392608Y54768994D01*
X127491367Y54953759D01*
X127502612Y54967461D01*
X127624282Y55115718D01*
X127786237Y55248630D01*
X127786238Y55248631D01*
X127786241Y55248633D01*
X127971006Y55347392D01*
X128171500Y55408211D01*
X128327749Y55423600D01*
X128432251Y55423600D01*
X128588500Y55408211D01*
X128588500Y55408211D01*
G37*
G36*
X126048500Y55408211D02*
G01*
X126248994Y55347392D01*
X126433759Y55248633D01*
X126433762Y55248631D01*
X126433763Y55248630D01*
X126595718Y55115718D01*
X126717388Y54967461D01*
X126728633Y54953759D01*
X126827392Y54768994D01*
X126888211Y54568500D01*
X126908746Y54360000D01*
X126888211Y54151500D01*
X126827392Y53951006D01*
X126728633Y53766241D01*
X126728631Y53766238D01*
X126728630Y53766237D01*
X126595718Y53604282D01*
X126436782Y53473848D01*
X126433759Y53471367D01*
X126248994Y53372608D01*
X126048500Y53311789D01*
X125892251Y53296400D01*
X125787749Y53296400D01*
X125631500Y53311789D01*
X125431006Y53372608D01*
X125246241Y53471367D01*
X125243218Y53473848D01*
X125084282Y53604282D01*
X124951370Y53766237D01*
X124951369Y53766238D01*
X124951367Y53766241D01*
X124852608Y53951006D01*
X124791789Y54151500D01*
X124771254Y54360000D01*
X124791789Y54568500D01*
X124852608Y54768994D01*
X124951367Y54953759D01*
X124962612Y54967461D01*
X125084282Y55115718D01*
X125246237Y55248630D01*
X125246238Y55248631D01*
X125246241Y55248633D01*
X125431006Y55347392D01*
X125631500Y55408211D01*
X125787749Y55423600D01*
X125892251Y55423600D01*
X126048500Y55408211D01*
X126048500Y55408211D01*
G37*
G36*
X123508500Y55408211D02*
G01*
X123708994Y55347392D01*
X123893759Y55248633D01*
X123893762Y55248631D01*
X123893763Y55248630D01*
X124055718Y55115718D01*
X124177388Y54967461D01*
X124188633Y54953759D01*
X124287392Y54768994D01*
X124348211Y54568500D01*
X124368746Y54360000D01*
X124348211Y54151500D01*
X124287392Y53951006D01*
X124188633Y53766241D01*
X124188631Y53766238D01*
X124188630Y53766237D01*
X124055718Y53604282D01*
X123896782Y53473848D01*
X123893759Y53471367D01*
X123708994Y53372608D01*
X123508500Y53311789D01*
X123352251Y53296400D01*
X123247749Y53296400D01*
X123091500Y53311789D01*
X122891006Y53372608D01*
X122706241Y53471367D01*
X122703218Y53473848D01*
X122544282Y53604282D01*
X122411370Y53766237D01*
X122411369Y53766238D01*
X122411367Y53766241D01*
X122312608Y53951006D01*
X122251789Y54151500D01*
X122231254Y54360000D01*
X122251789Y54568500D01*
X122312608Y54768994D01*
X122411367Y54953759D01*
X122422612Y54967461D01*
X122544282Y55115718D01*
X122706237Y55248630D01*
X122706238Y55248631D01*
X122706241Y55248633D01*
X122891006Y55347392D01*
X123091500Y55408211D01*
X123247749Y55423600D01*
X123352251Y55423600D01*
X123508500Y55408211D01*
X123508500Y55408211D01*
G37*
G36*
X120968500Y55408211D02*
G01*
X121168994Y55347392D01*
X121353759Y55248633D01*
X121353762Y55248631D01*
X121353763Y55248630D01*
X121515718Y55115718D01*
X121637388Y54967461D01*
X121648633Y54953759D01*
X121747392Y54768994D01*
X121808211Y54568500D01*
X121828746Y54360000D01*
X121808211Y54151500D01*
X121747392Y53951006D01*
X121648633Y53766241D01*
X121648631Y53766238D01*
X121648630Y53766237D01*
X121515718Y53604282D01*
X121356782Y53473848D01*
X121353759Y53471367D01*
X121168994Y53372608D01*
X120968500Y53311789D01*
X120812251Y53296400D01*
X120707749Y53296400D01*
X120551500Y53311789D01*
X120351006Y53372608D01*
X120166241Y53471367D01*
X120163218Y53473848D01*
X120004282Y53604282D01*
X119871370Y53766237D01*
X119871369Y53766238D01*
X119871367Y53766241D01*
X119772608Y53951006D01*
X119711789Y54151500D01*
X119691254Y54360000D01*
X119711789Y54568500D01*
X119772608Y54768994D01*
X119871367Y54953759D01*
X119882612Y54967461D01*
X120004282Y55115718D01*
X120166237Y55248630D01*
X120166238Y55248631D01*
X120166241Y55248633D01*
X120351006Y55347392D01*
X120551500Y55408211D01*
X120707749Y55423600D01*
X120812251Y55423600D01*
X120968500Y55408211D01*
X120968500Y55408211D01*
G37*
G36*
X118428500Y55408211D02*
G01*
X118628994Y55347392D01*
X118813759Y55248633D01*
X118813762Y55248631D01*
X118813763Y55248630D01*
X118975718Y55115718D01*
X119097388Y54967461D01*
X119108633Y54953759D01*
X119207392Y54768994D01*
X119268211Y54568500D01*
X119288746Y54360000D01*
X119268211Y54151500D01*
X119207392Y53951006D01*
X119108633Y53766241D01*
X119108631Y53766238D01*
X119108630Y53766237D01*
X118975718Y53604282D01*
X118816782Y53473848D01*
X118813759Y53471367D01*
X118628994Y53372608D01*
X118428500Y53311789D01*
X118272251Y53296400D01*
X118167749Y53296400D01*
X118011500Y53311789D01*
X117811006Y53372608D01*
X117626241Y53471367D01*
X117623218Y53473848D01*
X117464282Y53604282D01*
X117331370Y53766237D01*
X117331369Y53766238D01*
X117331367Y53766241D01*
X117232608Y53951006D01*
X117171789Y54151500D01*
X117151254Y54360000D01*
X117171789Y54568500D01*
X117232608Y54768994D01*
X117331367Y54953759D01*
X117342612Y54967461D01*
X117464282Y55115718D01*
X117626237Y55248630D01*
X117626238Y55248631D01*
X117626241Y55248633D01*
X117811006Y55347392D01*
X118011500Y55408211D01*
X118167749Y55423600D01*
X118272251Y55423600D01*
X118428500Y55408211D01*
X118428500Y55408211D01*
G37*
G36*
X115888500Y55408211D02*
G01*
X116088994Y55347392D01*
X116273759Y55248633D01*
X116273762Y55248631D01*
X116273763Y55248630D01*
X116435718Y55115718D01*
X116557388Y54967461D01*
X116568633Y54953759D01*
X116667392Y54768994D01*
X116728211Y54568500D01*
X116748746Y54360000D01*
X116728211Y54151500D01*
X116667392Y53951006D01*
X116568633Y53766241D01*
X116568631Y53766238D01*
X116568630Y53766237D01*
X116435718Y53604282D01*
X116276782Y53473848D01*
X116273759Y53471367D01*
X116088994Y53372608D01*
X115888500Y53311789D01*
X115732251Y53296400D01*
X115627749Y53296400D01*
X115471500Y53311789D01*
X115271006Y53372608D01*
X115086241Y53471367D01*
X115083218Y53473848D01*
X114924282Y53604282D01*
X114791370Y53766237D01*
X114791369Y53766238D01*
X114791367Y53766241D01*
X114692608Y53951006D01*
X114631789Y54151500D01*
X114611254Y54360000D01*
X114631789Y54568500D01*
X114692608Y54768994D01*
X114791367Y54953759D01*
X114802612Y54967461D01*
X114924282Y55115718D01*
X115086237Y55248630D01*
X115086238Y55248631D01*
X115086241Y55248633D01*
X115271006Y55347392D01*
X115471500Y55408211D01*
X115627749Y55423600D01*
X115732251Y55423600D01*
X115888500Y55408211D01*
X115888500Y55408211D01*
G37*
G36*
X113348500Y55408211D02*
G01*
X113548994Y55347392D01*
X113733759Y55248633D01*
X113733762Y55248631D01*
X113733763Y55248630D01*
X113895718Y55115718D01*
X114017388Y54967461D01*
X114028633Y54953759D01*
X114127392Y54768994D01*
X114188211Y54568500D01*
X114208746Y54360000D01*
X114188211Y54151500D01*
X114127392Y53951006D01*
X114028633Y53766241D01*
X114028631Y53766238D01*
X114028630Y53766237D01*
X113895718Y53604282D01*
X113736782Y53473848D01*
X113733759Y53471367D01*
X113548994Y53372608D01*
X113348500Y53311789D01*
X113192251Y53296400D01*
X113087749Y53296400D01*
X112931500Y53311789D01*
X112731006Y53372608D01*
X112546241Y53471367D01*
X112543218Y53473848D01*
X112384282Y53604282D01*
X112251370Y53766237D01*
X112251369Y53766238D01*
X112251367Y53766241D01*
X112152608Y53951006D01*
X112091789Y54151500D01*
X112071254Y54360000D01*
X112091789Y54568500D01*
X112152608Y54768994D01*
X112251367Y54953759D01*
X112262612Y54967461D01*
X112384282Y55115718D01*
X112546237Y55248630D01*
X112546238Y55248631D01*
X112546241Y55248633D01*
X112731006Y55347392D01*
X112931500Y55408211D01*
X113087749Y55423600D01*
X113192251Y55423600D01*
X113348500Y55408211D01*
X113348500Y55408211D01*
G37*
G36*
X110808500Y55408211D02*
G01*
X111008994Y55347392D01*
X111193759Y55248633D01*
X111193762Y55248631D01*
X111193763Y55248630D01*
X111355718Y55115718D01*
X111477388Y54967461D01*
X111488633Y54953759D01*
X111587392Y54768994D01*
X111648211Y54568500D01*
X111668746Y54360000D01*
X111648211Y54151500D01*
X111587392Y53951006D01*
X111488633Y53766241D01*
X111488631Y53766238D01*
X111488630Y53766237D01*
X111355718Y53604282D01*
X111196782Y53473848D01*
X111193759Y53471367D01*
X111008994Y53372608D01*
X110808500Y53311789D01*
X110652251Y53296400D01*
X110547749Y53296400D01*
X110391500Y53311789D01*
X110191006Y53372608D01*
X110006241Y53471367D01*
X110003218Y53473848D01*
X109844282Y53604282D01*
X109711370Y53766237D01*
X109711369Y53766238D01*
X109711367Y53766241D01*
X109612608Y53951006D01*
X109551789Y54151500D01*
X109531254Y54360000D01*
X109551789Y54568500D01*
X109612608Y54768994D01*
X109711367Y54953759D01*
X109722612Y54967461D01*
X109844282Y55115718D01*
X110006237Y55248630D01*
X110006238Y55248631D01*
X110006241Y55248633D01*
X110191006Y55347392D01*
X110391500Y55408211D01*
X110547749Y55423600D01*
X110652251Y55423600D01*
X110808500Y55408211D01*
X110808500Y55408211D01*
G37*
G36*
X108268500Y55408211D02*
G01*
X108468994Y55347392D01*
X108653759Y55248633D01*
X108653762Y55248631D01*
X108653763Y55248630D01*
X108815718Y55115718D01*
X108937388Y54967461D01*
X108948633Y54953759D01*
X109047392Y54768994D01*
X109108211Y54568500D01*
X109128746Y54360000D01*
X109108211Y54151500D01*
X109047392Y53951006D01*
X108948633Y53766241D01*
X108948631Y53766238D01*
X108948630Y53766237D01*
X108815718Y53604282D01*
X108656782Y53473848D01*
X108653759Y53471367D01*
X108468994Y53372608D01*
X108268500Y53311789D01*
X108112251Y53296400D01*
X108007749Y53296400D01*
X107851500Y53311789D01*
X107651006Y53372608D01*
X107466241Y53471367D01*
X107463218Y53473848D01*
X107304282Y53604282D01*
X107171370Y53766237D01*
X107171369Y53766238D01*
X107171367Y53766241D01*
X107072608Y53951006D01*
X107011789Y54151500D01*
X106991254Y54360000D01*
X107011789Y54568500D01*
X107072608Y54768994D01*
X107171367Y54953759D01*
X107182612Y54967461D01*
X107304282Y55115718D01*
X107466237Y55248630D01*
X107466238Y55248631D01*
X107466241Y55248633D01*
X107651006Y55347392D01*
X107851500Y55408211D01*
X108007749Y55423600D01*
X108112251Y55423600D01*
X108268500Y55408211D01*
X108268500Y55408211D01*
G37*
G36*
X105728500Y55408211D02*
G01*
X105928994Y55347392D01*
X106113759Y55248633D01*
X106113762Y55248631D01*
X106113763Y55248630D01*
X106275718Y55115718D01*
X106397388Y54967461D01*
X106408633Y54953759D01*
X106507392Y54768994D01*
X106568211Y54568500D01*
X106588746Y54360000D01*
X106568211Y54151500D01*
X106507392Y53951006D01*
X106408633Y53766241D01*
X106408631Y53766238D01*
X106408630Y53766237D01*
X106275718Y53604282D01*
X106116782Y53473848D01*
X106113759Y53471367D01*
X105928994Y53372608D01*
X105728500Y53311789D01*
X105572251Y53296400D01*
X105467749Y53296400D01*
X105311500Y53311789D01*
X105111006Y53372608D01*
X104926241Y53471367D01*
X104923218Y53473848D01*
X104764282Y53604282D01*
X104631370Y53766237D01*
X104631369Y53766238D01*
X104631367Y53766241D01*
X104532608Y53951006D01*
X104471789Y54151500D01*
X104451254Y54360000D01*
X104471789Y54568500D01*
X104532608Y54768994D01*
X104631367Y54953759D01*
X104642612Y54967461D01*
X104764282Y55115718D01*
X104926237Y55248630D01*
X104926238Y55248631D01*
X104926241Y55248633D01*
X105111006Y55347392D01*
X105311500Y55408211D01*
X105467749Y55423600D01*
X105572251Y55423600D01*
X105728500Y55408211D01*
X105728500Y55408211D01*
G37*
G36*
X146928500Y55408211D02*
G01*
X147128994Y55347392D01*
X147313759Y55248633D01*
X147313762Y55248631D01*
X147313763Y55248630D01*
X147475718Y55115718D01*
X147597388Y54967461D01*
X147608633Y54953759D01*
X147707392Y54768994D01*
X147768211Y54568500D01*
X147788746Y54360000D01*
X147768211Y54151500D01*
X147707392Y53951006D01*
X147608633Y53766241D01*
X147608631Y53766238D01*
X147608630Y53766237D01*
X147475718Y53604282D01*
X147316782Y53473848D01*
X147313759Y53471367D01*
X147128994Y53372608D01*
X146928500Y53311789D01*
X146772251Y53296400D01*
X146667749Y53296400D01*
X146511500Y53311789D01*
X146311006Y53372608D01*
X146126241Y53471367D01*
X146123218Y53473848D01*
X145964282Y53604282D01*
X145831370Y53766237D01*
X145831369Y53766238D01*
X145831367Y53766241D01*
X145732608Y53951006D01*
X145671789Y54151500D01*
X145651254Y54360000D01*
X145671789Y54568500D01*
X145732608Y54768994D01*
X145831367Y54953759D01*
X145842612Y54967461D01*
X145964282Y55115718D01*
X146126237Y55248630D01*
X146126238Y55248631D01*
X146126241Y55248633D01*
X146311006Y55347392D01*
X146511500Y55408211D01*
X146667749Y55423600D01*
X146772251Y55423600D01*
X146928500Y55408211D01*
X146928500Y55408211D01*
G37*
G36*
X149468500Y55408211D02*
G01*
X149668994Y55347392D01*
X149853759Y55248633D01*
X149853762Y55248631D01*
X149853763Y55248630D01*
X150015718Y55115718D01*
X150137388Y54967461D01*
X150148633Y54953759D01*
X150247392Y54768994D01*
X150308211Y54568500D01*
X150328746Y54360000D01*
X150308211Y54151500D01*
X150247392Y53951006D01*
X150148633Y53766241D01*
X150148631Y53766238D01*
X150148630Y53766237D01*
X150015718Y53604282D01*
X149856782Y53473848D01*
X149853759Y53471367D01*
X149668994Y53372608D01*
X149468500Y53311789D01*
X149312251Y53296400D01*
X149207749Y53296400D01*
X149051500Y53311789D01*
X148851006Y53372608D01*
X148666241Y53471367D01*
X148663218Y53473848D01*
X148504282Y53604282D01*
X148371370Y53766237D01*
X148371369Y53766238D01*
X148371367Y53766241D01*
X148272608Y53951006D01*
X148211789Y54151500D01*
X148191254Y54360000D01*
X148211789Y54568500D01*
X148272608Y54768994D01*
X148371367Y54953759D01*
X148382612Y54967461D01*
X148504282Y55115718D01*
X148666237Y55248630D01*
X148666238Y55248631D01*
X148666241Y55248633D01*
X148851006Y55347392D01*
X149051500Y55408211D01*
X149207749Y55423600D01*
X149312251Y55423600D01*
X149468500Y55408211D01*
X149468500Y55408211D01*
G37*
G36*
X152008500Y55408211D02*
G01*
X152208994Y55347392D01*
X152393759Y55248633D01*
X152393762Y55248631D01*
X152393763Y55248630D01*
X152555718Y55115718D01*
X152677388Y54967461D01*
X152688633Y54953759D01*
X152787392Y54768994D01*
X152848211Y54568500D01*
X152868746Y54360000D01*
X152848211Y54151500D01*
X152787392Y53951006D01*
X152688633Y53766241D01*
X152688631Y53766238D01*
X152688630Y53766237D01*
X152555718Y53604282D01*
X152396782Y53473848D01*
X152393759Y53471367D01*
X152208994Y53372608D01*
X152008500Y53311789D01*
X151852251Y53296400D01*
X151747749Y53296400D01*
X151591500Y53311789D01*
X151391006Y53372608D01*
X151206241Y53471367D01*
X151203218Y53473848D01*
X151044282Y53604282D01*
X150911370Y53766237D01*
X150911369Y53766238D01*
X150911367Y53766241D01*
X150812608Y53951006D01*
X150751789Y54151500D01*
X150731254Y54360000D01*
X150751789Y54568500D01*
X150812608Y54768994D01*
X150911367Y54953759D01*
X150922612Y54967461D01*
X151044282Y55115718D01*
X151206237Y55248630D01*
X151206238Y55248631D01*
X151206241Y55248633D01*
X151391006Y55347392D01*
X151591500Y55408211D01*
X151747749Y55423600D01*
X151852251Y55423600D01*
X152008500Y55408211D01*
X152008500Y55408211D01*
G37*
G36*
X154548500Y55408211D02*
G01*
X154748994Y55347392D01*
X154933759Y55248633D01*
X154933762Y55248631D01*
X154933763Y55248630D01*
X155095718Y55115718D01*
X155217388Y54967461D01*
X155228633Y54953759D01*
X155327392Y54768994D01*
X155388211Y54568500D01*
X155408746Y54360000D01*
X155388211Y54151500D01*
X155327392Y53951006D01*
X155228633Y53766241D01*
X155228631Y53766238D01*
X155228630Y53766237D01*
X155095718Y53604282D01*
X154936782Y53473848D01*
X154933759Y53471367D01*
X154748994Y53372608D01*
X154548500Y53311789D01*
X154392251Y53296400D01*
X154287749Y53296400D01*
X154131500Y53311789D01*
X153931006Y53372608D01*
X153746241Y53471367D01*
X153743218Y53473848D01*
X153584282Y53604282D01*
X153451370Y53766237D01*
X153451369Y53766238D01*
X153451367Y53766241D01*
X153352608Y53951006D01*
X153291789Y54151500D01*
X153271254Y54360000D01*
X153291789Y54568500D01*
X153352608Y54768994D01*
X153451367Y54953759D01*
X153462612Y54967461D01*
X153584282Y55115718D01*
X153746237Y55248630D01*
X153746238Y55248631D01*
X153746241Y55248633D01*
X153931006Y55347392D01*
X154131500Y55408211D01*
X154287749Y55423600D01*
X154392251Y55423600D01*
X154548500Y55408211D01*
X154548500Y55408211D01*
G37*
G36*
X157088500Y55408211D02*
G01*
X157288994Y55347392D01*
X157473759Y55248633D01*
X157473762Y55248631D01*
X157473763Y55248630D01*
X157635718Y55115718D01*
X157757388Y54967461D01*
X157768633Y54953759D01*
X157867392Y54768994D01*
X157928211Y54568500D01*
X157948746Y54360000D01*
X157928211Y54151500D01*
X157867392Y53951006D01*
X157768633Y53766241D01*
X157768631Y53766238D01*
X157768630Y53766237D01*
X157635718Y53604282D01*
X157476782Y53473848D01*
X157473759Y53471367D01*
X157288994Y53372608D01*
X157088500Y53311789D01*
X156932251Y53296400D01*
X156827749Y53296400D01*
X156671500Y53311789D01*
X156471006Y53372608D01*
X156286241Y53471367D01*
X156283218Y53473848D01*
X156124282Y53604282D01*
X155991370Y53766237D01*
X155991369Y53766238D01*
X155991367Y53766241D01*
X155892608Y53951006D01*
X155831789Y54151500D01*
X155811254Y54360000D01*
X155831789Y54568500D01*
X155892608Y54768994D01*
X155991367Y54953759D01*
X156002612Y54967461D01*
X156124282Y55115718D01*
X156286237Y55248630D01*
X156286238Y55248631D01*
X156286241Y55248633D01*
X156471006Y55347392D01*
X156671500Y55408211D01*
X156827749Y55423600D01*
X156932251Y55423600D01*
X157088500Y55408211D01*
X157088500Y55408211D01*
G37*
G36*
X159628500Y55408211D02*
G01*
X159828994Y55347392D01*
X160013759Y55248633D01*
X160013762Y55248631D01*
X160013763Y55248630D01*
X160175718Y55115718D01*
X160297388Y54967461D01*
X160308633Y54953759D01*
X160407392Y54768994D01*
X160468211Y54568500D01*
X160488746Y54360000D01*
X160468211Y54151500D01*
X160407392Y53951006D01*
X160308633Y53766241D01*
X160308631Y53766238D01*
X160308630Y53766237D01*
X160175718Y53604282D01*
X160016782Y53473848D01*
X160013759Y53471367D01*
X159828994Y53372608D01*
X159628500Y53311789D01*
X159472251Y53296400D01*
X159367749Y53296400D01*
X159211500Y53311789D01*
X159011006Y53372608D01*
X158826241Y53471367D01*
X158823218Y53473848D01*
X158664282Y53604282D01*
X158531370Y53766237D01*
X158531369Y53766238D01*
X158531367Y53766241D01*
X158432608Y53951006D01*
X158371789Y54151500D01*
X158351254Y54360000D01*
X158371789Y54568500D01*
X158432608Y54768994D01*
X158531367Y54953759D01*
X158542612Y54967461D01*
X158664282Y55115718D01*
X158826237Y55248630D01*
X158826238Y55248631D01*
X158826241Y55248633D01*
X159011006Y55347392D01*
X159211500Y55408211D01*
X159367749Y55423600D01*
X159472251Y55423600D01*
X159628500Y55408211D01*
X159628500Y55408211D01*
G37*
G36*
X162168500Y55408211D02*
G01*
X162368994Y55347392D01*
X162553759Y55248633D01*
X162553762Y55248631D01*
X162553763Y55248630D01*
X162715718Y55115718D01*
X162837388Y54967461D01*
X162848633Y54953759D01*
X162947392Y54768994D01*
X163008211Y54568500D01*
X163028746Y54360000D01*
X163008211Y54151500D01*
X162947392Y53951006D01*
X162848633Y53766241D01*
X162848631Y53766238D01*
X162848630Y53766237D01*
X162715718Y53604282D01*
X162556782Y53473848D01*
X162553759Y53471367D01*
X162368994Y53372608D01*
X162168500Y53311789D01*
X162012251Y53296400D01*
X161907749Y53296400D01*
X161751500Y53311789D01*
X161551006Y53372608D01*
X161366241Y53471367D01*
X161363218Y53473848D01*
X161204282Y53604282D01*
X161071370Y53766237D01*
X161071369Y53766238D01*
X161071367Y53766241D01*
X160972608Y53951006D01*
X160911789Y54151500D01*
X160891254Y54360000D01*
X160911789Y54568500D01*
X160972608Y54768994D01*
X161071367Y54953759D01*
X161082612Y54967461D01*
X161204282Y55115718D01*
X161366237Y55248630D01*
X161366238Y55248631D01*
X161366241Y55248633D01*
X161551006Y55347392D01*
X161751500Y55408211D01*
X161907749Y55423600D01*
X162012251Y55423600D01*
X162168500Y55408211D01*
X162168500Y55408211D01*
G37*
G36*
X164708500Y55408211D02*
G01*
X164908994Y55347392D01*
X165093759Y55248633D01*
X165093762Y55248631D01*
X165093763Y55248630D01*
X165255718Y55115718D01*
X165377388Y54967461D01*
X165388633Y54953759D01*
X165487392Y54768994D01*
X165548211Y54568500D01*
X165568746Y54360000D01*
X165548211Y54151500D01*
X165487392Y53951006D01*
X165388633Y53766241D01*
X165388631Y53766238D01*
X165388630Y53766237D01*
X165255718Y53604282D01*
X165096782Y53473848D01*
X165093759Y53471367D01*
X164908994Y53372608D01*
X164708500Y53311789D01*
X164552251Y53296400D01*
X164447749Y53296400D01*
X164291500Y53311789D01*
X164091006Y53372608D01*
X163906241Y53471367D01*
X163903218Y53473848D01*
X163744282Y53604282D01*
X163611370Y53766237D01*
X163611369Y53766238D01*
X163611367Y53766241D01*
X163512608Y53951006D01*
X163451789Y54151500D01*
X163431254Y54360000D01*
X163451789Y54568500D01*
X163512608Y54768994D01*
X163611367Y54953759D01*
X163622612Y54967461D01*
X163744282Y55115718D01*
X163906237Y55248630D01*
X163906238Y55248631D01*
X163906241Y55248633D01*
X164091006Y55347392D01*
X164291500Y55408211D01*
X164447749Y55423600D01*
X164552251Y55423600D01*
X164708500Y55408211D01*
X164708500Y55408211D01*
G37*
G36*
X167248500Y55408211D02*
G01*
X167448994Y55347392D01*
X167633759Y55248633D01*
X167633762Y55248631D01*
X167633763Y55248630D01*
X167795718Y55115718D01*
X167917388Y54967461D01*
X167928633Y54953759D01*
X168027392Y54768994D01*
X168088211Y54568500D01*
X168108746Y54360000D01*
X168088211Y54151500D01*
X168027392Y53951006D01*
X167928633Y53766241D01*
X167928631Y53766238D01*
X167928630Y53766237D01*
X167795718Y53604282D01*
X167636782Y53473848D01*
X167633759Y53471367D01*
X167448994Y53372608D01*
X167248500Y53311789D01*
X167092251Y53296400D01*
X166987749Y53296400D01*
X166831500Y53311789D01*
X166631006Y53372608D01*
X166446241Y53471367D01*
X166443218Y53473848D01*
X166284282Y53604282D01*
X166151370Y53766237D01*
X166151369Y53766238D01*
X166151367Y53766241D01*
X166052608Y53951006D01*
X165991789Y54151500D01*
X165971254Y54360000D01*
X165991789Y54568500D01*
X166052608Y54768994D01*
X166151367Y54953759D01*
X166162612Y54967461D01*
X166284282Y55115718D01*
X166446237Y55248630D01*
X166446238Y55248631D01*
X166446241Y55248633D01*
X166631006Y55347392D01*
X166831500Y55408211D01*
X166987749Y55423600D01*
X167092251Y55423600D01*
X167248500Y55408211D01*
X167248500Y55408211D01*
G37*
G36*
X169788500Y55408211D02*
G01*
X169988994Y55347392D01*
X170173759Y55248633D01*
X170173762Y55248631D01*
X170173763Y55248630D01*
X170335718Y55115718D01*
X170457388Y54967461D01*
X170468633Y54953759D01*
X170567392Y54768994D01*
X170628211Y54568500D01*
X170648746Y54360000D01*
X170628211Y54151500D01*
X170567392Y53951006D01*
X170468633Y53766241D01*
X170468631Y53766238D01*
X170468630Y53766237D01*
X170335718Y53604282D01*
X170176782Y53473848D01*
X170173759Y53471367D01*
X169988994Y53372608D01*
X169788500Y53311789D01*
X169632251Y53296400D01*
X169527749Y53296400D01*
X169371500Y53311789D01*
X169171006Y53372608D01*
X168986241Y53471367D01*
X168983218Y53473848D01*
X168824282Y53604282D01*
X168691370Y53766237D01*
X168691369Y53766238D01*
X168691367Y53766241D01*
X168592608Y53951006D01*
X168531789Y54151500D01*
X168511254Y54360000D01*
X168531789Y54568500D01*
X168592608Y54768994D01*
X168691367Y54953759D01*
X168702612Y54967461D01*
X168824282Y55115718D01*
X168986237Y55248630D01*
X168986238Y55248631D01*
X168986241Y55248633D01*
X169171006Y55347392D01*
X169371500Y55408211D01*
X169527749Y55423600D01*
X169632251Y55423600D01*
X169788500Y55408211D01*
X169788500Y55408211D01*
G37*
G36*
X172328500Y55408211D02*
G01*
X172528994Y55347392D01*
X172713759Y55248633D01*
X172713762Y55248631D01*
X172713763Y55248630D01*
X172875718Y55115718D01*
X172997388Y54967461D01*
X173008633Y54953759D01*
X173107392Y54768994D01*
X173168211Y54568500D01*
X173188746Y54360000D01*
X173168211Y54151500D01*
X173107392Y53951006D01*
X173008633Y53766241D01*
X173008631Y53766238D01*
X173008630Y53766237D01*
X172875718Y53604282D01*
X172716782Y53473848D01*
X172713759Y53471367D01*
X172528994Y53372608D01*
X172328500Y53311789D01*
X172172251Y53296400D01*
X172067749Y53296400D01*
X171911500Y53311789D01*
X171711006Y53372608D01*
X171526241Y53471367D01*
X171523218Y53473848D01*
X171364282Y53604282D01*
X171231370Y53766237D01*
X171231369Y53766238D01*
X171231367Y53766241D01*
X171132608Y53951006D01*
X171071789Y54151500D01*
X171051254Y54360000D01*
X171071789Y54568500D01*
X171132608Y54768994D01*
X171231367Y54953759D01*
X171242612Y54967461D01*
X171364282Y55115718D01*
X171526237Y55248630D01*
X171526238Y55248631D01*
X171526241Y55248633D01*
X171711006Y55347392D01*
X171911500Y55408211D01*
X172067749Y55423600D01*
X172172251Y55423600D01*
X172328500Y55408211D01*
X172328500Y55408211D01*
G37*
G36*
X174868500Y55408211D02*
G01*
X175068994Y55347392D01*
X175253759Y55248633D01*
X175253762Y55248631D01*
X175253763Y55248630D01*
X175415718Y55115718D01*
X175537388Y54967461D01*
X175548633Y54953759D01*
X175647392Y54768994D01*
X175708211Y54568500D01*
X175728746Y54360000D01*
X175708211Y54151500D01*
X175647392Y53951006D01*
X175548633Y53766241D01*
X175548631Y53766238D01*
X175548630Y53766237D01*
X175415718Y53604282D01*
X175256782Y53473848D01*
X175253759Y53471367D01*
X175068994Y53372608D01*
X174868500Y53311789D01*
X174712251Y53296400D01*
X174607749Y53296400D01*
X174451500Y53311789D01*
X174251006Y53372608D01*
X174066241Y53471367D01*
X174063218Y53473848D01*
X173904282Y53604282D01*
X173771370Y53766237D01*
X173771369Y53766238D01*
X173771367Y53766241D01*
X173672608Y53951006D01*
X173611789Y54151500D01*
X173591254Y54360000D01*
X173611789Y54568500D01*
X173672608Y54768994D01*
X173771367Y54953759D01*
X173782612Y54967461D01*
X173904282Y55115718D01*
X174066237Y55248630D01*
X174066238Y55248631D01*
X174066241Y55248633D01*
X174251006Y55347392D01*
X174451500Y55408211D01*
X174607749Y55423600D01*
X174712251Y55423600D01*
X174868500Y55408211D01*
X174868500Y55408211D01*
G37*
G36*
X177408500Y55408211D02*
G01*
X177608994Y55347392D01*
X177793759Y55248633D01*
X177793762Y55248631D01*
X177793763Y55248630D01*
X177955718Y55115718D01*
X178077388Y54967461D01*
X178088633Y54953759D01*
X178187392Y54768994D01*
X178248211Y54568500D01*
X178268746Y54360000D01*
X178248211Y54151500D01*
X178187392Y53951006D01*
X178088633Y53766241D01*
X178088631Y53766238D01*
X178088630Y53766237D01*
X177955718Y53604282D01*
X177796782Y53473848D01*
X177793759Y53471367D01*
X177608994Y53372608D01*
X177408500Y53311789D01*
X177252251Y53296400D01*
X177147749Y53296400D01*
X176991500Y53311789D01*
X176791006Y53372608D01*
X176606241Y53471367D01*
X176603218Y53473848D01*
X176444282Y53604282D01*
X176311370Y53766237D01*
X176311369Y53766238D01*
X176311367Y53766241D01*
X176212608Y53951006D01*
X176151789Y54151500D01*
X176131254Y54360000D01*
X176151789Y54568500D01*
X176212608Y54768994D01*
X176311367Y54953759D01*
X176322612Y54967461D01*
X176444282Y55115718D01*
X176606237Y55248630D01*
X176606238Y55248631D01*
X176606241Y55248633D01*
X176791006Y55347392D01*
X176991500Y55408211D01*
X177147749Y55423600D01*
X177252251Y55423600D01*
X177408500Y55408211D01*
X177408500Y55408211D01*
G37*
G36*
X96712290Y55304381D02*
G01*
X96776689Y55291571D01*
X96958678Y55216189D01*
X97122463Y55106751D01*
X97261751Y54967463D01*
X97371189Y54803678D01*
X97446571Y54621689D01*
X97446571Y54621688D01*
X97485000Y54428493D01*
X97485000Y54231507D01*
X97469085Y54151498D01*
X97446571Y54038311D01*
X97371189Y53856322D01*
X97261751Y53692537D01*
X97122463Y53553249D01*
X96958678Y53443811D01*
X96776689Y53368429D01*
X96721493Y53357450D01*
X96583493Y53330000D01*
X96386507Y53330000D01*
X96248507Y53357450D01*
X96193311Y53368429D01*
X96011322Y53443811D01*
X95847537Y53553249D01*
X95708249Y53692537D01*
X95598811Y53856322D01*
X95523429Y54038311D01*
X95500915Y54151498D01*
X95485000Y54231507D01*
X95485000Y54428493D01*
X95523429Y54621688D01*
X95523429Y54621689D01*
X95598811Y54803678D01*
X95708249Y54967463D01*
X95847537Y55106751D01*
X96011322Y55216189D01*
X96193311Y55291571D01*
X96257710Y55304381D01*
X96386507Y55330000D01*
X96583493Y55330000D01*
X96712290Y55304381D01*
X96712290Y55304381D01*
G37*
G36*
X94172290Y55304381D02*
G01*
X94236689Y55291571D01*
X94418678Y55216189D01*
X94582463Y55106751D01*
X94721751Y54967463D01*
X94831189Y54803678D01*
X94906571Y54621689D01*
X94906571Y54621688D01*
X94945000Y54428493D01*
X94945000Y54231507D01*
X94929085Y54151498D01*
X94906571Y54038311D01*
X94831189Y53856322D01*
X94721751Y53692537D01*
X94582463Y53553249D01*
X94418678Y53443811D01*
X94236689Y53368429D01*
X94181493Y53357450D01*
X94043493Y53330000D01*
X93846507Y53330000D01*
X93708507Y53357450D01*
X93653311Y53368429D01*
X93471322Y53443811D01*
X93307537Y53553249D01*
X93168249Y53692537D01*
X93058811Y53856322D01*
X92983429Y54038311D01*
X92960915Y54151498D01*
X92945000Y54231507D01*
X92945000Y54428493D01*
X92983429Y54621688D01*
X92983429Y54621689D01*
X93058811Y54803678D01*
X93168249Y54967463D01*
X93307537Y55106751D01*
X93471322Y55216189D01*
X93653311Y55291571D01*
X93717710Y55304381D01*
X93846507Y55330000D01*
X94043493Y55330000D01*
X94172290Y55304381D01*
X94172290Y55304381D01*
G37*
G36*
X91632290Y55304381D02*
G01*
X91696689Y55291571D01*
X91878678Y55216189D01*
X92042463Y55106751D01*
X92181751Y54967463D01*
X92291189Y54803678D01*
X92366571Y54621689D01*
X92366571Y54621688D01*
X92405000Y54428493D01*
X92405000Y54231507D01*
X92389085Y54151498D01*
X92366571Y54038311D01*
X92291189Y53856322D01*
X92181751Y53692537D01*
X92042463Y53553249D01*
X91878678Y53443811D01*
X91696689Y53368429D01*
X91641493Y53357450D01*
X91503493Y53330000D01*
X91306507Y53330000D01*
X91168507Y53357450D01*
X91113311Y53368429D01*
X90931322Y53443811D01*
X90767537Y53553249D01*
X90628249Y53692537D01*
X90518811Y53856322D01*
X90443429Y54038311D01*
X90420915Y54151498D01*
X90405000Y54231507D01*
X90405000Y54428493D01*
X90443429Y54621688D01*
X90443429Y54621689D01*
X90518811Y54803678D01*
X90628249Y54967463D01*
X90767537Y55106751D01*
X90931322Y55216189D01*
X91113311Y55291571D01*
X91177710Y55304381D01*
X91306507Y55330000D01*
X91503493Y55330000D01*
X91632290Y55304381D01*
X91632290Y55304381D01*
G37*
G36*
X89092290Y55304381D02*
G01*
X89156689Y55291571D01*
X89338678Y55216189D01*
X89502463Y55106751D01*
X89641751Y54967463D01*
X89751189Y54803678D01*
X89826571Y54621689D01*
X89826571Y54621688D01*
X89865000Y54428493D01*
X89865000Y54231507D01*
X89849085Y54151498D01*
X89826571Y54038311D01*
X89751189Y53856322D01*
X89641751Y53692537D01*
X89502463Y53553249D01*
X89338678Y53443811D01*
X89156689Y53368429D01*
X89101493Y53357450D01*
X88963493Y53330000D01*
X88766507Y53330000D01*
X88628507Y53357450D01*
X88573311Y53368429D01*
X88391322Y53443811D01*
X88227537Y53553249D01*
X88088249Y53692537D01*
X87978811Y53856322D01*
X87903429Y54038311D01*
X87880915Y54151498D01*
X87865000Y54231507D01*
X87865000Y54428493D01*
X87903429Y54621688D01*
X87903429Y54621689D01*
X87978811Y54803678D01*
X88088249Y54967463D01*
X88227537Y55106751D01*
X88391322Y55216189D01*
X88573311Y55291571D01*
X88637710Y55304381D01*
X88766507Y55330000D01*
X88963493Y55330000D01*
X89092290Y55304381D01*
X89092290Y55304381D01*
G37*
G36*
X86552290Y55304381D02*
G01*
X86616689Y55291571D01*
X86798678Y55216189D01*
X86962463Y55106751D01*
X87101751Y54967463D01*
X87211189Y54803678D01*
X87286571Y54621689D01*
X87286571Y54621688D01*
X87325000Y54428493D01*
X87325000Y54231507D01*
X87309085Y54151498D01*
X87286571Y54038311D01*
X87211189Y53856322D01*
X87101751Y53692537D01*
X86962463Y53553249D01*
X86798678Y53443811D01*
X86616689Y53368429D01*
X86561493Y53357450D01*
X86423493Y53330000D01*
X86226507Y53330000D01*
X86088507Y53357450D01*
X86033311Y53368429D01*
X85851322Y53443811D01*
X85687537Y53553249D01*
X85548249Y53692537D01*
X85438811Y53856322D01*
X85363429Y54038311D01*
X85340915Y54151498D01*
X85325000Y54231507D01*
X85325000Y54428493D01*
X85363429Y54621688D01*
X85363429Y54621689D01*
X85438811Y54803678D01*
X85548249Y54967463D01*
X85687537Y55106751D01*
X85851322Y55216189D01*
X86033311Y55291571D01*
X86097710Y55304381D01*
X86226507Y55330000D01*
X86423493Y55330000D01*
X86552290Y55304381D01*
X86552290Y55304381D01*
G37*
G36*
X84012290Y55304381D02*
G01*
X84076689Y55291571D01*
X84258678Y55216189D01*
X84422463Y55106751D01*
X84561751Y54967463D01*
X84671189Y54803678D01*
X84746571Y54621689D01*
X84746571Y54621688D01*
X84785000Y54428493D01*
X84785000Y54231507D01*
X84769085Y54151498D01*
X84746571Y54038311D01*
X84671189Y53856322D01*
X84561751Y53692537D01*
X84422463Y53553249D01*
X84258678Y53443811D01*
X84076689Y53368429D01*
X84021493Y53357450D01*
X83883493Y53330000D01*
X83686507Y53330000D01*
X83548507Y53357450D01*
X83493311Y53368429D01*
X83311322Y53443811D01*
X83147537Y53553249D01*
X83008249Y53692537D01*
X82898811Y53856322D01*
X82823429Y54038311D01*
X82800915Y54151498D01*
X82785000Y54231507D01*
X82785000Y54428493D01*
X82823429Y54621688D01*
X82823429Y54621689D01*
X82898811Y54803678D01*
X83008249Y54967463D01*
X83147537Y55106751D01*
X83311322Y55216189D01*
X83493311Y55291571D01*
X83557710Y55304381D01*
X83686507Y55330000D01*
X83883493Y55330000D01*
X84012290Y55304381D01*
X84012290Y55304381D01*
G37*
G36*
X81472290Y55304381D02*
G01*
X81536689Y55291571D01*
X81718678Y55216189D01*
X81882463Y55106751D01*
X82021751Y54967463D01*
X82131189Y54803678D01*
X82206571Y54621689D01*
X82206571Y54621688D01*
X82245000Y54428493D01*
X82245000Y54231507D01*
X82229085Y54151498D01*
X82206571Y54038311D01*
X82131189Y53856322D01*
X82021751Y53692537D01*
X81882463Y53553249D01*
X81718678Y53443811D01*
X81536689Y53368429D01*
X81481493Y53357450D01*
X81343493Y53330000D01*
X81146507Y53330000D01*
X81008507Y53357450D01*
X80953311Y53368429D01*
X80771322Y53443811D01*
X80607537Y53553249D01*
X80468249Y53692537D01*
X80358811Y53856322D01*
X80283429Y54038311D01*
X80260915Y54151498D01*
X80245000Y54231507D01*
X80245000Y54428493D01*
X80283429Y54621688D01*
X80283429Y54621689D01*
X80358811Y54803678D01*
X80468249Y54967463D01*
X80607537Y55106751D01*
X80771322Y55216189D01*
X80953311Y55291571D01*
X81017710Y55304381D01*
X81146507Y55330000D01*
X81343493Y55330000D01*
X81472290Y55304381D01*
X81472290Y55304381D01*
G37*
G36*
X99340336Y56001746D02*
G01*
X99432105Y55983492D01*
X99604994Y55911879D01*
X99760590Y55807913D01*
X99892913Y55675590D01*
X99996879Y55519994D01*
X100068373Y55347392D01*
X100068492Y55347104D01*
X100105000Y55163568D01*
X100105000Y54976432D01*
X100100491Y54953763D01*
X100068492Y54792895D01*
X99996879Y54620006D01*
X99892913Y54464410D01*
X99760590Y54332087D01*
X99604994Y54228121D01*
X99432105Y54156508D01*
X99340336Y54138254D01*
X99248568Y54120000D01*
X99061432Y54120000D01*
X98969664Y54138254D01*
X98877895Y54156508D01*
X98705006Y54228121D01*
X98549410Y54332087D01*
X98417087Y54464410D01*
X98313121Y54620006D01*
X98241508Y54792895D01*
X98209509Y54953763D01*
X98205000Y54976432D01*
X98205000Y55163568D01*
X98241508Y55347104D01*
X98241627Y55347392D01*
X98313121Y55519994D01*
X98417087Y55675590D01*
X98549410Y55807913D01*
X98705006Y55911879D01*
X98877895Y55983492D01*
X98969664Y56001746D01*
X99061432Y56020000D01*
X99248568Y56020000D01*
X99340336Y56001746D01*
X99340336Y56001746D01*
G37*
G36*
X73690240Y57862727D02*
G01*
X73883802Y57782551D01*
X74058005Y57666152D01*
X74206152Y57518005D01*
X74322551Y57343802D01*
X74402727Y57150240D01*
X74443600Y56944757D01*
X74443600Y56735243D01*
X74402727Y56529760D01*
X74322551Y56336198D01*
X74206152Y56161995D01*
X74058005Y56013848D01*
X73883802Y55897449D01*
X73690240Y55817273D01*
X73484757Y55776400D01*
X73275243Y55776400D01*
X73069760Y55817273D01*
X72876198Y55897449D01*
X72701995Y56013848D01*
X72553848Y56161995D01*
X72437449Y56336198D01*
X72357273Y56529760D01*
X72316400Y56735243D01*
X72316400Y56944757D01*
X72357273Y57150240D01*
X72437449Y57343802D01*
X72553848Y57518005D01*
X72701995Y57666152D01*
X72876198Y57782551D01*
X73069760Y57862727D01*
X73275243Y57903600D01*
X73484757Y57903600D01*
X73690240Y57862727D01*
X73690240Y57862727D01*
G37*
G36*
X55910240Y57862727D02*
G01*
X56103802Y57782551D01*
X56278005Y57666152D01*
X56426152Y57518005D01*
X56542551Y57343802D01*
X56622727Y57150240D01*
X56663600Y56944757D01*
X56663600Y56735243D01*
X56622727Y56529760D01*
X56542551Y56336198D01*
X56426152Y56161995D01*
X56278005Y56013848D01*
X56103802Y55897449D01*
X55910240Y55817273D01*
X55704757Y55776400D01*
X55495243Y55776400D01*
X55289760Y55817273D01*
X55096198Y55897449D01*
X54921995Y56013848D01*
X54773848Y56161995D01*
X54657449Y56336198D01*
X54577273Y56529760D01*
X54536400Y56735243D01*
X54536400Y56944757D01*
X54577273Y57150240D01*
X54657449Y57343802D01*
X54773848Y57518005D01*
X54921995Y57666152D01*
X55096198Y57782551D01*
X55289760Y57862727D01*
X55495243Y57903600D01*
X55704757Y57903600D01*
X55910240Y57862727D01*
X55910240Y57862727D01*
G37*
G36*
X71150240Y57862727D02*
G01*
X71343802Y57782551D01*
X71518005Y57666152D01*
X71666152Y57518005D01*
X71782551Y57343802D01*
X71862727Y57150240D01*
X71903600Y56944757D01*
X71903600Y56735243D01*
X71862727Y56529760D01*
X71782551Y56336198D01*
X71666152Y56161995D01*
X71518005Y56013848D01*
X71343802Y55897449D01*
X71150240Y55817273D01*
X70944757Y55776400D01*
X70735243Y55776400D01*
X70529760Y55817273D01*
X70336198Y55897449D01*
X70161995Y56013848D01*
X70013848Y56161995D01*
X69897449Y56336198D01*
X69817273Y56529760D01*
X69776400Y56735243D01*
X69776400Y56944757D01*
X69817273Y57150240D01*
X69897449Y57343802D01*
X70013848Y57518005D01*
X70161995Y57666152D01*
X70336198Y57782551D01*
X70529760Y57862727D01*
X70735243Y57903600D01*
X70944757Y57903600D01*
X71150240Y57862727D01*
X71150240Y57862727D01*
G37*
G36*
X58450240Y57862727D02*
G01*
X58643802Y57782551D01*
X58818005Y57666152D01*
X58966152Y57518005D01*
X59082551Y57343802D01*
X59162727Y57150240D01*
X59203600Y56944757D01*
X59203600Y56735243D01*
X59162727Y56529760D01*
X59082551Y56336198D01*
X58966152Y56161995D01*
X58818005Y56013848D01*
X58643802Y55897449D01*
X58450240Y55817273D01*
X58244757Y55776400D01*
X58035243Y55776400D01*
X57829760Y55817273D01*
X57636198Y55897449D01*
X57461995Y56013848D01*
X57313848Y56161995D01*
X57197449Y56336198D01*
X57117273Y56529760D01*
X57076400Y56735243D01*
X57076400Y56944757D01*
X57117273Y57150240D01*
X57197449Y57343802D01*
X57313848Y57518005D01*
X57461995Y57666152D01*
X57636198Y57782551D01*
X57829760Y57862727D01*
X58035243Y57903600D01*
X58244757Y57903600D01*
X58450240Y57862727D01*
X58450240Y57862727D01*
G37*
G36*
X68610240Y57862727D02*
G01*
X68803802Y57782551D01*
X68978005Y57666152D01*
X69126152Y57518005D01*
X69242551Y57343802D01*
X69322727Y57150240D01*
X69363600Y56944757D01*
X69363600Y56735243D01*
X69322727Y56529760D01*
X69242551Y56336198D01*
X69126152Y56161995D01*
X68978005Y56013848D01*
X68803802Y55897449D01*
X68610240Y55817273D01*
X68404757Y55776400D01*
X68195243Y55776400D01*
X67989760Y55817273D01*
X67796198Y55897449D01*
X67621995Y56013848D01*
X67473848Y56161995D01*
X67357449Y56336198D01*
X67277273Y56529760D01*
X67236400Y56735243D01*
X67236400Y56944757D01*
X67277273Y57150240D01*
X67357449Y57343802D01*
X67473848Y57518005D01*
X67621995Y57666152D01*
X67796198Y57782551D01*
X67989760Y57862727D01*
X68195243Y57903600D01*
X68404757Y57903600D01*
X68610240Y57862727D01*
X68610240Y57862727D01*
G37*
G36*
X66070240Y57862727D02*
G01*
X66263802Y57782551D01*
X66438005Y57666152D01*
X66586152Y57518005D01*
X66702551Y57343802D01*
X66782727Y57150240D01*
X66823600Y56944757D01*
X66823600Y56735243D01*
X66782727Y56529760D01*
X66702551Y56336198D01*
X66586152Y56161995D01*
X66438005Y56013848D01*
X66263802Y55897449D01*
X66070240Y55817273D01*
X65864757Y55776400D01*
X65655243Y55776400D01*
X65449760Y55817273D01*
X65256198Y55897449D01*
X65081995Y56013848D01*
X64933848Y56161995D01*
X64817449Y56336198D01*
X64737273Y56529760D01*
X64696400Y56735243D01*
X64696400Y56944757D01*
X64737273Y57150240D01*
X64817449Y57343802D01*
X64933848Y57518005D01*
X65081995Y57666152D01*
X65256198Y57782551D01*
X65449760Y57862727D01*
X65655243Y57903600D01*
X65864757Y57903600D01*
X66070240Y57862727D01*
X66070240Y57862727D01*
G37*
G36*
X63530240Y57862727D02*
G01*
X63723802Y57782551D01*
X63898005Y57666152D01*
X64046152Y57518005D01*
X64162551Y57343802D01*
X64242727Y57150240D01*
X64283600Y56944757D01*
X64283600Y56735243D01*
X64242727Y56529760D01*
X64162551Y56336198D01*
X64046152Y56161995D01*
X63898005Y56013848D01*
X63723802Y55897449D01*
X63530240Y55817273D01*
X63324757Y55776400D01*
X63115243Y55776400D01*
X62909760Y55817273D01*
X62716198Y55897449D01*
X62541995Y56013848D01*
X62393848Y56161995D01*
X62277449Y56336198D01*
X62197273Y56529760D01*
X62156400Y56735243D01*
X62156400Y56944757D01*
X62197273Y57150240D01*
X62277449Y57343802D01*
X62393848Y57518005D01*
X62541995Y57666152D01*
X62716198Y57782551D01*
X62909760Y57862727D01*
X63115243Y57903600D01*
X63324757Y57903600D01*
X63530240Y57862727D01*
X63530240Y57862727D01*
G37*
G36*
X60990240Y57862727D02*
G01*
X61183802Y57782551D01*
X61358005Y57666152D01*
X61506152Y57518005D01*
X61622551Y57343802D01*
X61702727Y57150240D01*
X61743600Y56944757D01*
X61743600Y56735243D01*
X61702727Y56529760D01*
X61622551Y56336198D01*
X61506152Y56161995D01*
X61358005Y56013848D01*
X61183802Y55897449D01*
X60990240Y55817273D01*
X60784757Y55776400D01*
X60575243Y55776400D01*
X60369760Y55817273D01*
X60176198Y55897449D01*
X60001995Y56013848D01*
X59853848Y56161995D01*
X59737449Y56336198D01*
X59657273Y56529760D01*
X59616400Y56735243D01*
X59616400Y56944757D01*
X59657273Y57150240D01*
X59737449Y57343802D01*
X59853848Y57518005D01*
X60001995Y57666152D01*
X60176198Y57782551D01*
X60369760Y57862727D01*
X60575243Y57903600D01*
X60784757Y57903600D01*
X60990240Y57862727D01*
X60990240Y57862727D01*
G37*
G36*
X162168500Y57948211D02*
G01*
X162368994Y57887392D01*
X162553759Y57788633D01*
X162553762Y57788631D01*
X162553763Y57788630D01*
X162715718Y57655718D01*
X162837388Y57507461D01*
X162848633Y57493759D01*
X162947392Y57308994D01*
X163008211Y57108500D01*
X163028746Y56900000D01*
X163008211Y56691500D01*
X162947392Y56491006D01*
X162848633Y56306241D01*
X162848631Y56306238D01*
X162848630Y56306237D01*
X162715718Y56144282D01*
X162556782Y56013848D01*
X162553759Y56011367D01*
X162368994Y55912608D01*
X162168500Y55851789D01*
X162012251Y55836400D01*
X161907749Y55836400D01*
X161751500Y55851789D01*
X161551006Y55912608D01*
X161366241Y56011367D01*
X161363218Y56013848D01*
X161204282Y56144282D01*
X161071370Y56306237D01*
X161071369Y56306238D01*
X161071367Y56306241D01*
X160972608Y56491006D01*
X160911789Y56691500D01*
X160891254Y56900000D01*
X160911789Y57108500D01*
X160972608Y57308994D01*
X161071367Y57493759D01*
X161082612Y57507461D01*
X161204282Y57655718D01*
X161366237Y57788630D01*
X161366238Y57788631D01*
X161366241Y57788633D01*
X161551006Y57887392D01*
X161751500Y57948211D01*
X161907749Y57963600D01*
X162012251Y57963600D01*
X162168500Y57948211D01*
X162168500Y57948211D01*
G37*
G36*
X137063600Y55836400D02*
G01*
X134936400Y55836400D01*
X134936400Y57963600D01*
X137063600Y57963600D01*
X137063600Y55836400D01*
X137063600Y55836400D01*
G37*
G36*
X154548500Y57948211D02*
G01*
X154748994Y57887392D01*
X154933759Y57788633D01*
X154933762Y57788631D01*
X154933763Y57788630D01*
X155095718Y57655718D01*
X155217388Y57507461D01*
X155228633Y57493759D01*
X155327392Y57308994D01*
X155388211Y57108500D01*
X155408746Y56900000D01*
X155388211Y56691500D01*
X155327392Y56491006D01*
X155228633Y56306241D01*
X155228631Y56306238D01*
X155228630Y56306237D01*
X155095718Y56144282D01*
X154936782Y56013848D01*
X154933759Y56011367D01*
X154748994Y55912608D01*
X154548500Y55851789D01*
X154392251Y55836400D01*
X154287749Y55836400D01*
X154131500Y55851789D01*
X153931006Y55912608D01*
X153746241Y56011367D01*
X153743218Y56013848D01*
X153584282Y56144282D01*
X153451370Y56306237D01*
X153451369Y56306238D01*
X153451367Y56306241D01*
X153352608Y56491006D01*
X153291789Y56691500D01*
X153271254Y56900000D01*
X153291789Y57108500D01*
X153352608Y57308994D01*
X153451367Y57493759D01*
X153462612Y57507461D01*
X153584282Y57655718D01*
X153746237Y57788630D01*
X153746238Y57788631D01*
X153746241Y57788633D01*
X153931006Y57887392D01*
X154131500Y57948211D01*
X154287749Y57963600D01*
X154392251Y57963600D01*
X154548500Y57948211D01*
X154548500Y57948211D01*
G37*
G36*
X120968500Y57948211D02*
G01*
X121168994Y57887392D01*
X121353759Y57788633D01*
X121353762Y57788631D01*
X121353763Y57788630D01*
X121515718Y57655718D01*
X121637388Y57507461D01*
X121648633Y57493759D01*
X121747392Y57308994D01*
X121808211Y57108500D01*
X121828746Y56900000D01*
X121808211Y56691500D01*
X121747392Y56491006D01*
X121648633Y56306241D01*
X121648631Y56306238D01*
X121648630Y56306237D01*
X121515718Y56144282D01*
X121356782Y56013848D01*
X121353759Y56011367D01*
X121168994Y55912608D01*
X120968500Y55851789D01*
X120812251Y55836400D01*
X120707749Y55836400D01*
X120551500Y55851789D01*
X120351006Y55912608D01*
X120166241Y56011367D01*
X120163218Y56013848D01*
X120004282Y56144282D01*
X119871370Y56306237D01*
X119871369Y56306238D01*
X119871367Y56306241D01*
X119772608Y56491006D01*
X119711789Y56691500D01*
X119691254Y56900000D01*
X119711789Y57108500D01*
X119772608Y57308994D01*
X119871367Y57493759D01*
X119882612Y57507461D01*
X120004282Y57655718D01*
X120166237Y57788630D01*
X120166238Y57788631D01*
X120166241Y57788633D01*
X120351006Y57887392D01*
X120551500Y57948211D01*
X120707749Y57963600D01*
X120812251Y57963600D01*
X120968500Y57948211D01*
X120968500Y57948211D01*
G37*
G36*
X157088500Y57948211D02*
G01*
X157288994Y57887392D01*
X157473759Y57788633D01*
X157473762Y57788631D01*
X157473763Y57788630D01*
X157635718Y57655718D01*
X157757388Y57507461D01*
X157768633Y57493759D01*
X157867392Y57308994D01*
X157928211Y57108500D01*
X157948746Y56900000D01*
X157928211Y56691500D01*
X157867392Y56491006D01*
X157768633Y56306241D01*
X157768631Y56306238D01*
X157768630Y56306237D01*
X157635718Y56144282D01*
X157476782Y56013848D01*
X157473759Y56011367D01*
X157288994Y55912608D01*
X157088500Y55851789D01*
X156932251Y55836400D01*
X156827749Y55836400D01*
X156671500Y55851789D01*
X156471006Y55912608D01*
X156286241Y56011367D01*
X156283218Y56013848D01*
X156124282Y56144282D01*
X155991370Y56306237D01*
X155991369Y56306238D01*
X155991367Y56306241D01*
X155892608Y56491006D01*
X155831789Y56691500D01*
X155811254Y56900000D01*
X155831789Y57108500D01*
X155892608Y57308994D01*
X155991367Y57493759D01*
X156002612Y57507461D01*
X156124282Y57655718D01*
X156286237Y57788630D01*
X156286238Y57788631D01*
X156286241Y57788633D01*
X156471006Y57887392D01*
X156671500Y57948211D01*
X156827749Y57963600D01*
X156932251Y57963600D01*
X157088500Y57948211D01*
X157088500Y57948211D01*
G37*
G36*
X123508500Y57948211D02*
G01*
X123708994Y57887392D01*
X123893759Y57788633D01*
X123893762Y57788631D01*
X123893763Y57788630D01*
X124055718Y57655718D01*
X124177388Y57507461D01*
X124188633Y57493759D01*
X124287392Y57308994D01*
X124348211Y57108500D01*
X124368746Y56900000D01*
X124348211Y56691500D01*
X124287392Y56491006D01*
X124188633Y56306241D01*
X124188631Y56306238D01*
X124188630Y56306237D01*
X124055718Y56144282D01*
X123896782Y56013848D01*
X123893759Y56011367D01*
X123708994Y55912608D01*
X123508500Y55851789D01*
X123352251Y55836400D01*
X123247749Y55836400D01*
X123091500Y55851789D01*
X122891006Y55912608D01*
X122706241Y56011367D01*
X122703218Y56013848D01*
X122544282Y56144282D01*
X122411370Y56306237D01*
X122411369Y56306238D01*
X122411367Y56306241D01*
X122312608Y56491006D01*
X122251789Y56691500D01*
X122231254Y56900000D01*
X122251789Y57108500D01*
X122312608Y57308994D01*
X122411367Y57493759D01*
X122422612Y57507461D01*
X122544282Y57655718D01*
X122706237Y57788630D01*
X122706238Y57788631D01*
X122706241Y57788633D01*
X122891006Y57887392D01*
X123091500Y57948211D01*
X123247749Y57963600D01*
X123352251Y57963600D01*
X123508500Y57948211D01*
X123508500Y57948211D01*
G37*
G36*
X159628500Y57948211D02*
G01*
X159828994Y57887392D01*
X160013759Y57788633D01*
X160013762Y57788631D01*
X160013763Y57788630D01*
X160175718Y57655718D01*
X160297388Y57507461D01*
X160308633Y57493759D01*
X160407392Y57308994D01*
X160468211Y57108500D01*
X160488746Y56900000D01*
X160468211Y56691500D01*
X160407392Y56491006D01*
X160308633Y56306241D01*
X160308631Y56306238D01*
X160308630Y56306237D01*
X160175718Y56144282D01*
X160016782Y56013848D01*
X160013759Y56011367D01*
X159828994Y55912608D01*
X159628500Y55851789D01*
X159472251Y55836400D01*
X159367749Y55836400D01*
X159211500Y55851789D01*
X159011006Y55912608D01*
X158826241Y56011367D01*
X158823218Y56013848D01*
X158664282Y56144282D01*
X158531370Y56306237D01*
X158531369Y56306238D01*
X158531367Y56306241D01*
X158432608Y56491006D01*
X158371789Y56691500D01*
X158351254Y56900000D01*
X158371789Y57108500D01*
X158432608Y57308994D01*
X158531367Y57493759D01*
X158542612Y57507461D01*
X158664282Y57655718D01*
X158826237Y57788630D01*
X158826238Y57788631D01*
X158826241Y57788633D01*
X159011006Y57887392D01*
X159211500Y57948211D01*
X159367749Y57963600D01*
X159472251Y57963600D01*
X159628500Y57948211D01*
X159628500Y57948211D01*
G37*
G36*
X126048500Y57948211D02*
G01*
X126248994Y57887392D01*
X126433759Y57788633D01*
X126433762Y57788631D01*
X126433763Y57788630D01*
X126595718Y57655718D01*
X126717388Y57507461D01*
X126728633Y57493759D01*
X126827392Y57308994D01*
X126888211Y57108500D01*
X126908746Y56900000D01*
X126888211Y56691500D01*
X126827392Y56491006D01*
X126728633Y56306241D01*
X126728631Y56306238D01*
X126728630Y56306237D01*
X126595718Y56144282D01*
X126436782Y56013848D01*
X126433759Y56011367D01*
X126248994Y55912608D01*
X126048500Y55851789D01*
X125892251Y55836400D01*
X125787749Y55836400D01*
X125631500Y55851789D01*
X125431006Y55912608D01*
X125246241Y56011367D01*
X125243218Y56013848D01*
X125084282Y56144282D01*
X124951370Y56306237D01*
X124951369Y56306238D01*
X124951367Y56306241D01*
X124852608Y56491006D01*
X124791789Y56691500D01*
X124771254Y56900000D01*
X124791789Y57108500D01*
X124852608Y57308994D01*
X124951367Y57493759D01*
X124962612Y57507461D01*
X125084282Y57655718D01*
X125246237Y57788630D01*
X125246238Y57788631D01*
X125246241Y57788633D01*
X125431006Y57887392D01*
X125631500Y57948211D01*
X125787749Y57963600D01*
X125892251Y57963600D01*
X126048500Y57948211D01*
X126048500Y57948211D01*
G37*
G36*
X105728500Y57948211D02*
G01*
X105928994Y57887392D01*
X106113759Y57788633D01*
X106113762Y57788631D01*
X106113763Y57788630D01*
X106275718Y57655718D01*
X106397388Y57507461D01*
X106408633Y57493759D01*
X106507392Y57308994D01*
X106568211Y57108500D01*
X106588746Y56900000D01*
X106568211Y56691500D01*
X106507392Y56491006D01*
X106408633Y56306241D01*
X106408631Y56306238D01*
X106408630Y56306237D01*
X106275718Y56144282D01*
X106116782Y56013848D01*
X106113759Y56011367D01*
X105928994Y55912608D01*
X105728500Y55851789D01*
X105572251Y55836400D01*
X105467749Y55836400D01*
X105311500Y55851789D01*
X105111006Y55912608D01*
X104926241Y56011367D01*
X104923218Y56013848D01*
X104764282Y56144282D01*
X104631370Y56306237D01*
X104631369Y56306238D01*
X104631367Y56306241D01*
X104532608Y56491006D01*
X104471789Y56691500D01*
X104451254Y56900000D01*
X104471789Y57108500D01*
X104532608Y57308994D01*
X104631367Y57493759D01*
X104642612Y57507461D01*
X104764282Y57655718D01*
X104926237Y57788630D01*
X104926238Y57788631D01*
X104926241Y57788633D01*
X105111006Y57887392D01*
X105311500Y57948211D01*
X105467749Y57963600D01*
X105572251Y57963600D01*
X105728500Y57948211D01*
X105728500Y57948211D01*
G37*
G36*
X128588500Y57948211D02*
G01*
X128788994Y57887392D01*
X128973759Y57788633D01*
X128973762Y57788631D01*
X128973763Y57788630D01*
X129135718Y57655718D01*
X129257388Y57507461D01*
X129268633Y57493759D01*
X129367392Y57308994D01*
X129428211Y57108500D01*
X129448746Y56900000D01*
X129428211Y56691500D01*
X129367392Y56491006D01*
X129268633Y56306241D01*
X129268631Y56306238D01*
X129268630Y56306237D01*
X129135718Y56144282D01*
X128976782Y56013848D01*
X128973759Y56011367D01*
X128788994Y55912608D01*
X128588500Y55851789D01*
X128432251Y55836400D01*
X128327749Y55836400D01*
X128171500Y55851789D01*
X127971006Y55912608D01*
X127786241Y56011367D01*
X127783218Y56013848D01*
X127624282Y56144282D01*
X127491370Y56306237D01*
X127491369Y56306238D01*
X127491367Y56306241D01*
X127392608Y56491006D01*
X127331789Y56691500D01*
X127311254Y56900000D01*
X127331789Y57108500D01*
X127392608Y57308994D01*
X127491367Y57493759D01*
X127502612Y57507461D01*
X127624282Y57655718D01*
X127786237Y57788630D01*
X127786238Y57788631D01*
X127786241Y57788633D01*
X127971006Y57887392D01*
X128171500Y57948211D01*
X128327749Y57963600D01*
X128432251Y57963600D01*
X128588500Y57948211D01*
X128588500Y57948211D01*
G37*
G36*
X108268500Y57948211D02*
G01*
X108468994Y57887392D01*
X108653759Y57788633D01*
X108653762Y57788631D01*
X108653763Y57788630D01*
X108815718Y57655718D01*
X108937388Y57507461D01*
X108948633Y57493759D01*
X109047392Y57308994D01*
X109108211Y57108500D01*
X109128746Y56900000D01*
X109108211Y56691500D01*
X109047392Y56491006D01*
X108948633Y56306241D01*
X108948631Y56306238D01*
X108948630Y56306237D01*
X108815718Y56144282D01*
X108656782Y56013848D01*
X108653759Y56011367D01*
X108468994Y55912608D01*
X108268500Y55851789D01*
X108112251Y55836400D01*
X108007749Y55836400D01*
X107851500Y55851789D01*
X107651006Y55912608D01*
X107466241Y56011367D01*
X107463218Y56013848D01*
X107304282Y56144282D01*
X107171370Y56306237D01*
X107171369Y56306238D01*
X107171367Y56306241D01*
X107072608Y56491006D01*
X107011789Y56691500D01*
X106991254Y56900000D01*
X107011789Y57108500D01*
X107072608Y57308994D01*
X107171367Y57493759D01*
X107182612Y57507461D01*
X107304282Y57655718D01*
X107466237Y57788630D01*
X107466238Y57788631D01*
X107466241Y57788633D01*
X107651006Y57887392D01*
X107851500Y57948211D01*
X108007749Y57963600D01*
X108112251Y57963600D01*
X108268500Y57948211D01*
X108268500Y57948211D01*
G37*
G36*
X178263600Y55836400D02*
G01*
X176136400Y55836400D01*
X176136400Y57963600D01*
X178263600Y57963600D01*
X178263600Y55836400D01*
X178263600Y55836400D01*
G37*
G36*
X110808500Y57948211D02*
G01*
X111008994Y57887392D01*
X111193759Y57788633D01*
X111193762Y57788631D01*
X111193763Y57788630D01*
X111355718Y57655718D01*
X111477388Y57507461D01*
X111488633Y57493759D01*
X111587392Y57308994D01*
X111648211Y57108500D01*
X111668746Y56900000D01*
X111648211Y56691500D01*
X111587392Y56491006D01*
X111488633Y56306241D01*
X111488631Y56306238D01*
X111488630Y56306237D01*
X111355718Y56144282D01*
X111196782Y56013848D01*
X111193759Y56011367D01*
X111008994Y55912608D01*
X110808500Y55851789D01*
X110652251Y55836400D01*
X110547749Y55836400D01*
X110391500Y55851789D01*
X110191006Y55912608D01*
X110006241Y56011367D01*
X110003218Y56013848D01*
X109844282Y56144282D01*
X109711370Y56306237D01*
X109711369Y56306238D01*
X109711367Y56306241D01*
X109612608Y56491006D01*
X109551789Y56691500D01*
X109531254Y56900000D01*
X109551789Y57108500D01*
X109612608Y57308994D01*
X109711367Y57493759D01*
X109722612Y57507461D01*
X109844282Y57655718D01*
X110006237Y57788630D01*
X110006238Y57788631D01*
X110006241Y57788633D01*
X110191006Y57887392D01*
X110391500Y57948211D01*
X110547749Y57963600D01*
X110652251Y57963600D01*
X110808500Y57948211D01*
X110808500Y57948211D01*
G37*
G36*
X174868500Y57948211D02*
G01*
X175068994Y57887392D01*
X175253759Y57788633D01*
X175253762Y57788631D01*
X175253763Y57788630D01*
X175415718Y57655718D01*
X175537388Y57507461D01*
X175548633Y57493759D01*
X175647392Y57308994D01*
X175708211Y57108500D01*
X175728746Y56900000D01*
X175708211Y56691500D01*
X175647392Y56491006D01*
X175548633Y56306241D01*
X175548631Y56306238D01*
X175548630Y56306237D01*
X175415718Y56144282D01*
X175256782Y56013848D01*
X175253759Y56011367D01*
X175068994Y55912608D01*
X174868500Y55851789D01*
X174712251Y55836400D01*
X174607749Y55836400D01*
X174451500Y55851789D01*
X174251006Y55912608D01*
X174066241Y56011367D01*
X174063218Y56013848D01*
X173904282Y56144282D01*
X173771370Y56306237D01*
X173771369Y56306238D01*
X173771367Y56306241D01*
X173672608Y56491006D01*
X173611789Y56691500D01*
X173591254Y56900000D01*
X173611789Y57108500D01*
X173672608Y57308994D01*
X173771367Y57493759D01*
X173782612Y57507461D01*
X173904282Y57655718D01*
X174066237Y57788630D01*
X174066238Y57788631D01*
X174066241Y57788633D01*
X174251006Y57887392D01*
X174451500Y57948211D01*
X174607749Y57963600D01*
X174712251Y57963600D01*
X174868500Y57948211D01*
X174868500Y57948211D01*
G37*
G36*
X113348500Y57948211D02*
G01*
X113548994Y57887392D01*
X113733759Y57788633D01*
X113733762Y57788631D01*
X113733763Y57788630D01*
X113895718Y57655718D01*
X114017388Y57507461D01*
X114028633Y57493759D01*
X114127392Y57308994D01*
X114188211Y57108500D01*
X114208746Y56900000D01*
X114188211Y56691500D01*
X114127392Y56491006D01*
X114028633Y56306241D01*
X114028631Y56306238D01*
X114028630Y56306237D01*
X113895718Y56144282D01*
X113736782Y56013848D01*
X113733759Y56011367D01*
X113548994Y55912608D01*
X113348500Y55851789D01*
X113192251Y55836400D01*
X113087749Y55836400D01*
X112931500Y55851789D01*
X112731006Y55912608D01*
X112546241Y56011367D01*
X112543218Y56013848D01*
X112384282Y56144282D01*
X112251370Y56306237D01*
X112251369Y56306238D01*
X112251367Y56306241D01*
X112152608Y56491006D01*
X112091789Y56691500D01*
X112071254Y56900000D01*
X112091789Y57108500D01*
X112152608Y57308994D01*
X112251367Y57493759D01*
X112262612Y57507461D01*
X112384282Y57655718D01*
X112546237Y57788630D01*
X112546238Y57788631D01*
X112546241Y57788633D01*
X112731006Y57887392D01*
X112931500Y57948211D01*
X113087749Y57963600D01*
X113192251Y57963600D01*
X113348500Y57948211D01*
X113348500Y57948211D01*
G37*
G36*
X172328500Y57948211D02*
G01*
X172528994Y57887392D01*
X172713759Y57788633D01*
X172713762Y57788631D01*
X172713763Y57788630D01*
X172875718Y57655718D01*
X172997388Y57507461D01*
X173008633Y57493759D01*
X173107392Y57308994D01*
X173168211Y57108500D01*
X173188746Y56900000D01*
X173168211Y56691500D01*
X173107392Y56491006D01*
X173008633Y56306241D01*
X173008631Y56306238D01*
X173008630Y56306237D01*
X172875718Y56144282D01*
X172716782Y56013848D01*
X172713759Y56011367D01*
X172528994Y55912608D01*
X172328500Y55851789D01*
X172172251Y55836400D01*
X172067749Y55836400D01*
X171911500Y55851789D01*
X171711006Y55912608D01*
X171526241Y56011367D01*
X171523218Y56013848D01*
X171364282Y56144282D01*
X171231370Y56306237D01*
X171231369Y56306238D01*
X171231367Y56306241D01*
X171132608Y56491006D01*
X171071789Y56691500D01*
X171051254Y56900000D01*
X171071789Y57108500D01*
X171132608Y57308994D01*
X171231367Y57493759D01*
X171242612Y57507461D01*
X171364282Y57655718D01*
X171526237Y57788630D01*
X171526238Y57788631D01*
X171526241Y57788633D01*
X171711006Y57887392D01*
X171911500Y57948211D01*
X172067749Y57963600D01*
X172172251Y57963600D01*
X172328500Y57948211D01*
X172328500Y57948211D01*
G37*
G36*
X115888500Y57948211D02*
G01*
X116088994Y57887392D01*
X116273759Y57788633D01*
X116273762Y57788631D01*
X116273763Y57788630D01*
X116435718Y57655718D01*
X116557388Y57507461D01*
X116568633Y57493759D01*
X116667392Y57308994D01*
X116728211Y57108500D01*
X116748746Y56900000D01*
X116728211Y56691500D01*
X116667392Y56491006D01*
X116568633Y56306241D01*
X116568631Y56306238D01*
X116568630Y56306237D01*
X116435718Y56144282D01*
X116276782Y56013848D01*
X116273759Y56011367D01*
X116088994Y55912608D01*
X115888500Y55851789D01*
X115732251Y55836400D01*
X115627749Y55836400D01*
X115471500Y55851789D01*
X115271006Y55912608D01*
X115086241Y56011367D01*
X115083218Y56013848D01*
X114924282Y56144282D01*
X114791370Y56306237D01*
X114791369Y56306238D01*
X114791367Y56306241D01*
X114692608Y56491006D01*
X114631789Y56691500D01*
X114611254Y56900000D01*
X114631789Y57108500D01*
X114692608Y57308994D01*
X114791367Y57493759D01*
X114802612Y57507461D01*
X114924282Y57655718D01*
X115086237Y57788630D01*
X115086238Y57788631D01*
X115086241Y57788633D01*
X115271006Y57887392D01*
X115471500Y57948211D01*
X115627749Y57963600D01*
X115732251Y57963600D01*
X115888500Y57948211D01*
X115888500Y57948211D01*
G37*
G36*
X169788500Y57948211D02*
G01*
X169988994Y57887392D01*
X170173759Y57788633D01*
X170173762Y57788631D01*
X170173763Y57788630D01*
X170335718Y57655718D01*
X170457388Y57507461D01*
X170468633Y57493759D01*
X170567392Y57308994D01*
X170628211Y57108500D01*
X170648746Y56900000D01*
X170628211Y56691500D01*
X170567392Y56491006D01*
X170468633Y56306241D01*
X170468631Y56306238D01*
X170468630Y56306237D01*
X170335718Y56144282D01*
X170176782Y56013848D01*
X170173759Y56011367D01*
X169988994Y55912608D01*
X169788500Y55851789D01*
X169632251Y55836400D01*
X169527749Y55836400D01*
X169371500Y55851789D01*
X169171006Y55912608D01*
X168986241Y56011367D01*
X168983218Y56013848D01*
X168824282Y56144282D01*
X168691370Y56306237D01*
X168691369Y56306238D01*
X168691367Y56306241D01*
X168592608Y56491006D01*
X168531789Y56691500D01*
X168511254Y56900000D01*
X168531789Y57108500D01*
X168592608Y57308994D01*
X168691367Y57493759D01*
X168702612Y57507461D01*
X168824282Y57655718D01*
X168986237Y57788630D01*
X168986238Y57788631D01*
X168986241Y57788633D01*
X169171006Y57887392D01*
X169371500Y57948211D01*
X169527749Y57963600D01*
X169632251Y57963600D01*
X169788500Y57948211D01*
X169788500Y57948211D01*
G37*
G36*
X118428500Y57948211D02*
G01*
X118628994Y57887392D01*
X118813759Y57788633D01*
X118813762Y57788631D01*
X118813763Y57788630D01*
X118975718Y57655718D01*
X119097388Y57507461D01*
X119108633Y57493759D01*
X119207392Y57308994D01*
X119268211Y57108500D01*
X119288746Y56900000D01*
X119268211Y56691500D01*
X119207392Y56491006D01*
X119108633Y56306241D01*
X119108631Y56306238D01*
X119108630Y56306237D01*
X118975718Y56144282D01*
X118816782Y56013848D01*
X118813759Y56011367D01*
X118628994Y55912608D01*
X118428500Y55851789D01*
X118272251Y55836400D01*
X118167749Y55836400D01*
X118011500Y55851789D01*
X117811006Y55912608D01*
X117626241Y56011367D01*
X117623218Y56013848D01*
X117464282Y56144282D01*
X117331370Y56306237D01*
X117331369Y56306238D01*
X117331367Y56306241D01*
X117232608Y56491006D01*
X117171789Y56691500D01*
X117151254Y56900000D01*
X117171789Y57108500D01*
X117232608Y57308994D01*
X117331367Y57493759D01*
X117342612Y57507461D01*
X117464282Y57655718D01*
X117626237Y57788630D01*
X117626238Y57788631D01*
X117626241Y57788633D01*
X117811006Y57887392D01*
X118011500Y57948211D01*
X118167749Y57963600D01*
X118272251Y57963600D01*
X118428500Y57948211D01*
X118428500Y57948211D01*
G37*
G36*
X167248500Y57948211D02*
G01*
X167448994Y57887392D01*
X167633759Y57788633D01*
X167633762Y57788631D01*
X167633763Y57788630D01*
X167795718Y57655718D01*
X167917388Y57507461D01*
X167928633Y57493759D01*
X168027392Y57308994D01*
X168088211Y57108500D01*
X168108746Y56900000D01*
X168088211Y56691500D01*
X168027392Y56491006D01*
X167928633Y56306241D01*
X167928631Y56306238D01*
X167928630Y56306237D01*
X167795718Y56144282D01*
X167636782Y56013848D01*
X167633759Y56011367D01*
X167448994Y55912608D01*
X167248500Y55851789D01*
X167092251Y55836400D01*
X166987749Y55836400D01*
X166831500Y55851789D01*
X166631006Y55912608D01*
X166446241Y56011367D01*
X166443218Y56013848D01*
X166284282Y56144282D01*
X166151370Y56306237D01*
X166151369Y56306238D01*
X166151367Y56306241D01*
X166052608Y56491006D01*
X165991789Y56691500D01*
X165971254Y56900000D01*
X165991789Y57108500D01*
X166052608Y57308994D01*
X166151367Y57493759D01*
X166162612Y57507461D01*
X166284282Y57655718D01*
X166446237Y57788630D01*
X166446238Y57788631D01*
X166446241Y57788633D01*
X166631006Y57887392D01*
X166831500Y57948211D01*
X166987749Y57963600D01*
X167092251Y57963600D01*
X167248500Y57948211D01*
X167248500Y57948211D01*
G37*
G36*
X164708500Y57948211D02*
G01*
X164908994Y57887392D01*
X165093759Y57788633D01*
X165093762Y57788631D01*
X165093763Y57788630D01*
X165255718Y57655718D01*
X165377388Y57507461D01*
X165388633Y57493759D01*
X165487392Y57308994D01*
X165548211Y57108500D01*
X165568746Y56900000D01*
X165548211Y56691500D01*
X165487392Y56491006D01*
X165388633Y56306241D01*
X165388631Y56306238D01*
X165388630Y56306237D01*
X165255718Y56144282D01*
X165096782Y56013848D01*
X165093759Y56011367D01*
X164908994Y55912608D01*
X164708500Y55851789D01*
X164552251Y55836400D01*
X164447749Y55836400D01*
X164291500Y55851789D01*
X164091006Y55912608D01*
X163906241Y56011367D01*
X163903218Y56013848D01*
X163744282Y56144282D01*
X163611370Y56306237D01*
X163611369Y56306238D01*
X163611367Y56306241D01*
X163512608Y56491006D01*
X163451789Y56691500D01*
X163431254Y56900000D01*
X163451789Y57108500D01*
X163512608Y57308994D01*
X163611367Y57493759D01*
X163622612Y57507461D01*
X163744282Y57655718D01*
X163906237Y57788630D01*
X163906238Y57788631D01*
X163906241Y57788633D01*
X164091006Y57887392D01*
X164291500Y57948211D01*
X164447749Y57963600D01*
X164552251Y57963600D01*
X164708500Y57948211D01*
X164708500Y57948211D01*
G37*
G36*
X131128500Y57948211D02*
G01*
X131328994Y57887392D01*
X131513759Y57788633D01*
X131513762Y57788631D01*
X131513763Y57788630D01*
X131675718Y57655718D01*
X131797388Y57507461D01*
X131808633Y57493759D01*
X131907392Y57308994D01*
X131968211Y57108500D01*
X131988746Y56900000D01*
X131968211Y56691500D01*
X131907392Y56491006D01*
X131808633Y56306241D01*
X131808631Y56306238D01*
X131808630Y56306237D01*
X131675718Y56144282D01*
X131516782Y56013848D01*
X131513759Y56011367D01*
X131328994Y55912608D01*
X131128500Y55851789D01*
X130972251Y55836400D01*
X130867749Y55836400D01*
X130711500Y55851789D01*
X130511006Y55912608D01*
X130326241Y56011367D01*
X130323218Y56013848D01*
X130164282Y56144282D01*
X130031370Y56306237D01*
X130031369Y56306238D01*
X130031367Y56306241D01*
X129932608Y56491006D01*
X129871789Y56691500D01*
X129851254Y56900000D01*
X129871789Y57108500D01*
X129932608Y57308994D01*
X130031367Y57493759D01*
X130042612Y57507461D01*
X130164282Y57655718D01*
X130326237Y57788630D01*
X130326238Y57788631D01*
X130326241Y57788633D01*
X130511006Y57887392D01*
X130711500Y57948211D01*
X130867749Y57963600D01*
X130972251Y57963600D01*
X131128500Y57948211D01*
X131128500Y57948211D01*
G37*
G36*
X133668500Y57948211D02*
G01*
X133868994Y57887392D01*
X134053759Y57788633D01*
X134053762Y57788631D01*
X134053763Y57788630D01*
X134215718Y57655718D01*
X134337388Y57507461D01*
X134348633Y57493759D01*
X134447392Y57308994D01*
X134508211Y57108500D01*
X134528746Y56900000D01*
X134508211Y56691500D01*
X134447392Y56491006D01*
X134348633Y56306241D01*
X134348631Y56306238D01*
X134348630Y56306237D01*
X134215718Y56144282D01*
X134056782Y56013848D01*
X134053759Y56011367D01*
X133868994Y55912608D01*
X133668500Y55851789D01*
X133512251Y55836400D01*
X133407749Y55836400D01*
X133251500Y55851789D01*
X133051006Y55912608D01*
X132866241Y56011367D01*
X132863218Y56013848D01*
X132704282Y56144282D01*
X132571370Y56306237D01*
X132571369Y56306238D01*
X132571367Y56306241D01*
X132472608Y56491006D01*
X132411789Y56691500D01*
X132391254Y56900000D01*
X132411789Y57108500D01*
X132472608Y57308994D01*
X132571367Y57493759D01*
X132582612Y57507461D01*
X132704282Y57655718D01*
X132866237Y57788630D01*
X132866238Y57788631D01*
X132866241Y57788633D01*
X133051006Y57887392D01*
X133251500Y57948211D01*
X133407749Y57963600D01*
X133512251Y57963600D01*
X133668500Y57948211D01*
X133668500Y57948211D01*
G37*
G36*
X152008500Y57948211D02*
G01*
X152208994Y57887392D01*
X152393759Y57788633D01*
X152393762Y57788631D01*
X152393763Y57788630D01*
X152555718Y57655718D01*
X152677388Y57507461D01*
X152688633Y57493759D01*
X152787392Y57308994D01*
X152848211Y57108500D01*
X152868746Y56900000D01*
X152848211Y56691500D01*
X152787392Y56491006D01*
X152688633Y56306241D01*
X152688631Y56306238D01*
X152688630Y56306237D01*
X152555718Y56144282D01*
X152396782Y56013848D01*
X152393759Y56011367D01*
X152208994Y55912608D01*
X152008500Y55851789D01*
X151852251Y55836400D01*
X151747749Y55836400D01*
X151591500Y55851789D01*
X151391006Y55912608D01*
X151206241Y56011367D01*
X151203218Y56013848D01*
X151044282Y56144282D01*
X150911370Y56306237D01*
X150911369Y56306238D01*
X150911367Y56306241D01*
X150812608Y56491006D01*
X150751789Y56691500D01*
X150731254Y56900000D01*
X150751789Y57108500D01*
X150812608Y57308994D01*
X150911367Y57493759D01*
X150922612Y57507461D01*
X151044282Y57655718D01*
X151206237Y57788630D01*
X151206238Y57788631D01*
X151206241Y57788633D01*
X151391006Y57887392D01*
X151591500Y57948211D01*
X151747749Y57963600D01*
X151852251Y57963600D01*
X152008500Y57948211D01*
X152008500Y57948211D01*
G37*
G36*
X149468500Y57948211D02*
G01*
X149668994Y57887392D01*
X149853759Y57788633D01*
X149853762Y57788631D01*
X149853763Y57788630D01*
X150015718Y57655718D01*
X150137388Y57507461D01*
X150148633Y57493759D01*
X150247392Y57308994D01*
X150308211Y57108500D01*
X150328746Y56900000D01*
X150308211Y56691500D01*
X150247392Y56491006D01*
X150148633Y56306241D01*
X150148631Y56306238D01*
X150148630Y56306237D01*
X150015718Y56144282D01*
X149856782Y56013848D01*
X149853759Y56011367D01*
X149668994Y55912608D01*
X149468500Y55851789D01*
X149312251Y55836400D01*
X149207749Y55836400D01*
X149051500Y55851789D01*
X148851006Y55912608D01*
X148666241Y56011367D01*
X148663218Y56013848D01*
X148504282Y56144282D01*
X148371370Y56306237D01*
X148371369Y56306238D01*
X148371367Y56306241D01*
X148272608Y56491006D01*
X148211789Y56691500D01*
X148191254Y56900000D01*
X148211789Y57108500D01*
X148272608Y57308994D01*
X148371367Y57493759D01*
X148382612Y57507461D01*
X148504282Y57655718D01*
X148666237Y57788630D01*
X148666238Y57788631D01*
X148666241Y57788633D01*
X148851006Y57887392D01*
X149051500Y57948211D01*
X149207749Y57963600D01*
X149312251Y57963600D01*
X149468500Y57948211D01*
X149468500Y57948211D01*
G37*
G36*
X146928500Y57948211D02*
G01*
X147128994Y57887392D01*
X147313759Y57788633D01*
X147313762Y57788631D01*
X147313763Y57788630D01*
X147475718Y57655718D01*
X147597388Y57507461D01*
X147608633Y57493759D01*
X147707392Y57308994D01*
X147768211Y57108500D01*
X147788746Y56900000D01*
X147768211Y56691500D01*
X147707392Y56491006D01*
X147608633Y56306241D01*
X147608631Y56306238D01*
X147608630Y56306237D01*
X147475718Y56144282D01*
X147316782Y56013848D01*
X147313759Y56011367D01*
X147128994Y55912608D01*
X146928500Y55851789D01*
X146772251Y55836400D01*
X146667749Y55836400D01*
X146511500Y55851789D01*
X146311006Y55912608D01*
X146126241Y56011367D01*
X146123218Y56013848D01*
X145964282Y56144282D01*
X145831370Y56306237D01*
X145831369Y56306238D01*
X145831367Y56306241D01*
X145732608Y56491006D01*
X145671789Y56691500D01*
X145651254Y56900000D01*
X145671789Y57108500D01*
X145732608Y57308994D01*
X145831367Y57493759D01*
X145842612Y57507461D01*
X145964282Y57655718D01*
X146126237Y57788630D01*
X146126238Y57788631D01*
X146126241Y57788633D01*
X146311006Y57887392D01*
X146511500Y57948211D01*
X146667749Y57963600D01*
X146772251Y57963600D01*
X146928500Y57948211D01*
X146928500Y57948211D01*
G37*
G36*
X82742290Y57844381D02*
G01*
X82806689Y57831571D01*
X82988678Y57756189D01*
X83152463Y57646751D01*
X83291751Y57507463D01*
X83401189Y57343678D01*
X83476571Y57161689D01*
X83476571Y57161688D01*
X83515000Y56968493D01*
X83515000Y56771507D01*
X83499085Y56691498D01*
X83476571Y56578311D01*
X83401189Y56396322D01*
X83291751Y56232537D01*
X83152463Y56093249D01*
X82988678Y55983811D01*
X82806689Y55908429D01*
X82751493Y55897450D01*
X82613493Y55870000D01*
X82416507Y55870000D01*
X82278507Y55897450D01*
X82223311Y55908429D01*
X82041322Y55983811D01*
X81877537Y56093249D01*
X81738249Y56232537D01*
X81628811Y56396322D01*
X81553429Y56578311D01*
X81530915Y56691498D01*
X81515000Y56771507D01*
X81515000Y56968493D01*
X81553429Y57161688D01*
X81553429Y57161689D01*
X81628811Y57343678D01*
X81738249Y57507463D01*
X81877537Y57646751D01*
X82041322Y57756189D01*
X82223311Y57831571D01*
X82287710Y57844381D01*
X82416507Y57870000D01*
X82613493Y57870000D01*
X82742290Y57844381D01*
X82742290Y57844381D01*
G37*
G36*
X85282290Y57844381D02*
G01*
X85346689Y57831571D01*
X85528678Y57756189D01*
X85692463Y57646751D01*
X85831751Y57507463D01*
X85941189Y57343678D01*
X86016571Y57161689D01*
X86016571Y57161688D01*
X86055000Y56968493D01*
X86055000Y56771507D01*
X86039085Y56691498D01*
X86016571Y56578311D01*
X85941189Y56396322D01*
X85831751Y56232537D01*
X85692463Y56093249D01*
X85528678Y55983811D01*
X85346689Y55908429D01*
X85291493Y55897450D01*
X85153493Y55870000D01*
X84956507Y55870000D01*
X84818507Y55897450D01*
X84763311Y55908429D01*
X84581322Y55983811D01*
X84417537Y56093249D01*
X84278249Y56232537D01*
X84168811Y56396322D01*
X84093429Y56578311D01*
X84070915Y56691498D01*
X84055000Y56771507D01*
X84055000Y56968493D01*
X84093429Y57161688D01*
X84093429Y57161689D01*
X84168811Y57343678D01*
X84278249Y57507463D01*
X84417537Y57646751D01*
X84581322Y57756189D01*
X84763311Y57831571D01*
X84827710Y57844381D01*
X84956507Y57870000D01*
X85153493Y57870000D01*
X85282290Y57844381D01*
X85282290Y57844381D01*
G37*
G36*
X87822290Y57844381D02*
G01*
X87886689Y57831571D01*
X88068678Y57756189D01*
X88232463Y57646751D01*
X88371751Y57507463D01*
X88481189Y57343678D01*
X88556571Y57161689D01*
X88556571Y57161688D01*
X88595000Y56968493D01*
X88595000Y56771507D01*
X88579085Y56691498D01*
X88556571Y56578311D01*
X88481189Y56396322D01*
X88371751Y56232537D01*
X88232463Y56093249D01*
X88068678Y55983811D01*
X87886689Y55908429D01*
X87831493Y55897450D01*
X87693493Y55870000D01*
X87496507Y55870000D01*
X87358507Y55897450D01*
X87303311Y55908429D01*
X87121322Y55983811D01*
X86957537Y56093249D01*
X86818249Y56232537D01*
X86708811Y56396322D01*
X86633429Y56578311D01*
X86610915Y56691498D01*
X86595000Y56771507D01*
X86595000Y56968493D01*
X86633429Y57161688D01*
X86633429Y57161689D01*
X86708811Y57343678D01*
X86818249Y57507463D01*
X86957537Y57646751D01*
X87121322Y57756189D01*
X87303311Y57831571D01*
X87367710Y57844381D01*
X87496507Y57870000D01*
X87693493Y57870000D01*
X87822290Y57844381D01*
X87822290Y57844381D01*
G37*
G36*
X97982290Y57844381D02*
G01*
X98046689Y57831571D01*
X98228678Y57756189D01*
X98392463Y57646751D01*
X98531751Y57507463D01*
X98641189Y57343678D01*
X98716571Y57161689D01*
X98716571Y57161688D01*
X98755000Y56968493D01*
X98755000Y56771507D01*
X98739085Y56691498D01*
X98716571Y56578311D01*
X98641189Y56396322D01*
X98531751Y56232537D01*
X98392463Y56093249D01*
X98228678Y55983811D01*
X98046689Y55908429D01*
X97991493Y55897450D01*
X97853493Y55870000D01*
X97656507Y55870000D01*
X97518507Y55897450D01*
X97463311Y55908429D01*
X97281322Y55983811D01*
X97117537Y56093249D01*
X96978249Y56232537D01*
X96868811Y56396322D01*
X96793429Y56578311D01*
X96770915Y56691498D01*
X96755000Y56771507D01*
X96755000Y56968493D01*
X96793429Y57161688D01*
X96793429Y57161689D01*
X96868811Y57343678D01*
X96978249Y57507463D01*
X97117537Y57646751D01*
X97281322Y57756189D01*
X97463311Y57831571D01*
X97527710Y57844381D01*
X97656507Y57870000D01*
X97853493Y57870000D01*
X97982290Y57844381D01*
X97982290Y57844381D01*
G37*
G36*
X90362290Y57844381D02*
G01*
X90426689Y57831571D01*
X90608678Y57756189D01*
X90772463Y57646751D01*
X90911751Y57507463D01*
X91021189Y57343678D01*
X91096571Y57161689D01*
X91096571Y57161688D01*
X91135000Y56968493D01*
X91135000Y56771507D01*
X91119085Y56691498D01*
X91096571Y56578311D01*
X91021189Y56396322D01*
X90911751Y56232537D01*
X90772463Y56093249D01*
X90608678Y55983811D01*
X90426689Y55908429D01*
X90371493Y55897450D01*
X90233493Y55870000D01*
X90036507Y55870000D01*
X89898507Y55897450D01*
X89843311Y55908429D01*
X89661322Y55983811D01*
X89497537Y56093249D01*
X89358249Y56232537D01*
X89248811Y56396322D01*
X89173429Y56578311D01*
X89150915Y56691498D01*
X89135000Y56771507D01*
X89135000Y56968493D01*
X89173429Y57161688D01*
X89173429Y57161689D01*
X89248811Y57343678D01*
X89358249Y57507463D01*
X89497537Y57646751D01*
X89661322Y57756189D01*
X89843311Y57831571D01*
X89907710Y57844381D01*
X90036507Y57870000D01*
X90233493Y57870000D01*
X90362290Y57844381D01*
X90362290Y57844381D01*
G37*
G36*
X92902290Y57844381D02*
G01*
X92966689Y57831571D01*
X93148678Y57756189D01*
X93312463Y57646751D01*
X93451751Y57507463D01*
X93561189Y57343678D01*
X93636571Y57161689D01*
X93636571Y57161688D01*
X93675000Y56968493D01*
X93675000Y56771507D01*
X93659085Y56691498D01*
X93636571Y56578311D01*
X93561189Y56396322D01*
X93451751Y56232537D01*
X93312463Y56093249D01*
X93148678Y55983811D01*
X92966689Y55908429D01*
X92911493Y55897450D01*
X92773493Y55870000D01*
X92576507Y55870000D01*
X92438507Y55897450D01*
X92383311Y55908429D01*
X92201322Y55983811D01*
X92037537Y56093249D01*
X91898249Y56232537D01*
X91788811Y56396322D01*
X91713429Y56578311D01*
X91690915Y56691498D01*
X91675000Y56771507D01*
X91675000Y56968493D01*
X91713429Y57161688D01*
X91713429Y57161689D01*
X91788811Y57343678D01*
X91898249Y57507463D01*
X92037537Y57646751D01*
X92201322Y57756189D01*
X92383311Y57831571D01*
X92447710Y57844381D01*
X92576507Y57870000D01*
X92773493Y57870000D01*
X92902290Y57844381D01*
X92902290Y57844381D01*
G37*
G36*
X95442290Y57844381D02*
G01*
X95506689Y57831571D01*
X95688678Y57756189D01*
X95852463Y57646751D01*
X95991751Y57507463D01*
X96101189Y57343678D01*
X96176571Y57161689D01*
X96176571Y57161688D01*
X96215000Y56968493D01*
X96215000Y56771507D01*
X96199085Y56691498D01*
X96176571Y56578311D01*
X96101189Y56396322D01*
X95991751Y56232537D01*
X95852463Y56093249D01*
X95688678Y55983811D01*
X95506689Y55908429D01*
X95451493Y55897450D01*
X95313493Y55870000D01*
X95116507Y55870000D01*
X94978507Y55897450D01*
X94923311Y55908429D01*
X94741322Y55983811D01*
X94577537Y56093249D01*
X94438249Y56232537D01*
X94328811Y56396322D01*
X94253429Y56578311D01*
X94230915Y56691498D01*
X94215000Y56771507D01*
X94215000Y56968493D01*
X94253429Y57161688D01*
X94253429Y57161689D01*
X94328811Y57343678D01*
X94438249Y57507463D01*
X94577537Y57646751D01*
X94741322Y57756189D01*
X94923311Y57831571D01*
X94987710Y57844381D01*
X95116507Y57870000D01*
X95313493Y57870000D01*
X95442290Y57844381D01*
X95442290Y57844381D01*
G37*
G36*
X71766827Y73025629D02*
G01*
X72057461Y72905244D01*
X72057463Y72905243D01*
X72319028Y72730471D01*
X72541471Y72508028D01*
X72716243Y72246463D01*
X72716244Y72246461D01*
X72836629Y71955827D01*
X72898000Y71647292D01*
X72898000Y71332708D01*
X72836629Y71024173D01*
X72716244Y70733539D01*
X72716243Y70733537D01*
X72541471Y70471972D01*
X72319028Y70249529D01*
X72057463Y70074757D01*
X72057462Y70074756D01*
X72057461Y70074756D01*
X71766827Y69954371D01*
X71458292Y69893000D01*
X71143708Y69893000D01*
X70835173Y69954371D01*
X70544539Y70074756D01*
X70544538Y70074756D01*
X70544537Y70074757D01*
X70282972Y70249529D01*
X70060529Y70471972D01*
X69885757Y70733537D01*
X69885756Y70733539D01*
X69765371Y71024173D01*
X69704000Y71332708D01*
X69704000Y71647292D01*
X69765371Y71955827D01*
X69885756Y72246461D01*
X69885757Y72246463D01*
X70060529Y72508028D01*
X70282972Y72730471D01*
X70544537Y72905243D01*
X70544539Y72905244D01*
X70835173Y73025629D01*
X71143708Y73087000D01*
X71458292Y73087000D01*
X71766827Y73025629D01*
X71766827Y73025629D01*
G37*
G36*
X85766827Y73025629D02*
G01*
X86057461Y72905244D01*
X86057463Y72905243D01*
X86319028Y72730471D01*
X86541471Y72508028D01*
X86716243Y72246463D01*
X86716244Y72246461D01*
X86836629Y71955827D01*
X86898000Y71647292D01*
X86898000Y71332708D01*
X86836629Y71024173D01*
X86716244Y70733539D01*
X86716243Y70733537D01*
X86541471Y70471972D01*
X86319028Y70249529D01*
X86057463Y70074757D01*
X86057462Y70074756D01*
X86057461Y70074756D01*
X85766827Y69954371D01*
X85458292Y69893000D01*
X85143708Y69893000D01*
X84835173Y69954371D01*
X84544539Y70074756D01*
X84544538Y70074756D01*
X84544537Y70074757D01*
X84282972Y70249529D01*
X84060529Y70471972D01*
X83885757Y70733537D01*
X83885756Y70733539D01*
X83765371Y71024173D01*
X83704000Y71332708D01*
X83704000Y71647292D01*
X83765371Y71955827D01*
X83885756Y72246461D01*
X83885757Y72246463D01*
X84060529Y72508028D01*
X84282972Y72730471D01*
X84544537Y72905243D01*
X84544539Y72905244D01*
X84835173Y73025629D01*
X85143708Y73087000D01*
X85458292Y73087000D01*
X85766827Y73025629D01*
X85766827Y73025629D01*
G37*
G36*
X95164827Y73025629D02*
G01*
X95455461Y72905244D01*
X95455463Y72905243D01*
X95717028Y72730471D01*
X95939471Y72508028D01*
X96114243Y72246463D01*
X96114244Y72246461D01*
X96234629Y71955827D01*
X96296000Y71647292D01*
X96296000Y71332708D01*
X96234629Y71024173D01*
X96114244Y70733539D01*
X96114243Y70733537D01*
X95939471Y70471972D01*
X95717028Y70249529D01*
X95455463Y70074757D01*
X95455462Y70074756D01*
X95455461Y70074756D01*
X95164827Y69954371D01*
X94856292Y69893000D01*
X94541708Y69893000D01*
X94233173Y69954371D01*
X93942539Y70074756D01*
X93942538Y70074756D01*
X93942537Y70074757D01*
X93680972Y70249529D01*
X93458529Y70471972D01*
X93283757Y70733537D01*
X93283756Y70733539D01*
X93163371Y71024173D01*
X93102000Y71332708D01*
X93102000Y71647292D01*
X93163371Y71955827D01*
X93283756Y72246461D01*
X93283757Y72246463D01*
X93458529Y72508028D01*
X93680972Y72730471D01*
X93942537Y72905243D01*
X93942539Y72905244D01*
X94233173Y73025629D01*
X94541708Y73087000D01*
X94856292Y73087000D01*
X95164827Y73025629D01*
X95164827Y73025629D01*
G37*
G36*
X90465827Y73025629D02*
G01*
X90756461Y72905244D01*
X90756463Y72905243D01*
X91018028Y72730471D01*
X91240471Y72508028D01*
X91415243Y72246463D01*
X91415244Y72246461D01*
X91535629Y71955827D01*
X91597000Y71647292D01*
X91597000Y71332708D01*
X91535629Y71024173D01*
X91415244Y70733539D01*
X91415243Y70733537D01*
X91240471Y70471972D01*
X91018028Y70249529D01*
X90756463Y70074757D01*
X90756462Y70074756D01*
X90756461Y70074756D01*
X90465827Y69954371D01*
X90157292Y69893000D01*
X89842708Y69893000D01*
X89534173Y69954371D01*
X89243539Y70074756D01*
X89243538Y70074756D01*
X89243537Y70074757D01*
X88981972Y70249529D01*
X88759529Y70471972D01*
X88584757Y70733537D01*
X88584756Y70733539D01*
X88464371Y71024173D01*
X88403000Y71332708D01*
X88403000Y71647292D01*
X88464371Y71955827D01*
X88584756Y72246461D01*
X88584757Y72246463D01*
X88759529Y72508028D01*
X88981972Y72730471D01*
X89243537Y72905243D01*
X89243539Y72905244D01*
X89534173Y73025629D01*
X89842708Y73087000D01*
X90157292Y73087000D01*
X90465827Y73025629D01*
X90465827Y73025629D01*
G37*
G36*
X76465827Y73025629D02*
G01*
X76756461Y72905244D01*
X76756463Y72905243D01*
X77018028Y72730471D01*
X77240471Y72508028D01*
X77415243Y72246463D01*
X77415244Y72246461D01*
X77535629Y71955827D01*
X77597000Y71647292D01*
X77597000Y71332708D01*
X77535629Y71024173D01*
X77415244Y70733539D01*
X77415243Y70733537D01*
X77240471Y70471972D01*
X77018028Y70249529D01*
X76756463Y70074757D01*
X76756462Y70074756D01*
X76756461Y70074756D01*
X76465827Y69954371D01*
X76157292Y69893000D01*
X75842708Y69893000D01*
X75534173Y69954371D01*
X75243539Y70074756D01*
X75243538Y70074756D01*
X75243537Y70074757D01*
X74981972Y70249529D01*
X74759529Y70471972D01*
X74584757Y70733537D01*
X74584756Y70733539D01*
X74464371Y71024173D01*
X74403000Y71332708D01*
X74403000Y71647292D01*
X74464371Y71955827D01*
X74584756Y72246461D01*
X74584757Y72246463D01*
X74759529Y72508028D01*
X74981972Y72730471D01*
X75243537Y72905243D01*
X75243539Y72905244D01*
X75534173Y73025629D01*
X75842708Y73087000D01*
X76157292Y73087000D01*
X76465827Y73025629D01*
X76465827Y73025629D01*
G37*
G36*
X81164827Y73025629D02*
G01*
X81455461Y72905244D01*
X81455463Y72905243D01*
X81717028Y72730471D01*
X81939471Y72508028D01*
X82114243Y72246463D01*
X82114244Y72246461D01*
X82234629Y71955827D01*
X82296000Y71647292D01*
X82296000Y71332708D01*
X82234629Y71024173D01*
X82114244Y70733539D01*
X82114243Y70733537D01*
X81939471Y70471972D01*
X81717028Y70249529D01*
X81455463Y70074757D01*
X81455462Y70074756D01*
X81455461Y70074756D01*
X81164827Y69954371D01*
X80856292Y69893000D01*
X80541708Y69893000D01*
X80233173Y69954371D01*
X79942539Y70074756D01*
X79942538Y70074756D01*
X79942537Y70074757D01*
X79680972Y70249529D01*
X79458529Y70471972D01*
X79283757Y70733537D01*
X79283756Y70733539D01*
X79163371Y71024173D01*
X79102000Y71332708D01*
X79102000Y71647292D01*
X79163371Y71955827D01*
X79283756Y72246461D01*
X79283757Y72246463D01*
X79458529Y72508028D01*
X79680972Y72730471D01*
X79942537Y72905243D01*
X79942539Y72905244D01*
X80233173Y73025629D01*
X80541708Y73087000D01*
X80856292Y73087000D01*
X81164827Y73025629D01*
X81164827Y73025629D01*
G37*
G36*
X116160026Y74873885D02*
G01*
X116378411Y74783427D01*
X116378413Y74783426D01*
X116574955Y74652101D01*
X116742101Y74484955D01*
X116827290Y74357461D01*
X116873427Y74288411D01*
X116963885Y74070026D01*
X117010000Y73838191D01*
X117010000Y73601809D01*
X116963885Y73369974D01*
X116873427Y73151589D01*
X116873426Y73151587D01*
X116742101Y72955045D01*
X116574955Y72787899D01*
X116378413Y72656574D01*
X116378412Y72656573D01*
X116378411Y72656573D01*
X116160026Y72566115D01*
X115928191Y72520000D01*
X115691809Y72520000D01*
X115459974Y72566115D01*
X115241589Y72656573D01*
X115241588Y72656573D01*
X115241587Y72656574D01*
X115045045Y72787899D01*
X114877899Y72955045D01*
X114746574Y73151587D01*
X114746573Y73151589D01*
X114656115Y73369974D01*
X114610000Y73601809D01*
X114610000Y73838191D01*
X114656115Y74070026D01*
X114746573Y74288411D01*
X114792711Y74357461D01*
X114877899Y74484955D01*
X115045045Y74652101D01*
X115241587Y74783426D01*
X115241589Y74783427D01*
X115459974Y74873885D01*
X115691809Y74920000D01*
X115928191Y74920000D01*
X116160026Y74873885D01*
X116160026Y74873885D01*
G37*
G36*
X108540026Y74873885D02*
G01*
X108758411Y74783427D01*
X108758413Y74783426D01*
X108954955Y74652101D01*
X109122101Y74484955D01*
X109207290Y74357461D01*
X109253427Y74288411D01*
X109343885Y74070026D01*
X109390000Y73838191D01*
X109390000Y73601809D01*
X109343885Y73369974D01*
X109253427Y73151589D01*
X109253426Y73151587D01*
X109122101Y72955045D01*
X108954955Y72787899D01*
X108758413Y72656574D01*
X108758412Y72656573D01*
X108758411Y72656573D01*
X108540026Y72566115D01*
X108308191Y72520000D01*
X108071809Y72520000D01*
X107839974Y72566115D01*
X107621589Y72656573D01*
X107621588Y72656573D01*
X107621587Y72656574D01*
X107425045Y72787899D01*
X107257899Y72955045D01*
X107126574Y73151587D01*
X107126573Y73151589D01*
X107036115Y73369974D01*
X106990000Y73601809D01*
X106990000Y73838191D01*
X107036115Y74070026D01*
X107126573Y74288411D01*
X107172711Y74357461D01*
X107257899Y74484955D01*
X107425045Y74652101D01*
X107621587Y74783426D01*
X107621589Y74783427D01*
X107839974Y74873885D01*
X108071809Y74920000D01*
X108308191Y74920000D01*
X108540026Y74873885D01*
X108540026Y74873885D01*
G37*
G36*
X112227290Y74694381D02*
G01*
X112291689Y74681571D01*
X112473678Y74606189D01*
X112637463Y74496751D01*
X112776751Y74357463D01*
X112886189Y74193678D01*
X112961571Y74011689D01*
X112961571Y74011688D01*
X113000000Y73818493D01*
X113000000Y73621507D01*
X112990401Y73573249D01*
X112961571Y73428311D01*
X112886189Y73246322D01*
X112776751Y73082537D01*
X112637463Y72943249D01*
X112473678Y72833811D01*
X112291689Y72758429D01*
X112227290Y72745619D01*
X112098493Y72720000D01*
X111901507Y72720000D01*
X111772710Y72745619D01*
X111708311Y72758429D01*
X111526322Y72833811D01*
X111362537Y72943249D01*
X111223249Y73082537D01*
X111113811Y73246322D01*
X111038429Y73428311D01*
X111009599Y73573249D01*
X111000000Y73621507D01*
X111000000Y73818493D01*
X111038429Y74011688D01*
X111038429Y74011689D01*
X111113811Y74193678D01*
X111223249Y74357463D01*
X111362537Y74496751D01*
X111526322Y74606189D01*
X111708311Y74681571D01*
X111772710Y74694381D01*
X111901507Y74720000D01*
X112098493Y74720000D01*
X112227290Y74694381D01*
X112227290Y74694381D01*
G37*
G36*
X135227290Y75324381D02*
G01*
X135291689Y75311571D01*
X135473678Y75236189D01*
X135637463Y75126751D01*
X135776751Y74987463D01*
X135886189Y74823678D01*
X135945051Y74681571D01*
X135961571Y74641688D01*
X136000000Y74448493D01*
X136000000Y74251507D01*
X135974381Y74122710D01*
X135961571Y74058311D01*
X135886189Y73876322D01*
X135776751Y73712537D01*
X135637463Y73573249D01*
X135473678Y73463811D01*
X135291689Y73388429D01*
X135227290Y73375619D01*
X135098493Y73350000D01*
X134901507Y73350000D01*
X134772710Y73375619D01*
X134708311Y73388429D01*
X134526322Y73463811D01*
X134362537Y73573249D01*
X134223249Y73712537D01*
X134113811Y73876322D01*
X134038429Y74058311D01*
X134025619Y74122710D01*
X134000000Y74251507D01*
X134000000Y74448493D01*
X134038429Y74641688D01*
X134054949Y74681571D01*
X134113811Y74823678D01*
X134223249Y74987463D01*
X134362537Y75126751D01*
X134526322Y75236189D01*
X134708311Y75311571D01*
X134772710Y75324381D01*
X134901507Y75350000D01*
X135098493Y75350000D01*
X135227290Y75324381D01*
X135227290Y75324381D01*
G37*
G36*
X71766827Y76835629D02*
G01*
X72057461Y76715244D01*
X72057463Y76715243D01*
X72319028Y76540471D01*
X72541471Y76318028D01*
X72716243Y76056463D01*
X72716244Y76056461D01*
X72836629Y75765827D01*
X72898000Y75457292D01*
X72898000Y75142708D01*
X72836629Y74834173D01*
X72716244Y74543539D01*
X72716243Y74543537D01*
X72541471Y74281972D01*
X72319028Y74059529D01*
X72057463Y73884757D01*
X72057462Y73884756D01*
X72057461Y73884756D01*
X71766827Y73764371D01*
X71458292Y73703000D01*
X71143708Y73703000D01*
X70835173Y73764371D01*
X70544539Y73884756D01*
X70544538Y73884756D01*
X70544537Y73884757D01*
X70282972Y74059529D01*
X70060529Y74281972D01*
X69885757Y74543537D01*
X69885756Y74543539D01*
X69765371Y74834173D01*
X69704000Y75142708D01*
X69704000Y75457292D01*
X69765371Y75765827D01*
X69885756Y76056461D01*
X69885757Y76056463D01*
X70060529Y76318028D01*
X70282972Y76540471D01*
X70544537Y76715243D01*
X70544539Y76715244D01*
X70835173Y76835629D01*
X71143708Y76897000D01*
X71458292Y76897000D01*
X71766827Y76835629D01*
X71766827Y76835629D01*
G37*
G36*
X76465827Y76835629D02*
G01*
X76756461Y76715244D01*
X76756463Y76715243D01*
X77018028Y76540471D01*
X77240471Y76318028D01*
X77415243Y76056463D01*
X77415244Y76056461D01*
X77535629Y75765827D01*
X77597000Y75457292D01*
X77597000Y75142708D01*
X77535629Y74834173D01*
X77415244Y74543539D01*
X77415243Y74543537D01*
X77240471Y74281972D01*
X77018028Y74059529D01*
X76756463Y73884757D01*
X76756462Y73884756D01*
X76756461Y73884756D01*
X76465827Y73764371D01*
X76157292Y73703000D01*
X75842708Y73703000D01*
X75534173Y73764371D01*
X75243539Y73884756D01*
X75243538Y73884756D01*
X75243537Y73884757D01*
X74981972Y74059529D01*
X74759529Y74281972D01*
X74584757Y74543537D01*
X74584756Y74543539D01*
X74464371Y74834173D01*
X74403000Y75142708D01*
X74403000Y75457292D01*
X74464371Y75765827D01*
X74584756Y76056461D01*
X74584757Y76056463D01*
X74759529Y76318028D01*
X74981972Y76540471D01*
X75243537Y76715243D01*
X75243539Y76715244D01*
X75534173Y76835629D01*
X75842708Y76897000D01*
X76157292Y76897000D01*
X76465827Y76835629D01*
X76465827Y76835629D01*
G37*
G36*
X81164827Y76835629D02*
G01*
X81455461Y76715244D01*
X81455463Y76715243D01*
X81717028Y76540471D01*
X81939471Y76318028D01*
X82114243Y76056463D01*
X82114244Y76056461D01*
X82234629Y75765827D01*
X82296000Y75457292D01*
X82296000Y75142708D01*
X82234629Y74834173D01*
X82114244Y74543539D01*
X82114243Y74543537D01*
X81939471Y74281972D01*
X81717028Y74059529D01*
X81455463Y73884757D01*
X81455462Y73884756D01*
X81455461Y73884756D01*
X81164827Y73764371D01*
X80856292Y73703000D01*
X80541708Y73703000D01*
X80233173Y73764371D01*
X79942539Y73884756D01*
X79942538Y73884756D01*
X79942537Y73884757D01*
X79680972Y74059529D01*
X79458529Y74281972D01*
X79283757Y74543537D01*
X79283756Y74543539D01*
X79163371Y74834173D01*
X79102000Y75142708D01*
X79102000Y75457292D01*
X79163371Y75765827D01*
X79283756Y76056461D01*
X79283757Y76056463D01*
X79458529Y76318028D01*
X79680972Y76540471D01*
X79942537Y76715243D01*
X79942539Y76715244D01*
X80233173Y76835629D01*
X80541708Y76897000D01*
X80856292Y76897000D01*
X81164827Y76835629D01*
X81164827Y76835629D01*
G37*
G36*
X85766827Y76835629D02*
G01*
X86057461Y76715244D01*
X86057463Y76715243D01*
X86319028Y76540471D01*
X86541471Y76318028D01*
X86716243Y76056463D01*
X86716244Y76056461D01*
X86836629Y75765827D01*
X86898000Y75457292D01*
X86898000Y75142708D01*
X86836629Y74834173D01*
X86716244Y74543539D01*
X86716243Y74543537D01*
X86541471Y74281972D01*
X86319028Y74059529D01*
X86057463Y73884757D01*
X86057462Y73884756D01*
X86057461Y73884756D01*
X85766827Y73764371D01*
X85458292Y73703000D01*
X85143708Y73703000D01*
X84835173Y73764371D01*
X84544539Y73884756D01*
X84544538Y73884756D01*
X84544537Y73884757D01*
X84282972Y74059529D01*
X84060529Y74281972D01*
X83885757Y74543537D01*
X83885756Y74543539D01*
X83765371Y74834173D01*
X83704000Y75142708D01*
X83704000Y75457292D01*
X83765371Y75765827D01*
X83885756Y76056461D01*
X83885757Y76056463D01*
X84060529Y76318028D01*
X84282972Y76540471D01*
X84544537Y76715243D01*
X84544539Y76715244D01*
X84835173Y76835629D01*
X85143708Y76897000D01*
X85458292Y76897000D01*
X85766827Y76835629D01*
X85766827Y76835629D01*
G37*
G36*
X90465827Y76835629D02*
G01*
X90756461Y76715244D01*
X90756463Y76715243D01*
X91018028Y76540471D01*
X91240471Y76318028D01*
X91415243Y76056463D01*
X91415244Y76056461D01*
X91535629Y75765827D01*
X91597000Y75457292D01*
X91597000Y75142708D01*
X91535629Y74834173D01*
X91415244Y74543539D01*
X91415243Y74543537D01*
X91240471Y74281972D01*
X91018028Y74059529D01*
X90756463Y73884757D01*
X90756462Y73884756D01*
X90756461Y73884756D01*
X90465827Y73764371D01*
X90157292Y73703000D01*
X89842708Y73703000D01*
X89534173Y73764371D01*
X89243539Y73884756D01*
X89243538Y73884756D01*
X89243537Y73884757D01*
X88981972Y74059529D01*
X88759529Y74281972D01*
X88584757Y74543537D01*
X88584756Y74543539D01*
X88464371Y74834173D01*
X88403000Y75142708D01*
X88403000Y75457292D01*
X88464371Y75765827D01*
X88584756Y76056461D01*
X88584757Y76056463D01*
X88759529Y76318028D01*
X88981972Y76540471D01*
X89243537Y76715243D01*
X89243539Y76715244D01*
X89534173Y76835629D01*
X89842708Y76897000D01*
X90157292Y76897000D01*
X90465827Y76835629D01*
X90465827Y76835629D01*
G37*
G36*
X95164827Y76835629D02*
G01*
X95455461Y76715244D01*
X95455463Y76715243D01*
X95717028Y76540471D01*
X95939471Y76318028D01*
X96114243Y76056463D01*
X96114244Y76056461D01*
X96234629Y75765827D01*
X96296000Y75457292D01*
X96296000Y75142708D01*
X96234629Y74834173D01*
X96114244Y74543539D01*
X96114243Y74543537D01*
X95939471Y74281972D01*
X95717028Y74059529D01*
X95455463Y73884757D01*
X95455462Y73884756D01*
X95455461Y73884756D01*
X95164827Y73764371D01*
X94856292Y73703000D01*
X94541708Y73703000D01*
X94233173Y73764371D01*
X93942539Y73884756D01*
X93942538Y73884756D01*
X93942537Y73884757D01*
X93680972Y74059529D01*
X93458529Y74281972D01*
X93283757Y74543537D01*
X93283756Y74543539D01*
X93163371Y74834173D01*
X93102000Y75142708D01*
X93102000Y75457292D01*
X93163371Y75765827D01*
X93283756Y76056461D01*
X93283757Y76056463D01*
X93458529Y76318028D01*
X93680972Y76540471D01*
X93942537Y76715243D01*
X93942539Y76715244D01*
X94233173Y76835629D01*
X94541708Y76897000D01*
X94856292Y76897000D01*
X95164827Y76835629D01*
X95164827Y76835629D01*
G37*
G36*
X139160026Y79318885D02*
G01*
X139378411Y79228427D01*
X139378413Y79228426D01*
X139574955Y79097101D01*
X139742101Y78929955D01*
X139860497Y78752763D01*
X139873427Y78733411D01*
X139963885Y78515026D01*
X140010000Y78283191D01*
X140010000Y78046809D01*
X139963885Y77814974D01*
X139893941Y77646115D01*
X139873426Y77596587D01*
X139742101Y77400045D01*
X139574955Y77232899D01*
X139378413Y77101574D01*
X139378412Y77101573D01*
X139378411Y77101573D01*
X139160026Y77011115D01*
X138928191Y76965000D01*
X138691809Y76965000D01*
X138459974Y77011115D01*
X138241589Y77101573D01*
X138241588Y77101573D01*
X138241587Y77101574D01*
X138045045Y77232899D01*
X137877899Y77400045D01*
X137746574Y77596587D01*
X137726059Y77646115D01*
X137656115Y77814974D01*
X137610000Y78046809D01*
X137610000Y78283191D01*
X137656115Y78515026D01*
X137746573Y78733411D01*
X137759504Y78752763D01*
X137877899Y78929955D01*
X138045045Y79097101D01*
X138241587Y79228426D01*
X138241589Y79228427D01*
X138459974Y79318885D01*
X138691809Y79365000D01*
X138928191Y79365000D01*
X139160026Y79318885D01*
X139160026Y79318885D01*
G37*
G36*
X167982306Y78400982D02*
G01*
X168096047Y78353869D01*
X168198413Y78285470D01*
X168285473Y78198410D01*
X168321068Y78145139D01*
X168336613Y78126197D01*
X168355555Y78110652D01*
X168377166Y78099101D01*
X168400615Y78091988D01*
X168425001Y78089586D01*
X168449387Y78091988D01*
X168472836Y78099101D01*
X168494446Y78110653D01*
X168513388Y78126198D01*
X168528932Y78145139D01*
X168564527Y78198410D01*
X168651587Y78285470D01*
X168753953Y78353869D01*
X168867694Y78400982D01*
X168988442Y78425000D01*
X169111558Y78425000D01*
X169232306Y78400982D01*
X169346047Y78353869D01*
X169448413Y78285470D01*
X169461613Y78272270D01*
X169480555Y78256725D01*
X169502166Y78245174D01*
X169525615Y78238061D01*
X169550001Y78235659D01*
X169574387Y78238061D01*
X169597836Y78245174D01*
X169619447Y78256725D01*
X169638389Y78272270D01*
X169653934Y78291212D01*
X169665485Y78312823D01*
X169672598Y78336272D01*
X169675000Y78360658D01*
X169675000Y78425000D01*
X170925000Y78425000D01*
X170925000Y77175000D01*
X169675000Y77175000D01*
X169675000Y77239342D01*
X169672598Y77263728D01*
X169665485Y77287177D01*
X169653934Y77308788D01*
X169638389Y77327730D01*
X169619447Y77343275D01*
X169597836Y77354826D01*
X169574387Y77361939D01*
X169550001Y77364341D01*
X169525615Y77361939D01*
X169502166Y77354826D01*
X169480555Y77343275D01*
X169461613Y77327730D01*
X169448413Y77314530D01*
X169346047Y77246131D01*
X169232306Y77199018D01*
X169111558Y77175000D01*
X168988442Y77175000D01*
X168867694Y77199018D01*
X168753953Y77246131D01*
X168651587Y77314530D01*
X168564527Y77401590D01*
X168528932Y77454861D01*
X168513387Y77473803D01*
X168494445Y77489348D01*
X168472834Y77500899D01*
X168449385Y77508012D01*
X168424999Y77510414D01*
X168400613Y77508012D01*
X168377164Y77500899D01*
X168355554Y77489347D01*
X168336612Y77473802D01*
X168321068Y77454861D01*
X168285473Y77401590D01*
X168198413Y77314530D01*
X168096047Y77246131D01*
X167982306Y77199018D01*
X167861558Y77175000D01*
X167738442Y77175000D01*
X167617694Y77199018D01*
X167503953Y77246131D01*
X167401587Y77314530D01*
X167314530Y77401587D01*
X167246131Y77503953D01*
X167199018Y77617694D01*
X167175000Y77738442D01*
X167175000Y77861558D01*
X167199018Y77982306D01*
X167246131Y78096047D01*
X167314530Y78198413D01*
X167401587Y78285470D01*
X167503953Y78353869D01*
X167617694Y78400982D01*
X167738442Y78425000D01*
X167861558Y78425000D01*
X167982306Y78400982D01*
X167982306Y78400982D01*
G37*
G36*
X131540026Y79953885D02*
G01*
X131758411Y79863427D01*
X131758413Y79863426D01*
X131954955Y79732101D01*
X132122101Y79564955D01*
X132228812Y79405251D01*
X132253427Y79368411D01*
X132343885Y79150026D01*
X132390000Y78918191D01*
X132390000Y78681809D01*
X132343885Y78449974D01*
X132259054Y78245174D01*
X132253426Y78231587D01*
X132122101Y78035045D01*
X131954955Y77867899D01*
X131758413Y77736574D01*
X131758412Y77736573D01*
X131758411Y77736573D01*
X131540026Y77646115D01*
X131308191Y77600000D01*
X131071809Y77600000D01*
X130839974Y77646115D01*
X130621589Y77736573D01*
X130621588Y77736573D01*
X130621587Y77736574D01*
X130425045Y77867899D01*
X130257899Y78035045D01*
X130126574Y78231587D01*
X130120946Y78245174D01*
X130036115Y78449974D01*
X129990000Y78681809D01*
X129990000Y78918191D01*
X130036115Y79150026D01*
X130126573Y79368411D01*
X130151189Y79405251D01*
X130257899Y79564955D01*
X130425045Y79732101D01*
X130621587Y79863426D01*
X130621589Y79863427D01*
X130839974Y79953885D01*
X131071809Y80000000D01*
X131308191Y80000000D01*
X131540026Y79953885D01*
X131540026Y79953885D01*
G37*
G36*
X112227290Y79774381D02*
G01*
X112291689Y79761571D01*
X112473678Y79686189D01*
X112637463Y79576751D01*
X112776751Y79437463D01*
X112886189Y79273678D01*
X112937407Y79150026D01*
X112961571Y79091688D01*
X113000000Y78898493D01*
X113000000Y78701507D01*
X112974830Y78574969D01*
X112961571Y78508311D01*
X112886189Y78326322D01*
X112776751Y78162537D01*
X112637463Y78023249D01*
X112473678Y77913811D01*
X112291689Y77838429D01*
X112227290Y77825619D01*
X112098493Y77800000D01*
X111901507Y77800000D01*
X111772710Y77825619D01*
X111708311Y77838429D01*
X111526322Y77913811D01*
X111362537Y78023249D01*
X111223249Y78162537D01*
X111113811Y78326322D01*
X111038429Y78508311D01*
X111025170Y78574969D01*
X111000000Y78701507D01*
X111000000Y78898493D01*
X111038429Y79091688D01*
X111062593Y79150026D01*
X111113811Y79273678D01*
X111223249Y79437463D01*
X111362537Y79576751D01*
X111526322Y79686189D01*
X111708311Y79761571D01*
X111772710Y79774381D01*
X111901507Y79800000D01*
X112098493Y79800000D01*
X112227290Y79774381D01*
X112227290Y79774381D01*
G37*
G36*
X20980604Y82424012D02*
G01*
X21068142Y82387752D01*
X21155678Y82351494D01*
X21155679Y82351493D01*
X21313237Y82246217D01*
X21447237Y82112217D01*
X21527735Y81991742D01*
X21552514Y81954658D01*
X21625032Y81779584D01*
X21662000Y81593730D01*
X21662000Y81404230D01*
X21625032Y81218376D01*
X21552514Y81043302D01*
X21552513Y81043301D01*
X21447237Y80885743D01*
X21313237Y80751743D01*
X21155681Y80646468D01*
X21155678Y80646466D01*
X21079645Y80614972D01*
X21058038Y80603423D01*
X21039096Y80587877D01*
X21023551Y80568935D01*
X21012000Y80547324D01*
X21004887Y80523876D01*
X21002485Y80499489D01*
X21004887Y80475103D01*
X21012000Y80451654D01*
X21023551Y80430044D01*
X21039097Y80411102D01*
X21058039Y80395557D01*
X21079645Y80384008D01*
X21155678Y80352514D01*
X21155681Y80352512D01*
X21313237Y80247237D01*
X21447237Y80113237D01*
X21522899Y80000000D01*
X21552514Y79955678D01*
X21553257Y79953884D01*
X21625032Y79780604D01*
X21662000Y79594750D01*
X21662000Y79405250D01*
X21625032Y79219396D01*
X21596298Y79150027D01*
X21552514Y79044322D01*
X21552513Y79044321D01*
X21447237Y78886763D01*
X21313237Y78752763D01*
X21181879Y78664993D01*
X21155678Y78647486D01*
X21068142Y78611228D01*
X20980604Y78574968D01*
X20794750Y78538000D01*
X20605250Y78538000D01*
X20419396Y78574968D01*
X20331858Y78611228D01*
X20244322Y78647486D01*
X20218121Y78664993D01*
X20086763Y78752763D01*
X19952763Y78886763D01*
X19847487Y79044321D01*
X19847486Y79044322D01*
X19803702Y79150027D01*
X19774968Y79219396D01*
X19738000Y79405250D01*
X19738000Y79594750D01*
X19774968Y79780604D01*
X19846743Y79953884D01*
X19847486Y79955678D01*
X19877101Y80000000D01*
X19952763Y80113237D01*
X20086763Y80247237D01*
X20244319Y80352512D01*
X20244322Y80352514D01*
X20320355Y80384008D01*
X20341962Y80395557D01*
X20360904Y80411103D01*
X20376449Y80430045D01*
X20388000Y80451656D01*
X20395113Y80475104D01*
X20397515Y80499491D01*
X20395113Y80523877D01*
X20388000Y80547326D01*
X20376449Y80568936D01*
X20360903Y80587878D01*
X20341961Y80603423D01*
X20320355Y80614972D01*
X20244322Y80646466D01*
X20244319Y80646468D01*
X20086763Y80751743D01*
X19952763Y80885743D01*
X19847487Y81043301D01*
X19847486Y81043302D01*
X19774968Y81218376D01*
X19738000Y81404230D01*
X19738000Y81593730D01*
X19774968Y81779584D01*
X19847486Y81954658D01*
X19872265Y81991742D01*
X19952763Y82112217D01*
X20086763Y82246217D01*
X20244321Y82351493D01*
X20244322Y82351494D01*
X20331858Y82387752D01*
X20419396Y82424012D01*
X20605250Y82460980D01*
X20794750Y82460980D01*
X20980604Y82424012D01*
X20980604Y82424012D01*
G37*
G36*
X23520604Y82424012D02*
G01*
X23608142Y82387752D01*
X23695678Y82351494D01*
X23695679Y82351493D01*
X23853237Y82246217D01*
X23987237Y82112217D01*
X24067735Y81991742D01*
X24092514Y81954658D01*
X24165032Y81779584D01*
X24202000Y81593730D01*
X24202000Y81404230D01*
X24165032Y81218376D01*
X24092514Y81043302D01*
X24092513Y81043301D01*
X23987237Y80885743D01*
X23853237Y80751743D01*
X23695681Y80646468D01*
X23695678Y80646466D01*
X23619645Y80614972D01*
X23598038Y80603423D01*
X23579096Y80587877D01*
X23563551Y80568935D01*
X23552000Y80547324D01*
X23544887Y80523876D01*
X23542485Y80499489D01*
X23544887Y80475103D01*
X23552000Y80451654D01*
X23563551Y80430044D01*
X23579097Y80411102D01*
X23598039Y80395557D01*
X23619645Y80384008D01*
X23695678Y80352514D01*
X23695681Y80352512D01*
X23853237Y80247237D01*
X23987237Y80113237D01*
X24062899Y80000000D01*
X24092514Y79955678D01*
X24093257Y79953884D01*
X24165032Y79780604D01*
X24202000Y79594750D01*
X24202000Y79405250D01*
X24165032Y79219396D01*
X24136298Y79150027D01*
X24092514Y79044322D01*
X24092513Y79044321D01*
X23987237Y78886763D01*
X23853237Y78752763D01*
X23721879Y78664993D01*
X23695678Y78647486D01*
X23608142Y78611228D01*
X23520604Y78574968D01*
X23334750Y78538000D01*
X23145250Y78538000D01*
X22959396Y78574968D01*
X22871858Y78611228D01*
X22784322Y78647486D01*
X22758121Y78664993D01*
X22626763Y78752763D01*
X22492763Y78886763D01*
X22387487Y79044321D01*
X22387486Y79044322D01*
X22343702Y79150027D01*
X22314968Y79219396D01*
X22278000Y79405250D01*
X22278000Y79594750D01*
X22314968Y79780604D01*
X22386743Y79953884D01*
X22387486Y79955678D01*
X22417101Y80000000D01*
X22492763Y80113237D01*
X22626763Y80247237D01*
X22784319Y80352512D01*
X22784322Y80352514D01*
X22860355Y80384008D01*
X22881962Y80395557D01*
X22900904Y80411103D01*
X22916449Y80430045D01*
X22928000Y80451656D01*
X22935113Y80475104D01*
X22937515Y80499491D01*
X22935113Y80523877D01*
X22928000Y80547326D01*
X22916449Y80568936D01*
X22900903Y80587878D01*
X22881961Y80603423D01*
X22860355Y80614972D01*
X22784322Y80646466D01*
X22784319Y80646468D01*
X22626763Y80751743D01*
X22492763Y80885743D01*
X22387487Y81043301D01*
X22387486Y81043302D01*
X22314968Y81218376D01*
X22278000Y81404230D01*
X22278000Y81593730D01*
X22314968Y81779584D01*
X22387486Y81954658D01*
X22412265Y81991742D01*
X22492763Y82112217D01*
X22626763Y82246217D01*
X22784321Y82351493D01*
X22784322Y82351494D01*
X22871858Y82387752D01*
X22959396Y82424012D01*
X23145250Y82460980D01*
X23334750Y82460980D01*
X23520604Y82424012D01*
X23520604Y82424012D01*
G37*
G36*
X165600000Y80250000D02*
G01*
X162400000Y80250000D01*
X162400000Y83750000D01*
X165600000Y83750000D01*
X165600000Y80250000D01*
X165600000Y80250000D01*
G37*
G36*
X175600000Y80250000D02*
G01*
X172400000Y80250000D01*
X172400000Y83750000D01*
X175600000Y83750000D01*
X175600000Y80250000D01*
X175600000Y80250000D01*
G37*
G36*
X116160026Y83763885D02*
G01*
X116378411Y83673427D01*
X116378413Y83673426D01*
X116574955Y83542101D01*
X116742101Y83374955D01*
X116851702Y83210926D01*
X116873427Y83178411D01*
X116963885Y82960026D01*
X117010000Y82728191D01*
X117010000Y82491809D01*
X116963885Y82259974D01*
X116924212Y82164196D01*
X116873426Y82041587D01*
X116742101Y81845045D01*
X116574955Y81677899D01*
X116378413Y81546574D01*
X116378412Y81546573D01*
X116378411Y81546573D01*
X116160026Y81456115D01*
X115928191Y81410000D01*
X115691809Y81410000D01*
X115459974Y81456115D01*
X115241589Y81546573D01*
X115241588Y81546573D01*
X115241587Y81546574D01*
X115045045Y81677899D01*
X114877899Y81845045D01*
X114746574Y82041587D01*
X114695788Y82164196D01*
X114656115Y82259974D01*
X114610000Y82491809D01*
X114610000Y82728191D01*
X114656115Y82960026D01*
X114746573Y83178411D01*
X114768299Y83210926D01*
X114877899Y83374955D01*
X115045045Y83542101D01*
X115241587Y83673426D01*
X115241589Y83673427D01*
X115459974Y83763885D01*
X115691809Y83810000D01*
X115928191Y83810000D01*
X116160026Y83763885D01*
X116160026Y83763885D01*
G37*
G36*
X139160026Y83763885D02*
G01*
X139378411Y83673427D01*
X139378413Y83673426D01*
X139574955Y83542101D01*
X139742101Y83374955D01*
X139851702Y83210926D01*
X139873427Y83178411D01*
X139963885Y82960026D01*
X140010000Y82728191D01*
X140010000Y82491809D01*
X139963885Y82259974D01*
X139924212Y82164196D01*
X139873426Y82041587D01*
X139742101Y81845045D01*
X139574955Y81677899D01*
X139378413Y81546574D01*
X139378412Y81546573D01*
X139378411Y81546573D01*
X139160026Y81456115D01*
X138928191Y81410000D01*
X138691809Y81410000D01*
X138459974Y81456115D01*
X138241589Y81546573D01*
X138241588Y81546573D01*
X138241587Y81546574D01*
X138045045Y81677899D01*
X137877899Y81845045D01*
X137746574Y82041587D01*
X137695788Y82164196D01*
X137656115Y82259974D01*
X137610000Y82491809D01*
X137610000Y82728191D01*
X137656115Y82960026D01*
X137746573Y83178411D01*
X137768299Y83210926D01*
X137877899Y83374955D01*
X138045045Y83542101D01*
X138241587Y83673426D01*
X138241589Y83673427D01*
X138459974Y83763885D01*
X138691809Y83810000D01*
X138928191Y83810000D01*
X139160026Y83763885D01*
X139160026Y83763885D01*
G37*
G36*
X159946031Y86035531D02*
G01*
X159992261Y86021507D01*
X160134534Y85978349D01*
X160134536Y85978348D01*
X160308258Y85885493D01*
X160460528Y85760528D01*
X160585493Y85608258D01*
X160678348Y85434537D01*
X160678349Y85434535D01*
X160689282Y85398493D01*
X160735531Y85246032D01*
X160750000Y85099124D01*
X160750000Y82500876D01*
X160735531Y82353968D01*
X160678348Y82165463D01*
X160585493Y81991742D01*
X160460528Y81839472D01*
X160308258Y81714507D01*
X160134537Y81621652D01*
X160134535Y81621651D01*
X160042492Y81593730D01*
X159946032Y81564469D01*
X159750000Y81545162D01*
X159553969Y81564469D01*
X159457509Y81593730D01*
X159365466Y81621651D01*
X159365464Y81621652D01*
X159191743Y81714507D01*
X159039473Y81839472D01*
X158914508Y81991742D01*
X158821653Y82165463D01*
X158764470Y82353968D01*
X158750001Y82500876D01*
X158750000Y85099123D01*
X158764469Y85246031D01*
X158821652Y85434536D01*
X158914507Y85608258D01*
X159039472Y85760528D01*
X159191742Y85885493D01*
X159365463Y85978348D01*
X159365465Y85978349D01*
X159507738Y86021507D01*
X159553968Y86035531D01*
X159750000Y86054838D01*
X159946031Y86035531D01*
X159946031Y86035531D01*
G37*
G36*
X152446031Y86035531D02*
G01*
X152492261Y86021507D01*
X152634534Y85978349D01*
X152634536Y85978348D01*
X152808258Y85885493D01*
X152960528Y85760528D01*
X153085493Y85608258D01*
X153178348Y85434537D01*
X153178349Y85434535D01*
X153189282Y85398493D01*
X153235531Y85246032D01*
X153250000Y85099124D01*
X153250000Y82500876D01*
X153235531Y82353968D01*
X153178348Y82165463D01*
X153085493Y81991742D01*
X152960528Y81839472D01*
X152808258Y81714507D01*
X152634537Y81621652D01*
X152634535Y81621651D01*
X152542492Y81593730D01*
X152446032Y81564469D01*
X152250000Y81545162D01*
X152053969Y81564469D01*
X151957509Y81593730D01*
X151865466Y81621651D01*
X151865464Y81621652D01*
X151691743Y81714507D01*
X151539473Y81839472D01*
X151414508Y81991742D01*
X151321653Y82165463D01*
X151264470Y82353968D01*
X151250001Y82500876D01*
X151250000Y85099123D01*
X151264469Y85246031D01*
X151321652Y85434536D01*
X151414507Y85608258D01*
X151539472Y85760528D01*
X151691742Y85885493D01*
X151865463Y85978348D01*
X151865465Y85978349D01*
X152007738Y86021507D01*
X152053968Y86035531D01*
X152250000Y86054838D01*
X152446031Y86035531D01*
X152446031Y86035531D01*
G37*
G36*
X65446031Y86035531D02*
G01*
X65492261Y86021507D01*
X65634534Y85978349D01*
X65634536Y85978348D01*
X65808258Y85885493D01*
X65960528Y85760528D01*
X66085493Y85608258D01*
X66178348Y85434537D01*
X66178349Y85434535D01*
X66189282Y85398493D01*
X66235531Y85246032D01*
X66250000Y85099124D01*
X66250000Y82500876D01*
X66235531Y82353968D01*
X66178348Y82165463D01*
X66085493Y81991742D01*
X65960528Y81839472D01*
X65808258Y81714507D01*
X65634537Y81621652D01*
X65634535Y81621651D01*
X65542492Y81593730D01*
X65446032Y81564469D01*
X65250000Y81545162D01*
X65053969Y81564469D01*
X64957509Y81593730D01*
X64865466Y81621651D01*
X64865464Y81621652D01*
X64691743Y81714507D01*
X64539473Y81839472D01*
X64414508Y81991742D01*
X64321653Y82165463D01*
X64264470Y82353968D01*
X64250001Y82500876D01*
X64250000Y85099123D01*
X64264469Y85246031D01*
X64321652Y85434536D01*
X64414507Y85608258D01*
X64539472Y85760528D01*
X64691742Y85885493D01*
X64865463Y85978348D01*
X64865465Y85978349D01*
X65007738Y86021507D01*
X65053968Y86035531D01*
X65250000Y86054838D01*
X65446031Y86035531D01*
X65446031Y86035531D01*
G37*
G36*
X57946031Y86035531D02*
G01*
X57992261Y86021507D01*
X58134534Y85978349D01*
X58134536Y85978348D01*
X58308258Y85885493D01*
X58460528Y85760528D01*
X58585493Y85608258D01*
X58678348Y85434537D01*
X58678349Y85434535D01*
X58689282Y85398493D01*
X58735531Y85246032D01*
X58750000Y85099124D01*
X58750000Y82500876D01*
X58735531Y82353968D01*
X58678348Y82165463D01*
X58585493Y81991742D01*
X58460528Y81839472D01*
X58308258Y81714507D01*
X58134537Y81621652D01*
X58134535Y81621651D01*
X58042492Y81593730D01*
X57946032Y81564469D01*
X57750000Y81545162D01*
X57553969Y81564469D01*
X57457509Y81593730D01*
X57365466Y81621651D01*
X57365464Y81621652D01*
X57191743Y81714507D01*
X57039473Y81839472D01*
X56914508Y81991742D01*
X56821653Y82165463D01*
X56764470Y82353968D01*
X56750001Y82500876D01*
X56750000Y85099123D01*
X56764469Y85246031D01*
X56821652Y85434536D01*
X56914507Y85608258D01*
X57039472Y85760528D01*
X57191742Y85885493D01*
X57365463Y85978348D01*
X57365465Y85978349D01*
X57507738Y86021507D01*
X57553968Y86035531D01*
X57750000Y86054838D01*
X57946031Y86035531D01*
X57946031Y86035531D01*
G37*
G36*
X180933404Y88077026D02*
G01*
X181515767Y87835804D01*
X181557094Y87808190D01*
X182039881Y87485602D01*
X182485602Y87039881D01*
X182674309Y86757461D01*
X182835804Y86515767D01*
X183077026Y85933404D01*
X183200000Y85315174D01*
X183200000Y84684826D01*
X183077026Y84066596D01*
X182835804Y83484233D01*
X182719599Y83310321D01*
X182485602Y82960119D01*
X182039881Y82514398D01*
X181904607Y82424011D01*
X181515767Y82164196D01*
X180933404Y81922974D01*
X180315174Y81800000D01*
X179684826Y81800000D01*
X179066596Y81922974D01*
X178484233Y82164196D01*
X178095393Y82424011D01*
X177960119Y82514398D01*
X177514398Y82960119D01*
X177280401Y83310321D01*
X177164196Y83484233D01*
X176922974Y84066596D01*
X176800000Y84684826D01*
X176800000Y85315174D01*
X176922974Y85933404D01*
X177164196Y86515767D01*
X177325691Y86757461D01*
X177514398Y87039881D01*
X177960119Y87485602D01*
X178442906Y87808190D01*
X178484233Y87835804D01*
X179066596Y88077026D01*
X179684826Y88200000D01*
X180315174Y88200000D01*
X180933404Y88077026D01*
X180933404Y88077026D01*
G37*
G36*
X10933404Y88077026D02*
G01*
X11515767Y87835804D01*
X11557094Y87808190D01*
X12039881Y87485602D01*
X12485602Y87039881D01*
X12674309Y86757461D01*
X12835804Y86515767D01*
X13077026Y85933404D01*
X13200000Y85315174D01*
X13200000Y84684826D01*
X13077026Y84066596D01*
X12835804Y83484233D01*
X12719599Y83310321D01*
X12485602Y82960119D01*
X12039881Y82514398D01*
X11904607Y82424011D01*
X11515767Y82164196D01*
X10933404Y81922974D01*
X10315174Y81800000D01*
X9684826Y81800000D01*
X9066596Y81922974D01*
X8484233Y82164196D01*
X8095393Y82424011D01*
X7960119Y82514398D01*
X7514398Y82960119D01*
X7280401Y83310321D01*
X7164196Y83484233D01*
X6922974Y84066596D01*
X6800000Y84684826D01*
X6800000Y85315174D01*
X6922974Y85933404D01*
X7164196Y86515767D01*
X7325691Y86757461D01*
X7514398Y87039881D01*
X7960119Y87485602D01*
X8442906Y87808190D01*
X8484233Y87835804D01*
X9066596Y88077026D01*
X9684826Y88200000D01*
X10315174Y88200000D01*
X10933404Y88077026D01*
X10933404Y88077026D01*
G37*
G36*
X33722520Y84365414D02*
G01*
X33880444Y84300000D01*
X33886310Y84297570D01*
X34033717Y84199076D01*
X34159076Y84073717D01*
X34177371Y84046336D01*
X34257571Y83926308D01*
X34325414Y83762520D01*
X34343136Y83673427D01*
X34360000Y83588642D01*
X34360000Y83411358D01*
X34325414Y83237480D01*
X34257570Y83073690D01*
X34159076Y82926283D01*
X34033717Y82800924D01*
X33886310Y82702430D01*
X33886309Y82702429D01*
X33886308Y82702429D01*
X33722520Y82634586D01*
X33548644Y82600000D01*
X33371356Y82600000D01*
X33197480Y82634586D01*
X33033692Y82702429D01*
X33033691Y82702429D01*
X33033690Y82702430D01*
X32886283Y82800924D01*
X32760924Y82926283D01*
X32662430Y83073690D01*
X32594586Y83237480D01*
X32560000Y83411358D01*
X32560000Y83588642D01*
X32576865Y83673427D01*
X32594586Y83762520D01*
X32662429Y83926308D01*
X32742629Y84046336D01*
X32760924Y84073717D01*
X32886283Y84199076D01*
X33033690Y84297570D01*
X33039557Y84300000D01*
X33197480Y84365414D01*
X33371356Y84400000D01*
X33548644Y84400000D01*
X33722520Y84365414D01*
X33722520Y84365414D01*
G37*
G36*
X36262520Y84365414D02*
G01*
X36420444Y84300000D01*
X36426310Y84297570D01*
X36573717Y84199076D01*
X36699076Y84073717D01*
X36717371Y84046336D01*
X36797571Y83926308D01*
X36865414Y83762520D01*
X36883136Y83673427D01*
X36900000Y83588642D01*
X36900000Y83411358D01*
X36865414Y83237480D01*
X36797570Y83073690D01*
X36699076Y82926283D01*
X36573717Y82800924D01*
X36426310Y82702430D01*
X36426309Y82702429D01*
X36426308Y82702429D01*
X36262520Y82634586D01*
X36088644Y82600000D01*
X35911356Y82600000D01*
X35737480Y82634586D01*
X35573692Y82702429D01*
X35573691Y82702429D01*
X35573690Y82702430D01*
X35426283Y82800924D01*
X35300924Y82926283D01*
X35202430Y83073690D01*
X35134586Y83237480D01*
X35100000Y83411358D01*
X35100000Y83588642D01*
X35116865Y83673427D01*
X35134586Y83762520D01*
X35202429Y83926308D01*
X35282629Y84046336D01*
X35300924Y84073717D01*
X35426283Y84199076D01*
X35573690Y84297570D01*
X35579557Y84300000D01*
X35737480Y84365414D01*
X35911356Y84400000D01*
X36088644Y84400000D01*
X36262520Y84365414D01*
X36262520Y84365414D01*
G37*
G36*
X38802520Y84365414D02*
G01*
X38960444Y84300000D01*
X38966310Y84297570D01*
X39113717Y84199076D01*
X39239076Y84073717D01*
X39257371Y84046336D01*
X39337571Y83926308D01*
X39405414Y83762520D01*
X39423136Y83673427D01*
X39440000Y83588642D01*
X39440000Y83411358D01*
X39405414Y83237480D01*
X39337570Y83073690D01*
X39239076Y82926283D01*
X39113717Y82800924D01*
X38966310Y82702430D01*
X38966309Y82702429D01*
X38966308Y82702429D01*
X38802520Y82634586D01*
X38628644Y82600000D01*
X38451356Y82600000D01*
X38277480Y82634586D01*
X38113692Y82702429D01*
X38113691Y82702429D01*
X38113690Y82702430D01*
X37966283Y82800924D01*
X37840924Y82926283D01*
X37742430Y83073690D01*
X37674586Y83237480D01*
X37640000Y83411358D01*
X37640000Y83588642D01*
X37656865Y83673427D01*
X37674586Y83762520D01*
X37742429Y83926308D01*
X37822629Y84046336D01*
X37840924Y84073717D01*
X37966283Y84199076D01*
X38113690Y84297570D01*
X38119557Y84300000D01*
X38277480Y84365414D01*
X38451356Y84400000D01*
X38628644Y84400000D01*
X38802520Y84365414D01*
X38802520Y84365414D01*
G37*
G36*
X46222520Y84365414D02*
G01*
X46380444Y84300000D01*
X46386310Y84297570D01*
X46533717Y84199076D01*
X46659076Y84073717D01*
X46677371Y84046336D01*
X46757571Y83926308D01*
X46825414Y83762520D01*
X46843136Y83673427D01*
X46860000Y83588642D01*
X46860000Y83411358D01*
X46825414Y83237480D01*
X46757570Y83073690D01*
X46659076Y82926283D01*
X46533717Y82800924D01*
X46386310Y82702430D01*
X46386309Y82702429D01*
X46386308Y82702429D01*
X46222520Y82634586D01*
X46048644Y82600000D01*
X45871356Y82600000D01*
X45697480Y82634586D01*
X45533692Y82702429D01*
X45533691Y82702429D01*
X45533690Y82702430D01*
X45386283Y82800924D01*
X45260924Y82926283D01*
X45162430Y83073690D01*
X45094586Y83237480D01*
X45060000Y83411358D01*
X45060000Y83588642D01*
X45076865Y83673427D01*
X45094586Y83762520D01*
X45162429Y83926308D01*
X45242629Y84046336D01*
X45260924Y84073717D01*
X45386283Y84199076D01*
X45533690Y84297570D01*
X45539557Y84300000D01*
X45697480Y84365414D01*
X45871356Y84400000D01*
X46048644Y84400000D01*
X46222520Y84365414D01*
X46222520Y84365414D01*
G37*
G36*
X48762520Y84365414D02*
G01*
X48920444Y84300000D01*
X48926310Y84297570D01*
X49073717Y84199076D01*
X49199076Y84073717D01*
X49217371Y84046336D01*
X49297571Y83926308D01*
X49365414Y83762520D01*
X49383136Y83673427D01*
X49400000Y83588642D01*
X49400000Y83411358D01*
X49365414Y83237480D01*
X49297570Y83073690D01*
X49199076Y82926283D01*
X49073717Y82800924D01*
X48926310Y82702430D01*
X48926309Y82702429D01*
X48926308Y82702429D01*
X48762520Y82634586D01*
X48588644Y82600000D01*
X48411356Y82600000D01*
X48237480Y82634586D01*
X48073692Y82702429D01*
X48073691Y82702429D01*
X48073690Y82702430D01*
X47926283Y82800924D01*
X47800924Y82926283D01*
X47702430Y83073690D01*
X47634586Y83237480D01*
X47600000Y83411358D01*
X47600000Y83588642D01*
X47616865Y83673427D01*
X47634586Y83762520D01*
X47702429Y83926308D01*
X47782629Y84046336D01*
X47800924Y84073717D01*
X47926283Y84199076D01*
X48073690Y84297570D01*
X48079557Y84300000D01*
X48237480Y84365414D01*
X48411356Y84400000D01*
X48588644Y84400000D01*
X48762520Y84365414D01*
X48762520Y84365414D01*
G37*
G36*
X51302520Y84365414D02*
G01*
X51460444Y84300000D01*
X51466310Y84297570D01*
X51613717Y84199076D01*
X51739076Y84073717D01*
X51757371Y84046336D01*
X51837571Y83926308D01*
X51905414Y83762520D01*
X51923136Y83673427D01*
X51940000Y83588642D01*
X51940000Y83411358D01*
X51905414Y83237480D01*
X51837570Y83073690D01*
X51739076Y82926283D01*
X51613717Y82800924D01*
X51466310Y82702430D01*
X51466309Y82702429D01*
X51466308Y82702429D01*
X51302520Y82634586D01*
X51128644Y82600000D01*
X50951356Y82600000D01*
X50777480Y82634586D01*
X50613692Y82702429D01*
X50613691Y82702429D01*
X50613690Y82702430D01*
X50466283Y82800924D01*
X50340924Y82926283D01*
X50242430Y83073690D01*
X50174586Y83237480D01*
X50140000Y83411358D01*
X50140000Y83588642D01*
X50156865Y83673427D01*
X50174586Y83762520D01*
X50242429Y83926308D01*
X50322629Y84046336D01*
X50340924Y84073717D01*
X50466283Y84199076D01*
X50613690Y84297570D01*
X50619557Y84300000D01*
X50777480Y84365414D01*
X50951356Y84400000D01*
X51128644Y84400000D01*
X51302520Y84365414D01*
X51302520Y84365414D01*
G37*
G36*
X16422640Y85689445D02*
G01*
X16658645Y85591688D01*
X16704725Y85572601D01*
X16958594Y85402972D01*
X17174492Y85187074D01*
X17233261Y85099119D01*
X17344122Y84933203D01*
X17460965Y84651120D01*
X17520530Y84351664D01*
X17520530Y84046336D01*
X17460965Y83746880D01*
X17352172Y83484232D01*
X17344121Y83464795D01*
X17174492Y83210926D01*
X16958594Y82995028D01*
X16704725Y82825399D01*
X16704724Y82825398D01*
X16704723Y82825398D01*
X16422640Y82708555D01*
X16123184Y82648990D01*
X15817856Y82648990D01*
X15518400Y82708555D01*
X15236317Y82825398D01*
X15236316Y82825398D01*
X15236315Y82825399D01*
X14982446Y82995028D01*
X14766548Y83210926D01*
X14596919Y83464795D01*
X14588868Y83484232D01*
X14480075Y83746880D01*
X14420510Y84046336D01*
X14420510Y84351664D01*
X14480075Y84651120D01*
X14596918Y84933203D01*
X14707779Y85099119D01*
X14766548Y85187074D01*
X14982446Y85402972D01*
X15236315Y85572601D01*
X15282395Y85591688D01*
X15518400Y85689445D01*
X15817856Y85749010D01*
X16123184Y85749010D01*
X16422640Y85689445D01*
X16422640Y85689445D01*
G37*
G36*
X28421600Y85689445D02*
G01*
X28657605Y85591688D01*
X28703685Y85572601D01*
X28957554Y85402972D01*
X29173452Y85187074D01*
X29232221Y85099119D01*
X29343082Y84933203D01*
X29459925Y84651120D01*
X29519490Y84351664D01*
X29519490Y84046336D01*
X29459925Y83746880D01*
X29351132Y83484232D01*
X29343081Y83464795D01*
X29173452Y83210926D01*
X28957554Y82995028D01*
X28703685Y82825399D01*
X28703684Y82825398D01*
X28703683Y82825398D01*
X28421600Y82708555D01*
X28122144Y82648990D01*
X27816816Y82648990D01*
X27517360Y82708555D01*
X27235277Y82825398D01*
X27235276Y82825398D01*
X27235275Y82825399D01*
X26981406Y82995028D01*
X26765508Y83210926D01*
X26595879Y83464795D01*
X26587828Y83484232D01*
X26479035Y83746880D01*
X26419470Y84046336D01*
X26419470Y84351664D01*
X26479035Y84651120D01*
X26595878Y84933203D01*
X26706739Y85099119D01*
X26765508Y85187074D01*
X26981406Y85402972D01*
X27235275Y85572601D01*
X27281355Y85591688D01*
X27517360Y85689445D01*
X27816816Y85749010D01*
X28122144Y85749010D01*
X28421600Y85689445D01*
X28421600Y85689445D01*
G37*
G36*
X171727290Y86274381D02*
G01*
X171791689Y86261571D01*
X171973678Y86186189D01*
X172137463Y86076751D01*
X172276751Y85937463D01*
X172386189Y85773678D01*
X172461571Y85591689D01*
X172465368Y85572601D01*
X172492831Y85434535D01*
X172500000Y85398491D01*
X172500000Y85201509D01*
X172461571Y85008311D01*
X172386189Y84826322D01*
X172276751Y84662537D01*
X172137463Y84523249D01*
X171973678Y84413811D01*
X171791689Y84338429D01*
X171727290Y84325619D01*
X171598493Y84300000D01*
X171401507Y84300000D01*
X171272710Y84325619D01*
X171208311Y84338429D01*
X171026322Y84413811D01*
X170862537Y84523249D01*
X170723249Y84662537D01*
X170613811Y84826322D01*
X170538429Y85008311D01*
X170500000Y85201509D01*
X170500000Y85398491D01*
X170507170Y85434535D01*
X170534632Y85572601D01*
X170538429Y85591689D01*
X170613811Y85773678D01*
X170723249Y85937463D01*
X170862537Y86076751D01*
X171026322Y86186189D01*
X171208311Y86261571D01*
X171272710Y86274381D01*
X171401507Y86300000D01*
X171598493Y86300000D01*
X171727290Y86274381D01*
X171727290Y86274381D01*
G37*
G36*
X169227290Y86274381D02*
G01*
X169291689Y86261571D01*
X169473678Y86186189D01*
X169637463Y86076751D01*
X169776751Y85937463D01*
X169886189Y85773678D01*
X169961571Y85591689D01*
X169965368Y85572601D01*
X169992831Y85434535D01*
X170000000Y85398491D01*
X170000000Y85201509D01*
X169961571Y85008311D01*
X169886189Y84826322D01*
X169776751Y84662537D01*
X169637463Y84523249D01*
X169473678Y84413811D01*
X169291689Y84338429D01*
X169227290Y84325619D01*
X169098493Y84300000D01*
X168901507Y84300000D01*
X168772710Y84325619D01*
X168708311Y84338429D01*
X168526322Y84413811D01*
X168362537Y84523249D01*
X168223249Y84662537D01*
X168113811Y84826322D01*
X168038429Y85008311D01*
X168000000Y85201509D01*
X168000000Y85398491D01*
X168007170Y85434535D01*
X168034632Y85572601D01*
X168038429Y85591689D01*
X168113811Y85773678D01*
X168223249Y85937463D01*
X168362537Y86076751D01*
X168526322Y86186189D01*
X168708311Y86261571D01*
X168772710Y86274381D01*
X168901507Y86300000D01*
X169098493Y86300000D01*
X169227290Y86274381D01*
X169227290Y86274381D01*
G37*
G36*
X166727290Y86274381D02*
G01*
X166791689Y86261571D01*
X166973678Y86186189D01*
X167137463Y86076751D01*
X167276751Y85937463D01*
X167386189Y85773678D01*
X167461571Y85591689D01*
X167465368Y85572601D01*
X167492831Y85434535D01*
X167500000Y85398491D01*
X167500000Y85201509D01*
X167461571Y85008311D01*
X167386189Y84826322D01*
X167276751Y84662537D01*
X167137463Y84523249D01*
X166973678Y84413811D01*
X166791689Y84338429D01*
X166727290Y84325619D01*
X166598493Y84300000D01*
X166401507Y84300000D01*
X166272710Y84325619D01*
X166208311Y84338429D01*
X166026322Y84413811D01*
X165862537Y84523249D01*
X165723249Y84662537D01*
X165613811Y84826322D01*
X165538429Y85008311D01*
X165500000Y85201509D01*
X165500000Y85398491D01*
X165507170Y85434535D01*
X165534632Y85572601D01*
X165538429Y85591689D01*
X165613811Y85773678D01*
X165723249Y85937463D01*
X165862537Y86076751D01*
X166026322Y86186189D01*
X166208311Y86261571D01*
X166272710Y86274381D01*
X166401507Y86300000D01*
X166598493Y86300000D01*
X166727290Y86274381D01*
X166727290Y86274381D01*
G37*
G36*
X38767290Y87094381D02*
G01*
X38831689Y87081571D01*
X39013678Y87006189D01*
X39177463Y86896751D01*
X39316751Y86757463D01*
X39426189Y86593678D01*
X39497429Y86421688D01*
X39501571Y86411688D01*
X39540000Y86218493D01*
X39540000Y86021507D01*
X39523282Y85937461D01*
X39501571Y85828311D01*
X39426189Y85646322D01*
X39316751Y85482537D01*
X39177463Y85343249D01*
X39013678Y85233811D01*
X38831689Y85158429D01*
X38767290Y85145619D01*
X38638493Y85120000D01*
X38441507Y85120000D01*
X38312710Y85145619D01*
X38248311Y85158429D01*
X38066322Y85233811D01*
X37902537Y85343249D01*
X37763249Y85482537D01*
X37653811Y85646322D01*
X37578429Y85828311D01*
X37556718Y85937461D01*
X37540000Y86021507D01*
X37540000Y86218493D01*
X37578429Y86411688D01*
X37582571Y86421688D01*
X37653811Y86593678D01*
X37763249Y86757463D01*
X37902537Y86896751D01*
X38066322Y87006189D01*
X38248311Y87081571D01*
X38312710Y87094381D01*
X38441507Y87120000D01*
X38638493Y87120000D01*
X38767290Y87094381D01*
X38767290Y87094381D01*
G37*
G36*
X33687290Y87094381D02*
G01*
X33751689Y87081571D01*
X33933678Y87006189D01*
X34097463Y86896751D01*
X34236751Y86757463D01*
X34346189Y86593678D01*
X34417429Y86421688D01*
X34421571Y86411688D01*
X34460000Y86218493D01*
X34460000Y86021507D01*
X34443282Y85937461D01*
X34421571Y85828311D01*
X34346189Y85646322D01*
X34236751Y85482537D01*
X34097463Y85343249D01*
X33933678Y85233811D01*
X33751689Y85158429D01*
X33687290Y85145619D01*
X33558493Y85120000D01*
X33361507Y85120000D01*
X33232710Y85145619D01*
X33168311Y85158429D01*
X32986322Y85233811D01*
X32822537Y85343249D01*
X32683249Y85482537D01*
X32573811Y85646322D01*
X32498429Y85828311D01*
X32476718Y85937461D01*
X32460000Y86021507D01*
X32460000Y86218493D01*
X32498429Y86411688D01*
X32502571Y86421688D01*
X32573811Y86593678D01*
X32683249Y86757463D01*
X32822537Y86896751D01*
X32986322Y87006189D01*
X33168311Y87081571D01*
X33232710Y87094381D01*
X33361507Y87120000D01*
X33558493Y87120000D01*
X33687290Y87094381D01*
X33687290Y87094381D01*
G37*
G36*
X51267290Y87104381D02*
G01*
X51331689Y87091571D01*
X51513678Y87016189D01*
X51677463Y86906751D01*
X51816751Y86767463D01*
X51926189Y86603678D01*
X52001571Y86421689D01*
X52040000Y86228491D01*
X52040000Y86031509D01*
X52001571Y85838311D01*
X51926189Y85656322D01*
X51816751Y85492537D01*
X51677463Y85353249D01*
X51513678Y85243811D01*
X51331689Y85168429D01*
X51281415Y85158429D01*
X51138493Y85130000D01*
X50941507Y85130000D01*
X50798585Y85158429D01*
X50748311Y85168429D01*
X50566322Y85243811D01*
X50402537Y85353249D01*
X50263249Y85492537D01*
X50153811Y85656322D01*
X50078429Y85838311D01*
X50040000Y86031509D01*
X50040000Y86228491D01*
X50078429Y86421689D01*
X50153811Y86603678D01*
X50263249Y86767463D01*
X50402537Y86906751D01*
X50566322Y87016189D01*
X50748311Y87091571D01*
X50812710Y87104381D01*
X50941507Y87130000D01*
X51138493Y87130000D01*
X51267290Y87104381D01*
X51267290Y87104381D01*
G37*
G36*
X46187290Y87104381D02*
G01*
X46251689Y87091571D01*
X46433678Y87016189D01*
X46597463Y86906751D01*
X46736751Y86767463D01*
X46846189Y86603678D01*
X46921571Y86421689D01*
X46960000Y86228491D01*
X46960000Y86031509D01*
X46921571Y85838311D01*
X46846189Y85656322D01*
X46736751Y85492537D01*
X46597463Y85353249D01*
X46433678Y85243811D01*
X46251689Y85168429D01*
X46201415Y85158429D01*
X46058493Y85130000D01*
X45861507Y85130000D01*
X45718585Y85158429D01*
X45668311Y85168429D01*
X45486322Y85243811D01*
X45322537Y85353249D01*
X45183249Y85492537D01*
X45073811Y85656322D01*
X44998429Y85838311D01*
X44960000Y86031509D01*
X44960000Y86228491D01*
X44998429Y86421689D01*
X45073811Y86603678D01*
X45183249Y86767463D01*
X45322537Y86906751D01*
X45486322Y87016189D01*
X45668311Y87091571D01*
X45732710Y87104381D01*
X45861507Y87130000D01*
X46058493Y87130000D01*
X46187290Y87104381D01*
X46187290Y87104381D01*
G37*
G36*
X157475437Y88633361D02*
G01*
X157692218Y88567601D01*
X157891996Y88460817D01*
X158067108Y88317108D01*
X158210817Y88141996D01*
X158317601Y87942218D01*
X158383361Y87725437D01*
X158405564Y87500000D01*
X158383361Y87274563D01*
X158317601Y87057782D01*
X158210817Y86858004D01*
X158067108Y86682892D01*
X157891996Y86539183D01*
X157692218Y86432399D01*
X157475437Y86366639D01*
X157306496Y86350000D01*
X154693504Y86350000D01*
X154524563Y86366639D01*
X154307782Y86432399D01*
X154108004Y86539183D01*
X153932892Y86682892D01*
X153789183Y86858004D01*
X153682399Y87057782D01*
X153616639Y87274563D01*
X153594436Y87500000D01*
X153616639Y87725437D01*
X153682399Y87942218D01*
X153789183Y88141996D01*
X153932892Y88317108D01*
X154108004Y88460817D01*
X154307782Y88567601D01*
X154524563Y88633361D01*
X154693504Y88650000D01*
X157306496Y88650000D01*
X157475437Y88633361D01*
X157475437Y88633361D01*
G37*
G36*
X62975437Y88633361D02*
G01*
X63192218Y88567601D01*
X63391996Y88460817D01*
X63567108Y88317108D01*
X63710817Y88141996D01*
X63817601Y87942218D01*
X63883361Y87725437D01*
X63905564Y87500000D01*
X63883361Y87274563D01*
X63817601Y87057782D01*
X63710817Y86858004D01*
X63567108Y86682892D01*
X63391996Y86539183D01*
X63192218Y86432399D01*
X62975437Y86366639D01*
X62806496Y86350000D01*
X60193504Y86350000D01*
X60024563Y86366639D01*
X59807782Y86432399D01*
X59608004Y86539183D01*
X59432892Y86682892D01*
X59289183Y86858004D01*
X59182399Y87057782D01*
X59116639Y87274563D01*
X59094436Y87500000D01*
X59116639Y87725437D01*
X59182399Y87942218D01*
X59289183Y88141996D01*
X59432892Y88317108D01*
X59608004Y88460817D01*
X59807782Y88567601D01*
X60024563Y88633361D01*
X60193504Y88650000D01*
X62806496Y88650000D01*
X62975437Y88633361D01*
X62975437Y88633361D01*
G37*
G36*
X93005827Y89535629D02*
G01*
X93296461Y89415244D01*
X93296463Y89415243D01*
X93558028Y89240471D01*
X93780471Y89018028D01*
X93896830Y88843884D01*
X93955244Y88756461D01*
X94075629Y88465827D01*
X94137000Y88157292D01*
X94137000Y87842708D01*
X94075629Y87534173D01*
X93968094Y87274561D01*
X93955243Y87243537D01*
X93780471Y86981972D01*
X93558028Y86759529D01*
X93296463Y86584757D01*
X93296462Y86584756D01*
X93296461Y86584756D01*
X93005827Y86464371D01*
X92697292Y86403000D01*
X92382708Y86403000D01*
X92074173Y86464371D01*
X91783539Y86584756D01*
X91783538Y86584756D01*
X91783537Y86584757D01*
X91521972Y86759529D01*
X91299529Y86981972D01*
X91124757Y87243537D01*
X91111906Y87274561D01*
X91004371Y87534173D01*
X90943000Y87842708D01*
X90943000Y88157292D01*
X91004371Y88465827D01*
X91124756Y88756461D01*
X91183170Y88843884D01*
X91299529Y89018028D01*
X91521972Y89240471D01*
X91783537Y89415243D01*
X91783539Y89415244D01*
X92074173Y89535629D01*
X92382708Y89597000D01*
X92697292Y89597000D01*
X93005827Y89535629D01*
X93005827Y89535629D01*
G37*
G36*
X79005827Y89535629D02*
G01*
X79296461Y89415244D01*
X79296463Y89415243D01*
X79558028Y89240471D01*
X79780471Y89018028D01*
X79896830Y88843884D01*
X79955244Y88756461D01*
X80075629Y88465827D01*
X80137000Y88157292D01*
X80137000Y87842708D01*
X80075629Y87534173D01*
X79968094Y87274561D01*
X79955243Y87243537D01*
X79780471Y86981972D01*
X79558028Y86759529D01*
X79296463Y86584757D01*
X79296462Y86584756D01*
X79296461Y86584756D01*
X79005827Y86464371D01*
X78697292Y86403000D01*
X78382708Y86403000D01*
X78074173Y86464371D01*
X77783539Y86584756D01*
X77783538Y86584756D01*
X77783537Y86584757D01*
X77521972Y86759529D01*
X77299529Y86981972D01*
X77124757Y87243537D01*
X77111906Y87274561D01*
X77004371Y87534173D01*
X76943000Y87842708D01*
X76943000Y88157292D01*
X77004371Y88465827D01*
X77124756Y88756461D01*
X77183170Y88843884D01*
X77299529Y89018028D01*
X77521972Y89240471D01*
X77783537Y89415243D01*
X77783539Y89415244D01*
X78074173Y89535629D01*
X78382708Y89597000D01*
X78697292Y89597000D01*
X79005827Y89535629D01*
X79005827Y89535629D01*
G37*
G36*
X73925827Y89535629D02*
G01*
X74216461Y89415244D01*
X74216463Y89415243D01*
X74478028Y89240471D01*
X74700471Y89018028D01*
X74816830Y88843884D01*
X74875244Y88756461D01*
X74995629Y88465827D01*
X75057000Y88157292D01*
X75057000Y87842708D01*
X74995629Y87534173D01*
X74888094Y87274561D01*
X74875243Y87243537D01*
X74700471Y86981972D01*
X74478028Y86759529D01*
X74216463Y86584757D01*
X74216462Y86584756D01*
X74216461Y86584756D01*
X73925827Y86464371D01*
X73617292Y86403000D01*
X73302708Y86403000D01*
X72994173Y86464371D01*
X72703539Y86584756D01*
X72703538Y86584756D01*
X72703537Y86584757D01*
X72441972Y86759529D01*
X72219529Y86981972D01*
X72044757Y87243537D01*
X72031906Y87274561D01*
X71924371Y87534173D01*
X71863000Y87842708D01*
X71863000Y88157292D01*
X71924371Y88465827D01*
X72044756Y88756461D01*
X72103170Y88843884D01*
X72219529Y89018028D01*
X72441972Y89240471D01*
X72703537Y89415243D01*
X72703539Y89415244D01*
X72994173Y89535629D01*
X73302708Y89597000D01*
X73617292Y89597000D01*
X73925827Y89535629D01*
X73925827Y89535629D01*
G37*
G36*
X87925827Y89535629D02*
G01*
X88216461Y89415244D01*
X88216463Y89415243D01*
X88478028Y89240471D01*
X88700471Y89018028D01*
X88816830Y88843884D01*
X88875244Y88756461D01*
X88995629Y88465827D01*
X89057000Y88157292D01*
X89057000Y87842708D01*
X88995629Y87534173D01*
X88888094Y87274561D01*
X88875243Y87243537D01*
X88700471Y86981972D01*
X88478028Y86759529D01*
X88216463Y86584757D01*
X88216462Y86584756D01*
X88216461Y86584756D01*
X87925827Y86464371D01*
X87617292Y86403000D01*
X87302708Y86403000D01*
X86994173Y86464371D01*
X86703539Y86584756D01*
X86703538Y86584756D01*
X86703537Y86584757D01*
X86441972Y86759529D01*
X86219529Y86981972D01*
X86044757Y87243537D01*
X86031906Y87274561D01*
X85924371Y87534173D01*
X85863000Y87842708D01*
X85863000Y88157292D01*
X85924371Y88465827D01*
X86044756Y88756461D01*
X86103170Y88843884D01*
X86219529Y89018028D01*
X86441972Y89240471D01*
X86703537Y89415243D01*
X86703539Y89415244D01*
X86994173Y89535629D01*
X87302708Y89597000D01*
X87617292Y89597000D01*
X87925827Y89535629D01*
X87925827Y89535629D01*
G37*
G36*
X131540026Y88843885D02*
G01*
X131751081Y88756463D01*
X131758413Y88753426D01*
X131913201Y88650000D01*
X131954955Y88622101D01*
X132122101Y88454955D01*
X132253427Y88258411D01*
X132343885Y88040026D01*
X132390000Y87808191D01*
X132390000Y87571809D01*
X132343885Y87339974D01*
X132316790Y87274561D01*
X132253426Y87121587D01*
X132122101Y86925045D01*
X131954955Y86757899D01*
X131758413Y86626574D01*
X131758412Y86626573D01*
X131758411Y86626573D01*
X131540026Y86536115D01*
X131308191Y86490000D01*
X131071809Y86490000D01*
X130839974Y86536115D01*
X130621589Y86626573D01*
X130621588Y86626573D01*
X130621587Y86626574D01*
X130425045Y86757899D01*
X130257899Y86925045D01*
X130126574Y87121587D01*
X130063210Y87274561D01*
X130036115Y87339974D01*
X129990000Y87571809D01*
X129990000Y87808191D01*
X130036115Y88040026D01*
X130126573Y88258411D01*
X130257899Y88454955D01*
X130425045Y88622101D01*
X130466799Y88650000D01*
X130621587Y88753426D01*
X130628919Y88756463D01*
X130839974Y88843885D01*
X131071809Y88890000D01*
X131308191Y88890000D01*
X131540026Y88843885D01*
X131540026Y88843885D01*
G37*
G36*
X108540026Y88843885D02*
G01*
X108751081Y88756463D01*
X108758413Y88753426D01*
X108913201Y88650000D01*
X108954955Y88622101D01*
X109122101Y88454955D01*
X109253427Y88258411D01*
X109343885Y88040026D01*
X109390000Y87808191D01*
X109390000Y87571809D01*
X109343885Y87339974D01*
X109316790Y87274561D01*
X109253426Y87121587D01*
X109122101Y86925045D01*
X108954955Y86757899D01*
X108758413Y86626574D01*
X108758412Y86626573D01*
X108758411Y86626573D01*
X108540026Y86536115D01*
X108308191Y86490000D01*
X108071809Y86490000D01*
X107839974Y86536115D01*
X107621589Y86626573D01*
X107621588Y86626573D01*
X107621587Y86626574D01*
X107425045Y86757899D01*
X107257899Y86925045D01*
X107126574Y87121587D01*
X107063210Y87274561D01*
X107036115Y87339974D01*
X106990000Y87571809D01*
X106990000Y87808191D01*
X107036115Y88040026D01*
X107126573Y88258411D01*
X107257899Y88454955D01*
X107425045Y88622101D01*
X107466799Y88650000D01*
X107621587Y88753426D01*
X107628919Y88756463D01*
X107839974Y88843885D01*
X108071809Y88890000D01*
X108308191Y88890000D01*
X108540026Y88843885D01*
X108540026Y88843885D01*
G37*
M02*
