<?xml version="1.0" encoding="utf-8"?>
<!-- Generator: Adobe Illustrator 14.0.0, SVG Export Plug-In  -->
<!DOCTYPE svg PUBLIC "-//W3C//DTD SVG 1.1//EN" "http://www.w3.org/Graphics/SVG/1.1/DTD/svg11.dtd" [
	<!ENTITY ns_flows "http://ns.adobe.com/Flows/1.0/">
]>
<svg version="1.1"
	 xmlns="http://www.w3.org/2000/svg" xmlns:xlink="http://www.w3.org/1999/xlink" xmlns:a="http://ns.adobe.com/AdobeSVGViewerExtensions/3.0/"
	 x="0px" y="0px" width="642px" height="159px" viewBox="18.493 -18.86 642 159" enable-background="new 18.493 -18.86 642 159"
	 xml:space="preserve">
<defs>
</defs>
<path fill="#FFFFFF" d="M315.505,96.381v26.657h59.943c14.394,0,25.77-6.251,34.139-18.759c7.498-11.238,11.25-25.085,11.25-41.538
	c0-16.854-3.818-31.132-11.453-42.839c-8.43-12.976-19.746-19.464-33.936-19.464h-59.943v25.855l27.111,0.053h28.313
	c6.626,0,11.851,3.541,15.662,10.625c3.416,6.35,5.126,14.206,5.126,23.564c0,9.626-1.777,17.847-5.324,24.666
	c-3.885,7.487-9.036,11.228-15.464,11.228h-28.313"/>
<path fill="#FFFFFF" d="M546.918,26.346H462.48c-2.946,0-5.274,1.114-6.984,3.343c-1.704,2.234-2.561,4.849-2.561,7.851
	c0,2.93,0.822,5.428,2.46,7.493c1.646,2.068,4.002,3.101,7.085,3.101h38.454c10.372,0,18.575,3.883,24.601,11.646
	c5.422,6.963,8.132,15.564,8.132,25.809c0,10.173-2.71,18.774-8.132,25.803c-6.025,7.768-14.229,11.647-24.601,11.647h-69.989
	V96.931h65.57c2.813,0,5.021-1.153,6.626-3.464c1.609-2.306,2.41-4.971,2.41-7.983s-0.767-5.572-2.312-7.679
	c-1.533-2.108-3.779-3.162-6.725-3.162h-38.559c-10.439,0-18.709-3.845-24.8-11.531c-5.488-6.885-8.237-15.409-8.237-25.571
	c0-10.03,2.749-18.516,8.237-25.473c6.157-7.751,14.427-11.629,24.8-11.629h88.962V26.346z M568.876,96.931v26.107h-26.709
	c0-2.008,0-4.784,0-8.332s0-8.204,0-13.958c0-5.76,0-11.884,0-18.377c0-9.771,2.406-17.671,7.229-23.696
	c5.627-7.029,13.892-10.542,24.805-10.542h33.234c3.079,0,5.452-1.049,7.129-3.151c1.671-2.097,2.51-4.579,2.51-7.442
	c0-3.068-0.801-5.632-2.411-7.697c-1.81-2.333-4.215-3.497-7.228-3.497h-65.268V0.438h69.787c10.442,0,18.708,3.845,24.798,11.531
	c5.49,6.957,8.231,15.475,8.231,25.571c0,10.03-2.741,18.516-8.231,25.466c-6.09,7.757-14.355,11.636-24.798,11.636H586.09
	c-6.692,0-11.481,2.24-14.36,6.725c-1.943,3.079-2.913,6.93-2.913,11.548"/>
<g id="F_3_">
	<g>
		<path d="M66.092,67.988l0.051,55.097H39.051V62.764c0-11.504,1.137-23.29,3.412-31.384c2.742-9.632,7.09-17.024,13.044-22.175
			c6.756-5.818,15.686-8.767,26.792-8.767l222.999,0v25.854H82.298c-6.758,0-12.325,3.439-15,10.703
			c-0.87,2.399-1.139,3.603-1.206,8.625l31.159,0v22.368L66.092,67.988z"/>
	</g>
	<g>
		<path fill="#97BF0D" d="M66.092,67.988l0.051,55.097H39.051V62.764c0-11.504,1.137-23.29,3.412-31.384
			c2.742-9.632,7.09-17.024,13.044-22.175c6.756-5.818,15.686-8.767,26.792-8.767l222.999,0v25.854H82.298
			c-6.758,0-12.325,3.439-15,10.703c-0.87,2.399-1.139,3.603-1.206,8.625l31.159,0v22.368L66.092,67.988z"/>
	</g>
</g>
<g id="F_2_" display="none">
	<g display="inline">
		<path display="none" d="M27.393,55.553l-0.3,67.056H0V60.302c0-11.504,1.137-21.304,3.412-29.398
			c2.742-9.632,7.09-17.024,13.044-22.175C23.212,2.91,32.142,0,43.248,0l262.148,0.411v25.855L43.248,25.907
			c-6.758,0-11.312,0.072-13.952,7.348c-0.87,2.399-0.451-0.523-0.918,4.341h47.059v17.971"/>
	</g>
	<g display="inline">
		<path display="none" fill="#97BF0D" d="M27.393,55.553l-0.3,67.056H0V60.302c0-11.504,1.137-21.304,3.412-29.398
			c2.742-9.632,7.09-17.024,13.044-22.175C23.212,2.91,32.142,0,43.248,0l262.148,0.411v25.855L43.248,25.907
			c-6.758,0-11.312,0.072-13.952,7.348c-0.87,2.399-0.451-0.523-0.918,4.341h47.059v17.971"/>
	</g>
</g>
<path display="none" fill="#97BF0D" d="M305.263,56.086v-18.49h-41.579c-9.983,0-17.874,4.336-23.679,13.012
	c-5.201,7.795-7.803,17.4-7.803,28.812c0,11.691,2.648,21.595,7.944,29.715c5.847,9,13.696,13.501,23.538,13.501h41.579v-17.934
	l-18.806-0.037h-19.639c-4.596,0-8.22-2.457-10.864-7.37c-2.369-4.405-3.555-9.854-3.555-16.345c0-6.677,1.232-12.379,3.692-17.109
	c2.695-5.193,6.268-7.788,10.727-7.788h19.639"/>
<polyline display="none" fill="#97BF0D" points="305.292,89.361 305.292,70.871 248.35,70.871 248.35,89.361 "/>
<path display="none" fill="#97BF0D" d="M225.76,56.086v-18.49h-41.579c-9.983,0-17.874,4.336-23.68,13.012
	c-5.2,7.795-7.803,17.4-7.803,28.812c0,11.691,2.648,21.595,7.944,29.715c5.847,9,13.696,13.501,23.538,13.501h41.579v-17.934
	l-18.806-0.037h-19.639c-4.596,0-8.22-2.457-10.864-7.37c-2.369-4.405-3.555-9.854-3.555-16.345c0-6.677,1.232-12.379,3.692-17.109
	c2.695-5.193,6.268-7.788,10.727-7.788h19.639"/>
<polyline display="none" fill="#97BF0D" points="225.788,89.361 225.788,70.871 168.847,70.871 168.847,89.361 "/>
<g>
	<g>
		<path fill="#97BF0D" d="M148.535,46.639l-18.766,0c-7.567,0-13.302,2.438-17.2,7.312c-3.344,4.179-5.015,9.659-5.015,16.437
			c0,4.504,0,8.752,0,12.748c0,3.991,0,7.221,0,9.682c0,2.46,0,27.172,0,28.565h18.698l-0.173-40.896l-0.005-2.786
			c0-3.203,0.675-5.875,2.021-8.01c1.996-3.111,5.316-4.665,9.96-4.665c0.001,0,3.665,0,3.665,0l6.823-0.083
			C148.542,64.157,148.535,46.639,148.535,46.639z"/>
	</g>
	<g>
		<path fill="none" stroke="#97BF0D" stroke-width="4" d="M148.535,46.639l-18.766,0c-7.567,0-13.302,2.438-17.2,7.312
			c-3.344,4.179-5.015,9.659-5.015,16.437c0,4.504,0,8.752,0,12.748c0,3.991,0,7.221,0,9.682c0,2.46,0,27.172,0,28.565h18.698
			l-0.173-40.896l-0.005-2.786c0-3.203,0.675-5.875,2.021-8.01c1.996-3.111,5.316-4.665,9.96-4.665c0.001,0,3.665,0,3.665,0
			l6.823-0.083C148.542,64.157,148.535,46.639,148.535,46.639z"/>
	</g>
</g>
<path fill="#97BF0D" stroke="#97BF0D" stroke-width="4" d="M303.028,62.704V46.378h-37.479c-9,0-16.114,3.828-21.347,11.488
	c-4.688,6.882-7.035,15.364-7.035,25.44c0,10.323,2.388,19.067,7.162,26.237c5.271,7.947,12.347,11.921,21.22,11.921h37.479v-15.836
	l-16.953-0.032h-17.7c-4.143,0-7.41-2.168-9.794-6.507c-2.136-3.89-3.205-8.701-3.205-14.432c0-5.896,1.111-10.931,3.329-15.106
	c2.43-4.586,5.65-6.876,9.67-6.876h17.7L303.028,62.704z"/>
<rect x="252.021" y="77.159" fill="#97BF0D" stroke="#97BF0D" stroke-width="4" width="51.33" height="14.913"/>
<path fill="#97BF0D" stroke="#97BF0D" stroke-width="4" d="M223.509,62.598V46.272h-37.476c-9,0-16.113,3.829-21.348,11.488
	c-4.688,6.882-7.034,15.365-7.034,25.44c0,10.323,2.388,19.067,7.161,26.238c5.271,7.947,12.348,11.921,21.221,11.921h37.476
	v-15.836l-16.953-0.032h-17.697c-4.144,0-7.41-2.168-9.794-6.507c-2.136-3.89-3.205-8.701-3.205-14.432
	c0-5.896,1.111-10.931,3.329-15.106c2.43-4.586,5.65-6.876,9.67-6.876h17.697L223.509,62.598z"/>
<rect x="172.504" y="77.053" fill="#97BF0D" stroke="#97BF0D" stroke-width="4" width="51.327" height="14.913"/>
<polygon fill="#FFFFFF" points="346.248,38.825 346.248,83.784 333.298,70.604 315.505,70.604 315.505,52.243 333.298,52.243 "/>
<path fill="#FFFFFF" d="M358.627,48.039c1.715,3.276,2.576,7.332,2.576,12.162c0,4.971-0.894,9.214-2.676,12.736
	c-1.076,2.118-2.356,3.6-3.812,4.557c0.612,0.62,1.158,1.293,1.693,1.975c3.101,2.742,6.141,5.556,9.114,8.433
	c1.711-1.385,3.3-3.013,4.667-5.115c3.774-5.801,5.662-12.954,5.662-21.448c0-8.7-1.927-16.073-5.761-22.117
	c-1.528-2.414-3.432-4.229-5.411-5.762c-3.262,3.525-6.626,6.951-10.068,10.303C356.15,44.652,357.579,46.042,358.627,48.039z"/>
</svg>
