M48
INCH
T1C0.0118
T2C0.0315
T3C0.0394
T4C0.0400
T5C0.0433
T6C0.0472
T7C0.0512
T8C0.0591
T9C0.0630
T10C0.1260
T11C0.0669
T12C0.1378
%
G90
G05
T1
X7.6457Y2.9921
X7.7244Y2.9921
X7.9409Y2.9921
X8.0197Y2.9921
X8.1969Y2.9921
X8.2756Y2.9921
X8.4921Y2.9921
X8.5709Y2.9921
X8.748Y2.9921
X8.8268Y2.9921
X9.0433Y2.9921
X9.122Y2.9921
X9.2992Y2.9921
X9.378Y2.9921
X9.5945Y2.9921
X9.6732Y2.9921
X11.4252Y3.2283
X11.5197Y2.1417
X11.5197Y2.063
X11.9764Y3.2283
X12.0315Y2.1929
X12.0709Y2.1181
X12.2205Y2.7992
X12.5276Y3.2283
X12.5433Y3.0591
X12.5827Y2.9921
X12.5827Y2.9055
X12.6203Y2.752
X12.6703Y2.752
X12.8583Y3.0945
X13.0787Y3.2283
X13.1614Y3.1024
X13.3504Y3.2323
X13.3622Y3.3071
X13.4567Y2.874
X13.6299Y2.9961
X13.6299Y2.9173
X13.7126Y3.1024
X13.9016Y3.2323
X13.9134Y3.3071
X14.0079Y2.874
X14.1811Y2.9961
X14.1811Y2.9173
X14.2638Y3.1024
X14.4528Y3.2323
X14.4646Y3.3071
X14.5591Y2.874
X14.7323Y2.9961
X14.7323Y2.9173
X14.815Y3.1024
X15.0039Y3.2323
X15.0157Y3.3071
X15.1102Y2.874
X15.2835Y2.9961
X15.2835Y2.9173
T2
X12.1441Y3.2283
X12.2441Y3.2283
X12.3441Y3.2283
X11.5929Y3.2283
X11.6929Y3.2283
X11.7929Y3.2283
X13.2065Y1.9264
X13.2565Y2.0264
X13.3065Y1.9264
X13.3565Y2.0264
X13.4065Y1.9264
X13.4565Y2.0264
X13.5065Y1.9264
X13.5565Y2.0264
X13.6065Y1.9264
X13.6565Y2.0264
X13.7065Y1.9264
X13.7565Y2.0264
X13.8065Y1.9264
X13.8565Y2.0264
X12.6953Y3.2283
X12.7953Y3.2283
X12.8953Y3.2283
X11.0417Y3.2283
X11.1417Y3.2283
X11.2417Y3.2283
T3
X10.0437Y3.2992
X10.0437Y3.1992
X10.1437Y3.2992
X10.1437Y3.1992
X10.2437Y3.2992
X10.2437Y3.1992
X10.3437Y3.2992
X10.3437Y3.1992
X10.4437Y3.2992
X10.4437Y3.1992
X10.5437Y3.2992
X10.5437Y3.1992
X10.6437Y3.2992
X10.6437Y3.1992
X10.7437Y3.2992
X10.7437Y3.1992
T4
X2.115Y2.0039
X2.115Y1.9039
X2.215Y2.0039
X2.215Y1.9039
X2.315Y2.0039
X2.315Y1.9039
X2.415Y2.0039
X2.415Y1.9039
X2.515Y2.0039
X2.515Y1.9039
X2.615Y2.0039
X2.615Y1.9039
X2.715Y2.0039
X2.715Y1.9039
X2.815Y2.0039
X2.815Y1.9039
X2.915Y2.0039
X2.915Y1.9039
X3.015Y2.0039
X3.015Y1.9039
X3.115Y2.0039
X3.115Y1.9039
X3.215Y2.0039
X3.215Y1.9039
X3.315Y2.0039
X3.315Y1.9039
X0.4929Y2.0039
X0.4929Y1.9039
X0.5929Y2.0039
X0.5929Y1.9039
X0.6929Y2.0039
X0.6929Y1.9039
X0.7929Y2.0039
X0.7929Y1.9039
X0.8929Y2.0039
X0.8929Y1.9039
X0.9929Y2.0039
X0.9929Y1.9039
X1.0929Y2.0039
X1.0929Y1.9039
X1.1929Y2.0039
X1.1929Y1.9039
X1.2929Y2.0039
X1.2929Y1.9039
X1.3929Y2.0039
X1.3929Y1.9039
X1.4929Y2.0039
X1.4929Y1.9039
X1.5929Y2.0039
X1.5929Y1.9039
X1.6929Y2.0039
X1.6929Y1.9039
X12.2047Y2.1142
X12.2047Y2.0142
X12.3047Y2.1142
X12.3047Y2.0142
X12.4047Y2.1142
X12.4047Y2.0142
X12.5047Y2.1142
X12.5047Y2.0142
X12.6047Y2.1142
X12.6047Y2.0142
X12.7047Y2.1142
X12.7047Y2.0142
X12.8047Y2.1142
X12.8047Y2.0142
X12.9047Y2.1142
X12.9047Y2.0142
T5
X12.6953Y3.3319
X12.8953Y3.3319
X12.1441Y3.3319
X12.3441Y3.3319
X11.5929Y3.3319
X11.7929Y3.3319
X11.0417Y3.3319
X11.2417Y3.3319
T6
X5.315Y3.0433
X5.315Y2.8433
X7.126Y3.0433
X7.126Y2.8433
X2.5984Y3.0433
X2.5984Y2.8433
X1.6929Y3.0433
X1.6929Y2.8433
X6.2205Y3.0433
X6.2205Y2.8433
X0.7874Y3.0433
X0.7874Y2.8433
X4.4094Y3.0433
X4.4094Y2.8433
X3.5039Y3.0433
X3.5039Y2.8433
T7
X7.8051Y3.0512
X8.1004Y3.0512
X8.3563Y3.0512
X8.6516Y3.0512
X8.9075Y3.0512
X9.2028Y3.0512
X9.4587Y3.0512
X9.7539Y3.0512
T8
X7.8051Y3.3366
X8.3563Y3.3366
X8.9075Y3.3366
X9.4587Y3.3366
X13.9116Y1.9555
T9
X1.5429Y3.3933
X1.5429Y2.8433
X1.8429Y3.1933
X1.8429Y2.8433
X6.0705Y3.3933
X6.0705Y2.8433
X6.3705Y3.1933
X6.3705Y2.8433
X0.6374Y3.3933
X0.6374Y2.8433
X0.9374Y3.1933
X0.9374Y2.8433
X4.2594Y3.3933
X4.2594Y2.8433
X4.5594Y3.1933
X4.5594Y2.8433
X3.3539Y3.3933
X3.3539Y2.8433
X3.6539Y3.1933
X3.6539Y2.8433
X5.165Y3.3933
X5.165Y2.8433
X5.465Y3.1933
X5.465Y2.8433
X6.976Y3.3933
X6.976Y2.8433
X7.276Y3.1933
X7.276Y2.8433
X2.4484Y3.3933
X2.4484Y2.8433
X2.7484Y3.1933
X2.7484Y2.8433
T10
X15.4724Y3.2874
T3
G00X14.8917Y3.1909
M15
G01X14.8917Y3.2894
M16
G05
G00X15.187Y3.1909
M15
G01X15.187Y3.2894
M16
G05
G00X13.2382Y3.1909
M15
G01X13.2382Y3.2894
M16
G05
G00X13.5335Y3.1909
M15
G01X13.5335Y3.2894
M16
G05
G00X14.3406Y3.1909
M15
G01X14.3406Y3.2894
M16
G05
G00X14.6358Y3.1909
M15
G01X14.6358Y3.2894
M16
G05
G00X13.7894Y3.1909
M15
G01X13.7894Y3.2894
M16
G05
G00X14.0846Y3.1909
M15
G01X14.0846Y3.2894
M16
G05
T7
G00X13.3366Y3.3858
M15
G01X13.435Y3.3858
M16
G05
G00X14.439Y3.3858
M15
G01X14.5374Y3.3858
M16
G05
G00X13.8878Y3.3858
M15
G01X13.9862Y3.3858
M16
G05
G00X14.9902Y3.3858
M15
G01X15.0886Y3.3858
M16
G05
T11
G00X7.7106Y3.1398
M15
G01X7.7106Y3.2579
M16
G05
G00X9.8484Y3.1398
M15
G01X9.8484Y3.2579
M16
G05
T12
G00X8.7795Y3.1752
M15
G01X8.7795Y3.2224
M16
G05
T0
M30
