G04 #@! TF.GenerationSoftware,KiCad,Pcbnew,(5.1.5-0-10_14)*
G04 #@! TF.CreationDate,2020-05-18T15:20:50+02:00*
G04 #@! TF.ProjectId,AddOnB,4164644f-6e42-42e6-9b69-6361645f7063,rev?*
G04 #@! TF.SameCoordinates,Original*
G04 #@! TF.FileFunction,Legend,Top*
G04 #@! TF.FilePolarity,Positive*
%FSLAX46Y46*%
G04 Gerber Fmt 4.6, Leading zero omitted, Abs format (unit mm)*
G04 Created by KiCad (PCBNEW (5.1.5-0-10_14)) date 2020-05-18 15:20:50*
%MOMM*%
%LPD*%
G04 APERTURE LIST*
%ADD10C,0.300000*%
%ADD11C,0.150000*%
%ADD12C,0.254000*%
G04 APERTURE END LIST*
D10*
X10835714Y55264285D02*
X10764285Y55192857D01*
X10549999Y55121428D01*
X10407142Y55121428D01*
X10192857Y55192857D01*
X10049999Y55335714D01*
X9978571Y55478571D01*
X9907142Y55764285D01*
X9907142Y55978571D01*
X9978571Y56264285D01*
X10049999Y56407142D01*
X10192857Y56550000D01*
X10407142Y56621428D01*
X10549999Y56621428D01*
X10764285Y56550000D01*
X10835714Y56478571D01*
X11692857Y55121428D02*
X11549999Y55192857D01*
X11478571Y55264285D01*
X11407142Y55407142D01*
X11407142Y55835714D01*
X11478571Y55978571D01*
X11549999Y56050000D01*
X11692857Y56121428D01*
X11907142Y56121428D01*
X12049999Y56050000D01*
X12121428Y55978571D01*
X12192857Y55835714D01*
X12192857Y55407142D01*
X12121428Y55264285D01*
X12049999Y55192857D01*
X11907142Y55121428D01*
X11692857Y55121428D01*
X12835714Y56121428D02*
X12835714Y55121428D01*
X12835714Y55978571D02*
X12907142Y56050000D01*
X13049999Y56121428D01*
X13264285Y56121428D01*
X13407142Y56050000D01*
X13478571Y55907142D01*
X13478571Y55121428D01*
X14192857Y56121428D02*
X14192857Y55121428D01*
X14192857Y55978571D02*
X14264285Y56050000D01*
X14407142Y56121428D01*
X14621428Y56121428D01*
X14764285Y56050000D01*
X14835714Y55907142D01*
X14835714Y55121428D01*
X16121428Y55192857D02*
X15978571Y55121428D01*
X15692857Y55121428D01*
X15549999Y55192857D01*
X15478571Y55335714D01*
X15478571Y55907142D01*
X15549999Y56050000D01*
X15692857Y56121428D01*
X15978571Y56121428D01*
X16121428Y56050000D01*
X16192857Y55907142D01*
X16192857Y55764285D01*
X15478571Y55621428D01*
X17478571Y55192857D02*
X17335714Y55121428D01*
X17049999Y55121428D01*
X16907142Y55192857D01*
X16835714Y55264285D01*
X16764285Y55407142D01*
X16764285Y55835714D01*
X16835714Y55978571D01*
X16907142Y56050000D01*
X17049999Y56121428D01*
X17335714Y56121428D01*
X17478571Y56050000D01*
X17907142Y56121428D02*
X18478571Y56121428D01*
X18121428Y56621428D02*
X18121428Y55335714D01*
X18192857Y55192857D01*
X18335714Y55121428D01*
X18478571Y55121428D01*
X19907142Y56121428D02*
X20478571Y56121428D01*
X20121428Y56621428D02*
X20121428Y55335714D01*
X20192857Y55192857D01*
X20335714Y55121428D01*
X20478571Y55121428D01*
X21192857Y55121428D02*
X21049999Y55192857D01*
X20978571Y55264285D01*
X20907142Y55407142D01*
X20907142Y55835714D01*
X20978571Y55978571D01*
X21049999Y56050000D01*
X21192857Y56121428D01*
X21407142Y56121428D01*
X21549999Y56050000D01*
X21621428Y55978571D01*
X21692857Y55835714D01*
X21692857Y55407142D01*
X21621428Y55264285D01*
X21549999Y55192857D01*
X21407142Y55121428D01*
X21192857Y55121428D01*
X23407142Y55550000D02*
X24121428Y55550000D01*
X23264285Y55121428D02*
X23764285Y56621428D01*
X24264285Y55121428D01*
X24764285Y56121428D02*
X24764285Y55121428D01*
X24764285Y55978571D02*
X24835714Y56050000D01*
X24978571Y56121428D01*
X25192857Y56121428D01*
X25335714Y56050000D01*
X25407142Y55907142D01*
X25407142Y55121428D01*
X26764285Y55121428D02*
X26764285Y55907142D01*
X26692857Y56050000D01*
X26549999Y56121428D01*
X26264285Y56121428D01*
X26121428Y56050000D01*
X26764285Y55192857D02*
X26621428Y55121428D01*
X26264285Y55121428D01*
X26121428Y55192857D01*
X26049999Y55335714D01*
X26049999Y55478571D01*
X26121428Y55621428D01*
X26264285Y55692857D01*
X26621428Y55692857D01*
X26764285Y55764285D01*
X27692857Y55121428D02*
X27549999Y55192857D01*
X27478571Y55335714D01*
X27478571Y56621428D01*
X28478571Y55121428D02*
X28335714Y55192857D01*
X28264285Y55264285D01*
X28192857Y55407142D01*
X28192857Y55835714D01*
X28264285Y55978571D01*
X28335714Y56050000D01*
X28478571Y56121428D01*
X28692857Y56121428D01*
X28835714Y56050000D01*
X28907142Y55978571D01*
X28978571Y55835714D01*
X28978571Y55407142D01*
X28907142Y55264285D01*
X28835714Y55192857D01*
X28692857Y55121428D01*
X28478571Y55121428D01*
X30264285Y56121428D02*
X30264285Y54907142D01*
X30192857Y54764285D01*
X30121428Y54692857D01*
X29978571Y54621428D01*
X29764285Y54621428D01*
X29621428Y54692857D01*
X30264285Y55192857D02*
X30121428Y55121428D01*
X29835714Y55121428D01*
X29692857Y55192857D01*
X29621428Y55264285D01*
X29549999Y55407142D01*
X29549999Y55835714D01*
X29621428Y55978571D01*
X29692857Y56050000D01*
X29835714Y56121428D01*
X30121428Y56121428D01*
X30264285Y56050000D01*
X32407142Y56621428D02*
X32692857Y56621428D01*
X32835714Y56550000D01*
X32978571Y56407142D01*
X33049999Y56121428D01*
X33049999Y55621428D01*
X32978571Y55335714D01*
X32835714Y55192857D01*
X32692857Y55121428D01*
X32407142Y55121428D01*
X32264285Y55192857D01*
X32121428Y55335714D01*
X32049999Y55621428D01*
X32049999Y56121428D01*
X32121428Y56407142D01*
X32264285Y56550000D01*
X32407142Y56621428D01*
X34335714Y56121428D02*
X34335714Y55121428D01*
X33692857Y56121428D02*
X33692857Y55335714D01*
X33764285Y55192857D01*
X33907142Y55121428D01*
X34121428Y55121428D01*
X34264285Y55192857D01*
X34335714Y55264285D01*
X34835714Y56121428D02*
X35407142Y56121428D01*
X35050000Y56621428D02*
X35050000Y55335714D01*
X35121428Y55192857D01*
X35264285Y55121428D01*
X35407142Y55121428D01*
X35907142Y56121428D02*
X35907142Y54621428D01*
X35907142Y56050000D02*
X36050000Y56121428D01*
X36335714Y56121428D01*
X36478571Y56050000D01*
X36550000Y55978571D01*
X36621428Y55835714D01*
X36621428Y55407142D01*
X36550000Y55264285D01*
X36478571Y55192857D01*
X36335714Y55121428D01*
X36050000Y55121428D01*
X35907142Y55192857D01*
X37907142Y56121428D02*
X37907142Y55121428D01*
X37264285Y56121428D02*
X37264285Y55335714D01*
X37335714Y55192857D01*
X37478571Y55121428D01*
X37692857Y55121428D01*
X37835714Y55192857D01*
X37907142Y55264285D01*
X38407142Y56121428D02*
X38978571Y56121428D01*
X38621428Y56621428D02*
X38621428Y55335714D01*
X38692857Y55192857D01*
X38835714Y55121428D01*
X38978571Y55121428D01*
X40478571Y56621428D02*
X41478571Y55121428D01*
X41478571Y56621428D02*
X40478571Y55121428D01*
X41907142Y56621428D02*
X42835714Y56621428D01*
X42335714Y56050000D01*
X42550000Y56050000D01*
X42692857Y55978571D01*
X42764285Y55907142D01*
X42835714Y55764285D01*
X42835714Y55407142D01*
X42764285Y55264285D01*
X42692857Y55192857D01*
X42550000Y55121428D01*
X42121428Y55121428D01*
X41978571Y55192857D01*
X41907142Y55264285D01*
X43764285Y56621428D02*
X43907142Y56621428D01*
X44050000Y56550000D01*
X44121428Y56478571D01*
X44192857Y56335714D01*
X44264285Y56050000D01*
X44264285Y55692857D01*
X44192857Y55407142D01*
X44121428Y55264285D01*
X44050000Y55192857D01*
X43907142Y55121428D01*
X43764285Y55121428D01*
X43621428Y55192857D01*
X43550000Y55264285D01*
X43478571Y55407142D01*
X43407142Y55692857D01*
X43407142Y56050000D01*
X43478571Y56335714D01*
X43550000Y56478571D01*
X43621428Y56550000D01*
X43764285Y56621428D01*
X45692857Y55121428D02*
X44835714Y55121428D01*
X45264285Y55121428D02*
X45264285Y56621428D01*
X45121428Y56407142D01*
X44978571Y56264285D01*
X44835714Y56192857D01*
X52892857Y55264285D02*
X52821428Y55192857D01*
X52607142Y55121428D01*
X52464285Y55121428D01*
X52250000Y55192857D01*
X52107142Y55335714D01*
X52035714Y55478571D01*
X51964285Y55764285D01*
X51964285Y55978571D01*
X52035714Y56264285D01*
X52107142Y56407142D01*
X52250000Y56550000D01*
X52464285Y56621428D01*
X52607142Y56621428D01*
X52821428Y56550000D01*
X52892857Y56478571D01*
X53750000Y55121428D02*
X53607142Y55192857D01*
X53535714Y55264285D01*
X53464285Y55407142D01*
X53464285Y55835714D01*
X53535714Y55978571D01*
X53607142Y56050000D01*
X53750000Y56121428D01*
X53964285Y56121428D01*
X54107142Y56050000D01*
X54178571Y55978571D01*
X54250000Y55835714D01*
X54250000Y55407142D01*
X54178571Y55264285D01*
X54107142Y55192857D01*
X53964285Y55121428D01*
X53750000Y55121428D01*
X54892857Y56121428D02*
X54892857Y55121428D01*
X54892857Y55978571D02*
X54964285Y56050000D01*
X55107142Y56121428D01*
X55321428Y56121428D01*
X55464285Y56050000D01*
X55535714Y55907142D01*
X55535714Y55121428D01*
X56250000Y56121428D02*
X56250000Y55121428D01*
X56250000Y55978571D02*
X56321428Y56050000D01*
X56464285Y56121428D01*
X56678571Y56121428D01*
X56821428Y56050000D01*
X56892857Y55907142D01*
X56892857Y55121428D01*
X58178571Y55192857D02*
X58035714Y55121428D01*
X57750000Y55121428D01*
X57607142Y55192857D01*
X57535714Y55335714D01*
X57535714Y55907142D01*
X57607142Y56050000D01*
X57750000Y56121428D01*
X58035714Y56121428D01*
X58178571Y56050000D01*
X58250000Y55907142D01*
X58250000Y55764285D01*
X57535714Y55621428D01*
X59535714Y55192857D02*
X59392857Y55121428D01*
X59107142Y55121428D01*
X58964285Y55192857D01*
X58892857Y55264285D01*
X58821428Y55407142D01*
X58821428Y55835714D01*
X58892857Y55978571D01*
X58964285Y56050000D01*
X59107142Y56121428D01*
X59392857Y56121428D01*
X59535714Y56050000D01*
X59964285Y56121428D02*
X60535714Y56121428D01*
X60178571Y56621428D02*
X60178571Y55335714D01*
X60250000Y55192857D01*
X60392857Y55121428D01*
X60535714Y55121428D01*
X61964285Y56121428D02*
X62535714Y56121428D01*
X62178571Y56621428D02*
X62178571Y55335714D01*
X62250000Y55192857D01*
X62392857Y55121428D01*
X62535714Y55121428D01*
X63249999Y55121428D02*
X63107142Y55192857D01*
X63035714Y55264285D01*
X62964285Y55407142D01*
X62964285Y55835714D01*
X63035714Y55978571D01*
X63107142Y56050000D01*
X63249999Y56121428D01*
X63464285Y56121428D01*
X63607142Y56050000D01*
X63678571Y55978571D01*
X63749999Y55835714D01*
X63749999Y55407142D01*
X63678571Y55264285D01*
X63607142Y55192857D01*
X63464285Y55121428D01*
X63249999Y55121428D01*
X65464285Y55550000D02*
X66178571Y55550000D01*
X65321428Y55121428D02*
X65821428Y56621428D01*
X66321428Y55121428D01*
X66821428Y56121428D02*
X66821428Y55121428D01*
X66821428Y55978571D02*
X66892857Y56050000D01*
X67035714Y56121428D01*
X67250000Y56121428D01*
X67392857Y56050000D01*
X67464285Y55907142D01*
X67464285Y55121428D01*
X68821428Y55121428D02*
X68821428Y55907142D01*
X68750000Y56050000D01*
X68607142Y56121428D01*
X68321428Y56121428D01*
X68178571Y56050000D01*
X68821428Y55192857D02*
X68678571Y55121428D01*
X68321428Y55121428D01*
X68178571Y55192857D01*
X68107142Y55335714D01*
X68107142Y55478571D01*
X68178571Y55621428D01*
X68321428Y55692857D01*
X68678571Y55692857D01*
X68821428Y55764285D01*
X69750000Y55121428D02*
X69607142Y55192857D01*
X69535714Y55335714D01*
X69535714Y56621428D01*
X70535714Y55121428D02*
X70392857Y55192857D01*
X70321428Y55264285D01*
X70250000Y55407142D01*
X70250000Y55835714D01*
X70321428Y55978571D01*
X70392857Y56050000D01*
X70535714Y56121428D01*
X70750000Y56121428D01*
X70892857Y56050000D01*
X70964285Y55978571D01*
X71035714Y55835714D01*
X71035714Y55407142D01*
X70964285Y55264285D01*
X70892857Y55192857D01*
X70750000Y55121428D01*
X70535714Y55121428D01*
X72321428Y56121428D02*
X72321428Y54907142D01*
X72250000Y54764285D01*
X72178571Y54692857D01*
X72035714Y54621428D01*
X71821428Y54621428D01*
X71678571Y54692857D01*
X72321428Y55192857D02*
X72178571Y55121428D01*
X71892857Y55121428D01*
X71750000Y55192857D01*
X71678571Y55264285D01*
X71607142Y55407142D01*
X71607142Y55835714D01*
X71678571Y55978571D01*
X71750000Y56050000D01*
X71892857Y56121428D01*
X72178571Y56121428D01*
X72321428Y56050000D01*
X74178571Y55121428D02*
X74178571Y56621428D01*
X74892857Y56121428D02*
X74892857Y55121428D01*
X74892857Y55978571D02*
X74964285Y56050000D01*
X75107142Y56121428D01*
X75321428Y56121428D01*
X75464285Y56050000D01*
X75535714Y55907142D01*
X75535714Y55121428D01*
X76250000Y56121428D02*
X76250000Y54621428D01*
X76250000Y56050000D02*
X76392857Y56121428D01*
X76678571Y56121428D01*
X76821428Y56050000D01*
X76892857Y55978571D01*
X76964285Y55835714D01*
X76964285Y55407142D01*
X76892857Y55264285D01*
X76821428Y55192857D01*
X76678571Y55121428D01*
X76392857Y55121428D01*
X76250000Y55192857D01*
X78250000Y56121428D02*
X78250000Y55121428D01*
X77607142Y56121428D02*
X77607142Y55335714D01*
X77678571Y55192857D01*
X77821428Y55121428D01*
X78035714Y55121428D01*
X78178571Y55192857D01*
X78250000Y55264285D01*
X78750000Y56121428D02*
X79321428Y56121428D01*
X78964285Y56621428D02*
X78964285Y55335714D01*
X79035714Y55192857D01*
X79178571Y55121428D01*
X79321428Y55121428D01*
X80821428Y56621428D02*
X81821428Y55121428D01*
X81821428Y56621428D02*
X80821428Y55121428D01*
X82321428Y56478571D02*
X82392857Y56550000D01*
X82535714Y56621428D01*
X82892857Y56621428D01*
X83035714Y56550000D01*
X83107142Y56478571D01*
X83178571Y56335714D01*
X83178571Y56192857D01*
X83107142Y55978571D01*
X82250000Y55121428D01*
X83178571Y55121428D01*
X84107142Y56621428D02*
X84250000Y56621428D01*
X84392857Y56550000D01*
X84464285Y56478571D01*
X84535714Y56335714D01*
X84607142Y56050000D01*
X84607142Y55692857D01*
X84535714Y55407142D01*
X84464285Y55264285D01*
X84392857Y55192857D01*
X84250000Y55121428D01*
X84107142Y55121428D01*
X83964285Y55192857D01*
X83892857Y55264285D01*
X83821428Y55407142D01*
X83750000Y55692857D01*
X83750000Y56050000D01*
X83821428Y56335714D01*
X83892857Y56478571D01*
X83964285Y56550000D01*
X84107142Y56621428D01*
X86035714Y55121428D02*
X85178571Y55121428D01*
X85607142Y55121428D02*
X85607142Y56621428D01*
X85464285Y56407142D01*
X85321428Y56264285D01*
X85178571Y56192857D01*
X90614285Y46650000D02*
X91328571Y46650000D01*
X90471428Y46221428D02*
X90971428Y47721428D01*
X91471428Y46221428D01*
X92614285Y46221428D02*
X92614285Y47721428D01*
X92614285Y46292857D02*
X92471428Y46221428D01*
X92185714Y46221428D01*
X92042857Y46292857D01*
X91971428Y46364285D01*
X91900000Y46507142D01*
X91900000Y46935714D01*
X91971428Y47078571D01*
X92042857Y47150000D01*
X92185714Y47221428D01*
X92471428Y47221428D01*
X92614285Y47150000D01*
X93971428Y46221428D02*
X93971428Y47721428D01*
X93971428Y46292857D02*
X93828571Y46221428D01*
X93542857Y46221428D01*
X93400000Y46292857D01*
X93328571Y46364285D01*
X93257142Y46507142D01*
X93257142Y46935714D01*
X93328571Y47078571D01*
X93400000Y47150000D01*
X93542857Y47221428D01*
X93828571Y47221428D01*
X93971428Y47150000D01*
X94971428Y47721428D02*
X95257142Y47721428D01*
X95400000Y47650000D01*
X95542857Y47507142D01*
X95614285Y47221428D01*
X95614285Y46721428D01*
X95542857Y46435714D01*
X95400000Y46292857D01*
X95257142Y46221428D01*
X94971428Y46221428D01*
X94828571Y46292857D01*
X94685714Y46435714D01*
X94614285Y46721428D01*
X94614285Y47221428D01*
X94685714Y47507142D01*
X94828571Y47650000D01*
X94971428Y47721428D01*
X96257142Y47221428D02*
X96257142Y46221428D01*
X96257142Y47078571D02*
X96328571Y47150000D01*
X96471428Y47221428D01*
X96685714Y47221428D01*
X96828571Y47150000D01*
X96900000Y47007142D01*
X96900000Y46221428D01*
X97614285Y46792857D02*
X98757142Y46792857D01*
X99971428Y47007142D02*
X100185714Y46935714D01*
X100257142Y46864285D01*
X100328571Y46721428D01*
X100328571Y46507142D01*
X100257142Y46364285D01*
X100185714Y46292857D01*
X100042857Y46221428D01*
X99471428Y46221428D01*
X99471428Y47721428D01*
X99971428Y47721428D01*
X100114285Y47650000D01*
X100185714Y47578571D01*
X100257142Y47435714D01*
X100257142Y47292857D01*
X100185714Y47150000D01*
X100114285Y47078571D01*
X99971428Y47007142D01*
X99471428Y47007142D01*
X102900000Y46221428D02*
X102042857Y46221428D01*
X102471428Y46221428D02*
X102471428Y47721428D01*
X102328571Y47507142D01*
X102185714Y47364285D01*
X102042857Y47292857D01*
X103542857Y46364285D02*
X103614285Y46292857D01*
X103542857Y46221428D01*
X103471428Y46292857D01*
X103542857Y46364285D01*
X103542857Y46221428D01*
X104542857Y47721428D02*
X104685714Y47721428D01*
X104828571Y47650000D01*
X104900000Y47578571D01*
X104971428Y47435714D01*
X105042857Y47150000D01*
X105042857Y46792857D01*
X104971428Y46507142D01*
X104900000Y46364285D01*
X104828571Y46292857D01*
X104685714Y46221428D01*
X104542857Y46221428D01*
X104400000Y46292857D01*
X104328571Y46364285D01*
X104257142Y46507142D01*
X104185714Y46792857D01*
X104185714Y47150000D01*
X104257142Y47435714D01*
X104328571Y47578571D01*
X104400000Y47650000D01*
X104542857Y47721428D01*
X105685714Y46364285D02*
X105757142Y46292857D01*
X105685714Y46221428D01*
X105614285Y46292857D01*
X105685714Y46364285D01*
X105685714Y46221428D01*
X107185714Y46221428D02*
X106328571Y46221428D01*
X106757142Y46221428D02*
X106757142Y47721428D01*
X106614285Y47507142D01*
X106471428Y47364285D01*
X106328571Y47292857D01*
X109614285Y46221428D02*
X109614285Y47007142D01*
X109542857Y47150000D01*
X109400000Y47221428D01*
X109114285Y47221428D01*
X108971428Y47150000D01*
X109614285Y46292857D02*
X109471428Y46221428D01*
X109114285Y46221428D01*
X108971428Y46292857D01*
X108900000Y46435714D01*
X108900000Y46578571D01*
X108971428Y46721428D01*
X109114285Y46792857D01*
X109471428Y46792857D01*
X109614285Y46864285D01*
X110971428Y47221428D02*
X110971428Y46221428D01*
X110328571Y47221428D02*
X110328571Y46435714D01*
X110400000Y46292857D01*
X110542857Y46221428D01*
X110757142Y46221428D01*
X110900000Y46292857D01*
X110971428Y46364285D01*
X111542857Y47221428D02*
X111900000Y46221428D01*
X112257142Y47221428D01*
X113400000Y46292857D02*
X113257142Y46221428D01*
X112971428Y46221428D01*
X112828571Y46292857D01*
X112757142Y46435714D01*
X112757142Y47007142D01*
X112828571Y47150000D01*
X112971428Y47221428D01*
X113257142Y47221428D01*
X113400000Y47150000D01*
X113471428Y47007142D01*
X113471428Y46864285D01*
X112757142Y46721428D01*
X114114285Y46221428D02*
X114114285Y47221428D01*
X114114285Y46935714D02*
X114185714Y47078571D01*
X114257142Y47150000D01*
X114400000Y47221428D01*
X114542857Y47221428D01*
X115685714Y46221428D02*
X115685714Y47721428D01*
X115685714Y46292857D02*
X115542857Y46221428D01*
X115257142Y46221428D01*
X115114285Y46292857D01*
X115042857Y46364285D01*
X114971428Y46507142D01*
X114971428Y46935714D01*
X115042857Y47078571D01*
X115114285Y47150000D01*
X115257142Y47221428D01*
X115542857Y47221428D01*
X115685714Y47150000D01*
X116400000Y46221428D02*
X116400000Y47221428D01*
X116400000Y47721428D02*
X116328571Y47650000D01*
X116400000Y47578571D01*
X116471428Y47650000D01*
X116400000Y47721428D01*
X116400000Y47578571D01*
X117328571Y46221428D02*
X117185714Y46292857D01*
X117114285Y46364285D01*
X117042857Y46507142D01*
X117042857Y46935714D01*
X117114285Y47078571D01*
X117185714Y47150000D01*
X117328571Y47221428D01*
X117542857Y47221428D01*
X117685714Y47150000D01*
X117757142Y47078571D01*
X117828571Y46935714D01*
X117828571Y46507142D01*
X117757142Y46364285D01*
X117685714Y46292857D01*
X117542857Y46221428D01*
X117328571Y46221428D01*
X118471428Y47221428D02*
X118471428Y46221428D01*
X118471428Y47078571D02*
X118542857Y47150000D01*
X118685714Y47221428D01*
X118900000Y47221428D01*
X119042857Y47150000D01*
X119114285Y47007142D01*
X119114285Y46221428D01*
D11*
X6000000Y45000000D02*
X6000000Y90000000D01*
X397000000Y45000000D02*
X6000000Y45000000D01*
X397000000Y90000000D02*
X397000000Y45000000D01*
X6000000Y90000000D02*
X397000000Y90000000D01*
X168500000Y90000000D02*
X168500000Y71400000D01*
X168500000Y71400000D02*
X193800000Y71400000D01*
X193800000Y71400000D02*
X193800000Y90000000D01*
X193800000Y90000000D02*
X168500000Y90000000D01*
X170000000Y90000000D02*
X170000000Y92700000D01*
X170000000Y92700000D02*
X192000000Y92700000D01*
X192000000Y92700000D02*
X192000000Y90000000D01*
X7500000Y90000000D02*
X7500000Y71400000D01*
X7500000Y71400000D02*
X32800000Y71400000D01*
X32800000Y71400000D02*
X32800000Y90000000D01*
X32800000Y90000000D02*
X7500000Y90000000D01*
X9000000Y90000000D02*
X9000000Y92700000D01*
X9000000Y92700000D02*
X31000000Y92700000D01*
X31000000Y92700000D02*
X31000000Y90000000D01*
X30500000Y90000000D02*
X30500000Y71400000D01*
X30500000Y71400000D02*
X55800000Y71400000D01*
X55800000Y71400000D02*
X55800000Y90000000D01*
X55800000Y90000000D02*
X30500000Y90000000D01*
X32000000Y90000000D02*
X32000000Y92700000D01*
X32000000Y92700000D02*
X54000000Y92700000D01*
X54000000Y92700000D02*
X54000000Y90000000D01*
X53500000Y90000000D02*
X53500000Y71400000D01*
X53500000Y71400000D02*
X78800000Y71400000D01*
X78800000Y71400000D02*
X78800000Y90000000D01*
X78800000Y90000000D02*
X53500000Y90000000D01*
X55000000Y90000000D02*
X55000000Y92700000D01*
X55000000Y92700000D02*
X77000000Y92700000D01*
X77000000Y92700000D02*
X77000000Y90000000D01*
X76500000Y90000000D02*
X76500000Y71400000D01*
X76500000Y71400000D02*
X101800000Y71400000D01*
X101800000Y71400000D02*
X101800000Y90000000D01*
X101800000Y90000000D02*
X76500000Y90000000D01*
X78000000Y90000000D02*
X78000000Y92700000D01*
X78000000Y92700000D02*
X100000000Y92700000D01*
X100000000Y92700000D02*
X100000000Y90000000D01*
X99500000Y90000000D02*
X99500000Y71400000D01*
X99500000Y71400000D02*
X124800000Y71400000D01*
X124800000Y71400000D02*
X124800000Y90000000D01*
X124800000Y90000000D02*
X99500000Y90000000D01*
X101000000Y90000000D02*
X101000000Y92700000D01*
X101000000Y92700000D02*
X123000000Y92700000D01*
X123000000Y92700000D02*
X123000000Y90000000D01*
X122500000Y90000000D02*
X122500000Y71400000D01*
X122500000Y71400000D02*
X147800000Y71400000D01*
X147800000Y71400000D02*
X147800000Y90000000D01*
X147800000Y90000000D02*
X122500000Y90000000D01*
X124000000Y90000000D02*
X124000000Y92700000D01*
X124000000Y92700000D02*
X146000000Y92700000D01*
X146000000Y92700000D02*
X146000000Y90000000D01*
X145500000Y90000000D02*
X145500000Y71400000D01*
X145500000Y71400000D02*
X170800000Y71400000D01*
X170800000Y71400000D02*
X170800000Y90000000D01*
X170800000Y90000000D02*
X145500000Y90000000D01*
X147000000Y90000000D02*
X147000000Y92700000D01*
X147000000Y92700000D02*
X169000000Y92700000D01*
X169000000Y92700000D02*
X169000000Y90000000D01*
D12*
X389500000Y89000000D02*
X396500000Y89000000D01*
X396500000Y90000000D02*
X389500000Y90000000D01*
X396500000Y80000000D02*
X396500000Y90000000D01*
X389500000Y80000000D02*
X396500000Y80000000D01*
X389500000Y90000000D02*
X389500000Y80000000D01*
D11*
X332860000Y47880000D02*
X332300000Y48430000D01*
X304920000Y47880000D02*
X305460000Y48430000D01*
X332860000Y56980000D02*
X332300000Y56430000D01*
X304920000Y56980000D02*
X305460000Y56430000D01*
X332300000Y56430000D02*
X332300000Y48430000D01*
X332860000Y56980000D02*
X332860000Y47880000D01*
X305460000Y56430000D02*
X305460000Y48430000D01*
X304920000Y56980000D02*
X304920000Y47880000D01*
X321140000Y48430000D02*
X321140000Y47880000D01*
X316640000Y48430000D02*
X316640000Y47880000D01*
X321140000Y48430000D02*
X332300000Y48430000D01*
X305460000Y48430000D02*
X316640000Y48430000D01*
X304920000Y47880000D02*
X332860000Y47880000D01*
X305460000Y56430000D02*
X332300000Y56430000D01*
X304920000Y56980000D02*
X332860000Y56980000D01*
D12*
X377000000Y90000000D02*
X387000000Y90000000D01*
X387000000Y90000000D02*
X387000000Y80000000D01*
X387000000Y80000000D02*
X377000000Y80000000D01*
X377000000Y80000000D02*
X377000000Y90000000D01*
X377850000Y90000000D02*
X377850000Y99500000D01*
X377850000Y99500000D02*
X386150000Y99500000D01*
X386150000Y99500000D02*
X386150000Y90000000D01*
X372150000Y99500000D02*
X372150000Y90000000D01*
X363850000Y99500000D02*
X372150000Y99500000D01*
X363850000Y90000000D02*
X363850000Y99500000D01*
X363000000Y80000000D02*
X363000000Y90000000D01*
X373000000Y80000000D02*
X363000000Y80000000D01*
X373000000Y90000000D02*
X373000000Y80000000D01*
X363000000Y90000000D02*
X373000000Y90000000D01*
X349000000Y90000000D02*
X359000000Y90000000D01*
X359000000Y90000000D02*
X359000000Y80000000D01*
X359000000Y80000000D02*
X349000000Y80000000D01*
X349000000Y80000000D02*
X349000000Y90000000D01*
X349850000Y90000000D02*
X349850000Y99500000D01*
X349850000Y99500000D02*
X358150000Y99500000D01*
X358150000Y99500000D02*
X358150000Y90000000D01*
X250500000Y76300000D02*
X250500000Y90000000D01*
X195500000Y76300000D02*
X250500000Y76300000D01*
X195500000Y90000000D02*
X195500000Y76300000D01*
X250500000Y90000000D02*
X195500000Y90000000D01*
D11*
X207000000Y90000000D02*
X207000000Y91100000D01*
X206150000Y98800000D02*
X206150000Y91100000D01*
X206150000Y98800000D02*
X197850000Y98800000D01*
X197000000Y91100000D02*
X197000000Y90000000D01*
X197850000Y98800000D02*
X197850000Y91100000D01*
X207000000Y91100000D02*
X197000000Y91100000D01*
X221000000Y91100000D02*
X211000000Y91100000D01*
X220150000Y98800000D02*
X220150000Y91100000D01*
X221000000Y90000000D02*
X221000000Y91100000D01*
X220150000Y98800000D02*
X211850000Y98800000D01*
X211000000Y91100000D02*
X211000000Y90000000D01*
X211850000Y98800000D02*
X211850000Y91100000D01*
X225000000Y91100000D02*
X225000000Y90000000D01*
X235000000Y91100000D02*
X225000000Y91100000D01*
X235000000Y90000000D02*
X235000000Y91100000D01*
X234150000Y98800000D02*
X225850000Y98800000D01*
X234150000Y98800000D02*
X234150000Y91100000D01*
X225850000Y98800000D02*
X225850000Y91100000D01*
X248150000Y98800000D02*
X239850000Y98800000D01*
X248150000Y98800000D02*
X248150000Y91100000D01*
X239850000Y98800000D02*
X239850000Y91100000D01*
X239000000Y91100000D02*
X239000000Y90000000D01*
X249000000Y91100000D02*
X239000000Y91100000D01*
X249000000Y90000000D02*
X249000000Y91100000D01*
X278150000Y79610000D02*
X287850000Y79610000D01*
X287850000Y79610000D02*
X287850000Y93110000D01*
X287850000Y93100000D02*
X278150000Y93100000D01*
X278150000Y93110000D02*
X278150000Y79610000D01*
X292150000Y93110000D02*
X292150000Y79610000D01*
X301850000Y93100000D02*
X292150000Y93100000D01*
X301850000Y79610000D02*
X301850000Y93110000D01*
X292150000Y79610000D02*
X301850000Y79610000D01*
X306150000Y79610000D02*
X315850000Y79610000D01*
X315850000Y79610000D02*
X315850000Y93110000D01*
X315850000Y93100000D02*
X306150000Y93100000D01*
X306150000Y93110000D02*
X306150000Y79610000D01*
X320150000Y93110000D02*
X320150000Y79610000D01*
X329850000Y93100000D02*
X320150000Y93100000D01*
X329850000Y79610000D02*
X329850000Y93110000D01*
X320150000Y79610000D02*
X329850000Y79610000D01*
X48640000Y54180000D02*
X49200000Y53630000D01*
X89280000Y54180000D02*
X88740000Y53630000D01*
X48640000Y45080000D02*
X49200000Y45630000D01*
X89280000Y45080000D02*
X88740000Y45630000D01*
X49200000Y45630000D02*
X49200000Y53630000D01*
X48640000Y45080000D02*
X48640000Y54180000D01*
X88740000Y45630000D02*
X88740000Y53630000D01*
X89280000Y45080000D02*
X89280000Y54180000D01*
X66710000Y53630000D02*
X66710000Y54180000D01*
X71210000Y53630000D02*
X71210000Y54180000D01*
X66710000Y53630000D02*
X49200000Y53630000D01*
X88740000Y53630000D02*
X71210000Y53630000D01*
X89280000Y54180000D02*
X48640000Y54180000D01*
X88740000Y45630000D02*
X49200000Y45630000D01*
X89280000Y45080000D02*
X48640000Y45080000D01*
X48080000Y45080000D02*
X7440000Y45080000D01*
X47540000Y45630000D02*
X8000000Y45630000D01*
X48080000Y54180000D02*
X7440000Y54180000D01*
X47540000Y53630000D02*
X30010000Y53630000D01*
X25510000Y53630000D02*
X8000000Y53630000D01*
X30010000Y53630000D02*
X30010000Y54180000D01*
X25510000Y53630000D02*
X25510000Y54180000D01*
X48080000Y45080000D02*
X48080000Y54180000D01*
X47540000Y45630000D02*
X47540000Y53630000D01*
X7440000Y45080000D02*
X7440000Y54180000D01*
X8000000Y45630000D02*
X8000000Y53630000D01*
X48080000Y45080000D02*
X47540000Y45630000D01*
X7440000Y45080000D02*
X8000000Y45630000D01*
X48080000Y54180000D02*
X47540000Y53630000D01*
X7440000Y54180000D02*
X8000000Y53630000D01*
D12*
X344150000Y99500000D02*
X344150000Y90000000D01*
X335850000Y99500000D02*
X344150000Y99500000D01*
X335850000Y90000000D02*
X335850000Y99500000D01*
X335000000Y80000000D02*
X335000000Y90000000D01*
X345000000Y80000000D02*
X335000000Y80000000D01*
X345000000Y90000000D02*
X345000000Y80000000D01*
X335000000Y90000000D02*
X345000000Y90000000D01*
D11*
X333770000Y47600000D02*
X333770000Y52800000D01*
X353630000Y47600000D02*
X333770000Y47600000D01*
X353630000Y52800000D02*
X353630000Y47600000D01*
X333770000Y52800000D02*
X353630000Y52800000D01*
X274840000Y83800000D02*
X253160000Y83800000D01*
X253160000Y83800000D02*
X253160000Y90000000D01*
X253160000Y90000000D02*
X274840000Y90000000D01*
X274840000Y90000000D02*
X274840000Y83800000D01*
X185838095Y71147619D02*
X186504761Y70147619D01*
X186504761Y71147619D02*
X185838095Y70147619D01*
X187409523Y70147619D02*
X186838095Y70147619D01*
X187123809Y70147619D02*
X187123809Y71147619D01*
X187028571Y71004761D01*
X186933333Y70909523D01*
X186838095Y70861904D01*
X188028571Y71147619D02*
X188123809Y71147619D01*
X188219047Y71100000D01*
X188266666Y71052380D01*
X188314285Y70957142D01*
X188361904Y70766666D01*
X188361904Y70528571D01*
X188314285Y70338095D01*
X188266666Y70242857D01*
X188219047Y70195238D01*
X188123809Y70147619D01*
X188028571Y70147619D01*
X187933333Y70195238D01*
X187885714Y70242857D01*
X187838095Y70338095D01*
X187790476Y70528571D01*
X187790476Y70766666D01*
X187838095Y70957142D01*
X187885714Y71052380D01*
X187933333Y71100000D01*
X188028571Y71147619D01*
X188933333Y70719047D02*
X188838095Y70766666D01*
X188790476Y70814285D01*
X188742857Y70909523D01*
X188742857Y70957142D01*
X188790476Y71052380D01*
X188838095Y71100000D01*
X188933333Y71147619D01*
X189123809Y71147619D01*
X189219047Y71100000D01*
X189266666Y71052380D01*
X189314285Y70957142D01*
X189314285Y70909523D01*
X189266666Y70814285D01*
X189219047Y70766666D01*
X189123809Y70719047D01*
X188933333Y70719047D01*
X188838095Y70671428D01*
X188790476Y70623809D01*
X188742857Y70528571D01*
X188742857Y70338095D01*
X188790476Y70242857D01*
X188838095Y70195238D01*
X188933333Y70147619D01*
X189123809Y70147619D01*
X189219047Y70195238D01*
X189266666Y70242857D01*
X189314285Y70338095D01*
X189314285Y70528571D01*
X189266666Y70623809D01*
X189219047Y70671428D01*
X189123809Y70719047D01*
X24838095Y71047619D02*
X25504761Y70047619D01*
X25504761Y71047619D02*
X24838095Y70047619D01*
X26409523Y70047619D02*
X25838095Y70047619D01*
X26123809Y70047619D02*
X26123809Y71047619D01*
X26028571Y70904761D01*
X25933333Y70809523D01*
X25838095Y70761904D01*
X27028571Y71047619D02*
X27123809Y71047619D01*
X27219047Y71000000D01*
X27266666Y70952380D01*
X27314285Y70857142D01*
X27361904Y70666666D01*
X27361904Y70428571D01*
X27314285Y70238095D01*
X27266666Y70142857D01*
X27219047Y70095238D01*
X27123809Y70047619D01*
X27028571Y70047619D01*
X26933333Y70095238D01*
X26885714Y70142857D01*
X26838095Y70238095D01*
X26790476Y70428571D01*
X26790476Y70666666D01*
X26838095Y70857142D01*
X26885714Y70952380D01*
X26933333Y71000000D01*
X27028571Y71047619D01*
X28314285Y70047619D02*
X27742857Y70047619D01*
X28028571Y70047619D02*
X28028571Y71047619D01*
X27933333Y70904761D01*
X27838095Y70809523D01*
X27742857Y70761904D01*
X48038095Y71047619D02*
X48704761Y70047619D01*
X48704761Y71047619D02*
X48038095Y70047619D01*
X49609523Y70047619D02*
X49038095Y70047619D01*
X49323809Y70047619D02*
X49323809Y71047619D01*
X49228571Y70904761D01*
X49133333Y70809523D01*
X49038095Y70761904D01*
X50228571Y71047619D02*
X50323809Y71047619D01*
X50419047Y71000000D01*
X50466666Y70952380D01*
X50514285Y70857142D01*
X50561904Y70666666D01*
X50561904Y70428571D01*
X50514285Y70238095D01*
X50466666Y70142857D01*
X50419047Y70095238D01*
X50323809Y70047619D01*
X50228571Y70047619D01*
X50133333Y70095238D01*
X50085714Y70142857D01*
X50038095Y70238095D01*
X49990476Y70428571D01*
X49990476Y70666666D01*
X50038095Y70857142D01*
X50085714Y70952380D01*
X50133333Y71000000D01*
X50228571Y71047619D01*
X50942857Y70952380D02*
X50990476Y71000000D01*
X51085714Y71047619D01*
X51323809Y71047619D01*
X51419047Y71000000D01*
X51466666Y70952380D01*
X51514285Y70857142D01*
X51514285Y70761904D01*
X51466666Y70619047D01*
X50895238Y70047619D01*
X51514285Y70047619D01*
X70938095Y71047619D02*
X71604761Y70047619D01*
X71604761Y71047619D02*
X70938095Y70047619D01*
X72509523Y70047619D02*
X71938095Y70047619D01*
X72223809Y70047619D02*
X72223809Y71047619D01*
X72128571Y70904761D01*
X72033333Y70809523D01*
X71938095Y70761904D01*
X73128571Y71047619D02*
X73223809Y71047619D01*
X73319047Y71000000D01*
X73366666Y70952380D01*
X73414285Y70857142D01*
X73461904Y70666666D01*
X73461904Y70428571D01*
X73414285Y70238095D01*
X73366666Y70142857D01*
X73319047Y70095238D01*
X73223809Y70047619D01*
X73128571Y70047619D01*
X73033333Y70095238D01*
X72985714Y70142857D01*
X72938095Y70238095D01*
X72890476Y70428571D01*
X72890476Y70666666D01*
X72938095Y70857142D01*
X72985714Y70952380D01*
X73033333Y71000000D01*
X73128571Y71047619D01*
X73795238Y71047619D02*
X74414285Y71047619D01*
X74080952Y70666666D01*
X74223809Y70666666D01*
X74319047Y70619047D01*
X74366666Y70571428D01*
X74414285Y70476190D01*
X74414285Y70238095D01*
X74366666Y70142857D01*
X74319047Y70095238D01*
X74223809Y70047619D01*
X73938095Y70047619D01*
X73842857Y70095238D01*
X73795238Y70142857D01*
X93938095Y71047619D02*
X94604761Y70047619D01*
X94604761Y71047619D02*
X93938095Y70047619D01*
X95509523Y70047619D02*
X94938095Y70047619D01*
X95223809Y70047619D02*
X95223809Y71047619D01*
X95128571Y70904761D01*
X95033333Y70809523D01*
X94938095Y70761904D01*
X96128571Y71047619D02*
X96223809Y71047619D01*
X96319047Y71000000D01*
X96366666Y70952380D01*
X96414285Y70857142D01*
X96461904Y70666666D01*
X96461904Y70428571D01*
X96414285Y70238095D01*
X96366666Y70142857D01*
X96319047Y70095238D01*
X96223809Y70047619D01*
X96128571Y70047619D01*
X96033333Y70095238D01*
X95985714Y70142857D01*
X95938095Y70238095D01*
X95890476Y70428571D01*
X95890476Y70666666D01*
X95938095Y70857142D01*
X95985714Y70952380D01*
X96033333Y71000000D01*
X96128571Y71047619D01*
X97319047Y70714285D02*
X97319047Y70047619D01*
X97080952Y71095238D02*
X96842857Y70380952D01*
X97461904Y70380952D01*
X117438095Y71147619D02*
X118104761Y70147619D01*
X118104761Y71147619D02*
X117438095Y70147619D01*
X119009523Y70147619D02*
X118438095Y70147619D01*
X118723809Y70147619D02*
X118723809Y71147619D01*
X118628571Y71004761D01*
X118533333Y70909523D01*
X118438095Y70861904D01*
X119628571Y71147619D02*
X119723809Y71147619D01*
X119819047Y71100000D01*
X119866666Y71052380D01*
X119914285Y70957142D01*
X119961904Y70766666D01*
X119961904Y70528571D01*
X119914285Y70338095D01*
X119866666Y70242857D01*
X119819047Y70195238D01*
X119723809Y70147619D01*
X119628571Y70147619D01*
X119533333Y70195238D01*
X119485714Y70242857D01*
X119438095Y70338095D01*
X119390476Y70528571D01*
X119390476Y70766666D01*
X119438095Y70957142D01*
X119485714Y71052380D01*
X119533333Y71100000D01*
X119628571Y71147619D01*
X120866666Y71147619D02*
X120390476Y71147619D01*
X120342857Y70671428D01*
X120390476Y70719047D01*
X120485714Y70766666D01*
X120723809Y70766666D01*
X120819047Y70719047D01*
X120866666Y70671428D01*
X120914285Y70576190D01*
X120914285Y70338095D01*
X120866666Y70242857D01*
X120819047Y70195238D01*
X120723809Y70147619D01*
X120485714Y70147619D01*
X120390476Y70195238D01*
X120342857Y70242857D01*
X139838095Y71047619D02*
X140504761Y70047619D01*
X140504761Y71047619D02*
X139838095Y70047619D01*
X141409523Y70047619D02*
X140838095Y70047619D01*
X141123809Y70047619D02*
X141123809Y71047619D01*
X141028571Y70904761D01*
X140933333Y70809523D01*
X140838095Y70761904D01*
X142028571Y71047619D02*
X142123809Y71047619D01*
X142219047Y71000000D01*
X142266666Y70952380D01*
X142314285Y70857142D01*
X142361904Y70666666D01*
X142361904Y70428571D01*
X142314285Y70238095D01*
X142266666Y70142857D01*
X142219047Y70095238D01*
X142123809Y70047619D01*
X142028571Y70047619D01*
X141933333Y70095238D01*
X141885714Y70142857D01*
X141838095Y70238095D01*
X141790476Y70428571D01*
X141790476Y70666666D01*
X141838095Y70857142D01*
X141885714Y70952380D01*
X141933333Y71000000D01*
X142028571Y71047619D01*
X143219047Y71047619D02*
X143028571Y71047619D01*
X142933333Y71000000D01*
X142885714Y70952380D01*
X142790476Y70809523D01*
X142742857Y70619047D01*
X142742857Y70238095D01*
X142790476Y70142857D01*
X142838095Y70095238D01*
X142933333Y70047619D01*
X143123809Y70047619D01*
X143219047Y70095238D01*
X143266666Y70142857D01*
X143314285Y70238095D01*
X143314285Y70476190D01*
X143266666Y70571428D01*
X143219047Y70619047D01*
X143123809Y70666666D01*
X142933333Y70666666D01*
X142838095Y70619047D01*
X142790476Y70571428D01*
X142742857Y70476190D01*
X162838095Y71047619D02*
X163504761Y70047619D01*
X163504761Y71047619D02*
X162838095Y70047619D01*
X164409523Y70047619D02*
X163838095Y70047619D01*
X164123809Y70047619D02*
X164123809Y71047619D01*
X164028571Y70904761D01*
X163933333Y70809523D01*
X163838095Y70761904D01*
X165028571Y71047619D02*
X165123809Y71047619D01*
X165219047Y71000000D01*
X165266666Y70952380D01*
X165314285Y70857142D01*
X165361904Y70666666D01*
X165361904Y70428571D01*
X165314285Y70238095D01*
X165266666Y70142857D01*
X165219047Y70095238D01*
X165123809Y70047619D01*
X165028571Y70047619D01*
X164933333Y70095238D01*
X164885714Y70142857D01*
X164838095Y70238095D01*
X164790476Y70428571D01*
X164790476Y70666666D01*
X164838095Y70857142D01*
X164885714Y70952380D01*
X164933333Y71000000D01*
X165028571Y71047619D01*
X165695238Y71047619D02*
X166361904Y71047619D01*
X165933333Y70047619D01*
X392595238Y89571428D02*
X392738095Y89523809D01*
X392785714Y89476190D01*
X392833333Y89380952D01*
X392833333Y89238095D01*
X392785714Y89142857D01*
X392738095Y89095238D01*
X392642857Y89047619D01*
X392261904Y89047619D01*
X392261904Y90047619D01*
X392595238Y90047619D01*
X392690476Y90000000D01*
X392738095Y89952380D01*
X392785714Y89857142D01*
X392785714Y89761904D01*
X392738095Y89666666D01*
X392690476Y89619047D01*
X392595238Y89571428D01*
X392261904Y89571428D01*
X393785714Y89047619D02*
X393214285Y89047619D01*
X393500000Y89047619D02*
X393500000Y90047619D01*
X393404761Y89904761D01*
X393309523Y89809523D01*
X393214285Y89761904D01*
X303552380Y50390476D02*
X304552380Y51057142D01*
X303552380Y51057142D02*
X304552380Y50390476D01*
X303552380Y51866666D02*
X303552380Y51676190D01*
X303600000Y51580952D01*
X303647619Y51533333D01*
X303790476Y51438095D01*
X303980952Y51390476D01*
X304361904Y51390476D01*
X304457142Y51438095D01*
X304504761Y51485714D01*
X304552380Y51580952D01*
X304552380Y51771428D01*
X304504761Y51866666D01*
X304457142Y51914285D01*
X304361904Y51961904D01*
X304123809Y51961904D01*
X304028571Y51914285D01*
X303980952Y51866666D01*
X303933333Y51771428D01*
X303933333Y51580952D01*
X303980952Y51485714D01*
X304028571Y51438095D01*
X304123809Y51390476D01*
X381190476Y79547619D02*
X381857142Y78547619D01*
X381857142Y79547619D02*
X381190476Y78547619D01*
X382666666Y79214285D02*
X382666666Y78547619D01*
X382428571Y79595238D02*
X382190476Y78880952D01*
X382809523Y78880952D01*
X367190476Y79547619D02*
X367857142Y78547619D01*
X367857142Y79547619D02*
X367190476Y78547619D01*
X368142857Y79547619D02*
X368761904Y79547619D01*
X368428571Y79166666D01*
X368571428Y79166666D01*
X368666666Y79119047D01*
X368714285Y79071428D01*
X368761904Y78976190D01*
X368761904Y78738095D01*
X368714285Y78642857D01*
X368666666Y78595238D01*
X368571428Y78547619D01*
X368285714Y78547619D01*
X368190476Y78595238D01*
X368142857Y78642857D01*
X353190476Y79547619D02*
X353857142Y78547619D01*
X353857142Y79547619D02*
X353190476Y78547619D01*
X354190476Y79452380D02*
X354238095Y79500000D01*
X354333333Y79547619D01*
X354571428Y79547619D01*
X354666666Y79500000D01*
X354714285Y79452380D01*
X354761904Y79357142D01*
X354761904Y79261904D01*
X354714285Y79119047D01*
X354142857Y78547619D01*
X354761904Y78547619D01*
X246838095Y75747619D02*
X247504761Y74747619D01*
X247504761Y75747619D02*
X246838095Y74747619D01*
X248409523Y74747619D02*
X247838095Y74747619D01*
X248123809Y74747619D02*
X248123809Y75747619D01*
X248028571Y75604761D01*
X247933333Y75509523D01*
X247838095Y75461904D01*
X249028571Y75747619D02*
X249123809Y75747619D01*
X249219047Y75700000D01*
X249266666Y75652380D01*
X249314285Y75557142D01*
X249361904Y75366666D01*
X249361904Y75128571D01*
X249314285Y74938095D01*
X249266666Y74842857D01*
X249219047Y74795238D01*
X249123809Y74747619D01*
X249028571Y74747619D01*
X248933333Y74795238D01*
X248885714Y74842857D01*
X248838095Y74938095D01*
X248790476Y75128571D01*
X248790476Y75366666D01*
X248838095Y75557142D01*
X248885714Y75652380D01*
X248933333Y75700000D01*
X249028571Y75747619D01*
X249838095Y74747619D02*
X250028571Y74747619D01*
X250123809Y74795238D01*
X250171428Y74842857D01*
X250266666Y74985714D01*
X250314285Y75176190D01*
X250314285Y75557142D01*
X250266666Y75652380D01*
X250219047Y75700000D01*
X250123809Y75747619D01*
X249933333Y75747619D01*
X249838095Y75700000D01*
X249790476Y75652380D01*
X249742857Y75557142D01*
X249742857Y75319047D01*
X249790476Y75223809D01*
X249838095Y75176190D01*
X249933333Y75128571D01*
X250123809Y75128571D01*
X250219047Y75176190D01*
X250266666Y75223809D01*
X250314285Y75319047D01*
X281238095Y79047619D02*
X281904761Y78047619D01*
X281904761Y79047619D02*
X281238095Y78047619D01*
X282809523Y78047619D02*
X282238095Y78047619D01*
X282523809Y78047619D02*
X282523809Y79047619D01*
X282428571Y78904761D01*
X282333333Y78809523D01*
X282238095Y78761904D01*
X283761904Y78047619D02*
X283190476Y78047619D01*
X283476190Y78047619D02*
X283476190Y79047619D01*
X283380952Y78904761D01*
X283285714Y78809523D01*
X283190476Y78761904D01*
X284380952Y79047619D02*
X284476190Y79047619D01*
X284571428Y79000000D01*
X284619047Y78952380D01*
X284666666Y78857142D01*
X284714285Y78666666D01*
X284714285Y78428571D01*
X284666666Y78238095D01*
X284619047Y78142857D01*
X284571428Y78095238D01*
X284476190Y78047619D01*
X284380952Y78047619D01*
X284285714Y78095238D01*
X284238095Y78142857D01*
X284190476Y78238095D01*
X284142857Y78428571D01*
X284142857Y78666666D01*
X284190476Y78857142D01*
X284238095Y78952380D01*
X284285714Y79000000D01*
X284380952Y79047619D01*
X295238095Y79047619D02*
X295904761Y78047619D01*
X295904761Y79047619D02*
X295238095Y78047619D01*
X296809523Y78047619D02*
X296238095Y78047619D01*
X296523809Y78047619D02*
X296523809Y79047619D01*
X296428571Y78904761D01*
X296333333Y78809523D01*
X296238095Y78761904D01*
X297761904Y78047619D02*
X297190476Y78047619D01*
X297476190Y78047619D02*
X297476190Y79047619D01*
X297380952Y78904761D01*
X297285714Y78809523D01*
X297190476Y78761904D01*
X298714285Y78047619D02*
X298142857Y78047619D01*
X298428571Y78047619D02*
X298428571Y79047619D01*
X298333333Y78904761D01*
X298238095Y78809523D01*
X298142857Y78761904D01*
X309238095Y79047619D02*
X309904761Y78047619D01*
X309904761Y79047619D02*
X309238095Y78047619D01*
X310809523Y78047619D02*
X310238095Y78047619D01*
X310523809Y78047619D02*
X310523809Y79047619D01*
X310428571Y78904761D01*
X310333333Y78809523D01*
X310238095Y78761904D01*
X311761904Y78047619D02*
X311190476Y78047619D01*
X311476190Y78047619D02*
X311476190Y79047619D01*
X311380952Y78904761D01*
X311285714Y78809523D01*
X311190476Y78761904D01*
X312142857Y78952380D02*
X312190476Y79000000D01*
X312285714Y79047619D01*
X312523809Y79047619D01*
X312619047Y79000000D01*
X312666666Y78952380D01*
X312714285Y78857142D01*
X312714285Y78761904D01*
X312666666Y78619047D01*
X312095238Y78047619D01*
X312714285Y78047619D01*
X323238095Y79047619D02*
X323904761Y78047619D01*
X323904761Y79047619D02*
X323238095Y78047619D01*
X324809523Y78047619D02*
X324238095Y78047619D01*
X324523809Y78047619D02*
X324523809Y79047619D01*
X324428571Y78904761D01*
X324333333Y78809523D01*
X324238095Y78761904D01*
X325761904Y78047619D02*
X325190476Y78047619D01*
X325476190Y78047619D02*
X325476190Y79047619D01*
X325380952Y78904761D01*
X325285714Y78809523D01*
X325190476Y78761904D01*
X326095238Y79047619D02*
X326714285Y79047619D01*
X326380952Y78666666D01*
X326523809Y78666666D01*
X326619047Y78619047D01*
X326666666Y78571428D01*
X326714285Y78476190D01*
X326714285Y78238095D01*
X326666666Y78142857D01*
X326619047Y78095238D01*
X326523809Y78047619D01*
X326238095Y78047619D01*
X326142857Y78095238D01*
X326095238Y78142857D01*
X88452380Y54638095D02*
X89452380Y55304761D01*
X88452380Y55304761D02*
X89452380Y54638095D01*
X89452380Y56209523D02*
X89452380Y55638095D01*
X89452380Y55923809D02*
X88452380Y55923809D01*
X88595238Y55828571D01*
X88690476Y55733333D01*
X88738095Y55638095D01*
X89452380Y57161904D02*
X89452380Y56590476D01*
X89452380Y56876190D02*
X88452380Y56876190D01*
X88595238Y56780952D01*
X88690476Y56685714D01*
X88738095Y56590476D01*
X88785714Y58019047D02*
X89452380Y58019047D01*
X88404761Y57780952D02*
X89119047Y57542857D01*
X89119047Y58161904D01*
X47152380Y54738095D02*
X48152380Y55404761D01*
X47152380Y55404761D02*
X48152380Y54738095D01*
X48152380Y56309523D02*
X48152380Y55738095D01*
X48152380Y56023809D02*
X47152380Y56023809D01*
X47295238Y55928571D01*
X47390476Y55833333D01*
X47438095Y55738095D01*
X48152380Y57261904D02*
X48152380Y56690476D01*
X48152380Y56976190D02*
X47152380Y56976190D01*
X47295238Y56880952D01*
X47390476Y56785714D01*
X47438095Y56690476D01*
X47152380Y58166666D02*
X47152380Y57690476D01*
X47628571Y57642857D01*
X47580952Y57690476D01*
X47533333Y57785714D01*
X47533333Y58023809D01*
X47580952Y58119047D01*
X47628571Y58166666D01*
X47723809Y58214285D01*
X47961904Y58214285D01*
X48057142Y58166666D01*
X48104761Y58119047D01*
X48152380Y58023809D01*
X48152380Y57785714D01*
X48104761Y57690476D01*
X48057142Y57642857D01*
X339190476Y79547619D02*
X339857142Y78547619D01*
X339857142Y79547619D02*
X339190476Y78547619D01*
X340761904Y78547619D02*
X340190476Y78547619D01*
X340476190Y78547619D02*
X340476190Y79547619D01*
X340380952Y79404761D01*
X340285714Y79309523D01*
X340190476Y79261904D01*
X353990476Y52147619D02*
X354657142Y51147619D01*
X354657142Y52147619D02*
X353990476Y51147619D01*
X355514285Y52147619D02*
X355038095Y52147619D01*
X354990476Y51671428D01*
X355038095Y51719047D01*
X355133333Y51766666D01*
X355371428Y51766666D01*
X355466666Y51719047D01*
X355514285Y51671428D01*
X355561904Y51576190D01*
X355561904Y51338095D01*
X355514285Y51242857D01*
X355466666Y51195238D01*
X355371428Y51147619D01*
X355133333Y51147619D01*
X355038095Y51195238D01*
X354990476Y51242857D01*
X276104761Y84714285D02*
X276152380Y84857142D01*
X276152380Y85095238D01*
X276104761Y85190476D01*
X276057142Y85238095D01*
X275961904Y85285714D01*
X275866666Y85285714D01*
X275771428Y85238095D01*
X275723809Y85190476D01*
X275676190Y85095238D01*
X275628571Y84904761D01*
X275580952Y84809523D01*
X275533333Y84761904D01*
X275438095Y84714285D01*
X275342857Y84714285D01*
X275247619Y84761904D01*
X275200000Y84809523D01*
X275152380Y84904761D01*
X275152380Y85142857D01*
X275200000Y85285714D01*
X275152380Y85619047D02*
X276152380Y85857142D01*
X275438095Y86047619D01*
X276152380Y86238095D01*
X275152380Y86476190D01*
X276152380Y87380952D02*
X276152380Y86809523D01*
X276152380Y87095238D02*
X275152380Y87095238D01*
X275295238Y87000000D01*
X275390476Y86904761D01*
X275438095Y86809523D01*
X275152380Y88000000D02*
X275152380Y88095238D01*
X275200000Y88190476D01*
X275247619Y88238095D01*
X275342857Y88285714D01*
X275533333Y88333333D01*
X275771428Y88333333D01*
X275961904Y88285714D01*
X276057142Y88238095D01*
X276104761Y88190476D01*
X276152380Y88095238D01*
X276152380Y88000000D01*
X276104761Y87904761D01*
X276057142Y87857142D01*
X275961904Y87809523D01*
X275771428Y87761904D01*
X275533333Y87761904D01*
X275342857Y87809523D01*
X275247619Y87857142D01*
X275200000Y87904761D01*
X275152380Y88000000D01*
X276152380Y89285714D02*
X276152380Y88714285D01*
X276152380Y89000000D02*
X275152380Y89000000D01*
X275295238Y88904761D01*
X275390476Y88809523D01*
X275438095Y88714285D01*
M02*
