G04 #@! TF.GenerationSoftware,KiCad,Pcbnew,(5.1.5-0-10_14)*
G04 #@! TF.CreationDate,2020-05-18T15:20:50+02:00*
G04 #@! TF.ProjectId,AddOnB,4164644f-6e42-42e6-9b69-6361645f7063,rev?*
G04 #@! TF.SameCoordinates,Original*
G04 #@! TF.FileFunction,Legend,Bot*
G04 #@! TF.FilePolarity,Positive*
%FSLAX46Y46*%
G04 Gerber Fmt 4.6, Leading zero omitted, Abs format (unit mm)*
G04 Created by KiCad (PCBNEW (5.1.5-0-10_14)) date 2020-05-18 15:20:50*
%MOMM*%
%LPD*%
G04 APERTURE LIST*
%ADD10C,0.150000*%
%ADD11C,0.010000*%
%ADD12C,0.120000*%
G04 APERTURE END LIST*
D10*
X6000000Y45000000D02*
X6000000Y90000000D01*
X397000000Y45000000D02*
X6000000Y45000000D01*
X397000000Y90000000D02*
X397000000Y45000000D01*
X6000000Y90000000D02*
X397000000Y90000000D01*
D11*
G36*
X378875570Y52935152D02*
G01*
X378876189Y52848069D01*
X379327914Y52389109D01*
X379779639Y51930148D01*
X379779968Y51719529D01*
X379780297Y51508911D01*
X380055390Y51508911D01*
X380062478Y51455470D01*
X380065162Y51431112D01*
X380069687Y51385241D01*
X380075809Y51320595D01*
X380083288Y51239909D01*
X380091881Y51145919D01*
X380101346Y51041363D01*
X380111442Y50928975D01*
X380121926Y50811493D01*
X380132556Y50691652D01*
X380143091Y50572189D01*
X380153287Y50455841D01*
X380162905Y50345343D01*
X380171700Y50243431D01*
X380179432Y50152842D01*
X380185858Y50076313D01*
X380190737Y50016579D01*
X380193825Y49976376D01*
X380194883Y49958441D01*
X380194882Y49958356D01*
X380187173Y49943965D01*
X380164019Y49914252D01*
X380125105Y49868869D01*
X380070116Y49807471D01*
X379998736Y49729712D01*
X379910651Y49635246D01*
X379805546Y49523728D01*
X379683105Y49394812D01*
X379648690Y49358713D01*
X379102863Y48786584D01*
X379191119Y48698564D01*
X379262515Y48776242D01*
X379288634Y48804314D01*
X379329434Y48847726D01*
X379382223Y48903634D01*
X379444309Y48969192D01*
X379513000Y49041559D01*
X379585604Y49117888D01*
X379629040Y49163476D01*
X379710584Y49248881D01*
X379776496Y49317290D01*
X379828456Y49369947D01*
X379868145Y49408095D01*
X379897243Y49432980D01*
X379917431Y49445844D01*
X379930390Y49447932D01*
X379937800Y49440487D01*
X379941342Y49424754D01*
X379942697Y49401977D01*
X379942879Y49395761D01*
X379952297Y49352939D01*
X379975503Y49301181D01*
X380007864Y49248672D01*
X380044748Y49203597D01*
X380059507Y49189672D01*
X380135233Y49140953D01*
X380223692Y49113694D01*
X380301900Y49107227D01*
X380390532Y49119424D01*
X380472388Y49155187D01*
X380544836Y49213278D01*
X380558203Y49227738D01*
X380607082Y49283267D01*
X381452674Y49283267D01*
X381452674Y49107227D01*
X381679010Y49107227D01*
X381679010Y49189469D01*
X381681850Y49245614D01*
X381691393Y49284584D01*
X381702991Y49305781D01*
X381711277Y49320948D01*
X381718373Y49342938D01*
X381724748Y49375013D01*
X381730872Y49420431D01*
X381737216Y49482452D01*
X381744250Y49564338D01*
X381749066Y49625254D01*
X381771161Y49910657D01*
X382313565Y49361195D01*
X382411637Y49261772D01*
X382505784Y49166185D01*
X382594285Y49076190D01*
X382675420Y48993543D01*
X382747469Y48919999D01*
X382808712Y48857316D01*
X382857427Y48807248D01*
X382891896Y48771552D01*
X382910379Y48752005D01*
X382940743Y48721056D01*
X382966071Y48699470D01*
X382979695Y48692277D01*
X382997095Y48700703D01*
X383022460Y48721755D01*
X383031058Y48730329D01*
X383067514Y48768380D01*
X382866802Y48972342D01*
X382815596Y49024301D01*
X382749569Y49091180D01*
X382671618Y49170050D01*
X382584638Y49257986D01*
X382491526Y49352059D01*
X382395179Y49449342D01*
X382298492Y49546907D01*
X382229134Y49616855D01*
X382123703Y49723450D01*
X382035129Y49813693D01*
X381962281Y49888808D01*
X381904023Y49950014D01*
X381859225Y49998534D01*
X381837021Y50023871D01*
X381658724Y50023871D01*
X381636401Y49738445D01*
X381629669Y49654781D01*
X381623157Y49578273D01*
X381617234Y49512919D01*
X381612268Y49462719D01*
X381608629Y49431671D01*
X381607458Y49424727D01*
X381600838Y49396435D01*
X380651364Y49396435D01*
X380645026Y49475394D01*
X380625890Y49568685D01*
X380585846Y49651209D01*
X380527418Y49719962D01*
X380453129Y49771937D01*
X380369748Y49803137D01*
X380342698Y49817772D01*
X380329156Y49849181D01*
X380328872Y49850566D01*
X380327247Y49863826D01*
X380329256Y49877405D01*
X380336858Y49893819D01*
X380352016Y49915589D01*
X380376688Y49945233D01*
X380412836Y49985268D01*
X380462420Y50038215D01*
X380527401Y50106591D01*
X380531599Y50110995D01*
X380601493Y50184389D01*
X380675800Y50262563D01*
X380749414Y50340136D01*
X380817229Y50411725D01*
X380874140Y50471949D01*
X380886832Y50485413D01*
X380935487Y50536180D01*
X380978709Y50579625D01*
X381013395Y50612759D01*
X381036444Y50632595D01*
X381044182Y50636954D01*
X381055722Y50627830D01*
X381082710Y50602800D01*
X381123021Y50563948D01*
X381174529Y50513357D01*
X381235109Y50453112D01*
X381302636Y50385296D01*
X381357826Y50329435D01*
X381658724Y50023871D01*
X381837021Y50023871D01*
X381826751Y50035589D01*
X381805471Y50062401D01*
X381794251Y50080192D01*
X381791754Y50088430D01*
X381792700Y50106410D01*
X381795573Y50147108D01*
X381800187Y50208181D01*
X381806358Y50287287D01*
X381813898Y50382086D01*
X381822621Y50490233D01*
X381832343Y50609388D01*
X381842876Y50737209D01*
X381851365Y50839365D01*
X381899396Y51415326D01*
X381775805Y51415326D01*
X381775273Y51402896D01*
X381772769Y51367890D01*
X381768496Y51312785D01*
X381762653Y51240057D01*
X381755443Y51152186D01*
X381747066Y51051649D01*
X381737723Y50940923D01*
X381728758Y50835795D01*
X381718602Y50716517D01*
X381709142Y50603920D01*
X381700596Y50500695D01*
X381693179Y50409527D01*
X381687108Y50333105D01*
X381682601Y50274117D01*
X381679873Y50235251D01*
X381679116Y50220156D01*
X381677935Y50210762D01*
X381673256Y50207034D01*
X381663276Y50210529D01*
X381646190Y50222801D01*
X381620196Y50245406D01*
X381583490Y50279900D01*
X381534267Y50327838D01*
X381470726Y50390776D01*
X381403305Y50458032D01*
X381127601Y50733523D01*
X381129533Y50735594D01*
X380947290Y50735594D01*
X380938984Y50724220D01*
X380915733Y50697437D01*
X380879865Y50657708D01*
X380833713Y50607493D01*
X380779606Y50549254D01*
X380719874Y50485453D01*
X380656848Y50418551D01*
X380592858Y50351010D01*
X380530236Y50285290D01*
X380471310Y50223854D01*
X380418412Y50169163D01*
X380373872Y50123678D01*
X380340020Y50089862D01*
X380319188Y50070174D01*
X380313506Y50066163D01*
X380311634Y50079109D01*
X380307746Y50114866D01*
X380302057Y50171196D01*
X380294781Y50245860D01*
X380286131Y50336620D01*
X380276322Y50441238D01*
X380265566Y50557474D01*
X380254079Y50683092D01*
X380244907Y50784382D01*
X380233174Y50915721D01*
X380222335Y51039448D01*
X380212570Y51153319D01*
X380204063Y51255089D01*
X380196995Y51342513D01*
X380191549Y51413347D01*
X380187908Y51465347D01*
X380186253Y51496268D01*
X380186442Y51504297D01*
X380196334Y51497146D01*
X380221524Y51474159D01*
X380259810Y51437561D01*
X380308989Y51389578D01*
X380366861Y51332434D01*
X380431222Y51268353D01*
X380499871Y51199562D01*
X380570605Y51128284D01*
X380641222Y51056745D01*
X380709520Y50987170D01*
X380773296Y50921783D01*
X380830350Y50862809D01*
X380878478Y50812473D01*
X380915478Y50773001D01*
X380939148Y50746617D01*
X380947290Y50735594D01*
X381129533Y50735594D01*
X381230409Y50843705D01*
X381282768Y50899623D01*
X381341535Y50962052D01*
X381404385Y51028557D01*
X381468995Y51096702D01*
X381533042Y51164052D01*
X381594203Y51228172D01*
X381650153Y51286628D01*
X381698570Y51336982D01*
X381737130Y51376802D01*
X381763509Y51403650D01*
X381775384Y51415092D01*
X381775805Y51415326D01*
X381899396Y51415326D01*
X381911401Y51559274D01*
X382511938Y52190842D01*
X383112475Y52822411D01*
X383112034Y52910685D01*
X383111592Y52998960D01*
X383014583Y52895334D01*
X382960291Y52837537D01*
X382896192Y52769632D01*
X382824016Y52693428D01*
X382745492Y52610731D01*
X382662349Y52523347D01*
X382576319Y52433085D01*
X382489130Y52341750D01*
X382402513Y52251151D01*
X382318197Y52163093D01*
X382237912Y52079385D01*
X382163387Y52001833D01*
X382096354Y51932243D01*
X382038541Y51872424D01*
X381991679Y51824182D01*
X381957496Y51789324D01*
X381937724Y51769657D01*
X381933390Y51765884D01*
X381933092Y51779008D01*
X381934731Y51812611D01*
X381938023Y51862120D01*
X381942682Y51922963D01*
X381944682Y51947268D01*
X381959577Y52125049D01*
X381842955Y52125049D01*
X381836934Y52096757D01*
X381833863Y52074382D01*
X381829548Y52032283D01*
X381824488Y51975822D01*
X381819181Y51910365D01*
X381817344Y51886138D01*
X381811927Y51816579D01*
X381806459Y51751982D01*
X381801488Y51698452D01*
X381797561Y51662090D01*
X381796675Y51655491D01*
X381793334Y51641944D01*
X381786101Y51626086D01*
X381773440Y51606139D01*
X381753811Y51580327D01*
X381725678Y51546871D01*
X381687502Y51503993D01*
X381637746Y51449917D01*
X381574871Y51382864D01*
X381497341Y51301057D01*
X381418251Y51218050D01*
X381339564Y51135906D01*
X381266112Y51059831D01*
X381199724Y50991675D01*
X381142227Y50933288D01*
X381095451Y50886519D01*
X381061224Y50853218D01*
X381041373Y50835233D01*
X381037140Y50832558D01*
X381026003Y50842259D01*
X380999971Y50867559D01*
X380961570Y50905918D01*
X380913328Y50954800D01*
X380857770Y51011666D01*
X380817592Y51053094D01*
X380607831Y51270000D01*
X381226337Y51270000D01*
X381226337Y51508911D01*
X380471881Y51508911D01*
X380471881Y51402458D01*
X380333565Y51540346D01*
X380235447Y51638160D01*
X380044357Y51638160D01*
X380042529Y51622730D01*
X380033277Y51614133D01*
X380010950Y51610387D01*
X379969895Y51609511D01*
X379962624Y51609505D01*
X379880891Y51609505D01*
X379880891Y51828828D01*
X379962624Y51747821D01*
X380008730Y51698572D01*
X380036306Y51660841D01*
X380044357Y51638160D01*
X380235447Y51638160D01*
X380195248Y51678234D01*
X380195248Y51801048D01*
X380194863Y51857550D01*
X380193100Y51893495D01*
X380189050Y51913470D01*
X380181801Y51922063D01*
X380170870Y51923861D01*
X380158712Y51926502D01*
X380149727Y51937088D01*
X380142826Y51959619D01*
X380136924Y51998091D01*
X380130935Y52056502D01*
X380129013Y52077896D01*
X380124852Y52125049D01*
X381842955Y52125049D01*
X381959577Y52125049D01*
X382119109Y52125049D01*
X382119109Y52238218D01*
X382051314Y52238218D01*
X382011662Y52239304D01*
X381990116Y52244546D01*
X381987480Y52247666D01*
X381848616Y52247666D01*
X381841308Y52240538D01*
X381815993Y52238338D01*
X381798908Y52238218D01*
X381741881Y52238218D01*
X381529221Y52238218D01*
X380114698Y52238218D01*
X380162542Y52287214D01*
X380236850Y52347676D01*
X380328816Y52394309D01*
X380439998Y52427751D01*
X380550471Y52446247D01*
X380622773Y52454878D01*
X380622773Y52363960D01*
X381201188Y52363960D01*
X381201188Y52467107D01*
X381286065Y52458504D01*
X381345368Y52451244D01*
X381408551Y52441621D01*
X381446386Y52434748D01*
X381521832Y52419593D01*
X381525526Y52328905D01*
X381529221Y52238218D01*
X381741881Y52238218D01*
X381741881Y52288515D01*
X381743544Y52320024D01*
X381747697Y52337537D01*
X381749371Y52338812D01*
X381767987Y52330746D01*
X381795183Y52311180D01*
X381822448Y52287056D01*
X381841267Y52265318D01*
X381842943Y52262492D01*
X381848616Y52247666D01*
X381987480Y52247666D01*
X381979662Y52256919D01*
X381975442Y52270396D01*
X381958219Y52305373D01*
X381925138Y52347421D01*
X381881893Y52390644D01*
X381834174Y52429146D01*
X381802830Y52449199D01*
X381767123Y52471149D01*
X381748819Y52489589D01*
X381742388Y52511332D01*
X381741894Y52524282D01*
X381741894Y52527425D01*
X381100594Y52527425D01*
X381100594Y52464554D01*
X380723367Y52464554D01*
X380723367Y52527425D01*
X381100594Y52527425D01*
X381741894Y52527425D01*
X381741881Y52565148D01*
X381636048Y52565148D01*
X381587355Y52563971D01*
X381549405Y52560835D01*
X381528308Y52556329D01*
X381526023Y52554505D01*
X381512641Y52551705D01*
X381480074Y52552852D01*
X381433916Y52557607D01*
X381402376Y52561997D01*
X381345188Y52570622D01*
X381292886Y52578409D01*
X381253582Y52584153D01*
X381242055Y52585785D01*
X381211937Y52595112D01*
X381201188Y52609728D01*
X381197920Y52615680D01*
X381186230Y52620222D01*
X381163288Y52623530D01*
X381126265Y52625785D01*
X381072332Y52627166D01*
X380998660Y52627850D01*
X380911980Y52628020D01*
X380819471Y52627923D01*
X380749094Y52627470D01*
X380697836Y52626410D01*
X380662680Y52624497D01*
X380640611Y52621481D01*
X380628615Y52617115D01*
X380623676Y52611151D01*
X380622773Y52604216D01*
X380615079Y52582205D01*
X380589879Y52569679D01*
X380543991Y52565212D01*
X380535736Y52565148D01*
X380458027Y52557132D01*
X380369767Y52535064D01*
X380278915Y52501916D01*
X380193430Y52460661D01*
X380121274Y52414269D01*
X380111928Y52406918D01*
X380081467Y52383002D01*
X380063428Y52373424D01*
X380050831Y52376520D01*
X380037900Y52389296D01*
X379999707Y52414322D01*
X379950002Y52423929D01*
X379896476Y52418933D01*
X379846822Y52400149D01*
X379808733Y52368394D01*
X379805975Y52364703D01*
X379777474Y52305425D01*
X379772172Y52244066D01*
X379789482Y52185573D01*
X379828820Y52134896D01*
X379833630Y52130711D01*
X379861560Y52110833D01*
X379889898Y52102079D01*
X379929737Y52101447D01*
X379939689Y52102008D01*
X379978668Y52103438D01*
X379998746Y52100161D01*
X380006015Y52090272D01*
X380006760Y52081039D01*
X380008284Y52054256D01*
X380012065Y52013975D01*
X380014782Y51989876D01*
X380018723Y51951599D01*
X380017084Y51932004D01*
X380007579Y51924842D01*
X379990649Y51923861D01*
X379980608Y51927099D01*
X379964410Y51937580D01*
X379940855Y51956452D01*
X379908743Y51984865D01*
X379866872Y52023965D01*
X379814043Y52074903D01*
X379749055Y52138827D01*
X379670709Y52216886D01*
X379577803Y52310228D01*
X379469137Y52420002D01*
X379416769Y52473048D01*
X378874951Y53022233D01*
X378875570Y52935152D01*
G37*
X378875570Y52935152D02*
X378876189Y52848069D01*
X379327914Y52389109D01*
X379779639Y51930148D01*
X379779968Y51719529D01*
X379780297Y51508911D01*
X380055390Y51508911D01*
X380062478Y51455470D01*
X380065162Y51431112D01*
X380069687Y51385241D01*
X380075809Y51320595D01*
X380083288Y51239909D01*
X380091881Y51145919D01*
X380101346Y51041363D01*
X380111442Y50928975D01*
X380121926Y50811493D01*
X380132556Y50691652D01*
X380143091Y50572189D01*
X380153287Y50455841D01*
X380162905Y50345343D01*
X380171700Y50243431D01*
X380179432Y50152842D01*
X380185858Y50076313D01*
X380190737Y50016579D01*
X380193825Y49976376D01*
X380194883Y49958441D01*
X380194882Y49958356D01*
X380187173Y49943965D01*
X380164019Y49914252D01*
X380125105Y49868869D01*
X380070116Y49807471D01*
X379998736Y49729712D01*
X379910651Y49635246D01*
X379805546Y49523728D01*
X379683105Y49394812D01*
X379648690Y49358713D01*
X379102863Y48786584D01*
X379191119Y48698564D01*
X379262515Y48776242D01*
X379288634Y48804314D01*
X379329434Y48847726D01*
X379382223Y48903634D01*
X379444309Y48969192D01*
X379513000Y49041559D01*
X379585604Y49117888D01*
X379629040Y49163476D01*
X379710584Y49248881D01*
X379776496Y49317290D01*
X379828456Y49369947D01*
X379868145Y49408095D01*
X379897243Y49432980D01*
X379917431Y49445844D01*
X379930390Y49447932D01*
X379937800Y49440487D01*
X379941342Y49424754D01*
X379942697Y49401977D01*
X379942879Y49395761D01*
X379952297Y49352939D01*
X379975503Y49301181D01*
X380007864Y49248672D01*
X380044748Y49203597D01*
X380059507Y49189672D01*
X380135233Y49140953D01*
X380223692Y49113694D01*
X380301900Y49107227D01*
X380390532Y49119424D01*
X380472388Y49155187D01*
X380544836Y49213278D01*
X380558203Y49227738D01*
X380607082Y49283267D01*
X381452674Y49283267D01*
X381452674Y49107227D01*
X381679010Y49107227D01*
X381679010Y49189469D01*
X381681850Y49245614D01*
X381691393Y49284584D01*
X381702991Y49305781D01*
X381711277Y49320948D01*
X381718373Y49342938D01*
X381724748Y49375013D01*
X381730872Y49420431D01*
X381737216Y49482452D01*
X381744250Y49564338D01*
X381749066Y49625254D01*
X381771161Y49910657D01*
X382313565Y49361195D01*
X382411637Y49261772D01*
X382505784Y49166185D01*
X382594285Y49076190D01*
X382675420Y48993543D01*
X382747469Y48919999D01*
X382808712Y48857316D01*
X382857427Y48807248D01*
X382891896Y48771552D01*
X382910379Y48752005D01*
X382940743Y48721056D01*
X382966071Y48699470D01*
X382979695Y48692277D01*
X382997095Y48700703D01*
X383022460Y48721755D01*
X383031058Y48730329D01*
X383067514Y48768380D01*
X382866802Y48972342D01*
X382815596Y49024301D01*
X382749569Y49091180D01*
X382671618Y49170050D01*
X382584638Y49257986D01*
X382491526Y49352059D01*
X382395179Y49449342D01*
X382298492Y49546907D01*
X382229134Y49616855D01*
X382123703Y49723450D01*
X382035129Y49813693D01*
X381962281Y49888808D01*
X381904023Y49950014D01*
X381859225Y49998534D01*
X381837021Y50023871D01*
X381658724Y50023871D01*
X381636401Y49738445D01*
X381629669Y49654781D01*
X381623157Y49578273D01*
X381617234Y49512919D01*
X381612268Y49462719D01*
X381608629Y49431671D01*
X381607458Y49424727D01*
X381600838Y49396435D01*
X380651364Y49396435D01*
X380645026Y49475394D01*
X380625890Y49568685D01*
X380585846Y49651209D01*
X380527418Y49719962D01*
X380453129Y49771937D01*
X380369748Y49803137D01*
X380342698Y49817772D01*
X380329156Y49849181D01*
X380328872Y49850566D01*
X380327247Y49863826D01*
X380329256Y49877405D01*
X380336858Y49893819D01*
X380352016Y49915589D01*
X380376688Y49945233D01*
X380412836Y49985268D01*
X380462420Y50038215D01*
X380527401Y50106591D01*
X380531599Y50110995D01*
X380601493Y50184389D01*
X380675800Y50262563D01*
X380749414Y50340136D01*
X380817229Y50411725D01*
X380874140Y50471949D01*
X380886832Y50485413D01*
X380935487Y50536180D01*
X380978709Y50579625D01*
X381013395Y50612759D01*
X381036444Y50632595D01*
X381044182Y50636954D01*
X381055722Y50627830D01*
X381082710Y50602800D01*
X381123021Y50563948D01*
X381174529Y50513357D01*
X381235109Y50453112D01*
X381302636Y50385296D01*
X381357826Y50329435D01*
X381658724Y50023871D01*
X381837021Y50023871D01*
X381826751Y50035589D01*
X381805471Y50062401D01*
X381794251Y50080192D01*
X381791754Y50088430D01*
X381792700Y50106410D01*
X381795573Y50147108D01*
X381800187Y50208181D01*
X381806358Y50287287D01*
X381813898Y50382086D01*
X381822621Y50490233D01*
X381832343Y50609388D01*
X381842876Y50737209D01*
X381851365Y50839365D01*
X381899396Y51415326D01*
X381775805Y51415326D01*
X381775273Y51402896D01*
X381772769Y51367890D01*
X381768496Y51312785D01*
X381762653Y51240057D01*
X381755443Y51152186D01*
X381747066Y51051649D01*
X381737723Y50940923D01*
X381728758Y50835795D01*
X381718602Y50716517D01*
X381709142Y50603920D01*
X381700596Y50500695D01*
X381693179Y50409527D01*
X381687108Y50333105D01*
X381682601Y50274117D01*
X381679873Y50235251D01*
X381679116Y50220156D01*
X381677935Y50210762D01*
X381673256Y50207034D01*
X381663276Y50210529D01*
X381646190Y50222801D01*
X381620196Y50245406D01*
X381583490Y50279900D01*
X381534267Y50327838D01*
X381470726Y50390776D01*
X381403305Y50458032D01*
X381127601Y50733523D01*
X381129533Y50735594D01*
X380947290Y50735594D01*
X380938984Y50724220D01*
X380915733Y50697437D01*
X380879865Y50657708D01*
X380833713Y50607493D01*
X380779606Y50549254D01*
X380719874Y50485453D01*
X380656848Y50418551D01*
X380592858Y50351010D01*
X380530236Y50285290D01*
X380471310Y50223854D01*
X380418412Y50169163D01*
X380373872Y50123678D01*
X380340020Y50089862D01*
X380319188Y50070174D01*
X380313506Y50066163D01*
X380311634Y50079109D01*
X380307746Y50114866D01*
X380302057Y50171196D01*
X380294781Y50245860D01*
X380286131Y50336620D01*
X380276322Y50441238D01*
X380265566Y50557474D01*
X380254079Y50683092D01*
X380244907Y50784382D01*
X380233174Y50915721D01*
X380222335Y51039448D01*
X380212570Y51153319D01*
X380204063Y51255089D01*
X380196995Y51342513D01*
X380191549Y51413347D01*
X380187908Y51465347D01*
X380186253Y51496268D01*
X380186442Y51504297D01*
X380196334Y51497146D01*
X380221524Y51474159D01*
X380259810Y51437561D01*
X380308989Y51389578D01*
X380366861Y51332434D01*
X380431222Y51268353D01*
X380499871Y51199562D01*
X380570605Y51128284D01*
X380641222Y51056745D01*
X380709520Y50987170D01*
X380773296Y50921783D01*
X380830350Y50862809D01*
X380878478Y50812473D01*
X380915478Y50773001D01*
X380939148Y50746617D01*
X380947290Y50735594D01*
X381129533Y50735594D01*
X381230409Y50843705D01*
X381282768Y50899623D01*
X381341535Y50962052D01*
X381404385Y51028557D01*
X381468995Y51096702D01*
X381533042Y51164052D01*
X381594203Y51228172D01*
X381650153Y51286628D01*
X381698570Y51336982D01*
X381737130Y51376802D01*
X381763509Y51403650D01*
X381775384Y51415092D01*
X381775805Y51415326D01*
X381899396Y51415326D01*
X381911401Y51559274D01*
X382511938Y52190842D01*
X383112475Y52822411D01*
X383112034Y52910685D01*
X383111592Y52998960D01*
X383014583Y52895334D01*
X382960291Y52837537D01*
X382896192Y52769632D01*
X382824016Y52693428D01*
X382745492Y52610731D01*
X382662349Y52523347D01*
X382576319Y52433085D01*
X382489130Y52341750D01*
X382402513Y52251151D01*
X382318197Y52163093D01*
X382237912Y52079385D01*
X382163387Y52001833D01*
X382096354Y51932243D01*
X382038541Y51872424D01*
X381991679Y51824182D01*
X381957496Y51789324D01*
X381937724Y51769657D01*
X381933390Y51765884D01*
X381933092Y51779008D01*
X381934731Y51812611D01*
X381938023Y51862120D01*
X381942682Y51922963D01*
X381944682Y51947268D01*
X381959577Y52125049D01*
X381842955Y52125049D01*
X381836934Y52096757D01*
X381833863Y52074382D01*
X381829548Y52032283D01*
X381824488Y51975822D01*
X381819181Y51910365D01*
X381817344Y51886138D01*
X381811927Y51816579D01*
X381806459Y51751982D01*
X381801488Y51698452D01*
X381797561Y51662090D01*
X381796675Y51655491D01*
X381793334Y51641944D01*
X381786101Y51626086D01*
X381773440Y51606139D01*
X381753811Y51580327D01*
X381725678Y51546871D01*
X381687502Y51503993D01*
X381637746Y51449917D01*
X381574871Y51382864D01*
X381497341Y51301057D01*
X381418251Y51218050D01*
X381339564Y51135906D01*
X381266112Y51059831D01*
X381199724Y50991675D01*
X381142227Y50933288D01*
X381095451Y50886519D01*
X381061224Y50853218D01*
X381041373Y50835233D01*
X381037140Y50832558D01*
X381026003Y50842259D01*
X380999971Y50867559D01*
X380961570Y50905918D01*
X380913328Y50954800D01*
X380857770Y51011666D01*
X380817592Y51053094D01*
X380607831Y51270000D01*
X381226337Y51270000D01*
X381226337Y51508911D01*
X380471881Y51508911D01*
X380471881Y51402458D01*
X380333565Y51540346D01*
X380235447Y51638160D01*
X380044357Y51638160D01*
X380042529Y51622730D01*
X380033277Y51614133D01*
X380010950Y51610387D01*
X379969895Y51609511D01*
X379962624Y51609505D01*
X379880891Y51609505D01*
X379880891Y51828828D01*
X379962624Y51747821D01*
X380008730Y51698572D01*
X380036306Y51660841D01*
X380044357Y51638160D01*
X380235447Y51638160D01*
X380195248Y51678234D01*
X380195248Y51801048D01*
X380194863Y51857550D01*
X380193100Y51893495D01*
X380189050Y51913470D01*
X380181801Y51922063D01*
X380170870Y51923861D01*
X380158712Y51926502D01*
X380149727Y51937088D01*
X380142826Y51959619D01*
X380136924Y51998091D01*
X380130935Y52056502D01*
X380129013Y52077896D01*
X380124852Y52125049D01*
X381842955Y52125049D01*
X381959577Y52125049D01*
X382119109Y52125049D01*
X382119109Y52238218D01*
X382051314Y52238218D01*
X382011662Y52239304D01*
X381990116Y52244546D01*
X381987480Y52247666D01*
X381848616Y52247666D01*
X381841308Y52240538D01*
X381815993Y52238338D01*
X381798908Y52238218D01*
X381741881Y52238218D01*
X381529221Y52238218D01*
X380114698Y52238218D01*
X380162542Y52287214D01*
X380236850Y52347676D01*
X380328816Y52394309D01*
X380439998Y52427751D01*
X380550471Y52446247D01*
X380622773Y52454878D01*
X380622773Y52363960D01*
X381201188Y52363960D01*
X381201188Y52467107D01*
X381286065Y52458504D01*
X381345368Y52451244D01*
X381408551Y52441621D01*
X381446386Y52434748D01*
X381521832Y52419593D01*
X381525526Y52328905D01*
X381529221Y52238218D01*
X381741881Y52238218D01*
X381741881Y52288515D01*
X381743544Y52320024D01*
X381747697Y52337537D01*
X381749371Y52338812D01*
X381767987Y52330746D01*
X381795183Y52311180D01*
X381822448Y52287056D01*
X381841267Y52265318D01*
X381842943Y52262492D01*
X381848616Y52247666D01*
X381987480Y52247666D01*
X381979662Y52256919D01*
X381975442Y52270396D01*
X381958219Y52305373D01*
X381925138Y52347421D01*
X381881893Y52390644D01*
X381834174Y52429146D01*
X381802830Y52449199D01*
X381767123Y52471149D01*
X381748819Y52489589D01*
X381742388Y52511332D01*
X381741894Y52524282D01*
X381741894Y52527425D01*
X381100594Y52527425D01*
X381100594Y52464554D01*
X380723367Y52464554D01*
X380723367Y52527425D01*
X381100594Y52527425D01*
X381741894Y52527425D01*
X381741881Y52565148D01*
X381636048Y52565148D01*
X381587355Y52563971D01*
X381549405Y52560835D01*
X381528308Y52556329D01*
X381526023Y52554505D01*
X381512641Y52551705D01*
X381480074Y52552852D01*
X381433916Y52557607D01*
X381402376Y52561997D01*
X381345188Y52570622D01*
X381292886Y52578409D01*
X381253582Y52584153D01*
X381242055Y52585785D01*
X381211937Y52595112D01*
X381201188Y52609728D01*
X381197920Y52615680D01*
X381186230Y52620222D01*
X381163288Y52623530D01*
X381126265Y52625785D01*
X381072332Y52627166D01*
X380998660Y52627850D01*
X380911980Y52628020D01*
X380819471Y52627923D01*
X380749094Y52627470D01*
X380697836Y52626410D01*
X380662680Y52624497D01*
X380640611Y52621481D01*
X380628615Y52617115D01*
X380623676Y52611151D01*
X380622773Y52604216D01*
X380615079Y52582205D01*
X380589879Y52569679D01*
X380543991Y52565212D01*
X380535736Y52565148D01*
X380458027Y52557132D01*
X380369767Y52535064D01*
X380278915Y52501916D01*
X380193430Y52460661D01*
X380121274Y52414269D01*
X380111928Y52406918D01*
X380081467Y52383002D01*
X380063428Y52373424D01*
X380050831Y52376520D01*
X380037900Y52389296D01*
X379999707Y52414322D01*
X379950002Y52423929D01*
X379896476Y52418933D01*
X379846822Y52400149D01*
X379808733Y52368394D01*
X379805975Y52364703D01*
X379777474Y52305425D01*
X379772172Y52244066D01*
X379789482Y52185573D01*
X379828820Y52134896D01*
X379833630Y52130711D01*
X379861560Y52110833D01*
X379889898Y52102079D01*
X379929737Y52101447D01*
X379939689Y52102008D01*
X379978668Y52103438D01*
X379998746Y52100161D01*
X380006015Y52090272D01*
X380006760Y52081039D01*
X380008284Y52054256D01*
X380012065Y52013975D01*
X380014782Y51989876D01*
X380018723Y51951599D01*
X380017084Y51932004D01*
X380007579Y51924842D01*
X379990649Y51923861D01*
X379980608Y51927099D01*
X379964410Y51937580D01*
X379940855Y51956452D01*
X379908743Y51984865D01*
X379866872Y52023965D01*
X379814043Y52074903D01*
X379749055Y52138827D01*
X379670709Y52216886D01*
X379577803Y52310228D01*
X379469137Y52420002D01*
X379416769Y52473048D01*
X378874951Y53022233D01*
X378875570Y52935152D01*
G36*
X379252178Y46982178D02*
G01*
X382772971Y46982178D01*
X382772971Y47849802D01*
X379252178Y47849802D01*
X379252178Y46982178D01*
G37*
X379252178Y46982178D02*
X382772971Y46982178D01*
X382772971Y47849802D01*
X379252178Y47849802D01*
X379252178Y46982178D01*
G36*
X385766665Y52083594D02*
G01*
X386061015Y52083305D01*
X386162990Y52082880D01*
X386243645Y52081592D01*
X386308112Y52079086D01*
X386361524Y52075004D01*
X386409012Y52068992D01*
X386455711Y52060692D01*
X386489611Y52053564D01*
X386719451Y51990246D01*
X386938768Y51903988D01*
X387145799Y51795991D01*
X387338780Y51667456D01*
X387515951Y51519582D01*
X387675547Y51353570D01*
X387815807Y51170621D01*
X387840446Y51133551D01*
X387892244Y51046598D01*
X387945145Y50945180D01*
X387996164Y50836134D01*
X388042318Y50726298D01*
X388080625Y50622512D01*
X388108102Y50531612D01*
X388114196Y50506016D01*
X388123561Y50463021D01*
X386361979Y50463021D01*
X386361979Y49523750D01*
X388123561Y49523750D01*
X388114196Y49480756D01*
X388089136Y49389389D01*
X388051648Y49283531D01*
X388004815Y49170122D01*
X387951718Y49056108D01*
X387895440Y48948431D01*
X387839064Y48854033D01*
X387829608Y48839681D01*
X387685866Y48648209D01*
X387524667Y48476370D01*
X387347010Y48324837D01*
X387153891Y48194281D01*
X386946309Y48085376D01*
X386725262Y47998794D01*
X386491745Y47935206D01*
X386486044Y47933979D01*
X386433462Y47923378D01*
X386385042Y47915487D01*
X386335391Y47909922D01*
X386279119Y47906298D01*
X386210832Y47904231D01*
X386125141Y47903336D01*
X386054401Y47903201D01*
X385766667Y47903224D01*
X385766667Y46970521D01*
X386054401Y46972238D01*
X386146376Y46973291D01*
X386236109Y46975234D01*
X386317842Y46977874D01*
X386385821Y46981019D01*
X386434289Y46984474D01*
X386441354Y46985211D01*
X386666763Y47021406D01*
X386898614Y47078624D01*
X387130575Y47154716D01*
X387356315Y47247535D01*
X387569501Y47354932D01*
X387625303Y47386865D01*
X387788844Y47492333D01*
X387954786Y47616455D01*
X388116573Y47753569D01*
X388267650Y47898018D01*
X388401460Y48044141D01*
X388438007Y48088393D01*
X388599327Y48309988D01*
X388740652Y48547622D01*
X388860975Y48798911D01*
X388959289Y49061468D01*
X389034588Y49332908D01*
X389085865Y49610845D01*
X389088410Y49629584D01*
X389095359Y49701249D01*
X389100292Y49791954D01*
X389103208Y49895077D01*
X389104105Y50003991D01*
X389102981Y50112075D01*
X389099834Y50212702D01*
X389094662Y50299248D01*
X389088617Y50357188D01*
X389036661Y50642106D01*
X388961431Y50917646D01*
X388863609Y51182191D01*
X388743879Y51434123D01*
X388602924Y51671823D01*
X388441427Y51893675D01*
X388438007Y51897921D01*
X388257720Y52100879D01*
X388058578Y52287344D01*
X387843027Y52455786D01*
X387613515Y52604675D01*
X387372491Y52732483D01*
X387122400Y52837678D01*
X386865691Y52918733D01*
X386765381Y52943231D01*
X386641470Y52969062D01*
X386526300Y52988408D01*
X386412480Y53002019D01*
X386292615Y53010644D01*
X386159313Y53015032D01*
X386047787Y53015992D01*
X385766667Y53016250D01*
X385766665Y52083594D01*
G37*
X385766665Y52083594D02*
X386061015Y52083305D01*
X386162990Y52082880D01*
X386243645Y52081592D01*
X386308112Y52079086D01*
X386361524Y52075004D01*
X386409012Y52068992D01*
X386455711Y52060692D01*
X386489611Y52053564D01*
X386719451Y51990246D01*
X386938768Y51903988D01*
X387145799Y51795991D01*
X387338780Y51667456D01*
X387515951Y51519582D01*
X387675547Y51353570D01*
X387815807Y51170621D01*
X387840446Y51133551D01*
X387892244Y51046598D01*
X387945145Y50945180D01*
X387996164Y50836134D01*
X388042318Y50726298D01*
X388080625Y50622512D01*
X388108102Y50531612D01*
X388114196Y50506016D01*
X388123561Y50463021D01*
X386361979Y50463021D01*
X386361979Y49523750D01*
X388123561Y49523750D01*
X388114196Y49480756D01*
X388089136Y49389389D01*
X388051648Y49283531D01*
X388004815Y49170122D01*
X387951718Y49056108D01*
X387895440Y48948431D01*
X387839064Y48854033D01*
X387829608Y48839681D01*
X387685866Y48648209D01*
X387524667Y48476370D01*
X387347010Y48324837D01*
X387153891Y48194281D01*
X386946309Y48085376D01*
X386725262Y47998794D01*
X386491745Y47935206D01*
X386486044Y47933979D01*
X386433462Y47923378D01*
X386385042Y47915487D01*
X386335391Y47909922D01*
X386279119Y47906298D01*
X386210832Y47904231D01*
X386125141Y47903336D01*
X386054401Y47903201D01*
X385766667Y47903224D01*
X385766667Y46970521D01*
X386054401Y46972238D01*
X386146376Y46973291D01*
X386236109Y46975234D01*
X386317842Y46977874D01*
X386385821Y46981019D01*
X386434289Y46984474D01*
X386441354Y46985211D01*
X386666763Y47021406D01*
X386898614Y47078624D01*
X387130575Y47154716D01*
X387356315Y47247535D01*
X387569501Y47354932D01*
X387625303Y47386865D01*
X387788844Y47492333D01*
X387954786Y47616455D01*
X388116573Y47753569D01*
X388267650Y47898018D01*
X388401460Y48044141D01*
X388438007Y48088393D01*
X388599327Y48309988D01*
X388740652Y48547622D01*
X388860975Y48798911D01*
X388959289Y49061468D01*
X389034588Y49332908D01*
X389085865Y49610845D01*
X389088410Y49629584D01*
X389095359Y49701249D01*
X389100292Y49791954D01*
X389103208Y49895077D01*
X389104105Y50003991D01*
X389102981Y50112075D01*
X389099834Y50212702D01*
X389094662Y50299248D01*
X389088617Y50357188D01*
X389036661Y50642106D01*
X388961431Y50917646D01*
X388863609Y51182191D01*
X388743879Y51434123D01*
X388602924Y51671823D01*
X388441427Y51893675D01*
X388438007Y51897921D01*
X388257720Y52100879D01*
X388058578Y52287344D01*
X387843027Y52455786D01*
X387613515Y52604675D01*
X387372491Y52732483D01*
X387122400Y52837678D01*
X386865691Y52918733D01*
X386765381Y52943231D01*
X386641470Y52969062D01*
X386526300Y52988408D01*
X386412480Y53002019D01*
X386292615Y53010644D01*
X386159313Y53015032D01*
X386047787Y53015992D01*
X385766667Y53016250D01*
X385766665Y52083594D01*
G36*
X391060813Y53015685D02*
G01*
X390996330Y53014025D01*
X390949697Y53011055D01*
X390929349Y53007912D01*
X390899583Y52999935D01*
X390899583Y52079470D01*
X391109119Y52086741D01*
X391318953Y52086477D01*
X391513141Y52069618D01*
X391697580Y52034925D01*
X391878168Y51981161D01*
X392060803Y51907089D01*
X392136511Y51871121D01*
X392317062Y51772023D01*
X392479702Y51660674D01*
X392632099Y51531592D01*
X392691378Y51474295D01*
X392848015Y51299139D01*
X392983527Y51108480D01*
X393097234Y50903606D01*
X393188456Y50685807D01*
X393256515Y50456371D01*
X393276674Y50363803D01*
X393288823Y50279756D01*
X393296934Y50176766D01*
X393301015Y50062035D01*
X393301074Y49942766D01*
X393297116Y49826163D01*
X393289149Y49719429D01*
X393277181Y49629767D01*
X393275943Y49622969D01*
X393220089Y49394241D01*
X393140701Y49176035D01*
X393039069Y48969823D01*
X392916478Y48777072D01*
X392774219Y48599252D01*
X392613579Y48437832D01*
X392435845Y48294281D01*
X392242307Y48170069D01*
X392034252Y48066664D01*
X391850763Y47997465D01*
X391747623Y47965882D01*
X391652893Y47941871D01*
X391560130Y47924537D01*
X391462894Y47912984D01*
X391354742Y47906320D01*
X391229233Y47903648D01*
X391174089Y47903496D01*
X390899583Y47903814D01*
X390899583Y46986836D01*
X390929349Y46978859D01*
X390954749Y46975862D01*
X391001744Y46973797D01*
X391065490Y46972618D01*
X391141142Y46972277D01*
X391223854Y46972726D01*
X391308783Y46973917D01*
X391391083Y46975803D01*
X391465909Y46978337D01*
X391528417Y46981469D01*
X391573762Y46985153D01*
X391574271Y46985211D01*
X391687271Y47001659D01*
X391814872Y47026294D01*
X391947338Y47056917D01*
X392074934Y47091333D01*
X392156016Y47116464D01*
X392420553Y47217502D01*
X392671277Y47340487D01*
X392907195Y47484223D01*
X393127320Y47647513D01*
X393330660Y47829162D01*
X393516227Y48027974D01*
X393683030Y48242753D01*
X393830079Y48472302D01*
X393956385Y48715427D01*
X394060958Y48970930D01*
X394142808Y49237617D01*
X394200945Y49514291D01*
X394214162Y49603125D01*
X394222618Y49687893D01*
X394228437Y49791882D01*
X394231618Y49907991D01*
X394232161Y50029113D01*
X394230066Y50148146D01*
X394225334Y50257986D01*
X394217963Y50351528D01*
X394214162Y50383646D01*
X394163241Y50666294D01*
X394087795Y50939386D01*
X393988081Y51202286D01*
X393864354Y51454363D01*
X393716872Y51694983D01*
X393638048Y51805782D01*
X393459770Y52023277D01*
X393263767Y52221656D01*
X393051402Y52400118D01*
X392824041Y52557867D01*
X392583047Y52694103D01*
X392329787Y52808029D01*
X392065623Y52898847D01*
X391791921Y52965759D01*
X391601120Y52997187D01*
X391548646Y53002510D01*
X391479782Y53007070D01*
X391399419Y53010788D01*
X391312450Y53013587D01*
X391223764Y53015388D01*
X391138255Y53016113D01*
X391060813Y53015685D01*
G37*
X391060813Y53015685D02*
X390996330Y53014025D01*
X390949697Y53011055D01*
X390929349Y53007912D01*
X390899583Y52999935D01*
X390899583Y52079470D01*
X391109119Y52086741D01*
X391318953Y52086477D01*
X391513141Y52069618D01*
X391697580Y52034925D01*
X391878168Y51981161D01*
X392060803Y51907089D01*
X392136511Y51871121D01*
X392317062Y51772023D01*
X392479702Y51660674D01*
X392632099Y51531592D01*
X392691378Y51474295D01*
X392848015Y51299139D01*
X392983527Y51108480D01*
X393097234Y50903606D01*
X393188456Y50685807D01*
X393256515Y50456371D01*
X393276674Y50363803D01*
X393288823Y50279756D01*
X393296934Y50176766D01*
X393301015Y50062035D01*
X393301074Y49942766D01*
X393297116Y49826163D01*
X393289149Y49719429D01*
X393277181Y49629767D01*
X393275943Y49622969D01*
X393220089Y49394241D01*
X393140701Y49176035D01*
X393039069Y48969823D01*
X392916478Y48777072D01*
X392774219Y48599252D01*
X392613579Y48437832D01*
X392435845Y48294281D01*
X392242307Y48170069D01*
X392034252Y48066664D01*
X391850763Y47997465D01*
X391747623Y47965882D01*
X391652893Y47941871D01*
X391560130Y47924537D01*
X391462894Y47912984D01*
X391354742Y47906320D01*
X391229233Y47903648D01*
X391174089Y47903496D01*
X390899583Y47903814D01*
X390899583Y46986836D01*
X390929349Y46978859D01*
X390954749Y46975862D01*
X391001744Y46973797D01*
X391065490Y46972618D01*
X391141142Y46972277D01*
X391223854Y46972726D01*
X391308783Y46973917D01*
X391391083Y46975803D01*
X391465909Y46978337D01*
X391528417Y46981469D01*
X391573762Y46985153D01*
X391574271Y46985211D01*
X391687271Y47001659D01*
X391814872Y47026294D01*
X391947338Y47056917D01*
X392074934Y47091333D01*
X392156016Y47116464D01*
X392420553Y47217502D01*
X392671277Y47340487D01*
X392907195Y47484223D01*
X393127320Y47647513D01*
X393330660Y47829162D01*
X393516227Y48027974D01*
X393683030Y48242753D01*
X393830079Y48472302D01*
X393956385Y48715427D01*
X394060958Y48970930D01*
X394142808Y49237617D01*
X394200945Y49514291D01*
X394214162Y49603125D01*
X394222618Y49687893D01*
X394228437Y49791882D01*
X394231618Y49907991D01*
X394232161Y50029113D01*
X394230066Y50148146D01*
X394225334Y50257986D01*
X394217963Y50351528D01*
X394214162Y50383646D01*
X394163241Y50666294D01*
X394087795Y50939386D01*
X393988081Y51202286D01*
X393864354Y51454363D01*
X393716872Y51694983D01*
X393638048Y51805782D01*
X393459770Y52023277D01*
X393263767Y52221656D01*
X393051402Y52400118D01*
X392824041Y52557867D01*
X392583047Y52694103D01*
X392329787Y52808029D01*
X392065623Y52898847D01*
X391791921Y52965759D01*
X391601120Y52997187D01*
X391548646Y53002510D01*
X391479782Y53007070D01*
X391399419Y53010788D01*
X391312450Y53013587D01*
X391223764Y53015388D01*
X391138255Y53016113D01*
X391060813Y53015685D01*
D10*
X385800000Y73225000D02*
X387000000Y73225000D01*
X387000000Y74975000D02*
X385800000Y74975000D01*
D12*
X384572500Y83265000D02*
X382287500Y83265000D01*
X384572500Y84735000D02*
X384572500Y83265000D01*
X382287500Y84735000D02*
X384572500Y84735000D01*
D10*
X386900000Y75250000D02*
X385900000Y75250000D01*
X385900000Y76950000D02*
X386900000Y76950000D01*
X382400000Y74950000D02*
X383400000Y74950000D01*
X383400000Y73250000D02*
X382400000Y73250000D01*
X377150000Y77500000D02*
X377150000Y76500000D01*
X375450000Y76500000D02*
X375450000Y77500000D01*
X378950000Y75550000D02*
X378950000Y78450000D01*
X378950000Y78450000D02*
X379450000Y78450000D01*
X379450000Y78450000D02*
X379450000Y75550000D01*
X379450000Y75550000D02*
X378950000Y75550000D01*
X379000000Y75300000D02*
G75*
G03X379000000Y75300000I-100000J0D01*
G01*
X383400000Y79250000D02*
X382400000Y79250000D01*
X382400000Y80950000D02*
X383400000Y80950000D01*
X387000000Y78975000D02*
X385800000Y78975000D01*
X385800000Y77225000D02*
X387000000Y77225000D01*
X382300000Y81225000D02*
X383500000Y81225000D01*
X383500000Y82975000D02*
X382300000Y82975000D01*
X378800000Y73225000D02*
X380000000Y73225000D01*
X380000000Y74975000D02*
X378800000Y74975000D01*
X383500000Y76975000D02*
X382300000Y76975000D01*
X382300000Y75225000D02*
X383500000Y75225000D01*
X382300000Y77225000D02*
X383500000Y77225000D01*
X383500000Y78975000D02*
X382300000Y78975000D01*
X361450000Y76500000D02*
X361450000Y77500000D01*
X363150000Y77500000D02*
X363150000Y76500000D01*
X365000000Y75300000D02*
G75*
G03X365000000Y75300000I-100000J0D01*
G01*
X365450000Y75550000D02*
X364950000Y75550000D01*
X365450000Y78450000D02*
X365450000Y75550000D01*
X364950000Y78450000D02*
X365450000Y78450000D01*
X364950000Y75550000D02*
X364950000Y78450000D01*
X368400000Y80950000D02*
X369400000Y80950000D01*
X369400000Y79250000D02*
X368400000Y79250000D01*
X371800000Y77225000D02*
X373000000Y77225000D01*
X373000000Y78975000D02*
X371800000Y78975000D01*
X369500000Y82975000D02*
X368300000Y82975000D01*
X368300000Y81225000D02*
X369500000Y81225000D01*
X366000000Y74975000D02*
X364800000Y74975000D01*
X364800000Y73225000D02*
X366000000Y73225000D01*
X368300000Y75225000D02*
X369500000Y75225000D01*
X369500000Y76975000D02*
X368300000Y76975000D01*
X369500000Y78975000D02*
X368300000Y78975000D01*
X368300000Y77225000D02*
X369500000Y77225000D01*
X373000000Y74975000D02*
X371800000Y74975000D01*
X371800000Y73225000D02*
X373000000Y73225000D01*
D12*
X368287500Y84735000D02*
X370572500Y84735000D01*
X370572500Y84735000D02*
X370572500Y83265000D01*
X370572500Y83265000D02*
X368287500Y83265000D01*
D10*
X371900000Y76950000D02*
X372900000Y76950000D01*
X372900000Y75250000D02*
X371900000Y75250000D01*
X369400000Y73250000D02*
X368400000Y73250000D01*
X368400000Y74950000D02*
X369400000Y74950000D01*
X350950000Y75550000D02*
X350950000Y78450000D01*
X350950000Y78450000D02*
X351450000Y78450000D01*
X351450000Y78450000D02*
X351450000Y75550000D01*
X351450000Y75550000D02*
X350950000Y75550000D01*
X351000000Y75300000D02*
G75*
G03X351000000Y75300000I-100000J0D01*
G01*
X355400000Y79250000D02*
X354400000Y79250000D01*
X354400000Y80950000D02*
X355400000Y80950000D01*
X359000000Y78975000D02*
X357800000Y78975000D01*
X357800000Y77225000D02*
X359000000Y77225000D01*
X354300000Y81225000D02*
X355500000Y81225000D01*
X355500000Y82975000D02*
X354300000Y82975000D01*
X350800000Y73225000D02*
X352000000Y73225000D01*
X352000000Y74975000D02*
X350800000Y74975000D01*
X355500000Y76975000D02*
X354300000Y76975000D01*
X354300000Y75225000D02*
X355500000Y75225000D01*
X354300000Y77225000D02*
X355500000Y77225000D01*
X355500000Y78975000D02*
X354300000Y78975000D01*
X357800000Y73225000D02*
X359000000Y73225000D01*
X359000000Y74975000D02*
X357800000Y74975000D01*
D12*
X356572500Y83265000D02*
X354287500Y83265000D01*
X356572500Y84735000D02*
X356572500Y83265000D01*
X354287500Y84735000D02*
X356572500Y84735000D01*
D10*
X349150000Y77500000D02*
X349150000Y76500000D01*
X347450000Y76500000D02*
X347450000Y77500000D01*
X354400000Y74950000D02*
X355400000Y74950000D01*
X355400000Y73250000D02*
X354400000Y73250000D01*
X358900000Y75250000D02*
X357900000Y75250000D01*
X357900000Y76950000D02*
X358900000Y76950000D01*
X15900000Y70275000D02*
X14700000Y70275000D01*
X14700000Y68525000D02*
X15900000Y68525000D01*
X18500000Y68525000D02*
X19700000Y68525000D01*
X19700000Y70275000D02*
X18500000Y70275000D01*
X38900000Y70275000D02*
X37700000Y70275000D01*
X37700000Y68525000D02*
X38900000Y68525000D01*
X41500000Y68525000D02*
X42700000Y68525000D01*
X42700000Y70275000D02*
X41500000Y70275000D01*
X61325000Y69500000D02*
X61325000Y68300000D01*
X63075000Y68300000D02*
X63075000Y69500000D01*
X66875000Y68300000D02*
X66875000Y69500000D01*
X65125000Y69500000D02*
X65125000Y68300000D01*
X84325000Y69300000D02*
X84325000Y68100000D01*
X86075000Y68100000D02*
X86075000Y69300000D01*
X89875000Y68100000D02*
X89875000Y69300000D01*
X88125000Y69300000D02*
X88125000Y68100000D01*
X107325000Y69300000D02*
X107325000Y68100000D01*
X109075000Y68100000D02*
X109075000Y69300000D01*
X112875000Y68100000D02*
X112875000Y69300000D01*
X111125000Y69300000D02*
X111125000Y68100000D01*
X130325000Y69300000D02*
X130325000Y68100000D01*
X132075000Y68100000D02*
X132075000Y69300000D01*
X135875000Y68100000D02*
X135875000Y69300000D01*
X134125000Y69300000D02*
X134125000Y68100000D01*
X153325000Y69300000D02*
X153325000Y68100000D01*
X155075000Y68100000D02*
X155075000Y69300000D01*
X158875000Y68100000D02*
X158875000Y69300000D01*
X157125000Y69300000D02*
X157125000Y68100000D01*
X176325000Y69300000D02*
X176325000Y68100000D01*
X178075000Y68100000D02*
X178075000Y69300000D01*
X181875000Y68100000D02*
X181875000Y69300000D01*
X180125000Y69300000D02*
X180125000Y68100000D01*
X195350000Y73700000D02*
X195350000Y74700000D01*
X197050000Y74700000D02*
X197050000Y73700000D01*
X202850000Y73700000D02*
X202850000Y74700000D01*
X204550000Y74700000D02*
X204550000Y73700000D01*
X211050000Y74700000D02*
X211050000Y73700000D01*
X209350000Y73700000D02*
X209350000Y74700000D01*
X218550000Y74700000D02*
X218550000Y73700000D01*
X216850000Y73700000D02*
X216850000Y74700000D01*
X223350000Y73700000D02*
X223350000Y74700000D01*
X225050000Y74700000D02*
X225050000Y73700000D01*
X232550000Y74700000D02*
X232550000Y73700000D01*
X230850000Y73700000D02*
X230850000Y74700000D01*
X237350000Y73700000D02*
X237350000Y74700000D01*
X239050000Y74700000D02*
X239050000Y73700000D01*
X246550000Y74700000D02*
X246550000Y73700000D01*
X244850000Y73700000D02*
X244850000Y74700000D01*
X288900000Y81150000D02*
X287900000Y81150000D01*
X287900000Y82850000D02*
X288900000Y82850000D01*
X302900000Y81150000D02*
X301900000Y81150000D01*
X301900000Y82850000D02*
X302900000Y82850000D01*
X316900000Y81150000D02*
X315900000Y81150000D01*
X315900000Y82850000D02*
X316900000Y82850000D01*
X330900000Y81150000D02*
X329900000Y81150000D01*
X329900000Y82850000D02*
X330900000Y82850000D01*
X328900000Y77750000D02*
X327900000Y77750000D01*
X327900000Y79450000D02*
X328900000Y79450000D01*
X288900000Y83150000D02*
X287900000Y83150000D01*
X287900000Y84850000D02*
X288900000Y84850000D01*
X302900000Y83150000D02*
X301900000Y83150000D01*
X301900000Y84850000D02*
X302900000Y84850000D01*
X316900000Y83150000D02*
X315900000Y83150000D01*
X315900000Y84850000D02*
X316900000Y84850000D01*
X330900000Y83150000D02*
X329900000Y83150000D01*
X329900000Y84850000D02*
X330900000Y84850000D01*
X199075000Y73600000D02*
X199075000Y74800000D01*
X197325000Y74800000D02*
X197325000Y73600000D01*
X193325000Y74800000D02*
X193325000Y73600000D01*
X195075000Y73600000D02*
X195075000Y74800000D01*
X204825000Y74800000D02*
X204825000Y73600000D01*
X206575000Y73600000D02*
X206575000Y74800000D01*
X202575000Y73600000D02*
X202575000Y74800000D01*
X200825000Y74800000D02*
X200825000Y73600000D01*
X211325000Y74800000D02*
X211325000Y73600000D01*
X213075000Y73600000D02*
X213075000Y74800000D01*
X209075000Y73600000D02*
X209075000Y74800000D01*
X207325000Y74800000D02*
X207325000Y73600000D01*
X220575000Y73600000D02*
X220575000Y74800000D01*
X218825000Y74800000D02*
X218825000Y73600000D01*
X214825000Y74800000D02*
X214825000Y73600000D01*
X216575000Y73600000D02*
X216575000Y74800000D01*
X227075000Y73600000D02*
X227075000Y74800000D01*
X225325000Y74800000D02*
X225325000Y73600000D01*
X221325000Y74800000D02*
X221325000Y73600000D01*
X223075000Y73600000D02*
X223075000Y74800000D01*
X232825000Y74800000D02*
X232825000Y73600000D01*
X234575000Y73600000D02*
X234575000Y74800000D01*
X230575000Y73600000D02*
X230575000Y74800000D01*
X228825000Y74800000D02*
X228825000Y73600000D01*
X239325000Y74800000D02*
X239325000Y73600000D01*
X241075000Y73600000D02*
X241075000Y74800000D01*
X235325000Y74800000D02*
X235325000Y73600000D01*
X237075000Y73600000D02*
X237075000Y74800000D01*
X248575000Y73600000D02*
X248575000Y74800000D01*
X246825000Y74800000D02*
X246825000Y73600000D01*
X244575000Y73600000D02*
X244575000Y74800000D01*
X242825000Y74800000D02*
X242825000Y73600000D01*
X340400000Y80950000D02*
X341400000Y80950000D01*
X341400000Y79250000D02*
X340400000Y79250000D01*
X343900000Y76950000D02*
X344900000Y76950000D01*
X344900000Y75250000D02*
X343900000Y75250000D01*
X341400000Y73250000D02*
X340400000Y73250000D01*
X340400000Y74950000D02*
X341400000Y74950000D01*
X333450000Y76500000D02*
X333450000Y77500000D01*
X335150000Y77500000D02*
X335150000Y76500000D01*
D12*
X340287500Y84735000D02*
X342572500Y84735000D01*
X342572500Y84735000D02*
X342572500Y83265000D01*
X342572500Y83265000D02*
X340287500Y83265000D01*
D10*
X337000000Y75300000D02*
G75*
G03X337000000Y75300000I-100000J0D01*
G01*
X337450000Y75550000D02*
X336950000Y75550000D01*
X337450000Y78450000D02*
X337450000Y75550000D01*
X336950000Y78450000D02*
X337450000Y78450000D01*
X336950000Y75550000D02*
X336950000Y78450000D01*
X330075000Y71725000D02*
X330050000Y71725000D01*
X330075000Y75875000D02*
X329970000Y75875000D01*
X319925000Y75875000D02*
X320030000Y75875000D01*
X319925000Y71725000D02*
X320030000Y71725000D01*
X330075000Y71725000D02*
X330075000Y75875000D01*
X319925000Y71725000D02*
X319925000Y75875000D01*
X330050000Y71725000D02*
X330050000Y70350000D01*
X341500000Y82975000D02*
X340300000Y82975000D01*
X340300000Y81225000D02*
X341500000Y81225000D01*
X343800000Y77225000D02*
X345000000Y77225000D01*
X345000000Y78975000D02*
X343800000Y78975000D01*
X345000000Y74975000D02*
X343800000Y74975000D01*
X343800000Y73225000D02*
X345000000Y73225000D01*
X341500000Y78975000D02*
X340300000Y78975000D01*
X340300000Y77225000D02*
X341500000Y77225000D01*
X340300000Y75225000D02*
X341500000Y75225000D01*
X341500000Y76975000D02*
X340300000Y76975000D01*
X338000000Y74975000D02*
X336800000Y74975000D01*
X336800000Y73225000D02*
X338000000Y73225000D01*
X279150000Y79900000D02*
X279150000Y78900000D01*
X277450000Y78900000D02*
X277450000Y79900000D01*
X291450000Y78900000D02*
X291450000Y79900000D01*
X293150000Y79900000D02*
X293150000Y78900000D01*
X307150000Y79900000D02*
X307150000Y78900000D01*
X305450000Y78900000D02*
X305450000Y79900000D01*
X319550000Y78900000D02*
X319550000Y79900000D01*
X321250000Y79900000D02*
X321250000Y78900000D01*
X279175000Y82300000D02*
X279175000Y83500000D01*
X277425000Y83500000D02*
X277425000Y82300000D01*
X291425000Y83500000D02*
X291425000Y82300000D01*
X293175000Y82300000D02*
X293175000Y83500000D01*
X307175000Y82300000D02*
X307175000Y83500000D01*
X305425000Y83500000D02*
X305425000Y82300000D01*
X319525000Y83500000D02*
X319525000Y82300000D01*
X321275000Y82300000D02*
X321275000Y83500000D01*
X307450000Y52500000D02*
X307450000Y51500000D01*
X305750000Y51500000D02*
X305750000Y52500000D01*
X294900000Y53550000D02*
X293900000Y53550000D01*
X293900000Y55250000D02*
X294900000Y55250000D01*
X294900000Y51550000D02*
X293900000Y51550000D01*
X293900000Y53250000D02*
X294900000Y53250000D01*
X312700000Y70250000D02*
X311700000Y70250000D01*
X311700000Y71950000D02*
X312700000Y71950000D01*
X302424000Y56956000D02*
X305472000Y56956000D01*
X305472000Y56956000D02*
X305472000Y49844000D01*
X305472000Y49844000D02*
X302424000Y49844000D01*
X299376000Y56956000D02*
X298614000Y56956000D01*
X298614000Y56956000D02*
X296328000Y55432000D01*
X296328000Y55432000D02*
X296328000Y51368000D01*
X296328000Y51368000D02*
X298614000Y49844000D01*
X298614000Y49844000D02*
X299376000Y49844000D01*
X314160000Y74435000D02*
G75*
G02X314160000Y73165000I0J-635000D01*
G01*
X314125000Y75875000D02*
X314270000Y75875000D01*
X314125000Y71725000D02*
X314270000Y71725000D01*
X319275000Y71725000D02*
X319130000Y71725000D01*
X319275000Y75875000D02*
X319130000Y75875000D01*
X314125000Y75875000D02*
X314125000Y71725000D01*
X319275000Y75875000D02*
X319275000Y71725000D01*
X325275000Y67700000D02*
X325275000Y68900000D01*
X323525000Y68900000D02*
X323525000Y67700000D01*
X387042857Y69547619D02*
X387376190Y70023809D01*
X387614285Y69547619D02*
X387614285Y70547619D01*
X387233333Y70547619D01*
X387138095Y70500000D01*
X387090476Y70452380D01*
X387042857Y70357142D01*
X387042857Y70214285D01*
X387090476Y70119047D01*
X387138095Y70071428D01*
X387233333Y70023809D01*
X387614285Y70023809D01*
X386661904Y70452380D02*
X386614285Y70500000D01*
X386519047Y70547619D01*
X386280952Y70547619D01*
X386185714Y70500000D01*
X386138095Y70452380D01*
X386090476Y70357142D01*
X386090476Y70261904D01*
X386138095Y70119047D01*
X386709523Y69547619D01*
X386090476Y69547619D01*
X385138095Y69547619D02*
X385709523Y69547619D01*
X385423809Y69547619D02*
X385423809Y70547619D01*
X385519047Y70404761D01*
X385614285Y70309523D01*
X385709523Y70261904D01*
X381438095Y83547619D02*
X381438095Y84547619D01*
X381200000Y84547619D01*
X381057142Y84500000D01*
X380961904Y84404761D01*
X380914285Y84309523D01*
X380866666Y84119047D01*
X380866666Y83976190D01*
X380914285Y83785714D01*
X380961904Y83690476D01*
X381057142Y83595238D01*
X381200000Y83547619D01*
X381438095Y83547619D01*
X380009523Y84214285D02*
X380009523Y83547619D01*
X380247619Y84595238D02*
X380485714Y83880952D01*
X379866666Y83880952D01*
X387042857Y70842857D02*
X387090476Y70795238D01*
X387233333Y70747619D01*
X387328571Y70747619D01*
X387471428Y70795238D01*
X387566666Y70890476D01*
X387614285Y70985714D01*
X387661904Y71176190D01*
X387661904Y71319047D01*
X387614285Y71509523D01*
X387566666Y71604761D01*
X387471428Y71700000D01*
X387328571Y71747619D01*
X387233333Y71747619D01*
X387090476Y71700000D01*
X387042857Y71652380D01*
X386090476Y70747619D02*
X386661904Y70747619D01*
X386376190Y70747619D02*
X386376190Y71747619D01*
X386471428Y71604761D01*
X386566666Y71509523D01*
X386661904Y71461904D01*
X385233333Y71414285D02*
X385233333Y70747619D01*
X385471428Y71795238D02*
X385709523Y71080952D01*
X385090476Y71080952D01*
X383642857Y69642857D02*
X383690476Y69595238D01*
X383833333Y69547619D01*
X383928571Y69547619D01*
X384071428Y69595238D01*
X384166666Y69690476D01*
X384214285Y69785714D01*
X384261904Y69976190D01*
X384261904Y70119047D01*
X384214285Y70309523D01*
X384166666Y70404761D01*
X384071428Y70500000D01*
X383928571Y70547619D01*
X383833333Y70547619D01*
X383690476Y70500000D01*
X383642857Y70452380D01*
X382690476Y69547619D02*
X383261904Y69547619D01*
X382976190Y69547619D02*
X382976190Y70547619D01*
X383071428Y70404761D01*
X383166666Y70309523D01*
X383261904Y70261904D01*
X381785714Y70547619D02*
X382261904Y70547619D01*
X382309523Y70071428D01*
X382261904Y70119047D01*
X382166666Y70166666D01*
X381928571Y70166666D01*
X381833333Y70119047D01*
X381785714Y70071428D01*
X381738095Y69976190D01*
X381738095Y69738095D01*
X381785714Y69642857D01*
X381833333Y69595238D01*
X381928571Y69547619D01*
X382166666Y69547619D01*
X382261904Y69595238D01*
X382309523Y69642857D01*
X375057142Y77642857D02*
X375104761Y77690476D01*
X375152380Y77833333D01*
X375152380Y77928571D01*
X375104761Y78071428D01*
X375009523Y78166666D01*
X374914285Y78214285D01*
X374723809Y78261904D01*
X374580952Y78261904D01*
X374390476Y78214285D01*
X374295238Y78166666D01*
X374200000Y78071428D01*
X374152380Y77928571D01*
X374152380Y77833333D01*
X374200000Y77690476D01*
X374247619Y77642857D01*
X375152380Y76690476D02*
X375152380Y77261904D01*
X375152380Y76976190D02*
X374152380Y76976190D01*
X374295238Y77071428D01*
X374390476Y77166666D01*
X374438095Y77261904D01*
X374152380Y75833333D02*
X374152380Y76023809D01*
X374200000Y76119047D01*
X374247619Y76166666D01*
X374390476Y76261904D01*
X374580952Y76309523D01*
X374961904Y76309523D01*
X375057142Y76261904D01*
X375104761Y76214285D01*
X375152380Y76119047D01*
X375152380Y75928571D01*
X375104761Y75833333D01*
X375057142Y75785714D01*
X374961904Y75738095D01*
X374723809Y75738095D01*
X374628571Y75785714D01*
X374580952Y75833333D01*
X374533333Y75928571D01*
X374533333Y76119047D01*
X374580952Y76214285D01*
X374628571Y76261904D01*
X374723809Y76309523D01*
X380176190Y78747619D02*
X380176190Y79747619D01*
X379128571Y78842857D02*
X379176190Y78795238D01*
X379319047Y78747619D01*
X379414285Y78747619D01*
X379557142Y78795238D01*
X379652380Y78890476D01*
X379700000Y78985714D01*
X379747619Y79176190D01*
X379747619Y79319047D01*
X379700000Y79509523D01*
X379652380Y79604761D01*
X379557142Y79700000D01*
X379414285Y79747619D01*
X379319047Y79747619D01*
X379176190Y79700000D01*
X379128571Y79652380D01*
X378271428Y79414285D02*
X378271428Y78747619D01*
X378509523Y79795238D02*
X378747619Y79080952D01*
X378128571Y79080952D01*
X386142857Y79142857D02*
X386190476Y79095238D01*
X386333333Y79047619D01*
X386428571Y79047619D01*
X386571428Y79095238D01*
X386666666Y79190476D01*
X386714285Y79285714D01*
X386761904Y79476190D01*
X386761904Y79619047D01*
X386714285Y79809523D01*
X386666666Y79904761D01*
X386571428Y80000000D01*
X386428571Y80047619D01*
X386333333Y80047619D01*
X386190476Y80000000D01*
X386142857Y79952380D01*
X385190476Y79047619D02*
X385761904Y79047619D01*
X385476190Y79047619D02*
X385476190Y80047619D01*
X385571428Y79904761D01*
X385666666Y79809523D01*
X385761904Y79761904D01*
X384857142Y80047619D02*
X384238095Y80047619D01*
X384571428Y79666666D01*
X384428571Y79666666D01*
X384333333Y79619047D01*
X384285714Y79571428D01*
X384238095Y79476190D01*
X384238095Y79238095D01*
X384285714Y79142857D01*
X384333333Y79095238D01*
X384428571Y79047619D01*
X384714285Y79047619D01*
X384809523Y79095238D01*
X384857142Y79142857D01*
X387042857Y71947619D02*
X387376190Y72423809D01*
X387614285Y71947619D02*
X387614285Y72947619D01*
X387233333Y72947619D01*
X387138095Y72900000D01*
X387090476Y72852380D01*
X387042857Y72757142D01*
X387042857Y72614285D01*
X387090476Y72519047D01*
X387138095Y72471428D01*
X387233333Y72423809D01*
X387614285Y72423809D01*
X386661904Y72852380D02*
X386614285Y72900000D01*
X386519047Y72947619D01*
X386280952Y72947619D01*
X386185714Y72900000D01*
X386138095Y72852380D01*
X386090476Y72757142D01*
X386090476Y72661904D01*
X386138095Y72519047D01*
X386709523Y71947619D01*
X386090476Y71947619D01*
X385471428Y72947619D02*
X385376190Y72947619D01*
X385280952Y72900000D01*
X385233333Y72852380D01*
X385185714Y72757142D01*
X385138095Y72566666D01*
X385138095Y72328571D01*
X385185714Y72138095D01*
X385233333Y72042857D01*
X385280952Y71995238D01*
X385376190Y71947619D01*
X385471428Y71947619D01*
X385566666Y71995238D01*
X385614285Y72042857D01*
X385661904Y72138095D01*
X385709523Y72328571D01*
X385709523Y72566666D01*
X385661904Y72757142D01*
X385614285Y72852380D01*
X385566666Y72900000D01*
X385471428Y72947619D01*
X380952380Y82742857D02*
X380476190Y83076190D01*
X380952380Y83314285D02*
X379952380Y83314285D01*
X379952380Y82933333D01*
X380000000Y82838095D01*
X380047619Y82790476D01*
X380142857Y82742857D01*
X380285714Y82742857D01*
X380380952Y82790476D01*
X380428571Y82838095D01*
X380476190Y82933333D01*
X380476190Y83314285D01*
X380952380Y81790476D02*
X380952380Y82361904D01*
X380952380Y82076190D02*
X379952380Y82076190D01*
X380095238Y82171428D01*
X380190476Y82266666D01*
X380238095Y82361904D01*
X380952380Y81314285D02*
X380952380Y81123809D01*
X380904761Y81028571D01*
X380857142Y80980952D01*
X380714285Y80885714D01*
X380523809Y80838095D01*
X380142857Y80838095D01*
X380047619Y80885714D01*
X380000000Y80933333D01*
X379952380Y81028571D01*
X379952380Y81219047D01*
X380000000Y81314285D01*
X380047619Y81361904D01*
X380142857Y81409523D01*
X380380952Y81409523D01*
X380476190Y81361904D01*
X380523809Y81314285D01*
X380571428Y81219047D01*
X380571428Y81028571D01*
X380523809Y80933333D01*
X380476190Y80885714D01*
X380380952Y80838095D01*
X380042857Y71947619D02*
X380376190Y72423809D01*
X380614285Y71947619D02*
X380614285Y72947619D01*
X380233333Y72947619D01*
X380138095Y72900000D01*
X380090476Y72852380D01*
X380042857Y72757142D01*
X380042857Y72614285D01*
X380090476Y72519047D01*
X380138095Y72471428D01*
X380233333Y72423809D01*
X380614285Y72423809D01*
X379661904Y72852380D02*
X379614285Y72900000D01*
X379519047Y72947619D01*
X379280952Y72947619D01*
X379185714Y72900000D01*
X379138095Y72852380D01*
X379090476Y72757142D01*
X379090476Y72661904D01*
X379138095Y72519047D01*
X379709523Y71947619D01*
X379090476Y71947619D01*
X378233333Y72614285D02*
X378233333Y71947619D01*
X378471428Y72995238D02*
X378709523Y72280952D01*
X378090476Y72280952D01*
X383542857Y70747619D02*
X383876190Y71223809D01*
X384114285Y70747619D02*
X384114285Y71747619D01*
X383733333Y71747619D01*
X383638095Y71700000D01*
X383590476Y71652380D01*
X383542857Y71557142D01*
X383542857Y71414285D01*
X383590476Y71319047D01*
X383638095Y71271428D01*
X383733333Y71223809D01*
X384114285Y71223809D01*
X383161904Y71652380D02*
X383114285Y71700000D01*
X383019047Y71747619D01*
X382780952Y71747619D01*
X382685714Y71700000D01*
X382638095Y71652380D01*
X382590476Y71557142D01*
X382590476Y71461904D01*
X382638095Y71319047D01*
X383209523Y70747619D01*
X382590476Y70747619D01*
X382257142Y71747619D02*
X381638095Y71747619D01*
X381971428Y71366666D01*
X381828571Y71366666D01*
X381733333Y71319047D01*
X381685714Y71271428D01*
X381638095Y71176190D01*
X381638095Y70938095D01*
X381685714Y70842857D01*
X381733333Y70795238D01*
X381828571Y70747619D01*
X382114285Y70747619D01*
X382209523Y70795238D01*
X382257142Y70842857D01*
X383542857Y71947619D02*
X383876190Y72423809D01*
X384114285Y71947619D02*
X384114285Y72947619D01*
X383733333Y72947619D01*
X383638095Y72900000D01*
X383590476Y72852380D01*
X383542857Y72757142D01*
X383542857Y72614285D01*
X383590476Y72519047D01*
X383638095Y72471428D01*
X383733333Y72423809D01*
X384114285Y72423809D01*
X383161904Y72852380D02*
X383114285Y72900000D01*
X383019047Y72947619D01*
X382780952Y72947619D01*
X382685714Y72900000D01*
X382638095Y72852380D01*
X382590476Y72757142D01*
X382590476Y72661904D01*
X382638095Y72519047D01*
X383209523Y71947619D01*
X382590476Y71947619D01*
X382209523Y72852380D02*
X382161904Y72900000D01*
X382066666Y72947619D01*
X381828571Y72947619D01*
X381733333Y72900000D01*
X381685714Y72852380D01*
X381638095Y72757142D01*
X381638095Y72661904D01*
X381685714Y72519047D01*
X382257142Y71947619D01*
X381638095Y71947619D01*
X361057142Y77642857D02*
X361104761Y77690476D01*
X361152380Y77833333D01*
X361152380Y77928571D01*
X361104761Y78071428D01*
X361009523Y78166666D01*
X360914285Y78214285D01*
X360723809Y78261904D01*
X360580952Y78261904D01*
X360390476Y78214285D01*
X360295238Y78166666D01*
X360200000Y78071428D01*
X360152380Y77928571D01*
X360152380Y77833333D01*
X360200000Y77690476D01*
X360247619Y77642857D01*
X361152380Y76690476D02*
X361152380Y77261904D01*
X361152380Y76976190D02*
X360152380Y76976190D01*
X360295238Y77071428D01*
X360390476Y77166666D01*
X360438095Y77261904D01*
X360247619Y76309523D02*
X360200000Y76261904D01*
X360152380Y76166666D01*
X360152380Y75928571D01*
X360200000Y75833333D01*
X360247619Y75785714D01*
X360342857Y75738095D01*
X360438095Y75738095D01*
X360580952Y75785714D01*
X361152380Y76357142D01*
X361152380Y75738095D01*
X366176190Y78747619D02*
X366176190Y79747619D01*
X365128571Y78842857D02*
X365176190Y78795238D01*
X365319047Y78747619D01*
X365414285Y78747619D01*
X365557142Y78795238D01*
X365652380Y78890476D01*
X365700000Y78985714D01*
X365747619Y79176190D01*
X365747619Y79319047D01*
X365700000Y79509523D01*
X365652380Y79604761D01*
X365557142Y79700000D01*
X365414285Y79747619D01*
X365319047Y79747619D01*
X365176190Y79700000D01*
X365128571Y79652380D01*
X364795238Y79747619D02*
X364176190Y79747619D01*
X364509523Y79366666D01*
X364366666Y79366666D01*
X364271428Y79319047D01*
X364223809Y79271428D01*
X364176190Y79176190D01*
X364176190Y78938095D01*
X364223809Y78842857D01*
X364271428Y78795238D01*
X364366666Y78747619D01*
X364652380Y78747619D01*
X364747619Y78795238D01*
X364795238Y78842857D01*
X371666666Y79142857D02*
X371714285Y79095238D01*
X371857142Y79047619D01*
X371952380Y79047619D01*
X372095238Y79095238D01*
X372190476Y79190476D01*
X372238095Y79285714D01*
X372285714Y79476190D01*
X372285714Y79619047D01*
X372238095Y79809523D01*
X372190476Y79904761D01*
X372095238Y80000000D01*
X371952380Y80047619D01*
X371857142Y80047619D01*
X371714285Y80000000D01*
X371666666Y79952380D01*
X371190476Y79047619D02*
X371000000Y79047619D01*
X370904761Y79095238D01*
X370857142Y79142857D01*
X370761904Y79285714D01*
X370714285Y79476190D01*
X370714285Y79857142D01*
X370761904Y79952380D01*
X370809523Y80000000D01*
X370904761Y80047619D01*
X371095238Y80047619D01*
X371190476Y80000000D01*
X371238095Y79952380D01*
X371285714Y79857142D01*
X371285714Y79619047D01*
X371238095Y79523809D01*
X371190476Y79476190D01*
X371095238Y79428571D01*
X370904761Y79428571D01*
X370809523Y79476190D01*
X370761904Y79523809D01*
X370714285Y79619047D01*
X373042857Y71947619D02*
X373376190Y72423809D01*
X373614285Y71947619D02*
X373614285Y72947619D01*
X373233333Y72947619D01*
X373138095Y72900000D01*
X373090476Y72852380D01*
X373042857Y72757142D01*
X373042857Y72614285D01*
X373090476Y72519047D01*
X373138095Y72471428D01*
X373233333Y72423809D01*
X373614285Y72423809D01*
X372090476Y71947619D02*
X372661904Y71947619D01*
X372376190Y71947619D02*
X372376190Y72947619D01*
X372471428Y72804761D01*
X372566666Y72709523D01*
X372661904Y72661904D01*
X371233333Y72614285D02*
X371233333Y71947619D01*
X371471428Y72995238D02*
X371709523Y72280952D01*
X371090476Y72280952D01*
X366952380Y82742857D02*
X366476190Y83076190D01*
X366952380Y83314285D02*
X365952380Y83314285D01*
X365952380Y82933333D01*
X366000000Y82838095D01*
X366047619Y82790476D01*
X366142857Y82742857D01*
X366285714Y82742857D01*
X366380952Y82790476D01*
X366428571Y82838095D01*
X366476190Y82933333D01*
X366476190Y83314285D01*
X366952380Y81790476D02*
X366952380Y82361904D01*
X366952380Y82076190D02*
X365952380Y82076190D01*
X366095238Y82171428D01*
X366190476Y82266666D01*
X366238095Y82361904D01*
X365952380Y81457142D02*
X365952380Y80838095D01*
X366333333Y81171428D01*
X366333333Y81028571D01*
X366380952Y80933333D01*
X366428571Y80885714D01*
X366523809Y80838095D01*
X366761904Y80838095D01*
X366857142Y80885714D01*
X366904761Y80933333D01*
X366952380Y81028571D01*
X366952380Y81314285D01*
X366904761Y81409523D01*
X366857142Y81457142D01*
X366042857Y71947619D02*
X366376190Y72423809D01*
X366614285Y71947619D02*
X366614285Y72947619D01*
X366233333Y72947619D01*
X366138095Y72900000D01*
X366090476Y72852380D01*
X366042857Y72757142D01*
X366042857Y72614285D01*
X366090476Y72519047D01*
X366138095Y72471428D01*
X366233333Y72423809D01*
X366614285Y72423809D01*
X365090476Y71947619D02*
X365661904Y71947619D01*
X365376190Y71947619D02*
X365376190Y72947619D01*
X365471428Y72804761D01*
X365566666Y72709523D01*
X365661904Y72661904D01*
X364519047Y72519047D02*
X364614285Y72566666D01*
X364661904Y72614285D01*
X364709523Y72709523D01*
X364709523Y72757142D01*
X364661904Y72852380D01*
X364614285Y72900000D01*
X364519047Y72947619D01*
X364328571Y72947619D01*
X364233333Y72900000D01*
X364185714Y72852380D01*
X364138095Y72757142D01*
X364138095Y72709523D01*
X364185714Y72614285D01*
X364233333Y72566666D01*
X364328571Y72519047D01*
X364519047Y72519047D01*
X364614285Y72471428D01*
X364661904Y72423809D01*
X364709523Y72328571D01*
X364709523Y72138095D01*
X364661904Y72042857D01*
X364614285Y71995238D01*
X364519047Y71947619D01*
X364328571Y71947619D01*
X364233333Y71995238D01*
X364185714Y72042857D01*
X364138095Y72138095D01*
X364138095Y72328571D01*
X364185714Y72423809D01*
X364233333Y72471428D01*
X364328571Y72519047D01*
X369542857Y70747619D02*
X369876190Y71223809D01*
X370114285Y70747619D02*
X370114285Y71747619D01*
X369733333Y71747619D01*
X369638095Y71700000D01*
X369590476Y71652380D01*
X369542857Y71557142D01*
X369542857Y71414285D01*
X369590476Y71319047D01*
X369638095Y71271428D01*
X369733333Y71223809D01*
X370114285Y71223809D01*
X368590476Y70747619D02*
X369161904Y70747619D01*
X368876190Y70747619D02*
X368876190Y71747619D01*
X368971428Y71604761D01*
X369066666Y71509523D01*
X369161904Y71461904D01*
X368257142Y71747619D02*
X367590476Y71747619D01*
X368019047Y70747619D01*
X369542857Y71947619D02*
X369876190Y72423809D01*
X370114285Y71947619D02*
X370114285Y72947619D01*
X369733333Y72947619D01*
X369638095Y72900000D01*
X369590476Y72852380D01*
X369542857Y72757142D01*
X369542857Y72614285D01*
X369590476Y72519047D01*
X369638095Y72471428D01*
X369733333Y72423809D01*
X370114285Y72423809D01*
X368590476Y71947619D02*
X369161904Y71947619D01*
X368876190Y71947619D02*
X368876190Y72947619D01*
X368971428Y72804761D01*
X369066666Y72709523D01*
X369161904Y72661904D01*
X367733333Y72947619D02*
X367923809Y72947619D01*
X368019047Y72900000D01*
X368066666Y72852380D01*
X368161904Y72709523D01*
X368209523Y72519047D01*
X368209523Y72138095D01*
X368161904Y72042857D01*
X368114285Y71995238D01*
X368019047Y71947619D01*
X367828571Y71947619D01*
X367733333Y71995238D01*
X367685714Y72042857D01*
X367638095Y72138095D01*
X367638095Y72376190D01*
X367685714Y72471428D01*
X367733333Y72519047D01*
X367828571Y72566666D01*
X368019047Y72566666D01*
X368114285Y72519047D01*
X368161904Y72471428D01*
X368209523Y72376190D01*
X373042857Y69547619D02*
X373376190Y70023809D01*
X373614285Y69547619D02*
X373614285Y70547619D01*
X373233333Y70547619D01*
X373138095Y70500000D01*
X373090476Y70452380D01*
X373042857Y70357142D01*
X373042857Y70214285D01*
X373090476Y70119047D01*
X373138095Y70071428D01*
X373233333Y70023809D01*
X373614285Y70023809D01*
X372090476Y69547619D02*
X372661904Y69547619D01*
X372376190Y69547619D02*
X372376190Y70547619D01*
X372471428Y70404761D01*
X372566666Y70309523D01*
X372661904Y70261904D01*
X371185714Y70547619D02*
X371661904Y70547619D01*
X371709523Y70071428D01*
X371661904Y70119047D01*
X371566666Y70166666D01*
X371328571Y70166666D01*
X371233333Y70119047D01*
X371185714Y70071428D01*
X371138095Y69976190D01*
X371138095Y69738095D01*
X371185714Y69642857D01*
X371233333Y69595238D01*
X371328571Y69547619D01*
X371566666Y69547619D01*
X371661904Y69595238D01*
X371709523Y69642857D01*
X367438095Y83547619D02*
X367438095Y84547619D01*
X367200000Y84547619D01*
X367057142Y84500000D01*
X366961904Y84404761D01*
X366914285Y84309523D01*
X366866666Y84119047D01*
X366866666Y83976190D01*
X366914285Y83785714D01*
X366961904Y83690476D01*
X367057142Y83595238D01*
X367200000Y83547619D01*
X367438095Y83547619D01*
X366533333Y84547619D02*
X365914285Y84547619D01*
X366247619Y84166666D01*
X366104761Y84166666D01*
X366009523Y84119047D01*
X365961904Y84071428D01*
X365914285Y83976190D01*
X365914285Y83738095D01*
X365961904Y83642857D01*
X366009523Y83595238D01*
X366104761Y83547619D01*
X366390476Y83547619D01*
X366485714Y83595238D01*
X366533333Y83642857D01*
X373042857Y70842857D02*
X373090476Y70795238D01*
X373233333Y70747619D01*
X373328571Y70747619D01*
X373471428Y70795238D01*
X373566666Y70890476D01*
X373614285Y70985714D01*
X373661904Y71176190D01*
X373661904Y71319047D01*
X373614285Y71509523D01*
X373566666Y71604761D01*
X373471428Y71700000D01*
X373328571Y71747619D01*
X373233333Y71747619D01*
X373090476Y71700000D01*
X373042857Y71652380D01*
X372090476Y70747619D02*
X372661904Y70747619D01*
X372376190Y70747619D02*
X372376190Y71747619D01*
X372471428Y71604761D01*
X372566666Y71509523D01*
X372661904Y71461904D01*
X371471428Y71747619D02*
X371376190Y71747619D01*
X371280952Y71700000D01*
X371233333Y71652380D01*
X371185714Y71557142D01*
X371138095Y71366666D01*
X371138095Y71128571D01*
X371185714Y70938095D01*
X371233333Y70842857D01*
X371280952Y70795238D01*
X371376190Y70747619D01*
X371471428Y70747619D01*
X371566666Y70795238D01*
X371614285Y70842857D01*
X371661904Y70938095D01*
X371709523Y71128571D01*
X371709523Y71366666D01*
X371661904Y71557142D01*
X371614285Y71652380D01*
X371566666Y71700000D01*
X371471428Y71747619D01*
X369642857Y69642857D02*
X369690476Y69595238D01*
X369833333Y69547619D01*
X369928571Y69547619D01*
X370071428Y69595238D01*
X370166666Y69690476D01*
X370214285Y69785714D01*
X370261904Y69976190D01*
X370261904Y70119047D01*
X370214285Y70309523D01*
X370166666Y70404761D01*
X370071428Y70500000D01*
X369928571Y70547619D01*
X369833333Y70547619D01*
X369690476Y70500000D01*
X369642857Y70452380D01*
X368690476Y69547619D02*
X369261904Y69547619D01*
X368976190Y69547619D02*
X368976190Y70547619D01*
X369071428Y70404761D01*
X369166666Y70309523D01*
X369261904Y70261904D01*
X367738095Y69547619D02*
X368309523Y69547619D01*
X368023809Y69547619D02*
X368023809Y70547619D01*
X368119047Y70404761D01*
X368214285Y70309523D01*
X368309523Y70261904D01*
X352176190Y78747619D02*
X352176190Y79747619D01*
X351128571Y78842857D02*
X351176190Y78795238D01*
X351319047Y78747619D01*
X351414285Y78747619D01*
X351557142Y78795238D01*
X351652380Y78890476D01*
X351700000Y78985714D01*
X351747619Y79176190D01*
X351747619Y79319047D01*
X351700000Y79509523D01*
X351652380Y79604761D01*
X351557142Y79700000D01*
X351414285Y79747619D01*
X351319047Y79747619D01*
X351176190Y79700000D01*
X351128571Y79652380D01*
X350747619Y79652380D02*
X350700000Y79700000D01*
X350604761Y79747619D01*
X350366666Y79747619D01*
X350271428Y79700000D01*
X350223809Y79652380D01*
X350176190Y79557142D01*
X350176190Y79461904D01*
X350223809Y79319047D01*
X350795238Y78747619D01*
X350176190Y78747619D01*
X357666666Y79142857D02*
X357714285Y79095238D01*
X357857142Y79047619D01*
X357952380Y79047619D01*
X358095238Y79095238D01*
X358190476Y79190476D01*
X358238095Y79285714D01*
X358285714Y79476190D01*
X358285714Y79619047D01*
X358238095Y79809523D01*
X358190476Y79904761D01*
X358095238Y80000000D01*
X357952380Y80047619D01*
X357857142Y80047619D01*
X357714285Y80000000D01*
X357666666Y79952380D01*
X356761904Y80047619D02*
X357238095Y80047619D01*
X357285714Y79571428D01*
X357238095Y79619047D01*
X357142857Y79666666D01*
X356904761Y79666666D01*
X356809523Y79619047D01*
X356761904Y79571428D01*
X356714285Y79476190D01*
X356714285Y79238095D01*
X356761904Y79142857D01*
X356809523Y79095238D01*
X356904761Y79047619D01*
X357142857Y79047619D01*
X357238095Y79095238D01*
X357285714Y79142857D01*
X358566666Y71947619D02*
X358900000Y72423809D01*
X359138095Y71947619D02*
X359138095Y72947619D01*
X358757142Y72947619D01*
X358661904Y72900000D01*
X358614285Y72852380D01*
X358566666Y72757142D01*
X358566666Y72614285D01*
X358614285Y72519047D01*
X358661904Y72471428D01*
X358757142Y72423809D01*
X359138095Y72423809D01*
X357995238Y72519047D02*
X358090476Y72566666D01*
X358138095Y72614285D01*
X358185714Y72709523D01*
X358185714Y72757142D01*
X358138095Y72852380D01*
X358090476Y72900000D01*
X357995238Y72947619D01*
X357804761Y72947619D01*
X357709523Y72900000D01*
X357661904Y72852380D01*
X357614285Y72757142D01*
X357614285Y72709523D01*
X357661904Y72614285D01*
X357709523Y72566666D01*
X357804761Y72519047D01*
X357995238Y72519047D01*
X358090476Y72471428D01*
X358138095Y72423809D01*
X358185714Y72328571D01*
X358185714Y72138095D01*
X358138095Y72042857D01*
X358090476Y71995238D01*
X357995238Y71947619D01*
X357804761Y71947619D01*
X357709523Y71995238D01*
X357661904Y72042857D01*
X357614285Y72138095D01*
X357614285Y72328571D01*
X357661904Y72423809D01*
X357709523Y72471428D01*
X357804761Y72519047D01*
X352952380Y82266666D02*
X352476190Y82600000D01*
X352952380Y82838095D02*
X351952380Y82838095D01*
X351952380Y82457142D01*
X352000000Y82361904D01*
X352047619Y82314285D01*
X352142857Y82266666D01*
X352285714Y82266666D01*
X352380952Y82314285D01*
X352428571Y82361904D01*
X352476190Y82457142D01*
X352476190Y82838095D01*
X351952380Y81933333D02*
X351952380Y81266666D01*
X352952380Y81695238D01*
X352042857Y71947619D02*
X352376190Y72423809D01*
X352614285Y71947619D02*
X352614285Y72947619D01*
X352233333Y72947619D01*
X352138095Y72900000D01*
X352090476Y72852380D01*
X352042857Y72757142D01*
X352042857Y72614285D01*
X352090476Y72519047D01*
X352138095Y72471428D01*
X352233333Y72423809D01*
X352614285Y72423809D01*
X351090476Y71947619D02*
X351661904Y71947619D01*
X351376190Y71947619D02*
X351376190Y72947619D01*
X351471428Y72804761D01*
X351566666Y72709523D01*
X351661904Y72661904D01*
X350709523Y72852380D02*
X350661904Y72900000D01*
X350566666Y72947619D01*
X350328571Y72947619D01*
X350233333Y72900000D01*
X350185714Y72852380D01*
X350138095Y72757142D01*
X350138095Y72661904D01*
X350185714Y72519047D01*
X350757142Y71947619D01*
X350138095Y71947619D01*
X355542857Y70747619D02*
X355876190Y71223809D01*
X356114285Y70747619D02*
X356114285Y71747619D01*
X355733333Y71747619D01*
X355638095Y71700000D01*
X355590476Y71652380D01*
X355542857Y71557142D01*
X355542857Y71414285D01*
X355590476Y71319047D01*
X355638095Y71271428D01*
X355733333Y71223809D01*
X356114285Y71223809D01*
X354590476Y70747619D02*
X355161904Y70747619D01*
X354876190Y70747619D02*
X354876190Y71747619D01*
X354971428Y71604761D01*
X355066666Y71509523D01*
X355161904Y71461904D01*
X353638095Y70747619D02*
X354209523Y70747619D01*
X353923809Y70747619D02*
X353923809Y71747619D01*
X354019047Y71604761D01*
X354114285Y71509523D01*
X354209523Y71461904D01*
X355542857Y71947619D02*
X355876190Y72423809D01*
X356114285Y71947619D02*
X356114285Y72947619D01*
X355733333Y72947619D01*
X355638095Y72900000D01*
X355590476Y72852380D01*
X355542857Y72757142D01*
X355542857Y72614285D01*
X355590476Y72519047D01*
X355638095Y72471428D01*
X355733333Y72423809D01*
X356114285Y72423809D01*
X354590476Y71947619D02*
X355161904Y71947619D01*
X354876190Y71947619D02*
X354876190Y72947619D01*
X354971428Y72804761D01*
X355066666Y72709523D01*
X355161904Y72661904D01*
X353971428Y72947619D02*
X353876190Y72947619D01*
X353780952Y72900000D01*
X353733333Y72852380D01*
X353685714Y72757142D01*
X353638095Y72566666D01*
X353638095Y72328571D01*
X353685714Y72138095D01*
X353733333Y72042857D01*
X353780952Y71995238D01*
X353876190Y71947619D01*
X353971428Y71947619D01*
X354066666Y71995238D01*
X354114285Y72042857D01*
X354161904Y72138095D01*
X354209523Y72328571D01*
X354209523Y72566666D01*
X354161904Y72757142D01*
X354114285Y72852380D01*
X354066666Y72900000D01*
X353971428Y72947619D01*
X358566666Y69547619D02*
X358900000Y70023809D01*
X359138095Y69547619D02*
X359138095Y70547619D01*
X358757142Y70547619D01*
X358661904Y70500000D01*
X358614285Y70452380D01*
X358566666Y70357142D01*
X358566666Y70214285D01*
X358614285Y70119047D01*
X358661904Y70071428D01*
X358757142Y70023809D01*
X359138095Y70023809D01*
X358090476Y69547619D02*
X357900000Y69547619D01*
X357804761Y69595238D01*
X357757142Y69642857D01*
X357661904Y69785714D01*
X357614285Y69976190D01*
X357614285Y70357142D01*
X357661904Y70452380D01*
X357709523Y70500000D01*
X357804761Y70547619D01*
X357995238Y70547619D01*
X358090476Y70500000D01*
X358138095Y70452380D01*
X358185714Y70357142D01*
X358185714Y70119047D01*
X358138095Y70023809D01*
X358090476Y69976190D01*
X357995238Y69928571D01*
X357804761Y69928571D01*
X357709523Y69976190D01*
X357661904Y70023809D01*
X357614285Y70119047D01*
X353438095Y83547619D02*
X353438095Y84547619D01*
X353200000Y84547619D01*
X353057142Y84500000D01*
X352961904Y84404761D01*
X352914285Y84309523D01*
X352866666Y84119047D01*
X352866666Y83976190D01*
X352914285Y83785714D01*
X352961904Y83690476D01*
X353057142Y83595238D01*
X353200000Y83547619D01*
X353438095Y83547619D01*
X352485714Y84452380D02*
X352438095Y84500000D01*
X352342857Y84547619D01*
X352104761Y84547619D01*
X352009523Y84500000D01*
X351961904Y84452380D01*
X351914285Y84357142D01*
X351914285Y84261904D01*
X351961904Y84119047D01*
X352533333Y83547619D01*
X351914285Y83547619D01*
X347057142Y77166666D02*
X347104761Y77214285D01*
X347152380Y77357142D01*
X347152380Y77452380D01*
X347104761Y77595238D01*
X347009523Y77690476D01*
X346914285Y77738095D01*
X346723809Y77785714D01*
X346580952Y77785714D01*
X346390476Y77738095D01*
X346295238Y77690476D01*
X346200000Y77595238D01*
X346152380Y77452380D01*
X346152380Y77357142D01*
X346200000Y77214285D01*
X346247619Y77166666D01*
X346580952Y76595238D02*
X346533333Y76690476D01*
X346485714Y76738095D01*
X346390476Y76785714D01*
X346342857Y76785714D01*
X346247619Y76738095D01*
X346200000Y76690476D01*
X346152380Y76595238D01*
X346152380Y76404761D01*
X346200000Y76309523D01*
X346247619Y76261904D01*
X346342857Y76214285D01*
X346390476Y76214285D01*
X346485714Y76261904D01*
X346533333Y76309523D01*
X346580952Y76404761D01*
X346580952Y76595238D01*
X346628571Y76690476D01*
X346676190Y76738095D01*
X346771428Y76785714D01*
X346961904Y76785714D01*
X347057142Y76738095D01*
X347104761Y76690476D01*
X347152380Y76595238D01*
X347152380Y76404761D01*
X347104761Y76309523D01*
X347057142Y76261904D01*
X346961904Y76214285D01*
X346771428Y76214285D01*
X346676190Y76261904D01*
X346628571Y76309523D01*
X346580952Y76404761D01*
X355166666Y69642857D02*
X355214285Y69595238D01*
X355357142Y69547619D01*
X355452380Y69547619D01*
X355595238Y69595238D01*
X355690476Y69690476D01*
X355738095Y69785714D01*
X355785714Y69976190D01*
X355785714Y70119047D01*
X355738095Y70309523D01*
X355690476Y70404761D01*
X355595238Y70500000D01*
X355452380Y70547619D01*
X355357142Y70547619D01*
X355214285Y70500000D01*
X355166666Y70452380D01*
X354833333Y70547619D02*
X354166666Y70547619D01*
X354595238Y69547619D01*
X358566666Y70842857D02*
X358614285Y70795238D01*
X358757142Y70747619D01*
X358852380Y70747619D01*
X358995238Y70795238D01*
X359090476Y70890476D01*
X359138095Y70985714D01*
X359185714Y71176190D01*
X359185714Y71319047D01*
X359138095Y71509523D01*
X359090476Y71604761D01*
X358995238Y71700000D01*
X358852380Y71747619D01*
X358757142Y71747619D01*
X358614285Y71700000D01*
X358566666Y71652380D01*
X357709523Y71747619D02*
X357900000Y71747619D01*
X357995238Y71700000D01*
X358042857Y71652380D01*
X358138095Y71509523D01*
X358185714Y71319047D01*
X358185714Y70938095D01*
X358138095Y70842857D01*
X358090476Y70795238D01*
X357995238Y70747619D01*
X357804761Y70747619D01*
X357709523Y70795238D01*
X357661904Y70842857D01*
X357614285Y70938095D01*
X357614285Y71176190D01*
X357661904Y71271428D01*
X357709523Y71319047D01*
X357804761Y71366666D01*
X357995238Y71366666D01*
X358090476Y71319047D01*
X358138095Y71271428D01*
X358185714Y71176190D01*
X12919047Y68947619D02*
X13252380Y69423809D01*
X13490476Y68947619D02*
X13490476Y69947619D01*
X13109523Y69947619D01*
X13014285Y69900000D01*
X12966666Y69852380D01*
X12919047Y69757142D01*
X12919047Y69614285D01*
X12966666Y69519047D01*
X13014285Y69471428D01*
X13109523Y69423809D01*
X13490476Y69423809D01*
X11966666Y68947619D02*
X12538095Y68947619D01*
X12252380Y68947619D02*
X12252380Y69947619D01*
X12347619Y69804761D01*
X12442857Y69709523D01*
X12538095Y69661904D01*
X11347619Y69947619D02*
X11252380Y69947619D01*
X11157142Y69900000D01*
X11109523Y69852380D01*
X11061904Y69757142D01*
X11014285Y69566666D01*
X11014285Y69328571D01*
X11061904Y69138095D01*
X11109523Y69042857D01*
X11157142Y68995238D01*
X11252380Y68947619D01*
X11347619Y68947619D01*
X11442857Y68995238D01*
X11490476Y69042857D01*
X11538095Y69138095D01*
X11585714Y69328571D01*
X11585714Y69566666D01*
X11538095Y69757142D01*
X11490476Y69852380D01*
X11442857Y69900000D01*
X11347619Y69947619D01*
X10061904Y68947619D02*
X10633333Y68947619D01*
X10347619Y68947619D02*
X10347619Y69947619D01*
X10442857Y69804761D01*
X10538095Y69709523D01*
X10633333Y69661904D01*
X23819047Y68947619D02*
X24152380Y69423809D01*
X24390476Y68947619D02*
X24390476Y69947619D01*
X24009523Y69947619D01*
X23914285Y69900000D01*
X23866666Y69852380D01*
X23819047Y69757142D01*
X23819047Y69614285D01*
X23866666Y69519047D01*
X23914285Y69471428D01*
X24009523Y69423809D01*
X24390476Y69423809D01*
X22866666Y68947619D02*
X23438095Y68947619D01*
X23152380Y68947619D02*
X23152380Y69947619D01*
X23247619Y69804761D01*
X23342857Y69709523D01*
X23438095Y69661904D01*
X22247619Y69947619D02*
X22152380Y69947619D01*
X22057142Y69900000D01*
X22009523Y69852380D01*
X21961904Y69757142D01*
X21914285Y69566666D01*
X21914285Y69328571D01*
X21961904Y69138095D01*
X22009523Y69042857D01*
X22057142Y68995238D01*
X22152380Y68947619D01*
X22247619Y68947619D01*
X22342857Y68995238D01*
X22390476Y69042857D01*
X22438095Y69138095D01*
X22485714Y69328571D01*
X22485714Y69566666D01*
X22438095Y69757142D01*
X22390476Y69852380D01*
X22342857Y69900000D01*
X22247619Y69947619D01*
X21533333Y69852380D02*
X21485714Y69900000D01*
X21390476Y69947619D01*
X21152380Y69947619D01*
X21057142Y69900000D01*
X21009523Y69852380D01*
X20961904Y69757142D01*
X20961904Y69661904D01*
X21009523Y69519047D01*
X21580952Y68947619D01*
X20961904Y68947619D01*
X35919047Y68947619D02*
X36252380Y69423809D01*
X36490476Y68947619D02*
X36490476Y69947619D01*
X36109523Y69947619D01*
X36014285Y69900000D01*
X35966666Y69852380D01*
X35919047Y69757142D01*
X35919047Y69614285D01*
X35966666Y69519047D01*
X36014285Y69471428D01*
X36109523Y69423809D01*
X36490476Y69423809D01*
X34966666Y68947619D02*
X35538095Y68947619D01*
X35252380Y68947619D02*
X35252380Y69947619D01*
X35347619Y69804761D01*
X35442857Y69709523D01*
X35538095Y69661904D01*
X34347619Y69947619D02*
X34252380Y69947619D01*
X34157142Y69900000D01*
X34109523Y69852380D01*
X34061904Y69757142D01*
X34014285Y69566666D01*
X34014285Y69328571D01*
X34061904Y69138095D01*
X34109523Y69042857D01*
X34157142Y68995238D01*
X34252380Y68947619D01*
X34347619Y68947619D01*
X34442857Y68995238D01*
X34490476Y69042857D01*
X34538095Y69138095D01*
X34585714Y69328571D01*
X34585714Y69566666D01*
X34538095Y69757142D01*
X34490476Y69852380D01*
X34442857Y69900000D01*
X34347619Y69947619D01*
X33680952Y69947619D02*
X33061904Y69947619D01*
X33395238Y69566666D01*
X33252380Y69566666D01*
X33157142Y69519047D01*
X33109523Y69471428D01*
X33061904Y69376190D01*
X33061904Y69138095D01*
X33109523Y69042857D01*
X33157142Y68995238D01*
X33252380Y68947619D01*
X33538095Y68947619D01*
X33633333Y68995238D01*
X33680952Y69042857D01*
X46819047Y68947619D02*
X47152380Y69423809D01*
X47390476Y68947619D02*
X47390476Y69947619D01*
X47009523Y69947619D01*
X46914285Y69900000D01*
X46866666Y69852380D01*
X46819047Y69757142D01*
X46819047Y69614285D01*
X46866666Y69519047D01*
X46914285Y69471428D01*
X47009523Y69423809D01*
X47390476Y69423809D01*
X45866666Y68947619D02*
X46438095Y68947619D01*
X46152380Y68947619D02*
X46152380Y69947619D01*
X46247619Y69804761D01*
X46342857Y69709523D01*
X46438095Y69661904D01*
X45247619Y69947619D02*
X45152380Y69947619D01*
X45057142Y69900000D01*
X45009523Y69852380D01*
X44961904Y69757142D01*
X44914285Y69566666D01*
X44914285Y69328571D01*
X44961904Y69138095D01*
X45009523Y69042857D01*
X45057142Y68995238D01*
X45152380Y68947619D01*
X45247619Y68947619D01*
X45342857Y68995238D01*
X45390476Y69042857D01*
X45438095Y69138095D01*
X45485714Y69328571D01*
X45485714Y69566666D01*
X45438095Y69757142D01*
X45390476Y69852380D01*
X45342857Y69900000D01*
X45247619Y69947619D01*
X44057142Y69614285D02*
X44057142Y68947619D01*
X44295238Y69995238D02*
X44533333Y69280952D01*
X43914285Y69280952D01*
X61052380Y70119047D02*
X60576190Y70452380D01*
X61052380Y70690476D02*
X60052380Y70690476D01*
X60052380Y70309523D01*
X60100000Y70214285D01*
X60147619Y70166666D01*
X60242857Y70119047D01*
X60385714Y70119047D01*
X60480952Y70166666D01*
X60528571Y70214285D01*
X60576190Y70309523D01*
X60576190Y70690476D01*
X61052380Y69166666D02*
X61052380Y69738095D01*
X61052380Y69452380D02*
X60052380Y69452380D01*
X60195238Y69547619D01*
X60290476Y69642857D01*
X60338095Y69738095D01*
X60052380Y68547619D02*
X60052380Y68452380D01*
X60100000Y68357142D01*
X60147619Y68309523D01*
X60242857Y68261904D01*
X60433333Y68214285D01*
X60671428Y68214285D01*
X60861904Y68261904D01*
X60957142Y68309523D01*
X61004761Y68357142D01*
X61052380Y68452380D01*
X61052380Y68547619D01*
X61004761Y68642857D01*
X60957142Y68690476D01*
X60861904Y68738095D01*
X60671428Y68785714D01*
X60433333Y68785714D01*
X60242857Y68738095D01*
X60147619Y68690476D01*
X60100000Y68642857D01*
X60052380Y68547619D01*
X60052380Y67309523D02*
X60052380Y67785714D01*
X60528571Y67833333D01*
X60480952Y67785714D01*
X60433333Y67690476D01*
X60433333Y67452380D01*
X60480952Y67357142D01*
X60528571Y67309523D01*
X60623809Y67261904D01*
X60861904Y67261904D01*
X60957142Y67309523D01*
X61004761Y67357142D01*
X61052380Y67452380D01*
X61052380Y67690476D01*
X61004761Y67785714D01*
X60957142Y67833333D01*
X64852380Y70119047D02*
X64376190Y70452380D01*
X64852380Y70690476D02*
X63852380Y70690476D01*
X63852380Y70309523D01*
X63900000Y70214285D01*
X63947619Y70166666D01*
X64042857Y70119047D01*
X64185714Y70119047D01*
X64280952Y70166666D01*
X64328571Y70214285D01*
X64376190Y70309523D01*
X64376190Y70690476D01*
X64852380Y69166666D02*
X64852380Y69738095D01*
X64852380Y69452380D02*
X63852380Y69452380D01*
X63995238Y69547619D01*
X64090476Y69642857D01*
X64138095Y69738095D01*
X63852380Y68547619D02*
X63852380Y68452380D01*
X63900000Y68357142D01*
X63947619Y68309523D01*
X64042857Y68261904D01*
X64233333Y68214285D01*
X64471428Y68214285D01*
X64661904Y68261904D01*
X64757142Y68309523D01*
X64804761Y68357142D01*
X64852380Y68452380D01*
X64852380Y68547619D01*
X64804761Y68642857D01*
X64757142Y68690476D01*
X64661904Y68738095D01*
X64471428Y68785714D01*
X64233333Y68785714D01*
X64042857Y68738095D01*
X63947619Y68690476D01*
X63900000Y68642857D01*
X63852380Y68547619D01*
X63852380Y67357142D02*
X63852380Y67547619D01*
X63900000Y67642857D01*
X63947619Y67690476D01*
X64090476Y67785714D01*
X64280952Y67833333D01*
X64661904Y67833333D01*
X64757142Y67785714D01*
X64804761Y67738095D01*
X64852380Y67642857D01*
X64852380Y67452380D01*
X64804761Y67357142D01*
X64757142Y67309523D01*
X64661904Y67261904D01*
X64423809Y67261904D01*
X64328571Y67309523D01*
X64280952Y67357142D01*
X64233333Y67452380D01*
X64233333Y67642857D01*
X64280952Y67738095D01*
X64328571Y67785714D01*
X64423809Y67833333D01*
X84052380Y69819047D02*
X83576190Y70152380D01*
X84052380Y70390476D02*
X83052380Y70390476D01*
X83052380Y70009523D01*
X83100000Y69914285D01*
X83147619Y69866666D01*
X83242857Y69819047D01*
X83385714Y69819047D01*
X83480952Y69866666D01*
X83528571Y69914285D01*
X83576190Y70009523D01*
X83576190Y70390476D01*
X84052380Y68866666D02*
X84052380Y69438095D01*
X84052380Y69152380D02*
X83052380Y69152380D01*
X83195238Y69247619D01*
X83290476Y69342857D01*
X83338095Y69438095D01*
X83052380Y68247619D02*
X83052380Y68152380D01*
X83100000Y68057142D01*
X83147619Y68009523D01*
X83242857Y67961904D01*
X83433333Y67914285D01*
X83671428Y67914285D01*
X83861904Y67961904D01*
X83957142Y68009523D01*
X84004761Y68057142D01*
X84052380Y68152380D01*
X84052380Y68247619D01*
X84004761Y68342857D01*
X83957142Y68390476D01*
X83861904Y68438095D01*
X83671428Y68485714D01*
X83433333Y68485714D01*
X83242857Y68438095D01*
X83147619Y68390476D01*
X83100000Y68342857D01*
X83052380Y68247619D01*
X83052380Y67580952D02*
X83052380Y66914285D01*
X84052380Y67342857D01*
X87852380Y69819047D02*
X87376190Y70152380D01*
X87852380Y70390476D02*
X86852380Y70390476D01*
X86852380Y70009523D01*
X86900000Y69914285D01*
X86947619Y69866666D01*
X87042857Y69819047D01*
X87185714Y69819047D01*
X87280952Y69866666D01*
X87328571Y69914285D01*
X87376190Y70009523D01*
X87376190Y70390476D01*
X87852380Y68866666D02*
X87852380Y69438095D01*
X87852380Y69152380D02*
X86852380Y69152380D01*
X86995238Y69247619D01*
X87090476Y69342857D01*
X87138095Y69438095D01*
X86852380Y68247619D02*
X86852380Y68152380D01*
X86900000Y68057142D01*
X86947619Y68009523D01*
X87042857Y67961904D01*
X87233333Y67914285D01*
X87471428Y67914285D01*
X87661904Y67961904D01*
X87757142Y68009523D01*
X87804761Y68057142D01*
X87852380Y68152380D01*
X87852380Y68247619D01*
X87804761Y68342857D01*
X87757142Y68390476D01*
X87661904Y68438095D01*
X87471428Y68485714D01*
X87233333Y68485714D01*
X87042857Y68438095D01*
X86947619Y68390476D01*
X86900000Y68342857D01*
X86852380Y68247619D01*
X87280952Y67342857D02*
X87233333Y67438095D01*
X87185714Y67485714D01*
X87090476Y67533333D01*
X87042857Y67533333D01*
X86947619Y67485714D01*
X86900000Y67438095D01*
X86852380Y67342857D01*
X86852380Y67152380D01*
X86900000Y67057142D01*
X86947619Y67009523D01*
X87042857Y66961904D01*
X87090476Y66961904D01*
X87185714Y67009523D01*
X87233333Y67057142D01*
X87280952Y67152380D01*
X87280952Y67342857D01*
X87328571Y67438095D01*
X87376190Y67485714D01*
X87471428Y67533333D01*
X87661904Y67533333D01*
X87757142Y67485714D01*
X87804761Y67438095D01*
X87852380Y67342857D01*
X87852380Y67152380D01*
X87804761Y67057142D01*
X87757142Y67009523D01*
X87661904Y66961904D01*
X87471428Y66961904D01*
X87376190Y67009523D01*
X87328571Y67057142D01*
X87280952Y67152380D01*
X107052380Y69819047D02*
X106576190Y70152380D01*
X107052380Y70390476D02*
X106052380Y70390476D01*
X106052380Y70009523D01*
X106100000Y69914285D01*
X106147619Y69866666D01*
X106242857Y69819047D01*
X106385714Y69819047D01*
X106480952Y69866666D01*
X106528571Y69914285D01*
X106576190Y70009523D01*
X106576190Y70390476D01*
X107052380Y68866666D02*
X107052380Y69438095D01*
X107052380Y69152380D02*
X106052380Y69152380D01*
X106195238Y69247619D01*
X106290476Y69342857D01*
X106338095Y69438095D01*
X106052380Y68247619D02*
X106052380Y68152380D01*
X106100000Y68057142D01*
X106147619Y68009523D01*
X106242857Y67961904D01*
X106433333Y67914285D01*
X106671428Y67914285D01*
X106861904Y67961904D01*
X106957142Y68009523D01*
X107004761Y68057142D01*
X107052380Y68152380D01*
X107052380Y68247619D01*
X107004761Y68342857D01*
X106957142Y68390476D01*
X106861904Y68438095D01*
X106671428Y68485714D01*
X106433333Y68485714D01*
X106242857Y68438095D01*
X106147619Y68390476D01*
X106100000Y68342857D01*
X106052380Y68247619D01*
X107052380Y67438095D02*
X107052380Y67247619D01*
X107004761Y67152380D01*
X106957142Y67104761D01*
X106814285Y67009523D01*
X106623809Y66961904D01*
X106242857Y66961904D01*
X106147619Y67009523D01*
X106100000Y67057142D01*
X106052380Y67152380D01*
X106052380Y67342857D01*
X106100000Y67438095D01*
X106147619Y67485714D01*
X106242857Y67533333D01*
X106480952Y67533333D01*
X106576190Y67485714D01*
X106623809Y67438095D01*
X106671428Y67342857D01*
X106671428Y67152380D01*
X106623809Y67057142D01*
X106576190Y67009523D01*
X106480952Y66961904D01*
X110852380Y69819047D02*
X110376190Y70152380D01*
X110852380Y70390476D02*
X109852380Y70390476D01*
X109852380Y70009523D01*
X109900000Y69914285D01*
X109947619Y69866666D01*
X110042857Y69819047D01*
X110185714Y69819047D01*
X110280952Y69866666D01*
X110328571Y69914285D01*
X110376190Y70009523D01*
X110376190Y70390476D01*
X110852380Y68866666D02*
X110852380Y69438095D01*
X110852380Y69152380D02*
X109852380Y69152380D01*
X109995238Y69247619D01*
X110090476Y69342857D01*
X110138095Y69438095D01*
X110852380Y67914285D02*
X110852380Y68485714D01*
X110852380Y68200000D02*
X109852380Y68200000D01*
X109995238Y68295238D01*
X110090476Y68390476D01*
X110138095Y68485714D01*
X109852380Y67295238D02*
X109852380Y67200000D01*
X109900000Y67104761D01*
X109947619Y67057142D01*
X110042857Y67009523D01*
X110233333Y66961904D01*
X110471428Y66961904D01*
X110661904Y67009523D01*
X110757142Y67057142D01*
X110804761Y67104761D01*
X110852380Y67200000D01*
X110852380Y67295238D01*
X110804761Y67390476D01*
X110757142Y67438095D01*
X110661904Y67485714D01*
X110471428Y67533333D01*
X110233333Y67533333D01*
X110042857Y67485714D01*
X109947619Y67438095D01*
X109900000Y67390476D01*
X109852380Y67295238D01*
X130052380Y69819047D02*
X129576190Y70152380D01*
X130052380Y70390476D02*
X129052380Y70390476D01*
X129052380Y70009523D01*
X129100000Y69914285D01*
X129147619Y69866666D01*
X129242857Y69819047D01*
X129385714Y69819047D01*
X129480952Y69866666D01*
X129528571Y69914285D01*
X129576190Y70009523D01*
X129576190Y70390476D01*
X130052380Y68866666D02*
X130052380Y69438095D01*
X130052380Y69152380D02*
X129052380Y69152380D01*
X129195238Y69247619D01*
X129290476Y69342857D01*
X129338095Y69438095D01*
X130052380Y67914285D02*
X130052380Y68485714D01*
X130052380Y68200000D02*
X129052380Y68200000D01*
X129195238Y68295238D01*
X129290476Y68390476D01*
X129338095Y68485714D01*
X130052380Y66961904D02*
X130052380Y67533333D01*
X130052380Y67247619D02*
X129052380Y67247619D01*
X129195238Y67342857D01*
X129290476Y67438095D01*
X129338095Y67533333D01*
X133852380Y69819047D02*
X133376190Y70152380D01*
X133852380Y70390476D02*
X132852380Y70390476D01*
X132852380Y70009523D01*
X132900000Y69914285D01*
X132947619Y69866666D01*
X133042857Y69819047D01*
X133185714Y69819047D01*
X133280952Y69866666D01*
X133328571Y69914285D01*
X133376190Y70009523D01*
X133376190Y70390476D01*
X133852380Y68866666D02*
X133852380Y69438095D01*
X133852380Y69152380D02*
X132852380Y69152380D01*
X132995238Y69247619D01*
X133090476Y69342857D01*
X133138095Y69438095D01*
X133852380Y67914285D02*
X133852380Y68485714D01*
X133852380Y68200000D02*
X132852380Y68200000D01*
X132995238Y68295238D01*
X133090476Y68390476D01*
X133138095Y68485714D01*
X132947619Y67533333D02*
X132900000Y67485714D01*
X132852380Y67390476D01*
X132852380Y67152380D01*
X132900000Y67057142D01*
X132947619Y67009523D01*
X133042857Y66961904D01*
X133138095Y66961904D01*
X133280952Y67009523D01*
X133852380Y67580952D01*
X133852380Y66961904D01*
X153052380Y69819047D02*
X152576190Y70152380D01*
X153052380Y70390476D02*
X152052380Y70390476D01*
X152052380Y70009523D01*
X152100000Y69914285D01*
X152147619Y69866666D01*
X152242857Y69819047D01*
X152385714Y69819047D01*
X152480952Y69866666D01*
X152528571Y69914285D01*
X152576190Y70009523D01*
X152576190Y70390476D01*
X153052380Y68866666D02*
X153052380Y69438095D01*
X153052380Y69152380D02*
X152052380Y69152380D01*
X152195238Y69247619D01*
X152290476Y69342857D01*
X152338095Y69438095D01*
X153052380Y67914285D02*
X153052380Y68485714D01*
X153052380Y68200000D02*
X152052380Y68200000D01*
X152195238Y68295238D01*
X152290476Y68390476D01*
X152338095Y68485714D01*
X152052380Y67580952D02*
X152052380Y66961904D01*
X152433333Y67295238D01*
X152433333Y67152380D01*
X152480952Y67057142D01*
X152528571Y67009523D01*
X152623809Y66961904D01*
X152861904Y66961904D01*
X152957142Y67009523D01*
X153004761Y67057142D01*
X153052380Y67152380D01*
X153052380Y67438095D01*
X153004761Y67533333D01*
X152957142Y67580952D01*
X156852380Y69819047D02*
X156376190Y70152380D01*
X156852380Y70390476D02*
X155852380Y70390476D01*
X155852380Y70009523D01*
X155900000Y69914285D01*
X155947619Y69866666D01*
X156042857Y69819047D01*
X156185714Y69819047D01*
X156280952Y69866666D01*
X156328571Y69914285D01*
X156376190Y70009523D01*
X156376190Y70390476D01*
X156852380Y68866666D02*
X156852380Y69438095D01*
X156852380Y69152380D02*
X155852380Y69152380D01*
X155995238Y69247619D01*
X156090476Y69342857D01*
X156138095Y69438095D01*
X156852380Y67914285D02*
X156852380Y68485714D01*
X156852380Y68200000D02*
X155852380Y68200000D01*
X155995238Y68295238D01*
X156090476Y68390476D01*
X156138095Y68485714D01*
X156185714Y67057142D02*
X156852380Y67057142D01*
X155804761Y67295238D02*
X156519047Y67533333D01*
X156519047Y66914285D01*
X176052380Y69819047D02*
X175576190Y70152380D01*
X176052380Y70390476D02*
X175052380Y70390476D01*
X175052380Y70009523D01*
X175100000Y69914285D01*
X175147619Y69866666D01*
X175242857Y69819047D01*
X175385714Y69819047D01*
X175480952Y69866666D01*
X175528571Y69914285D01*
X175576190Y70009523D01*
X175576190Y70390476D01*
X176052380Y68866666D02*
X176052380Y69438095D01*
X176052380Y69152380D02*
X175052380Y69152380D01*
X175195238Y69247619D01*
X175290476Y69342857D01*
X175338095Y69438095D01*
X176052380Y67914285D02*
X176052380Y68485714D01*
X176052380Y68200000D02*
X175052380Y68200000D01*
X175195238Y68295238D01*
X175290476Y68390476D01*
X175338095Y68485714D01*
X175052380Y67009523D02*
X175052380Y67485714D01*
X175528571Y67533333D01*
X175480952Y67485714D01*
X175433333Y67390476D01*
X175433333Y67152380D01*
X175480952Y67057142D01*
X175528571Y67009523D01*
X175623809Y66961904D01*
X175861904Y66961904D01*
X175957142Y67009523D01*
X176004761Y67057142D01*
X176052380Y67152380D01*
X176052380Y67390476D01*
X176004761Y67485714D01*
X175957142Y67533333D01*
X179852380Y69819047D02*
X179376190Y70152380D01*
X179852380Y70390476D02*
X178852380Y70390476D01*
X178852380Y70009523D01*
X178900000Y69914285D01*
X178947619Y69866666D01*
X179042857Y69819047D01*
X179185714Y69819047D01*
X179280952Y69866666D01*
X179328571Y69914285D01*
X179376190Y70009523D01*
X179376190Y70390476D01*
X179852380Y68866666D02*
X179852380Y69438095D01*
X179852380Y69152380D02*
X178852380Y69152380D01*
X178995238Y69247619D01*
X179090476Y69342857D01*
X179138095Y69438095D01*
X179852380Y67914285D02*
X179852380Y68485714D01*
X179852380Y68200000D02*
X178852380Y68200000D01*
X178995238Y68295238D01*
X179090476Y68390476D01*
X179138095Y68485714D01*
X178852380Y67057142D02*
X178852380Y67247619D01*
X178900000Y67342857D01*
X178947619Y67390476D01*
X179090476Y67485714D01*
X179280952Y67533333D01*
X179661904Y67533333D01*
X179757142Y67485714D01*
X179804761Y67438095D01*
X179852380Y67342857D01*
X179852380Y67152380D01*
X179804761Y67057142D01*
X179757142Y67009523D01*
X179661904Y66961904D01*
X179423809Y66961904D01*
X179328571Y67009523D01*
X179280952Y67057142D01*
X179233333Y67152380D01*
X179233333Y67342857D01*
X179280952Y67438095D01*
X179328571Y67485714D01*
X179423809Y67533333D01*
X196557142Y71719047D02*
X196604761Y71766666D01*
X196652380Y71909523D01*
X196652380Y72004761D01*
X196604761Y72147619D01*
X196509523Y72242857D01*
X196414285Y72290476D01*
X196223809Y72338095D01*
X196080952Y72338095D01*
X195890476Y72290476D01*
X195795238Y72242857D01*
X195700000Y72147619D01*
X195652380Y72004761D01*
X195652380Y71909523D01*
X195700000Y71766666D01*
X195747619Y71719047D01*
X196652380Y70766666D02*
X196652380Y71338095D01*
X196652380Y71052380D02*
X195652380Y71052380D01*
X195795238Y71147619D01*
X195890476Y71242857D01*
X195938095Y71338095D01*
X195652380Y70147619D02*
X195652380Y70052380D01*
X195700000Y69957142D01*
X195747619Y69909523D01*
X195842857Y69861904D01*
X196033333Y69814285D01*
X196271428Y69814285D01*
X196461904Y69861904D01*
X196557142Y69909523D01*
X196604761Y69957142D01*
X196652380Y70052380D01*
X196652380Y70147619D01*
X196604761Y70242857D01*
X196557142Y70290476D01*
X196461904Y70338095D01*
X196271428Y70385714D01*
X196033333Y70385714D01*
X195842857Y70338095D01*
X195747619Y70290476D01*
X195700000Y70242857D01*
X195652380Y70147619D01*
X196652380Y68861904D02*
X196652380Y69433333D01*
X196652380Y69147619D02*
X195652380Y69147619D01*
X195795238Y69242857D01*
X195890476Y69338095D01*
X195938095Y69433333D01*
X204057142Y71719047D02*
X204104761Y71766666D01*
X204152380Y71909523D01*
X204152380Y72004761D01*
X204104761Y72147619D01*
X204009523Y72242857D01*
X203914285Y72290476D01*
X203723809Y72338095D01*
X203580952Y72338095D01*
X203390476Y72290476D01*
X203295238Y72242857D01*
X203200000Y72147619D01*
X203152380Y72004761D01*
X203152380Y71909523D01*
X203200000Y71766666D01*
X203247619Y71719047D01*
X204152380Y70766666D02*
X204152380Y71338095D01*
X204152380Y71052380D02*
X203152380Y71052380D01*
X203295238Y71147619D01*
X203390476Y71242857D01*
X203438095Y71338095D01*
X203152380Y70147619D02*
X203152380Y70052380D01*
X203200000Y69957142D01*
X203247619Y69909523D01*
X203342857Y69861904D01*
X203533333Y69814285D01*
X203771428Y69814285D01*
X203961904Y69861904D01*
X204057142Y69909523D01*
X204104761Y69957142D01*
X204152380Y70052380D01*
X204152380Y70147619D01*
X204104761Y70242857D01*
X204057142Y70290476D01*
X203961904Y70338095D01*
X203771428Y70385714D01*
X203533333Y70385714D01*
X203342857Y70338095D01*
X203247619Y70290476D01*
X203200000Y70242857D01*
X203152380Y70147619D01*
X203247619Y69433333D02*
X203200000Y69385714D01*
X203152380Y69290476D01*
X203152380Y69052380D01*
X203200000Y68957142D01*
X203247619Y68909523D01*
X203342857Y68861904D01*
X203438095Y68861904D01*
X203580952Y68909523D01*
X204152380Y69480952D01*
X204152380Y68861904D01*
X210557142Y71719047D02*
X210604761Y71766666D01*
X210652380Y71909523D01*
X210652380Y72004761D01*
X210604761Y72147619D01*
X210509523Y72242857D01*
X210414285Y72290476D01*
X210223809Y72338095D01*
X210080952Y72338095D01*
X209890476Y72290476D01*
X209795238Y72242857D01*
X209700000Y72147619D01*
X209652380Y72004761D01*
X209652380Y71909523D01*
X209700000Y71766666D01*
X209747619Y71719047D01*
X210652380Y70766666D02*
X210652380Y71338095D01*
X210652380Y71052380D02*
X209652380Y71052380D01*
X209795238Y71147619D01*
X209890476Y71242857D01*
X209938095Y71338095D01*
X209652380Y70147619D02*
X209652380Y70052380D01*
X209700000Y69957142D01*
X209747619Y69909523D01*
X209842857Y69861904D01*
X210033333Y69814285D01*
X210271428Y69814285D01*
X210461904Y69861904D01*
X210557142Y69909523D01*
X210604761Y69957142D01*
X210652380Y70052380D01*
X210652380Y70147619D01*
X210604761Y70242857D01*
X210557142Y70290476D01*
X210461904Y70338095D01*
X210271428Y70385714D01*
X210033333Y70385714D01*
X209842857Y70338095D01*
X209747619Y70290476D01*
X209700000Y70242857D01*
X209652380Y70147619D01*
X209652380Y69480952D02*
X209652380Y68861904D01*
X210033333Y69195238D01*
X210033333Y69052380D01*
X210080952Y68957142D01*
X210128571Y68909523D01*
X210223809Y68861904D01*
X210461904Y68861904D01*
X210557142Y68909523D01*
X210604761Y68957142D01*
X210652380Y69052380D01*
X210652380Y69338095D01*
X210604761Y69433333D01*
X210557142Y69480952D01*
X218057142Y71719047D02*
X218104761Y71766666D01*
X218152380Y71909523D01*
X218152380Y72004761D01*
X218104761Y72147619D01*
X218009523Y72242857D01*
X217914285Y72290476D01*
X217723809Y72338095D01*
X217580952Y72338095D01*
X217390476Y72290476D01*
X217295238Y72242857D01*
X217200000Y72147619D01*
X217152380Y72004761D01*
X217152380Y71909523D01*
X217200000Y71766666D01*
X217247619Y71719047D01*
X218152380Y70766666D02*
X218152380Y71338095D01*
X218152380Y71052380D02*
X217152380Y71052380D01*
X217295238Y71147619D01*
X217390476Y71242857D01*
X217438095Y71338095D01*
X217152380Y70147619D02*
X217152380Y70052380D01*
X217200000Y69957142D01*
X217247619Y69909523D01*
X217342857Y69861904D01*
X217533333Y69814285D01*
X217771428Y69814285D01*
X217961904Y69861904D01*
X218057142Y69909523D01*
X218104761Y69957142D01*
X218152380Y70052380D01*
X218152380Y70147619D01*
X218104761Y70242857D01*
X218057142Y70290476D01*
X217961904Y70338095D01*
X217771428Y70385714D01*
X217533333Y70385714D01*
X217342857Y70338095D01*
X217247619Y70290476D01*
X217200000Y70242857D01*
X217152380Y70147619D01*
X217485714Y68957142D02*
X218152380Y68957142D01*
X217104761Y69195238D02*
X217819047Y69433333D01*
X217819047Y68814285D01*
X224557142Y71819047D02*
X224604761Y71866666D01*
X224652380Y72009523D01*
X224652380Y72104761D01*
X224604761Y72247619D01*
X224509523Y72342857D01*
X224414285Y72390476D01*
X224223809Y72438095D01*
X224080952Y72438095D01*
X223890476Y72390476D01*
X223795238Y72342857D01*
X223700000Y72247619D01*
X223652380Y72104761D01*
X223652380Y72009523D01*
X223700000Y71866666D01*
X223747619Y71819047D01*
X224652380Y70866666D02*
X224652380Y71438095D01*
X224652380Y71152380D02*
X223652380Y71152380D01*
X223795238Y71247619D01*
X223890476Y71342857D01*
X223938095Y71438095D01*
X223652380Y70247619D02*
X223652380Y70152380D01*
X223700000Y70057142D01*
X223747619Y70009523D01*
X223842857Y69961904D01*
X224033333Y69914285D01*
X224271428Y69914285D01*
X224461904Y69961904D01*
X224557142Y70009523D01*
X224604761Y70057142D01*
X224652380Y70152380D01*
X224652380Y70247619D01*
X224604761Y70342857D01*
X224557142Y70390476D01*
X224461904Y70438095D01*
X224271428Y70485714D01*
X224033333Y70485714D01*
X223842857Y70438095D01*
X223747619Y70390476D01*
X223700000Y70342857D01*
X223652380Y70247619D01*
X223652380Y69009523D02*
X223652380Y69485714D01*
X224128571Y69533333D01*
X224080952Y69485714D01*
X224033333Y69390476D01*
X224033333Y69152380D01*
X224080952Y69057142D01*
X224128571Y69009523D01*
X224223809Y68961904D01*
X224461904Y68961904D01*
X224557142Y69009523D01*
X224604761Y69057142D01*
X224652380Y69152380D01*
X224652380Y69390476D01*
X224604761Y69485714D01*
X224557142Y69533333D01*
X232057142Y71819047D02*
X232104761Y71866666D01*
X232152380Y72009523D01*
X232152380Y72104761D01*
X232104761Y72247619D01*
X232009523Y72342857D01*
X231914285Y72390476D01*
X231723809Y72438095D01*
X231580952Y72438095D01*
X231390476Y72390476D01*
X231295238Y72342857D01*
X231200000Y72247619D01*
X231152380Y72104761D01*
X231152380Y72009523D01*
X231200000Y71866666D01*
X231247619Y71819047D01*
X232152380Y70866666D02*
X232152380Y71438095D01*
X232152380Y71152380D02*
X231152380Y71152380D01*
X231295238Y71247619D01*
X231390476Y71342857D01*
X231438095Y71438095D01*
X231152380Y70247619D02*
X231152380Y70152380D01*
X231200000Y70057142D01*
X231247619Y70009523D01*
X231342857Y69961904D01*
X231533333Y69914285D01*
X231771428Y69914285D01*
X231961904Y69961904D01*
X232057142Y70009523D01*
X232104761Y70057142D01*
X232152380Y70152380D01*
X232152380Y70247619D01*
X232104761Y70342857D01*
X232057142Y70390476D01*
X231961904Y70438095D01*
X231771428Y70485714D01*
X231533333Y70485714D01*
X231342857Y70438095D01*
X231247619Y70390476D01*
X231200000Y70342857D01*
X231152380Y70247619D01*
X231152380Y69057142D02*
X231152380Y69247619D01*
X231200000Y69342857D01*
X231247619Y69390476D01*
X231390476Y69485714D01*
X231580952Y69533333D01*
X231961904Y69533333D01*
X232057142Y69485714D01*
X232104761Y69438095D01*
X232152380Y69342857D01*
X232152380Y69152380D01*
X232104761Y69057142D01*
X232057142Y69009523D01*
X231961904Y68961904D01*
X231723809Y68961904D01*
X231628571Y69009523D01*
X231580952Y69057142D01*
X231533333Y69152380D01*
X231533333Y69342857D01*
X231580952Y69438095D01*
X231628571Y69485714D01*
X231723809Y69533333D01*
X238557142Y71819047D02*
X238604761Y71866666D01*
X238652380Y72009523D01*
X238652380Y72104761D01*
X238604761Y72247619D01*
X238509523Y72342857D01*
X238414285Y72390476D01*
X238223809Y72438095D01*
X238080952Y72438095D01*
X237890476Y72390476D01*
X237795238Y72342857D01*
X237700000Y72247619D01*
X237652380Y72104761D01*
X237652380Y72009523D01*
X237700000Y71866666D01*
X237747619Y71819047D01*
X238652380Y70866666D02*
X238652380Y71438095D01*
X238652380Y71152380D02*
X237652380Y71152380D01*
X237795238Y71247619D01*
X237890476Y71342857D01*
X237938095Y71438095D01*
X237652380Y70247619D02*
X237652380Y70152380D01*
X237700000Y70057142D01*
X237747619Y70009523D01*
X237842857Y69961904D01*
X238033333Y69914285D01*
X238271428Y69914285D01*
X238461904Y69961904D01*
X238557142Y70009523D01*
X238604761Y70057142D01*
X238652380Y70152380D01*
X238652380Y70247619D01*
X238604761Y70342857D01*
X238557142Y70390476D01*
X238461904Y70438095D01*
X238271428Y70485714D01*
X238033333Y70485714D01*
X237842857Y70438095D01*
X237747619Y70390476D01*
X237700000Y70342857D01*
X237652380Y70247619D01*
X237652380Y69580952D02*
X237652380Y68914285D01*
X238652380Y69342857D01*
X246057142Y71819047D02*
X246104761Y71866666D01*
X246152380Y72009523D01*
X246152380Y72104761D01*
X246104761Y72247619D01*
X246009523Y72342857D01*
X245914285Y72390476D01*
X245723809Y72438095D01*
X245580952Y72438095D01*
X245390476Y72390476D01*
X245295238Y72342857D01*
X245200000Y72247619D01*
X245152380Y72104761D01*
X245152380Y72009523D01*
X245200000Y71866666D01*
X245247619Y71819047D01*
X246152380Y70866666D02*
X246152380Y71438095D01*
X246152380Y71152380D02*
X245152380Y71152380D01*
X245295238Y71247619D01*
X245390476Y71342857D01*
X245438095Y71438095D01*
X245152380Y70247619D02*
X245152380Y70152380D01*
X245200000Y70057142D01*
X245247619Y70009523D01*
X245342857Y69961904D01*
X245533333Y69914285D01*
X245771428Y69914285D01*
X245961904Y69961904D01*
X246057142Y70009523D01*
X246104761Y70057142D01*
X246152380Y70152380D01*
X246152380Y70247619D01*
X246104761Y70342857D01*
X246057142Y70390476D01*
X245961904Y70438095D01*
X245771428Y70485714D01*
X245533333Y70485714D01*
X245342857Y70438095D01*
X245247619Y70390476D01*
X245200000Y70342857D01*
X245152380Y70247619D01*
X245580952Y69342857D02*
X245533333Y69438095D01*
X245485714Y69485714D01*
X245390476Y69533333D01*
X245342857Y69533333D01*
X245247619Y69485714D01*
X245200000Y69438095D01*
X245152380Y69342857D01*
X245152380Y69152380D01*
X245200000Y69057142D01*
X245247619Y69009523D01*
X245342857Y68961904D01*
X245390476Y68961904D01*
X245485714Y69009523D01*
X245533333Y69057142D01*
X245580952Y69152380D01*
X245580952Y69342857D01*
X245628571Y69438095D01*
X245676190Y69485714D01*
X245771428Y69533333D01*
X245961904Y69533333D01*
X246057142Y69485714D01*
X246104761Y69438095D01*
X246152380Y69342857D01*
X246152380Y69152380D01*
X246104761Y69057142D01*
X246057142Y69009523D01*
X245961904Y68961904D01*
X245771428Y68961904D01*
X245676190Y69009523D01*
X245628571Y69057142D01*
X245580952Y69152380D01*
X289519047Y80042857D02*
X289566666Y79995238D01*
X289709523Y79947619D01*
X289804761Y79947619D01*
X289947619Y79995238D01*
X290042857Y80090476D01*
X290090476Y80185714D01*
X290138095Y80376190D01*
X290138095Y80519047D01*
X290090476Y80709523D01*
X290042857Y80804761D01*
X289947619Y80900000D01*
X289804761Y80947619D01*
X289709523Y80947619D01*
X289566666Y80900000D01*
X289519047Y80852380D01*
X288566666Y79947619D02*
X289138095Y79947619D01*
X288852380Y79947619D02*
X288852380Y80947619D01*
X288947619Y80804761D01*
X289042857Y80709523D01*
X289138095Y80661904D01*
X287947619Y80947619D02*
X287852380Y80947619D01*
X287757142Y80900000D01*
X287709523Y80852380D01*
X287661904Y80757142D01*
X287614285Y80566666D01*
X287614285Y80328571D01*
X287661904Y80138095D01*
X287709523Y80042857D01*
X287757142Y79995238D01*
X287852380Y79947619D01*
X287947619Y79947619D01*
X288042857Y79995238D01*
X288090476Y80042857D01*
X288138095Y80138095D01*
X288185714Y80328571D01*
X288185714Y80566666D01*
X288138095Y80757142D01*
X288090476Y80852380D01*
X288042857Y80900000D01*
X287947619Y80947619D01*
X287138095Y79947619D02*
X286947619Y79947619D01*
X286852380Y79995238D01*
X286804761Y80042857D01*
X286709523Y80185714D01*
X286661904Y80376190D01*
X286661904Y80757142D01*
X286709523Y80852380D01*
X286757142Y80900000D01*
X286852380Y80947619D01*
X287042857Y80947619D01*
X287138095Y80900000D01*
X287185714Y80852380D01*
X287233333Y80757142D01*
X287233333Y80519047D01*
X287185714Y80423809D01*
X287138095Y80376190D01*
X287042857Y80328571D01*
X286852380Y80328571D01*
X286757142Y80376190D01*
X286709523Y80423809D01*
X286661904Y80519047D01*
X303519047Y80042857D02*
X303566666Y79995238D01*
X303709523Y79947619D01*
X303804761Y79947619D01*
X303947619Y79995238D01*
X304042857Y80090476D01*
X304090476Y80185714D01*
X304138095Y80376190D01*
X304138095Y80519047D01*
X304090476Y80709523D01*
X304042857Y80804761D01*
X303947619Y80900000D01*
X303804761Y80947619D01*
X303709523Y80947619D01*
X303566666Y80900000D01*
X303519047Y80852380D01*
X302566666Y79947619D02*
X303138095Y79947619D01*
X302852380Y79947619D02*
X302852380Y80947619D01*
X302947619Y80804761D01*
X303042857Y80709523D01*
X303138095Y80661904D01*
X301614285Y79947619D02*
X302185714Y79947619D01*
X301900000Y79947619D02*
X301900000Y80947619D01*
X301995238Y80804761D01*
X302090476Y80709523D01*
X302185714Y80661904D01*
X300995238Y80947619D02*
X300900000Y80947619D01*
X300804761Y80900000D01*
X300757142Y80852380D01*
X300709523Y80757142D01*
X300661904Y80566666D01*
X300661904Y80328571D01*
X300709523Y80138095D01*
X300757142Y80042857D01*
X300804761Y79995238D01*
X300900000Y79947619D01*
X300995238Y79947619D01*
X301090476Y79995238D01*
X301138095Y80042857D01*
X301185714Y80138095D01*
X301233333Y80328571D01*
X301233333Y80566666D01*
X301185714Y80757142D01*
X301138095Y80852380D01*
X301090476Y80900000D01*
X300995238Y80947619D01*
X317519047Y80042857D02*
X317566666Y79995238D01*
X317709523Y79947619D01*
X317804761Y79947619D01*
X317947619Y79995238D01*
X318042857Y80090476D01*
X318090476Y80185714D01*
X318138095Y80376190D01*
X318138095Y80519047D01*
X318090476Y80709523D01*
X318042857Y80804761D01*
X317947619Y80900000D01*
X317804761Y80947619D01*
X317709523Y80947619D01*
X317566666Y80900000D01*
X317519047Y80852380D01*
X316566666Y79947619D02*
X317138095Y79947619D01*
X316852380Y79947619D02*
X316852380Y80947619D01*
X316947619Y80804761D01*
X317042857Y80709523D01*
X317138095Y80661904D01*
X315614285Y79947619D02*
X316185714Y79947619D01*
X315900000Y79947619D02*
X315900000Y80947619D01*
X315995238Y80804761D01*
X316090476Y80709523D01*
X316185714Y80661904D01*
X314661904Y79947619D02*
X315233333Y79947619D01*
X314947619Y79947619D02*
X314947619Y80947619D01*
X315042857Y80804761D01*
X315138095Y80709523D01*
X315233333Y80661904D01*
X331519047Y79942857D02*
X331566666Y79895238D01*
X331709523Y79847619D01*
X331804761Y79847619D01*
X331947619Y79895238D01*
X332042857Y79990476D01*
X332090476Y80085714D01*
X332138095Y80276190D01*
X332138095Y80419047D01*
X332090476Y80609523D01*
X332042857Y80704761D01*
X331947619Y80800000D01*
X331804761Y80847619D01*
X331709523Y80847619D01*
X331566666Y80800000D01*
X331519047Y80752380D01*
X330566666Y79847619D02*
X331138095Y79847619D01*
X330852380Y79847619D02*
X330852380Y80847619D01*
X330947619Y80704761D01*
X331042857Y80609523D01*
X331138095Y80561904D01*
X329614285Y79847619D02*
X330185714Y79847619D01*
X329900000Y79847619D02*
X329900000Y80847619D01*
X329995238Y80704761D01*
X330090476Y80609523D01*
X330185714Y80561904D01*
X329233333Y80752380D02*
X329185714Y80800000D01*
X329090476Y80847619D01*
X328852380Y80847619D01*
X328757142Y80800000D01*
X328709523Y80752380D01*
X328661904Y80657142D01*
X328661904Y80561904D01*
X328709523Y80419047D01*
X329280952Y79847619D01*
X328661904Y79847619D01*
X326019047Y78242857D02*
X326066666Y78195238D01*
X326209523Y78147619D01*
X326304761Y78147619D01*
X326447619Y78195238D01*
X326542857Y78290476D01*
X326590476Y78385714D01*
X326638095Y78576190D01*
X326638095Y78719047D01*
X326590476Y78909523D01*
X326542857Y79004761D01*
X326447619Y79100000D01*
X326304761Y79147619D01*
X326209523Y79147619D01*
X326066666Y79100000D01*
X326019047Y79052380D01*
X325066666Y78147619D02*
X325638095Y78147619D01*
X325352380Y78147619D02*
X325352380Y79147619D01*
X325447619Y79004761D01*
X325542857Y78909523D01*
X325638095Y78861904D01*
X324114285Y78147619D02*
X324685714Y78147619D01*
X324400000Y78147619D02*
X324400000Y79147619D01*
X324495238Y79004761D01*
X324590476Y78909523D01*
X324685714Y78861904D01*
X323780952Y79147619D02*
X323161904Y79147619D01*
X323495238Y78766666D01*
X323352380Y78766666D01*
X323257142Y78719047D01*
X323209523Y78671428D01*
X323161904Y78576190D01*
X323161904Y78338095D01*
X323209523Y78242857D01*
X323257142Y78195238D01*
X323352380Y78147619D01*
X323638095Y78147619D01*
X323733333Y78195238D01*
X323780952Y78242857D01*
X289519047Y85147619D02*
X289995238Y85147619D01*
X289995238Y86147619D01*
X288661904Y85147619D02*
X289233333Y85147619D01*
X288947619Y85147619D02*
X288947619Y86147619D01*
X289042857Y86004761D01*
X289138095Y85909523D01*
X289233333Y85861904D01*
X288042857Y86147619D02*
X287947619Y86147619D01*
X287852380Y86100000D01*
X287804761Y86052380D01*
X287757142Y85957142D01*
X287709523Y85766666D01*
X287709523Y85528571D01*
X287757142Y85338095D01*
X287804761Y85242857D01*
X287852380Y85195238D01*
X287947619Y85147619D01*
X288042857Y85147619D01*
X288138095Y85195238D01*
X288185714Y85242857D01*
X288233333Y85338095D01*
X288280952Y85528571D01*
X288280952Y85766666D01*
X288233333Y85957142D01*
X288185714Y86052380D01*
X288138095Y86100000D01*
X288042857Y86147619D01*
X286757142Y85147619D02*
X287328571Y85147619D01*
X287042857Y85147619D02*
X287042857Y86147619D01*
X287138095Y86004761D01*
X287233333Y85909523D01*
X287328571Y85861904D01*
X303519047Y85147619D02*
X303995238Y85147619D01*
X303995238Y86147619D01*
X302661904Y85147619D02*
X303233333Y85147619D01*
X302947619Y85147619D02*
X302947619Y86147619D01*
X303042857Y86004761D01*
X303138095Y85909523D01*
X303233333Y85861904D01*
X302042857Y86147619D02*
X301947619Y86147619D01*
X301852380Y86100000D01*
X301804761Y86052380D01*
X301757142Y85957142D01*
X301709523Y85766666D01*
X301709523Y85528571D01*
X301757142Y85338095D01*
X301804761Y85242857D01*
X301852380Y85195238D01*
X301947619Y85147619D01*
X302042857Y85147619D01*
X302138095Y85195238D01*
X302185714Y85242857D01*
X302233333Y85338095D01*
X302280952Y85528571D01*
X302280952Y85766666D01*
X302233333Y85957142D01*
X302185714Y86052380D01*
X302138095Y86100000D01*
X302042857Y86147619D01*
X301328571Y86052380D02*
X301280952Y86100000D01*
X301185714Y86147619D01*
X300947619Y86147619D01*
X300852380Y86100000D01*
X300804761Y86052380D01*
X300757142Y85957142D01*
X300757142Y85861904D01*
X300804761Y85719047D01*
X301376190Y85147619D01*
X300757142Y85147619D01*
X317519047Y85147619D02*
X317995238Y85147619D01*
X317995238Y86147619D01*
X316661904Y85147619D02*
X317233333Y85147619D01*
X316947619Y85147619D02*
X316947619Y86147619D01*
X317042857Y86004761D01*
X317138095Y85909523D01*
X317233333Y85861904D01*
X316042857Y86147619D02*
X315947619Y86147619D01*
X315852380Y86100000D01*
X315804761Y86052380D01*
X315757142Y85957142D01*
X315709523Y85766666D01*
X315709523Y85528571D01*
X315757142Y85338095D01*
X315804761Y85242857D01*
X315852380Y85195238D01*
X315947619Y85147619D01*
X316042857Y85147619D01*
X316138095Y85195238D01*
X316185714Y85242857D01*
X316233333Y85338095D01*
X316280952Y85528571D01*
X316280952Y85766666D01*
X316233333Y85957142D01*
X316185714Y86052380D01*
X316138095Y86100000D01*
X316042857Y86147619D01*
X315376190Y86147619D02*
X314757142Y86147619D01*
X315090476Y85766666D01*
X314947619Y85766666D01*
X314852380Y85719047D01*
X314804761Y85671428D01*
X314757142Y85576190D01*
X314757142Y85338095D01*
X314804761Y85242857D01*
X314852380Y85195238D01*
X314947619Y85147619D01*
X315233333Y85147619D01*
X315328571Y85195238D01*
X315376190Y85242857D01*
X331419047Y85147619D02*
X331895238Y85147619D01*
X331895238Y86147619D01*
X330561904Y85147619D02*
X331133333Y85147619D01*
X330847619Y85147619D02*
X330847619Y86147619D01*
X330942857Y86004761D01*
X331038095Y85909523D01*
X331133333Y85861904D01*
X329942857Y86147619D02*
X329847619Y86147619D01*
X329752380Y86100000D01*
X329704761Y86052380D01*
X329657142Y85957142D01*
X329609523Y85766666D01*
X329609523Y85528571D01*
X329657142Y85338095D01*
X329704761Y85242857D01*
X329752380Y85195238D01*
X329847619Y85147619D01*
X329942857Y85147619D01*
X330038095Y85195238D01*
X330085714Y85242857D01*
X330133333Y85338095D01*
X330180952Y85528571D01*
X330180952Y85766666D01*
X330133333Y85957142D01*
X330085714Y86052380D01*
X330038095Y86100000D01*
X329942857Y86147619D01*
X328752380Y85814285D02*
X328752380Y85147619D01*
X328990476Y86195238D02*
X329228571Y85480952D01*
X328609523Y85480952D01*
X198652380Y71819047D02*
X198176190Y72152380D01*
X198652380Y72390476D02*
X197652380Y72390476D01*
X197652380Y72009523D01*
X197700000Y71914285D01*
X197747619Y71866666D01*
X197842857Y71819047D01*
X197985714Y71819047D01*
X198080952Y71866666D01*
X198128571Y71914285D01*
X198176190Y72009523D01*
X198176190Y72390476D01*
X198652380Y70866666D02*
X198652380Y71438095D01*
X198652380Y71152380D02*
X197652380Y71152380D01*
X197795238Y71247619D01*
X197890476Y71342857D01*
X197938095Y71438095D01*
X198652380Y69914285D02*
X198652380Y70485714D01*
X198652380Y70200000D02*
X197652380Y70200000D01*
X197795238Y70295238D01*
X197890476Y70390476D01*
X197938095Y70485714D01*
X197652380Y69580952D02*
X197652380Y68914285D01*
X198652380Y69342857D01*
X194652380Y71819047D02*
X194176190Y72152380D01*
X194652380Y72390476D02*
X193652380Y72390476D01*
X193652380Y72009523D01*
X193700000Y71914285D01*
X193747619Y71866666D01*
X193842857Y71819047D01*
X193985714Y71819047D01*
X194080952Y71866666D01*
X194128571Y71914285D01*
X194176190Y72009523D01*
X194176190Y72390476D01*
X194652380Y70866666D02*
X194652380Y71438095D01*
X194652380Y71152380D02*
X193652380Y71152380D01*
X193795238Y71247619D01*
X193890476Y71342857D01*
X193938095Y71438095D01*
X194652380Y69914285D02*
X194652380Y70485714D01*
X194652380Y70200000D02*
X193652380Y70200000D01*
X193795238Y70295238D01*
X193890476Y70390476D01*
X193938095Y70485714D01*
X194080952Y69342857D02*
X194033333Y69438095D01*
X193985714Y69485714D01*
X193890476Y69533333D01*
X193842857Y69533333D01*
X193747619Y69485714D01*
X193700000Y69438095D01*
X193652380Y69342857D01*
X193652380Y69152380D01*
X193700000Y69057142D01*
X193747619Y69009523D01*
X193842857Y68961904D01*
X193890476Y68961904D01*
X193985714Y69009523D01*
X194033333Y69057142D01*
X194080952Y69152380D01*
X194080952Y69342857D01*
X194128571Y69438095D01*
X194176190Y69485714D01*
X194271428Y69533333D01*
X194461904Y69533333D01*
X194557142Y69485714D01*
X194604761Y69438095D01*
X194652380Y69342857D01*
X194652380Y69152380D01*
X194604761Y69057142D01*
X194557142Y69009523D01*
X194461904Y68961904D01*
X194271428Y68961904D01*
X194176190Y69009523D01*
X194128571Y69057142D01*
X194080952Y69152380D01*
X206152380Y71819047D02*
X205676190Y72152380D01*
X206152380Y72390476D02*
X205152380Y72390476D01*
X205152380Y72009523D01*
X205200000Y71914285D01*
X205247619Y71866666D01*
X205342857Y71819047D01*
X205485714Y71819047D01*
X205580952Y71866666D01*
X205628571Y71914285D01*
X205676190Y72009523D01*
X205676190Y72390476D01*
X206152380Y70866666D02*
X206152380Y71438095D01*
X206152380Y71152380D02*
X205152380Y71152380D01*
X205295238Y71247619D01*
X205390476Y71342857D01*
X205438095Y71438095D01*
X206152380Y69914285D02*
X206152380Y70485714D01*
X206152380Y70200000D02*
X205152380Y70200000D01*
X205295238Y70295238D01*
X205390476Y70390476D01*
X205438095Y70485714D01*
X206152380Y69438095D02*
X206152380Y69247619D01*
X206104761Y69152380D01*
X206057142Y69104761D01*
X205914285Y69009523D01*
X205723809Y68961904D01*
X205342857Y68961904D01*
X205247619Y69009523D01*
X205200000Y69057142D01*
X205152380Y69152380D01*
X205152380Y69342857D01*
X205200000Y69438095D01*
X205247619Y69485714D01*
X205342857Y69533333D01*
X205580952Y69533333D01*
X205676190Y69485714D01*
X205723809Y69438095D01*
X205771428Y69342857D01*
X205771428Y69152380D01*
X205723809Y69057142D01*
X205676190Y69009523D01*
X205580952Y68961904D01*
X202152380Y71819047D02*
X201676190Y72152380D01*
X202152380Y72390476D02*
X201152380Y72390476D01*
X201152380Y72009523D01*
X201200000Y71914285D01*
X201247619Y71866666D01*
X201342857Y71819047D01*
X201485714Y71819047D01*
X201580952Y71866666D01*
X201628571Y71914285D01*
X201676190Y72009523D01*
X201676190Y72390476D01*
X202152380Y70866666D02*
X202152380Y71438095D01*
X202152380Y71152380D02*
X201152380Y71152380D01*
X201295238Y71247619D01*
X201390476Y71342857D01*
X201438095Y71438095D01*
X201247619Y70485714D02*
X201200000Y70438095D01*
X201152380Y70342857D01*
X201152380Y70104761D01*
X201200000Y70009523D01*
X201247619Y69961904D01*
X201342857Y69914285D01*
X201438095Y69914285D01*
X201580952Y69961904D01*
X202152380Y70533333D01*
X202152380Y69914285D01*
X201152380Y69295238D02*
X201152380Y69200000D01*
X201200000Y69104761D01*
X201247619Y69057142D01*
X201342857Y69009523D01*
X201533333Y68961904D01*
X201771428Y68961904D01*
X201961904Y69009523D01*
X202057142Y69057142D01*
X202104761Y69104761D01*
X202152380Y69200000D01*
X202152380Y69295238D01*
X202104761Y69390476D01*
X202057142Y69438095D01*
X201961904Y69485714D01*
X201771428Y69533333D01*
X201533333Y69533333D01*
X201342857Y69485714D01*
X201247619Y69438095D01*
X201200000Y69390476D01*
X201152380Y69295238D01*
X212652380Y71819047D02*
X212176190Y72152380D01*
X212652380Y72390476D02*
X211652380Y72390476D01*
X211652380Y72009523D01*
X211700000Y71914285D01*
X211747619Y71866666D01*
X211842857Y71819047D01*
X211985714Y71819047D01*
X212080952Y71866666D01*
X212128571Y71914285D01*
X212176190Y72009523D01*
X212176190Y72390476D01*
X212652380Y70866666D02*
X212652380Y71438095D01*
X212652380Y71152380D02*
X211652380Y71152380D01*
X211795238Y71247619D01*
X211890476Y71342857D01*
X211938095Y71438095D01*
X211747619Y70485714D02*
X211700000Y70438095D01*
X211652380Y70342857D01*
X211652380Y70104761D01*
X211700000Y70009523D01*
X211747619Y69961904D01*
X211842857Y69914285D01*
X211938095Y69914285D01*
X212080952Y69961904D01*
X212652380Y70533333D01*
X212652380Y69914285D01*
X212652380Y68961904D02*
X212652380Y69533333D01*
X212652380Y69247619D02*
X211652380Y69247619D01*
X211795238Y69342857D01*
X211890476Y69438095D01*
X211938095Y69533333D01*
X208652380Y71819047D02*
X208176190Y72152380D01*
X208652380Y72390476D02*
X207652380Y72390476D01*
X207652380Y72009523D01*
X207700000Y71914285D01*
X207747619Y71866666D01*
X207842857Y71819047D01*
X207985714Y71819047D01*
X208080952Y71866666D01*
X208128571Y71914285D01*
X208176190Y72009523D01*
X208176190Y72390476D01*
X208652380Y70866666D02*
X208652380Y71438095D01*
X208652380Y71152380D02*
X207652380Y71152380D01*
X207795238Y71247619D01*
X207890476Y71342857D01*
X207938095Y71438095D01*
X207747619Y70485714D02*
X207700000Y70438095D01*
X207652380Y70342857D01*
X207652380Y70104761D01*
X207700000Y70009523D01*
X207747619Y69961904D01*
X207842857Y69914285D01*
X207938095Y69914285D01*
X208080952Y69961904D01*
X208652380Y70533333D01*
X208652380Y69914285D01*
X207747619Y69533333D02*
X207700000Y69485714D01*
X207652380Y69390476D01*
X207652380Y69152380D01*
X207700000Y69057142D01*
X207747619Y69009523D01*
X207842857Y68961904D01*
X207938095Y68961904D01*
X208080952Y69009523D01*
X208652380Y69580952D01*
X208652380Y68961904D01*
X220152380Y71819047D02*
X219676190Y72152380D01*
X220152380Y72390476D02*
X219152380Y72390476D01*
X219152380Y72009523D01*
X219200000Y71914285D01*
X219247619Y71866666D01*
X219342857Y71819047D01*
X219485714Y71819047D01*
X219580952Y71866666D01*
X219628571Y71914285D01*
X219676190Y72009523D01*
X219676190Y72390476D01*
X220152380Y70866666D02*
X220152380Y71438095D01*
X220152380Y71152380D02*
X219152380Y71152380D01*
X219295238Y71247619D01*
X219390476Y71342857D01*
X219438095Y71438095D01*
X219247619Y70485714D02*
X219200000Y70438095D01*
X219152380Y70342857D01*
X219152380Y70104761D01*
X219200000Y70009523D01*
X219247619Y69961904D01*
X219342857Y69914285D01*
X219438095Y69914285D01*
X219580952Y69961904D01*
X220152380Y70533333D01*
X220152380Y69914285D01*
X219152380Y69580952D02*
X219152380Y68961904D01*
X219533333Y69295238D01*
X219533333Y69152380D01*
X219580952Y69057142D01*
X219628571Y69009523D01*
X219723809Y68961904D01*
X219961904Y68961904D01*
X220057142Y69009523D01*
X220104761Y69057142D01*
X220152380Y69152380D01*
X220152380Y69438095D01*
X220104761Y69533333D01*
X220057142Y69580952D01*
X216152380Y71819047D02*
X215676190Y72152380D01*
X216152380Y72390476D02*
X215152380Y72390476D01*
X215152380Y72009523D01*
X215200000Y71914285D01*
X215247619Y71866666D01*
X215342857Y71819047D01*
X215485714Y71819047D01*
X215580952Y71866666D01*
X215628571Y71914285D01*
X215676190Y72009523D01*
X215676190Y72390476D01*
X216152380Y70866666D02*
X216152380Y71438095D01*
X216152380Y71152380D02*
X215152380Y71152380D01*
X215295238Y71247619D01*
X215390476Y71342857D01*
X215438095Y71438095D01*
X215247619Y70485714D02*
X215200000Y70438095D01*
X215152380Y70342857D01*
X215152380Y70104761D01*
X215200000Y70009523D01*
X215247619Y69961904D01*
X215342857Y69914285D01*
X215438095Y69914285D01*
X215580952Y69961904D01*
X216152380Y70533333D01*
X216152380Y69914285D01*
X215485714Y69057142D02*
X216152380Y69057142D01*
X215104761Y69295238D02*
X215819047Y69533333D01*
X215819047Y68914285D01*
X226652380Y71819047D02*
X226176190Y72152380D01*
X226652380Y72390476D02*
X225652380Y72390476D01*
X225652380Y72009523D01*
X225700000Y71914285D01*
X225747619Y71866666D01*
X225842857Y71819047D01*
X225985714Y71819047D01*
X226080952Y71866666D01*
X226128571Y71914285D01*
X226176190Y72009523D01*
X226176190Y72390476D01*
X226652380Y70866666D02*
X226652380Y71438095D01*
X226652380Y71152380D02*
X225652380Y71152380D01*
X225795238Y71247619D01*
X225890476Y71342857D01*
X225938095Y71438095D01*
X225747619Y70485714D02*
X225700000Y70438095D01*
X225652380Y70342857D01*
X225652380Y70104761D01*
X225700000Y70009523D01*
X225747619Y69961904D01*
X225842857Y69914285D01*
X225938095Y69914285D01*
X226080952Y69961904D01*
X226652380Y70533333D01*
X226652380Y69914285D01*
X225652380Y69009523D02*
X225652380Y69485714D01*
X226128571Y69533333D01*
X226080952Y69485714D01*
X226033333Y69390476D01*
X226033333Y69152380D01*
X226080952Y69057142D01*
X226128571Y69009523D01*
X226223809Y68961904D01*
X226461904Y68961904D01*
X226557142Y69009523D01*
X226604761Y69057142D01*
X226652380Y69152380D01*
X226652380Y69390476D01*
X226604761Y69485714D01*
X226557142Y69533333D01*
X222752380Y71819047D02*
X222276190Y72152380D01*
X222752380Y72390476D02*
X221752380Y72390476D01*
X221752380Y72009523D01*
X221800000Y71914285D01*
X221847619Y71866666D01*
X221942857Y71819047D01*
X222085714Y71819047D01*
X222180952Y71866666D01*
X222228571Y71914285D01*
X222276190Y72009523D01*
X222276190Y72390476D01*
X222752380Y70866666D02*
X222752380Y71438095D01*
X222752380Y71152380D02*
X221752380Y71152380D01*
X221895238Y71247619D01*
X221990476Y71342857D01*
X222038095Y71438095D01*
X221847619Y70485714D02*
X221800000Y70438095D01*
X221752380Y70342857D01*
X221752380Y70104761D01*
X221800000Y70009523D01*
X221847619Y69961904D01*
X221942857Y69914285D01*
X222038095Y69914285D01*
X222180952Y69961904D01*
X222752380Y70533333D01*
X222752380Y69914285D01*
X221752380Y69057142D02*
X221752380Y69247619D01*
X221800000Y69342857D01*
X221847619Y69390476D01*
X221990476Y69485714D01*
X222180952Y69533333D01*
X222561904Y69533333D01*
X222657142Y69485714D01*
X222704761Y69438095D01*
X222752380Y69342857D01*
X222752380Y69152380D01*
X222704761Y69057142D01*
X222657142Y69009523D01*
X222561904Y68961904D01*
X222323809Y68961904D01*
X222228571Y69009523D01*
X222180952Y69057142D01*
X222133333Y69152380D01*
X222133333Y69342857D01*
X222180952Y69438095D01*
X222228571Y69485714D01*
X222323809Y69533333D01*
X234152380Y71819047D02*
X233676190Y72152380D01*
X234152380Y72390476D02*
X233152380Y72390476D01*
X233152380Y72009523D01*
X233200000Y71914285D01*
X233247619Y71866666D01*
X233342857Y71819047D01*
X233485714Y71819047D01*
X233580952Y71866666D01*
X233628571Y71914285D01*
X233676190Y72009523D01*
X233676190Y72390476D01*
X234152380Y70866666D02*
X234152380Y71438095D01*
X234152380Y71152380D02*
X233152380Y71152380D01*
X233295238Y71247619D01*
X233390476Y71342857D01*
X233438095Y71438095D01*
X233247619Y70485714D02*
X233200000Y70438095D01*
X233152380Y70342857D01*
X233152380Y70104761D01*
X233200000Y70009523D01*
X233247619Y69961904D01*
X233342857Y69914285D01*
X233438095Y69914285D01*
X233580952Y69961904D01*
X234152380Y70533333D01*
X234152380Y69914285D01*
X233152380Y69580952D02*
X233152380Y68914285D01*
X234152380Y69342857D01*
X230252380Y71819047D02*
X229776190Y72152380D01*
X230252380Y72390476D02*
X229252380Y72390476D01*
X229252380Y72009523D01*
X229300000Y71914285D01*
X229347619Y71866666D01*
X229442857Y71819047D01*
X229585714Y71819047D01*
X229680952Y71866666D01*
X229728571Y71914285D01*
X229776190Y72009523D01*
X229776190Y72390476D01*
X230252380Y70866666D02*
X230252380Y71438095D01*
X230252380Y71152380D02*
X229252380Y71152380D01*
X229395238Y71247619D01*
X229490476Y71342857D01*
X229538095Y71438095D01*
X229347619Y70485714D02*
X229300000Y70438095D01*
X229252380Y70342857D01*
X229252380Y70104761D01*
X229300000Y70009523D01*
X229347619Y69961904D01*
X229442857Y69914285D01*
X229538095Y69914285D01*
X229680952Y69961904D01*
X230252380Y70533333D01*
X230252380Y69914285D01*
X229680952Y69342857D02*
X229633333Y69438095D01*
X229585714Y69485714D01*
X229490476Y69533333D01*
X229442857Y69533333D01*
X229347619Y69485714D01*
X229300000Y69438095D01*
X229252380Y69342857D01*
X229252380Y69152380D01*
X229300000Y69057142D01*
X229347619Y69009523D01*
X229442857Y68961904D01*
X229490476Y68961904D01*
X229585714Y69009523D01*
X229633333Y69057142D01*
X229680952Y69152380D01*
X229680952Y69342857D01*
X229728571Y69438095D01*
X229776190Y69485714D01*
X229871428Y69533333D01*
X230061904Y69533333D01*
X230157142Y69485714D01*
X230204761Y69438095D01*
X230252380Y69342857D01*
X230252380Y69152380D01*
X230204761Y69057142D01*
X230157142Y69009523D01*
X230061904Y68961904D01*
X229871428Y68961904D01*
X229776190Y69009523D01*
X229728571Y69057142D01*
X229680952Y69152380D01*
X240652380Y71819047D02*
X240176190Y72152380D01*
X240652380Y72390476D02*
X239652380Y72390476D01*
X239652380Y72009523D01*
X239700000Y71914285D01*
X239747619Y71866666D01*
X239842857Y71819047D01*
X239985714Y71819047D01*
X240080952Y71866666D01*
X240128571Y71914285D01*
X240176190Y72009523D01*
X240176190Y72390476D01*
X240652380Y70866666D02*
X240652380Y71438095D01*
X240652380Y71152380D02*
X239652380Y71152380D01*
X239795238Y71247619D01*
X239890476Y71342857D01*
X239938095Y71438095D01*
X239747619Y70485714D02*
X239700000Y70438095D01*
X239652380Y70342857D01*
X239652380Y70104761D01*
X239700000Y70009523D01*
X239747619Y69961904D01*
X239842857Y69914285D01*
X239938095Y69914285D01*
X240080952Y69961904D01*
X240652380Y70533333D01*
X240652380Y69914285D01*
X240652380Y69438095D02*
X240652380Y69247619D01*
X240604761Y69152380D01*
X240557142Y69104761D01*
X240414285Y69009523D01*
X240223809Y68961904D01*
X239842857Y68961904D01*
X239747619Y69009523D01*
X239700000Y69057142D01*
X239652380Y69152380D01*
X239652380Y69342857D01*
X239700000Y69438095D01*
X239747619Y69485714D01*
X239842857Y69533333D01*
X240080952Y69533333D01*
X240176190Y69485714D01*
X240223809Y69438095D01*
X240271428Y69342857D01*
X240271428Y69152380D01*
X240223809Y69057142D01*
X240176190Y69009523D01*
X240080952Y68961904D01*
X236752380Y71819047D02*
X236276190Y72152380D01*
X236752380Y72390476D02*
X235752380Y72390476D01*
X235752380Y72009523D01*
X235800000Y71914285D01*
X235847619Y71866666D01*
X235942857Y71819047D01*
X236085714Y71819047D01*
X236180952Y71866666D01*
X236228571Y71914285D01*
X236276190Y72009523D01*
X236276190Y72390476D01*
X236752380Y70866666D02*
X236752380Y71438095D01*
X236752380Y71152380D02*
X235752380Y71152380D01*
X235895238Y71247619D01*
X235990476Y71342857D01*
X236038095Y71438095D01*
X235752380Y70533333D02*
X235752380Y69914285D01*
X236133333Y70247619D01*
X236133333Y70104761D01*
X236180952Y70009523D01*
X236228571Y69961904D01*
X236323809Y69914285D01*
X236561904Y69914285D01*
X236657142Y69961904D01*
X236704761Y70009523D01*
X236752380Y70104761D01*
X236752380Y70390476D01*
X236704761Y70485714D01*
X236657142Y70533333D01*
X235752380Y69295238D02*
X235752380Y69200000D01*
X235800000Y69104761D01*
X235847619Y69057142D01*
X235942857Y69009523D01*
X236133333Y68961904D01*
X236371428Y68961904D01*
X236561904Y69009523D01*
X236657142Y69057142D01*
X236704761Y69104761D01*
X236752380Y69200000D01*
X236752380Y69295238D01*
X236704761Y69390476D01*
X236657142Y69438095D01*
X236561904Y69485714D01*
X236371428Y69533333D01*
X236133333Y69533333D01*
X235942857Y69485714D01*
X235847619Y69438095D01*
X235800000Y69390476D01*
X235752380Y69295238D01*
X248252380Y71819047D02*
X247776190Y72152380D01*
X248252380Y72390476D02*
X247252380Y72390476D01*
X247252380Y72009523D01*
X247300000Y71914285D01*
X247347619Y71866666D01*
X247442857Y71819047D01*
X247585714Y71819047D01*
X247680952Y71866666D01*
X247728571Y71914285D01*
X247776190Y72009523D01*
X247776190Y72390476D01*
X248252380Y70866666D02*
X248252380Y71438095D01*
X248252380Y71152380D02*
X247252380Y71152380D01*
X247395238Y71247619D01*
X247490476Y71342857D01*
X247538095Y71438095D01*
X247252380Y70533333D02*
X247252380Y69914285D01*
X247633333Y70247619D01*
X247633333Y70104761D01*
X247680952Y70009523D01*
X247728571Y69961904D01*
X247823809Y69914285D01*
X248061904Y69914285D01*
X248157142Y69961904D01*
X248204761Y70009523D01*
X248252380Y70104761D01*
X248252380Y70390476D01*
X248204761Y70485714D01*
X248157142Y70533333D01*
X248252380Y68961904D02*
X248252380Y69533333D01*
X248252380Y69247619D02*
X247252380Y69247619D01*
X247395238Y69342857D01*
X247490476Y69438095D01*
X247538095Y69533333D01*
X244252380Y71819047D02*
X243776190Y72152380D01*
X244252380Y72390476D02*
X243252380Y72390476D01*
X243252380Y72009523D01*
X243300000Y71914285D01*
X243347619Y71866666D01*
X243442857Y71819047D01*
X243585714Y71819047D01*
X243680952Y71866666D01*
X243728571Y71914285D01*
X243776190Y72009523D01*
X243776190Y72390476D01*
X244252380Y70866666D02*
X244252380Y71438095D01*
X244252380Y71152380D02*
X243252380Y71152380D01*
X243395238Y71247619D01*
X243490476Y71342857D01*
X243538095Y71438095D01*
X243252380Y70533333D02*
X243252380Y69914285D01*
X243633333Y70247619D01*
X243633333Y70104761D01*
X243680952Y70009523D01*
X243728571Y69961904D01*
X243823809Y69914285D01*
X244061904Y69914285D01*
X244157142Y69961904D01*
X244204761Y70009523D01*
X244252380Y70104761D01*
X244252380Y70390476D01*
X244204761Y70485714D01*
X244157142Y70533333D01*
X243347619Y69533333D02*
X243300000Y69485714D01*
X243252380Y69390476D01*
X243252380Y69152380D01*
X243300000Y69057142D01*
X243347619Y69009523D01*
X243442857Y68961904D01*
X243538095Y68961904D01*
X243680952Y69009523D01*
X244252380Y69580952D01*
X244252380Y68961904D01*
X343666666Y79142857D02*
X343714285Y79095238D01*
X343857142Y79047619D01*
X343952380Y79047619D01*
X344095238Y79095238D01*
X344190476Y79190476D01*
X344238095Y79285714D01*
X344285714Y79476190D01*
X344285714Y79619047D01*
X344238095Y79809523D01*
X344190476Y79904761D01*
X344095238Y80000000D01*
X343952380Y80047619D01*
X343857142Y80047619D01*
X343714285Y80000000D01*
X343666666Y79952380D01*
X342714285Y79047619D02*
X343285714Y79047619D01*
X343000000Y79047619D02*
X343000000Y80047619D01*
X343095238Y79904761D01*
X343190476Y79809523D01*
X343285714Y79761904D01*
X344566666Y70842857D02*
X344614285Y70795238D01*
X344757142Y70747619D01*
X344852380Y70747619D01*
X344995238Y70795238D01*
X345090476Y70890476D01*
X345138095Y70985714D01*
X345185714Y71176190D01*
X345185714Y71319047D01*
X345138095Y71509523D01*
X345090476Y71604761D01*
X344995238Y71700000D01*
X344852380Y71747619D01*
X344757142Y71747619D01*
X344614285Y71700000D01*
X344566666Y71652380D01*
X344185714Y71652380D02*
X344138095Y71700000D01*
X344042857Y71747619D01*
X343804761Y71747619D01*
X343709523Y71700000D01*
X343661904Y71652380D01*
X343614285Y71557142D01*
X343614285Y71461904D01*
X343661904Y71319047D01*
X344233333Y70747619D01*
X343614285Y70747619D01*
X341166666Y69642857D02*
X341214285Y69595238D01*
X341357142Y69547619D01*
X341452380Y69547619D01*
X341595238Y69595238D01*
X341690476Y69690476D01*
X341738095Y69785714D01*
X341785714Y69976190D01*
X341785714Y70119047D01*
X341738095Y70309523D01*
X341690476Y70404761D01*
X341595238Y70500000D01*
X341452380Y70547619D01*
X341357142Y70547619D01*
X341214285Y70500000D01*
X341166666Y70452380D01*
X340833333Y70547619D02*
X340214285Y70547619D01*
X340547619Y70166666D01*
X340404761Y70166666D01*
X340309523Y70119047D01*
X340261904Y70071428D01*
X340214285Y69976190D01*
X340214285Y69738095D01*
X340261904Y69642857D01*
X340309523Y69595238D01*
X340404761Y69547619D01*
X340690476Y69547619D01*
X340785714Y69595238D01*
X340833333Y69642857D01*
X333057142Y77166666D02*
X333104761Y77214285D01*
X333152380Y77357142D01*
X333152380Y77452380D01*
X333104761Y77595238D01*
X333009523Y77690476D01*
X332914285Y77738095D01*
X332723809Y77785714D01*
X332580952Y77785714D01*
X332390476Y77738095D01*
X332295238Y77690476D01*
X332200000Y77595238D01*
X332152380Y77452380D01*
X332152380Y77357142D01*
X332200000Y77214285D01*
X332247619Y77166666D01*
X332485714Y76309523D02*
X333152380Y76309523D01*
X332104761Y76547619D02*
X332819047Y76785714D01*
X332819047Y76166666D01*
X339438095Y83547619D02*
X339438095Y84547619D01*
X339200000Y84547619D01*
X339057142Y84500000D01*
X338961904Y84404761D01*
X338914285Y84309523D01*
X338866666Y84119047D01*
X338866666Y83976190D01*
X338914285Y83785714D01*
X338961904Y83690476D01*
X339057142Y83595238D01*
X339200000Y83547619D01*
X339438095Y83547619D01*
X337914285Y83547619D02*
X338485714Y83547619D01*
X338200000Y83547619D02*
X338200000Y84547619D01*
X338295238Y84404761D01*
X338390476Y84309523D01*
X338485714Y84261904D01*
X338176190Y78747619D02*
X338176190Y79747619D01*
X337128571Y78842857D02*
X337176190Y78795238D01*
X337319047Y78747619D01*
X337414285Y78747619D01*
X337557142Y78795238D01*
X337652380Y78890476D01*
X337700000Y78985714D01*
X337747619Y79176190D01*
X337747619Y79319047D01*
X337700000Y79509523D01*
X337652380Y79604761D01*
X337557142Y79700000D01*
X337414285Y79747619D01*
X337319047Y79747619D01*
X337176190Y79700000D01*
X337128571Y79652380D01*
X336176190Y78747619D02*
X336747619Y78747619D01*
X336461904Y78747619D02*
X336461904Y79747619D01*
X336557142Y79604761D01*
X336652380Y79509523D01*
X336747619Y79461904D01*
X331452380Y75728571D02*
X330452380Y75728571D01*
X331357142Y74680952D02*
X331404761Y74728571D01*
X331452380Y74871428D01*
X331452380Y74966666D01*
X331404761Y75109523D01*
X331309523Y75204761D01*
X331214285Y75252380D01*
X331023809Y75300000D01*
X330880952Y75300000D01*
X330690476Y75252380D01*
X330595238Y75204761D01*
X330500000Y75109523D01*
X330452380Y74966666D01*
X330452380Y74871428D01*
X330500000Y74728571D01*
X330547619Y74680952D01*
X331452380Y73728571D02*
X331452380Y74300000D01*
X331452380Y74014285D02*
X330452380Y74014285D01*
X330595238Y74109523D01*
X330690476Y74204761D01*
X330738095Y74300000D01*
X330452380Y73109523D02*
X330452380Y73014285D01*
X330500000Y72919047D01*
X330547619Y72871428D01*
X330642857Y72823809D01*
X330833333Y72776190D01*
X331071428Y72776190D01*
X331261904Y72823809D01*
X331357142Y72871428D01*
X331404761Y72919047D01*
X331452380Y73014285D01*
X331452380Y73109523D01*
X331404761Y73204761D01*
X331357142Y73252380D01*
X331261904Y73300000D01*
X331071428Y73347619D01*
X330833333Y73347619D01*
X330642857Y73300000D01*
X330547619Y73252380D01*
X330500000Y73204761D01*
X330452380Y73109523D01*
X331452380Y71823809D02*
X331452380Y72395238D01*
X331452380Y72109523D02*
X330452380Y72109523D01*
X330595238Y72204761D01*
X330690476Y72300000D01*
X330738095Y72395238D01*
X338952380Y82266666D02*
X338476190Y82600000D01*
X338952380Y82838095D02*
X337952380Y82838095D01*
X337952380Y82457142D01*
X338000000Y82361904D01*
X338047619Y82314285D01*
X338142857Y82266666D01*
X338285714Y82266666D01*
X338380952Y82314285D01*
X338428571Y82361904D01*
X338476190Y82457142D01*
X338476190Y82838095D01*
X338952380Y81314285D02*
X338952380Y81885714D01*
X338952380Y81600000D02*
X337952380Y81600000D01*
X338095238Y81695238D01*
X338190476Y81790476D01*
X338238095Y81885714D01*
X344566666Y71947619D02*
X344900000Y72423809D01*
X345138095Y71947619D02*
X345138095Y72947619D01*
X344757142Y72947619D01*
X344661904Y72900000D01*
X344614285Y72852380D01*
X344566666Y72757142D01*
X344566666Y72614285D01*
X344614285Y72519047D01*
X344661904Y72471428D01*
X344757142Y72423809D01*
X345138095Y72423809D01*
X344185714Y72852380D02*
X344138095Y72900000D01*
X344042857Y72947619D01*
X343804761Y72947619D01*
X343709523Y72900000D01*
X343661904Y72852380D01*
X343614285Y72757142D01*
X343614285Y72661904D01*
X343661904Y72519047D01*
X344233333Y71947619D01*
X343614285Y71947619D01*
X344566666Y69547619D02*
X344900000Y70023809D01*
X345138095Y69547619D02*
X345138095Y70547619D01*
X344757142Y70547619D01*
X344661904Y70500000D01*
X344614285Y70452380D01*
X344566666Y70357142D01*
X344566666Y70214285D01*
X344614285Y70119047D01*
X344661904Y70071428D01*
X344757142Y70023809D01*
X345138095Y70023809D01*
X344233333Y70547619D02*
X343614285Y70547619D01*
X343947619Y70166666D01*
X343804761Y70166666D01*
X343709523Y70119047D01*
X343661904Y70071428D01*
X343614285Y69976190D01*
X343614285Y69738095D01*
X343661904Y69642857D01*
X343709523Y69595238D01*
X343804761Y69547619D01*
X344090476Y69547619D01*
X344185714Y69595238D01*
X344233333Y69642857D01*
X341066666Y71947619D02*
X341400000Y72423809D01*
X341638095Y71947619D02*
X341638095Y72947619D01*
X341257142Y72947619D01*
X341161904Y72900000D01*
X341114285Y72852380D01*
X341066666Y72757142D01*
X341066666Y72614285D01*
X341114285Y72519047D01*
X341161904Y72471428D01*
X341257142Y72423809D01*
X341638095Y72423809D01*
X340209523Y72614285D02*
X340209523Y71947619D01*
X340447619Y72995238D02*
X340685714Y72280952D01*
X340066666Y72280952D01*
X341066666Y70747619D02*
X341400000Y71223809D01*
X341638095Y70747619D02*
X341638095Y71747619D01*
X341257142Y71747619D01*
X341161904Y71700000D01*
X341114285Y71652380D01*
X341066666Y71557142D01*
X341066666Y71414285D01*
X341114285Y71319047D01*
X341161904Y71271428D01*
X341257142Y71223809D01*
X341638095Y71223809D01*
X340161904Y71747619D02*
X340638095Y71747619D01*
X340685714Y71271428D01*
X340638095Y71319047D01*
X340542857Y71366666D01*
X340304761Y71366666D01*
X340209523Y71319047D01*
X340161904Y71271428D01*
X340114285Y71176190D01*
X340114285Y70938095D01*
X340161904Y70842857D01*
X340209523Y70795238D01*
X340304761Y70747619D01*
X340542857Y70747619D01*
X340638095Y70795238D01*
X340685714Y70842857D01*
X337566666Y71947619D02*
X337900000Y72423809D01*
X338138095Y71947619D02*
X338138095Y72947619D01*
X337757142Y72947619D01*
X337661904Y72900000D01*
X337614285Y72852380D01*
X337566666Y72757142D01*
X337566666Y72614285D01*
X337614285Y72519047D01*
X337661904Y72471428D01*
X337757142Y72423809D01*
X338138095Y72423809D01*
X336709523Y72947619D02*
X336900000Y72947619D01*
X336995238Y72900000D01*
X337042857Y72852380D01*
X337138095Y72709523D01*
X337185714Y72519047D01*
X337185714Y72138095D01*
X337138095Y72042857D01*
X337090476Y71995238D01*
X336995238Y71947619D01*
X336804761Y71947619D01*
X336709523Y71995238D01*
X336661904Y72042857D01*
X336614285Y72138095D01*
X336614285Y72376190D01*
X336661904Y72471428D01*
X336709523Y72519047D01*
X336804761Y72566666D01*
X336995238Y72566666D01*
X337090476Y72519047D01*
X337138095Y72471428D01*
X337185714Y72376190D01*
X277057142Y80042857D02*
X277104761Y80090476D01*
X277152380Y80233333D01*
X277152380Y80328571D01*
X277104761Y80471428D01*
X277009523Y80566666D01*
X276914285Y80614285D01*
X276723809Y80661904D01*
X276580952Y80661904D01*
X276390476Y80614285D01*
X276295238Y80566666D01*
X276200000Y80471428D01*
X276152380Y80328571D01*
X276152380Y80233333D01*
X276200000Y80090476D01*
X276247619Y80042857D01*
X277152380Y79090476D02*
X277152380Y79661904D01*
X277152380Y79376190D02*
X276152380Y79376190D01*
X276295238Y79471428D01*
X276390476Y79566666D01*
X276438095Y79661904D01*
X276152380Y78757142D02*
X276152380Y78090476D01*
X277152380Y78519047D01*
X291057142Y80042857D02*
X291104761Y80090476D01*
X291152380Y80233333D01*
X291152380Y80328571D01*
X291104761Y80471428D01*
X291009523Y80566666D01*
X290914285Y80614285D01*
X290723809Y80661904D01*
X290580952Y80661904D01*
X290390476Y80614285D01*
X290295238Y80566666D01*
X290200000Y80471428D01*
X290152380Y80328571D01*
X290152380Y80233333D01*
X290200000Y80090476D01*
X290247619Y80042857D01*
X291152380Y79090476D02*
X291152380Y79661904D01*
X291152380Y79376190D02*
X290152380Y79376190D01*
X290295238Y79471428D01*
X290390476Y79566666D01*
X290438095Y79661904D01*
X290580952Y78519047D02*
X290533333Y78614285D01*
X290485714Y78661904D01*
X290390476Y78709523D01*
X290342857Y78709523D01*
X290247619Y78661904D01*
X290200000Y78614285D01*
X290152380Y78519047D01*
X290152380Y78328571D01*
X290200000Y78233333D01*
X290247619Y78185714D01*
X290342857Y78138095D01*
X290390476Y78138095D01*
X290485714Y78185714D01*
X290533333Y78233333D01*
X290580952Y78328571D01*
X290580952Y78519047D01*
X290628571Y78614285D01*
X290676190Y78661904D01*
X290771428Y78709523D01*
X290961904Y78709523D01*
X291057142Y78661904D01*
X291104761Y78614285D01*
X291152380Y78519047D01*
X291152380Y78328571D01*
X291104761Y78233333D01*
X291057142Y78185714D01*
X290961904Y78138095D01*
X290771428Y78138095D01*
X290676190Y78185714D01*
X290628571Y78233333D01*
X290580952Y78328571D01*
X305057142Y80042857D02*
X305104761Y80090476D01*
X305152380Y80233333D01*
X305152380Y80328571D01*
X305104761Y80471428D01*
X305009523Y80566666D01*
X304914285Y80614285D01*
X304723809Y80661904D01*
X304580952Y80661904D01*
X304390476Y80614285D01*
X304295238Y80566666D01*
X304200000Y80471428D01*
X304152380Y80328571D01*
X304152380Y80233333D01*
X304200000Y80090476D01*
X304247619Y80042857D01*
X305152380Y79090476D02*
X305152380Y79661904D01*
X305152380Y79376190D02*
X304152380Y79376190D01*
X304295238Y79471428D01*
X304390476Y79566666D01*
X304438095Y79661904D01*
X305152380Y78614285D02*
X305152380Y78423809D01*
X305104761Y78328571D01*
X305057142Y78280952D01*
X304914285Y78185714D01*
X304723809Y78138095D01*
X304342857Y78138095D01*
X304247619Y78185714D01*
X304200000Y78233333D01*
X304152380Y78328571D01*
X304152380Y78519047D01*
X304200000Y78614285D01*
X304247619Y78661904D01*
X304342857Y78709523D01*
X304580952Y78709523D01*
X304676190Y78661904D01*
X304723809Y78614285D01*
X304771428Y78519047D01*
X304771428Y78328571D01*
X304723809Y78233333D01*
X304676190Y78185714D01*
X304580952Y78138095D01*
X319257142Y80042857D02*
X319304761Y80090476D01*
X319352380Y80233333D01*
X319352380Y80328571D01*
X319304761Y80471428D01*
X319209523Y80566666D01*
X319114285Y80614285D01*
X318923809Y80661904D01*
X318780952Y80661904D01*
X318590476Y80614285D01*
X318495238Y80566666D01*
X318400000Y80471428D01*
X318352380Y80328571D01*
X318352380Y80233333D01*
X318400000Y80090476D01*
X318447619Y80042857D01*
X318447619Y79661904D02*
X318400000Y79614285D01*
X318352380Y79519047D01*
X318352380Y79280952D01*
X318400000Y79185714D01*
X318447619Y79138095D01*
X318542857Y79090476D01*
X318638095Y79090476D01*
X318780952Y79138095D01*
X319352380Y79709523D01*
X319352380Y79090476D01*
X318352380Y78471428D02*
X318352380Y78376190D01*
X318400000Y78280952D01*
X318447619Y78233333D01*
X318542857Y78185714D01*
X318733333Y78138095D01*
X318971428Y78138095D01*
X319161904Y78185714D01*
X319257142Y78233333D01*
X319304761Y78280952D01*
X319352380Y78376190D01*
X319352380Y78471428D01*
X319304761Y78566666D01*
X319257142Y78614285D01*
X319161904Y78661904D01*
X318971428Y78709523D01*
X318733333Y78709523D01*
X318542857Y78661904D01*
X318447619Y78614285D01*
X318400000Y78566666D01*
X318352380Y78471428D01*
X277152380Y83542857D02*
X276676190Y83876190D01*
X277152380Y84114285D02*
X276152380Y84114285D01*
X276152380Y83733333D01*
X276200000Y83638095D01*
X276247619Y83590476D01*
X276342857Y83542857D01*
X276485714Y83542857D01*
X276580952Y83590476D01*
X276628571Y83638095D01*
X276676190Y83733333D01*
X276676190Y84114285D01*
X276247619Y83161904D02*
X276200000Y83114285D01*
X276152380Y83019047D01*
X276152380Y82780952D01*
X276200000Y82685714D01*
X276247619Y82638095D01*
X276342857Y82590476D01*
X276438095Y82590476D01*
X276580952Y82638095D01*
X277152380Y83209523D01*
X277152380Y82590476D01*
X276152380Y81685714D02*
X276152380Y82161904D01*
X276628571Y82209523D01*
X276580952Y82161904D01*
X276533333Y82066666D01*
X276533333Y81828571D01*
X276580952Y81733333D01*
X276628571Y81685714D01*
X276723809Y81638095D01*
X276961904Y81638095D01*
X277057142Y81685714D01*
X277104761Y81733333D01*
X277152380Y81828571D01*
X277152380Y82066666D01*
X277104761Y82161904D01*
X277057142Y82209523D01*
X291152380Y83642857D02*
X290676190Y83976190D01*
X291152380Y84214285D02*
X290152380Y84214285D01*
X290152380Y83833333D01*
X290200000Y83738095D01*
X290247619Y83690476D01*
X290342857Y83642857D01*
X290485714Y83642857D01*
X290580952Y83690476D01*
X290628571Y83738095D01*
X290676190Y83833333D01*
X290676190Y84214285D01*
X290247619Y83261904D02*
X290200000Y83214285D01*
X290152380Y83119047D01*
X290152380Y82880952D01*
X290200000Y82785714D01*
X290247619Y82738095D01*
X290342857Y82690476D01*
X290438095Y82690476D01*
X290580952Y82738095D01*
X291152380Y83309523D01*
X291152380Y82690476D01*
X290152380Y81833333D02*
X290152380Y82023809D01*
X290200000Y82119047D01*
X290247619Y82166666D01*
X290390476Y82261904D01*
X290580952Y82309523D01*
X290961904Y82309523D01*
X291057142Y82261904D01*
X291104761Y82214285D01*
X291152380Y82119047D01*
X291152380Y81928571D01*
X291104761Y81833333D01*
X291057142Y81785714D01*
X290961904Y81738095D01*
X290723809Y81738095D01*
X290628571Y81785714D01*
X290580952Y81833333D01*
X290533333Y81928571D01*
X290533333Y82119047D01*
X290580952Y82214285D01*
X290628571Y82261904D01*
X290723809Y82309523D01*
X305152380Y83642857D02*
X304676190Y83976190D01*
X305152380Y84214285D02*
X304152380Y84214285D01*
X304152380Y83833333D01*
X304200000Y83738095D01*
X304247619Y83690476D01*
X304342857Y83642857D01*
X304485714Y83642857D01*
X304580952Y83690476D01*
X304628571Y83738095D01*
X304676190Y83833333D01*
X304676190Y84214285D01*
X304247619Y83261904D02*
X304200000Y83214285D01*
X304152380Y83119047D01*
X304152380Y82880952D01*
X304200000Y82785714D01*
X304247619Y82738095D01*
X304342857Y82690476D01*
X304438095Y82690476D01*
X304580952Y82738095D01*
X305152380Y83309523D01*
X305152380Y82690476D01*
X304152380Y82357142D02*
X304152380Y81690476D01*
X305152380Y82119047D01*
X319352380Y83542857D02*
X318876190Y83876190D01*
X319352380Y84114285D02*
X318352380Y84114285D01*
X318352380Y83733333D01*
X318400000Y83638095D01*
X318447619Y83590476D01*
X318542857Y83542857D01*
X318685714Y83542857D01*
X318780952Y83590476D01*
X318828571Y83638095D01*
X318876190Y83733333D01*
X318876190Y84114285D01*
X318447619Y83161904D02*
X318400000Y83114285D01*
X318352380Y83019047D01*
X318352380Y82780952D01*
X318400000Y82685714D01*
X318447619Y82638095D01*
X318542857Y82590476D01*
X318638095Y82590476D01*
X318780952Y82638095D01*
X319352380Y83209523D01*
X319352380Y82590476D01*
X318780952Y82019047D02*
X318733333Y82114285D01*
X318685714Y82161904D01*
X318590476Y82209523D01*
X318542857Y82209523D01*
X318447619Y82161904D01*
X318400000Y82114285D01*
X318352380Y82019047D01*
X318352380Y81828571D01*
X318400000Y81733333D01*
X318447619Y81685714D01*
X318542857Y81638095D01*
X318590476Y81638095D01*
X318685714Y81685714D01*
X318733333Y81733333D01*
X318780952Y81828571D01*
X318780952Y82019047D01*
X318828571Y82114285D01*
X318876190Y82161904D01*
X318971428Y82209523D01*
X319161904Y82209523D01*
X319257142Y82161904D01*
X319304761Y82114285D01*
X319352380Y82019047D01*
X319352380Y81828571D01*
X319304761Y81733333D01*
X319257142Y81685714D01*
X319161904Y81638095D01*
X318971428Y81638095D01*
X318876190Y81685714D01*
X318828571Y81733333D01*
X318780952Y81828571D01*
X308657142Y52642857D02*
X308704761Y52690476D01*
X308752380Y52833333D01*
X308752380Y52928571D01*
X308704761Y53071428D01*
X308609523Y53166666D01*
X308514285Y53214285D01*
X308323809Y53261904D01*
X308180952Y53261904D01*
X307990476Y53214285D01*
X307895238Y53166666D01*
X307800000Y53071428D01*
X307752380Y52928571D01*
X307752380Y52833333D01*
X307800000Y52690476D01*
X307847619Y52642857D01*
X307847619Y52261904D02*
X307800000Y52214285D01*
X307752380Y52119047D01*
X307752380Y51880952D01*
X307800000Y51785714D01*
X307847619Y51738095D01*
X307942857Y51690476D01*
X308038095Y51690476D01*
X308180952Y51738095D01*
X308752380Y52309523D01*
X308752380Y51690476D01*
X308752380Y50738095D02*
X308752380Y51309523D01*
X308752380Y51023809D02*
X307752380Y51023809D01*
X307895238Y51119047D01*
X307990476Y51214285D01*
X308038095Y51309523D01*
X294942857Y55642857D02*
X294990476Y55595238D01*
X295133333Y55547619D01*
X295228571Y55547619D01*
X295371428Y55595238D01*
X295466666Y55690476D01*
X295514285Y55785714D01*
X295561904Y55976190D01*
X295561904Y56119047D01*
X295514285Y56309523D01*
X295466666Y56404761D01*
X295371428Y56500000D01*
X295228571Y56547619D01*
X295133333Y56547619D01*
X294990476Y56500000D01*
X294942857Y56452380D01*
X294561904Y56452380D02*
X294514285Y56500000D01*
X294419047Y56547619D01*
X294180952Y56547619D01*
X294085714Y56500000D01*
X294038095Y56452380D01*
X293990476Y56357142D01*
X293990476Y56261904D01*
X294038095Y56119047D01*
X294609523Y55547619D01*
X293990476Y55547619D01*
X293609523Y56452380D02*
X293561904Y56500000D01*
X293466666Y56547619D01*
X293228571Y56547619D01*
X293133333Y56500000D01*
X293085714Y56452380D01*
X293038095Y56357142D01*
X293038095Y56261904D01*
X293085714Y56119047D01*
X293657142Y55547619D01*
X293038095Y55547619D01*
X295142857Y50442857D02*
X295190476Y50395238D01*
X295333333Y50347619D01*
X295428571Y50347619D01*
X295571428Y50395238D01*
X295666666Y50490476D01*
X295714285Y50585714D01*
X295761904Y50776190D01*
X295761904Y50919047D01*
X295714285Y51109523D01*
X295666666Y51204761D01*
X295571428Y51300000D01*
X295428571Y51347619D01*
X295333333Y51347619D01*
X295190476Y51300000D01*
X295142857Y51252380D01*
X294761904Y51252380D02*
X294714285Y51300000D01*
X294619047Y51347619D01*
X294380952Y51347619D01*
X294285714Y51300000D01*
X294238095Y51252380D01*
X294190476Y51157142D01*
X294190476Y51061904D01*
X294238095Y50919047D01*
X294809523Y50347619D01*
X294190476Y50347619D01*
X293857142Y51347619D02*
X293238095Y51347619D01*
X293571428Y50966666D01*
X293428571Y50966666D01*
X293333333Y50919047D01*
X293285714Y50871428D01*
X293238095Y50776190D01*
X293238095Y50538095D01*
X293285714Y50442857D01*
X293333333Y50395238D01*
X293428571Y50347619D01*
X293714285Y50347619D01*
X293809523Y50395238D01*
X293857142Y50442857D01*
X312842857Y69142857D02*
X312890476Y69095238D01*
X313033333Y69047619D01*
X313128571Y69047619D01*
X313271428Y69095238D01*
X313366666Y69190476D01*
X313414285Y69285714D01*
X313461904Y69476190D01*
X313461904Y69619047D01*
X313414285Y69809523D01*
X313366666Y69904761D01*
X313271428Y70000000D01*
X313128571Y70047619D01*
X313033333Y70047619D01*
X312890476Y70000000D01*
X312842857Y69952380D01*
X312461904Y69952380D02*
X312414285Y70000000D01*
X312319047Y70047619D01*
X312080952Y70047619D01*
X311985714Y70000000D01*
X311938095Y69952380D01*
X311890476Y69857142D01*
X311890476Y69761904D01*
X311938095Y69619047D01*
X312509523Y69047619D01*
X311890476Y69047619D01*
X311033333Y69714285D02*
X311033333Y69047619D01*
X311271428Y70095238D02*
X311509523Y69380952D01*
X310890476Y69380952D01*
X305176190Y57147619D02*
X305176190Y58147619D01*
X304128571Y57242857D02*
X304176190Y57195238D01*
X304319047Y57147619D01*
X304414285Y57147619D01*
X304557142Y57195238D01*
X304652380Y57290476D01*
X304700000Y57385714D01*
X304747619Y57576190D01*
X304747619Y57719047D01*
X304700000Y57909523D01*
X304652380Y58004761D01*
X304557142Y58100000D01*
X304414285Y58147619D01*
X304319047Y58147619D01*
X304176190Y58100000D01*
X304128571Y58052380D01*
X303223809Y58147619D02*
X303700000Y58147619D01*
X303747619Y57671428D01*
X303700000Y57719047D01*
X303604761Y57766666D01*
X303366666Y57766666D01*
X303271428Y57719047D01*
X303223809Y57671428D01*
X303176190Y57576190D01*
X303176190Y57338095D01*
X303223809Y57242857D01*
X303271428Y57195238D01*
X303366666Y57147619D01*
X303604761Y57147619D01*
X303700000Y57195238D01*
X303747619Y57242857D01*
X313652380Y74776190D02*
X312652380Y74776190D01*
X313557142Y73728571D02*
X313604761Y73776190D01*
X313652380Y73919047D01*
X313652380Y74014285D01*
X313604761Y74157142D01*
X313509523Y74252380D01*
X313414285Y74300000D01*
X313223809Y74347619D01*
X313080952Y74347619D01*
X312890476Y74300000D01*
X312795238Y74252380D01*
X312700000Y74157142D01*
X312652380Y74014285D01*
X312652380Y73919047D01*
X312700000Y73776190D01*
X312747619Y73728571D01*
X312652380Y72871428D02*
X312652380Y73061904D01*
X312700000Y73157142D01*
X312747619Y73204761D01*
X312890476Y73300000D01*
X313080952Y73347619D01*
X313461904Y73347619D01*
X313557142Y73300000D01*
X313604761Y73252380D01*
X313652380Y73157142D01*
X313652380Y72966666D01*
X313604761Y72871428D01*
X313557142Y72823809D01*
X313461904Y72776190D01*
X313223809Y72776190D01*
X313128571Y72823809D01*
X313080952Y72871428D01*
X313033333Y72966666D01*
X313033333Y73157142D01*
X313080952Y73252380D01*
X313128571Y73300000D01*
X313223809Y73347619D01*
X323252380Y68942857D02*
X322776190Y69276190D01*
X323252380Y69514285D02*
X322252380Y69514285D01*
X322252380Y69133333D01*
X322300000Y69038095D01*
X322347619Y68990476D01*
X322442857Y68942857D01*
X322585714Y68942857D01*
X322680952Y68990476D01*
X322728571Y69038095D01*
X322776190Y69133333D01*
X322776190Y69514285D01*
X322347619Y68561904D02*
X322300000Y68514285D01*
X322252380Y68419047D01*
X322252380Y68180952D01*
X322300000Y68085714D01*
X322347619Y68038095D01*
X322442857Y67990476D01*
X322538095Y67990476D01*
X322680952Y68038095D01*
X323252380Y68609523D01*
X323252380Y67990476D01*
X323252380Y67514285D02*
X323252380Y67323809D01*
X323204761Y67228571D01*
X323157142Y67180952D01*
X323014285Y67085714D01*
X322823809Y67038095D01*
X322442857Y67038095D01*
X322347619Y67085714D01*
X322300000Y67133333D01*
X322252380Y67228571D01*
X322252380Y67419047D01*
X322300000Y67514285D01*
X322347619Y67561904D01*
X322442857Y67609523D01*
X322680952Y67609523D01*
X322776190Y67561904D01*
X322823809Y67514285D01*
X322871428Y67419047D01*
X322871428Y67228571D01*
X322823809Y67133333D01*
X322776190Y67085714D01*
X322680952Y67038095D01*
M02*
