M48
; DRILL file {KiCad (5.1.0-0)} date 2019 November 06, Wednesday 10:24:15
; FORMAT={-:-/ absolute / metric / decimal}
; #@! TF.CreationDate,2019-11-06T10:24:15+01:00
; #@! TF.GenerationSoftware,Kicad,Pcbnew,(5.1.0-0)
FMAT,2
METRIC
T1C0.300
T2C1.016
T3C1.200
T4C1.600
%
G90
G05
T1
X22.0Y71.8
X24.0Y71.8
X28.0Y71.8
X30.0Y71.8
X45.0Y71.9
X53.0Y71.8
X55.0Y71.8
X60.0Y71.8
X62.0Y71.8
X70.0Y71.8
X72.0Y71.8
X84.9Y71.8
X86.9Y71.8
X91.0Y71.8
X93.0Y71.8
X108.0Y71.8
X110.0Y71.8
X114.0Y71.8
X116.0Y71.8
X131.0Y71.8
X133.0Y71.8
X137.0Y71.8
X139.0Y71.8
X154.0Y71.8
X156.0Y71.8
X160.0Y71.8
X162.0Y71.8
X177.0Y71.8
X179.0Y71.8
X183.0Y71.8
X185.0Y71.8
T2
X53.72Y60.2
X53.72Y57.66
X56.26Y60.2
X56.26Y57.66
X58.8Y60.2
X58.8Y57.66
X61.34Y60.2
X61.34Y57.66
X63.88Y60.2
X63.88Y57.66
X66.42Y60.2
X66.42Y57.66
X68.96Y60.2
X68.96Y57.66
X71.5Y60.2
X71.5Y57.66
X74.04Y60.2
X74.04Y57.66
X76.58Y60.2
X76.58Y57.66
X79.12Y60.2
X79.12Y57.66
X81.66Y60.2
X81.66Y57.66
X84.2Y60.2
X84.2Y57.66
T3
X20.0Y72.85
X66.1Y72.85
X181.0Y72.85
X43.1Y72.85
X158.0Y72.85
X135.0Y72.85
X112.0Y72.85
X89.0Y72.85
T4
X16.19Y86.19
X16.19Y77.3
X23.81Y81.11
X23.81Y76.665
X62.29Y86.19
X62.29Y77.3
X69.91Y81.11
X69.91Y76.665
X39.29Y86.19
X92.81Y81.11
X85.19Y77.3
X92.81Y76.665
X108.19Y77.3
X115.81Y76.665
X85.19Y86.19
X108.19Y86.19
X115.81Y81.11
X131.19Y86.19
X138.81Y81.11
X39.29Y77.3
X131.19Y77.3
X138.81Y76.665
X46.91Y76.665
X154.19Y86.19
X154.19Y77.3
X161.81Y81.11
X161.81Y76.665
X177.19Y86.19
X184.81Y81.11
X46.91Y81.11
X177.19Y77.3
X184.81Y76.665
T0
M30
