G04 #@! TF.GenerationSoftware,KiCad,Pcbnew,(5.1.0-0)*
G04 #@! TF.CreationDate,2019-11-06T10:24:09+01:00*
G04 #@! TF.ProjectId,AddOnD,4164644f-6e44-42e6-9b69-6361645f7063,rev?*
G04 #@! TF.SameCoordinates,Original*
G04 #@! TF.FileFunction,Legend,Bot*
G04 #@! TF.FilePolarity,Positive*
%FSLAX46Y46*%
G04 Gerber Fmt 4.6, Leading zero omitted, Abs format (unit mm)*
G04 Created by KiCad (PCBNEW (5.1.0-0)) date 2019-11-06 10:24:09*
%MOMM*%
%LPD*%
G04 APERTURE LIST*
%ADD10C,0.010000*%
%ADD11C,0.150000*%
G04 APERTURE END LIST*
D10*
G36*
X185176744Y63900663D02*
G01*
X185177567Y63784934D01*
X185777885Y63175000D01*
X186378204Y62565066D01*
X186378641Y62285165D01*
X186379079Y62005263D01*
X186744663Y62005263D01*
X186754083Y61934244D01*
X186757650Y61901873D01*
X186763662Y61840913D01*
X186771799Y61755002D01*
X186781738Y61647774D01*
X186793157Y61522867D01*
X186805736Y61383917D01*
X186819153Y61234559D01*
X186833085Y61078432D01*
X186847212Y60919170D01*
X186861212Y60760410D01*
X186874763Y60605789D01*
X186887544Y60458943D01*
X186899233Y60323507D01*
X186909508Y60203120D01*
X186918048Y60101416D01*
X186924531Y60022033D01*
X186928636Y59968606D01*
X186930041Y59944771D01*
X186930040Y59944658D01*
X186919796Y59925534D01*
X186889026Y59886045D01*
X186837311Y59825734D01*
X186764233Y59744139D01*
X186669373Y59640802D01*
X186552313Y59515262D01*
X186412633Y59367060D01*
X186249916Y59195737D01*
X186204179Y59147763D01*
X185478805Y58387434D01*
X185537449Y58328948D01*
X185596092Y58270461D01*
X185690974Y58373690D01*
X185725685Y58410997D01*
X185779906Y58468689D01*
X185850059Y58542987D01*
X185932568Y58630111D01*
X186023855Y58726282D01*
X186120342Y58827720D01*
X186178065Y58888305D01*
X186286434Y59001803D01*
X186374028Y59092715D01*
X186443080Y59162693D01*
X186495824Y59213390D01*
X186534494Y59246460D01*
X186561323Y59263556D01*
X186578544Y59266331D01*
X186588392Y59256437D01*
X186593099Y59235529D01*
X186594899Y59205259D01*
X186595141Y59196998D01*
X186607658Y59140091D01*
X186638497Y59071307D01*
X186681503Y59001525D01*
X186730520Y58941622D01*
X186750134Y58923118D01*
X186850770Y58858372D01*
X186968327Y58822146D01*
X187072262Y58813553D01*
X187190049Y58829761D01*
X187298831Y58877288D01*
X187395110Y58954489D01*
X187412875Y58973705D01*
X187477832Y59047500D01*
X188601579Y59047500D01*
X188601579Y58813553D01*
X188902368Y58813553D01*
X188902368Y58922848D01*
X188906143Y58997461D01*
X188918825Y59049250D01*
X188934237Y59077420D01*
X188945250Y59097576D01*
X188954679Y59126800D01*
X188963151Y59169425D01*
X188971290Y59229783D01*
X188979721Y59312207D01*
X188989068Y59421028D01*
X188995469Y59501983D01*
X189024831Y59881268D01*
X189745659Y59151062D01*
X189875992Y59018934D01*
X190001108Y58891904D01*
X190118721Y58772305D01*
X190226545Y58662472D01*
X190322295Y58564737D01*
X190403683Y58481434D01*
X190468423Y58414896D01*
X190514230Y58367458D01*
X190538792Y58341480D01*
X190579145Y58300351D01*
X190612805Y58271665D01*
X190630910Y58262105D01*
X190654035Y58273303D01*
X190687743Y58301281D01*
X190699169Y58312674D01*
X190747617Y58363243D01*
X190480881Y58634298D01*
X190412831Y58703348D01*
X190325085Y58792226D01*
X190221492Y58897041D01*
X190105900Y59013903D01*
X189982159Y59138921D01*
X189854119Y59268205D01*
X189725628Y59397864D01*
X189633454Y59490821D01*
X189493342Y59632480D01*
X189375632Y59752409D01*
X189278820Y59852232D01*
X189201399Y59933572D01*
X189141864Y59998052D01*
X189112358Y60031723D01*
X188875409Y60031723D01*
X188845743Y59652408D01*
X188836797Y59541223D01*
X188828142Y59439547D01*
X188820271Y59352696D01*
X188813672Y59285982D01*
X188808836Y59244721D01*
X188807280Y59235494D01*
X188798482Y59197895D01*
X187536681Y59197895D01*
X187528258Y59302827D01*
X187502828Y59426805D01*
X187449611Y59536476D01*
X187371963Y59627844D01*
X187273237Y59696917D01*
X187162428Y59738380D01*
X187126480Y59757829D01*
X187108483Y59799570D01*
X187108106Y59801411D01*
X187105947Y59819033D01*
X187108616Y59837078D01*
X187118720Y59858892D01*
X187138863Y59887823D01*
X187171651Y59927217D01*
X187219690Y59980423D01*
X187285584Y60050786D01*
X187371940Y60141654D01*
X187377520Y60147507D01*
X187470405Y60245044D01*
X187569155Y60348933D01*
X187666984Y60452023D01*
X187757107Y60547161D01*
X187832738Y60627196D01*
X187849605Y60645089D01*
X187914265Y60712556D01*
X187971705Y60770291D01*
X188017801Y60814325D01*
X188048431Y60840686D01*
X188058715Y60846479D01*
X188074052Y60834354D01*
X188109917Y60801090D01*
X188163488Y60749458D01*
X188231940Y60682225D01*
X188312447Y60602163D01*
X188402187Y60512039D01*
X188475532Y60437802D01*
X188875409Y60031723D01*
X189112358Y60031723D01*
X189098709Y60047297D01*
X189070429Y60082929D01*
X189055517Y60106571D01*
X189052199Y60117520D01*
X189053456Y60141414D01*
X189057274Y60195499D01*
X189063407Y60276662D01*
X189071607Y60381790D01*
X189081627Y60507772D01*
X189093220Y60651495D01*
X189106140Y60809846D01*
X189120138Y60979713D01*
X189131419Y61115472D01*
X189195250Y61880894D01*
X189031004Y61880894D01*
X189030297Y61864376D01*
X189026969Y61817855D01*
X189021290Y61744622D01*
X189013526Y61647972D01*
X189003943Y61531195D01*
X188992811Y61397586D01*
X188980395Y61250437D01*
X188968480Y61110729D01*
X188954984Y60952213D01*
X188942413Y60802579D01*
X188931055Y60665398D01*
X188921198Y60544241D01*
X188913130Y60442680D01*
X188907140Y60364288D01*
X188903515Y60312637D01*
X188902509Y60292577D01*
X188900940Y60280092D01*
X188894722Y60275138D01*
X188881459Y60279782D01*
X188858753Y60296091D01*
X188824208Y60326132D01*
X188775427Y60371973D01*
X188710013Y60435680D01*
X188625569Y60519321D01*
X188535971Y60608701D01*
X188169574Y60974814D01*
X188172141Y60977566D01*
X187929951Y60977566D01*
X187918913Y60962450D01*
X187888013Y60926858D01*
X187840347Y60874059D01*
X187779013Y60807327D01*
X187707107Y60729930D01*
X187627727Y60645142D01*
X187543969Y60556233D01*
X187458930Y60466474D01*
X187375708Y60379136D01*
X187297399Y60297491D01*
X187227100Y60224809D01*
X187167909Y60164363D01*
X187122922Y60119422D01*
X187095236Y60093258D01*
X187087686Y60087928D01*
X187085197Y60105133D01*
X187080030Y60152652D01*
X187072470Y60227511D01*
X187062800Y60326736D01*
X187051305Y60447351D01*
X187038269Y60586382D01*
X187023976Y60740855D01*
X187008710Y60907794D01*
X186996521Y61042403D01*
X186980929Y61216946D01*
X186966523Y61381373D01*
X186953547Y61532701D01*
X186942241Y61667947D01*
X186932848Y61784130D01*
X186925611Y61878265D01*
X186920772Y61947370D01*
X186918573Y61988462D01*
X186918824Y61999132D01*
X186931970Y61989628D01*
X186965446Y61959080D01*
X187016326Y61910444D01*
X187081683Y61846677D01*
X187158591Y61770735D01*
X187244124Y61685576D01*
X187335354Y61594155D01*
X187429356Y61499431D01*
X187523202Y61404359D01*
X187613967Y61311897D01*
X187698723Y61225001D01*
X187774544Y61146628D01*
X187838503Y61079735D01*
X187887674Y61027278D01*
X187919131Y60992215D01*
X187929951Y60977566D01*
X188172141Y60977566D01*
X188306202Y61121240D01*
X188375784Y61195552D01*
X188453881Y61278517D01*
X188537406Y61366898D01*
X188623270Y61457459D01*
X188708385Y61546964D01*
X188789664Y61632177D01*
X188864019Y61709861D01*
X188928363Y61776780D01*
X188979606Y61829697D01*
X189014663Y61865377D01*
X189030444Y61880584D01*
X189031004Y61880894D01*
X189195250Y61880894D01*
X189211204Y62072193D01*
X190009286Y62911515D01*
X190807368Y63750836D01*
X190806781Y63868148D01*
X190806194Y63985461D01*
X190677275Y63847747D01*
X190605124Y63770937D01*
X190519940Y63680696D01*
X190424021Y63579425D01*
X190319666Y63469524D01*
X190209174Y63353396D01*
X190094844Y63233442D01*
X189978975Y63112064D01*
X189863865Y62991662D01*
X189751814Y62874638D01*
X189645119Y62763394D01*
X189546080Y62660331D01*
X189456997Y62567850D01*
X189380166Y62488353D01*
X189317888Y62424242D01*
X189272462Y62377917D01*
X189246185Y62351781D01*
X189240426Y62346767D01*
X189240030Y62364209D01*
X189242208Y62408865D01*
X189246583Y62474660D01*
X189252775Y62555517D01*
X189255433Y62587817D01*
X189275228Y62824079D01*
X189120242Y62824079D01*
X189112240Y62786480D01*
X189108160Y62756745D01*
X189102425Y62700797D01*
X189095701Y62625764D01*
X189088648Y62538775D01*
X189086207Y62506579D01*
X189079008Y62414139D01*
X189071742Y62328293D01*
X189065136Y62257153D01*
X189059916Y62208831D01*
X189058739Y62200061D01*
X189054298Y62182058D01*
X189044687Y62160983D01*
X189027860Y62134475D01*
X189001775Y62100172D01*
X188964387Y62055711D01*
X188913654Y61998729D01*
X188847530Y61926864D01*
X188763974Y61837754D01*
X188660940Y61729036D01*
X188555833Y61618725D01*
X188451262Y61509559D01*
X188353649Y61408460D01*
X188265422Y61317885D01*
X188189012Y61240292D01*
X188126849Y61178138D01*
X188081363Y61133882D01*
X188054983Y61109982D01*
X188049357Y61106426D01*
X188034557Y61119319D01*
X187999961Y61152940D01*
X187948929Y61203918D01*
X187884817Y61268880D01*
X187810984Y61344452D01*
X187757589Y61399507D01*
X187478827Y61687763D01*
X188300790Y61687763D01*
X188300790Y62005263D01*
X187298158Y62005263D01*
X187298158Y61863794D01*
X187114342Y62047040D01*
X186983948Y62177029D01*
X186730000Y62177029D01*
X186727571Y62156523D01*
X186715276Y62145098D01*
X186685604Y62140120D01*
X186631045Y62138956D01*
X186621382Y62138948D01*
X186512763Y62138948D01*
X186512763Y62430416D01*
X186621382Y62322763D01*
X186682654Y62257313D01*
X186719301Y62207171D01*
X186730000Y62177029D01*
X186983948Y62177029D01*
X186930526Y62230285D01*
X186930526Y62393498D01*
X186930015Y62468586D01*
X186927672Y62516355D01*
X186922289Y62542902D01*
X186912656Y62554321D01*
X186898129Y62556711D01*
X186881973Y62560220D01*
X186870031Y62574289D01*
X186860861Y62604231D01*
X186853018Y62655358D01*
X186845058Y62732983D01*
X186842504Y62761415D01*
X186836974Y62824079D01*
X189120242Y62824079D01*
X189275228Y62824079D01*
X189487237Y62824079D01*
X189487237Y62974474D01*
X189397141Y62974474D01*
X189344445Y62975917D01*
X189315812Y62982884D01*
X189312309Y62987030D01*
X189127766Y62987030D01*
X189118054Y62977558D01*
X189084412Y62974634D01*
X189061706Y62974474D01*
X188985921Y62974474D01*
X188703306Y62974474D01*
X186823481Y62974474D01*
X186887062Y63039587D01*
X186985814Y63119938D01*
X187108032Y63181911D01*
X187255787Y63226354D01*
X187402599Y63250935D01*
X187498684Y63262404D01*
X187498684Y63141579D01*
X188267368Y63141579D01*
X188267368Y63278655D01*
X188380165Y63267224D01*
X188458975Y63257575D01*
X188542943Y63244786D01*
X188593224Y63235652D01*
X188693487Y63215512D01*
X188698397Y63094993D01*
X188703306Y62974474D01*
X188985921Y62974474D01*
X188985921Y63041316D01*
X188988131Y63083190D01*
X188993650Y63106464D01*
X188995874Y63108158D01*
X189020613Y63097440D01*
X189056757Y63071437D01*
X189092990Y63039377D01*
X189117999Y63010489D01*
X189120227Y63006733D01*
X189127766Y62987030D01*
X189312309Y62987030D01*
X189301919Y62999326D01*
X189296311Y63017238D01*
X189273422Y63063721D01*
X189229460Y63119600D01*
X189171989Y63177040D01*
X189108573Y63228207D01*
X189066918Y63254857D01*
X189019466Y63284028D01*
X188995141Y63308533D01*
X188986595Y63337428D01*
X188985938Y63354638D01*
X188985937Y63358816D01*
X188133684Y63358816D01*
X188133684Y63275263D01*
X187632368Y63275263D01*
X187632368Y63358816D01*
X188133684Y63358816D01*
X188985937Y63358816D01*
X188985921Y63408948D01*
X188845274Y63408948D01*
X188780564Y63407383D01*
X188730130Y63403215D01*
X188702094Y63397227D01*
X188699057Y63394803D01*
X188681273Y63391082D01*
X188637992Y63392606D01*
X188576651Y63398925D01*
X188534737Y63404760D01*
X188458737Y63416222D01*
X188389230Y63426570D01*
X188336997Y63434204D01*
X188321678Y63436373D01*
X188281653Y63448768D01*
X188267368Y63468192D01*
X188263025Y63476102D01*
X188247490Y63482137D01*
X188217001Y63486534D01*
X188167800Y63489531D01*
X188096126Y63491365D01*
X187998219Y63492275D01*
X187883026Y63492500D01*
X187760086Y63492372D01*
X187666559Y63491770D01*
X187598440Y63490361D01*
X187551719Y63487819D01*
X187522391Y63483811D01*
X187506449Y63478009D01*
X187499885Y63470083D01*
X187498684Y63460867D01*
X187488460Y63431615D01*
X187454970Y63414969D01*
X187393988Y63409032D01*
X187383017Y63408948D01*
X187279746Y63398294D01*
X187162453Y63368967D01*
X187041715Y63324916D01*
X186928111Y63270089D01*
X186832219Y63208436D01*
X186819799Y63198668D01*
X186779318Y63166885D01*
X186755345Y63154156D01*
X186738604Y63158271D01*
X186721419Y63175250D01*
X186670664Y63208508D01*
X186604607Y63221275D01*
X186533474Y63214635D01*
X186467486Y63189673D01*
X186416868Y63147471D01*
X186413203Y63142566D01*
X186375328Y63063789D01*
X186368281Y62982246D01*
X186391285Y62904513D01*
X186443563Y62837165D01*
X186449956Y62831604D01*
X186487073Y62805187D01*
X186524733Y62793553D01*
X186577676Y62792713D01*
X186590902Y62793458D01*
X186642703Y62795359D01*
X186669386Y62791004D01*
X186679045Y62777862D01*
X186680037Y62765592D01*
X186682061Y62729998D01*
X186687086Y62676467D01*
X186690697Y62644441D01*
X186695934Y62593573D01*
X186693756Y62567532D01*
X186681125Y62558014D01*
X186658625Y62556711D01*
X186645282Y62561014D01*
X186623756Y62574943D01*
X186592452Y62600023D01*
X186549776Y62637781D01*
X186494132Y62689744D01*
X186423925Y62757438D01*
X186337560Y62842389D01*
X186233442Y62946125D01*
X186109975Y63070172D01*
X185965564Y63216056D01*
X185895969Y63286551D01*
X185175921Y64016390D01*
X185176744Y63900663D01*
X185176744Y63900663D01*
G37*
X185176744Y63900663D02*
X185177567Y63784934D01*
X185777885Y63175000D01*
X186378204Y62565066D01*
X186378641Y62285165D01*
X186379079Y62005263D01*
X186744663Y62005263D01*
X186754083Y61934244D01*
X186757650Y61901873D01*
X186763662Y61840913D01*
X186771799Y61755002D01*
X186781738Y61647774D01*
X186793157Y61522867D01*
X186805736Y61383917D01*
X186819153Y61234559D01*
X186833085Y61078432D01*
X186847212Y60919170D01*
X186861212Y60760410D01*
X186874763Y60605789D01*
X186887544Y60458943D01*
X186899233Y60323507D01*
X186909508Y60203120D01*
X186918048Y60101416D01*
X186924531Y60022033D01*
X186928636Y59968606D01*
X186930041Y59944771D01*
X186930040Y59944658D01*
X186919796Y59925534D01*
X186889026Y59886045D01*
X186837311Y59825734D01*
X186764233Y59744139D01*
X186669373Y59640802D01*
X186552313Y59515262D01*
X186412633Y59367060D01*
X186249916Y59195737D01*
X186204179Y59147763D01*
X185478805Y58387434D01*
X185537449Y58328948D01*
X185596092Y58270461D01*
X185690974Y58373690D01*
X185725685Y58410997D01*
X185779906Y58468689D01*
X185850059Y58542987D01*
X185932568Y58630111D01*
X186023855Y58726282D01*
X186120342Y58827720D01*
X186178065Y58888305D01*
X186286434Y59001803D01*
X186374028Y59092715D01*
X186443080Y59162693D01*
X186495824Y59213390D01*
X186534494Y59246460D01*
X186561323Y59263556D01*
X186578544Y59266331D01*
X186588392Y59256437D01*
X186593099Y59235529D01*
X186594899Y59205259D01*
X186595141Y59196998D01*
X186607658Y59140091D01*
X186638497Y59071307D01*
X186681503Y59001525D01*
X186730520Y58941622D01*
X186750134Y58923118D01*
X186850770Y58858372D01*
X186968327Y58822146D01*
X187072262Y58813553D01*
X187190049Y58829761D01*
X187298831Y58877288D01*
X187395110Y58954489D01*
X187412875Y58973705D01*
X187477832Y59047500D01*
X188601579Y59047500D01*
X188601579Y58813553D01*
X188902368Y58813553D01*
X188902368Y58922848D01*
X188906143Y58997461D01*
X188918825Y59049250D01*
X188934237Y59077420D01*
X188945250Y59097576D01*
X188954679Y59126800D01*
X188963151Y59169425D01*
X188971290Y59229783D01*
X188979721Y59312207D01*
X188989068Y59421028D01*
X188995469Y59501983D01*
X189024831Y59881268D01*
X189745659Y59151062D01*
X189875992Y59018934D01*
X190001108Y58891904D01*
X190118721Y58772305D01*
X190226545Y58662472D01*
X190322295Y58564737D01*
X190403683Y58481434D01*
X190468423Y58414896D01*
X190514230Y58367458D01*
X190538792Y58341480D01*
X190579145Y58300351D01*
X190612805Y58271665D01*
X190630910Y58262105D01*
X190654035Y58273303D01*
X190687743Y58301281D01*
X190699169Y58312674D01*
X190747617Y58363243D01*
X190480881Y58634298D01*
X190412831Y58703348D01*
X190325085Y58792226D01*
X190221492Y58897041D01*
X190105900Y59013903D01*
X189982159Y59138921D01*
X189854119Y59268205D01*
X189725628Y59397864D01*
X189633454Y59490821D01*
X189493342Y59632480D01*
X189375632Y59752409D01*
X189278820Y59852232D01*
X189201399Y59933572D01*
X189141864Y59998052D01*
X189112358Y60031723D01*
X188875409Y60031723D01*
X188845743Y59652408D01*
X188836797Y59541223D01*
X188828142Y59439547D01*
X188820271Y59352696D01*
X188813672Y59285982D01*
X188808836Y59244721D01*
X188807280Y59235494D01*
X188798482Y59197895D01*
X187536681Y59197895D01*
X187528258Y59302827D01*
X187502828Y59426805D01*
X187449611Y59536476D01*
X187371963Y59627844D01*
X187273237Y59696917D01*
X187162428Y59738380D01*
X187126480Y59757829D01*
X187108483Y59799570D01*
X187108106Y59801411D01*
X187105947Y59819033D01*
X187108616Y59837078D01*
X187118720Y59858892D01*
X187138863Y59887823D01*
X187171651Y59927217D01*
X187219690Y59980423D01*
X187285584Y60050786D01*
X187371940Y60141654D01*
X187377520Y60147507D01*
X187470405Y60245044D01*
X187569155Y60348933D01*
X187666984Y60452023D01*
X187757107Y60547161D01*
X187832738Y60627196D01*
X187849605Y60645089D01*
X187914265Y60712556D01*
X187971705Y60770291D01*
X188017801Y60814325D01*
X188048431Y60840686D01*
X188058715Y60846479D01*
X188074052Y60834354D01*
X188109917Y60801090D01*
X188163488Y60749458D01*
X188231940Y60682225D01*
X188312447Y60602163D01*
X188402187Y60512039D01*
X188475532Y60437802D01*
X188875409Y60031723D01*
X189112358Y60031723D01*
X189098709Y60047297D01*
X189070429Y60082929D01*
X189055517Y60106571D01*
X189052199Y60117520D01*
X189053456Y60141414D01*
X189057274Y60195499D01*
X189063407Y60276662D01*
X189071607Y60381790D01*
X189081627Y60507772D01*
X189093220Y60651495D01*
X189106140Y60809846D01*
X189120138Y60979713D01*
X189131419Y61115472D01*
X189195250Y61880894D01*
X189031004Y61880894D01*
X189030297Y61864376D01*
X189026969Y61817855D01*
X189021290Y61744622D01*
X189013526Y61647972D01*
X189003943Y61531195D01*
X188992811Y61397586D01*
X188980395Y61250437D01*
X188968480Y61110729D01*
X188954984Y60952213D01*
X188942413Y60802579D01*
X188931055Y60665398D01*
X188921198Y60544241D01*
X188913130Y60442680D01*
X188907140Y60364288D01*
X188903515Y60312637D01*
X188902509Y60292577D01*
X188900940Y60280092D01*
X188894722Y60275138D01*
X188881459Y60279782D01*
X188858753Y60296091D01*
X188824208Y60326132D01*
X188775427Y60371973D01*
X188710013Y60435680D01*
X188625569Y60519321D01*
X188535971Y60608701D01*
X188169574Y60974814D01*
X188172141Y60977566D01*
X187929951Y60977566D01*
X187918913Y60962450D01*
X187888013Y60926858D01*
X187840347Y60874059D01*
X187779013Y60807327D01*
X187707107Y60729930D01*
X187627727Y60645142D01*
X187543969Y60556233D01*
X187458930Y60466474D01*
X187375708Y60379136D01*
X187297399Y60297491D01*
X187227100Y60224809D01*
X187167909Y60164363D01*
X187122922Y60119422D01*
X187095236Y60093258D01*
X187087686Y60087928D01*
X187085197Y60105133D01*
X187080030Y60152652D01*
X187072470Y60227511D01*
X187062800Y60326736D01*
X187051305Y60447351D01*
X187038269Y60586382D01*
X187023976Y60740855D01*
X187008710Y60907794D01*
X186996521Y61042403D01*
X186980929Y61216946D01*
X186966523Y61381373D01*
X186953547Y61532701D01*
X186942241Y61667947D01*
X186932848Y61784130D01*
X186925611Y61878265D01*
X186920772Y61947370D01*
X186918573Y61988462D01*
X186918824Y61999132D01*
X186931970Y61989628D01*
X186965446Y61959080D01*
X187016326Y61910444D01*
X187081683Y61846677D01*
X187158591Y61770735D01*
X187244124Y61685576D01*
X187335354Y61594155D01*
X187429356Y61499431D01*
X187523202Y61404359D01*
X187613967Y61311897D01*
X187698723Y61225001D01*
X187774544Y61146628D01*
X187838503Y61079735D01*
X187887674Y61027278D01*
X187919131Y60992215D01*
X187929951Y60977566D01*
X188172141Y60977566D01*
X188306202Y61121240D01*
X188375784Y61195552D01*
X188453881Y61278517D01*
X188537406Y61366898D01*
X188623270Y61457459D01*
X188708385Y61546964D01*
X188789664Y61632177D01*
X188864019Y61709861D01*
X188928363Y61776780D01*
X188979606Y61829697D01*
X189014663Y61865377D01*
X189030444Y61880584D01*
X189031004Y61880894D01*
X189195250Y61880894D01*
X189211204Y62072193D01*
X190009286Y62911515D01*
X190807368Y63750836D01*
X190806781Y63868148D01*
X190806194Y63985461D01*
X190677275Y63847747D01*
X190605124Y63770937D01*
X190519940Y63680696D01*
X190424021Y63579425D01*
X190319666Y63469524D01*
X190209174Y63353396D01*
X190094844Y63233442D01*
X189978975Y63112064D01*
X189863865Y62991662D01*
X189751814Y62874638D01*
X189645119Y62763394D01*
X189546080Y62660331D01*
X189456997Y62567850D01*
X189380166Y62488353D01*
X189317888Y62424242D01*
X189272462Y62377917D01*
X189246185Y62351781D01*
X189240426Y62346767D01*
X189240030Y62364209D01*
X189242208Y62408865D01*
X189246583Y62474660D01*
X189252775Y62555517D01*
X189255433Y62587817D01*
X189275228Y62824079D01*
X189120242Y62824079D01*
X189112240Y62786480D01*
X189108160Y62756745D01*
X189102425Y62700797D01*
X189095701Y62625764D01*
X189088648Y62538775D01*
X189086207Y62506579D01*
X189079008Y62414139D01*
X189071742Y62328293D01*
X189065136Y62257153D01*
X189059916Y62208831D01*
X189058739Y62200061D01*
X189054298Y62182058D01*
X189044687Y62160983D01*
X189027860Y62134475D01*
X189001775Y62100172D01*
X188964387Y62055711D01*
X188913654Y61998729D01*
X188847530Y61926864D01*
X188763974Y61837754D01*
X188660940Y61729036D01*
X188555833Y61618725D01*
X188451262Y61509559D01*
X188353649Y61408460D01*
X188265422Y61317885D01*
X188189012Y61240292D01*
X188126849Y61178138D01*
X188081363Y61133882D01*
X188054983Y61109982D01*
X188049357Y61106426D01*
X188034557Y61119319D01*
X187999961Y61152940D01*
X187948929Y61203918D01*
X187884817Y61268880D01*
X187810984Y61344452D01*
X187757589Y61399507D01*
X187478827Y61687763D01*
X188300790Y61687763D01*
X188300790Y62005263D01*
X187298158Y62005263D01*
X187298158Y61863794D01*
X187114342Y62047040D01*
X186983948Y62177029D01*
X186730000Y62177029D01*
X186727571Y62156523D01*
X186715276Y62145098D01*
X186685604Y62140120D01*
X186631045Y62138956D01*
X186621382Y62138948D01*
X186512763Y62138948D01*
X186512763Y62430416D01*
X186621382Y62322763D01*
X186682654Y62257313D01*
X186719301Y62207171D01*
X186730000Y62177029D01*
X186983948Y62177029D01*
X186930526Y62230285D01*
X186930526Y62393498D01*
X186930015Y62468586D01*
X186927672Y62516355D01*
X186922289Y62542902D01*
X186912656Y62554321D01*
X186898129Y62556711D01*
X186881973Y62560220D01*
X186870031Y62574289D01*
X186860861Y62604231D01*
X186853018Y62655358D01*
X186845058Y62732983D01*
X186842504Y62761415D01*
X186836974Y62824079D01*
X189120242Y62824079D01*
X189275228Y62824079D01*
X189487237Y62824079D01*
X189487237Y62974474D01*
X189397141Y62974474D01*
X189344445Y62975917D01*
X189315812Y62982884D01*
X189312309Y62987030D01*
X189127766Y62987030D01*
X189118054Y62977558D01*
X189084412Y62974634D01*
X189061706Y62974474D01*
X188985921Y62974474D01*
X188703306Y62974474D01*
X186823481Y62974474D01*
X186887062Y63039587D01*
X186985814Y63119938D01*
X187108032Y63181911D01*
X187255787Y63226354D01*
X187402599Y63250935D01*
X187498684Y63262404D01*
X187498684Y63141579D01*
X188267368Y63141579D01*
X188267368Y63278655D01*
X188380165Y63267224D01*
X188458975Y63257575D01*
X188542943Y63244786D01*
X188593224Y63235652D01*
X188693487Y63215512D01*
X188698397Y63094993D01*
X188703306Y62974474D01*
X188985921Y62974474D01*
X188985921Y63041316D01*
X188988131Y63083190D01*
X188993650Y63106464D01*
X188995874Y63108158D01*
X189020613Y63097440D01*
X189056757Y63071437D01*
X189092990Y63039377D01*
X189117999Y63010489D01*
X189120227Y63006733D01*
X189127766Y62987030D01*
X189312309Y62987030D01*
X189301919Y62999326D01*
X189296311Y63017238D01*
X189273422Y63063721D01*
X189229460Y63119600D01*
X189171989Y63177040D01*
X189108573Y63228207D01*
X189066918Y63254857D01*
X189019466Y63284028D01*
X188995141Y63308533D01*
X188986595Y63337428D01*
X188985938Y63354638D01*
X188985937Y63358816D01*
X188133684Y63358816D01*
X188133684Y63275263D01*
X187632368Y63275263D01*
X187632368Y63358816D01*
X188133684Y63358816D01*
X188985937Y63358816D01*
X188985921Y63408948D01*
X188845274Y63408948D01*
X188780564Y63407383D01*
X188730130Y63403215D01*
X188702094Y63397227D01*
X188699057Y63394803D01*
X188681273Y63391082D01*
X188637992Y63392606D01*
X188576651Y63398925D01*
X188534737Y63404760D01*
X188458737Y63416222D01*
X188389230Y63426570D01*
X188336997Y63434204D01*
X188321678Y63436373D01*
X188281653Y63448768D01*
X188267368Y63468192D01*
X188263025Y63476102D01*
X188247490Y63482137D01*
X188217001Y63486534D01*
X188167800Y63489531D01*
X188096126Y63491365D01*
X187998219Y63492275D01*
X187883026Y63492500D01*
X187760086Y63492372D01*
X187666559Y63491770D01*
X187598440Y63490361D01*
X187551719Y63487819D01*
X187522391Y63483811D01*
X187506449Y63478009D01*
X187499885Y63470083D01*
X187498684Y63460867D01*
X187488460Y63431615D01*
X187454970Y63414969D01*
X187393988Y63409032D01*
X187383017Y63408948D01*
X187279746Y63398294D01*
X187162453Y63368967D01*
X187041715Y63324916D01*
X186928111Y63270089D01*
X186832219Y63208436D01*
X186819799Y63198668D01*
X186779318Y63166885D01*
X186755345Y63154156D01*
X186738604Y63158271D01*
X186721419Y63175250D01*
X186670664Y63208508D01*
X186604607Y63221275D01*
X186533474Y63214635D01*
X186467486Y63189673D01*
X186416868Y63147471D01*
X186413203Y63142566D01*
X186375328Y63063789D01*
X186368281Y62982246D01*
X186391285Y62904513D01*
X186443563Y62837165D01*
X186449956Y62831604D01*
X186487073Y62805187D01*
X186524733Y62793553D01*
X186577676Y62792713D01*
X186590902Y62793458D01*
X186642703Y62795359D01*
X186669386Y62791004D01*
X186679045Y62777862D01*
X186680037Y62765592D01*
X186682061Y62729998D01*
X186687086Y62676467D01*
X186690697Y62644441D01*
X186695934Y62593573D01*
X186693756Y62567532D01*
X186681125Y62558014D01*
X186658625Y62556711D01*
X186645282Y62561014D01*
X186623756Y62574943D01*
X186592452Y62600023D01*
X186549776Y62637781D01*
X186494132Y62689744D01*
X186423925Y62757438D01*
X186337560Y62842389D01*
X186233442Y62946125D01*
X186109975Y63070172D01*
X185965564Y63216056D01*
X185895969Y63286551D01*
X185175921Y64016390D01*
X185176744Y63900663D01*
G36*
X185677237Y55989474D02*
G01*
X190356184Y55989474D01*
X190356184Y57142500D01*
X185677237Y57142500D01*
X185677237Y55989474D01*
X185677237Y55989474D01*
G37*
X185677237Y55989474D02*
X190356184Y55989474D01*
X190356184Y57142500D01*
X185677237Y57142500D01*
X185677237Y55989474D01*
G36*
X174766665Y62083594D02*
G01*
X175061015Y62083305D01*
X175162990Y62082880D01*
X175243645Y62081592D01*
X175308112Y62079086D01*
X175361524Y62075004D01*
X175409012Y62068992D01*
X175455711Y62060692D01*
X175489611Y62053564D01*
X175719451Y61990246D01*
X175938768Y61903988D01*
X176145799Y61795991D01*
X176338780Y61667456D01*
X176515951Y61519582D01*
X176675547Y61353570D01*
X176815807Y61170621D01*
X176840446Y61133551D01*
X176892244Y61046598D01*
X176945145Y60945180D01*
X176996164Y60836134D01*
X177042318Y60726298D01*
X177080625Y60622512D01*
X177108102Y60531612D01*
X177114196Y60506016D01*
X177123561Y60463021D01*
X175361979Y60463021D01*
X175361979Y59523750D01*
X177123561Y59523750D01*
X177114196Y59480756D01*
X177089136Y59389389D01*
X177051648Y59283531D01*
X177004815Y59170122D01*
X176951718Y59056108D01*
X176895440Y58948431D01*
X176839064Y58854033D01*
X176829608Y58839681D01*
X176685866Y58648209D01*
X176524667Y58476370D01*
X176347010Y58324837D01*
X176153891Y58194281D01*
X175946309Y58085376D01*
X175725262Y57998794D01*
X175491745Y57935206D01*
X175486044Y57933979D01*
X175433462Y57923378D01*
X175385042Y57915487D01*
X175335391Y57909922D01*
X175279119Y57906298D01*
X175210832Y57904231D01*
X175125141Y57903336D01*
X175054401Y57903201D01*
X174766667Y57903224D01*
X174766667Y56970521D01*
X175054401Y56972238D01*
X175146376Y56973291D01*
X175236109Y56975234D01*
X175317842Y56977874D01*
X175385821Y56981019D01*
X175434289Y56984474D01*
X175441354Y56985211D01*
X175666763Y57021406D01*
X175898614Y57078624D01*
X176130575Y57154716D01*
X176356315Y57247535D01*
X176569501Y57354932D01*
X176625303Y57386865D01*
X176788844Y57492333D01*
X176954786Y57616455D01*
X177116573Y57753569D01*
X177267650Y57898018D01*
X177401460Y58044141D01*
X177438007Y58088393D01*
X177599327Y58309988D01*
X177740652Y58547622D01*
X177860975Y58798911D01*
X177959289Y59061468D01*
X178034588Y59332908D01*
X178085865Y59610845D01*
X178088410Y59629584D01*
X178095359Y59701249D01*
X178100292Y59791954D01*
X178103208Y59895077D01*
X178104105Y60003991D01*
X178102981Y60112075D01*
X178099834Y60212702D01*
X178094662Y60299248D01*
X178088617Y60357188D01*
X178036661Y60642106D01*
X177961431Y60917646D01*
X177863609Y61182191D01*
X177743879Y61434123D01*
X177602924Y61671823D01*
X177441427Y61893675D01*
X177438007Y61897921D01*
X177257720Y62100879D01*
X177058578Y62287344D01*
X176843027Y62455786D01*
X176613515Y62604675D01*
X176372491Y62732483D01*
X176122400Y62837678D01*
X175865691Y62918733D01*
X175765381Y62943231D01*
X175641470Y62969062D01*
X175526300Y62988408D01*
X175412480Y63002019D01*
X175292615Y63010644D01*
X175159313Y63015032D01*
X175047787Y63015992D01*
X174766667Y63016250D01*
X174766665Y62083594D01*
X174766665Y62083594D01*
G37*
X174766665Y62083594D02*
X175061015Y62083305D01*
X175162990Y62082880D01*
X175243645Y62081592D01*
X175308112Y62079086D01*
X175361524Y62075004D01*
X175409012Y62068992D01*
X175455711Y62060692D01*
X175489611Y62053564D01*
X175719451Y61990246D01*
X175938768Y61903988D01*
X176145799Y61795991D01*
X176338780Y61667456D01*
X176515951Y61519582D01*
X176675547Y61353570D01*
X176815807Y61170621D01*
X176840446Y61133551D01*
X176892244Y61046598D01*
X176945145Y60945180D01*
X176996164Y60836134D01*
X177042318Y60726298D01*
X177080625Y60622512D01*
X177108102Y60531612D01*
X177114196Y60506016D01*
X177123561Y60463021D01*
X175361979Y60463021D01*
X175361979Y59523750D01*
X177123561Y59523750D01*
X177114196Y59480756D01*
X177089136Y59389389D01*
X177051648Y59283531D01*
X177004815Y59170122D01*
X176951718Y59056108D01*
X176895440Y58948431D01*
X176839064Y58854033D01*
X176829608Y58839681D01*
X176685866Y58648209D01*
X176524667Y58476370D01*
X176347010Y58324837D01*
X176153891Y58194281D01*
X175946309Y58085376D01*
X175725262Y57998794D01*
X175491745Y57935206D01*
X175486044Y57933979D01*
X175433462Y57923378D01*
X175385042Y57915487D01*
X175335391Y57909922D01*
X175279119Y57906298D01*
X175210832Y57904231D01*
X175125141Y57903336D01*
X175054401Y57903201D01*
X174766667Y57903224D01*
X174766667Y56970521D01*
X175054401Y56972238D01*
X175146376Y56973291D01*
X175236109Y56975234D01*
X175317842Y56977874D01*
X175385821Y56981019D01*
X175434289Y56984474D01*
X175441354Y56985211D01*
X175666763Y57021406D01*
X175898614Y57078624D01*
X176130575Y57154716D01*
X176356315Y57247535D01*
X176569501Y57354932D01*
X176625303Y57386865D01*
X176788844Y57492333D01*
X176954786Y57616455D01*
X177116573Y57753569D01*
X177267650Y57898018D01*
X177401460Y58044141D01*
X177438007Y58088393D01*
X177599327Y58309988D01*
X177740652Y58547622D01*
X177860975Y58798911D01*
X177959289Y59061468D01*
X178034588Y59332908D01*
X178085865Y59610845D01*
X178088410Y59629584D01*
X178095359Y59701249D01*
X178100292Y59791954D01*
X178103208Y59895077D01*
X178104105Y60003991D01*
X178102981Y60112075D01*
X178099834Y60212702D01*
X178094662Y60299248D01*
X178088617Y60357188D01*
X178036661Y60642106D01*
X177961431Y60917646D01*
X177863609Y61182191D01*
X177743879Y61434123D01*
X177602924Y61671823D01*
X177441427Y61893675D01*
X177438007Y61897921D01*
X177257720Y62100879D01*
X177058578Y62287344D01*
X176843027Y62455786D01*
X176613515Y62604675D01*
X176372491Y62732483D01*
X176122400Y62837678D01*
X175865691Y62918733D01*
X175765381Y62943231D01*
X175641470Y62969062D01*
X175526300Y62988408D01*
X175412480Y63002019D01*
X175292615Y63010644D01*
X175159313Y63015032D01*
X175047787Y63015992D01*
X174766667Y63016250D01*
X174766665Y62083594D01*
G36*
X180060813Y63015685D02*
G01*
X179996330Y63014025D01*
X179949697Y63011055D01*
X179929349Y63007912D01*
X179899583Y62999935D01*
X179899583Y62079470D01*
X180109119Y62086741D01*
X180318953Y62086477D01*
X180513141Y62069618D01*
X180697580Y62034925D01*
X180878168Y61981161D01*
X181060803Y61907089D01*
X181136511Y61871121D01*
X181317062Y61772023D01*
X181479702Y61660674D01*
X181632099Y61531592D01*
X181691378Y61474295D01*
X181848015Y61299139D01*
X181983527Y61108480D01*
X182097234Y60903606D01*
X182188456Y60685807D01*
X182256515Y60456371D01*
X182276674Y60363803D01*
X182288823Y60279756D01*
X182296934Y60176766D01*
X182301015Y60062035D01*
X182301074Y59942766D01*
X182297116Y59826163D01*
X182289149Y59719429D01*
X182277181Y59629767D01*
X182275943Y59622969D01*
X182220089Y59394241D01*
X182140701Y59176035D01*
X182039069Y58969823D01*
X181916478Y58777072D01*
X181774219Y58599252D01*
X181613579Y58437832D01*
X181435845Y58294281D01*
X181242307Y58170069D01*
X181034252Y58066664D01*
X180850763Y57997465D01*
X180747623Y57965882D01*
X180652893Y57941871D01*
X180560130Y57924537D01*
X180462894Y57912984D01*
X180354742Y57906320D01*
X180229233Y57903648D01*
X180174089Y57903496D01*
X179899583Y57903814D01*
X179899583Y56986836D01*
X179929349Y56978859D01*
X179954749Y56975862D01*
X180001744Y56973797D01*
X180065490Y56972618D01*
X180141142Y56972277D01*
X180223854Y56972726D01*
X180308783Y56973917D01*
X180391083Y56975803D01*
X180465909Y56978337D01*
X180528417Y56981469D01*
X180573762Y56985153D01*
X180574271Y56985211D01*
X180687271Y57001659D01*
X180814872Y57026294D01*
X180947338Y57056917D01*
X181074934Y57091333D01*
X181156016Y57116464D01*
X181420553Y57217502D01*
X181671277Y57340487D01*
X181907195Y57484223D01*
X182127320Y57647513D01*
X182330660Y57829162D01*
X182516227Y58027974D01*
X182683030Y58242753D01*
X182830079Y58472302D01*
X182956385Y58715427D01*
X183060958Y58970930D01*
X183142808Y59237617D01*
X183200945Y59514291D01*
X183214162Y59603125D01*
X183222618Y59687893D01*
X183228437Y59791882D01*
X183231618Y59907991D01*
X183232161Y60029113D01*
X183230066Y60148146D01*
X183225334Y60257986D01*
X183217963Y60351528D01*
X183214162Y60383646D01*
X183163241Y60666294D01*
X183087795Y60939386D01*
X182988081Y61202286D01*
X182864354Y61454363D01*
X182716872Y61694983D01*
X182638048Y61805782D01*
X182459770Y62023277D01*
X182263767Y62221656D01*
X182051402Y62400118D01*
X181824041Y62557867D01*
X181583047Y62694103D01*
X181329787Y62808029D01*
X181065623Y62898847D01*
X180791921Y62965759D01*
X180601120Y62997187D01*
X180548646Y63002510D01*
X180479782Y63007070D01*
X180399419Y63010788D01*
X180312450Y63013587D01*
X180223764Y63015388D01*
X180138255Y63016113D01*
X180060813Y63015685D01*
X180060813Y63015685D01*
G37*
X180060813Y63015685D02*
X179996330Y63014025D01*
X179949697Y63011055D01*
X179929349Y63007912D01*
X179899583Y62999935D01*
X179899583Y62079470D01*
X180109119Y62086741D01*
X180318953Y62086477D01*
X180513141Y62069618D01*
X180697580Y62034925D01*
X180878168Y61981161D01*
X181060803Y61907089D01*
X181136511Y61871121D01*
X181317062Y61772023D01*
X181479702Y61660674D01*
X181632099Y61531592D01*
X181691378Y61474295D01*
X181848015Y61299139D01*
X181983527Y61108480D01*
X182097234Y60903606D01*
X182188456Y60685807D01*
X182256515Y60456371D01*
X182276674Y60363803D01*
X182288823Y60279756D01*
X182296934Y60176766D01*
X182301015Y60062035D01*
X182301074Y59942766D01*
X182297116Y59826163D01*
X182289149Y59719429D01*
X182277181Y59629767D01*
X182275943Y59622969D01*
X182220089Y59394241D01*
X182140701Y59176035D01*
X182039069Y58969823D01*
X181916478Y58777072D01*
X181774219Y58599252D01*
X181613579Y58437832D01*
X181435845Y58294281D01*
X181242307Y58170069D01*
X181034252Y58066664D01*
X180850763Y57997465D01*
X180747623Y57965882D01*
X180652893Y57941871D01*
X180560130Y57924537D01*
X180462894Y57912984D01*
X180354742Y57906320D01*
X180229233Y57903648D01*
X180174089Y57903496D01*
X179899583Y57903814D01*
X179899583Y56986836D01*
X179929349Y56978859D01*
X179954749Y56975862D01*
X180001744Y56973797D01*
X180065490Y56972618D01*
X180141142Y56972277D01*
X180223854Y56972726D01*
X180308783Y56973917D01*
X180391083Y56975803D01*
X180465909Y56978337D01*
X180528417Y56981469D01*
X180573762Y56985153D01*
X180574271Y56985211D01*
X180687271Y57001659D01*
X180814872Y57026294D01*
X180947338Y57056917D01*
X181074934Y57091333D01*
X181156016Y57116464D01*
X181420553Y57217502D01*
X181671277Y57340487D01*
X181907195Y57484223D01*
X182127320Y57647513D01*
X182330660Y57829162D01*
X182516227Y58027974D01*
X182683030Y58242753D01*
X182830079Y58472302D01*
X182956385Y58715427D01*
X183060958Y58970930D01*
X183142808Y59237617D01*
X183200945Y59514291D01*
X183214162Y59603125D01*
X183222618Y59687893D01*
X183228437Y59791882D01*
X183231618Y59907991D01*
X183232161Y60029113D01*
X183230066Y60148146D01*
X183225334Y60257986D01*
X183217963Y60351528D01*
X183214162Y60383646D01*
X183163241Y60666294D01*
X183087795Y60939386D01*
X182988081Y61202286D01*
X182864354Y61454363D01*
X182716872Y61694983D01*
X182638048Y61805782D01*
X182459770Y62023277D01*
X182263767Y62221656D01*
X182051402Y62400118D01*
X181824041Y62557867D01*
X181583047Y62694103D01*
X181329787Y62808029D01*
X181065623Y62898847D01*
X180791921Y62965759D01*
X180601120Y62997187D01*
X180548646Y63002510D01*
X180479782Y63007070D01*
X180399419Y63010788D01*
X180312450Y63013587D01*
X180223764Y63015388D01*
X180138255Y63016113D01*
X180060813Y63015685D01*
D11*
X26875000Y69400000D02*
X26875000Y70600000D01*
X25125000Y70600000D02*
X25125000Y69400000D01*
X29125000Y70600000D02*
X29125000Y69400000D01*
X30875000Y69400000D02*
X30875000Y70600000D01*
X20875000Y69400000D02*
X20875000Y70600000D01*
X19125000Y70600000D02*
X19125000Y69400000D01*
X23125000Y70600000D02*
X23125000Y69400000D01*
X24875000Y69400000D02*
X24875000Y70600000D01*
X51875000Y69400000D02*
X51875000Y70600000D01*
X50125000Y70600000D02*
X50125000Y69400000D01*
X54125000Y70600000D02*
X54125000Y69400000D01*
X55875000Y69400000D02*
X55875000Y70600000D01*
X41875000Y69400000D02*
X41875000Y70600000D01*
X40125000Y70600000D02*
X40125000Y69400000D01*
X44125000Y70600000D02*
X44125000Y69400000D01*
X45875000Y69400000D02*
X45875000Y70600000D01*
X74875000Y69400000D02*
X74875000Y70600000D01*
X73125000Y70600000D02*
X73125000Y69400000D01*
X69125000Y70600000D02*
X69125000Y69400000D01*
X70875000Y69400000D02*
X70875000Y70600000D01*
X64875000Y69400000D02*
X64875000Y70600000D01*
X63125000Y70600000D02*
X63125000Y69400000D01*
X59125000Y70600000D02*
X59125000Y69400000D01*
X60875000Y69400000D02*
X60875000Y70600000D01*
X95875000Y69400000D02*
X95875000Y70600000D01*
X94125000Y70600000D02*
X94125000Y69400000D01*
X90125000Y70600000D02*
X90125000Y69400000D01*
X91875000Y69400000D02*
X91875000Y70600000D01*
X89875000Y69400000D02*
X89875000Y70600000D01*
X88125000Y70600000D02*
X88125000Y69400000D01*
X84025000Y70600000D02*
X84025000Y69400000D01*
X85775000Y69400000D02*
X85775000Y70600000D01*
X28850000Y70500000D02*
X28850000Y69500000D01*
X27150000Y69500000D02*
X27150000Y70500000D01*
X21150000Y69500000D02*
X21150000Y70500000D01*
X22850000Y70500000D02*
X22850000Y69500000D01*
X52150000Y69500000D02*
X52150000Y70500000D01*
X53850000Y70500000D02*
X53850000Y69500000D01*
X43850000Y70500000D02*
X43850000Y69500000D01*
X42150000Y69500000D02*
X42150000Y70500000D01*
X71150000Y69500000D02*
X71150000Y70500000D01*
X72850000Y70500000D02*
X72850000Y69500000D01*
X61150000Y69500000D02*
X61150000Y70500000D01*
X62850000Y70500000D02*
X62850000Y69500000D01*
X93850000Y70500000D02*
X93850000Y69500000D01*
X92150000Y69500000D02*
X92150000Y70500000D01*
X87750000Y70500000D02*
X87750000Y69500000D01*
X86050000Y69500000D02*
X86050000Y70500000D01*
X115150000Y69500000D02*
X115150000Y70500000D01*
X116850000Y70500000D02*
X116850000Y69500000D01*
X109150000Y69500000D02*
X109150000Y70500000D01*
X110850000Y70500000D02*
X110850000Y69500000D01*
X139850000Y70500000D02*
X139850000Y69500000D01*
X138150000Y69500000D02*
X138150000Y70500000D01*
X133850000Y70500000D02*
X133850000Y69500000D01*
X132150000Y69500000D02*
X132150000Y70500000D01*
X161150000Y69500000D02*
X161150000Y70500000D01*
X162850000Y70500000D02*
X162850000Y69500000D01*
X156850000Y70500000D02*
X156850000Y69500000D01*
X155150000Y69500000D02*
X155150000Y70500000D01*
X185850000Y70500000D02*
X185850000Y69500000D01*
X184150000Y69500000D02*
X184150000Y70500000D01*
X178150000Y69500000D02*
X178150000Y70500000D01*
X179850000Y70500000D02*
X179850000Y69500000D01*
X118875000Y69400000D02*
X118875000Y70600000D01*
X117125000Y70600000D02*
X117125000Y69400000D01*
X113125000Y70600000D02*
X113125000Y69400000D01*
X114875000Y69400000D02*
X114875000Y70600000D01*
X112875000Y69400000D02*
X112875000Y70600000D01*
X111125000Y70600000D02*
X111125000Y69400000D01*
X107125000Y70600000D02*
X107125000Y69400000D01*
X108875000Y69400000D02*
X108875000Y70600000D01*
X141875000Y69400000D02*
X141875000Y70600000D01*
X140125000Y70600000D02*
X140125000Y69400000D01*
X136125000Y70600000D02*
X136125000Y69400000D01*
X137875000Y69400000D02*
X137875000Y70600000D01*
X135875000Y69400000D02*
X135875000Y70600000D01*
X134125000Y70600000D02*
X134125000Y69400000D01*
X130125000Y70600000D02*
X130125000Y69400000D01*
X131875000Y69400000D02*
X131875000Y70600000D01*
X164875000Y69400000D02*
X164875000Y70600000D01*
X163125000Y70600000D02*
X163125000Y69400000D01*
X159125000Y70600000D02*
X159125000Y69400000D01*
X160875000Y69400000D02*
X160875000Y70600000D01*
X158875000Y69400000D02*
X158875000Y70600000D01*
X157125000Y70600000D02*
X157125000Y69400000D01*
X153125000Y70600000D02*
X153125000Y69400000D01*
X154875000Y69400000D02*
X154875000Y70600000D01*
X187875000Y69400000D02*
X187875000Y70600000D01*
X186125000Y70600000D02*
X186125000Y69400000D01*
X182125000Y70600000D02*
X182125000Y69400000D01*
X183875000Y69400000D02*
X183875000Y70600000D01*
X181875000Y69400000D02*
X181875000Y70600000D01*
X180125000Y70600000D02*
X180125000Y69400000D01*
X176125000Y70600000D02*
X176125000Y69400000D01*
X177875000Y69400000D02*
X177875000Y70600000D01*
X33125000Y70600000D02*
X33125000Y69400000D01*
X34875000Y69400000D02*
X34875000Y70600000D01*
X35125000Y70600000D02*
X35125000Y69400000D01*
X36875000Y69400000D02*
X36875000Y70600000D01*
X31125000Y70600000D02*
X31125000Y69400000D01*
X32875000Y69400000D02*
X32875000Y70600000D01*
X48125000Y70600000D02*
X48125000Y69400000D01*
X49875000Y69400000D02*
X49875000Y70600000D01*
X47400000Y66325000D02*
X48600000Y66325000D01*
X48600000Y68075000D02*
X47400000Y68075000D01*
X47875000Y69400000D02*
X47875000Y70600000D01*
X46125000Y70600000D02*
X46125000Y69400000D01*
X68875000Y69400000D02*
X68875000Y70600000D01*
X67125000Y70600000D02*
X67125000Y69400000D01*
X67600000Y68075000D02*
X66400000Y68075000D01*
X66400000Y66325000D02*
X67600000Y66325000D01*
X65125000Y70600000D02*
X65125000Y69400000D01*
X66875000Y69400000D02*
X66875000Y70600000D01*
X83775000Y69400000D02*
X83775000Y70600000D01*
X82025000Y70600000D02*
X82025000Y69400000D01*
X78025000Y70600000D02*
X78025000Y69400000D01*
X79775000Y69400000D02*
X79775000Y70600000D01*
X80025000Y70600000D02*
X80025000Y69400000D01*
X81775000Y69400000D02*
X81775000Y70600000D01*
X105125000Y70600000D02*
X105125000Y69400000D01*
X106875000Y69400000D02*
X106875000Y70600000D01*
X102875000Y69400000D02*
X102875000Y70600000D01*
X101125000Y70600000D02*
X101125000Y69400000D01*
X104875000Y69400000D02*
X104875000Y70600000D01*
X103125000Y70600000D02*
X103125000Y69400000D01*
X129875000Y69400000D02*
X129875000Y70600000D01*
X128125000Y70600000D02*
X128125000Y69400000D01*
X124125000Y70600000D02*
X124125000Y69400000D01*
X125875000Y69400000D02*
X125875000Y70600000D01*
X126125000Y70600000D02*
X126125000Y69400000D01*
X127875000Y69400000D02*
X127875000Y70600000D01*
X151125000Y70600000D02*
X151125000Y69400000D01*
X152875000Y69400000D02*
X152875000Y70600000D01*
X148875000Y69400000D02*
X148875000Y70600000D01*
X147125000Y70600000D02*
X147125000Y69400000D01*
X150875000Y69400000D02*
X150875000Y70600000D01*
X149125000Y70600000D02*
X149125000Y69400000D01*
X175875000Y69400000D02*
X175875000Y70600000D01*
X174125000Y70600000D02*
X174125000Y69400000D01*
X170125000Y70600000D02*
X170125000Y69400000D01*
X171875000Y69400000D02*
X171875000Y70600000D01*
X172125000Y70600000D02*
X172125000Y69400000D01*
X173875000Y69400000D02*
X173875000Y70600000D01*
X26452380Y67719047D02*
X25976190Y68052380D01*
X26452380Y68290476D02*
X25452380Y68290476D01*
X25452380Y67909523D01*
X25500000Y67814285D01*
X25547619Y67766666D01*
X25642857Y67719047D01*
X25785714Y67719047D01*
X25880952Y67766666D01*
X25928571Y67814285D01*
X25976190Y67909523D01*
X25976190Y68290476D01*
X26452380Y66766666D02*
X26452380Y67338095D01*
X26452380Y67052380D02*
X25452380Y67052380D01*
X25595238Y67147619D01*
X25690476Y67242857D01*
X25738095Y67338095D01*
X25452380Y66147619D02*
X25452380Y66052380D01*
X25500000Y65957142D01*
X25547619Y65909523D01*
X25642857Y65861904D01*
X25833333Y65814285D01*
X26071428Y65814285D01*
X26261904Y65861904D01*
X26357142Y65909523D01*
X26404761Y65957142D01*
X26452380Y66052380D01*
X26452380Y66147619D01*
X26404761Y66242857D01*
X26357142Y66290476D01*
X26261904Y66338095D01*
X26071428Y66385714D01*
X25833333Y66385714D01*
X25642857Y66338095D01*
X25547619Y66290476D01*
X25500000Y66242857D01*
X25452380Y66147619D01*
X26452380Y64861904D02*
X26452380Y65433333D01*
X26452380Y65147619D02*
X25452380Y65147619D01*
X25595238Y65242857D01*
X25690476Y65338095D01*
X25738095Y65433333D01*
X30352380Y67619047D02*
X29876190Y67952380D01*
X30352380Y68190476D02*
X29352380Y68190476D01*
X29352380Y67809523D01*
X29400000Y67714285D01*
X29447619Y67666666D01*
X29542857Y67619047D01*
X29685714Y67619047D01*
X29780952Y67666666D01*
X29828571Y67714285D01*
X29876190Y67809523D01*
X29876190Y68190476D01*
X30352380Y66666666D02*
X30352380Y67238095D01*
X30352380Y66952380D02*
X29352380Y66952380D01*
X29495238Y67047619D01*
X29590476Y67142857D01*
X29638095Y67238095D01*
X29352380Y66047619D02*
X29352380Y65952380D01*
X29400000Y65857142D01*
X29447619Y65809523D01*
X29542857Y65761904D01*
X29733333Y65714285D01*
X29971428Y65714285D01*
X30161904Y65761904D01*
X30257142Y65809523D01*
X30304761Y65857142D01*
X30352380Y65952380D01*
X30352380Y66047619D01*
X30304761Y66142857D01*
X30257142Y66190476D01*
X30161904Y66238095D01*
X29971428Y66285714D01*
X29733333Y66285714D01*
X29542857Y66238095D01*
X29447619Y66190476D01*
X29400000Y66142857D01*
X29352380Y66047619D01*
X29447619Y65333333D02*
X29400000Y65285714D01*
X29352380Y65190476D01*
X29352380Y64952380D01*
X29400000Y64857142D01*
X29447619Y64809523D01*
X29542857Y64761904D01*
X29638095Y64761904D01*
X29780952Y64809523D01*
X30352380Y65380952D01*
X30352380Y64761904D01*
X20452380Y67619047D02*
X19976190Y67952380D01*
X20452380Y68190476D02*
X19452380Y68190476D01*
X19452380Y67809523D01*
X19500000Y67714285D01*
X19547619Y67666666D01*
X19642857Y67619047D01*
X19785714Y67619047D01*
X19880952Y67666666D01*
X19928571Y67714285D01*
X19976190Y67809523D01*
X19976190Y68190476D01*
X20452380Y66666666D02*
X20452380Y67238095D01*
X20452380Y66952380D02*
X19452380Y66952380D01*
X19595238Y67047619D01*
X19690476Y67142857D01*
X19738095Y67238095D01*
X19452380Y66047619D02*
X19452380Y65952380D01*
X19500000Y65857142D01*
X19547619Y65809523D01*
X19642857Y65761904D01*
X19833333Y65714285D01*
X20071428Y65714285D01*
X20261904Y65761904D01*
X20357142Y65809523D01*
X20404761Y65857142D01*
X20452380Y65952380D01*
X20452380Y66047619D01*
X20404761Y66142857D01*
X20357142Y66190476D01*
X20261904Y66238095D01*
X20071428Y66285714D01*
X19833333Y66285714D01*
X19642857Y66238095D01*
X19547619Y66190476D01*
X19500000Y66142857D01*
X19452380Y66047619D01*
X19452380Y65380952D02*
X19452380Y64761904D01*
X19833333Y65095238D01*
X19833333Y64952380D01*
X19880952Y64857142D01*
X19928571Y64809523D01*
X20023809Y64761904D01*
X20261904Y64761904D01*
X20357142Y64809523D01*
X20404761Y64857142D01*
X20452380Y64952380D01*
X20452380Y65238095D01*
X20404761Y65333333D01*
X20357142Y65380952D01*
X24352380Y67619047D02*
X23876190Y67952380D01*
X24352380Y68190476D02*
X23352380Y68190476D01*
X23352380Y67809523D01*
X23400000Y67714285D01*
X23447619Y67666666D01*
X23542857Y67619047D01*
X23685714Y67619047D01*
X23780952Y67666666D01*
X23828571Y67714285D01*
X23876190Y67809523D01*
X23876190Y68190476D01*
X24352380Y66666666D02*
X24352380Y67238095D01*
X24352380Y66952380D02*
X23352380Y66952380D01*
X23495238Y67047619D01*
X23590476Y67142857D01*
X23638095Y67238095D01*
X23352380Y66047619D02*
X23352380Y65952380D01*
X23400000Y65857142D01*
X23447619Y65809523D01*
X23542857Y65761904D01*
X23733333Y65714285D01*
X23971428Y65714285D01*
X24161904Y65761904D01*
X24257142Y65809523D01*
X24304761Y65857142D01*
X24352380Y65952380D01*
X24352380Y66047619D01*
X24304761Y66142857D01*
X24257142Y66190476D01*
X24161904Y66238095D01*
X23971428Y66285714D01*
X23733333Y66285714D01*
X23542857Y66238095D01*
X23447619Y66190476D01*
X23400000Y66142857D01*
X23352380Y66047619D01*
X23685714Y64857142D02*
X24352380Y64857142D01*
X23304761Y65095238D02*
X24019047Y65333333D01*
X24019047Y64714285D01*
X52052380Y67619047D02*
X51576190Y67952380D01*
X52052380Y68190476D02*
X51052380Y68190476D01*
X51052380Y67809523D01*
X51100000Y67714285D01*
X51147619Y67666666D01*
X51242857Y67619047D01*
X51385714Y67619047D01*
X51480952Y67666666D01*
X51528571Y67714285D01*
X51576190Y67809523D01*
X51576190Y68190476D01*
X52052380Y66666666D02*
X52052380Y67238095D01*
X52052380Y66952380D02*
X51052380Y66952380D01*
X51195238Y67047619D01*
X51290476Y67142857D01*
X51338095Y67238095D01*
X51052380Y66047619D02*
X51052380Y65952380D01*
X51100000Y65857142D01*
X51147619Y65809523D01*
X51242857Y65761904D01*
X51433333Y65714285D01*
X51671428Y65714285D01*
X51861904Y65761904D01*
X51957142Y65809523D01*
X52004761Y65857142D01*
X52052380Y65952380D01*
X52052380Y66047619D01*
X52004761Y66142857D01*
X51957142Y66190476D01*
X51861904Y66238095D01*
X51671428Y66285714D01*
X51433333Y66285714D01*
X51242857Y66238095D01*
X51147619Y66190476D01*
X51100000Y66142857D01*
X51052380Y66047619D01*
X51052380Y64809523D02*
X51052380Y65285714D01*
X51528571Y65333333D01*
X51480952Y65285714D01*
X51433333Y65190476D01*
X51433333Y64952380D01*
X51480952Y64857142D01*
X51528571Y64809523D01*
X51623809Y64761904D01*
X51861904Y64761904D01*
X51957142Y64809523D01*
X52004761Y64857142D01*
X52052380Y64952380D01*
X52052380Y65190476D01*
X52004761Y65285714D01*
X51957142Y65333333D01*
X55452380Y67619047D02*
X54976190Y67952380D01*
X55452380Y68190476D02*
X54452380Y68190476D01*
X54452380Y67809523D01*
X54500000Y67714285D01*
X54547619Y67666666D01*
X54642857Y67619047D01*
X54785714Y67619047D01*
X54880952Y67666666D01*
X54928571Y67714285D01*
X54976190Y67809523D01*
X54976190Y68190476D01*
X55452380Y66666666D02*
X55452380Y67238095D01*
X55452380Y66952380D02*
X54452380Y66952380D01*
X54595238Y67047619D01*
X54690476Y67142857D01*
X54738095Y67238095D01*
X54452380Y66047619D02*
X54452380Y65952380D01*
X54500000Y65857142D01*
X54547619Y65809523D01*
X54642857Y65761904D01*
X54833333Y65714285D01*
X55071428Y65714285D01*
X55261904Y65761904D01*
X55357142Y65809523D01*
X55404761Y65857142D01*
X55452380Y65952380D01*
X55452380Y66047619D01*
X55404761Y66142857D01*
X55357142Y66190476D01*
X55261904Y66238095D01*
X55071428Y66285714D01*
X54833333Y66285714D01*
X54642857Y66238095D01*
X54547619Y66190476D01*
X54500000Y66142857D01*
X54452380Y66047619D01*
X54452380Y64857142D02*
X54452380Y65047619D01*
X54500000Y65142857D01*
X54547619Y65190476D01*
X54690476Y65285714D01*
X54880952Y65333333D01*
X55261904Y65333333D01*
X55357142Y65285714D01*
X55404761Y65238095D01*
X55452380Y65142857D01*
X55452380Y64952380D01*
X55404761Y64857142D01*
X55357142Y64809523D01*
X55261904Y64761904D01*
X55023809Y64761904D01*
X54928571Y64809523D01*
X54880952Y64857142D01*
X54833333Y64952380D01*
X54833333Y65142857D01*
X54880952Y65238095D01*
X54928571Y65285714D01*
X55023809Y65333333D01*
X41452380Y67619047D02*
X40976190Y67952380D01*
X41452380Y68190476D02*
X40452380Y68190476D01*
X40452380Y67809523D01*
X40500000Y67714285D01*
X40547619Y67666666D01*
X40642857Y67619047D01*
X40785714Y67619047D01*
X40880952Y67666666D01*
X40928571Y67714285D01*
X40976190Y67809523D01*
X40976190Y68190476D01*
X41452380Y66666666D02*
X41452380Y67238095D01*
X41452380Y66952380D02*
X40452380Y66952380D01*
X40595238Y67047619D01*
X40690476Y67142857D01*
X40738095Y67238095D01*
X40452380Y66047619D02*
X40452380Y65952380D01*
X40500000Y65857142D01*
X40547619Y65809523D01*
X40642857Y65761904D01*
X40833333Y65714285D01*
X41071428Y65714285D01*
X41261904Y65761904D01*
X41357142Y65809523D01*
X41404761Y65857142D01*
X41452380Y65952380D01*
X41452380Y66047619D01*
X41404761Y66142857D01*
X41357142Y66190476D01*
X41261904Y66238095D01*
X41071428Y66285714D01*
X40833333Y66285714D01*
X40642857Y66238095D01*
X40547619Y66190476D01*
X40500000Y66142857D01*
X40452380Y66047619D01*
X40452380Y65380952D02*
X40452380Y64714285D01*
X41452380Y65142857D01*
X44852380Y67619047D02*
X44376190Y67952380D01*
X44852380Y68190476D02*
X43852380Y68190476D01*
X43852380Y67809523D01*
X43900000Y67714285D01*
X43947619Y67666666D01*
X44042857Y67619047D01*
X44185714Y67619047D01*
X44280952Y67666666D01*
X44328571Y67714285D01*
X44376190Y67809523D01*
X44376190Y68190476D01*
X44852380Y66666666D02*
X44852380Y67238095D01*
X44852380Y66952380D02*
X43852380Y66952380D01*
X43995238Y67047619D01*
X44090476Y67142857D01*
X44138095Y67238095D01*
X43852380Y66047619D02*
X43852380Y65952380D01*
X43900000Y65857142D01*
X43947619Y65809523D01*
X44042857Y65761904D01*
X44233333Y65714285D01*
X44471428Y65714285D01*
X44661904Y65761904D01*
X44757142Y65809523D01*
X44804761Y65857142D01*
X44852380Y65952380D01*
X44852380Y66047619D01*
X44804761Y66142857D01*
X44757142Y66190476D01*
X44661904Y66238095D01*
X44471428Y66285714D01*
X44233333Y66285714D01*
X44042857Y66238095D01*
X43947619Y66190476D01*
X43900000Y66142857D01*
X43852380Y66047619D01*
X44280952Y65142857D02*
X44233333Y65238095D01*
X44185714Y65285714D01*
X44090476Y65333333D01*
X44042857Y65333333D01*
X43947619Y65285714D01*
X43900000Y65238095D01*
X43852380Y65142857D01*
X43852380Y64952380D01*
X43900000Y64857142D01*
X43947619Y64809523D01*
X44042857Y64761904D01*
X44090476Y64761904D01*
X44185714Y64809523D01*
X44233333Y64857142D01*
X44280952Y64952380D01*
X44280952Y65142857D01*
X44328571Y65238095D01*
X44376190Y65285714D01*
X44471428Y65333333D01*
X44661904Y65333333D01*
X44757142Y65285714D01*
X44804761Y65238095D01*
X44852380Y65142857D01*
X44852380Y64952380D01*
X44804761Y64857142D01*
X44757142Y64809523D01*
X44661904Y64761904D01*
X44471428Y64761904D01*
X44376190Y64809523D01*
X44328571Y64857142D01*
X44280952Y64952380D01*
X74552380Y67619047D02*
X74076190Y67952380D01*
X74552380Y68190476D02*
X73552380Y68190476D01*
X73552380Y67809523D01*
X73600000Y67714285D01*
X73647619Y67666666D01*
X73742857Y67619047D01*
X73885714Y67619047D01*
X73980952Y67666666D01*
X74028571Y67714285D01*
X74076190Y67809523D01*
X74076190Y68190476D01*
X74552380Y66666666D02*
X74552380Y67238095D01*
X74552380Y66952380D02*
X73552380Y66952380D01*
X73695238Y67047619D01*
X73790476Y67142857D01*
X73838095Y67238095D01*
X73552380Y66047619D02*
X73552380Y65952380D01*
X73600000Y65857142D01*
X73647619Y65809523D01*
X73742857Y65761904D01*
X73933333Y65714285D01*
X74171428Y65714285D01*
X74361904Y65761904D01*
X74457142Y65809523D01*
X74504761Y65857142D01*
X74552380Y65952380D01*
X74552380Y66047619D01*
X74504761Y66142857D01*
X74457142Y66190476D01*
X74361904Y66238095D01*
X74171428Y66285714D01*
X73933333Y66285714D01*
X73742857Y66238095D01*
X73647619Y66190476D01*
X73600000Y66142857D01*
X73552380Y66047619D01*
X74552380Y65238095D02*
X74552380Y65047619D01*
X74504761Y64952380D01*
X74457142Y64904761D01*
X74314285Y64809523D01*
X74123809Y64761904D01*
X73742857Y64761904D01*
X73647619Y64809523D01*
X73600000Y64857142D01*
X73552380Y64952380D01*
X73552380Y65142857D01*
X73600000Y65238095D01*
X73647619Y65285714D01*
X73742857Y65333333D01*
X73980952Y65333333D01*
X74076190Y65285714D01*
X74123809Y65238095D01*
X74171428Y65142857D01*
X74171428Y64952380D01*
X74123809Y64857142D01*
X74076190Y64809523D01*
X73980952Y64761904D01*
X70952380Y67619047D02*
X70476190Y67952380D01*
X70952380Y68190476D02*
X69952380Y68190476D01*
X69952380Y67809523D01*
X70000000Y67714285D01*
X70047619Y67666666D01*
X70142857Y67619047D01*
X70285714Y67619047D01*
X70380952Y67666666D01*
X70428571Y67714285D01*
X70476190Y67809523D01*
X70476190Y68190476D01*
X70952380Y66666666D02*
X70952380Y67238095D01*
X70952380Y66952380D02*
X69952380Y66952380D01*
X70095238Y67047619D01*
X70190476Y67142857D01*
X70238095Y67238095D01*
X70952380Y65714285D02*
X70952380Y66285714D01*
X70952380Y66000000D02*
X69952380Y66000000D01*
X70095238Y66095238D01*
X70190476Y66190476D01*
X70238095Y66285714D01*
X69952380Y65095238D02*
X69952380Y65000000D01*
X70000000Y64904761D01*
X70047619Y64857142D01*
X70142857Y64809523D01*
X70333333Y64761904D01*
X70571428Y64761904D01*
X70761904Y64809523D01*
X70857142Y64857142D01*
X70904761Y64904761D01*
X70952380Y65000000D01*
X70952380Y65095238D01*
X70904761Y65190476D01*
X70857142Y65238095D01*
X70761904Y65285714D01*
X70571428Y65333333D01*
X70333333Y65333333D01*
X70142857Y65285714D01*
X70047619Y65238095D01*
X70000000Y65190476D01*
X69952380Y65095238D01*
X64052380Y67619047D02*
X63576190Y67952380D01*
X64052380Y68190476D02*
X63052380Y68190476D01*
X63052380Y67809523D01*
X63100000Y67714285D01*
X63147619Y67666666D01*
X63242857Y67619047D01*
X63385714Y67619047D01*
X63480952Y67666666D01*
X63528571Y67714285D01*
X63576190Y67809523D01*
X63576190Y68190476D01*
X64052380Y66666666D02*
X64052380Y67238095D01*
X64052380Y66952380D02*
X63052380Y66952380D01*
X63195238Y67047619D01*
X63290476Y67142857D01*
X63338095Y67238095D01*
X64052380Y65714285D02*
X64052380Y66285714D01*
X64052380Y66000000D02*
X63052380Y66000000D01*
X63195238Y66095238D01*
X63290476Y66190476D01*
X63338095Y66285714D01*
X64052380Y64761904D02*
X64052380Y65333333D01*
X64052380Y65047619D02*
X63052380Y65047619D01*
X63195238Y65142857D01*
X63290476Y65238095D01*
X63338095Y65333333D01*
X60452380Y67619047D02*
X59976190Y67952380D01*
X60452380Y68190476D02*
X59452380Y68190476D01*
X59452380Y67809523D01*
X59500000Y67714285D01*
X59547619Y67666666D01*
X59642857Y67619047D01*
X59785714Y67619047D01*
X59880952Y67666666D01*
X59928571Y67714285D01*
X59976190Y67809523D01*
X59976190Y68190476D01*
X60452380Y66666666D02*
X60452380Y67238095D01*
X60452380Y66952380D02*
X59452380Y66952380D01*
X59595238Y67047619D01*
X59690476Y67142857D01*
X59738095Y67238095D01*
X60452380Y65714285D02*
X60452380Y66285714D01*
X60452380Y66000000D02*
X59452380Y66000000D01*
X59595238Y66095238D01*
X59690476Y66190476D01*
X59738095Y66285714D01*
X59547619Y65333333D02*
X59500000Y65285714D01*
X59452380Y65190476D01*
X59452380Y64952380D01*
X59500000Y64857142D01*
X59547619Y64809523D01*
X59642857Y64761904D01*
X59738095Y64761904D01*
X59880952Y64809523D01*
X60452380Y65380952D01*
X60452380Y64761904D01*
X95352380Y67619047D02*
X94876190Y67952380D01*
X95352380Y68190476D02*
X94352380Y68190476D01*
X94352380Y67809523D01*
X94400000Y67714285D01*
X94447619Y67666666D01*
X94542857Y67619047D01*
X94685714Y67619047D01*
X94780952Y67666666D01*
X94828571Y67714285D01*
X94876190Y67809523D01*
X94876190Y68190476D01*
X95352380Y66666666D02*
X95352380Y67238095D01*
X95352380Y66952380D02*
X94352380Y66952380D01*
X94495238Y67047619D01*
X94590476Y67142857D01*
X94638095Y67238095D01*
X95352380Y65714285D02*
X95352380Y66285714D01*
X95352380Y66000000D02*
X94352380Y66000000D01*
X94495238Y66095238D01*
X94590476Y66190476D01*
X94638095Y66285714D01*
X94352380Y65380952D02*
X94352380Y64761904D01*
X94733333Y65095238D01*
X94733333Y64952380D01*
X94780952Y64857142D01*
X94828571Y64809523D01*
X94923809Y64761904D01*
X95161904Y64761904D01*
X95257142Y64809523D01*
X95304761Y64857142D01*
X95352380Y64952380D01*
X95352380Y65238095D01*
X95304761Y65333333D01*
X95257142Y65380952D01*
X91452380Y67619047D02*
X90976190Y67952380D01*
X91452380Y68190476D02*
X90452380Y68190476D01*
X90452380Y67809523D01*
X90500000Y67714285D01*
X90547619Y67666666D01*
X90642857Y67619047D01*
X90785714Y67619047D01*
X90880952Y67666666D01*
X90928571Y67714285D01*
X90976190Y67809523D01*
X90976190Y68190476D01*
X91452380Y66666666D02*
X91452380Y67238095D01*
X91452380Y66952380D02*
X90452380Y66952380D01*
X90595238Y67047619D01*
X90690476Y67142857D01*
X90738095Y67238095D01*
X91452380Y65714285D02*
X91452380Y66285714D01*
X91452380Y66000000D02*
X90452380Y66000000D01*
X90595238Y66095238D01*
X90690476Y66190476D01*
X90738095Y66285714D01*
X90785714Y64857142D02*
X91452380Y64857142D01*
X90404761Y65095238D02*
X91119047Y65333333D01*
X91119047Y64714285D01*
X89452380Y67619047D02*
X88976190Y67952380D01*
X89452380Y68190476D02*
X88452380Y68190476D01*
X88452380Y67809523D01*
X88500000Y67714285D01*
X88547619Y67666666D01*
X88642857Y67619047D01*
X88785714Y67619047D01*
X88880952Y67666666D01*
X88928571Y67714285D01*
X88976190Y67809523D01*
X88976190Y68190476D01*
X89452380Y66666666D02*
X89452380Y67238095D01*
X89452380Y66952380D02*
X88452380Y66952380D01*
X88595238Y67047619D01*
X88690476Y67142857D01*
X88738095Y67238095D01*
X89452380Y65714285D02*
X89452380Y66285714D01*
X89452380Y66000000D02*
X88452380Y66000000D01*
X88595238Y66095238D01*
X88690476Y66190476D01*
X88738095Y66285714D01*
X88452380Y64809523D02*
X88452380Y65285714D01*
X88928571Y65333333D01*
X88880952Y65285714D01*
X88833333Y65190476D01*
X88833333Y64952380D01*
X88880952Y64857142D01*
X88928571Y64809523D01*
X89023809Y64761904D01*
X89261904Y64761904D01*
X89357142Y64809523D01*
X89404761Y64857142D01*
X89452380Y64952380D01*
X89452380Y65190476D01*
X89404761Y65285714D01*
X89357142Y65333333D01*
X85352380Y67619047D02*
X84876190Y67952380D01*
X85352380Y68190476D02*
X84352380Y68190476D01*
X84352380Y67809523D01*
X84400000Y67714285D01*
X84447619Y67666666D01*
X84542857Y67619047D01*
X84685714Y67619047D01*
X84780952Y67666666D01*
X84828571Y67714285D01*
X84876190Y67809523D01*
X84876190Y68190476D01*
X85352380Y66666666D02*
X85352380Y67238095D01*
X85352380Y66952380D02*
X84352380Y66952380D01*
X84495238Y67047619D01*
X84590476Y67142857D01*
X84638095Y67238095D01*
X85352380Y65714285D02*
X85352380Y66285714D01*
X85352380Y66000000D02*
X84352380Y66000000D01*
X84495238Y66095238D01*
X84590476Y66190476D01*
X84638095Y66285714D01*
X84352380Y64857142D02*
X84352380Y65047619D01*
X84400000Y65142857D01*
X84447619Y65190476D01*
X84590476Y65285714D01*
X84780952Y65333333D01*
X85161904Y65333333D01*
X85257142Y65285714D01*
X85304761Y65238095D01*
X85352380Y65142857D01*
X85352380Y64952380D01*
X85304761Y64857142D01*
X85257142Y64809523D01*
X85161904Y64761904D01*
X84923809Y64761904D01*
X84828571Y64809523D01*
X84780952Y64857142D01*
X84733333Y64952380D01*
X84733333Y65142857D01*
X84780952Y65238095D01*
X84828571Y65285714D01*
X84923809Y65333333D01*
X28257142Y67719047D02*
X28304761Y67766666D01*
X28352380Y67909523D01*
X28352380Y68004761D01*
X28304761Y68147619D01*
X28209523Y68242857D01*
X28114285Y68290476D01*
X27923809Y68338095D01*
X27780952Y68338095D01*
X27590476Y68290476D01*
X27495238Y68242857D01*
X27400000Y68147619D01*
X27352380Y68004761D01*
X27352380Y67909523D01*
X27400000Y67766666D01*
X27447619Y67719047D01*
X28352380Y66766666D02*
X28352380Y67338095D01*
X28352380Y67052380D02*
X27352380Y67052380D01*
X27495238Y67147619D01*
X27590476Y67242857D01*
X27638095Y67338095D01*
X27352380Y66147619D02*
X27352380Y66052380D01*
X27400000Y65957142D01*
X27447619Y65909523D01*
X27542857Y65861904D01*
X27733333Y65814285D01*
X27971428Y65814285D01*
X28161904Y65861904D01*
X28257142Y65909523D01*
X28304761Y65957142D01*
X28352380Y66052380D01*
X28352380Y66147619D01*
X28304761Y66242857D01*
X28257142Y66290476D01*
X28161904Y66338095D01*
X27971428Y66385714D01*
X27733333Y66385714D01*
X27542857Y66338095D01*
X27447619Y66290476D01*
X27400000Y66242857D01*
X27352380Y66147619D01*
X28352380Y64861904D02*
X28352380Y65433333D01*
X28352380Y65147619D02*
X27352380Y65147619D01*
X27495238Y65242857D01*
X27590476Y65338095D01*
X27638095Y65433333D01*
X22257142Y67619047D02*
X22304761Y67666666D01*
X22352380Y67809523D01*
X22352380Y67904761D01*
X22304761Y68047619D01*
X22209523Y68142857D01*
X22114285Y68190476D01*
X21923809Y68238095D01*
X21780952Y68238095D01*
X21590476Y68190476D01*
X21495238Y68142857D01*
X21400000Y68047619D01*
X21352380Y67904761D01*
X21352380Y67809523D01*
X21400000Y67666666D01*
X21447619Y67619047D01*
X22352380Y66666666D02*
X22352380Y67238095D01*
X22352380Y66952380D02*
X21352380Y66952380D01*
X21495238Y67047619D01*
X21590476Y67142857D01*
X21638095Y67238095D01*
X21352380Y66047619D02*
X21352380Y65952380D01*
X21400000Y65857142D01*
X21447619Y65809523D01*
X21542857Y65761904D01*
X21733333Y65714285D01*
X21971428Y65714285D01*
X22161904Y65761904D01*
X22257142Y65809523D01*
X22304761Y65857142D01*
X22352380Y65952380D01*
X22352380Y66047619D01*
X22304761Y66142857D01*
X22257142Y66190476D01*
X22161904Y66238095D01*
X21971428Y66285714D01*
X21733333Y66285714D01*
X21542857Y66238095D01*
X21447619Y66190476D01*
X21400000Y66142857D01*
X21352380Y66047619D01*
X21447619Y65333333D02*
X21400000Y65285714D01*
X21352380Y65190476D01*
X21352380Y64952380D01*
X21400000Y64857142D01*
X21447619Y64809523D01*
X21542857Y64761904D01*
X21638095Y64761904D01*
X21780952Y64809523D01*
X22352380Y65380952D01*
X22352380Y64761904D01*
X53357142Y67619047D02*
X53404761Y67666666D01*
X53452380Y67809523D01*
X53452380Y67904761D01*
X53404761Y68047619D01*
X53309523Y68142857D01*
X53214285Y68190476D01*
X53023809Y68238095D01*
X52880952Y68238095D01*
X52690476Y68190476D01*
X52595238Y68142857D01*
X52500000Y68047619D01*
X52452380Y67904761D01*
X52452380Y67809523D01*
X52500000Y67666666D01*
X52547619Y67619047D01*
X53452380Y66666666D02*
X53452380Y67238095D01*
X53452380Y66952380D02*
X52452380Y66952380D01*
X52595238Y67047619D01*
X52690476Y67142857D01*
X52738095Y67238095D01*
X52452380Y66047619D02*
X52452380Y65952380D01*
X52500000Y65857142D01*
X52547619Y65809523D01*
X52642857Y65761904D01*
X52833333Y65714285D01*
X53071428Y65714285D01*
X53261904Y65761904D01*
X53357142Y65809523D01*
X53404761Y65857142D01*
X53452380Y65952380D01*
X53452380Y66047619D01*
X53404761Y66142857D01*
X53357142Y66190476D01*
X53261904Y66238095D01*
X53071428Y66285714D01*
X52833333Y66285714D01*
X52642857Y66238095D01*
X52547619Y66190476D01*
X52500000Y66142857D01*
X52452380Y66047619D01*
X52452380Y65380952D02*
X52452380Y64761904D01*
X52833333Y65095238D01*
X52833333Y64952380D01*
X52880952Y64857142D01*
X52928571Y64809523D01*
X53023809Y64761904D01*
X53261904Y64761904D01*
X53357142Y64809523D01*
X53404761Y64857142D01*
X53452380Y64952380D01*
X53452380Y65238095D01*
X53404761Y65333333D01*
X53357142Y65380952D01*
X43357142Y67619047D02*
X43404761Y67666666D01*
X43452380Y67809523D01*
X43452380Y67904761D01*
X43404761Y68047619D01*
X43309523Y68142857D01*
X43214285Y68190476D01*
X43023809Y68238095D01*
X42880952Y68238095D01*
X42690476Y68190476D01*
X42595238Y68142857D01*
X42500000Y68047619D01*
X42452380Y67904761D01*
X42452380Y67809523D01*
X42500000Y67666666D01*
X42547619Y67619047D01*
X43452380Y66666666D02*
X43452380Y67238095D01*
X43452380Y66952380D02*
X42452380Y66952380D01*
X42595238Y67047619D01*
X42690476Y67142857D01*
X42738095Y67238095D01*
X42452380Y66047619D02*
X42452380Y65952380D01*
X42500000Y65857142D01*
X42547619Y65809523D01*
X42642857Y65761904D01*
X42833333Y65714285D01*
X43071428Y65714285D01*
X43261904Y65761904D01*
X43357142Y65809523D01*
X43404761Y65857142D01*
X43452380Y65952380D01*
X43452380Y66047619D01*
X43404761Y66142857D01*
X43357142Y66190476D01*
X43261904Y66238095D01*
X43071428Y66285714D01*
X42833333Y66285714D01*
X42642857Y66238095D01*
X42547619Y66190476D01*
X42500000Y66142857D01*
X42452380Y66047619D01*
X42785714Y64857142D02*
X43452380Y64857142D01*
X42404761Y65095238D02*
X43119047Y65333333D01*
X43119047Y64714285D01*
X72357142Y67619047D02*
X72404761Y67666666D01*
X72452380Y67809523D01*
X72452380Y67904761D01*
X72404761Y68047619D01*
X72309523Y68142857D01*
X72214285Y68190476D01*
X72023809Y68238095D01*
X71880952Y68238095D01*
X71690476Y68190476D01*
X71595238Y68142857D01*
X71500000Y68047619D01*
X71452380Y67904761D01*
X71452380Y67809523D01*
X71500000Y67666666D01*
X71547619Y67619047D01*
X72452380Y66666666D02*
X72452380Y67238095D01*
X72452380Y66952380D02*
X71452380Y66952380D01*
X71595238Y67047619D01*
X71690476Y67142857D01*
X71738095Y67238095D01*
X71452380Y66047619D02*
X71452380Y65952380D01*
X71500000Y65857142D01*
X71547619Y65809523D01*
X71642857Y65761904D01*
X71833333Y65714285D01*
X72071428Y65714285D01*
X72261904Y65761904D01*
X72357142Y65809523D01*
X72404761Y65857142D01*
X72452380Y65952380D01*
X72452380Y66047619D01*
X72404761Y66142857D01*
X72357142Y66190476D01*
X72261904Y66238095D01*
X72071428Y66285714D01*
X71833333Y66285714D01*
X71642857Y66238095D01*
X71547619Y66190476D01*
X71500000Y66142857D01*
X71452380Y66047619D01*
X71452380Y64809523D02*
X71452380Y65285714D01*
X71928571Y65333333D01*
X71880952Y65285714D01*
X71833333Y65190476D01*
X71833333Y64952380D01*
X71880952Y64857142D01*
X71928571Y64809523D01*
X72023809Y64761904D01*
X72261904Y64761904D01*
X72357142Y64809523D01*
X72404761Y64857142D01*
X72452380Y64952380D01*
X72452380Y65190476D01*
X72404761Y65285714D01*
X72357142Y65333333D01*
X62357142Y67619047D02*
X62404761Y67666666D01*
X62452380Y67809523D01*
X62452380Y67904761D01*
X62404761Y68047619D01*
X62309523Y68142857D01*
X62214285Y68190476D01*
X62023809Y68238095D01*
X61880952Y68238095D01*
X61690476Y68190476D01*
X61595238Y68142857D01*
X61500000Y68047619D01*
X61452380Y67904761D01*
X61452380Y67809523D01*
X61500000Y67666666D01*
X61547619Y67619047D01*
X62452380Y66666666D02*
X62452380Y67238095D01*
X62452380Y66952380D02*
X61452380Y66952380D01*
X61595238Y67047619D01*
X61690476Y67142857D01*
X61738095Y67238095D01*
X61452380Y66047619D02*
X61452380Y65952380D01*
X61500000Y65857142D01*
X61547619Y65809523D01*
X61642857Y65761904D01*
X61833333Y65714285D01*
X62071428Y65714285D01*
X62261904Y65761904D01*
X62357142Y65809523D01*
X62404761Y65857142D01*
X62452380Y65952380D01*
X62452380Y66047619D01*
X62404761Y66142857D01*
X62357142Y66190476D01*
X62261904Y66238095D01*
X62071428Y66285714D01*
X61833333Y66285714D01*
X61642857Y66238095D01*
X61547619Y66190476D01*
X61500000Y66142857D01*
X61452380Y66047619D01*
X61452380Y64857142D02*
X61452380Y65047619D01*
X61500000Y65142857D01*
X61547619Y65190476D01*
X61690476Y65285714D01*
X61880952Y65333333D01*
X62261904Y65333333D01*
X62357142Y65285714D01*
X62404761Y65238095D01*
X62452380Y65142857D01*
X62452380Y64952380D01*
X62404761Y64857142D01*
X62357142Y64809523D01*
X62261904Y64761904D01*
X62023809Y64761904D01*
X61928571Y64809523D01*
X61880952Y64857142D01*
X61833333Y64952380D01*
X61833333Y65142857D01*
X61880952Y65238095D01*
X61928571Y65285714D01*
X62023809Y65333333D01*
X93357142Y67619047D02*
X93404761Y67666666D01*
X93452380Y67809523D01*
X93452380Y67904761D01*
X93404761Y68047619D01*
X93309523Y68142857D01*
X93214285Y68190476D01*
X93023809Y68238095D01*
X92880952Y68238095D01*
X92690476Y68190476D01*
X92595238Y68142857D01*
X92500000Y68047619D01*
X92452380Y67904761D01*
X92452380Y67809523D01*
X92500000Y67666666D01*
X92547619Y67619047D01*
X93452380Y66666666D02*
X93452380Y67238095D01*
X93452380Y66952380D02*
X92452380Y66952380D01*
X92595238Y67047619D01*
X92690476Y67142857D01*
X92738095Y67238095D01*
X92452380Y66047619D02*
X92452380Y65952380D01*
X92500000Y65857142D01*
X92547619Y65809523D01*
X92642857Y65761904D01*
X92833333Y65714285D01*
X93071428Y65714285D01*
X93261904Y65761904D01*
X93357142Y65809523D01*
X93404761Y65857142D01*
X93452380Y65952380D01*
X93452380Y66047619D01*
X93404761Y66142857D01*
X93357142Y66190476D01*
X93261904Y66238095D01*
X93071428Y66285714D01*
X92833333Y66285714D01*
X92642857Y66238095D01*
X92547619Y66190476D01*
X92500000Y66142857D01*
X92452380Y66047619D01*
X92452380Y65380952D02*
X92452380Y64714285D01*
X93452380Y65142857D01*
X87257142Y67519047D02*
X87304761Y67566666D01*
X87352380Y67709523D01*
X87352380Y67804761D01*
X87304761Y67947619D01*
X87209523Y68042857D01*
X87114285Y68090476D01*
X86923809Y68138095D01*
X86780952Y68138095D01*
X86590476Y68090476D01*
X86495238Y68042857D01*
X86400000Y67947619D01*
X86352380Y67804761D01*
X86352380Y67709523D01*
X86400000Y67566666D01*
X86447619Y67519047D01*
X87352380Y66566666D02*
X87352380Y67138095D01*
X87352380Y66852380D02*
X86352380Y66852380D01*
X86495238Y66947619D01*
X86590476Y67042857D01*
X86638095Y67138095D01*
X86352380Y65947619D02*
X86352380Y65852380D01*
X86400000Y65757142D01*
X86447619Y65709523D01*
X86542857Y65661904D01*
X86733333Y65614285D01*
X86971428Y65614285D01*
X87161904Y65661904D01*
X87257142Y65709523D01*
X87304761Y65757142D01*
X87352380Y65852380D01*
X87352380Y65947619D01*
X87304761Y66042857D01*
X87257142Y66090476D01*
X87161904Y66138095D01*
X86971428Y66185714D01*
X86733333Y66185714D01*
X86542857Y66138095D01*
X86447619Y66090476D01*
X86400000Y66042857D01*
X86352380Y65947619D01*
X86780952Y65042857D02*
X86733333Y65138095D01*
X86685714Y65185714D01*
X86590476Y65233333D01*
X86542857Y65233333D01*
X86447619Y65185714D01*
X86400000Y65138095D01*
X86352380Y65042857D01*
X86352380Y64852380D01*
X86400000Y64757142D01*
X86447619Y64709523D01*
X86542857Y64661904D01*
X86590476Y64661904D01*
X86685714Y64709523D01*
X86733333Y64757142D01*
X86780952Y64852380D01*
X86780952Y65042857D01*
X86828571Y65138095D01*
X86876190Y65185714D01*
X86971428Y65233333D01*
X87161904Y65233333D01*
X87257142Y65185714D01*
X87304761Y65138095D01*
X87352380Y65042857D01*
X87352380Y64852380D01*
X87304761Y64757142D01*
X87257142Y64709523D01*
X87161904Y64661904D01*
X86971428Y64661904D01*
X86876190Y64709523D01*
X86828571Y64757142D01*
X86780952Y64852380D01*
X116357142Y67619047D02*
X116404761Y67666666D01*
X116452380Y67809523D01*
X116452380Y67904761D01*
X116404761Y68047619D01*
X116309523Y68142857D01*
X116214285Y68190476D01*
X116023809Y68238095D01*
X115880952Y68238095D01*
X115690476Y68190476D01*
X115595238Y68142857D01*
X115500000Y68047619D01*
X115452380Y67904761D01*
X115452380Y67809523D01*
X115500000Y67666666D01*
X115547619Y67619047D01*
X116452380Y66666666D02*
X116452380Y67238095D01*
X116452380Y66952380D02*
X115452380Y66952380D01*
X115595238Y67047619D01*
X115690476Y67142857D01*
X115738095Y67238095D01*
X115452380Y66047619D02*
X115452380Y65952380D01*
X115500000Y65857142D01*
X115547619Y65809523D01*
X115642857Y65761904D01*
X115833333Y65714285D01*
X116071428Y65714285D01*
X116261904Y65761904D01*
X116357142Y65809523D01*
X116404761Y65857142D01*
X116452380Y65952380D01*
X116452380Y66047619D01*
X116404761Y66142857D01*
X116357142Y66190476D01*
X116261904Y66238095D01*
X116071428Y66285714D01*
X115833333Y66285714D01*
X115642857Y66238095D01*
X115547619Y66190476D01*
X115500000Y66142857D01*
X115452380Y66047619D01*
X116452380Y65238095D02*
X116452380Y65047619D01*
X116404761Y64952380D01*
X116357142Y64904761D01*
X116214285Y64809523D01*
X116023809Y64761904D01*
X115642857Y64761904D01*
X115547619Y64809523D01*
X115500000Y64857142D01*
X115452380Y64952380D01*
X115452380Y65142857D01*
X115500000Y65238095D01*
X115547619Y65285714D01*
X115642857Y65333333D01*
X115880952Y65333333D01*
X115976190Y65285714D01*
X116023809Y65238095D01*
X116071428Y65142857D01*
X116071428Y64952380D01*
X116023809Y64857142D01*
X115976190Y64809523D01*
X115880952Y64761904D01*
X110357142Y67619047D02*
X110404761Y67666666D01*
X110452380Y67809523D01*
X110452380Y67904761D01*
X110404761Y68047619D01*
X110309523Y68142857D01*
X110214285Y68190476D01*
X110023809Y68238095D01*
X109880952Y68238095D01*
X109690476Y68190476D01*
X109595238Y68142857D01*
X109500000Y68047619D01*
X109452380Y67904761D01*
X109452380Y67809523D01*
X109500000Y67666666D01*
X109547619Y67619047D01*
X110452380Y66666666D02*
X110452380Y67238095D01*
X110452380Y66952380D02*
X109452380Y66952380D01*
X109595238Y67047619D01*
X109690476Y67142857D01*
X109738095Y67238095D01*
X110452380Y65714285D02*
X110452380Y66285714D01*
X110452380Y66000000D02*
X109452380Y66000000D01*
X109595238Y66095238D01*
X109690476Y66190476D01*
X109738095Y66285714D01*
X109452380Y65095238D02*
X109452380Y65000000D01*
X109500000Y64904761D01*
X109547619Y64857142D01*
X109642857Y64809523D01*
X109833333Y64761904D01*
X110071428Y64761904D01*
X110261904Y64809523D01*
X110357142Y64857142D01*
X110404761Y64904761D01*
X110452380Y65000000D01*
X110452380Y65095238D01*
X110404761Y65190476D01*
X110357142Y65238095D01*
X110261904Y65285714D01*
X110071428Y65333333D01*
X109833333Y65333333D01*
X109642857Y65285714D01*
X109547619Y65238095D01*
X109500000Y65190476D01*
X109452380Y65095238D01*
X139257142Y67619047D02*
X139304761Y67666666D01*
X139352380Y67809523D01*
X139352380Y67904761D01*
X139304761Y68047619D01*
X139209523Y68142857D01*
X139114285Y68190476D01*
X138923809Y68238095D01*
X138780952Y68238095D01*
X138590476Y68190476D01*
X138495238Y68142857D01*
X138400000Y68047619D01*
X138352380Y67904761D01*
X138352380Y67809523D01*
X138400000Y67666666D01*
X138447619Y67619047D01*
X139352380Y66666666D02*
X139352380Y67238095D01*
X139352380Y66952380D02*
X138352380Y66952380D01*
X138495238Y67047619D01*
X138590476Y67142857D01*
X138638095Y67238095D01*
X139352380Y65714285D02*
X139352380Y66285714D01*
X139352380Y66000000D02*
X138352380Y66000000D01*
X138495238Y66095238D01*
X138590476Y66190476D01*
X138638095Y66285714D01*
X139352380Y64761904D02*
X139352380Y65333333D01*
X139352380Y65047619D02*
X138352380Y65047619D01*
X138495238Y65142857D01*
X138590476Y65238095D01*
X138638095Y65333333D01*
X133357142Y67619047D02*
X133404761Y67666666D01*
X133452380Y67809523D01*
X133452380Y67904761D01*
X133404761Y68047619D01*
X133309523Y68142857D01*
X133214285Y68190476D01*
X133023809Y68238095D01*
X132880952Y68238095D01*
X132690476Y68190476D01*
X132595238Y68142857D01*
X132500000Y68047619D01*
X132452380Y67904761D01*
X132452380Y67809523D01*
X132500000Y67666666D01*
X132547619Y67619047D01*
X133452380Y66666666D02*
X133452380Y67238095D01*
X133452380Y66952380D02*
X132452380Y66952380D01*
X132595238Y67047619D01*
X132690476Y67142857D01*
X132738095Y67238095D01*
X133452380Y65714285D02*
X133452380Y66285714D01*
X133452380Y66000000D02*
X132452380Y66000000D01*
X132595238Y66095238D01*
X132690476Y66190476D01*
X132738095Y66285714D01*
X132547619Y65333333D02*
X132500000Y65285714D01*
X132452380Y65190476D01*
X132452380Y64952380D01*
X132500000Y64857142D01*
X132547619Y64809523D01*
X132642857Y64761904D01*
X132738095Y64761904D01*
X132880952Y64809523D01*
X133452380Y65380952D01*
X133452380Y64761904D01*
X162357142Y67619047D02*
X162404761Y67666666D01*
X162452380Y67809523D01*
X162452380Y67904761D01*
X162404761Y68047619D01*
X162309523Y68142857D01*
X162214285Y68190476D01*
X162023809Y68238095D01*
X161880952Y68238095D01*
X161690476Y68190476D01*
X161595238Y68142857D01*
X161500000Y68047619D01*
X161452380Y67904761D01*
X161452380Y67809523D01*
X161500000Y67666666D01*
X161547619Y67619047D01*
X162452380Y66666666D02*
X162452380Y67238095D01*
X162452380Y66952380D02*
X161452380Y66952380D01*
X161595238Y67047619D01*
X161690476Y67142857D01*
X161738095Y67238095D01*
X162452380Y65714285D02*
X162452380Y66285714D01*
X162452380Y66000000D02*
X161452380Y66000000D01*
X161595238Y66095238D01*
X161690476Y66190476D01*
X161738095Y66285714D01*
X161452380Y65380952D02*
X161452380Y64761904D01*
X161833333Y65095238D01*
X161833333Y64952380D01*
X161880952Y64857142D01*
X161928571Y64809523D01*
X162023809Y64761904D01*
X162261904Y64761904D01*
X162357142Y64809523D01*
X162404761Y64857142D01*
X162452380Y64952380D01*
X162452380Y65238095D01*
X162404761Y65333333D01*
X162357142Y65380952D01*
X156357142Y67619047D02*
X156404761Y67666666D01*
X156452380Y67809523D01*
X156452380Y67904761D01*
X156404761Y68047619D01*
X156309523Y68142857D01*
X156214285Y68190476D01*
X156023809Y68238095D01*
X155880952Y68238095D01*
X155690476Y68190476D01*
X155595238Y68142857D01*
X155500000Y68047619D01*
X155452380Y67904761D01*
X155452380Y67809523D01*
X155500000Y67666666D01*
X155547619Y67619047D01*
X156452380Y66666666D02*
X156452380Y67238095D01*
X156452380Y66952380D02*
X155452380Y66952380D01*
X155595238Y67047619D01*
X155690476Y67142857D01*
X155738095Y67238095D01*
X156452380Y65714285D02*
X156452380Y66285714D01*
X156452380Y66000000D02*
X155452380Y66000000D01*
X155595238Y66095238D01*
X155690476Y66190476D01*
X155738095Y66285714D01*
X155785714Y64857142D02*
X156452380Y64857142D01*
X155404761Y65095238D02*
X156119047Y65333333D01*
X156119047Y64714285D01*
X185357142Y67619047D02*
X185404761Y67666666D01*
X185452380Y67809523D01*
X185452380Y67904761D01*
X185404761Y68047619D01*
X185309523Y68142857D01*
X185214285Y68190476D01*
X185023809Y68238095D01*
X184880952Y68238095D01*
X184690476Y68190476D01*
X184595238Y68142857D01*
X184500000Y68047619D01*
X184452380Y67904761D01*
X184452380Y67809523D01*
X184500000Y67666666D01*
X184547619Y67619047D01*
X185452380Y66666666D02*
X185452380Y67238095D01*
X185452380Y66952380D02*
X184452380Y66952380D01*
X184595238Y67047619D01*
X184690476Y67142857D01*
X184738095Y67238095D01*
X185452380Y65714285D02*
X185452380Y66285714D01*
X185452380Y66000000D02*
X184452380Y66000000D01*
X184595238Y66095238D01*
X184690476Y66190476D01*
X184738095Y66285714D01*
X184452380Y64809523D02*
X184452380Y65285714D01*
X184928571Y65333333D01*
X184880952Y65285714D01*
X184833333Y65190476D01*
X184833333Y64952380D01*
X184880952Y64857142D01*
X184928571Y64809523D01*
X185023809Y64761904D01*
X185261904Y64761904D01*
X185357142Y64809523D01*
X185404761Y64857142D01*
X185452380Y64952380D01*
X185452380Y65190476D01*
X185404761Y65285714D01*
X185357142Y65333333D01*
X179357142Y67619047D02*
X179404761Y67666666D01*
X179452380Y67809523D01*
X179452380Y67904761D01*
X179404761Y68047619D01*
X179309523Y68142857D01*
X179214285Y68190476D01*
X179023809Y68238095D01*
X178880952Y68238095D01*
X178690476Y68190476D01*
X178595238Y68142857D01*
X178500000Y68047619D01*
X178452380Y67904761D01*
X178452380Y67809523D01*
X178500000Y67666666D01*
X178547619Y67619047D01*
X179452380Y66666666D02*
X179452380Y67238095D01*
X179452380Y66952380D02*
X178452380Y66952380D01*
X178595238Y67047619D01*
X178690476Y67142857D01*
X178738095Y67238095D01*
X179452380Y65714285D02*
X179452380Y66285714D01*
X179452380Y66000000D02*
X178452380Y66000000D01*
X178595238Y66095238D01*
X178690476Y66190476D01*
X178738095Y66285714D01*
X178452380Y64857142D02*
X178452380Y65047619D01*
X178500000Y65142857D01*
X178547619Y65190476D01*
X178690476Y65285714D01*
X178880952Y65333333D01*
X179261904Y65333333D01*
X179357142Y65285714D01*
X179404761Y65238095D01*
X179452380Y65142857D01*
X179452380Y64952380D01*
X179404761Y64857142D01*
X179357142Y64809523D01*
X179261904Y64761904D01*
X179023809Y64761904D01*
X178928571Y64809523D01*
X178880952Y64857142D01*
X178833333Y64952380D01*
X178833333Y65142857D01*
X178880952Y65238095D01*
X178928571Y65285714D01*
X179023809Y65333333D01*
X118552380Y67619047D02*
X118076190Y67952380D01*
X118552380Y68190476D02*
X117552380Y68190476D01*
X117552380Y67809523D01*
X117600000Y67714285D01*
X117647619Y67666666D01*
X117742857Y67619047D01*
X117885714Y67619047D01*
X117980952Y67666666D01*
X118028571Y67714285D01*
X118076190Y67809523D01*
X118076190Y68190476D01*
X118552380Y66666666D02*
X118552380Y67238095D01*
X118552380Y66952380D02*
X117552380Y66952380D01*
X117695238Y67047619D01*
X117790476Y67142857D01*
X117838095Y67238095D01*
X118552380Y65714285D02*
X118552380Y66285714D01*
X118552380Y66000000D02*
X117552380Y66000000D01*
X117695238Y66095238D01*
X117790476Y66190476D01*
X117838095Y66285714D01*
X117552380Y65380952D02*
X117552380Y64714285D01*
X118552380Y65142857D01*
X114452380Y67619047D02*
X113976190Y67952380D01*
X114452380Y68190476D02*
X113452380Y68190476D01*
X113452380Y67809523D01*
X113500000Y67714285D01*
X113547619Y67666666D01*
X113642857Y67619047D01*
X113785714Y67619047D01*
X113880952Y67666666D01*
X113928571Y67714285D01*
X113976190Y67809523D01*
X113976190Y68190476D01*
X114452380Y66666666D02*
X114452380Y67238095D01*
X114452380Y66952380D02*
X113452380Y66952380D01*
X113595238Y67047619D01*
X113690476Y67142857D01*
X113738095Y67238095D01*
X114452380Y65714285D02*
X114452380Y66285714D01*
X114452380Y66000000D02*
X113452380Y66000000D01*
X113595238Y66095238D01*
X113690476Y66190476D01*
X113738095Y66285714D01*
X113880952Y65142857D02*
X113833333Y65238095D01*
X113785714Y65285714D01*
X113690476Y65333333D01*
X113642857Y65333333D01*
X113547619Y65285714D01*
X113500000Y65238095D01*
X113452380Y65142857D01*
X113452380Y64952380D01*
X113500000Y64857142D01*
X113547619Y64809523D01*
X113642857Y64761904D01*
X113690476Y64761904D01*
X113785714Y64809523D01*
X113833333Y64857142D01*
X113880952Y64952380D01*
X113880952Y65142857D01*
X113928571Y65238095D01*
X113976190Y65285714D01*
X114071428Y65333333D01*
X114261904Y65333333D01*
X114357142Y65285714D01*
X114404761Y65238095D01*
X114452380Y65142857D01*
X114452380Y64952380D01*
X114404761Y64857142D01*
X114357142Y64809523D01*
X114261904Y64761904D01*
X114071428Y64761904D01*
X113976190Y64809523D01*
X113928571Y64857142D01*
X113880952Y64952380D01*
X112452380Y67619047D02*
X111976190Y67952380D01*
X112452380Y68190476D02*
X111452380Y68190476D01*
X111452380Y67809523D01*
X111500000Y67714285D01*
X111547619Y67666666D01*
X111642857Y67619047D01*
X111785714Y67619047D01*
X111880952Y67666666D01*
X111928571Y67714285D01*
X111976190Y67809523D01*
X111976190Y68190476D01*
X112452380Y66666666D02*
X112452380Y67238095D01*
X112452380Y66952380D02*
X111452380Y66952380D01*
X111595238Y67047619D01*
X111690476Y67142857D01*
X111738095Y67238095D01*
X112452380Y65714285D02*
X112452380Y66285714D01*
X112452380Y66000000D02*
X111452380Y66000000D01*
X111595238Y66095238D01*
X111690476Y66190476D01*
X111738095Y66285714D01*
X112452380Y65238095D02*
X112452380Y65047619D01*
X112404761Y64952380D01*
X112357142Y64904761D01*
X112214285Y64809523D01*
X112023809Y64761904D01*
X111642857Y64761904D01*
X111547619Y64809523D01*
X111500000Y64857142D01*
X111452380Y64952380D01*
X111452380Y65142857D01*
X111500000Y65238095D01*
X111547619Y65285714D01*
X111642857Y65333333D01*
X111880952Y65333333D01*
X111976190Y65285714D01*
X112023809Y65238095D01*
X112071428Y65142857D01*
X112071428Y64952380D01*
X112023809Y64857142D01*
X111976190Y64809523D01*
X111880952Y64761904D01*
X108452380Y67619047D02*
X107976190Y67952380D01*
X108452380Y68190476D02*
X107452380Y68190476D01*
X107452380Y67809523D01*
X107500000Y67714285D01*
X107547619Y67666666D01*
X107642857Y67619047D01*
X107785714Y67619047D01*
X107880952Y67666666D01*
X107928571Y67714285D01*
X107976190Y67809523D01*
X107976190Y68190476D01*
X108452380Y66666666D02*
X108452380Y67238095D01*
X108452380Y66952380D02*
X107452380Y66952380D01*
X107595238Y67047619D01*
X107690476Y67142857D01*
X107738095Y67238095D01*
X107547619Y66285714D02*
X107500000Y66238095D01*
X107452380Y66142857D01*
X107452380Y65904761D01*
X107500000Y65809523D01*
X107547619Y65761904D01*
X107642857Y65714285D01*
X107738095Y65714285D01*
X107880952Y65761904D01*
X108452380Y66333333D01*
X108452380Y65714285D01*
X107452380Y65095238D02*
X107452380Y65000000D01*
X107500000Y64904761D01*
X107547619Y64857142D01*
X107642857Y64809523D01*
X107833333Y64761904D01*
X108071428Y64761904D01*
X108261904Y64809523D01*
X108357142Y64857142D01*
X108404761Y64904761D01*
X108452380Y65000000D01*
X108452380Y65095238D01*
X108404761Y65190476D01*
X108357142Y65238095D01*
X108261904Y65285714D01*
X108071428Y65333333D01*
X107833333Y65333333D01*
X107642857Y65285714D01*
X107547619Y65238095D01*
X107500000Y65190476D01*
X107452380Y65095238D01*
X141452380Y67619047D02*
X140976190Y67952380D01*
X141452380Y68190476D02*
X140452380Y68190476D01*
X140452380Y67809523D01*
X140500000Y67714285D01*
X140547619Y67666666D01*
X140642857Y67619047D01*
X140785714Y67619047D01*
X140880952Y67666666D01*
X140928571Y67714285D01*
X140976190Y67809523D01*
X140976190Y68190476D01*
X141452380Y66666666D02*
X141452380Y67238095D01*
X141452380Y66952380D02*
X140452380Y66952380D01*
X140595238Y67047619D01*
X140690476Y67142857D01*
X140738095Y67238095D01*
X140547619Y66285714D02*
X140500000Y66238095D01*
X140452380Y66142857D01*
X140452380Y65904761D01*
X140500000Y65809523D01*
X140547619Y65761904D01*
X140642857Y65714285D01*
X140738095Y65714285D01*
X140880952Y65761904D01*
X141452380Y66333333D01*
X141452380Y65714285D01*
X141452380Y64761904D02*
X141452380Y65333333D01*
X141452380Y65047619D02*
X140452380Y65047619D01*
X140595238Y65142857D01*
X140690476Y65238095D01*
X140738095Y65333333D01*
X137452380Y67619047D02*
X136976190Y67952380D01*
X137452380Y68190476D02*
X136452380Y68190476D01*
X136452380Y67809523D01*
X136500000Y67714285D01*
X136547619Y67666666D01*
X136642857Y67619047D01*
X136785714Y67619047D01*
X136880952Y67666666D01*
X136928571Y67714285D01*
X136976190Y67809523D01*
X136976190Y68190476D01*
X137452380Y66666666D02*
X137452380Y67238095D01*
X137452380Y66952380D02*
X136452380Y66952380D01*
X136595238Y67047619D01*
X136690476Y67142857D01*
X136738095Y67238095D01*
X136547619Y66285714D02*
X136500000Y66238095D01*
X136452380Y66142857D01*
X136452380Y65904761D01*
X136500000Y65809523D01*
X136547619Y65761904D01*
X136642857Y65714285D01*
X136738095Y65714285D01*
X136880952Y65761904D01*
X137452380Y66333333D01*
X137452380Y65714285D01*
X136547619Y65333333D02*
X136500000Y65285714D01*
X136452380Y65190476D01*
X136452380Y64952380D01*
X136500000Y64857142D01*
X136547619Y64809523D01*
X136642857Y64761904D01*
X136738095Y64761904D01*
X136880952Y64809523D01*
X137452380Y65380952D01*
X137452380Y64761904D01*
X135452380Y67619047D02*
X134976190Y67952380D01*
X135452380Y68190476D02*
X134452380Y68190476D01*
X134452380Y67809523D01*
X134500000Y67714285D01*
X134547619Y67666666D01*
X134642857Y67619047D01*
X134785714Y67619047D01*
X134880952Y67666666D01*
X134928571Y67714285D01*
X134976190Y67809523D01*
X134976190Y68190476D01*
X135452380Y66666666D02*
X135452380Y67238095D01*
X135452380Y66952380D02*
X134452380Y66952380D01*
X134595238Y67047619D01*
X134690476Y67142857D01*
X134738095Y67238095D01*
X134547619Y66285714D02*
X134500000Y66238095D01*
X134452380Y66142857D01*
X134452380Y65904761D01*
X134500000Y65809523D01*
X134547619Y65761904D01*
X134642857Y65714285D01*
X134738095Y65714285D01*
X134880952Y65761904D01*
X135452380Y66333333D01*
X135452380Y65714285D01*
X134452380Y65380952D02*
X134452380Y64761904D01*
X134833333Y65095238D01*
X134833333Y64952380D01*
X134880952Y64857142D01*
X134928571Y64809523D01*
X135023809Y64761904D01*
X135261904Y64761904D01*
X135357142Y64809523D01*
X135404761Y64857142D01*
X135452380Y64952380D01*
X135452380Y65238095D01*
X135404761Y65333333D01*
X135357142Y65380952D01*
X131552380Y67619047D02*
X131076190Y67952380D01*
X131552380Y68190476D02*
X130552380Y68190476D01*
X130552380Y67809523D01*
X130600000Y67714285D01*
X130647619Y67666666D01*
X130742857Y67619047D01*
X130885714Y67619047D01*
X130980952Y67666666D01*
X131028571Y67714285D01*
X131076190Y67809523D01*
X131076190Y68190476D01*
X131552380Y66666666D02*
X131552380Y67238095D01*
X131552380Y66952380D02*
X130552380Y66952380D01*
X130695238Y67047619D01*
X130790476Y67142857D01*
X130838095Y67238095D01*
X130647619Y66285714D02*
X130600000Y66238095D01*
X130552380Y66142857D01*
X130552380Y65904761D01*
X130600000Y65809523D01*
X130647619Y65761904D01*
X130742857Y65714285D01*
X130838095Y65714285D01*
X130980952Y65761904D01*
X131552380Y66333333D01*
X131552380Y65714285D01*
X130885714Y64857142D02*
X131552380Y64857142D01*
X130504761Y65095238D02*
X131219047Y65333333D01*
X131219047Y64714285D01*
X164552380Y67619047D02*
X164076190Y67952380D01*
X164552380Y68190476D02*
X163552380Y68190476D01*
X163552380Y67809523D01*
X163600000Y67714285D01*
X163647619Y67666666D01*
X163742857Y67619047D01*
X163885714Y67619047D01*
X163980952Y67666666D01*
X164028571Y67714285D01*
X164076190Y67809523D01*
X164076190Y68190476D01*
X164552380Y66666666D02*
X164552380Y67238095D01*
X164552380Y66952380D02*
X163552380Y66952380D01*
X163695238Y67047619D01*
X163790476Y67142857D01*
X163838095Y67238095D01*
X163647619Y66285714D02*
X163600000Y66238095D01*
X163552380Y66142857D01*
X163552380Y65904761D01*
X163600000Y65809523D01*
X163647619Y65761904D01*
X163742857Y65714285D01*
X163838095Y65714285D01*
X163980952Y65761904D01*
X164552380Y66333333D01*
X164552380Y65714285D01*
X163552380Y64809523D02*
X163552380Y65285714D01*
X164028571Y65333333D01*
X163980952Y65285714D01*
X163933333Y65190476D01*
X163933333Y64952380D01*
X163980952Y64857142D01*
X164028571Y64809523D01*
X164123809Y64761904D01*
X164361904Y64761904D01*
X164457142Y64809523D01*
X164504761Y64857142D01*
X164552380Y64952380D01*
X164552380Y65190476D01*
X164504761Y65285714D01*
X164457142Y65333333D01*
X160552380Y67619047D02*
X160076190Y67952380D01*
X160552380Y68190476D02*
X159552380Y68190476D01*
X159552380Y67809523D01*
X159600000Y67714285D01*
X159647619Y67666666D01*
X159742857Y67619047D01*
X159885714Y67619047D01*
X159980952Y67666666D01*
X160028571Y67714285D01*
X160076190Y67809523D01*
X160076190Y68190476D01*
X160552380Y66666666D02*
X160552380Y67238095D01*
X160552380Y66952380D02*
X159552380Y66952380D01*
X159695238Y67047619D01*
X159790476Y67142857D01*
X159838095Y67238095D01*
X159647619Y66285714D02*
X159600000Y66238095D01*
X159552380Y66142857D01*
X159552380Y65904761D01*
X159600000Y65809523D01*
X159647619Y65761904D01*
X159742857Y65714285D01*
X159838095Y65714285D01*
X159980952Y65761904D01*
X160552380Y66333333D01*
X160552380Y65714285D01*
X159552380Y64857142D02*
X159552380Y65047619D01*
X159600000Y65142857D01*
X159647619Y65190476D01*
X159790476Y65285714D01*
X159980952Y65333333D01*
X160361904Y65333333D01*
X160457142Y65285714D01*
X160504761Y65238095D01*
X160552380Y65142857D01*
X160552380Y64952380D01*
X160504761Y64857142D01*
X160457142Y64809523D01*
X160361904Y64761904D01*
X160123809Y64761904D01*
X160028571Y64809523D01*
X159980952Y64857142D01*
X159933333Y64952380D01*
X159933333Y65142857D01*
X159980952Y65238095D01*
X160028571Y65285714D01*
X160123809Y65333333D01*
X158452380Y67619047D02*
X157976190Y67952380D01*
X158452380Y68190476D02*
X157452380Y68190476D01*
X157452380Y67809523D01*
X157500000Y67714285D01*
X157547619Y67666666D01*
X157642857Y67619047D01*
X157785714Y67619047D01*
X157880952Y67666666D01*
X157928571Y67714285D01*
X157976190Y67809523D01*
X157976190Y68190476D01*
X158452380Y66666666D02*
X158452380Y67238095D01*
X158452380Y66952380D02*
X157452380Y66952380D01*
X157595238Y67047619D01*
X157690476Y67142857D01*
X157738095Y67238095D01*
X157547619Y66285714D02*
X157500000Y66238095D01*
X157452380Y66142857D01*
X157452380Y65904761D01*
X157500000Y65809523D01*
X157547619Y65761904D01*
X157642857Y65714285D01*
X157738095Y65714285D01*
X157880952Y65761904D01*
X158452380Y66333333D01*
X158452380Y65714285D01*
X157452380Y65380952D02*
X157452380Y64714285D01*
X158452380Y65142857D01*
X154552380Y67619047D02*
X154076190Y67952380D01*
X154552380Y68190476D02*
X153552380Y68190476D01*
X153552380Y67809523D01*
X153600000Y67714285D01*
X153647619Y67666666D01*
X153742857Y67619047D01*
X153885714Y67619047D01*
X153980952Y67666666D01*
X154028571Y67714285D01*
X154076190Y67809523D01*
X154076190Y68190476D01*
X154552380Y66666666D02*
X154552380Y67238095D01*
X154552380Y66952380D02*
X153552380Y66952380D01*
X153695238Y67047619D01*
X153790476Y67142857D01*
X153838095Y67238095D01*
X153647619Y66285714D02*
X153600000Y66238095D01*
X153552380Y66142857D01*
X153552380Y65904761D01*
X153600000Y65809523D01*
X153647619Y65761904D01*
X153742857Y65714285D01*
X153838095Y65714285D01*
X153980952Y65761904D01*
X154552380Y66333333D01*
X154552380Y65714285D01*
X153980952Y65142857D02*
X153933333Y65238095D01*
X153885714Y65285714D01*
X153790476Y65333333D01*
X153742857Y65333333D01*
X153647619Y65285714D01*
X153600000Y65238095D01*
X153552380Y65142857D01*
X153552380Y64952380D01*
X153600000Y64857142D01*
X153647619Y64809523D01*
X153742857Y64761904D01*
X153790476Y64761904D01*
X153885714Y64809523D01*
X153933333Y64857142D01*
X153980952Y64952380D01*
X153980952Y65142857D01*
X154028571Y65238095D01*
X154076190Y65285714D01*
X154171428Y65333333D01*
X154361904Y65333333D01*
X154457142Y65285714D01*
X154504761Y65238095D01*
X154552380Y65142857D01*
X154552380Y64952380D01*
X154504761Y64857142D01*
X154457142Y64809523D01*
X154361904Y64761904D01*
X154171428Y64761904D01*
X154076190Y64809523D01*
X154028571Y64857142D01*
X153980952Y64952380D01*
X187452380Y67619047D02*
X186976190Y67952380D01*
X187452380Y68190476D02*
X186452380Y68190476D01*
X186452380Y67809523D01*
X186500000Y67714285D01*
X186547619Y67666666D01*
X186642857Y67619047D01*
X186785714Y67619047D01*
X186880952Y67666666D01*
X186928571Y67714285D01*
X186976190Y67809523D01*
X186976190Y68190476D01*
X187452380Y66666666D02*
X187452380Y67238095D01*
X187452380Y66952380D02*
X186452380Y66952380D01*
X186595238Y67047619D01*
X186690476Y67142857D01*
X186738095Y67238095D01*
X186547619Y66285714D02*
X186500000Y66238095D01*
X186452380Y66142857D01*
X186452380Y65904761D01*
X186500000Y65809523D01*
X186547619Y65761904D01*
X186642857Y65714285D01*
X186738095Y65714285D01*
X186880952Y65761904D01*
X187452380Y66333333D01*
X187452380Y65714285D01*
X187452380Y65238095D02*
X187452380Y65047619D01*
X187404761Y64952380D01*
X187357142Y64904761D01*
X187214285Y64809523D01*
X187023809Y64761904D01*
X186642857Y64761904D01*
X186547619Y64809523D01*
X186500000Y64857142D01*
X186452380Y64952380D01*
X186452380Y65142857D01*
X186500000Y65238095D01*
X186547619Y65285714D01*
X186642857Y65333333D01*
X186880952Y65333333D01*
X186976190Y65285714D01*
X187023809Y65238095D01*
X187071428Y65142857D01*
X187071428Y64952380D01*
X187023809Y64857142D01*
X186976190Y64809523D01*
X186880952Y64761904D01*
X183452380Y67619047D02*
X182976190Y67952380D01*
X183452380Y68190476D02*
X182452380Y68190476D01*
X182452380Y67809523D01*
X182500000Y67714285D01*
X182547619Y67666666D01*
X182642857Y67619047D01*
X182785714Y67619047D01*
X182880952Y67666666D01*
X182928571Y67714285D01*
X182976190Y67809523D01*
X182976190Y68190476D01*
X183452380Y66666666D02*
X183452380Y67238095D01*
X183452380Y66952380D02*
X182452380Y66952380D01*
X182595238Y67047619D01*
X182690476Y67142857D01*
X182738095Y67238095D01*
X182452380Y66333333D02*
X182452380Y65714285D01*
X182833333Y66047619D01*
X182833333Y65904761D01*
X182880952Y65809523D01*
X182928571Y65761904D01*
X183023809Y65714285D01*
X183261904Y65714285D01*
X183357142Y65761904D01*
X183404761Y65809523D01*
X183452380Y65904761D01*
X183452380Y66190476D01*
X183404761Y66285714D01*
X183357142Y66333333D01*
X182452380Y65095238D02*
X182452380Y65000000D01*
X182500000Y64904761D01*
X182547619Y64857142D01*
X182642857Y64809523D01*
X182833333Y64761904D01*
X183071428Y64761904D01*
X183261904Y64809523D01*
X183357142Y64857142D01*
X183404761Y64904761D01*
X183452380Y65000000D01*
X183452380Y65095238D01*
X183404761Y65190476D01*
X183357142Y65238095D01*
X183261904Y65285714D01*
X183071428Y65333333D01*
X182833333Y65333333D01*
X182642857Y65285714D01*
X182547619Y65238095D01*
X182500000Y65190476D01*
X182452380Y65095238D01*
X181452380Y67619047D02*
X180976190Y67952380D01*
X181452380Y68190476D02*
X180452380Y68190476D01*
X180452380Y67809523D01*
X180500000Y67714285D01*
X180547619Y67666666D01*
X180642857Y67619047D01*
X180785714Y67619047D01*
X180880952Y67666666D01*
X180928571Y67714285D01*
X180976190Y67809523D01*
X180976190Y68190476D01*
X181452380Y66666666D02*
X181452380Y67238095D01*
X181452380Y66952380D02*
X180452380Y66952380D01*
X180595238Y67047619D01*
X180690476Y67142857D01*
X180738095Y67238095D01*
X180452380Y66333333D02*
X180452380Y65714285D01*
X180833333Y66047619D01*
X180833333Y65904761D01*
X180880952Y65809523D01*
X180928571Y65761904D01*
X181023809Y65714285D01*
X181261904Y65714285D01*
X181357142Y65761904D01*
X181404761Y65809523D01*
X181452380Y65904761D01*
X181452380Y66190476D01*
X181404761Y66285714D01*
X181357142Y66333333D01*
X181452380Y64761904D02*
X181452380Y65333333D01*
X181452380Y65047619D02*
X180452380Y65047619D01*
X180595238Y65142857D01*
X180690476Y65238095D01*
X180738095Y65333333D01*
X177552380Y67619047D02*
X177076190Y67952380D01*
X177552380Y68190476D02*
X176552380Y68190476D01*
X176552380Y67809523D01*
X176600000Y67714285D01*
X176647619Y67666666D01*
X176742857Y67619047D01*
X176885714Y67619047D01*
X176980952Y67666666D01*
X177028571Y67714285D01*
X177076190Y67809523D01*
X177076190Y68190476D01*
X177552380Y66666666D02*
X177552380Y67238095D01*
X177552380Y66952380D02*
X176552380Y66952380D01*
X176695238Y67047619D01*
X176790476Y67142857D01*
X176838095Y67238095D01*
X176552380Y66333333D02*
X176552380Y65714285D01*
X176933333Y66047619D01*
X176933333Y65904761D01*
X176980952Y65809523D01*
X177028571Y65761904D01*
X177123809Y65714285D01*
X177361904Y65714285D01*
X177457142Y65761904D01*
X177504761Y65809523D01*
X177552380Y65904761D01*
X177552380Y66190476D01*
X177504761Y66285714D01*
X177457142Y66333333D01*
X176647619Y65333333D02*
X176600000Y65285714D01*
X176552380Y65190476D01*
X176552380Y64952380D01*
X176600000Y64857142D01*
X176647619Y64809523D01*
X176742857Y64761904D01*
X176838095Y64761904D01*
X176980952Y64809523D01*
X177552380Y65380952D01*
X177552380Y64761904D01*
X34352380Y67619047D02*
X33876190Y67952380D01*
X34352380Y68190476D02*
X33352380Y68190476D01*
X33352380Y67809523D01*
X33400000Y67714285D01*
X33447619Y67666666D01*
X33542857Y67619047D01*
X33685714Y67619047D01*
X33780952Y67666666D01*
X33828571Y67714285D01*
X33876190Y67809523D01*
X33876190Y68190476D01*
X34352380Y66666666D02*
X34352380Y67238095D01*
X34352380Y66952380D02*
X33352380Y66952380D01*
X33495238Y67047619D01*
X33590476Y67142857D01*
X33638095Y67238095D01*
X33352380Y66333333D02*
X33352380Y65714285D01*
X33733333Y66047619D01*
X33733333Y65904761D01*
X33780952Y65809523D01*
X33828571Y65761904D01*
X33923809Y65714285D01*
X34161904Y65714285D01*
X34257142Y65761904D01*
X34304761Y65809523D01*
X34352380Y65904761D01*
X34352380Y66190476D01*
X34304761Y66285714D01*
X34257142Y66333333D01*
X33352380Y65380952D02*
X33352380Y64761904D01*
X33733333Y65095238D01*
X33733333Y64952380D01*
X33780952Y64857142D01*
X33828571Y64809523D01*
X33923809Y64761904D01*
X34161904Y64761904D01*
X34257142Y64809523D01*
X34304761Y64857142D01*
X34352380Y64952380D01*
X34352380Y65238095D01*
X34304761Y65333333D01*
X34257142Y65380952D01*
X36352380Y67619047D02*
X35876190Y67952380D01*
X36352380Y68190476D02*
X35352380Y68190476D01*
X35352380Y67809523D01*
X35400000Y67714285D01*
X35447619Y67666666D01*
X35542857Y67619047D01*
X35685714Y67619047D01*
X35780952Y67666666D01*
X35828571Y67714285D01*
X35876190Y67809523D01*
X35876190Y68190476D01*
X36352380Y66666666D02*
X36352380Y67238095D01*
X36352380Y66952380D02*
X35352380Y66952380D01*
X35495238Y67047619D01*
X35590476Y67142857D01*
X35638095Y67238095D01*
X35352380Y66333333D02*
X35352380Y65714285D01*
X35733333Y66047619D01*
X35733333Y65904761D01*
X35780952Y65809523D01*
X35828571Y65761904D01*
X35923809Y65714285D01*
X36161904Y65714285D01*
X36257142Y65761904D01*
X36304761Y65809523D01*
X36352380Y65904761D01*
X36352380Y66190476D01*
X36304761Y66285714D01*
X36257142Y66333333D01*
X35685714Y64857142D02*
X36352380Y64857142D01*
X35304761Y65095238D02*
X36019047Y65333333D01*
X36019047Y64714285D01*
X32352380Y67619047D02*
X31876190Y67952380D01*
X32352380Y68190476D02*
X31352380Y68190476D01*
X31352380Y67809523D01*
X31400000Y67714285D01*
X31447619Y67666666D01*
X31542857Y67619047D01*
X31685714Y67619047D01*
X31780952Y67666666D01*
X31828571Y67714285D01*
X31876190Y67809523D01*
X31876190Y68190476D01*
X32352380Y66666666D02*
X32352380Y67238095D01*
X32352380Y66952380D02*
X31352380Y66952380D01*
X31495238Y67047619D01*
X31590476Y67142857D01*
X31638095Y67238095D01*
X31352380Y66333333D02*
X31352380Y65714285D01*
X31733333Y66047619D01*
X31733333Y65904761D01*
X31780952Y65809523D01*
X31828571Y65761904D01*
X31923809Y65714285D01*
X32161904Y65714285D01*
X32257142Y65761904D01*
X32304761Y65809523D01*
X32352380Y65904761D01*
X32352380Y66190476D01*
X32304761Y66285714D01*
X32257142Y66333333D01*
X31352380Y64809523D02*
X31352380Y65285714D01*
X31828571Y65333333D01*
X31780952Y65285714D01*
X31733333Y65190476D01*
X31733333Y64952380D01*
X31780952Y64857142D01*
X31828571Y64809523D01*
X31923809Y64761904D01*
X32161904Y64761904D01*
X32257142Y64809523D01*
X32304761Y64857142D01*
X32352380Y64952380D01*
X32352380Y65190476D01*
X32304761Y65285714D01*
X32257142Y65333333D01*
X50852380Y67619047D02*
X50376190Y67952380D01*
X50852380Y68190476D02*
X49852380Y68190476D01*
X49852380Y67809523D01*
X49900000Y67714285D01*
X49947619Y67666666D01*
X50042857Y67619047D01*
X50185714Y67619047D01*
X50280952Y67666666D01*
X50328571Y67714285D01*
X50376190Y67809523D01*
X50376190Y68190476D01*
X50852380Y66666666D02*
X50852380Y67238095D01*
X50852380Y66952380D02*
X49852380Y66952380D01*
X49995238Y67047619D01*
X50090476Y67142857D01*
X50138095Y67238095D01*
X49852380Y66333333D02*
X49852380Y65714285D01*
X50233333Y66047619D01*
X50233333Y65904761D01*
X50280952Y65809523D01*
X50328571Y65761904D01*
X50423809Y65714285D01*
X50661904Y65714285D01*
X50757142Y65761904D01*
X50804761Y65809523D01*
X50852380Y65904761D01*
X50852380Y66190476D01*
X50804761Y66285714D01*
X50757142Y66333333D01*
X49852380Y64857142D02*
X49852380Y65047619D01*
X49900000Y65142857D01*
X49947619Y65190476D01*
X50090476Y65285714D01*
X50280952Y65333333D01*
X50661904Y65333333D01*
X50757142Y65285714D01*
X50804761Y65238095D01*
X50852380Y65142857D01*
X50852380Y64952380D01*
X50804761Y64857142D01*
X50757142Y64809523D01*
X50661904Y64761904D01*
X50423809Y64761904D01*
X50328571Y64809523D01*
X50280952Y64857142D01*
X50233333Y64952380D01*
X50233333Y65142857D01*
X50280952Y65238095D01*
X50328571Y65285714D01*
X50423809Y65333333D01*
X49119047Y65147619D02*
X49452380Y65623809D01*
X49690476Y65147619D02*
X49690476Y66147619D01*
X49309523Y66147619D01*
X49214285Y66100000D01*
X49166666Y66052380D01*
X49119047Y65957142D01*
X49119047Y65814285D01*
X49166666Y65719047D01*
X49214285Y65671428D01*
X49309523Y65623809D01*
X49690476Y65623809D01*
X48166666Y65147619D02*
X48738095Y65147619D01*
X48452380Y65147619D02*
X48452380Y66147619D01*
X48547619Y66004761D01*
X48642857Y65909523D01*
X48738095Y65861904D01*
X47833333Y66147619D02*
X47214285Y66147619D01*
X47547619Y65766666D01*
X47404761Y65766666D01*
X47309523Y65719047D01*
X47261904Y65671428D01*
X47214285Y65576190D01*
X47214285Y65338095D01*
X47261904Y65242857D01*
X47309523Y65195238D01*
X47404761Y65147619D01*
X47690476Y65147619D01*
X47785714Y65195238D01*
X47833333Y65242857D01*
X46880952Y66147619D02*
X46214285Y66147619D01*
X46642857Y65147619D01*
X46052380Y67619047D02*
X45576190Y67952380D01*
X46052380Y68190476D02*
X45052380Y68190476D01*
X45052380Y67809523D01*
X45100000Y67714285D01*
X45147619Y67666666D01*
X45242857Y67619047D01*
X45385714Y67619047D01*
X45480952Y67666666D01*
X45528571Y67714285D01*
X45576190Y67809523D01*
X45576190Y68190476D01*
X46052380Y66666666D02*
X46052380Y67238095D01*
X46052380Y66952380D02*
X45052380Y66952380D01*
X45195238Y67047619D01*
X45290476Y67142857D01*
X45338095Y67238095D01*
X45052380Y66333333D02*
X45052380Y65714285D01*
X45433333Y66047619D01*
X45433333Y65904761D01*
X45480952Y65809523D01*
X45528571Y65761904D01*
X45623809Y65714285D01*
X45861904Y65714285D01*
X45957142Y65761904D01*
X46004761Y65809523D01*
X46052380Y65904761D01*
X46052380Y66190476D01*
X46004761Y66285714D01*
X45957142Y66333333D01*
X45480952Y65142857D02*
X45433333Y65238095D01*
X45385714Y65285714D01*
X45290476Y65333333D01*
X45242857Y65333333D01*
X45147619Y65285714D01*
X45100000Y65238095D01*
X45052380Y65142857D01*
X45052380Y64952380D01*
X45100000Y64857142D01*
X45147619Y64809523D01*
X45242857Y64761904D01*
X45290476Y64761904D01*
X45385714Y64809523D01*
X45433333Y64857142D01*
X45480952Y64952380D01*
X45480952Y65142857D01*
X45528571Y65238095D01*
X45576190Y65285714D01*
X45671428Y65333333D01*
X45861904Y65333333D01*
X45957142Y65285714D01*
X46004761Y65238095D01*
X46052380Y65142857D01*
X46052380Y64952380D01*
X46004761Y64857142D01*
X45957142Y64809523D01*
X45861904Y64761904D01*
X45671428Y64761904D01*
X45576190Y64809523D01*
X45528571Y64857142D01*
X45480952Y64952380D01*
X69852380Y67619047D02*
X69376190Y67952380D01*
X69852380Y68190476D02*
X68852380Y68190476D01*
X68852380Y67809523D01*
X68900000Y67714285D01*
X68947619Y67666666D01*
X69042857Y67619047D01*
X69185714Y67619047D01*
X69280952Y67666666D01*
X69328571Y67714285D01*
X69376190Y67809523D01*
X69376190Y68190476D01*
X69852380Y66666666D02*
X69852380Y67238095D01*
X69852380Y66952380D02*
X68852380Y66952380D01*
X68995238Y67047619D01*
X69090476Y67142857D01*
X69138095Y67238095D01*
X68852380Y66333333D02*
X68852380Y65714285D01*
X69233333Y66047619D01*
X69233333Y65904761D01*
X69280952Y65809523D01*
X69328571Y65761904D01*
X69423809Y65714285D01*
X69661904Y65714285D01*
X69757142Y65761904D01*
X69804761Y65809523D01*
X69852380Y65904761D01*
X69852380Y66190476D01*
X69804761Y66285714D01*
X69757142Y66333333D01*
X69852380Y65238095D02*
X69852380Y65047619D01*
X69804761Y64952380D01*
X69757142Y64904761D01*
X69614285Y64809523D01*
X69423809Y64761904D01*
X69042857Y64761904D01*
X68947619Y64809523D01*
X68900000Y64857142D01*
X68852380Y64952380D01*
X68852380Y65142857D01*
X68900000Y65238095D01*
X68947619Y65285714D01*
X69042857Y65333333D01*
X69280952Y65333333D01*
X69376190Y65285714D01*
X69423809Y65238095D01*
X69471428Y65142857D01*
X69471428Y64952380D01*
X69423809Y64857142D01*
X69376190Y64809523D01*
X69280952Y64761904D01*
X68119047Y65047619D02*
X68452380Y65523809D01*
X68690476Y65047619D02*
X68690476Y66047619D01*
X68309523Y66047619D01*
X68214285Y66000000D01*
X68166666Y65952380D01*
X68119047Y65857142D01*
X68119047Y65714285D01*
X68166666Y65619047D01*
X68214285Y65571428D01*
X68309523Y65523809D01*
X68690476Y65523809D01*
X67166666Y65047619D02*
X67738095Y65047619D01*
X67452380Y65047619D02*
X67452380Y66047619D01*
X67547619Y65904761D01*
X67642857Y65809523D01*
X67738095Y65761904D01*
X66309523Y65714285D02*
X66309523Y65047619D01*
X66547619Y66095238D02*
X66785714Y65380952D01*
X66166666Y65380952D01*
X65595238Y66047619D02*
X65500000Y66047619D01*
X65404761Y66000000D01*
X65357142Y65952380D01*
X65309523Y65857142D01*
X65261904Y65666666D01*
X65261904Y65428571D01*
X65309523Y65238095D01*
X65357142Y65142857D01*
X65404761Y65095238D01*
X65500000Y65047619D01*
X65595238Y65047619D01*
X65690476Y65095238D01*
X65738095Y65142857D01*
X65785714Y65238095D01*
X65833333Y65428571D01*
X65833333Y65666666D01*
X65785714Y65857142D01*
X65738095Y65952380D01*
X65690476Y66000000D01*
X65595238Y66047619D01*
X65252380Y67619047D02*
X64776190Y67952380D01*
X65252380Y68190476D02*
X64252380Y68190476D01*
X64252380Y67809523D01*
X64300000Y67714285D01*
X64347619Y67666666D01*
X64442857Y67619047D01*
X64585714Y67619047D01*
X64680952Y67666666D01*
X64728571Y67714285D01*
X64776190Y67809523D01*
X64776190Y68190476D01*
X65252380Y66666666D02*
X65252380Y67238095D01*
X65252380Y66952380D02*
X64252380Y66952380D01*
X64395238Y67047619D01*
X64490476Y67142857D01*
X64538095Y67238095D01*
X64585714Y65809523D02*
X65252380Y65809523D01*
X64204761Y66047619D02*
X64919047Y66285714D01*
X64919047Y65666666D01*
X65252380Y64761904D02*
X65252380Y65333333D01*
X65252380Y65047619D02*
X64252380Y65047619D01*
X64395238Y65142857D01*
X64490476Y65238095D01*
X64538095Y65333333D01*
X83352380Y67619047D02*
X82876190Y67952380D01*
X83352380Y68190476D02*
X82352380Y68190476D01*
X82352380Y67809523D01*
X82400000Y67714285D01*
X82447619Y67666666D01*
X82542857Y67619047D01*
X82685714Y67619047D01*
X82780952Y67666666D01*
X82828571Y67714285D01*
X82876190Y67809523D01*
X82876190Y68190476D01*
X83352380Y66666666D02*
X83352380Y67238095D01*
X83352380Y66952380D02*
X82352380Y66952380D01*
X82495238Y67047619D01*
X82590476Y67142857D01*
X82638095Y67238095D01*
X82685714Y65809523D02*
X83352380Y65809523D01*
X82304761Y66047619D02*
X83019047Y66285714D01*
X83019047Y65666666D01*
X82447619Y65333333D02*
X82400000Y65285714D01*
X82352380Y65190476D01*
X82352380Y64952380D01*
X82400000Y64857142D01*
X82447619Y64809523D01*
X82542857Y64761904D01*
X82638095Y64761904D01*
X82780952Y64809523D01*
X83352380Y65380952D01*
X83352380Y64761904D01*
X79352380Y67619047D02*
X78876190Y67952380D01*
X79352380Y68190476D02*
X78352380Y68190476D01*
X78352380Y67809523D01*
X78400000Y67714285D01*
X78447619Y67666666D01*
X78542857Y67619047D01*
X78685714Y67619047D01*
X78780952Y67666666D01*
X78828571Y67714285D01*
X78876190Y67809523D01*
X78876190Y68190476D01*
X79352380Y66666666D02*
X79352380Y67238095D01*
X79352380Y66952380D02*
X78352380Y66952380D01*
X78495238Y67047619D01*
X78590476Y67142857D01*
X78638095Y67238095D01*
X78685714Y65809523D02*
X79352380Y65809523D01*
X78304761Y66047619D02*
X79019047Y66285714D01*
X79019047Y65666666D01*
X78352380Y65380952D02*
X78352380Y64761904D01*
X78733333Y65095238D01*
X78733333Y64952380D01*
X78780952Y64857142D01*
X78828571Y64809523D01*
X78923809Y64761904D01*
X79161904Y64761904D01*
X79257142Y64809523D01*
X79304761Y64857142D01*
X79352380Y64952380D01*
X79352380Y65238095D01*
X79304761Y65333333D01*
X79257142Y65380952D01*
X81352380Y67619047D02*
X80876190Y67952380D01*
X81352380Y68190476D02*
X80352380Y68190476D01*
X80352380Y67809523D01*
X80400000Y67714285D01*
X80447619Y67666666D01*
X80542857Y67619047D01*
X80685714Y67619047D01*
X80780952Y67666666D01*
X80828571Y67714285D01*
X80876190Y67809523D01*
X80876190Y68190476D01*
X81352380Y66666666D02*
X81352380Y67238095D01*
X81352380Y66952380D02*
X80352380Y66952380D01*
X80495238Y67047619D01*
X80590476Y67142857D01*
X80638095Y67238095D01*
X80685714Y65809523D02*
X81352380Y65809523D01*
X80304761Y66047619D02*
X81019047Y66285714D01*
X81019047Y65666666D01*
X80685714Y64857142D02*
X81352380Y64857142D01*
X80304761Y65095238D02*
X81019047Y65333333D01*
X81019047Y64714285D01*
X106552380Y67619047D02*
X106076190Y67952380D01*
X106552380Y68190476D02*
X105552380Y68190476D01*
X105552380Y67809523D01*
X105600000Y67714285D01*
X105647619Y67666666D01*
X105742857Y67619047D01*
X105885714Y67619047D01*
X105980952Y67666666D01*
X106028571Y67714285D01*
X106076190Y67809523D01*
X106076190Y68190476D01*
X106552380Y66666666D02*
X106552380Y67238095D01*
X106552380Y66952380D02*
X105552380Y66952380D01*
X105695238Y67047619D01*
X105790476Y67142857D01*
X105838095Y67238095D01*
X105885714Y65809523D02*
X106552380Y65809523D01*
X105504761Y66047619D02*
X106219047Y66285714D01*
X106219047Y65666666D01*
X105552380Y64809523D02*
X105552380Y65285714D01*
X106028571Y65333333D01*
X105980952Y65285714D01*
X105933333Y65190476D01*
X105933333Y64952380D01*
X105980952Y64857142D01*
X106028571Y64809523D01*
X106123809Y64761904D01*
X106361904Y64761904D01*
X106457142Y64809523D01*
X106504761Y64857142D01*
X106552380Y64952380D01*
X106552380Y65190476D01*
X106504761Y65285714D01*
X106457142Y65333333D01*
X102552380Y67619047D02*
X102076190Y67952380D01*
X102552380Y68190476D02*
X101552380Y68190476D01*
X101552380Y67809523D01*
X101600000Y67714285D01*
X101647619Y67666666D01*
X101742857Y67619047D01*
X101885714Y67619047D01*
X101980952Y67666666D01*
X102028571Y67714285D01*
X102076190Y67809523D01*
X102076190Y68190476D01*
X102552380Y66666666D02*
X102552380Y67238095D01*
X102552380Y66952380D02*
X101552380Y66952380D01*
X101695238Y67047619D01*
X101790476Y67142857D01*
X101838095Y67238095D01*
X101885714Y65809523D02*
X102552380Y65809523D01*
X101504761Y66047619D02*
X102219047Y66285714D01*
X102219047Y65666666D01*
X101552380Y64857142D02*
X101552380Y65047619D01*
X101600000Y65142857D01*
X101647619Y65190476D01*
X101790476Y65285714D01*
X101980952Y65333333D01*
X102361904Y65333333D01*
X102457142Y65285714D01*
X102504761Y65238095D01*
X102552380Y65142857D01*
X102552380Y64952380D01*
X102504761Y64857142D01*
X102457142Y64809523D01*
X102361904Y64761904D01*
X102123809Y64761904D01*
X102028571Y64809523D01*
X101980952Y64857142D01*
X101933333Y64952380D01*
X101933333Y65142857D01*
X101980952Y65238095D01*
X102028571Y65285714D01*
X102123809Y65333333D01*
X104552380Y67619047D02*
X104076190Y67952380D01*
X104552380Y68190476D02*
X103552380Y68190476D01*
X103552380Y67809523D01*
X103600000Y67714285D01*
X103647619Y67666666D01*
X103742857Y67619047D01*
X103885714Y67619047D01*
X103980952Y67666666D01*
X104028571Y67714285D01*
X104076190Y67809523D01*
X104076190Y68190476D01*
X104552380Y66666666D02*
X104552380Y67238095D01*
X104552380Y66952380D02*
X103552380Y66952380D01*
X103695238Y67047619D01*
X103790476Y67142857D01*
X103838095Y67238095D01*
X103885714Y65809523D02*
X104552380Y65809523D01*
X103504761Y66047619D02*
X104219047Y66285714D01*
X104219047Y65666666D01*
X103552380Y65380952D02*
X103552380Y64714285D01*
X104552380Y65142857D01*
X129552380Y67619047D02*
X129076190Y67952380D01*
X129552380Y68190476D02*
X128552380Y68190476D01*
X128552380Y67809523D01*
X128600000Y67714285D01*
X128647619Y67666666D01*
X128742857Y67619047D01*
X128885714Y67619047D01*
X128980952Y67666666D01*
X129028571Y67714285D01*
X129076190Y67809523D01*
X129076190Y68190476D01*
X129552380Y66666666D02*
X129552380Y67238095D01*
X129552380Y66952380D02*
X128552380Y66952380D01*
X128695238Y67047619D01*
X128790476Y67142857D01*
X128838095Y67238095D01*
X128885714Y65809523D02*
X129552380Y65809523D01*
X128504761Y66047619D02*
X129219047Y66285714D01*
X129219047Y65666666D01*
X128980952Y65142857D02*
X128933333Y65238095D01*
X128885714Y65285714D01*
X128790476Y65333333D01*
X128742857Y65333333D01*
X128647619Y65285714D01*
X128600000Y65238095D01*
X128552380Y65142857D01*
X128552380Y64952380D01*
X128600000Y64857142D01*
X128647619Y64809523D01*
X128742857Y64761904D01*
X128790476Y64761904D01*
X128885714Y64809523D01*
X128933333Y64857142D01*
X128980952Y64952380D01*
X128980952Y65142857D01*
X129028571Y65238095D01*
X129076190Y65285714D01*
X129171428Y65333333D01*
X129361904Y65333333D01*
X129457142Y65285714D01*
X129504761Y65238095D01*
X129552380Y65142857D01*
X129552380Y64952380D01*
X129504761Y64857142D01*
X129457142Y64809523D01*
X129361904Y64761904D01*
X129171428Y64761904D01*
X129076190Y64809523D01*
X129028571Y64857142D01*
X128980952Y64952380D01*
X125552380Y67619047D02*
X125076190Y67952380D01*
X125552380Y68190476D02*
X124552380Y68190476D01*
X124552380Y67809523D01*
X124600000Y67714285D01*
X124647619Y67666666D01*
X124742857Y67619047D01*
X124885714Y67619047D01*
X124980952Y67666666D01*
X125028571Y67714285D01*
X125076190Y67809523D01*
X125076190Y68190476D01*
X125552380Y66666666D02*
X125552380Y67238095D01*
X125552380Y66952380D02*
X124552380Y66952380D01*
X124695238Y67047619D01*
X124790476Y67142857D01*
X124838095Y67238095D01*
X124885714Y65809523D02*
X125552380Y65809523D01*
X124504761Y66047619D02*
X125219047Y66285714D01*
X125219047Y65666666D01*
X125552380Y65238095D02*
X125552380Y65047619D01*
X125504761Y64952380D01*
X125457142Y64904761D01*
X125314285Y64809523D01*
X125123809Y64761904D01*
X124742857Y64761904D01*
X124647619Y64809523D01*
X124600000Y64857142D01*
X124552380Y64952380D01*
X124552380Y65142857D01*
X124600000Y65238095D01*
X124647619Y65285714D01*
X124742857Y65333333D01*
X124980952Y65333333D01*
X125076190Y65285714D01*
X125123809Y65238095D01*
X125171428Y65142857D01*
X125171428Y64952380D01*
X125123809Y64857142D01*
X125076190Y64809523D01*
X124980952Y64761904D01*
X127552380Y67619047D02*
X127076190Y67952380D01*
X127552380Y68190476D02*
X126552380Y68190476D01*
X126552380Y67809523D01*
X126600000Y67714285D01*
X126647619Y67666666D01*
X126742857Y67619047D01*
X126885714Y67619047D01*
X126980952Y67666666D01*
X127028571Y67714285D01*
X127076190Y67809523D01*
X127076190Y68190476D01*
X127552380Y66666666D02*
X127552380Y67238095D01*
X127552380Y66952380D02*
X126552380Y66952380D01*
X126695238Y67047619D01*
X126790476Y67142857D01*
X126838095Y67238095D01*
X126552380Y65761904D02*
X126552380Y66238095D01*
X127028571Y66285714D01*
X126980952Y66238095D01*
X126933333Y66142857D01*
X126933333Y65904761D01*
X126980952Y65809523D01*
X127028571Y65761904D01*
X127123809Y65714285D01*
X127361904Y65714285D01*
X127457142Y65761904D01*
X127504761Y65809523D01*
X127552380Y65904761D01*
X127552380Y66142857D01*
X127504761Y66238095D01*
X127457142Y66285714D01*
X126552380Y65095238D02*
X126552380Y65000000D01*
X126600000Y64904761D01*
X126647619Y64857142D01*
X126742857Y64809523D01*
X126933333Y64761904D01*
X127171428Y64761904D01*
X127361904Y64809523D01*
X127457142Y64857142D01*
X127504761Y64904761D01*
X127552380Y65000000D01*
X127552380Y65095238D01*
X127504761Y65190476D01*
X127457142Y65238095D01*
X127361904Y65285714D01*
X127171428Y65333333D01*
X126933333Y65333333D01*
X126742857Y65285714D01*
X126647619Y65238095D01*
X126600000Y65190476D01*
X126552380Y65095238D01*
X152552380Y67619047D02*
X152076190Y67952380D01*
X152552380Y68190476D02*
X151552380Y68190476D01*
X151552380Y67809523D01*
X151600000Y67714285D01*
X151647619Y67666666D01*
X151742857Y67619047D01*
X151885714Y67619047D01*
X151980952Y67666666D01*
X152028571Y67714285D01*
X152076190Y67809523D01*
X152076190Y68190476D01*
X152552380Y66666666D02*
X152552380Y67238095D01*
X152552380Y66952380D02*
X151552380Y66952380D01*
X151695238Y67047619D01*
X151790476Y67142857D01*
X151838095Y67238095D01*
X151552380Y65761904D02*
X151552380Y66238095D01*
X152028571Y66285714D01*
X151980952Y66238095D01*
X151933333Y66142857D01*
X151933333Y65904761D01*
X151980952Y65809523D01*
X152028571Y65761904D01*
X152123809Y65714285D01*
X152361904Y65714285D01*
X152457142Y65761904D01*
X152504761Y65809523D01*
X152552380Y65904761D01*
X152552380Y66142857D01*
X152504761Y66238095D01*
X152457142Y66285714D01*
X152552380Y64761904D02*
X152552380Y65333333D01*
X152552380Y65047619D02*
X151552380Y65047619D01*
X151695238Y65142857D01*
X151790476Y65238095D01*
X151838095Y65333333D01*
X148452380Y67619047D02*
X147976190Y67952380D01*
X148452380Y68190476D02*
X147452380Y68190476D01*
X147452380Y67809523D01*
X147500000Y67714285D01*
X147547619Y67666666D01*
X147642857Y67619047D01*
X147785714Y67619047D01*
X147880952Y67666666D01*
X147928571Y67714285D01*
X147976190Y67809523D01*
X147976190Y68190476D01*
X148452380Y66666666D02*
X148452380Y67238095D01*
X148452380Y66952380D02*
X147452380Y66952380D01*
X147595238Y67047619D01*
X147690476Y67142857D01*
X147738095Y67238095D01*
X147452380Y65761904D02*
X147452380Y66238095D01*
X147928571Y66285714D01*
X147880952Y66238095D01*
X147833333Y66142857D01*
X147833333Y65904761D01*
X147880952Y65809523D01*
X147928571Y65761904D01*
X148023809Y65714285D01*
X148261904Y65714285D01*
X148357142Y65761904D01*
X148404761Y65809523D01*
X148452380Y65904761D01*
X148452380Y66142857D01*
X148404761Y66238095D01*
X148357142Y66285714D01*
X147547619Y65333333D02*
X147500000Y65285714D01*
X147452380Y65190476D01*
X147452380Y64952380D01*
X147500000Y64857142D01*
X147547619Y64809523D01*
X147642857Y64761904D01*
X147738095Y64761904D01*
X147880952Y64809523D01*
X148452380Y65380952D01*
X148452380Y64761904D01*
X150552380Y67619047D02*
X150076190Y67952380D01*
X150552380Y68190476D02*
X149552380Y68190476D01*
X149552380Y67809523D01*
X149600000Y67714285D01*
X149647619Y67666666D01*
X149742857Y67619047D01*
X149885714Y67619047D01*
X149980952Y67666666D01*
X150028571Y67714285D01*
X150076190Y67809523D01*
X150076190Y68190476D01*
X150552380Y66666666D02*
X150552380Y67238095D01*
X150552380Y66952380D02*
X149552380Y66952380D01*
X149695238Y67047619D01*
X149790476Y67142857D01*
X149838095Y67238095D01*
X149552380Y65761904D02*
X149552380Y66238095D01*
X150028571Y66285714D01*
X149980952Y66238095D01*
X149933333Y66142857D01*
X149933333Y65904761D01*
X149980952Y65809523D01*
X150028571Y65761904D01*
X150123809Y65714285D01*
X150361904Y65714285D01*
X150457142Y65761904D01*
X150504761Y65809523D01*
X150552380Y65904761D01*
X150552380Y66142857D01*
X150504761Y66238095D01*
X150457142Y66285714D01*
X149552380Y65380952D02*
X149552380Y64761904D01*
X149933333Y65095238D01*
X149933333Y64952380D01*
X149980952Y64857142D01*
X150028571Y64809523D01*
X150123809Y64761904D01*
X150361904Y64761904D01*
X150457142Y64809523D01*
X150504761Y64857142D01*
X150552380Y64952380D01*
X150552380Y65238095D01*
X150504761Y65333333D01*
X150457142Y65380952D01*
X175452380Y67619047D02*
X174976190Y67952380D01*
X175452380Y68190476D02*
X174452380Y68190476D01*
X174452380Y67809523D01*
X174500000Y67714285D01*
X174547619Y67666666D01*
X174642857Y67619047D01*
X174785714Y67619047D01*
X174880952Y67666666D01*
X174928571Y67714285D01*
X174976190Y67809523D01*
X174976190Y68190476D01*
X175452380Y66666666D02*
X175452380Y67238095D01*
X175452380Y66952380D02*
X174452380Y66952380D01*
X174595238Y67047619D01*
X174690476Y67142857D01*
X174738095Y67238095D01*
X174452380Y65761904D02*
X174452380Y66238095D01*
X174928571Y66285714D01*
X174880952Y66238095D01*
X174833333Y66142857D01*
X174833333Y65904761D01*
X174880952Y65809523D01*
X174928571Y65761904D01*
X175023809Y65714285D01*
X175261904Y65714285D01*
X175357142Y65761904D01*
X175404761Y65809523D01*
X175452380Y65904761D01*
X175452380Y66142857D01*
X175404761Y66238095D01*
X175357142Y66285714D01*
X174785714Y64857142D02*
X175452380Y64857142D01*
X174404761Y65095238D02*
X175119047Y65333333D01*
X175119047Y64714285D01*
X171552380Y67619047D02*
X171076190Y67952380D01*
X171552380Y68190476D02*
X170552380Y68190476D01*
X170552380Y67809523D01*
X170600000Y67714285D01*
X170647619Y67666666D01*
X170742857Y67619047D01*
X170885714Y67619047D01*
X170980952Y67666666D01*
X171028571Y67714285D01*
X171076190Y67809523D01*
X171076190Y68190476D01*
X171552380Y66666666D02*
X171552380Y67238095D01*
X171552380Y66952380D02*
X170552380Y66952380D01*
X170695238Y67047619D01*
X170790476Y67142857D01*
X170838095Y67238095D01*
X170552380Y65761904D02*
X170552380Y66238095D01*
X171028571Y66285714D01*
X170980952Y66238095D01*
X170933333Y66142857D01*
X170933333Y65904761D01*
X170980952Y65809523D01*
X171028571Y65761904D01*
X171123809Y65714285D01*
X171361904Y65714285D01*
X171457142Y65761904D01*
X171504761Y65809523D01*
X171552380Y65904761D01*
X171552380Y66142857D01*
X171504761Y66238095D01*
X171457142Y66285714D01*
X170552380Y64809523D02*
X170552380Y65285714D01*
X171028571Y65333333D01*
X170980952Y65285714D01*
X170933333Y65190476D01*
X170933333Y64952380D01*
X170980952Y64857142D01*
X171028571Y64809523D01*
X171123809Y64761904D01*
X171361904Y64761904D01*
X171457142Y64809523D01*
X171504761Y64857142D01*
X171552380Y64952380D01*
X171552380Y65190476D01*
X171504761Y65285714D01*
X171457142Y65333333D01*
X173552380Y67619047D02*
X173076190Y67952380D01*
X173552380Y68190476D02*
X172552380Y68190476D01*
X172552380Y67809523D01*
X172600000Y67714285D01*
X172647619Y67666666D01*
X172742857Y67619047D01*
X172885714Y67619047D01*
X172980952Y67666666D01*
X173028571Y67714285D01*
X173076190Y67809523D01*
X173076190Y68190476D01*
X173552380Y66666666D02*
X173552380Y67238095D01*
X173552380Y66952380D02*
X172552380Y66952380D01*
X172695238Y67047619D01*
X172790476Y67142857D01*
X172838095Y67238095D01*
X172552380Y65761904D02*
X172552380Y66238095D01*
X173028571Y66285714D01*
X172980952Y66238095D01*
X172933333Y66142857D01*
X172933333Y65904761D01*
X172980952Y65809523D01*
X173028571Y65761904D01*
X173123809Y65714285D01*
X173361904Y65714285D01*
X173457142Y65761904D01*
X173504761Y65809523D01*
X173552380Y65904761D01*
X173552380Y66142857D01*
X173504761Y66238095D01*
X173457142Y66285714D01*
X172552380Y64857142D02*
X172552380Y65047619D01*
X172600000Y65142857D01*
X172647619Y65190476D01*
X172790476Y65285714D01*
X172980952Y65333333D01*
X173361904Y65333333D01*
X173457142Y65285714D01*
X173504761Y65238095D01*
X173552380Y65142857D01*
X173552380Y64952380D01*
X173504761Y64857142D01*
X173457142Y64809523D01*
X173361904Y64761904D01*
X173123809Y64761904D01*
X173028571Y64809523D01*
X172980952Y64857142D01*
X172933333Y64952380D01*
X172933333Y65142857D01*
X172980952Y65238095D01*
X173028571Y65285714D01*
X173123809Y65333333D01*
M02*
