G04 #@! TF.GenerationSoftware,KiCad,Pcbnew,(5.1.0-0)*
G04 #@! TF.CreationDate,2019-11-06T10:24:09+01:00*
G04 #@! TF.ProjectId,AddOnD,4164644f-6e44-42e6-9b69-6361645f7063,rev?*
G04 #@! TF.SameCoordinates,Original*
G04 #@! TF.FileFunction,Legend,Top*
G04 #@! TF.FilePolarity,Positive*
%FSLAX46Y46*%
G04 Gerber Fmt 4.6, Leading zero omitted, Abs format (unit mm)*
G04 Created by KiCad (PCBNEW (5.1.0-0)) date 2019-11-06 10:24:09*
%MOMM*%
%LPD*%
G04 APERTURE LIST*
%ADD10C,0.300000*%
%ADD11C,0.150000*%
G04 APERTURE END LIST*
D10*
X90928571Y62371428D02*
X91928571Y60871428D01*
X91928571Y62371428D02*
X90928571Y60871428D01*
X93214285Y60871428D02*
X92500000Y60871428D01*
X92500000Y62371428D01*
X94571428Y60871428D02*
X94071428Y61585714D01*
X93714285Y60871428D02*
X93714285Y62371428D01*
X94285714Y62371428D01*
X94428571Y62300000D01*
X94500000Y62228571D01*
X94571428Y62085714D01*
X94571428Y61871428D01*
X94500000Y61728571D01*
X94428571Y61657142D01*
X94285714Y61585714D01*
X93714285Y61585714D01*
X96357142Y60871428D02*
X96357142Y62371428D01*
X97071428Y61871428D02*
X97071428Y60871428D01*
X97071428Y61728571D02*
X97142857Y61800000D01*
X97285714Y61871428D01*
X97500000Y61871428D01*
X97642857Y61800000D01*
X97714285Y61657142D01*
X97714285Y60871428D01*
X98428571Y61871428D02*
X98428571Y60371428D01*
X98428571Y61800000D02*
X98571428Y61871428D01*
X98857142Y61871428D01*
X99000000Y61800000D01*
X99071428Y61728571D01*
X99142857Y61585714D01*
X99142857Y61157142D01*
X99071428Y61014285D01*
X99000000Y60942857D01*
X98857142Y60871428D01*
X98571428Y60871428D01*
X98428571Y60942857D01*
X100428571Y61871428D02*
X100428571Y60871428D01*
X99785714Y61871428D02*
X99785714Y61085714D01*
X99857142Y60942857D01*
X100000000Y60871428D01*
X100214285Y60871428D01*
X100357142Y60942857D01*
X100428571Y61014285D01*
X100928571Y61871428D02*
X101500000Y61871428D01*
X101142857Y62371428D02*
X101142857Y61085714D01*
X101214285Y60942857D01*
X101357142Y60871428D01*
X101500000Y60871428D01*
X103642857Y61657142D02*
X103857142Y61585714D01*
X103928571Y61514285D01*
X104000000Y61371428D01*
X104000000Y61157142D01*
X103928571Y61014285D01*
X103857142Y60942857D01*
X103714285Y60871428D01*
X103142857Y60871428D01*
X103142857Y62371428D01*
X103642857Y62371428D01*
X103785714Y62300000D01*
X103857142Y62228571D01*
X103928571Y62085714D01*
X103928571Y61942857D01*
X103857142Y61800000D01*
X103785714Y61728571D01*
X103642857Y61657142D01*
X103142857Y61657142D01*
X104857142Y60871428D02*
X104714285Y60942857D01*
X104642857Y61014285D01*
X104571428Y61157142D01*
X104571428Y61585714D01*
X104642857Y61728571D01*
X104714285Y61800000D01*
X104857142Y61871428D01*
X105071428Y61871428D01*
X105214285Y61800000D01*
X105285714Y61728571D01*
X105357142Y61585714D01*
X105357142Y61157142D01*
X105285714Y61014285D01*
X105214285Y60942857D01*
X105071428Y60871428D01*
X104857142Y60871428D01*
X106642857Y60871428D02*
X106642857Y61657142D01*
X106571428Y61800000D01*
X106428571Y61871428D01*
X106142857Y61871428D01*
X106000000Y61800000D01*
X106642857Y60942857D02*
X106500000Y60871428D01*
X106142857Y60871428D01*
X106000000Y60942857D01*
X105928571Y61085714D01*
X105928571Y61228571D01*
X106000000Y61371428D01*
X106142857Y61442857D01*
X106500000Y61442857D01*
X106642857Y61514285D01*
X107357142Y60871428D02*
X107357142Y61871428D01*
X107357142Y61585714D02*
X107428571Y61728571D01*
X107500000Y61800000D01*
X107642857Y61871428D01*
X107785714Y61871428D01*
X108928571Y60871428D02*
X108928571Y62371428D01*
X108928571Y60942857D02*
X108785714Y60871428D01*
X108500000Y60871428D01*
X108357142Y60942857D01*
X108285714Y61014285D01*
X108214285Y61157142D01*
X108214285Y61585714D01*
X108285714Y61728571D01*
X108357142Y61800000D01*
X108500000Y61871428D01*
X108785714Y61871428D01*
X108928571Y61800000D01*
X95571428Y58321428D02*
X95571428Y59107142D01*
X95500000Y59250000D01*
X95357142Y59321428D01*
X95071428Y59321428D01*
X94928571Y59250000D01*
X95571428Y58392857D02*
X95428571Y58321428D01*
X95071428Y58321428D01*
X94928571Y58392857D01*
X94857142Y58535714D01*
X94857142Y58678571D01*
X94928571Y58821428D01*
X95071428Y58892857D01*
X95428571Y58892857D01*
X95571428Y58964285D01*
X96928571Y59321428D02*
X96928571Y58321428D01*
X96285714Y59321428D02*
X96285714Y58535714D01*
X96357142Y58392857D01*
X96500000Y58321428D01*
X96714285Y58321428D01*
X96857142Y58392857D01*
X96928571Y58464285D01*
X97500000Y59321428D02*
X97857142Y58321428D01*
X98214285Y59321428D01*
X99357142Y58392857D02*
X99214285Y58321428D01*
X98928571Y58321428D01*
X98785714Y58392857D01*
X98714285Y58535714D01*
X98714285Y59107142D01*
X98785714Y59250000D01*
X98928571Y59321428D01*
X99214285Y59321428D01*
X99357142Y59250000D01*
X99428571Y59107142D01*
X99428571Y58964285D01*
X98714285Y58821428D01*
X100071428Y58321428D02*
X100071428Y59321428D01*
X100071428Y59035714D02*
X100142857Y59178571D01*
X100214285Y59250000D01*
X100357142Y59321428D01*
X100500000Y59321428D01*
X101642857Y58321428D02*
X101642857Y59821428D01*
X101642857Y58392857D02*
X101500000Y58321428D01*
X101214285Y58321428D01*
X101071428Y58392857D01*
X101000000Y58464285D01*
X100928571Y58607142D01*
X100928571Y59035714D01*
X101000000Y59178571D01*
X101071428Y59250000D01*
X101214285Y59321428D01*
X101500000Y59321428D01*
X101642857Y59250000D01*
X102357142Y58321428D02*
X102357142Y59321428D01*
X102357142Y59821428D02*
X102285714Y59750000D01*
X102357142Y59678571D01*
X102428571Y59750000D01*
X102357142Y59821428D01*
X102357142Y59678571D01*
X103285714Y58321428D02*
X103142857Y58392857D01*
X103071428Y58464285D01*
X103000000Y58607142D01*
X103000000Y59035714D01*
X103071428Y59178571D01*
X103142857Y59250000D01*
X103285714Y59321428D01*
X103500000Y59321428D01*
X103642857Y59250000D01*
X103714285Y59178571D01*
X103785714Y59035714D01*
X103785714Y58607142D01*
X103714285Y58464285D01*
X103642857Y58392857D01*
X103500000Y58321428D01*
X103285714Y58321428D01*
X104428571Y59321428D02*
X104428571Y58321428D01*
X104428571Y59178571D02*
X104500000Y59250000D01*
X104642857Y59321428D01*
X104857142Y59321428D01*
X105000000Y59250000D01*
X105071428Y59107142D01*
X105071428Y58321428D01*
X98285714Y55771428D02*
X97428571Y55771428D01*
X97857142Y55771428D02*
X97857142Y57271428D01*
X97714285Y57057142D01*
X97571428Y56914285D01*
X97428571Y56842857D01*
X98928571Y55914285D02*
X99000000Y55842857D01*
X98928571Y55771428D01*
X98857142Y55842857D01*
X98928571Y55914285D01*
X98928571Y55771428D01*
X99928571Y57271428D02*
X100071428Y57271428D01*
X100214285Y57200000D01*
X100285714Y57128571D01*
X100357142Y56985714D01*
X100428571Y56700000D01*
X100428571Y56342857D01*
X100357142Y56057142D01*
X100285714Y55914285D01*
X100214285Y55842857D01*
X100071428Y55771428D01*
X99928571Y55771428D01*
X99785714Y55842857D01*
X99714285Y55914285D01*
X99642857Y56057142D01*
X99571428Y56342857D01*
X99571428Y56700000D01*
X99642857Y56985714D01*
X99714285Y57128571D01*
X99785714Y57200000D01*
X99928571Y57271428D01*
X101071428Y55914285D02*
X101142857Y55842857D01*
X101071428Y55771428D01*
X101000000Y55842857D01*
X101071428Y55914285D01*
X101071428Y55771428D01*
X102071428Y57271428D02*
X102214285Y57271428D01*
X102357142Y57200000D01*
X102428571Y57128571D01*
X102500000Y56985714D01*
X102571428Y56700000D01*
X102571428Y56342857D01*
X102500000Y56057142D01*
X102428571Y55914285D01*
X102357142Y55842857D01*
X102214285Y55771428D01*
X102071428Y55771428D01*
X101928571Y55842857D01*
X101857142Y55914285D01*
X101785714Y56057142D01*
X101714285Y56342857D01*
X101714285Y56700000D01*
X101785714Y56985714D01*
X101857142Y57128571D01*
X101928571Y57200000D01*
X102071428Y57271428D01*
D11*
X77100000Y92700000D02*
X77100000Y90000000D01*
X55100000Y92700000D02*
X77100000Y92700000D01*
X55100000Y90000000D02*
X55100000Y92700000D01*
X78900000Y90000000D02*
X53600000Y90000000D01*
X78900000Y70500000D02*
X78900000Y90000000D01*
X53600000Y70500000D02*
X78900000Y70500000D01*
X53600000Y90000000D02*
X53600000Y70500000D01*
X48640000Y63480000D02*
X49200000Y62930000D01*
X89280000Y63480000D02*
X88740000Y62930000D01*
X48640000Y54380000D02*
X49200000Y54930000D01*
X89280000Y54380000D02*
X88740000Y54930000D01*
X49200000Y54930000D02*
X49200000Y62930000D01*
X48640000Y54380000D02*
X48640000Y63480000D01*
X88740000Y54930000D02*
X88740000Y62930000D01*
X89280000Y54380000D02*
X89280000Y63480000D01*
X66710000Y62930000D02*
X66710000Y63480000D01*
X71210000Y62930000D02*
X71210000Y63480000D01*
X66710000Y62930000D02*
X49200000Y62930000D01*
X88740000Y62930000D02*
X71210000Y62930000D01*
X89280000Y63480000D02*
X48640000Y63480000D01*
X88740000Y54930000D02*
X49200000Y54930000D01*
X89280000Y54380000D02*
X48640000Y54380000D01*
X31000000Y92700000D02*
X31000000Y90000000D01*
X9000000Y92700000D02*
X31000000Y92700000D01*
X9000000Y90000000D02*
X9000000Y92700000D01*
X32800000Y90000000D02*
X7500000Y90000000D01*
X32800000Y70500000D02*
X32800000Y90000000D01*
X7500000Y70500000D02*
X32800000Y70500000D01*
X7500000Y90000000D02*
X7500000Y70500000D01*
X30600000Y90000000D02*
X30600000Y70500000D01*
X30600000Y70500000D02*
X55900000Y70500000D01*
X55900000Y70500000D02*
X55900000Y90000000D01*
X55900000Y90000000D02*
X30600000Y90000000D01*
X32100000Y90000000D02*
X32100000Y92700000D01*
X32100000Y92700000D02*
X54100000Y92700000D01*
X54100000Y92700000D02*
X54100000Y90000000D01*
X76500000Y90000000D02*
X76500000Y70500000D01*
X76500000Y70500000D02*
X101800000Y70500000D01*
X101800000Y70500000D02*
X101800000Y90000000D01*
X101800000Y90000000D02*
X76500000Y90000000D01*
X78000000Y90000000D02*
X78000000Y92700000D01*
X78000000Y92700000D02*
X100000000Y92700000D01*
X100000000Y92700000D02*
X100000000Y90000000D01*
X123000000Y92700000D02*
X123000000Y90000000D01*
X101000000Y92700000D02*
X123000000Y92700000D01*
X101000000Y90000000D02*
X101000000Y92700000D01*
X124800000Y90000000D02*
X99500000Y90000000D01*
X124800000Y70500000D02*
X124800000Y90000000D01*
X99500000Y70500000D02*
X124800000Y70500000D01*
X99500000Y90000000D02*
X99500000Y70500000D01*
X122500000Y90000000D02*
X122500000Y70500000D01*
X122500000Y70500000D02*
X147800000Y70500000D01*
X147800000Y70500000D02*
X147800000Y90000000D01*
X147800000Y90000000D02*
X122500000Y90000000D01*
X124000000Y90000000D02*
X124000000Y92700000D01*
X124000000Y92700000D02*
X146000000Y92700000D01*
X146000000Y92700000D02*
X146000000Y90000000D01*
X169000000Y92700000D02*
X169000000Y90000000D01*
X147000000Y92700000D02*
X169000000Y92700000D01*
X147000000Y90000000D02*
X147000000Y92700000D01*
X170800000Y90000000D02*
X145500000Y90000000D01*
X170800000Y70500000D02*
X170800000Y90000000D01*
X145500000Y70500000D02*
X170800000Y70500000D01*
X145500000Y90000000D02*
X145500000Y70500000D01*
X168500000Y90000000D02*
X168500000Y70500000D01*
X168500000Y70500000D02*
X193800000Y70500000D01*
X193800000Y70500000D02*
X193800000Y90000000D01*
X193800000Y90000000D02*
X168500000Y90000000D01*
X170000000Y90000000D02*
X170000000Y92700000D01*
X170000000Y92700000D02*
X192000000Y92700000D01*
X192000000Y92700000D02*
X192000000Y90000000D01*
X64338095Y69547619D02*
X65004761Y68547619D01*
X65004761Y69547619D02*
X64338095Y68547619D01*
X65909523Y68547619D02*
X65338095Y68547619D01*
X65623809Y68547619D02*
X65623809Y69547619D01*
X65528571Y69404761D01*
X65433333Y69309523D01*
X65338095Y69261904D01*
X66528571Y69547619D02*
X66623809Y69547619D01*
X66719047Y69500000D01*
X66766666Y69452380D01*
X66814285Y69357142D01*
X66861904Y69166666D01*
X66861904Y68928571D01*
X66814285Y68738095D01*
X66766666Y68642857D01*
X66719047Y68595238D01*
X66623809Y68547619D01*
X66528571Y68547619D01*
X66433333Y68595238D01*
X66385714Y68642857D01*
X66338095Y68738095D01*
X66290476Y68928571D01*
X66290476Y69166666D01*
X66338095Y69357142D01*
X66385714Y69452380D01*
X66433333Y69500000D01*
X66528571Y69547619D01*
X67195238Y69547619D02*
X67814285Y69547619D01*
X67480952Y69166666D01*
X67623809Y69166666D01*
X67719047Y69119047D01*
X67766666Y69071428D01*
X67814285Y68976190D01*
X67814285Y68738095D01*
X67766666Y68642857D01*
X67719047Y68595238D01*
X67623809Y68547619D01*
X67338095Y68547619D01*
X67242857Y68595238D01*
X67195238Y68642857D01*
X82438095Y64847619D02*
X83104761Y63847619D01*
X83104761Y64847619D02*
X82438095Y63847619D01*
X84009523Y63847619D02*
X83438095Y63847619D01*
X83723809Y63847619D02*
X83723809Y64847619D01*
X83628571Y64704761D01*
X83533333Y64609523D01*
X83438095Y64561904D01*
X84628571Y64847619D02*
X84723809Y64847619D01*
X84819047Y64800000D01*
X84866666Y64752380D01*
X84914285Y64657142D01*
X84961904Y64466666D01*
X84961904Y64228571D01*
X84914285Y64038095D01*
X84866666Y63942857D01*
X84819047Y63895238D01*
X84723809Y63847619D01*
X84628571Y63847619D01*
X84533333Y63895238D01*
X84485714Y63942857D01*
X84438095Y64038095D01*
X84390476Y64228571D01*
X84390476Y64466666D01*
X84438095Y64657142D01*
X84485714Y64752380D01*
X84533333Y64800000D01*
X84628571Y64847619D01*
X85438095Y63847619D02*
X85628571Y63847619D01*
X85723809Y63895238D01*
X85771428Y63942857D01*
X85866666Y64085714D01*
X85914285Y64276190D01*
X85914285Y64657142D01*
X85866666Y64752380D01*
X85819047Y64800000D01*
X85723809Y64847619D01*
X85533333Y64847619D01*
X85438095Y64800000D01*
X85390476Y64752380D01*
X85342857Y64657142D01*
X85342857Y64419047D01*
X85390476Y64323809D01*
X85438095Y64276190D01*
X85533333Y64228571D01*
X85723809Y64228571D01*
X85819047Y64276190D01*
X85866666Y64323809D01*
X85914285Y64419047D01*
X18238095Y69647619D02*
X18904761Y68647619D01*
X18904761Y69647619D02*
X18238095Y68647619D01*
X19809523Y68647619D02*
X19238095Y68647619D01*
X19523809Y68647619D02*
X19523809Y69647619D01*
X19428571Y69504761D01*
X19333333Y69409523D01*
X19238095Y69361904D01*
X20428571Y69647619D02*
X20523809Y69647619D01*
X20619047Y69600000D01*
X20666666Y69552380D01*
X20714285Y69457142D01*
X20761904Y69266666D01*
X20761904Y69028571D01*
X20714285Y68838095D01*
X20666666Y68742857D01*
X20619047Y68695238D01*
X20523809Y68647619D01*
X20428571Y68647619D01*
X20333333Y68695238D01*
X20285714Y68742857D01*
X20238095Y68838095D01*
X20190476Y69028571D01*
X20190476Y69266666D01*
X20238095Y69457142D01*
X20285714Y69552380D01*
X20333333Y69600000D01*
X20428571Y69647619D01*
X21714285Y68647619D02*
X21142857Y68647619D01*
X21428571Y68647619D02*
X21428571Y69647619D01*
X21333333Y69504761D01*
X21238095Y69409523D01*
X21142857Y69361904D01*
X41338095Y69647619D02*
X42004761Y68647619D01*
X42004761Y69647619D02*
X41338095Y68647619D01*
X42909523Y68647619D02*
X42338095Y68647619D01*
X42623809Y68647619D02*
X42623809Y69647619D01*
X42528571Y69504761D01*
X42433333Y69409523D01*
X42338095Y69361904D01*
X43528571Y69647619D02*
X43623809Y69647619D01*
X43719047Y69600000D01*
X43766666Y69552380D01*
X43814285Y69457142D01*
X43861904Y69266666D01*
X43861904Y69028571D01*
X43814285Y68838095D01*
X43766666Y68742857D01*
X43719047Y68695238D01*
X43623809Y68647619D01*
X43528571Y68647619D01*
X43433333Y68695238D01*
X43385714Y68742857D01*
X43338095Y68838095D01*
X43290476Y69028571D01*
X43290476Y69266666D01*
X43338095Y69457142D01*
X43385714Y69552380D01*
X43433333Y69600000D01*
X43528571Y69647619D01*
X44242857Y69552380D02*
X44290476Y69600000D01*
X44385714Y69647619D01*
X44623809Y69647619D01*
X44719047Y69600000D01*
X44766666Y69552380D01*
X44814285Y69457142D01*
X44814285Y69361904D01*
X44766666Y69219047D01*
X44195238Y68647619D01*
X44814285Y68647619D01*
X87238095Y69547619D02*
X87904761Y68547619D01*
X87904761Y69547619D02*
X87238095Y68547619D01*
X88809523Y68547619D02*
X88238095Y68547619D01*
X88523809Y68547619D02*
X88523809Y69547619D01*
X88428571Y69404761D01*
X88333333Y69309523D01*
X88238095Y69261904D01*
X89428571Y69547619D02*
X89523809Y69547619D01*
X89619047Y69500000D01*
X89666666Y69452380D01*
X89714285Y69357142D01*
X89761904Y69166666D01*
X89761904Y68928571D01*
X89714285Y68738095D01*
X89666666Y68642857D01*
X89619047Y68595238D01*
X89523809Y68547619D01*
X89428571Y68547619D01*
X89333333Y68595238D01*
X89285714Y68642857D01*
X89238095Y68738095D01*
X89190476Y68928571D01*
X89190476Y69166666D01*
X89238095Y69357142D01*
X89285714Y69452380D01*
X89333333Y69500000D01*
X89428571Y69547619D01*
X90619047Y69214285D02*
X90619047Y68547619D01*
X90380952Y69595238D02*
X90142857Y68880952D01*
X90761904Y68880952D01*
X110238095Y69547619D02*
X110904761Y68547619D01*
X110904761Y69547619D02*
X110238095Y68547619D01*
X111809523Y68547619D02*
X111238095Y68547619D01*
X111523809Y68547619D02*
X111523809Y69547619D01*
X111428571Y69404761D01*
X111333333Y69309523D01*
X111238095Y69261904D01*
X112428571Y69547619D02*
X112523809Y69547619D01*
X112619047Y69500000D01*
X112666666Y69452380D01*
X112714285Y69357142D01*
X112761904Y69166666D01*
X112761904Y68928571D01*
X112714285Y68738095D01*
X112666666Y68642857D01*
X112619047Y68595238D01*
X112523809Y68547619D01*
X112428571Y68547619D01*
X112333333Y68595238D01*
X112285714Y68642857D01*
X112238095Y68738095D01*
X112190476Y68928571D01*
X112190476Y69166666D01*
X112238095Y69357142D01*
X112285714Y69452380D01*
X112333333Y69500000D01*
X112428571Y69547619D01*
X113666666Y69547619D02*
X113190476Y69547619D01*
X113142857Y69071428D01*
X113190476Y69119047D01*
X113285714Y69166666D01*
X113523809Y69166666D01*
X113619047Y69119047D01*
X113666666Y69071428D01*
X113714285Y68976190D01*
X113714285Y68738095D01*
X113666666Y68642857D01*
X113619047Y68595238D01*
X113523809Y68547619D01*
X113285714Y68547619D01*
X113190476Y68595238D01*
X113142857Y68642857D01*
X133238095Y69547619D02*
X133904761Y68547619D01*
X133904761Y69547619D02*
X133238095Y68547619D01*
X134809523Y68547619D02*
X134238095Y68547619D01*
X134523809Y68547619D02*
X134523809Y69547619D01*
X134428571Y69404761D01*
X134333333Y69309523D01*
X134238095Y69261904D01*
X135428571Y69547619D02*
X135523809Y69547619D01*
X135619047Y69500000D01*
X135666666Y69452380D01*
X135714285Y69357142D01*
X135761904Y69166666D01*
X135761904Y68928571D01*
X135714285Y68738095D01*
X135666666Y68642857D01*
X135619047Y68595238D01*
X135523809Y68547619D01*
X135428571Y68547619D01*
X135333333Y68595238D01*
X135285714Y68642857D01*
X135238095Y68738095D01*
X135190476Y68928571D01*
X135190476Y69166666D01*
X135238095Y69357142D01*
X135285714Y69452380D01*
X135333333Y69500000D01*
X135428571Y69547619D01*
X136619047Y69547619D02*
X136428571Y69547619D01*
X136333333Y69500000D01*
X136285714Y69452380D01*
X136190476Y69309523D01*
X136142857Y69119047D01*
X136142857Y68738095D01*
X136190476Y68642857D01*
X136238095Y68595238D01*
X136333333Y68547619D01*
X136523809Y68547619D01*
X136619047Y68595238D01*
X136666666Y68642857D01*
X136714285Y68738095D01*
X136714285Y68976190D01*
X136666666Y69071428D01*
X136619047Y69119047D01*
X136523809Y69166666D01*
X136333333Y69166666D01*
X136238095Y69119047D01*
X136190476Y69071428D01*
X136142857Y68976190D01*
X156238095Y69547619D02*
X156904761Y68547619D01*
X156904761Y69547619D02*
X156238095Y68547619D01*
X157809523Y68547619D02*
X157238095Y68547619D01*
X157523809Y68547619D02*
X157523809Y69547619D01*
X157428571Y69404761D01*
X157333333Y69309523D01*
X157238095Y69261904D01*
X158428571Y69547619D02*
X158523809Y69547619D01*
X158619047Y69500000D01*
X158666666Y69452380D01*
X158714285Y69357142D01*
X158761904Y69166666D01*
X158761904Y68928571D01*
X158714285Y68738095D01*
X158666666Y68642857D01*
X158619047Y68595238D01*
X158523809Y68547619D01*
X158428571Y68547619D01*
X158333333Y68595238D01*
X158285714Y68642857D01*
X158238095Y68738095D01*
X158190476Y68928571D01*
X158190476Y69166666D01*
X158238095Y69357142D01*
X158285714Y69452380D01*
X158333333Y69500000D01*
X158428571Y69547619D01*
X159095238Y69547619D02*
X159761904Y69547619D01*
X159333333Y68547619D01*
X180238095Y69547619D02*
X180904761Y68547619D01*
X180904761Y69547619D02*
X180238095Y68547619D01*
X181809523Y68547619D02*
X181238095Y68547619D01*
X181523809Y68547619D02*
X181523809Y69547619D01*
X181428571Y69404761D01*
X181333333Y69309523D01*
X181238095Y69261904D01*
X182428571Y69547619D02*
X182523809Y69547619D01*
X182619047Y69500000D01*
X182666666Y69452380D01*
X182714285Y69357142D01*
X182761904Y69166666D01*
X182761904Y68928571D01*
X182714285Y68738095D01*
X182666666Y68642857D01*
X182619047Y68595238D01*
X182523809Y68547619D01*
X182428571Y68547619D01*
X182333333Y68595238D01*
X182285714Y68642857D01*
X182238095Y68738095D01*
X182190476Y68928571D01*
X182190476Y69166666D01*
X182238095Y69357142D01*
X182285714Y69452380D01*
X182333333Y69500000D01*
X182428571Y69547619D01*
X183333333Y69119047D02*
X183238095Y69166666D01*
X183190476Y69214285D01*
X183142857Y69309523D01*
X183142857Y69357142D01*
X183190476Y69452380D01*
X183238095Y69500000D01*
X183333333Y69547619D01*
X183523809Y69547619D01*
X183619047Y69500000D01*
X183666666Y69452380D01*
X183714285Y69357142D01*
X183714285Y69309523D01*
X183666666Y69214285D01*
X183619047Y69166666D01*
X183523809Y69119047D01*
X183333333Y69119047D01*
X183238095Y69071428D01*
X183190476Y69023809D01*
X183142857Y68928571D01*
X183142857Y68738095D01*
X183190476Y68642857D01*
X183238095Y68595238D01*
X183333333Y68547619D01*
X183523809Y68547619D01*
X183619047Y68595238D01*
X183666666Y68642857D01*
X183714285Y68738095D01*
X183714285Y68928571D01*
X183666666Y69023809D01*
X183619047Y69071428D01*
X183523809Y69119047D01*
M02*
