G04 #@! TF.GenerationSoftware,KiCad,Pcbnew,(5.1.0-0)*
G04 #@! TF.CreationDate,2019-11-04T21:02:19+01:00*
G04 #@! TF.ProjectId,freeDSP-aurora,66726565-4453-4502-9d61-75726f72612e,rev?*
G04 #@! TF.SameCoordinates,Original*
G04 #@! TF.FileFunction,Paste,Top*
G04 #@! TF.FilePolarity,Positive*
%FSLAX46Y46*%
G04 Gerber Fmt 4.6, Leading zero omitted, Abs format (unit mm)*
G04 Created by KiCad (PCBNEW (5.1.0-0)) date 2019-11-04 21:02:19*
%MOMM*%
%LPD*%
G04 APERTURE LIST*
%ADD10R,1.000000X1.300000*%
%ADD11R,0.600000X1.550000*%
%ADD12R,1.550000X0.600000*%
%ADD13R,1.300000X1.000000*%
%ADD14R,1.399540X1.198880*%
%ADD15R,1.399540X1.000760*%
%ADD16R,3.657600X2.032000*%
%ADD17R,1.016000X2.032000*%
%ADD18R,2.032000X3.657600*%
%ADD19R,2.032000X1.016000*%
%ADD20R,0.900000X2.000000*%
%ADD21R,2.000000X0.900000*%
%ADD22R,7.000000X7.000000*%
%ADD23R,1.700000X1.500000*%
%ADD24R,1.400000X1.200000*%
%ADD25R,2.200000X2.200000*%
%ADD26R,0.300000X0.550000*%
%ADD27R,0.550000X0.300000*%
%ADD28R,5.250000X5.250000*%
%ADD29R,1.700000X0.650000*%
%ADD30R,3.060000X3.060000*%
%ADD31R,0.250000X0.700000*%
%ADD32R,0.700000X0.250000*%
%ADD33R,3.690000X3.690000*%
%ADD34R,0.300000X0.850000*%
%ADD35R,0.850000X0.300000*%
%ADD36R,4.800000X4.800000*%
%ADD37R,0.230000X1.000000*%
%ADD38R,1.000000X0.230000*%
%ADD39R,0.660400X0.406400*%
%ADD40R,0.910000X1.220000*%
%ADD41R,0.398780X0.749300*%
%ADD42R,0.650000X0.400000*%
%ADD43R,0.749300X0.398780*%
%ADD44R,0.300000X1.400000*%
%ADD45R,0.500000X0.800000*%
%ADD46R,0.400000X0.800000*%
%ADD47R,0.400000X0.790000*%
%ADD48R,0.500000X0.790000*%
%ADD49R,0.800000X0.500000*%
%ADD50R,0.800000X0.400000*%
%ADD51R,0.600000X0.500000*%
%ADD52R,0.500000X0.600000*%
%ADD53R,0.650000X1.060000*%
%ADD54R,1.200000X2.200000*%
%ADD55R,2.750000X3.050000*%
%ADD56R,0.900000X1.700000*%
G04 APERTURE END LIST*
D10*
X161900000Y-134300000D03*
X160100000Y-134300000D03*
D11*
X132395000Y-87500000D03*
X133665000Y-87500000D03*
X134935000Y-87500000D03*
X136205000Y-87500000D03*
X136205000Y-92900000D03*
X134935000Y-92900000D03*
X133665000Y-92900000D03*
X132395000Y-92900000D03*
X113195000Y-87500000D03*
X114465000Y-87500000D03*
X115735000Y-87500000D03*
X117005000Y-87500000D03*
X117005000Y-92900000D03*
X115735000Y-92900000D03*
X114465000Y-92900000D03*
X113195000Y-92900000D03*
X132395000Y-74900000D03*
X133665000Y-74900000D03*
X134935000Y-74900000D03*
X136205000Y-74900000D03*
X136205000Y-80300000D03*
X134935000Y-80300000D03*
X133665000Y-80300000D03*
X132395000Y-80300000D03*
X113195000Y-74900000D03*
X114465000Y-74900000D03*
X115735000Y-74900000D03*
X117005000Y-74900000D03*
X117005000Y-80300000D03*
X115735000Y-80300000D03*
X114465000Y-80300000D03*
X113195000Y-80300000D03*
X132395000Y-62300000D03*
X133665000Y-62300000D03*
X134935000Y-62300000D03*
X136205000Y-62300000D03*
X136205000Y-67700000D03*
X134935000Y-67700000D03*
X133665000Y-67700000D03*
X132395000Y-67700000D03*
X113195000Y-62300000D03*
X114465000Y-62300000D03*
X115735000Y-62300000D03*
X117005000Y-62300000D03*
X117005000Y-67700000D03*
X115735000Y-67700000D03*
X114465000Y-67700000D03*
X113195000Y-67700000D03*
X113195000Y-49700000D03*
X114465000Y-49700000D03*
X115735000Y-49700000D03*
X117005000Y-49700000D03*
X117005000Y-55100000D03*
X115735000Y-55100000D03*
X114465000Y-55100000D03*
X113195000Y-55100000D03*
X132395000Y-49700000D03*
X133665000Y-49700000D03*
X134935000Y-49700000D03*
X136205000Y-49700000D03*
X136205000Y-55100000D03*
X134935000Y-55100000D03*
X133665000Y-55100000D03*
X132395000Y-55100000D03*
X132395000Y-144900000D03*
X133665000Y-144900000D03*
X134935000Y-144900000D03*
X136205000Y-144900000D03*
X136205000Y-150300000D03*
X134935000Y-150300000D03*
X133665000Y-150300000D03*
X132395000Y-150300000D03*
X113195000Y-144900000D03*
X114465000Y-144900000D03*
X115735000Y-144900000D03*
X117005000Y-144900000D03*
X117005000Y-150300000D03*
X115735000Y-150300000D03*
X114465000Y-150300000D03*
X113195000Y-150300000D03*
X113195000Y-132300000D03*
X114465000Y-132300000D03*
X115735000Y-132300000D03*
X117005000Y-132300000D03*
X117005000Y-137700000D03*
X115735000Y-137700000D03*
X114465000Y-137700000D03*
X113195000Y-137700000D03*
X132395000Y-119700000D03*
X133665000Y-119700000D03*
X134935000Y-119700000D03*
X136205000Y-119700000D03*
X136205000Y-125100000D03*
X134935000Y-125100000D03*
X133665000Y-125100000D03*
X132395000Y-125100000D03*
X113195000Y-119700000D03*
X114465000Y-119700000D03*
X115735000Y-119700000D03*
X117005000Y-119700000D03*
X117005000Y-125100000D03*
X115735000Y-125100000D03*
X114465000Y-125100000D03*
X113195000Y-125100000D03*
X113195000Y-107100000D03*
X114465000Y-107100000D03*
X115735000Y-107100000D03*
X117005000Y-107100000D03*
X117005000Y-112500000D03*
X115735000Y-112500000D03*
X114465000Y-112500000D03*
X113195000Y-112500000D03*
X132395000Y-107100000D03*
X133665000Y-107100000D03*
X134935000Y-107100000D03*
X136205000Y-107100000D03*
X136205000Y-112500000D03*
X134935000Y-112500000D03*
X133665000Y-112500000D03*
X132395000Y-112500000D03*
X132395000Y-132300000D03*
X133665000Y-132300000D03*
X134935000Y-132300000D03*
X136205000Y-132300000D03*
X136205000Y-137700000D03*
X134935000Y-137700000D03*
X133665000Y-137700000D03*
X132395000Y-137700000D03*
D12*
X166300000Y-147805000D03*
X166300000Y-146535000D03*
X166300000Y-145265000D03*
X166300000Y-143995000D03*
X171700000Y-143995000D03*
X171700000Y-145265000D03*
X171700000Y-146535000D03*
X171700000Y-147805000D03*
X137600000Y-98095000D03*
X137600000Y-99365000D03*
X137600000Y-100635000D03*
X137600000Y-101905000D03*
X132200000Y-101905000D03*
X132200000Y-100635000D03*
X132200000Y-99365000D03*
X132200000Y-98095000D03*
D10*
X134400000Y-142600000D03*
X136200000Y-142600000D03*
D13*
X138100000Y-146700000D03*
X138100000Y-148500000D03*
D10*
X115200000Y-142600000D03*
X117000000Y-142600000D03*
D13*
X118900000Y-146700000D03*
X118900000Y-148500000D03*
X140100000Y-143200000D03*
X140100000Y-145000000D03*
X120900000Y-145000000D03*
X120900000Y-143200000D03*
D10*
X134400000Y-130000000D03*
X136200000Y-130000000D03*
D13*
X138100000Y-134100000D03*
X138100000Y-135900000D03*
X138100000Y-132400000D03*
X138100000Y-130600000D03*
X140100000Y-134100000D03*
X140100000Y-135900000D03*
X140100000Y-132400000D03*
X140100000Y-130600000D03*
D10*
X130700000Y-134000000D03*
X128900000Y-134000000D03*
X134400000Y-117400000D03*
X136200000Y-117400000D03*
D13*
X138100000Y-121500000D03*
X138100000Y-123300000D03*
D10*
X115200000Y-117400000D03*
X117000000Y-117400000D03*
D13*
X118900000Y-121500000D03*
X118900000Y-123300000D03*
X140100000Y-118000000D03*
X140100000Y-119800000D03*
X120900000Y-119800000D03*
X120900000Y-118000000D03*
D10*
X134400000Y-104800000D03*
X136200000Y-104800000D03*
D13*
X138100000Y-108900000D03*
X138100000Y-110700000D03*
X140100000Y-107200000D03*
X140100000Y-105400000D03*
X118900000Y-108900000D03*
X118900000Y-110700000D03*
X118900000Y-107200000D03*
X118900000Y-105400000D03*
D10*
X109700000Y-108800000D03*
X111500000Y-108800000D03*
X101800000Y-58100000D03*
X100000000Y-58100000D03*
D13*
X139700000Y-98100000D03*
X139700000Y-99900000D03*
X140100000Y-87600000D03*
X140100000Y-85800000D03*
X120900000Y-85900000D03*
X120900000Y-87700000D03*
X140100000Y-75000000D03*
X140100000Y-73200000D03*
X120900000Y-73200000D03*
X120900000Y-75000000D03*
X140100000Y-62400000D03*
X140100000Y-60600000D03*
X120900000Y-60700000D03*
X120900000Y-62500000D03*
X140100000Y-49800000D03*
X140100000Y-48000000D03*
X120900000Y-48000000D03*
X120900000Y-49800000D03*
D10*
X100000000Y-89800000D03*
X101800000Y-89800000D03*
X100000000Y-95700000D03*
X101800000Y-95700000D03*
X101800000Y-92200000D03*
X100000000Y-92200000D03*
X101800000Y-98200000D03*
X100000000Y-98200000D03*
X100000000Y-77100000D03*
X101800000Y-77100000D03*
X100000000Y-83300000D03*
X101800000Y-83300000D03*
X101800000Y-79500000D03*
X100000000Y-79500000D03*
X101800000Y-85700000D03*
X100000000Y-85700000D03*
X100000000Y-64500000D03*
X101800000Y-64500000D03*
X100000000Y-71100000D03*
X101800000Y-71100000D03*
X101800000Y-66900000D03*
X100000000Y-66900000D03*
X101800000Y-73500000D03*
X100000000Y-73500000D03*
X100000000Y-52000000D03*
X101800000Y-52000000D03*
X101800000Y-60500000D03*
X100000000Y-60500000D03*
X101800000Y-54400000D03*
X100000000Y-54400000D03*
D14*
X183199820Y-62969620D03*
D15*
X183199820Y-61250040D03*
X181000180Y-61250040D03*
X181000180Y-63149960D03*
D16*
X149400000Y-139098000D03*
D17*
X149400000Y-145702000D03*
X151686000Y-145702000D03*
X147114000Y-145702000D03*
D13*
X168200000Y-111900000D03*
X168200000Y-113700000D03*
X170200000Y-111900000D03*
X170200000Y-113700000D03*
D18*
X182098000Y-55114000D03*
D19*
X188702000Y-55114000D03*
X188702000Y-52828000D03*
X188702000Y-57400000D03*
D16*
X157300000Y-145698000D03*
D17*
X157300000Y-152302000D03*
X159586000Y-152302000D03*
X155014000Y-152302000D03*
D18*
X153898000Y-58100000D03*
D19*
X160502000Y-58100000D03*
X160502000Y-55814000D03*
X160502000Y-60386000D03*
D13*
X151500000Y-59100000D03*
X151500000Y-60900000D03*
X151500000Y-57400000D03*
X151500000Y-55600000D03*
X162900000Y-55800000D03*
X162900000Y-57600000D03*
X184800000Y-90600000D03*
X184800000Y-92400000D03*
D20*
X190700000Y-94500000D03*
X189430000Y-94500000D03*
X188160000Y-94500000D03*
X186890000Y-94500000D03*
X185620000Y-94500000D03*
X184350000Y-94500000D03*
X183080000Y-94500000D03*
X181810000Y-94500000D03*
X180540000Y-94500000D03*
X179270000Y-94500000D03*
X178000000Y-94500000D03*
X176730000Y-94500000D03*
X175460000Y-94500000D03*
X174190000Y-94500000D03*
D21*
X173190000Y-97285000D03*
X173190000Y-98555000D03*
X173190000Y-99825000D03*
X173190000Y-101095000D03*
X173190000Y-102365000D03*
X173190000Y-103635000D03*
X173190000Y-104905000D03*
X173190000Y-106175000D03*
X173190000Y-107445000D03*
X173190000Y-108715000D03*
D20*
X174190000Y-111500000D03*
X175460000Y-111500000D03*
X176730000Y-111500000D03*
X178000000Y-111500000D03*
X179270000Y-111500000D03*
X180540000Y-111500000D03*
X181810000Y-111500000D03*
X183080000Y-111500000D03*
X184350000Y-111500000D03*
X185620000Y-111500000D03*
X186890000Y-111500000D03*
X188160000Y-111500000D03*
X189430000Y-111500000D03*
X190700000Y-111500000D03*
D22*
X183200000Y-102000000D03*
D13*
X188800000Y-90600000D03*
X188800000Y-92400000D03*
X190800000Y-90600000D03*
X190800000Y-92400000D03*
X186800000Y-90600000D03*
X186800000Y-92400000D03*
D10*
X190000000Y-128200000D03*
X188200000Y-128200000D03*
X190000000Y-126200000D03*
X188200000Y-126200000D03*
D13*
X167200000Y-124700000D03*
X167200000Y-122900000D03*
X165200000Y-124700000D03*
X165200000Y-122900000D03*
D10*
X172800000Y-120300000D03*
X174600000Y-120300000D03*
X162000000Y-120300000D03*
X163800000Y-120300000D03*
X171000000Y-124500000D03*
X169200000Y-124500000D03*
X162000000Y-118300000D03*
X163800000Y-118300000D03*
D13*
X191700000Y-137600000D03*
X191700000Y-139400000D03*
X188400000Y-142200000D03*
X188400000Y-140400000D03*
X186400000Y-145800000D03*
X186400000Y-144000000D03*
X148400000Y-135100000D03*
X148400000Y-136900000D03*
D10*
X150500000Y-148100000D03*
X152300000Y-148100000D03*
D13*
X150400000Y-135100000D03*
X150400000Y-136900000D03*
D10*
X161900000Y-141900000D03*
X160100000Y-141900000D03*
D13*
X162400000Y-140000000D03*
X162400000Y-138200000D03*
D10*
X160100000Y-136300000D03*
X161900000Y-136300000D03*
D23*
X179270000Y-120100000D03*
X176730000Y-120100000D03*
X176730000Y-122300000D03*
X179270000Y-122300000D03*
D13*
X183500000Y-120200000D03*
X183500000Y-122000000D03*
X188700000Y-120200000D03*
X188700000Y-122000000D03*
D10*
X177100000Y-124500000D03*
X178900000Y-124500000D03*
X175200000Y-146800000D03*
X177000000Y-146800000D03*
X179200000Y-146800000D03*
X181000000Y-146800000D03*
X164900000Y-139900000D03*
X166700000Y-139900000D03*
X166700000Y-134900000D03*
X164900000Y-134900000D03*
X166700000Y-132900000D03*
X164900000Y-132900000D03*
X186500000Y-124200000D03*
X184700000Y-124200000D03*
X172800000Y-122300000D03*
X174600000Y-122300000D03*
D13*
X181500000Y-120200000D03*
X181500000Y-122000000D03*
X164200000Y-146000000D03*
X164200000Y-147800000D03*
D10*
X173600000Y-148900000D03*
X175400000Y-148900000D03*
X188200000Y-124200000D03*
X190000000Y-124200000D03*
X161800000Y-150800000D03*
X163600000Y-150800000D03*
X179900000Y-56100000D03*
X178100000Y-56100000D03*
D13*
X191000000Y-52800000D03*
X191000000Y-54600000D03*
D24*
X182300000Y-68700000D03*
X180100000Y-70300000D03*
X180100000Y-68700000D03*
X182300000Y-70300000D03*
D13*
X162400000Y-107000000D03*
X162400000Y-108800000D03*
D10*
X151500000Y-109700000D03*
X153300000Y-109700000D03*
X151500000Y-91500000D03*
X153300000Y-91500000D03*
D13*
X159000000Y-83100000D03*
X159000000Y-84900000D03*
X148000000Y-79100000D03*
X148000000Y-77300000D03*
D10*
X169900000Y-88000000D03*
X168100000Y-88000000D03*
D13*
X170600000Y-73900000D03*
X170600000Y-72100000D03*
D10*
X187000000Y-82400000D03*
X188800000Y-82400000D03*
X185300000Y-85200000D03*
X183500000Y-85200000D03*
D13*
X185200000Y-63200000D03*
X185200000Y-61400000D03*
X187200000Y-63200000D03*
X187200000Y-61400000D03*
D10*
X177100000Y-64200000D03*
X175300000Y-64200000D03*
X177100000Y-62200000D03*
X175300000Y-62200000D03*
X171800000Y-64200000D03*
X173600000Y-64200000D03*
X171800000Y-62200000D03*
X173600000Y-62200000D03*
D13*
X178200000Y-73900000D03*
X178200000Y-72100000D03*
X180200000Y-73900000D03*
X180200000Y-72100000D03*
X166600000Y-72100000D03*
X166600000Y-73900000D03*
D10*
X187000000Y-78400000D03*
X188800000Y-78400000D03*
X187000000Y-76400000D03*
X188800000Y-76400000D03*
X188800000Y-85200000D03*
X187000000Y-85200000D03*
X188800000Y-87200000D03*
X187000000Y-87200000D03*
D13*
X171800000Y-87700000D03*
X171800000Y-89500000D03*
D10*
X170200000Y-76800000D03*
X168400000Y-76800000D03*
X183500000Y-76400000D03*
X185300000Y-76400000D03*
X183500000Y-87200000D03*
X185300000Y-87200000D03*
D13*
X181600000Y-87800000D03*
X181600000Y-89600000D03*
D10*
X169900000Y-86000000D03*
X168100000Y-86000000D03*
D13*
X172600000Y-73900000D03*
X172600000Y-72100000D03*
X182200000Y-73900000D03*
X182200000Y-72100000D03*
X179000000Y-63200000D03*
X179000000Y-61400000D03*
X168600000Y-72100000D03*
X168600000Y-73900000D03*
X180100000Y-66700000D03*
X180100000Y-64900000D03*
X182300000Y-66700000D03*
X182300000Y-64900000D03*
D10*
X187000000Y-80400000D03*
X188800000Y-80400000D03*
X185300000Y-80400000D03*
X183500000Y-80400000D03*
X183500000Y-78400000D03*
X185300000Y-78400000D03*
X185300000Y-82400000D03*
X183500000Y-82400000D03*
X179900000Y-54100000D03*
X178100000Y-54100000D03*
D13*
X161900000Y-147800000D03*
X161900000Y-146000000D03*
D10*
X161800000Y-152800000D03*
X163600000Y-152800000D03*
D13*
X140100000Y-91100000D03*
X140100000Y-89300000D03*
X120900000Y-91200000D03*
X120900000Y-89400000D03*
X138100000Y-89300000D03*
X138100000Y-91100000D03*
X140100000Y-92800000D03*
X140100000Y-94600000D03*
X118900000Y-89400000D03*
X118900000Y-91200000D03*
X120900000Y-92900000D03*
X120900000Y-94700000D03*
X130500000Y-89300000D03*
X130500000Y-91100000D03*
X111300000Y-89400000D03*
X111300000Y-91200000D03*
X128500000Y-85800000D03*
X128500000Y-87600000D03*
X109300000Y-85900000D03*
X109300000Y-87700000D03*
X128500000Y-92800000D03*
X128500000Y-94600000D03*
X109300000Y-92900000D03*
X109300000Y-94700000D03*
D10*
X154700000Y-70300000D03*
X152900000Y-70300000D03*
D13*
X130500000Y-92800000D03*
X130500000Y-94600000D03*
D10*
X134400000Y-95000000D03*
X136200000Y-95000000D03*
D13*
X111300000Y-92900000D03*
X111300000Y-94700000D03*
D10*
X115200000Y-95000000D03*
X117000000Y-95000000D03*
D13*
X140100000Y-78500000D03*
X140100000Y-76700000D03*
D10*
X142500000Y-71600000D03*
X144300000Y-71600000D03*
D13*
X138100000Y-76700000D03*
X138100000Y-78500000D03*
X140100000Y-80200000D03*
X140100000Y-82000000D03*
X118900000Y-76700000D03*
X118900000Y-78500000D03*
X120900000Y-80200000D03*
X120900000Y-82000000D03*
X130500000Y-76700000D03*
X130500000Y-78500000D03*
X111300000Y-76700000D03*
X111300000Y-78500000D03*
X128500000Y-73200000D03*
X128500000Y-75000000D03*
X109300000Y-73200000D03*
X109300000Y-75000000D03*
X128500000Y-80200000D03*
X128500000Y-82000000D03*
X109300000Y-80200000D03*
X109300000Y-82000000D03*
X130500000Y-80200000D03*
X130500000Y-82000000D03*
D10*
X134400000Y-82400000D03*
X136200000Y-82400000D03*
D13*
X111300000Y-80200000D03*
X111300000Y-82000000D03*
D10*
X115200000Y-82400000D03*
X117000000Y-82400000D03*
X142500000Y-84800000D03*
X144300000Y-84800000D03*
D13*
X140100000Y-65900000D03*
X140100000Y-64100000D03*
X120900000Y-66000000D03*
X120900000Y-64200000D03*
X138100000Y-64100000D03*
X138100000Y-65900000D03*
X140100000Y-67600000D03*
X140100000Y-69400000D03*
X118900000Y-64200000D03*
X118900000Y-66000000D03*
X120900000Y-67700000D03*
X120900000Y-69500000D03*
X130500000Y-64100000D03*
X130500000Y-65900000D03*
X111300000Y-64100000D03*
X111300000Y-65900000D03*
X128500000Y-60600000D03*
X128500000Y-62400000D03*
X109300000Y-60600000D03*
X109300000Y-62400000D03*
D10*
X154500000Y-86000000D03*
X152700000Y-86000000D03*
D13*
X128500000Y-67600000D03*
X128500000Y-69400000D03*
X109300000Y-67600000D03*
X109300000Y-69400000D03*
X130500000Y-67600000D03*
X130500000Y-69400000D03*
D10*
X134400000Y-69800000D03*
X136200000Y-69800000D03*
D13*
X111300000Y-67600000D03*
X111300000Y-69400000D03*
D10*
X115200000Y-69800000D03*
X117000000Y-69800000D03*
D13*
X120900000Y-53300000D03*
X120900000Y-51500000D03*
X140100000Y-53300000D03*
X140100000Y-51500000D03*
X118900000Y-51500000D03*
X118900000Y-53300000D03*
X120900000Y-55000000D03*
X120900000Y-56800000D03*
X138100000Y-51500000D03*
X138100000Y-53300000D03*
X140100000Y-55000000D03*
X140100000Y-56800000D03*
X111300000Y-51500000D03*
X111300000Y-53300000D03*
X130500000Y-51500000D03*
X130500000Y-53300000D03*
X109300000Y-48000000D03*
X109300000Y-49800000D03*
X128500000Y-48000000D03*
X128500000Y-49800000D03*
X109300000Y-55000000D03*
X109300000Y-56800000D03*
X128500000Y-55000000D03*
X128500000Y-56800000D03*
X111300000Y-55000000D03*
X111300000Y-56800000D03*
D10*
X115200000Y-57200000D03*
X117000000Y-57200000D03*
D13*
X130500000Y-55000000D03*
X130500000Y-56800000D03*
D10*
X134400000Y-57200000D03*
X136200000Y-57200000D03*
X132400000Y-85400000D03*
X134200000Y-85400000D03*
X113200000Y-85400000D03*
X115000000Y-85400000D03*
X132400000Y-72800000D03*
X134200000Y-72800000D03*
X113200000Y-72800000D03*
X115000000Y-72800000D03*
X132400000Y-60200000D03*
X134200000Y-60200000D03*
X113200000Y-60200000D03*
X115000000Y-60200000D03*
X113200000Y-47600000D03*
X115000000Y-47600000D03*
X132400000Y-47600000D03*
X134200000Y-47600000D03*
D13*
X157000000Y-83100000D03*
X157000000Y-84900000D03*
X138100000Y-87600000D03*
X138100000Y-85800000D03*
X118900000Y-87700000D03*
X118900000Y-85900000D03*
X138100000Y-94600000D03*
X138100000Y-92800000D03*
X118900000Y-94700000D03*
X118900000Y-92900000D03*
D10*
X152900000Y-72300000D03*
X154700000Y-72300000D03*
D13*
X130500000Y-85800000D03*
X130500000Y-87600000D03*
X111300000Y-85900000D03*
X111300000Y-87700000D03*
X128500000Y-89300000D03*
X128500000Y-91100000D03*
X109300000Y-89400000D03*
X109300000Y-91200000D03*
D10*
X150200000Y-75100000D03*
X148400000Y-75100000D03*
D13*
X138100000Y-75000000D03*
X138100000Y-73200000D03*
X118900000Y-75000000D03*
X118900000Y-73200000D03*
X138100000Y-82000000D03*
X138100000Y-80200000D03*
X118900000Y-82000000D03*
X118900000Y-80200000D03*
X150000000Y-79100000D03*
X150000000Y-77300000D03*
X130500000Y-73200000D03*
X130500000Y-75000000D03*
X111300000Y-73200000D03*
X111300000Y-75000000D03*
X128500000Y-76700000D03*
X128500000Y-78500000D03*
X109300000Y-76700000D03*
X109300000Y-78500000D03*
D10*
X150200000Y-81300000D03*
X148400000Y-81300000D03*
D13*
X138100000Y-62400000D03*
X138100000Y-60600000D03*
X118900000Y-62500000D03*
X118900000Y-60700000D03*
X138100000Y-69400000D03*
X138100000Y-67600000D03*
X118900000Y-69500000D03*
X118900000Y-67700000D03*
D10*
X152700000Y-84000000D03*
X154500000Y-84000000D03*
D13*
X130500000Y-60600000D03*
X130500000Y-62400000D03*
X111300000Y-60600000D03*
X111300000Y-62400000D03*
X128500000Y-64100000D03*
X128500000Y-65900000D03*
X109300000Y-64100000D03*
X109300000Y-65900000D03*
X161400000Y-83100000D03*
X161400000Y-84900000D03*
X118900000Y-49800000D03*
X118900000Y-48000000D03*
X138100000Y-49800000D03*
X138100000Y-48000000D03*
X118900000Y-56800000D03*
X118900000Y-55000000D03*
X138100000Y-56800000D03*
X138100000Y-55000000D03*
X111300000Y-48000000D03*
X111300000Y-49800000D03*
X130500000Y-48000000D03*
X130500000Y-49800000D03*
X109300000Y-51500000D03*
X109300000Y-53300000D03*
X128500000Y-51500000D03*
X128500000Y-53300000D03*
X138100000Y-143200000D03*
X138100000Y-145000000D03*
X118900000Y-143200000D03*
X118900000Y-145000000D03*
X140100000Y-146700000D03*
X140100000Y-148500000D03*
X120900000Y-146700000D03*
X120900000Y-148500000D03*
D10*
X128900000Y-148600000D03*
X130700000Y-148600000D03*
X109700000Y-148600000D03*
X111500000Y-148600000D03*
X136200000Y-152600000D03*
X134400000Y-152600000D03*
X117000000Y-152600000D03*
X115200000Y-152600000D03*
X128900000Y-150600000D03*
X130700000Y-150600000D03*
X109700000Y-150600000D03*
X111500000Y-150600000D03*
D13*
X138100000Y-152000000D03*
X138100000Y-150200000D03*
X118900000Y-152000000D03*
X118900000Y-150200000D03*
D10*
X128900000Y-136000000D03*
X130700000Y-136000000D03*
X136200000Y-140000000D03*
X134400000Y-140000000D03*
X128900000Y-138000000D03*
X130700000Y-138000000D03*
D13*
X138100000Y-139400000D03*
X138100000Y-137600000D03*
D10*
X117000000Y-130000000D03*
X115200000Y-130000000D03*
D13*
X118900000Y-134100000D03*
X118900000Y-135900000D03*
D10*
X148000000Y-109700000D03*
X149800000Y-109700000D03*
D13*
X118900000Y-130600000D03*
X118900000Y-132400000D03*
X120900000Y-134100000D03*
X120900000Y-135900000D03*
D10*
X109700000Y-136000000D03*
X111500000Y-136000000D03*
X117000000Y-140000000D03*
X115200000Y-140000000D03*
X109700000Y-138000000D03*
X111500000Y-138000000D03*
D13*
X118900000Y-139400000D03*
X118900000Y-137600000D03*
X166300000Y-100600000D03*
X166300000Y-102400000D03*
D10*
X148000000Y-107700000D03*
X149800000Y-107700000D03*
D13*
X138100000Y-118000000D03*
X138100000Y-119800000D03*
X118900000Y-118000000D03*
X118900000Y-119800000D03*
X140100000Y-121500000D03*
X140100000Y-123300000D03*
X120900000Y-121500000D03*
X120900000Y-123300000D03*
D10*
X128900000Y-123400000D03*
X130700000Y-123400000D03*
X109700000Y-123400000D03*
X111500000Y-123400000D03*
X148000000Y-93500000D03*
X149800000Y-93500000D03*
X136200000Y-127400000D03*
X134400000Y-127400000D03*
X117000000Y-127400000D03*
X115200000Y-127400000D03*
X128900000Y-125400000D03*
X130700000Y-125400000D03*
X109700000Y-125400000D03*
X111500000Y-125400000D03*
D13*
X138100000Y-126800000D03*
X138100000Y-125000000D03*
X118900000Y-126800000D03*
X118900000Y-125000000D03*
D10*
X148000000Y-91500000D03*
X149800000Y-91500000D03*
D13*
X138100000Y-105400000D03*
X138100000Y-107200000D03*
D10*
X117000000Y-104800000D03*
X115200000Y-104800000D03*
D13*
X140100000Y-108900000D03*
X140100000Y-110700000D03*
X120900000Y-108900000D03*
X120900000Y-110700000D03*
D10*
X128900000Y-110800000D03*
X130700000Y-110800000D03*
X109700000Y-110800000D03*
X111500000Y-110800000D03*
X136200000Y-114800000D03*
X134400000Y-114800000D03*
X117000000Y-114800000D03*
X115200000Y-114800000D03*
X128900000Y-112800000D03*
X130700000Y-112800000D03*
X109700000Y-112800000D03*
X111500000Y-112800000D03*
D13*
X138100000Y-114200000D03*
X138100000Y-112400000D03*
X118900000Y-114200000D03*
X118900000Y-112400000D03*
D10*
X132700000Y-142600000D03*
X130900000Y-142600000D03*
X113500000Y-142600000D03*
X111700000Y-142600000D03*
X132700000Y-130000000D03*
X130900000Y-130000000D03*
X113500000Y-130000000D03*
X111700000Y-130000000D03*
X132700000Y-117400000D03*
X130900000Y-117400000D03*
X113500000Y-117400000D03*
X111700000Y-117400000D03*
X132700000Y-104800000D03*
X130900000Y-104800000D03*
X113500000Y-104800000D03*
X111700000Y-104800000D03*
X128900000Y-146600000D03*
X130700000Y-146600000D03*
X109700000Y-146600000D03*
X111500000Y-146600000D03*
X156800000Y-109700000D03*
X155000000Y-109700000D03*
X151500000Y-107700000D03*
X153300000Y-107700000D03*
X128900000Y-144600000D03*
X130700000Y-144600000D03*
X109700000Y-144600000D03*
X111500000Y-144600000D03*
D13*
X160400000Y-107000000D03*
X160400000Y-108800000D03*
D10*
X153300000Y-104500000D03*
X151500000Y-104500000D03*
X153300000Y-96500000D03*
X151500000Y-96500000D03*
D13*
X140100000Y-152000000D03*
X140100000Y-150200000D03*
X120900000Y-152000000D03*
X120900000Y-150200000D03*
D10*
X130900000Y-152600000D03*
X132700000Y-152600000D03*
X111700000Y-152600000D03*
X113500000Y-152600000D03*
X149800000Y-104500000D03*
X148000000Y-104500000D03*
X128900000Y-132000000D03*
X130700000Y-132000000D03*
X165500000Y-105100000D03*
X167300000Y-105100000D03*
D13*
X164400000Y-107000000D03*
X164400000Y-108800000D03*
X140100000Y-139400000D03*
X140100000Y-137600000D03*
D10*
X130900000Y-140000000D03*
X132700000Y-140000000D03*
D13*
X120900000Y-132400000D03*
X120900000Y-130600000D03*
D10*
X109700000Y-134000000D03*
X111500000Y-134000000D03*
X156800000Y-107700000D03*
X155000000Y-107700000D03*
X149800000Y-102100000D03*
X148000000Y-102100000D03*
X109700000Y-132000000D03*
X111500000Y-132000000D03*
D13*
X120900000Y-139400000D03*
X120900000Y-137600000D03*
D10*
X111700000Y-140000000D03*
X113500000Y-140000000D03*
X153300000Y-102100000D03*
X151500000Y-102100000D03*
X128900000Y-121400000D03*
X130700000Y-121400000D03*
X109700000Y-121400000D03*
X111500000Y-121400000D03*
X153300000Y-98900000D03*
X151500000Y-98900000D03*
X148000000Y-98900000D03*
X149800000Y-98900000D03*
X148000000Y-96500000D03*
X149800000Y-96500000D03*
X128900000Y-119400000D03*
X130700000Y-119400000D03*
X109700000Y-119400000D03*
X111500000Y-119400000D03*
D13*
X140100000Y-126800000D03*
X140100000Y-125000000D03*
X120900000Y-126800000D03*
X120900000Y-125000000D03*
D10*
X156800000Y-93500000D03*
X155000000Y-93500000D03*
X130900000Y-127400000D03*
X132700000Y-127400000D03*
X111700000Y-127400000D03*
X113500000Y-127400000D03*
X128900000Y-108800000D03*
X130700000Y-108800000D03*
D13*
X120900000Y-107200000D03*
X120900000Y-105400000D03*
D10*
X151500000Y-93500000D03*
X153300000Y-93500000D03*
X109700000Y-106800000D03*
X111500000Y-106800000D03*
X128900000Y-106800000D03*
X130700000Y-106800000D03*
X111700000Y-114800000D03*
X113500000Y-114800000D03*
D13*
X140100000Y-114200000D03*
X140100000Y-112400000D03*
X120900000Y-114200000D03*
X120900000Y-112400000D03*
D10*
X130900000Y-114800000D03*
X132700000Y-114800000D03*
X155000000Y-91500000D03*
X156800000Y-91500000D03*
D13*
X184400000Y-145800000D03*
X184400000Y-144000000D03*
D25*
X189300000Y-150600000D03*
X183500000Y-150600000D03*
D13*
X120900000Y-78500000D03*
X120900000Y-76700000D03*
X149400000Y-118100000D03*
X149400000Y-119900000D03*
X151400000Y-118100000D03*
X151400000Y-119900000D03*
X170900000Y-108200000D03*
X170900000Y-110000000D03*
D17*
X147114000Y-128602000D03*
X151686000Y-128602000D03*
X149400000Y-128602000D03*
D16*
X149400000Y-121998000D03*
D10*
X149900000Y-131000000D03*
X151700000Y-131000000D03*
X150500000Y-150100000D03*
X152300000Y-150100000D03*
D13*
X191600000Y-145800000D03*
X191600000Y-144000000D03*
D26*
X181100000Y-86100000D03*
X180600000Y-86100000D03*
X180100000Y-86100000D03*
X179600000Y-86100000D03*
X179100000Y-86100000D03*
X178600000Y-86100000D03*
X178100000Y-86100000D03*
X177600000Y-86100000D03*
X177100000Y-86100000D03*
X176600000Y-86100000D03*
X176100000Y-86100000D03*
X175600000Y-86100000D03*
X175100000Y-86100000D03*
X174600000Y-86100000D03*
X174100000Y-86100000D03*
X173600000Y-86100000D03*
X173100000Y-86100000D03*
X172600000Y-86100000D03*
D27*
X171850000Y-85350000D03*
X171850000Y-84850000D03*
X171850000Y-84350000D03*
X171850000Y-83850000D03*
X171850000Y-83350000D03*
X171850000Y-82850000D03*
X171850000Y-82350000D03*
X171850000Y-81850000D03*
X171850000Y-81350000D03*
X171850000Y-80850000D03*
X171850000Y-80350000D03*
X171850000Y-79850000D03*
X171850000Y-79350000D03*
X171850000Y-78850000D03*
X171850000Y-78350000D03*
X171850000Y-77850000D03*
X171850000Y-77350000D03*
X171850000Y-76850000D03*
D26*
X172600000Y-76100000D03*
X173100000Y-76100000D03*
X173600000Y-76100000D03*
X174100000Y-76100000D03*
X174600000Y-76100000D03*
X175100000Y-76100000D03*
X175600000Y-76100000D03*
X176100000Y-76100000D03*
X176600000Y-76100000D03*
X177100000Y-76100000D03*
X177600000Y-76100000D03*
X178100000Y-76100000D03*
X178600000Y-76100000D03*
X179100000Y-76100000D03*
X179600000Y-76100000D03*
X180100000Y-76100000D03*
X180600000Y-76100000D03*
X181100000Y-76100000D03*
D27*
X181850000Y-76850000D03*
X181850000Y-77350000D03*
X181850000Y-77850000D03*
X181850000Y-78350000D03*
X181850000Y-78850000D03*
X181850000Y-79350000D03*
X181850000Y-79850000D03*
X181850000Y-80350000D03*
X181850000Y-80850000D03*
X181850000Y-81350000D03*
X181850000Y-81850000D03*
X181850000Y-82350000D03*
X181850000Y-82850000D03*
X181850000Y-83350000D03*
X181850000Y-83850000D03*
X181850000Y-84350000D03*
X181850000Y-84850000D03*
X181850000Y-85350000D03*
D28*
X176850000Y-81100000D03*
D29*
X169550000Y-70105000D03*
X169550000Y-68835000D03*
X169550000Y-67565000D03*
X169550000Y-66295000D03*
X176850000Y-66295000D03*
X176850000Y-67565000D03*
X176850000Y-68835000D03*
X176850000Y-70105000D03*
D30*
X155756250Y-78156250D03*
D31*
X158506250Y-81556250D03*
X158006250Y-81556250D03*
X157506250Y-81556250D03*
X157006250Y-81556250D03*
X156506250Y-81556250D03*
X156006250Y-81556250D03*
X155506250Y-81556250D03*
X155006250Y-81556250D03*
X154506250Y-81556250D03*
X154006250Y-81556250D03*
X153506250Y-81556250D03*
X153006250Y-81556250D03*
D32*
X152356250Y-80906250D03*
X152356250Y-80406250D03*
X152356250Y-79906250D03*
X152356250Y-79406250D03*
X152356250Y-78906250D03*
X152356250Y-78406250D03*
X152356250Y-77906250D03*
X152356250Y-77406250D03*
X152356250Y-76906250D03*
X152356250Y-76406250D03*
X152356250Y-75906250D03*
X152356250Y-75406250D03*
D31*
X153006250Y-74756250D03*
X153506250Y-74756250D03*
X154006250Y-74756250D03*
X154506250Y-74756250D03*
X155006250Y-74756250D03*
X155506250Y-74756250D03*
X156006250Y-74756250D03*
X156506250Y-74756250D03*
X157006250Y-74756250D03*
X157506250Y-74756250D03*
X158006250Y-74756250D03*
X158506250Y-74756250D03*
D32*
X159156250Y-75406250D03*
X159156250Y-75906250D03*
X159156250Y-76406250D03*
X159156250Y-76906250D03*
X159156250Y-77406250D03*
X159156250Y-77906250D03*
X159156250Y-78406250D03*
X159156250Y-78906250D03*
X159156250Y-79406250D03*
X159156250Y-79906250D03*
X159156250Y-80406250D03*
X159156250Y-80906250D03*
D33*
X159400000Y-100500000D03*
D34*
X155650000Y-96050000D03*
X156150000Y-96050000D03*
X156650000Y-96050000D03*
X157150000Y-96050000D03*
X157650000Y-96050000D03*
X158150000Y-96050000D03*
X158650000Y-96050000D03*
X159150000Y-96050000D03*
X159650000Y-96050000D03*
X160150000Y-96050000D03*
X160650000Y-96050000D03*
X161150000Y-96050000D03*
X161650000Y-96050000D03*
X162150000Y-96050000D03*
X162650000Y-96050000D03*
X163150000Y-96050000D03*
D35*
X163850000Y-96750000D03*
X163850000Y-97250000D03*
X163850000Y-97750000D03*
X163850000Y-98250000D03*
X163850000Y-98750000D03*
X163850000Y-99250000D03*
X163850000Y-99750000D03*
X163850000Y-100250000D03*
X163850000Y-100750000D03*
X163850000Y-101250000D03*
X163850000Y-101750000D03*
X163850000Y-102250000D03*
X163850000Y-102750000D03*
X163850000Y-103250000D03*
X163850000Y-103750000D03*
X163850000Y-104250000D03*
D34*
X163150000Y-104950000D03*
X162650000Y-104950000D03*
X162150000Y-104950000D03*
X161650000Y-104950000D03*
X161150000Y-104950000D03*
X160650000Y-104950000D03*
X160150000Y-104950000D03*
X159650000Y-104950000D03*
X159150000Y-104950000D03*
X158650000Y-104950000D03*
X158150000Y-104950000D03*
X157650000Y-104950000D03*
X157150000Y-104950000D03*
X156650000Y-104950000D03*
X156150000Y-104950000D03*
X155650000Y-104950000D03*
D35*
X154950000Y-104250000D03*
X154950000Y-103750000D03*
X154950000Y-103250000D03*
X154950000Y-102750000D03*
X154950000Y-102250000D03*
X154950000Y-101750000D03*
X154950000Y-101250000D03*
X154950000Y-100750000D03*
X154950000Y-100250000D03*
X154950000Y-99750000D03*
X154950000Y-99250000D03*
X154950000Y-98750000D03*
X154950000Y-98250000D03*
X154950000Y-97750000D03*
X154950000Y-97250000D03*
X154950000Y-96750000D03*
D36*
X178900000Y-134500000D03*
X178900000Y-134500000D03*
D37*
X172700000Y-126800000D03*
X173100000Y-126800000D03*
X173500000Y-126800000D03*
X173900000Y-126800000D03*
X174300000Y-126800000D03*
X174700000Y-126800000D03*
X175100000Y-126800000D03*
X175500000Y-126800000D03*
X175900000Y-126800000D03*
X176300000Y-126800000D03*
X176700000Y-126800000D03*
X177100000Y-126800000D03*
X177500000Y-126800000D03*
X177900000Y-126800000D03*
X178300000Y-126800000D03*
X178700000Y-126800000D03*
X179100000Y-126800000D03*
X179500000Y-126800000D03*
X179900000Y-126800000D03*
X180300000Y-126800000D03*
X180700000Y-126800000D03*
X181100000Y-126800000D03*
X181500000Y-126800000D03*
X181900000Y-126800000D03*
X182300000Y-126800000D03*
X182700000Y-126800000D03*
X183100000Y-126800000D03*
X183500000Y-126800000D03*
X183900000Y-126800000D03*
X184300000Y-126800000D03*
X184700000Y-126800000D03*
X185100000Y-126800000D03*
D38*
X186600000Y-128300000D03*
X186600000Y-128700000D03*
X186600000Y-129100000D03*
X186600000Y-129500000D03*
X186600000Y-129900000D03*
X186600000Y-130300000D03*
X186600000Y-130700000D03*
X186600000Y-131100000D03*
X186600000Y-131500000D03*
X186600000Y-131900000D03*
X186600000Y-132300000D03*
X186600000Y-132700000D03*
X186600000Y-133100000D03*
X186600000Y-133500000D03*
X186600000Y-133900000D03*
X186600000Y-134300000D03*
X186600000Y-134700000D03*
X186600000Y-135100000D03*
X186600000Y-135500000D03*
X186600000Y-135900000D03*
X186600000Y-136300000D03*
X186600000Y-136700000D03*
X186600000Y-137100000D03*
X186600000Y-137500000D03*
X186600000Y-137900000D03*
X186600000Y-138300000D03*
X186600000Y-138700000D03*
X186600000Y-139100000D03*
X186600000Y-139500000D03*
X186600000Y-139900000D03*
X186600000Y-140300000D03*
X186600000Y-140700000D03*
D37*
X185100000Y-142200000D03*
X184700000Y-142200000D03*
X184300000Y-142200000D03*
X183900000Y-142200000D03*
X183500000Y-142200000D03*
X183100000Y-142200000D03*
X182700000Y-142200000D03*
X182300000Y-142200000D03*
X181900000Y-142200000D03*
X181500000Y-142200000D03*
X181100000Y-142200000D03*
X180700000Y-142200000D03*
X180300000Y-142200000D03*
X179900000Y-142200000D03*
X179500000Y-142200000D03*
X179100000Y-142200000D03*
X178700000Y-142200000D03*
X178300000Y-142200000D03*
X177900000Y-142200000D03*
X177500000Y-142200000D03*
X177100000Y-142200000D03*
X176700000Y-142200000D03*
X176300000Y-142200000D03*
X175900000Y-142200000D03*
X175500000Y-142200000D03*
X175100000Y-142200000D03*
X174700000Y-142200000D03*
X174300000Y-142200000D03*
X173900000Y-142200000D03*
X173500000Y-142200000D03*
X173100000Y-142200000D03*
X172700000Y-142200000D03*
D38*
X171200000Y-140700000D03*
X171200000Y-140300000D03*
X171200000Y-139900000D03*
X171200000Y-139500000D03*
X171200000Y-139100000D03*
X171200000Y-138700000D03*
X171200000Y-138300000D03*
X171200000Y-137900000D03*
X171200000Y-137500000D03*
X171200000Y-137100000D03*
X171200000Y-136700000D03*
X171200000Y-136300000D03*
X171200000Y-135900000D03*
X171200000Y-135500000D03*
X171200000Y-135100000D03*
X171200000Y-134700000D03*
X171200000Y-134300000D03*
X171200000Y-133900000D03*
X171200000Y-133500000D03*
X171200000Y-133100000D03*
X171200000Y-132700000D03*
X171200000Y-132300000D03*
X171200000Y-131900000D03*
X171200000Y-131500000D03*
X171200000Y-131100000D03*
X171200000Y-130700000D03*
X171200000Y-130300000D03*
X171200000Y-129900000D03*
X171200000Y-129500000D03*
X171200000Y-129100000D03*
X171200000Y-128700000D03*
X171200000Y-128300000D03*
D39*
X185084000Y-121760400D03*
X185084000Y-120439600D03*
X187116000Y-121100000D03*
X187116000Y-120439600D03*
X187116000Y-121760400D03*
D40*
X180135000Y-148900000D03*
X176865000Y-148900000D03*
D41*
X160950240Y-138150040D03*
X160300000Y-138150040D03*
X159649760Y-138150040D03*
X159649760Y-140049960D03*
X160300000Y-140049960D03*
X160950240Y-140049960D03*
D42*
X190050000Y-141050000D03*
X190050000Y-142350000D03*
X191950000Y-141700000D03*
X190050000Y-141700000D03*
X191950000Y-142350000D03*
X191950000Y-141050000D03*
D43*
X167249960Y-118850240D03*
X167249960Y-118200000D03*
X167249960Y-117549760D03*
X165350040Y-117549760D03*
X165350040Y-118200000D03*
X165350040Y-118850240D03*
X167249960Y-121450243D03*
X167249960Y-120800003D03*
X167249960Y-120149763D03*
X165350040Y-120149763D03*
X165350040Y-120800003D03*
X165350040Y-121450243D03*
D44*
X169100000Y-122500000D03*
X169600000Y-122500000D03*
X170100000Y-122500000D03*
X170600000Y-122500000D03*
X171100000Y-122500000D03*
X171100000Y-118100000D03*
X170600000Y-118100000D03*
X170100000Y-118100000D03*
X169600000Y-118100000D03*
X169100000Y-118100000D03*
D45*
X179600000Y-87700000D03*
D46*
X178000000Y-87700000D03*
D47*
X178800000Y-87700000D03*
D48*
X177200000Y-87700000D03*
D47*
X178800000Y-89500000D03*
D45*
X179600000Y-89500000D03*
D46*
X178000000Y-89500000D03*
D48*
X177200000Y-89500000D03*
X175800000Y-87700000D03*
D46*
X174200000Y-87700000D03*
X175000000Y-87700000D03*
D45*
X173400000Y-87700000D03*
D46*
X175000000Y-89500000D03*
D48*
X175800000Y-89500000D03*
D46*
X174200000Y-89500000D03*
D45*
X173400000Y-89500000D03*
D49*
X169700000Y-84400000D03*
D50*
X169700000Y-82800000D03*
X169700000Y-83600000D03*
D49*
X169700000Y-82000000D03*
D50*
X167900000Y-83600000D03*
D49*
X167900000Y-84400000D03*
D50*
X167900000Y-82800000D03*
D49*
X167900000Y-82000000D03*
X169700000Y-80800000D03*
D50*
X169700000Y-79200000D03*
X169700000Y-80000000D03*
D49*
X169700000Y-78400000D03*
D50*
X167900000Y-80000000D03*
D49*
X167900000Y-80800000D03*
D50*
X167900000Y-79200000D03*
D49*
X167900000Y-78400000D03*
D51*
X169350000Y-133600000D03*
X168250000Y-133600000D03*
X169350000Y-132200000D03*
X168250000Y-132200000D03*
X169350000Y-134800000D03*
X168250000Y-134800000D03*
X169350000Y-137600000D03*
X168250000Y-137600000D03*
D52*
X173800000Y-144050000D03*
X173800000Y-145150000D03*
X175500000Y-144050000D03*
X175500000Y-145150000D03*
X179100000Y-144050000D03*
X179100000Y-145150000D03*
X181500000Y-144050000D03*
X181500000Y-145150000D03*
X182800000Y-144050000D03*
X182800000Y-145150000D03*
D51*
X188450000Y-137400000D03*
X189550000Y-137400000D03*
X188450000Y-134800000D03*
X189550000Y-134800000D03*
X188450000Y-131900000D03*
X189550000Y-131900000D03*
D52*
X183300000Y-125050000D03*
X183300000Y-123950000D03*
X175600000Y-125050000D03*
X175600000Y-123950000D03*
D51*
X169350000Y-130100000D03*
X168250000Y-130100000D03*
X169350000Y-136000000D03*
X168250000Y-136000000D03*
X169350000Y-139500000D03*
X168250000Y-139500000D03*
D52*
X176700000Y-144050000D03*
X176700000Y-145150000D03*
X180300000Y-144050000D03*
X180300000Y-145150000D03*
D51*
X188450000Y-138900000D03*
X189550000Y-138900000D03*
X188450000Y-133600000D03*
X189550000Y-133600000D03*
X188450000Y-129800000D03*
X189550000Y-129800000D03*
D52*
X181900000Y-125050000D03*
X181900000Y-123950000D03*
X180300000Y-125050000D03*
X180300000Y-123950000D03*
X173500000Y-125050000D03*
X173500000Y-123950000D03*
D49*
X165100000Y-128200000D03*
D50*
X165100000Y-129800000D03*
X165100000Y-129000000D03*
D49*
X165100000Y-130600000D03*
D50*
X166900000Y-129000000D03*
D49*
X166900000Y-128200000D03*
D50*
X166900000Y-129800000D03*
D49*
X166900000Y-130600000D03*
D53*
X188050000Y-146000000D03*
X189000000Y-146000000D03*
X189950000Y-146000000D03*
X189950000Y-143800000D03*
X188050000Y-143800000D03*
D54*
X184520000Y-73900000D03*
X189080000Y-73900000D03*
D55*
X188325000Y-65925000D03*
X185275000Y-69275000D03*
X185275000Y-65925000D03*
X188325000Y-69275000D03*
D56*
X197600000Y-99300000D03*
X194200000Y-99300000D03*
M02*
