G04 #@! TF.GenerationSoftware,KiCad,Pcbnew,(5.1.0-0)*
G04 #@! TF.CreationDate,2019-06-11T18:16:09+02:00*
G04 #@! TF.ProjectId,AddOnB,4164644f-6e42-42e6-9b69-6361645f7063,rev?*
G04 #@! TF.SameCoordinates,Original*
G04 #@! TF.FileFunction,Copper,L1,Top*
G04 #@! TF.FilePolarity,Positive*
%FSLAX46Y46*%
G04 Gerber Fmt 4.6, Leading zero omitted, Abs format (unit mm)*
G04 Created by KiCad (PCBNEW (5.1.0-0)) date 2019-06-11 18:16:09*
%MOMM*%
%LPD*%
G04 APERTURE LIST*
%ADD10C,2.000000*%
%ADD11C,1.600000*%
%ADD12O,1.727200X1.727200*%
%ADD13R,1.727200X1.727200*%
%ADD14C,0.600000*%
%ADD15C,0.180000*%
G04 APERTURE END LIST*
D10*
X62290000Y77300000D03*
X69910000Y76665000D03*
D11*
X66100000Y72850000D03*
D10*
X69910000Y81110000D03*
X62290000Y86190000D03*
D12*
X53720000Y57660000D03*
X53720000Y60200000D03*
X56260000Y57660000D03*
X56260000Y60200000D03*
X58800000Y57660000D03*
X58800000Y60200000D03*
X61340000Y57660000D03*
X61340000Y60200000D03*
X63880000Y57660000D03*
X63880000Y60200000D03*
X66420000Y57660000D03*
X66420000Y60200000D03*
X68960000Y57660000D03*
X68960000Y60200000D03*
X71500000Y57660000D03*
X71500000Y60200000D03*
X74040000Y57660000D03*
X74040000Y60200000D03*
X76580000Y57660000D03*
X76580000Y60200000D03*
X79120000Y57660000D03*
X79120000Y60200000D03*
X81660000Y57660000D03*
X81660000Y60200000D03*
X84200000Y57660000D03*
D13*
X84200000Y60200000D03*
D10*
X16190000Y77300000D03*
X23810000Y76665000D03*
D11*
X20000000Y72850000D03*
D10*
X23810000Y81110000D03*
X16190000Y86190000D03*
X39290000Y86190000D03*
X46910000Y81110000D03*
D11*
X43100000Y72850000D03*
D10*
X46910000Y76665000D03*
X39290000Y77300000D03*
X85190000Y86190000D03*
X92810000Y81110000D03*
D11*
X89000000Y72850000D03*
D10*
X92810000Y76665000D03*
X85190000Y77300000D03*
X108190000Y77300000D03*
X115810000Y76665000D03*
D11*
X112000000Y72850000D03*
D10*
X115810000Y81110000D03*
X108190000Y86190000D03*
X131190000Y86190000D03*
X138810000Y81110000D03*
D11*
X135000000Y72850000D03*
D10*
X138810000Y76665000D03*
X131190000Y77300000D03*
X154190000Y77300000D03*
X161810000Y76665000D03*
D11*
X158000000Y72850000D03*
D10*
X161810000Y81110000D03*
X154190000Y86190000D03*
X177190000Y86190000D03*
X184810000Y81110000D03*
D11*
X181000000Y72850000D03*
D10*
X184810000Y76665000D03*
X177190000Y77300000D03*
D14*
X185000000Y71800000D03*
X183000000Y71800000D03*
X179000000Y71800000D03*
X177000000Y71800000D03*
X154000000Y71800000D03*
X156000000Y71800000D03*
X160000000Y71800000D03*
X162000000Y71800000D03*
X131000000Y71800000D03*
X133000000Y71800000D03*
X137000000Y71800000D03*
X139000000Y71800000D03*
X108000000Y71800000D03*
X110000000Y71800000D03*
X114000000Y71800000D03*
X116000000Y71800000D03*
X60000000Y71800000D03*
X70000000Y71800000D03*
X72000000Y71800000D03*
X91000000Y71800000D03*
X93000000Y71800000D03*
X86900000Y71800000D03*
X84900000Y71800000D03*
X53000000Y71800000D03*
X55000000Y71800000D03*
X22000000Y71800000D03*
X24000000Y71800000D03*
X28000000Y71800000D03*
X30000000Y71800000D03*
X62000000Y71800000D03*
X45000000Y71900000D03*
D15*
G36*
X194635001Y54365000D02*
G01*
X6365000Y54365000D01*
X6365000Y57660000D01*
X52560819Y57660000D01*
X52583092Y57433855D01*
X52649056Y57216401D01*
X52756176Y57015994D01*
X52900335Y56840335D01*
X53075994Y56696176D01*
X53276401Y56589056D01*
X53493855Y56523092D01*
X53663334Y56506400D01*
X53776666Y56506400D01*
X53946145Y56523092D01*
X54163599Y56589056D01*
X54364006Y56696176D01*
X54539665Y56840335D01*
X54683824Y57015994D01*
X54790944Y57216401D01*
X54856908Y57433855D01*
X54879181Y57660000D01*
X55100819Y57660000D01*
X55123092Y57433855D01*
X55189056Y57216401D01*
X55296176Y57015994D01*
X55440335Y56840335D01*
X55615994Y56696176D01*
X55816401Y56589056D01*
X56033855Y56523092D01*
X56203334Y56506400D01*
X56316666Y56506400D01*
X56486145Y56523092D01*
X56703599Y56589056D01*
X56904006Y56696176D01*
X57079665Y56840335D01*
X57223824Y57015994D01*
X57330944Y57216401D01*
X57396908Y57433855D01*
X57419181Y57660000D01*
X57640819Y57660000D01*
X57663092Y57433855D01*
X57729056Y57216401D01*
X57836176Y57015994D01*
X57980335Y56840335D01*
X58155994Y56696176D01*
X58356401Y56589056D01*
X58573855Y56523092D01*
X58743334Y56506400D01*
X58856666Y56506400D01*
X59026145Y56523092D01*
X59243599Y56589056D01*
X59444006Y56696176D01*
X59619665Y56840335D01*
X59763824Y57015994D01*
X59870944Y57216401D01*
X59936908Y57433855D01*
X59959181Y57660000D01*
X60180819Y57660000D01*
X60203092Y57433855D01*
X60269056Y57216401D01*
X60376176Y57015994D01*
X60520335Y56840335D01*
X60695994Y56696176D01*
X60896401Y56589056D01*
X61113855Y56523092D01*
X61283334Y56506400D01*
X61396666Y56506400D01*
X61566145Y56523092D01*
X61783599Y56589056D01*
X61984006Y56696176D01*
X62159665Y56840335D01*
X62303824Y57015994D01*
X62410944Y57216401D01*
X62476908Y57433855D01*
X62499181Y57660000D01*
X62720819Y57660000D01*
X62743092Y57433855D01*
X62809056Y57216401D01*
X62916176Y57015994D01*
X63060335Y56840335D01*
X63235994Y56696176D01*
X63436401Y56589056D01*
X63653855Y56523092D01*
X63823334Y56506400D01*
X63936666Y56506400D01*
X64106145Y56523092D01*
X64323599Y56589056D01*
X64524006Y56696176D01*
X64699665Y56840335D01*
X64843824Y57015994D01*
X64950944Y57216401D01*
X65016908Y57433855D01*
X65039181Y57660000D01*
X65260819Y57660000D01*
X65283092Y57433855D01*
X65349056Y57216401D01*
X65456176Y57015994D01*
X65600335Y56840335D01*
X65775994Y56696176D01*
X65976401Y56589056D01*
X66193855Y56523092D01*
X66363334Y56506400D01*
X66476666Y56506400D01*
X66646145Y56523092D01*
X66863599Y56589056D01*
X67064006Y56696176D01*
X67239665Y56840335D01*
X67383824Y57015994D01*
X67490944Y57216401D01*
X67556908Y57433855D01*
X67579181Y57660000D01*
X67800819Y57660000D01*
X67823092Y57433855D01*
X67889056Y57216401D01*
X67996176Y57015994D01*
X68140335Y56840335D01*
X68315994Y56696176D01*
X68516401Y56589056D01*
X68733855Y56523092D01*
X68903334Y56506400D01*
X69016666Y56506400D01*
X69186145Y56523092D01*
X69403599Y56589056D01*
X69604006Y56696176D01*
X69779665Y56840335D01*
X69923824Y57015994D01*
X70030944Y57216401D01*
X70096908Y57433855D01*
X70119181Y57660000D01*
X70340819Y57660000D01*
X70363092Y57433855D01*
X70429056Y57216401D01*
X70536176Y57015994D01*
X70680335Y56840335D01*
X70855994Y56696176D01*
X71056401Y56589056D01*
X71273855Y56523092D01*
X71443334Y56506400D01*
X71556666Y56506400D01*
X71726145Y56523092D01*
X71943599Y56589056D01*
X72144006Y56696176D01*
X72319665Y56840335D01*
X72463824Y57015994D01*
X72570944Y57216401D01*
X72636908Y57433855D01*
X72659181Y57660000D01*
X72880819Y57660000D01*
X72903092Y57433855D01*
X72969056Y57216401D01*
X73076176Y57015994D01*
X73220335Y56840335D01*
X73395994Y56696176D01*
X73596401Y56589056D01*
X73813855Y56523092D01*
X73983334Y56506400D01*
X74096666Y56506400D01*
X74266145Y56523092D01*
X74483599Y56589056D01*
X74684006Y56696176D01*
X74859665Y56840335D01*
X75003824Y57015994D01*
X75110944Y57216401D01*
X75176908Y57433855D01*
X75199181Y57660000D01*
X75420819Y57660000D01*
X75443092Y57433855D01*
X75509056Y57216401D01*
X75616176Y57015994D01*
X75760335Y56840335D01*
X75935994Y56696176D01*
X76136401Y56589056D01*
X76353855Y56523092D01*
X76523334Y56506400D01*
X76636666Y56506400D01*
X76806145Y56523092D01*
X77023599Y56589056D01*
X77224006Y56696176D01*
X77399665Y56840335D01*
X77543824Y57015994D01*
X77650944Y57216401D01*
X77716908Y57433855D01*
X77739181Y57660000D01*
X77960819Y57660000D01*
X77983092Y57433855D01*
X78049056Y57216401D01*
X78156176Y57015994D01*
X78300335Y56840335D01*
X78475994Y56696176D01*
X78676401Y56589056D01*
X78893855Y56523092D01*
X79063334Y56506400D01*
X79176666Y56506400D01*
X79346145Y56523092D01*
X79563599Y56589056D01*
X79764006Y56696176D01*
X79939665Y56840335D01*
X80083824Y57015994D01*
X80190944Y57216401D01*
X80256908Y57433855D01*
X80279181Y57660000D01*
X80500819Y57660000D01*
X80523092Y57433855D01*
X80589056Y57216401D01*
X80696176Y57015994D01*
X80840335Y56840335D01*
X81015994Y56696176D01*
X81216401Y56589056D01*
X81433855Y56523092D01*
X81603334Y56506400D01*
X81716666Y56506400D01*
X81886145Y56523092D01*
X82103599Y56589056D01*
X82304006Y56696176D01*
X82479665Y56840335D01*
X82623824Y57015994D01*
X82730944Y57216401D01*
X82796908Y57433855D01*
X82819181Y57660000D01*
X83040819Y57660000D01*
X83063092Y57433855D01*
X83129056Y57216401D01*
X83236176Y57015994D01*
X83380335Y56840335D01*
X83555994Y56696176D01*
X83756401Y56589056D01*
X83973855Y56523092D01*
X84143334Y56506400D01*
X84256666Y56506400D01*
X84426145Y56523092D01*
X84643599Y56589056D01*
X84844006Y56696176D01*
X85019665Y56840335D01*
X85163824Y57015994D01*
X85270944Y57216401D01*
X85336908Y57433855D01*
X85359181Y57660000D01*
X85336908Y57886145D01*
X85270944Y58103599D01*
X85163824Y58304006D01*
X85019665Y58479665D01*
X84844006Y58623824D01*
X84643599Y58730944D01*
X84426145Y58796908D01*
X84256666Y58813600D01*
X84143334Y58813600D01*
X83973855Y58796908D01*
X83756401Y58730944D01*
X83555994Y58623824D01*
X83380335Y58479665D01*
X83236176Y58304006D01*
X83129056Y58103599D01*
X83063092Y57886145D01*
X83040819Y57660000D01*
X82819181Y57660000D01*
X82796908Y57886145D01*
X82730944Y58103599D01*
X82623824Y58304006D01*
X82479665Y58479665D01*
X82304006Y58623824D01*
X82103599Y58730944D01*
X81886145Y58796908D01*
X81716666Y58813600D01*
X81603334Y58813600D01*
X81433855Y58796908D01*
X81216401Y58730944D01*
X81015994Y58623824D01*
X80840335Y58479665D01*
X80696176Y58304006D01*
X80589056Y58103599D01*
X80523092Y57886145D01*
X80500819Y57660000D01*
X80279181Y57660000D01*
X80256908Y57886145D01*
X80190944Y58103599D01*
X80083824Y58304006D01*
X79939665Y58479665D01*
X79764006Y58623824D01*
X79563599Y58730944D01*
X79346145Y58796908D01*
X79176666Y58813600D01*
X79063334Y58813600D01*
X78893855Y58796908D01*
X78676401Y58730944D01*
X78475994Y58623824D01*
X78300335Y58479665D01*
X78156176Y58304006D01*
X78049056Y58103599D01*
X77983092Y57886145D01*
X77960819Y57660000D01*
X77739181Y57660000D01*
X77716908Y57886145D01*
X77650944Y58103599D01*
X77543824Y58304006D01*
X77399665Y58479665D01*
X77224006Y58623824D01*
X77023599Y58730944D01*
X76806145Y58796908D01*
X76636666Y58813600D01*
X76523334Y58813600D01*
X76353855Y58796908D01*
X76136401Y58730944D01*
X75935994Y58623824D01*
X75760335Y58479665D01*
X75616176Y58304006D01*
X75509056Y58103599D01*
X75443092Y57886145D01*
X75420819Y57660000D01*
X75199181Y57660000D01*
X75176908Y57886145D01*
X75110944Y58103599D01*
X75003824Y58304006D01*
X74859665Y58479665D01*
X74684006Y58623824D01*
X74483599Y58730944D01*
X74266145Y58796908D01*
X74096666Y58813600D01*
X73983334Y58813600D01*
X73813855Y58796908D01*
X73596401Y58730944D01*
X73395994Y58623824D01*
X73220335Y58479665D01*
X73076176Y58304006D01*
X72969056Y58103599D01*
X72903092Y57886145D01*
X72880819Y57660000D01*
X72659181Y57660000D01*
X72636908Y57886145D01*
X72570944Y58103599D01*
X72463824Y58304006D01*
X72319665Y58479665D01*
X72144006Y58623824D01*
X71943599Y58730944D01*
X71726145Y58796908D01*
X71556666Y58813600D01*
X71443334Y58813600D01*
X71273855Y58796908D01*
X71056401Y58730944D01*
X70855994Y58623824D01*
X70680335Y58479665D01*
X70536176Y58304006D01*
X70429056Y58103599D01*
X70363092Y57886145D01*
X70340819Y57660000D01*
X70119181Y57660000D01*
X70096908Y57886145D01*
X70030944Y58103599D01*
X69923824Y58304006D01*
X69779665Y58479665D01*
X69604006Y58623824D01*
X69403599Y58730944D01*
X69186145Y58796908D01*
X69016666Y58813600D01*
X68903334Y58813600D01*
X68733855Y58796908D01*
X68516401Y58730944D01*
X68315994Y58623824D01*
X68140335Y58479665D01*
X67996176Y58304006D01*
X67889056Y58103599D01*
X67823092Y57886145D01*
X67800819Y57660000D01*
X67579181Y57660000D01*
X67556908Y57886145D01*
X67490944Y58103599D01*
X67383824Y58304006D01*
X67239665Y58479665D01*
X67064006Y58623824D01*
X66863599Y58730944D01*
X66646145Y58796908D01*
X66476666Y58813600D01*
X66363334Y58813600D01*
X66193855Y58796908D01*
X65976401Y58730944D01*
X65775994Y58623824D01*
X65600335Y58479665D01*
X65456176Y58304006D01*
X65349056Y58103599D01*
X65283092Y57886145D01*
X65260819Y57660000D01*
X65039181Y57660000D01*
X65016908Y57886145D01*
X64950944Y58103599D01*
X64843824Y58304006D01*
X64699665Y58479665D01*
X64524006Y58623824D01*
X64323599Y58730944D01*
X64106145Y58796908D01*
X63936666Y58813600D01*
X63823334Y58813600D01*
X63653855Y58796908D01*
X63436401Y58730944D01*
X63235994Y58623824D01*
X63060335Y58479665D01*
X62916176Y58304006D01*
X62809056Y58103599D01*
X62743092Y57886145D01*
X62720819Y57660000D01*
X62499181Y57660000D01*
X62476908Y57886145D01*
X62410944Y58103599D01*
X62303824Y58304006D01*
X62159665Y58479665D01*
X61984006Y58623824D01*
X61783599Y58730944D01*
X61566145Y58796908D01*
X61396666Y58813600D01*
X61283334Y58813600D01*
X61113855Y58796908D01*
X60896401Y58730944D01*
X60695994Y58623824D01*
X60520335Y58479665D01*
X60376176Y58304006D01*
X60269056Y58103599D01*
X60203092Y57886145D01*
X60180819Y57660000D01*
X59959181Y57660000D01*
X59936908Y57886145D01*
X59870944Y58103599D01*
X59763824Y58304006D01*
X59619665Y58479665D01*
X59444006Y58623824D01*
X59243599Y58730944D01*
X59026145Y58796908D01*
X58856666Y58813600D01*
X58743334Y58813600D01*
X58573855Y58796908D01*
X58356401Y58730944D01*
X58155994Y58623824D01*
X57980335Y58479665D01*
X57836176Y58304006D01*
X57729056Y58103599D01*
X57663092Y57886145D01*
X57640819Y57660000D01*
X57419181Y57660000D01*
X57396908Y57886145D01*
X57330944Y58103599D01*
X57223824Y58304006D01*
X57079665Y58479665D01*
X56904006Y58623824D01*
X56703599Y58730944D01*
X56486145Y58796908D01*
X56316666Y58813600D01*
X56203334Y58813600D01*
X56033855Y58796908D01*
X55816401Y58730944D01*
X55615994Y58623824D01*
X55440335Y58479665D01*
X55296176Y58304006D01*
X55189056Y58103599D01*
X55123092Y57886145D01*
X55100819Y57660000D01*
X54879181Y57660000D01*
X54856908Y57886145D01*
X54790944Y58103599D01*
X54683824Y58304006D01*
X54539665Y58479665D01*
X54364006Y58623824D01*
X54163599Y58730944D01*
X53946145Y58796908D01*
X53776666Y58813600D01*
X53663334Y58813600D01*
X53493855Y58796908D01*
X53276401Y58730944D01*
X53075994Y58623824D01*
X52900335Y58479665D01*
X52756176Y58304006D01*
X52649056Y58103599D01*
X52583092Y57886145D01*
X52560819Y57660000D01*
X6365000Y57660000D01*
X6365000Y60200000D01*
X52560819Y60200000D01*
X52583092Y59973855D01*
X52649056Y59756401D01*
X52756176Y59555994D01*
X52900335Y59380335D01*
X53075994Y59236176D01*
X53276401Y59129056D01*
X53493855Y59063092D01*
X53663334Y59046400D01*
X53776666Y59046400D01*
X53946145Y59063092D01*
X54163599Y59129056D01*
X54364006Y59236176D01*
X54539665Y59380335D01*
X54683824Y59555994D01*
X54790944Y59756401D01*
X54856908Y59973855D01*
X54879181Y60200000D01*
X55100819Y60200000D01*
X55123092Y59973855D01*
X55189056Y59756401D01*
X55296176Y59555994D01*
X55440335Y59380335D01*
X55615994Y59236176D01*
X55816401Y59129056D01*
X56033855Y59063092D01*
X56203334Y59046400D01*
X56316666Y59046400D01*
X56486145Y59063092D01*
X56703599Y59129056D01*
X56904006Y59236176D01*
X57079665Y59380335D01*
X57223824Y59555994D01*
X57330944Y59756401D01*
X57396908Y59973855D01*
X57419181Y60200000D01*
X57640819Y60200000D01*
X57663092Y59973855D01*
X57729056Y59756401D01*
X57836176Y59555994D01*
X57980335Y59380335D01*
X58155994Y59236176D01*
X58356401Y59129056D01*
X58573855Y59063092D01*
X58743334Y59046400D01*
X58856666Y59046400D01*
X59026145Y59063092D01*
X59243599Y59129056D01*
X59444006Y59236176D01*
X59619665Y59380335D01*
X59763824Y59555994D01*
X59870944Y59756401D01*
X59936908Y59973855D01*
X59959181Y60200000D01*
X60180819Y60200000D01*
X60203092Y59973855D01*
X60269056Y59756401D01*
X60376176Y59555994D01*
X60520335Y59380335D01*
X60695994Y59236176D01*
X60896401Y59129056D01*
X61113855Y59063092D01*
X61283334Y59046400D01*
X61396666Y59046400D01*
X61566145Y59063092D01*
X61783599Y59129056D01*
X61984006Y59236176D01*
X62159665Y59380335D01*
X62303824Y59555994D01*
X62410944Y59756401D01*
X62476908Y59973855D01*
X62499181Y60200000D01*
X62720819Y60200000D01*
X62743092Y59973855D01*
X62809056Y59756401D01*
X62916176Y59555994D01*
X63060335Y59380335D01*
X63235994Y59236176D01*
X63436401Y59129056D01*
X63653855Y59063092D01*
X63823334Y59046400D01*
X63936666Y59046400D01*
X64106145Y59063092D01*
X64323599Y59129056D01*
X64524006Y59236176D01*
X64699665Y59380335D01*
X64843824Y59555994D01*
X64950944Y59756401D01*
X65016908Y59973855D01*
X65039181Y60200000D01*
X65260819Y60200000D01*
X65283092Y59973855D01*
X65349056Y59756401D01*
X65456176Y59555994D01*
X65600335Y59380335D01*
X65775994Y59236176D01*
X65976401Y59129056D01*
X66193855Y59063092D01*
X66363334Y59046400D01*
X66476666Y59046400D01*
X66646145Y59063092D01*
X66863599Y59129056D01*
X67064006Y59236176D01*
X67239665Y59380335D01*
X67383824Y59555994D01*
X67490944Y59756401D01*
X67556908Y59973855D01*
X67579181Y60200000D01*
X67800819Y60200000D01*
X67823092Y59973855D01*
X67889056Y59756401D01*
X67996176Y59555994D01*
X68140335Y59380335D01*
X68315994Y59236176D01*
X68516401Y59129056D01*
X68733855Y59063092D01*
X68903334Y59046400D01*
X69016666Y59046400D01*
X69186145Y59063092D01*
X69403599Y59129056D01*
X69604006Y59236176D01*
X69779665Y59380335D01*
X69923824Y59555994D01*
X70030944Y59756401D01*
X70096908Y59973855D01*
X70119181Y60200000D01*
X70340819Y60200000D01*
X70363092Y59973855D01*
X70429056Y59756401D01*
X70536176Y59555994D01*
X70680335Y59380335D01*
X70855994Y59236176D01*
X71056401Y59129056D01*
X71273855Y59063092D01*
X71443334Y59046400D01*
X71556666Y59046400D01*
X71726145Y59063092D01*
X71943599Y59129056D01*
X72144006Y59236176D01*
X72319665Y59380335D01*
X72463824Y59555994D01*
X72570944Y59756401D01*
X72636908Y59973855D01*
X72659181Y60200000D01*
X72880819Y60200000D01*
X72903092Y59973855D01*
X72969056Y59756401D01*
X73076176Y59555994D01*
X73220335Y59380335D01*
X73395994Y59236176D01*
X73596401Y59129056D01*
X73813855Y59063092D01*
X73983334Y59046400D01*
X74096666Y59046400D01*
X74266145Y59063092D01*
X74483599Y59129056D01*
X74684006Y59236176D01*
X74859665Y59380335D01*
X75003824Y59555994D01*
X75110944Y59756401D01*
X75176908Y59973855D01*
X75199181Y60200000D01*
X75420819Y60200000D01*
X75443092Y59973855D01*
X75509056Y59756401D01*
X75616176Y59555994D01*
X75760335Y59380335D01*
X75935994Y59236176D01*
X76136401Y59129056D01*
X76353855Y59063092D01*
X76523334Y59046400D01*
X76636666Y59046400D01*
X76806145Y59063092D01*
X77023599Y59129056D01*
X77224006Y59236176D01*
X77399665Y59380335D01*
X77543824Y59555994D01*
X77650944Y59756401D01*
X77716908Y59973855D01*
X77739181Y60200000D01*
X77960819Y60200000D01*
X77983092Y59973855D01*
X78049056Y59756401D01*
X78156176Y59555994D01*
X78300335Y59380335D01*
X78475994Y59236176D01*
X78676401Y59129056D01*
X78893855Y59063092D01*
X79063334Y59046400D01*
X79176666Y59046400D01*
X79346145Y59063092D01*
X79563599Y59129056D01*
X79764006Y59236176D01*
X79939665Y59380335D01*
X80083824Y59555994D01*
X80190944Y59756401D01*
X80256908Y59973855D01*
X80279181Y60200000D01*
X80500819Y60200000D01*
X80523092Y59973855D01*
X80589056Y59756401D01*
X80696176Y59555994D01*
X80840335Y59380335D01*
X81015994Y59236176D01*
X81216401Y59129056D01*
X81433855Y59063092D01*
X81603334Y59046400D01*
X81716666Y59046400D01*
X81886145Y59063092D01*
X82103599Y59129056D01*
X82304006Y59236176D01*
X82479665Y59380335D01*
X82623824Y59555994D01*
X82730944Y59756401D01*
X82796908Y59973855D01*
X82819181Y60200000D01*
X82796908Y60426145D01*
X82730944Y60643599D01*
X82623824Y60844006D01*
X82479665Y61019665D01*
X82426130Y61063600D01*
X83044997Y61063600D01*
X83044997Y59336400D01*
X83050596Y59279550D01*
X83067179Y59224885D01*
X83094107Y59174505D01*
X83130347Y59130347D01*
X83174505Y59094107D01*
X83224885Y59067179D01*
X83279550Y59050596D01*
X83336400Y59044997D01*
X85063600Y59044997D01*
X85120450Y59050596D01*
X85175115Y59067179D01*
X85225495Y59094107D01*
X85269653Y59130347D01*
X85305893Y59174505D01*
X85332821Y59224885D01*
X85349404Y59279550D01*
X85355003Y59336400D01*
X85355003Y61063600D01*
X85349404Y61120450D01*
X85332821Y61175115D01*
X85305893Y61225495D01*
X85269653Y61269653D01*
X85225495Y61305893D01*
X85175115Y61332821D01*
X85120450Y61349404D01*
X85063600Y61355003D01*
X83336400Y61355003D01*
X83279550Y61349404D01*
X83224885Y61332821D01*
X83174505Y61305893D01*
X83130347Y61269653D01*
X83094107Y61225495D01*
X83067179Y61175115D01*
X83050596Y61120450D01*
X83044997Y61063600D01*
X82426130Y61063600D01*
X82304006Y61163824D01*
X82103599Y61270944D01*
X81886145Y61336908D01*
X81716666Y61353600D01*
X81603334Y61353600D01*
X81433855Y61336908D01*
X81216401Y61270944D01*
X81015994Y61163824D01*
X80840335Y61019665D01*
X80696176Y60844006D01*
X80589056Y60643599D01*
X80523092Y60426145D01*
X80500819Y60200000D01*
X80279181Y60200000D01*
X80256908Y60426145D01*
X80190944Y60643599D01*
X80083824Y60844006D01*
X79939665Y61019665D01*
X79764006Y61163824D01*
X79563599Y61270944D01*
X79346145Y61336908D01*
X79176666Y61353600D01*
X79063334Y61353600D01*
X78893855Y61336908D01*
X78676401Y61270944D01*
X78475994Y61163824D01*
X78300335Y61019665D01*
X78156176Y60844006D01*
X78049056Y60643599D01*
X77983092Y60426145D01*
X77960819Y60200000D01*
X77739181Y60200000D01*
X77716908Y60426145D01*
X77650944Y60643599D01*
X77543824Y60844006D01*
X77399665Y61019665D01*
X77224006Y61163824D01*
X77023599Y61270944D01*
X76806145Y61336908D01*
X76636666Y61353600D01*
X76523334Y61353600D01*
X76353855Y61336908D01*
X76136401Y61270944D01*
X75935994Y61163824D01*
X75760335Y61019665D01*
X75616176Y60844006D01*
X75509056Y60643599D01*
X75443092Y60426145D01*
X75420819Y60200000D01*
X75199181Y60200000D01*
X75176908Y60426145D01*
X75110944Y60643599D01*
X75003824Y60844006D01*
X74859665Y61019665D01*
X74684006Y61163824D01*
X74483599Y61270944D01*
X74266145Y61336908D01*
X74096666Y61353600D01*
X73983334Y61353600D01*
X73813855Y61336908D01*
X73596401Y61270944D01*
X73395994Y61163824D01*
X73220335Y61019665D01*
X73076176Y60844006D01*
X72969056Y60643599D01*
X72903092Y60426145D01*
X72880819Y60200000D01*
X72659181Y60200000D01*
X72636908Y60426145D01*
X72570944Y60643599D01*
X72463824Y60844006D01*
X72319665Y61019665D01*
X72144006Y61163824D01*
X71943599Y61270944D01*
X71726145Y61336908D01*
X71556666Y61353600D01*
X71443334Y61353600D01*
X71273855Y61336908D01*
X71056401Y61270944D01*
X70855994Y61163824D01*
X70680335Y61019665D01*
X70536176Y60844006D01*
X70429056Y60643599D01*
X70363092Y60426145D01*
X70340819Y60200000D01*
X70119181Y60200000D01*
X70096908Y60426145D01*
X70030944Y60643599D01*
X69923824Y60844006D01*
X69779665Y61019665D01*
X69604006Y61163824D01*
X69403599Y61270944D01*
X69186145Y61336908D01*
X69016666Y61353600D01*
X68903334Y61353600D01*
X68733855Y61336908D01*
X68516401Y61270944D01*
X68315994Y61163824D01*
X68140335Y61019665D01*
X67996176Y60844006D01*
X67889056Y60643599D01*
X67823092Y60426145D01*
X67800819Y60200000D01*
X67579181Y60200000D01*
X67556908Y60426145D01*
X67490944Y60643599D01*
X67383824Y60844006D01*
X67239665Y61019665D01*
X67064006Y61163824D01*
X66863599Y61270944D01*
X66646145Y61336908D01*
X66476666Y61353600D01*
X66363334Y61353600D01*
X66193855Y61336908D01*
X65976401Y61270944D01*
X65775994Y61163824D01*
X65600335Y61019665D01*
X65456176Y60844006D01*
X65349056Y60643599D01*
X65283092Y60426145D01*
X65260819Y60200000D01*
X65039181Y60200000D01*
X65016908Y60426145D01*
X64950944Y60643599D01*
X64843824Y60844006D01*
X64699665Y61019665D01*
X64524006Y61163824D01*
X64323599Y61270944D01*
X64106145Y61336908D01*
X63936666Y61353600D01*
X63823334Y61353600D01*
X63653855Y61336908D01*
X63436401Y61270944D01*
X63235994Y61163824D01*
X63060335Y61019665D01*
X62916176Y60844006D01*
X62809056Y60643599D01*
X62743092Y60426145D01*
X62720819Y60200000D01*
X62499181Y60200000D01*
X62476908Y60426145D01*
X62410944Y60643599D01*
X62303824Y60844006D01*
X62159665Y61019665D01*
X61984006Y61163824D01*
X61783599Y61270944D01*
X61566145Y61336908D01*
X61396666Y61353600D01*
X61283334Y61353600D01*
X61113855Y61336908D01*
X60896401Y61270944D01*
X60695994Y61163824D01*
X60520335Y61019665D01*
X60376176Y60844006D01*
X60269056Y60643599D01*
X60203092Y60426145D01*
X60180819Y60200000D01*
X59959181Y60200000D01*
X59936908Y60426145D01*
X59870944Y60643599D01*
X59763824Y60844006D01*
X59619665Y61019665D01*
X59444006Y61163824D01*
X59243599Y61270944D01*
X59026145Y61336908D01*
X58856666Y61353600D01*
X58743334Y61353600D01*
X58573855Y61336908D01*
X58356401Y61270944D01*
X58155994Y61163824D01*
X57980335Y61019665D01*
X57836176Y60844006D01*
X57729056Y60643599D01*
X57663092Y60426145D01*
X57640819Y60200000D01*
X57419181Y60200000D01*
X57396908Y60426145D01*
X57330944Y60643599D01*
X57223824Y60844006D01*
X57079665Y61019665D01*
X56904006Y61163824D01*
X56703599Y61270944D01*
X56486145Y61336908D01*
X56316666Y61353600D01*
X56203334Y61353600D01*
X56033855Y61336908D01*
X55816401Y61270944D01*
X55615994Y61163824D01*
X55440335Y61019665D01*
X55296176Y60844006D01*
X55189056Y60643599D01*
X55123092Y60426145D01*
X55100819Y60200000D01*
X54879181Y60200000D01*
X54856908Y60426145D01*
X54790944Y60643599D01*
X54683824Y60844006D01*
X54539665Y61019665D01*
X54364006Y61163824D01*
X54163599Y61270944D01*
X53946145Y61336908D01*
X53776666Y61353600D01*
X53663334Y61353600D01*
X53493855Y61336908D01*
X53276401Y61270944D01*
X53075994Y61163824D01*
X52900335Y61019665D01*
X52756176Y60844006D01*
X52649056Y60643599D01*
X52583092Y60426145D01*
X52560819Y60200000D01*
X6365000Y60200000D01*
X6365000Y72957356D01*
X18910000Y72957356D01*
X18910000Y72742644D01*
X18951888Y72532059D01*
X19034055Y72333691D01*
X19153342Y72155166D01*
X19305166Y72003342D01*
X19483691Y71884055D01*
X19682059Y71801888D01*
X19892644Y71760000D01*
X20107356Y71760000D01*
X20317941Y71801888D01*
X20453672Y71858110D01*
X21410000Y71858110D01*
X21410000Y71741890D01*
X21432673Y71627903D01*
X21477149Y71520530D01*
X21541717Y71423897D01*
X21623897Y71341717D01*
X21720530Y71277149D01*
X21827903Y71232673D01*
X21941890Y71210000D01*
X22058110Y71210000D01*
X22172097Y71232673D01*
X22279470Y71277149D01*
X22376103Y71341717D01*
X22458283Y71423897D01*
X22522851Y71520530D01*
X22567327Y71627903D01*
X22590000Y71741890D01*
X22590000Y71858110D01*
X23410000Y71858110D01*
X23410000Y71741890D01*
X23432673Y71627903D01*
X23477149Y71520530D01*
X23541717Y71423897D01*
X23623897Y71341717D01*
X23720530Y71277149D01*
X23827903Y71232673D01*
X23941890Y71210000D01*
X24058110Y71210000D01*
X24172097Y71232673D01*
X24279470Y71277149D01*
X24376103Y71341717D01*
X24458283Y71423897D01*
X24522851Y71520530D01*
X24567327Y71627903D01*
X24590000Y71741890D01*
X24590000Y71858110D01*
X27410000Y71858110D01*
X27410000Y71741890D01*
X27432673Y71627903D01*
X27477149Y71520530D01*
X27541717Y71423897D01*
X27623897Y71341717D01*
X27720530Y71277149D01*
X27827903Y71232673D01*
X27941890Y71210000D01*
X28058110Y71210000D01*
X28172097Y71232673D01*
X28279470Y71277149D01*
X28376103Y71341717D01*
X28458283Y71423897D01*
X28522851Y71520530D01*
X28567327Y71627903D01*
X28590000Y71741890D01*
X28590000Y71858110D01*
X29410000Y71858110D01*
X29410000Y71741890D01*
X29432673Y71627903D01*
X29477149Y71520530D01*
X29541717Y71423897D01*
X29623897Y71341717D01*
X29720530Y71277149D01*
X29827903Y71232673D01*
X29941890Y71210000D01*
X30058110Y71210000D01*
X30172097Y71232673D01*
X30279470Y71277149D01*
X30376103Y71341717D01*
X30458283Y71423897D01*
X30522851Y71520530D01*
X30567327Y71627903D01*
X30590000Y71741890D01*
X30590000Y71858110D01*
X30567327Y71972097D01*
X30522851Y72079470D01*
X30458283Y72176103D01*
X30376103Y72258283D01*
X30279470Y72322851D01*
X30172097Y72367327D01*
X30058110Y72390000D01*
X29941890Y72390000D01*
X29827903Y72367327D01*
X29720530Y72322851D01*
X29623897Y72258283D01*
X29541717Y72176103D01*
X29477149Y72079470D01*
X29432673Y71972097D01*
X29410000Y71858110D01*
X28590000Y71858110D01*
X28567327Y71972097D01*
X28522851Y72079470D01*
X28458283Y72176103D01*
X28376103Y72258283D01*
X28279470Y72322851D01*
X28172097Y72367327D01*
X28058110Y72390000D01*
X27941890Y72390000D01*
X27827903Y72367327D01*
X27720530Y72322851D01*
X27623897Y72258283D01*
X27541717Y72176103D01*
X27477149Y72079470D01*
X27432673Y71972097D01*
X27410000Y71858110D01*
X24590000Y71858110D01*
X24567327Y71972097D01*
X24522851Y72079470D01*
X24458283Y72176103D01*
X24376103Y72258283D01*
X24279470Y72322851D01*
X24172097Y72367327D01*
X24058110Y72390000D01*
X23941890Y72390000D01*
X23827903Y72367327D01*
X23720530Y72322851D01*
X23623897Y72258283D01*
X23541717Y72176103D01*
X23477149Y72079470D01*
X23432673Y71972097D01*
X23410000Y71858110D01*
X22590000Y71858110D01*
X22567327Y71972097D01*
X22522851Y72079470D01*
X22458283Y72176103D01*
X22376103Y72258283D01*
X22279470Y72322851D01*
X22172097Y72367327D01*
X22058110Y72390000D01*
X21941890Y72390000D01*
X21827903Y72367327D01*
X21720530Y72322851D01*
X21623897Y72258283D01*
X21541717Y72176103D01*
X21477149Y72079470D01*
X21432673Y71972097D01*
X21410000Y71858110D01*
X20453672Y71858110D01*
X20516309Y71884055D01*
X20694834Y72003342D01*
X20846658Y72155166D01*
X20965945Y72333691D01*
X21048112Y72532059D01*
X21090000Y72742644D01*
X21090000Y72957356D01*
X42010000Y72957356D01*
X42010000Y72742644D01*
X42051888Y72532059D01*
X42134055Y72333691D01*
X42253342Y72155166D01*
X42405166Y72003342D01*
X42583691Y71884055D01*
X42782059Y71801888D01*
X42992644Y71760000D01*
X43207356Y71760000D01*
X43417941Y71801888D01*
X43616309Y71884055D01*
X43727139Y71958110D01*
X44410000Y71958110D01*
X44410000Y71841890D01*
X44432673Y71727903D01*
X44477149Y71620530D01*
X44541717Y71523897D01*
X44623897Y71441717D01*
X44720530Y71377149D01*
X44827903Y71332673D01*
X44941890Y71310000D01*
X45058110Y71310000D01*
X45172097Y71332673D01*
X45279470Y71377149D01*
X45376103Y71441717D01*
X45458283Y71523897D01*
X45522851Y71620530D01*
X45567327Y71727903D01*
X45590000Y71841890D01*
X45590000Y71858110D01*
X52410000Y71858110D01*
X52410000Y71741890D01*
X52432673Y71627903D01*
X52477149Y71520530D01*
X52541717Y71423897D01*
X52623897Y71341717D01*
X52720530Y71277149D01*
X52827903Y71232673D01*
X52941890Y71210000D01*
X53058110Y71210000D01*
X53172097Y71232673D01*
X53279470Y71277149D01*
X53376103Y71341717D01*
X53458283Y71423897D01*
X53522851Y71520530D01*
X53567327Y71627903D01*
X53590000Y71741890D01*
X53590000Y71858110D01*
X54410000Y71858110D01*
X54410000Y71741890D01*
X54432673Y71627903D01*
X54477149Y71520530D01*
X54541717Y71423897D01*
X54623897Y71341717D01*
X54720530Y71277149D01*
X54827903Y71232673D01*
X54941890Y71210000D01*
X55058110Y71210000D01*
X55172097Y71232673D01*
X55279470Y71277149D01*
X55376103Y71341717D01*
X55458283Y71423897D01*
X55522851Y71520530D01*
X55567327Y71627903D01*
X55590000Y71741890D01*
X55590000Y71858110D01*
X59410000Y71858110D01*
X59410000Y71741890D01*
X59432673Y71627903D01*
X59477149Y71520530D01*
X59541717Y71423897D01*
X59623897Y71341717D01*
X59720530Y71277149D01*
X59827903Y71232673D01*
X59941890Y71210000D01*
X60058110Y71210000D01*
X60172097Y71232673D01*
X60279470Y71277149D01*
X60376103Y71341717D01*
X60458283Y71423897D01*
X60522851Y71520530D01*
X60567327Y71627903D01*
X60590000Y71741890D01*
X60590000Y71858110D01*
X61410000Y71858110D01*
X61410000Y71741890D01*
X61432673Y71627903D01*
X61477149Y71520530D01*
X61541717Y71423897D01*
X61623897Y71341717D01*
X61720530Y71277149D01*
X61827903Y71232673D01*
X61941890Y71210000D01*
X62058110Y71210000D01*
X62172097Y71232673D01*
X62279470Y71277149D01*
X62376103Y71341717D01*
X62458283Y71423897D01*
X62522851Y71520530D01*
X62567327Y71627903D01*
X62590000Y71741890D01*
X62590000Y71858110D01*
X62567327Y71972097D01*
X62522851Y72079470D01*
X62458283Y72176103D01*
X62376103Y72258283D01*
X62279470Y72322851D01*
X62172097Y72367327D01*
X62058110Y72390000D01*
X61941890Y72390000D01*
X61827903Y72367327D01*
X61720530Y72322851D01*
X61623897Y72258283D01*
X61541717Y72176103D01*
X61477149Y72079470D01*
X61432673Y71972097D01*
X61410000Y71858110D01*
X60590000Y71858110D01*
X60567327Y71972097D01*
X60522851Y72079470D01*
X60458283Y72176103D01*
X60376103Y72258283D01*
X60279470Y72322851D01*
X60172097Y72367327D01*
X60058110Y72390000D01*
X59941890Y72390000D01*
X59827903Y72367327D01*
X59720530Y72322851D01*
X59623897Y72258283D01*
X59541717Y72176103D01*
X59477149Y72079470D01*
X59432673Y71972097D01*
X59410000Y71858110D01*
X55590000Y71858110D01*
X55567327Y71972097D01*
X55522851Y72079470D01*
X55458283Y72176103D01*
X55376103Y72258283D01*
X55279470Y72322851D01*
X55172097Y72367327D01*
X55058110Y72390000D01*
X54941890Y72390000D01*
X54827903Y72367327D01*
X54720530Y72322851D01*
X54623897Y72258283D01*
X54541717Y72176103D01*
X54477149Y72079470D01*
X54432673Y71972097D01*
X54410000Y71858110D01*
X53590000Y71858110D01*
X53567327Y71972097D01*
X53522851Y72079470D01*
X53458283Y72176103D01*
X53376103Y72258283D01*
X53279470Y72322851D01*
X53172097Y72367327D01*
X53058110Y72390000D01*
X52941890Y72390000D01*
X52827903Y72367327D01*
X52720530Y72322851D01*
X52623897Y72258283D01*
X52541717Y72176103D01*
X52477149Y72079470D01*
X52432673Y71972097D01*
X52410000Y71858110D01*
X45590000Y71858110D01*
X45590000Y71958110D01*
X45567327Y72072097D01*
X45522851Y72179470D01*
X45458283Y72276103D01*
X45376103Y72358283D01*
X45279470Y72422851D01*
X45172097Y72467327D01*
X45058110Y72490000D01*
X44941890Y72490000D01*
X44827903Y72467327D01*
X44720530Y72422851D01*
X44623897Y72358283D01*
X44541717Y72276103D01*
X44477149Y72179470D01*
X44432673Y72072097D01*
X44410000Y71958110D01*
X43727139Y71958110D01*
X43794834Y72003342D01*
X43946658Y72155166D01*
X44065945Y72333691D01*
X44148112Y72532059D01*
X44190000Y72742644D01*
X44190000Y72957356D01*
X65010000Y72957356D01*
X65010000Y72742644D01*
X65051888Y72532059D01*
X65134055Y72333691D01*
X65253342Y72155166D01*
X65405166Y72003342D01*
X65583691Y71884055D01*
X65782059Y71801888D01*
X65992644Y71760000D01*
X66207356Y71760000D01*
X66417941Y71801888D01*
X66553672Y71858110D01*
X69410000Y71858110D01*
X69410000Y71741890D01*
X69432673Y71627903D01*
X69477149Y71520530D01*
X69541717Y71423897D01*
X69623897Y71341717D01*
X69720530Y71277149D01*
X69827903Y71232673D01*
X69941890Y71210000D01*
X70058110Y71210000D01*
X70172097Y71232673D01*
X70279470Y71277149D01*
X70376103Y71341717D01*
X70458283Y71423897D01*
X70522851Y71520530D01*
X70567327Y71627903D01*
X70590000Y71741890D01*
X70590000Y71858110D01*
X71410000Y71858110D01*
X71410000Y71741890D01*
X71432673Y71627903D01*
X71477149Y71520530D01*
X71541717Y71423897D01*
X71623897Y71341717D01*
X71720530Y71277149D01*
X71827903Y71232673D01*
X71941890Y71210000D01*
X72058110Y71210000D01*
X72172097Y71232673D01*
X72279470Y71277149D01*
X72376103Y71341717D01*
X72458283Y71423897D01*
X72522851Y71520530D01*
X72567327Y71627903D01*
X72590000Y71741890D01*
X72590000Y71858110D01*
X84310000Y71858110D01*
X84310000Y71741890D01*
X84332673Y71627903D01*
X84377149Y71520530D01*
X84441717Y71423897D01*
X84523897Y71341717D01*
X84620530Y71277149D01*
X84727903Y71232673D01*
X84841890Y71210000D01*
X84958110Y71210000D01*
X85072097Y71232673D01*
X85179470Y71277149D01*
X85276103Y71341717D01*
X85358283Y71423897D01*
X85422851Y71520530D01*
X85467327Y71627903D01*
X85490000Y71741890D01*
X85490000Y71858110D01*
X86310000Y71858110D01*
X86310000Y71741890D01*
X86332673Y71627903D01*
X86377149Y71520530D01*
X86441717Y71423897D01*
X86523897Y71341717D01*
X86620530Y71277149D01*
X86727903Y71232673D01*
X86841890Y71210000D01*
X86958110Y71210000D01*
X87072097Y71232673D01*
X87179470Y71277149D01*
X87276103Y71341717D01*
X87358283Y71423897D01*
X87422851Y71520530D01*
X87467327Y71627903D01*
X87490000Y71741890D01*
X87490000Y71858110D01*
X87467327Y71972097D01*
X87422851Y72079470D01*
X87358283Y72176103D01*
X87276103Y72258283D01*
X87179470Y72322851D01*
X87072097Y72367327D01*
X86958110Y72390000D01*
X86841890Y72390000D01*
X86727903Y72367327D01*
X86620530Y72322851D01*
X86523897Y72258283D01*
X86441717Y72176103D01*
X86377149Y72079470D01*
X86332673Y71972097D01*
X86310000Y71858110D01*
X85490000Y71858110D01*
X85467327Y71972097D01*
X85422851Y72079470D01*
X85358283Y72176103D01*
X85276103Y72258283D01*
X85179470Y72322851D01*
X85072097Y72367327D01*
X84958110Y72390000D01*
X84841890Y72390000D01*
X84727903Y72367327D01*
X84620530Y72322851D01*
X84523897Y72258283D01*
X84441717Y72176103D01*
X84377149Y72079470D01*
X84332673Y71972097D01*
X84310000Y71858110D01*
X72590000Y71858110D01*
X72567327Y71972097D01*
X72522851Y72079470D01*
X72458283Y72176103D01*
X72376103Y72258283D01*
X72279470Y72322851D01*
X72172097Y72367327D01*
X72058110Y72390000D01*
X71941890Y72390000D01*
X71827903Y72367327D01*
X71720530Y72322851D01*
X71623897Y72258283D01*
X71541717Y72176103D01*
X71477149Y72079470D01*
X71432673Y71972097D01*
X71410000Y71858110D01*
X70590000Y71858110D01*
X70567327Y71972097D01*
X70522851Y72079470D01*
X70458283Y72176103D01*
X70376103Y72258283D01*
X70279470Y72322851D01*
X70172097Y72367327D01*
X70058110Y72390000D01*
X69941890Y72390000D01*
X69827903Y72367327D01*
X69720530Y72322851D01*
X69623897Y72258283D01*
X69541717Y72176103D01*
X69477149Y72079470D01*
X69432673Y71972097D01*
X69410000Y71858110D01*
X66553672Y71858110D01*
X66616309Y71884055D01*
X66794834Y72003342D01*
X66946658Y72155166D01*
X67065945Y72333691D01*
X67148112Y72532059D01*
X67190000Y72742644D01*
X67190000Y72957356D01*
X87910000Y72957356D01*
X87910000Y72742644D01*
X87951888Y72532059D01*
X88034055Y72333691D01*
X88153342Y72155166D01*
X88305166Y72003342D01*
X88483691Y71884055D01*
X88682059Y71801888D01*
X88892644Y71760000D01*
X89107356Y71760000D01*
X89317941Y71801888D01*
X89453672Y71858110D01*
X90410000Y71858110D01*
X90410000Y71741890D01*
X90432673Y71627903D01*
X90477149Y71520530D01*
X90541717Y71423897D01*
X90623897Y71341717D01*
X90720530Y71277149D01*
X90827903Y71232673D01*
X90941890Y71210000D01*
X91058110Y71210000D01*
X91172097Y71232673D01*
X91279470Y71277149D01*
X91376103Y71341717D01*
X91458283Y71423897D01*
X91522851Y71520530D01*
X91567327Y71627903D01*
X91590000Y71741890D01*
X91590000Y71858110D01*
X92410000Y71858110D01*
X92410000Y71741890D01*
X92432673Y71627903D01*
X92477149Y71520530D01*
X92541717Y71423897D01*
X92623897Y71341717D01*
X92720530Y71277149D01*
X92827903Y71232673D01*
X92941890Y71210000D01*
X93058110Y71210000D01*
X93172097Y71232673D01*
X93279470Y71277149D01*
X93376103Y71341717D01*
X93458283Y71423897D01*
X93522851Y71520530D01*
X93567327Y71627903D01*
X93590000Y71741890D01*
X93590000Y71858110D01*
X107410000Y71858110D01*
X107410000Y71741890D01*
X107432673Y71627903D01*
X107477149Y71520530D01*
X107541717Y71423897D01*
X107623897Y71341717D01*
X107720530Y71277149D01*
X107827903Y71232673D01*
X107941890Y71210000D01*
X108058110Y71210000D01*
X108172097Y71232673D01*
X108279470Y71277149D01*
X108376103Y71341717D01*
X108458283Y71423897D01*
X108522851Y71520530D01*
X108567327Y71627903D01*
X108590000Y71741890D01*
X108590000Y71858110D01*
X109410000Y71858110D01*
X109410000Y71741890D01*
X109432673Y71627903D01*
X109477149Y71520530D01*
X109541717Y71423897D01*
X109623897Y71341717D01*
X109720530Y71277149D01*
X109827903Y71232673D01*
X109941890Y71210000D01*
X110058110Y71210000D01*
X110172097Y71232673D01*
X110279470Y71277149D01*
X110376103Y71341717D01*
X110458283Y71423897D01*
X110522851Y71520530D01*
X110567327Y71627903D01*
X110590000Y71741890D01*
X110590000Y71858110D01*
X110567327Y71972097D01*
X110522851Y72079470D01*
X110458283Y72176103D01*
X110376103Y72258283D01*
X110279470Y72322851D01*
X110172097Y72367327D01*
X110058110Y72390000D01*
X109941890Y72390000D01*
X109827903Y72367327D01*
X109720530Y72322851D01*
X109623897Y72258283D01*
X109541717Y72176103D01*
X109477149Y72079470D01*
X109432673Y71972097D01*
X109410000Y71858110D01*
X108590000Y71858110D01*
X108567327Y71972097D01*
X108522851Y72079470D01*
X108458283Y72176103D01*
X108376103Y72258283D01*
X108279470Y72322851D01*
X108172097Y72367327D01*
X108058110Y72390000D01*
X107941890Y72390000D01*
X107827903Y72367327D01*
X107720530Y72322851D01*
X107623897Y72258283D01*
X107541717Y72176103D01*
X107477149Y72079470D01*
X107432673Y71972097D01*
X107410000Y71858110D01*
X93590000Y71858110D01*
X93567327Y71972097D01*
X93522851Y72079470D01*
X93458283Y72176103D01*
X93376103Y72258283D01*
X93279470Y72322851D01*
X93172097Y72367327D01*
X93058110Y72390000D01*
X92941890Y72390000D01*
X92827903Y72367327D01*
X92720530Y72322851D01*
X92623897Y72258283D01*
X92541717Y72176103D01*
X92477149Y72079470D01*
X92432673Y71972097D01*
X92410000Y71858110D01*
X91590000Y71858110D01*
X91567327Y71972097D01*
X91522851Y72079470D01*
X91458283Y72176103D01*
X91376103Y72258283D01*
X91279470Y72322851D01*
X91172097Y72367327D01*
X91058110Y72390000D01*
X90941890Y72390000D01*
X90827903Y72367327D01*
X90720530Y72322851D01*
X90623897Y72258283D01*
X90541717Y72176103D01*
X90477149Y72079470D01*
X90432673Y71972097D01*
X90410000Y71858110D01*
X89453672Y71858110D01*
X89516309Y71884055D01*
X89694834Y72003342D01*
X89846658Y72155166D01*
X89965945Y72333691D01*
X90048112Y72532059D01*
X90090000Y72742644D01*
X90090000Y72957356D01*
X110910000Y72957356D01*
X110910000Y72742644D01*
X110951888Y72532059D01*
X111034055Y72333691D01*
X111153342Y72155166D01*
X111305166Y72003342D01*
X111483691Y71884055D01*
X111682059Y71801888D01*
X111892644Y71760000D01*
X112107356Y71760000D01*
X112317941Y71801888D01*
X112453672Y71858110D01*
X113410000Y71858110D01*
X113410000Y71741890D01*
X113432673Y71627903D01*
X113477149Y71520530D01*
X113541717Y71423897D01*
X113623897Y71341717D01*
X113720530Y71277149D01*
X113827903Y71232673D01*
X113941890Y71210000D01*
X114058110Y71210000D01*
X114172097Y71232673D01*
X114279470Y71277149D01*
X114376103Y71341717D01*
X114458283Y71423897D01*
X114522851Y71520530D01*
X114567327Y71627903D01*
X114590000Y71741890D01*
X114590000Y71858110D01*
X115410000Y71858110D01*
X115410000Y71741890D01*
X115432673Y71627903D01*
X115477149Y71520530D01*
X115541717Y71423897D01*
X115623897Y71341717D01*
X115720530Y71277149D01*
X115827903Y71232673D01*
X115941890Y71210000D01*
X116058110Y71210000D01*
X116172097Y71232673D01*
X116279470Y71277149D01*
X116376103Y71341717D01*
X116458283Y71423897D01*
X116522851Y71520530D01*
X116567327Y71627903D01*
X116590000Y71741890D01*
X116590000Y71858110D01*
X130410000Y71858110D01*
X130410000Y71741890D01*
X130432673Y71627903D01*
X130477149Y71520530D01*
X130541717Y71423897D01*
X130623897Y71341717D01*
X130720530Y71277149D01*
X130827903Y71232673D01*
X130941890Y71210000D01*
X131058110Y71210000D01*
X131172097Y71232673D01*
X131279470Y71277149D01*
X131376103Y71341717D01*
X131458283Y71423897D01*
X131522851Y71520530D01*
X131567327Y71627903D01*
X131590000Y71741890D01*
X131590000Y71858110D01*
X132410000Y71858110D01*
X132410000Y71741890D01*
X132432673Y71627903D01*
X132477149Y71520530D01*
X132541717Y71423897D01*
X132623897Y71341717D01*
X132720530Y71277149D01*
X132827903Y71232673D01*
X132941890Y71210000D01*
X133058110Y71210000D01*
X133172097Y71232673D01*
X133279470Y71277149D01*
X133376103Y71341717D01*
X133458283Y71423897D01*
X133522851Y71520530D01*
X133567327Y71627903D01*
X133590000Y71741890D01*
X133590000Y71858110D01*
X133567327Y71972097D01*
X133522851Y72079470D01*
X133458283Y72176103D01*
X133376103Y72258283D01*
X133279470Y72322851D01*
X133172097Y72367327D01*
X133058110Y72390000D01*
X132941890Y72390000D01*
X132827903Y72367327D01*
X132720530Y72322851D01*
X132623897Y72258283D01*
X132541717Y72176103D01*
X132477149Y72079470D01*
X132432673Y71972097D01*
X132410000Y71858110D01*
X131590000Y71858110D01*
X131567327Y71972097D01*
X131522851Y72079470D01*
X131458283Y72176103D01*
X131376103Y72258283D01*
X131279470Y72322851D01*
X131172097Y72367327D01*
X131058110Y72390000D01*
X130941890Y72390000D01*
X130827903Y72367327D01*
X130720530Y72322851D01*
X130623897Y72258283D01*
X130541717Y72176103D01*
X130477149Y72079470D01*
X130432673Y71972097D01*
X130410000Y71858110D01*
X116590000Y71858110D01*
X116567327Y71972097D01*
X116522851Y72079470D01*
X116458283Y72176103D01*
X116376103Y72258283D01*
X116279470Y72322851D01*
X116172097Y72367327D01*
X116058110Y72390000D01*
X115941890Y72390000D01*
X115827903Y72367327D01*
X115720530Y72322851D01*
X115623897Y72258283D01*
X115541717Y72176103D01*
X115477149Y72079470D01*
X115432673Y71972097D01*
X115410000Y71858110D01*
X114590000Y71858110D01*
X114567327Y71972097D01*
X114522851Y72079470D01*
X114458283Y72176103D01*
X114376103Y72258283D01*
X114279470Y72322851D01*
X114172097Y72367327D01*
X114058110Y72390000D01*
X113941890Y72390000D01*
X113827903Y72367327D01*
X113720530Y72322851D01*
X113623897Y72258283D01*
X113541717Y72176103D01*
X113477149Y72079470D01*
X113432673Y71972097D01*
X113410000Y71858110D01*
X112453672Y71858110D01*
X112516309Y71884055D01*
X112694834Y72003342D01*
X112846658Y72155166D01*
X112965945Y72333691D01*
X113048112Y72532059D01*
X113090000Y72742644D01*
X113090000Y72957356D01*
X133910000Y72957356D01*
X133910000Y72742644D01*
X133951888Y72532059D01*
X134034055Y72333691D01*
X134153342Y72155166D01*
X134305166Y72003342D01*
X134483691Y71884055D01*
X134682059Y71801888D01*
X134892644Y71760000D01*
X135107356Y71760000D01*
X135317941Y71801888D01*
X135453672Y71858110D01*
X136410000Y71858110D01*
X136410000Y71741890D01*
X136432673Y71627903D01*
X136477149Y71520530D01*
X136541717Y71423897D01*
X136623897Y71341717D01*
X136720530Y71277149D01*
X136827903Y71232673D01*
X136941890Y71210000D01*
X137058110Y71210000D01*
X137172097Y71232673D01*
X137279470Y71277149D01*
X137376103Y71341717D01*
X137458283Y71423897D01*
X137522851Y71520530D01*
X137567327Y71627903D01*
X137590000Y71741890D01*
X137590000Y71858110D01*
X138410000Y71858110D01*
X138410000Y71741890D01*
X138432673Y71627903D01*
X138477149Y71520530D01*
X138541717Y71423897D01*
X138623897Y71341717D01*
X138720530Y71277149D01*
X138827903Y71232673D01*
X138941890Y71210000D01*
X139058110Y71210000D01*
X139172097Y71232673D01*
X139279470Y71277149D01*
X139376103Y71341717D01*
X139458283Y71423897D01*
X139522851Y71520530D01*
X139567327Y71627903D01*
X139590000Y71741890D01*
X139590000Y71858110D01*
X153410000Y71858110D01*
X153410000Y71741890D01*
X153432673Y71627903D01*
X153477149Y71520530D01*
X153541717Y71423897D01*
X153623897Y71341717D01*
X153720530Y71277149D01*
X153827903Y71232673D01*
X153941890Y71210000D01*
X154058110Y71210000D01*
X154172097Y71232673D01*
X154279470Y71277149D01*
X154376103Y71341717D01*
X154458283Y71423897D01*
X154522851Y71520530D01*
X154567327Y71627903D01*
X154590000Y71741890D01*
X154590000Y71858110D01*
X155410000Y71858110D01*
X155410000Y71741890D01*
X155432673Y71627903D01*
X155477149Y71520530D01*
X155541717Y71423897D01*
X155623897Y71341717D01*
X155720530Y71277149D01*
X155827903Y71232673D01*
X155941890Y71210000D01*
X156058110Y71210000D01*
X156172097Y71232673D01*
X156279470Y71277149D01*
X156376103Y71341717D01*
X156458283Y71423897D01*
X156522851Y71520530D01*
X156567327Y71627903D01*
X156590000Y71741890D01*
X156590000Y71858110D01*
X156567327Y71972097D01*
X156522851Y72079470D01*
X156458283Y72176103D01*
X156376103Y72258283D01*
X156279470Y72322851D01*
X156172097Y72367327D01*
X156058110Y72390000D01*
X155941890Y72390000D01*
X155827903Y72367327D01*
X155720530Y72322851D01*
X155623897Y72258283D01*
X155541717Y72176103D01*
X155477149Y72079470D01*
X155432673Y71972097D01*
X155410000Y71858110D01*
X154590000Y71858110D01*
X154567327Y71972097D01*
X154522851Y72079470D01*
X154458283Y72176103D01*
X154376103Y72258283D01*
X154279470Y72322851D01*
X154172097Y72367327D01*
X154058110Y72390000D01*
X153941890Y72390000D01*
X153827903Y72367327D01*
X153720530Y72322851D01*
X153623897Y72258283D01*
X153541717Y72176103D01*
X153477149Y72079470D01*
X153432673Y71972097D01*
X153410000Y71858110D01*
X139590000Y71858110D01*
X139567327Y71972097D01*
X139522851Y72079470D01*
X139458283Y72176103D01*
X139376103Y72258283D01*
X139279470Y72322851D01*
X139172097Y72367327D01*
X139058110Y72390000D01*
X138941890Y72390000D01*
X138827903Y72367327D01*
X138720530Y72322851D01*
X138623897Y72258283D01*
X138541717Y72176103D01*
X138477149Y72079470D01*
X138432673Y71972097D01*
X138410000Y71858110D01*
X137590000Y71858110D01*
X137567327Y71972097D01*
X137522851Y72079470D01*
X137458283Y72176103D01*
X137376103Y72258283D01*
X137279470Y72322851D01*
X137172097Y72367327D01*
X137058110Y72390000D01*
X136941890Y72390000D01*
X136827903Y72367327D01*
X136720530Y72322851D01*
X136623897Y72258283D01*
X136541717Y72176103D01*
X136477149Y72079470D01*
X136432673Y71972097D01*
X136410000Y71858110D01*
X135453672Y71858110D01*
X135516309Y71884055D01*
X135694834Y72003342D01*
X135846658Y72155166D01*
X135965945Y72333691D01*
X136048112Y72532059D01*
X136090000Y72742644D01*
X136090000Y72957356D01*
X156910000Y72957356D01*
X156910000Y72742644D01*
X156951888Y72532059D01*
X157034055Y72333691D01*
X157153342Y72155166D01*
X157305166Y72003342D01*
X157483691Y71884055D01*
X157682059Y71801888D01*
X157892644Y71760000D01*
X158107356Y71760000D01*
X158317941Y71801888D01*
X158453672Y71858110D01*
X159410000Y71858110D01*
X159410000Y71741890D01*
X159432673Y71627903D01*
X159477149Y71520530D01*
X159541717Y71423897D01*
X159623897Y71341717D01*
X159720530Y71277149D01*
X159827903Y71232673D01*
X159941890Y71210000D01*
X160058110Y71210000D01*
X160172097Y71232673D01*
X160279470Y71277149D01*
X160376103Y71341717D01*
X160458283Y71423897D01*
X160522851Y71520530D01*
X160567327Y71627903D01*
X160590000Y71741890D01*
X160590000Y71858110D01*
X161410000Y71858110D01*
X161410000Y71741890D01*
X161432673Y71627903D01*
X161477149Y71520530D01*
X161541717Y71423897D01*
X161623897Y71341717D01*
X161720530Y71277149D01*
X161827903Y71232673D01*
X161941890Y71210000D01*
X162058110Y71210000D01*
X162172097Y71232673D01*
X162279470Y71277149D01*
X162376103Y71341717D01*
X162458283Y71423897D01*
X162522851Y71520530D01*
X162567327Y71627903D01*
X162590000Y71741890D01*
X162590000Y71858110D01*
X176410000Y71858110D01*
X176410000Y71741890D01*
X176432673Y71627903D01*
X176477149Y71520530D01*
X176541717Y71423897D01*
X176623897Y71341717D01*
X176720530Y71277149D01*
X176827903Y71232673D01*
X176941890Y71210000D01*
X177058110Y71210000D01*
X177172097Y71232673D01*
X177279470Y71277149D01*
X177376103Y71341717D01*
X177458283Y71423897D01*
X177522851Y71520530D01*
X177567327Y71627903D01*
X177590000Y71741890D01*
X177590000Y71858110D01*
X178410000Y71858110D01*
X178410000Y71741890D01*
X178432673Y71627903D01*
X178477149Y71520530D01*
X178541717Y71423897D01*
X178623897Y71341717D01*
X178720530Y71277149D01*
X178827903Y71232673D01*
X178941890Y71210000D01*
X179058110Y71210000D01*
X179172097Y71232673D01*
X179279470Y71277149D01*
X179376103Y71341717D01*
X179458283Y71423897D01*
X179522851Y71520530D01*
X179567327Y71627903D01*
X179590000Y71741890D01*
X179590000Y71858110D01*
X179567327Y71972097D01*
X179522851Y72079470D01*
X179458283Y72176103D01*
X179376103Y72258283D01*
X179279470Y72322851D01*
X179172097Y72367327D01*
X179058110Y72390000D01*
X178941890Y72390000D01*
X178827903Y72367327D01*
X178720530Y72322851D01*
X178623897Y72258283D01*
X178541717Y72176103D01*
X178477149Y72079470D01*
X178432673Y71972097D01*
X178410000Y71858110D01*
X177590000Y71858110D01*
X177567327Y71972097D01*
X177522851Y72079470D01*
X177458283Y72176103D01*
X177376103Y72258283D01*
X177279470Y72322851D01*
X177172097Y72367327D01*
X177058110Y72390000D01*
X176941890Y72390000D01*
X176827903Y72367327D01*
X176720530Y72322851D01*
X176623897Y72258283D01*
X176541717Y72176103D01*
X176477149Y72079470D01*
X176432673Y71972097D01*
X176410000Y71858110D01*
X162590000Y71858110D01*
X162567327Y71972097D01*
X162522851Y72079470D01*
X162458283Y72176103D01*
X162376103Y72258283D01*
X162279470Y72322851D01*
X162172097Y72367327D01*
X162058110Y72390000D01*
X161941890Y72390000D01*
X161827903Y72367327D01*
X161720530Y72322851D01*
X161623897Y72258283D01*
X161541717Y72176103D01*
X161477149Y72079470D01*
X161432673Y71972097D01*
X161410000Y71858110D01*
X160590000Y71858110D01*
X160567327Y71972097D01*
X160522851Y72079470D01*
X160458283Y72176103D01*
X160376103Y72258283D01*
X160279470Y72322851D01*
X160172097Y72367327D01*
X160058110Y72390000D01*
X159941890Y72390000D01*
X159827903Y72367327D01*
X159720530Y72322851D01*
X159623897Y72258283D01*
X159541717Y72176103D01*
X159477149Y72079470D01*
X159432673Y71972097D01*
X159410000Y71858110D01*
X158453672Y71858110D01*
X158516309Y71884055D01*
X158694834Y72003342D01*
X158846658Y72155166D01*
X158965945Y72333691D01*
X159048112Y72532059D01*
X159090000Y72742644D01*
X159090000Y72957356D01*
X179910000Y72957356D01*
X179910000Y72742644D01*
X179951888Y72532059D01*
X180034055Y72333691D01*
X180153342Y72155166D01*
X180305166Y72003342D01*
X180483691Y71884055D01*
X180682059Y71801888D01*
X180892644Y71760000D01*
X181107356Y71760000D01*
X181317941Y71801888D01*
X181453672Y71858110D01*
X182410000Y71858110D01*
X182410000Y71741890D01*
X182432673Y71627903D01*
X182477149Y71520530D01*
X182541717Y71423897D01*
X182623897Y71341717D01*
X182720530Y71277149D01*
X182827903Y71232673D01*
X182941890Y71210000D01*
X183058110Y71210000D01*
X183172097Y71232673D01*
X183279470Y71277149D01*
X183376103Y71341717D01*
X183458283Y71423897D01*
X183522851Y71520530D01*
X183567327Y71627903D01*
X183590000Y71741890D01*
X183590000Y71858110D01*
X184410000Y71858110D01*
X184410000Y71741890D01*
X184432673Y71627903D01*
X184477149Y71520530D01*
X184541717Y71423897D01*
X184623897Y71341717D01*
X184720530Y71277149D01*
X184827903Y71232673D01*
X184941890Y71210000D01*
X185058110Y71210000D01*
X185172097Y71232673D01*
X185279470Y71277149D01*
X185376103Y71341717D01*
X185458283Y71423897D01*
X185522851Y71520530D01*
X185567327Y71627903D01*
X185590000Y71741890D01*
X185590000Y71858110D01*
X185567327Y71972097D01*
X185522851Y72079470D01*
X185458283Y72176103D01*
X185376103Y72258283D01*
X185279470Y72322851D01*
X185172097Y72367327D01*
X185058110Y72390000D01*
X184941890Y72390000D01*
X184827903Y72367327D01*
X184720530Y72322851D01*
X184623897Y72258283D01*
X184541717Y72176103D01*
X184477149Y72079470D01*
X184432673Y71972097D01*
X184410000Y71858110D01*
X183590000Y71858110D01*
X183567327Y71972097D01*
X183522851Y72079470D01*
X183458283Y72176103D01*
X183376103Y72258283D01*
X183279470Y72322851D01*
X183172097Y72367327D01*
X183058110Y72390000D01*
X182941890Y72390000D01*
X182827903Y72367327D01*
X182720530Y72322851D01*
X182623897Y72258283D01*
X182541717Y72176103D01*
X182477149Y72079470D01*
X182432673Y71972097D01*
X182410000Y71858110D01*
X181453672Y71858110D01*
X181516309Y71884055D01*
X181694834Y72003342D01*
X181846658Y72155166D01*
X181965945Y72333691D01*
X182048112Y72532059D01*
X182090000Y72742644D01*
X182090000Y72957356D01*
X182048112Y73167941D01*
X181965945Y73366309D01*
X181846658Y73544834D01*
X181694834Y73696658D01*
X181516309Y73815945D01*
X181317941Y73898112D01*
X181107356Y73940000D01*
X180892644Y73940000D01*
X180682059Y73898112D01*
X180483691Y73815945D01*
X180305166Y73696658D01*
X180153342Y73544834D01*
X180034055Y73366309D01*
X179951888Y73167941D01*
X179910000Y72957356D01*
X159090000Y72957356D01*
X159048112Y73167941D01*
X158965945Y73366309D01*
X158846658Y73544834D01*
X158694834Y73696658D01*
X158516309Y73815945D01*
X158317941Y73898112D01*
X158107356Y73940000D01*
X157892644Y73940000D01*
X157682059Y73898112D01*
X157483691Y73815945D01*
X157305166Y73696658D01*
X157153342Y73544834D01*
X157034055Y73366309D01*
X156951888Y73167941D01*
X156910000Y72957356D01*
X136090000Y72957356D01*
X136048112Y73167941D01*
X135965945Y73366309D01*
X135846658Y73544834D01*
X135694834Y73696658D01*
X135516309Y73815945D01*
X135317941Y73898112D01*
X135107356Y73940000D01*
X134892644Y73940000D01*
X134682059Y73898112D01*
X134483691Y73815945D01*
X134305166Y73696658D01*
X134153342Y73544834D01*
X134034055Y73366309D01*
X133951888Y73167941D01*
X133910000Y72957356D01*
X113090000Y72957356D01*
X113048112Y73167941D01*
X112965945Y73366309D01*
X112846658Y73544834D01*
X112694834Y73696658D01*
X112516309Y73815945D01*
X112317941Y73898112D01*
X112107356Y73940000D01*
X111892644Y73940000D01*
X111682059Y73898112D01*
X111483691Y73815945D01*
X111305166Y73696658D01*
X111153342Y73544834D01*
X111034055Y73366309D01*
X110951888Y73167941D01*
X110910000Y72957356D01*
X90090000Y72957356D01*
X90048112Y73167941D01*
X89965945Y73366309D01*
X89846658Y73544834D01*
X89694834Y73696658D01*
X89516309Y73815945D01*
X89317941Y73898112D01*
X89107356Y73940000D01*
X88892644Y73940000D01*
X88682059Y73898112D01*
X88483691Y73815945D01*
X88305166Y73696658D01*
X88153342Y73544834D01*
X88034055Y73366309D01*
X87951888Y73167941D01*
X87910000Y72957356D01*
X67190000Y72957356D01*
X67148112Y73167941D01*
X67065945Y73366309D01*
X66946658Y73544834D01*
X66794834Y73696658D01*
X66616309Y73815945D01*
X66417941Y73898112D01*
X66207356Y73940000D01*
X65992644Y73940000D01*
X65782059Y73898112D01*
X65583691Y73815945D01*
X65405166Y73696658D01*
X65253342Y73544834D01*
X65134055Y73366309D01*
X65051888Y73167941D01*
X65010000Y72957356D01*
X44190000Y72957356D01*
X44148112Y73167941D01*
X44065945Y73366309D01*
X43946658Y73544834D01*
X43794834Y73696658D01*
X43616309Y73815945D01*
X43417941Y73898112D01*
X43207356Y73940000D01*
X42992644Y73940000D01*
X42782059Y73898112D01*
X42583691Y73815945D01*
X42405166Y73696658D01*
X42253342Y73544834D01*
X42134055Y73366309D01*
X42051888Y73167941D01*
X42010000Y72957356D01*
X21090000Y72957356D01*
X21048112Y73167941D01*
X20965945Y73366309D01*
X20846658Y73544834D01*
X20694834Y73696658D01*
X20516309Y73815945D01*
X20317941Y73898112D01*
X20107356Y73940000D01*
X19892644Y73940000D01*
X19682059Y73898112D01*
X19483691Y73815945D01*
X19305166Y73696658D01*
X19153342Y73544834D01*
X19034055Y73366309D01*
X18951888Y73167941D01*
X18910000Y72957356D01*
X6365000Y72957356D01*
X6365000Y77427054D01*
X14900000Y77427054D01*
X14900000Y77172946D01*
X14949574Y76923721D01*
X15046817Y76688956D01*
X15187991Y76477673D01*
X15367673Y76297991D01*
X15578956Y76156817D01*
X15813721Y76059574D01*
X16062946Y76010000D01*
X16317054Y76010000D01*
X16566279Y76059574D01*
X16801044Y76156817D01*
X17012327Y76297991D01*
X17192009Y76477673D01*
X17333183Y76688956D01*
X17375887Y76792054D01*
X22520000Y76792054D01*
X22520000Y76537946D01*
X22569574Y76288721D01*
X22666817Y76053956D01*
X22807991Y75842673D01*
X22987673Y75662991D01*
X23198956Y75521817D01*
X23433721Y75424574D01*
X23682946Y75375000D01*
X23937054Y75375000D01*
X24186279Y75424574D01*
X24421044Y75521817D01*
X24632327Y75662991D01*
X24812009Y75842673D01*
X24953183Y76053956D01*
X25050426Y76288721D01*
X25100000Y76537946D01*
X25100000Y76792054D01*
X25050426Y77041279D01*
X24953183Y77276044D01*
X24852282Y77427054D01*
X38000000Y77427054D01*
X38000000Y77172946D01*
X38049574Y76923721D01*
X38146817Y76688956D01*
X38287991Y76477673D01*
X38467673Y76297991D01*
X38678956Y76156817D01*
X38913721Y76059574D01*
X39162946Y76010000D01*
X39417054Y76010000D01*
X39666279Y76059574D01*
X39901044Y76156817D01*
X40112327Y76297991D01*
X40292009Y76477673D01*
X40433183Y76688956D01*
X40475887Y76792054D01*
X45620000Y76792054D01*
X45620000Y76537946D01*
X45669574Y76288721D01*
X45766817Y76053956D01*
X45907991Y75842673D01*
X46087673Y75662991D01*
X46298956Y75521817D01*
X46533721Y75424574D01*
X46782946Y75375000D01*
X47037054Y75375000D01*
X47286279Y75424574D01*
X47521044Y75521817D01*
X47732327Y75662991D01*
X47912009Y75842673D01*
X48053183Y76053956D01*
X48150426Y76288721D01*
X48200000Y76537946D01*
X48200000Y76792054D01*
X48150426Y77041279D01*
X48053183Y77276044D01*
X47952282Y77427054D01*
X61000000Y77427054D01*
X61000000Y77172946D01*
X61049574Y76923721D01*
X61146817Y76688956D01*
X61287991Y76477673D01*
X61467673Y76297991D01*
X61678956Y76156817D01*
X61913721Y76059574D01*
X62162946Y76010000D01*
X62417054Y76010000D01*
X62666279Y76059574D01*
X62901044Y76156817D01*
X63112327Y76297991D01*
X63292009Y76477673D01*
X63433183Y76688956D01*
X63475887Y76792054D01*
X68620000Y76792054D01*
X68620000Y76537946D01*
X68669574Y76288721D01*
X68766817Y76053956D01*
X68907991Y75842673D01*
X69087673Y75662991D01*
X69298956Y75521817D01*
X69533721Y75424574D01*
X69782946Y75375000D01*
X70037054Y75375000D01*
X70286279Y75424574D01*
X70521044Y75521817D01*
X70732327Y75662991D01*
X70912009Y75842673D01*
X71053183Y76053956D01*
X71150426Y76288721D01*
X71200000Y76537946D01*
X71200000Y76792054D01*
X71150426Y77041279D01*
X71053183Y77276044D01*
X70952282Y77427054D01*
X83900000Y77427054D01*
X83900000Y77172946D01*
X83949574Y76923721D01*
X84046817Y76688956D01*
X84187991Y76477673D01*
X84367673Y76297991D01*
X84578956Y76156817D01*
X84813721Y76059574D01*
X85062946Y76010000D01*
X85317054Y76010000D01*
X85566279Y76059574D01*
X85801044Y76156817D01*
X86012327Y76297991D01*
X86192009Y76477673D01*
X86333183Y76688956D01*
X86375887Y76792054D01*
X91520000Y76792054D01*
X91520000Y76537946D01*
X91569574Y76288721D01*
X91666817Y76053956D01*
X91807991Y75842673D01*
X91987673Y75662991D01*
X92198956Y75521817D01*
X92433721Y75424574D01*
X92682946Y75375000D01*
X92937054Y75375000D01*
X93186279Y75424574D01*
X93421044Y75521817D01*
X93632327Y75662991D01*
X93812009Y75842673D01*
X93953183Y76053956D01*
X94050426Y76288721D01*
X94100000Y76537946D01*
X94100000Y76792054D01*
X94050426Y77041279D01*
X93953183Y77276044D01*
X93852282Y77427054D01*
X106900000Y77427054D01*
X106900000Y77172946D01*
X106949574Y76923721D01*
X107046817Y76688956D01*
X107187991Y76477673D01*
X107367673Y76297991D01*
X107578956Y76156817D01*
X107813721Y76059574D01*
X108062946Y76010000D01*
X108317054Y76010000D01*
X108566279Y76059574D01*
X108801044Y76156817D01*
X109012327Y76297991D01*
X109192009Y76477673D01*
X109333183Y76688956D01*
X109375887Y76792054D01*
X114520000Y76792054D01*
X114520000Y76537946D01*
X114569574Y76288721D01*
X114666817Y76053956D01*
X114807991Y75842673D01*
X114987673Y75662991D01*
X115198956Y75521817D01*
X115433721Y75424574D01*
X115682946Y75375000D01*
X115937054Y75375000D01*
X116186279Y75424574D01*
X116421044Y75521817D01*
X116632327Y75662991D01*
X116812009Y75842673D01*
X116953183Y76053956D01*
X117050426Y76288721D01*
X117100000Y76537946D01*
X117100000Y76792054D01*
X117050426Y77041279D01*
X116953183Y77276044D01*
X116852282Y77427054D01*
X129900000Y77427054D01*
X129900000Y77172946D01*
X129949574Y76923721D01*
X130046817Y76688956D01*
X130187991Y76477673D01*
X130367673Y76297991D01*
X130578956Y76156817D01*
X130813721Y76059574D01*
X131062946Y76010000D01*
X131317054Y76010000D01*
X131566279Y76059574D01*
X131801044Y76156817D01*
X132012327Y76297991D01*
X132192009Y76477673D01*
X132333183Y76688956D01*
X132375887Y76792054D01*
X137520000Y76792054D01*
X137520000Y76537946D01*
X137569574Y76288721D01*
X137666817Y76053956D01*
X137807991Y75842673D01*
X137987673Y75662991D01*
X138198956Y75521817D01*
X138433721Y75424574D01*
X138682946Y75375000D01*
X138937054Y75375000D01*
X139186279Y75424574D01*
X139421044Y75521817D01*
X139632327Y75662991D01*
X139812009Y75842673D01*
X139953183Y76053956D01*
X140050426Y76288721D01*
X140100000Y76537946D01*
X140100000Y76792054D01*
X140050426Y77041279D01*
X139953183Y77276044D01*
X139852282Y77427054D01*
X152900000Y77427054D01*
X152900000Y77172946D01*
X152949574Y76923721D01*
X153046817Y76688956D01*
X153187991Y76477673D01*
X153367673Y76297991D01*
X153578956Y76156817D01*
X153813721Y76059574D01*
X154062946Y76010000D01*
X154317054Y76010000D01*
X154566279Y76059574D01*
X154801044Y76156817D01*
X155012327Y76297991D01*
X155192009Y76477673D01*
X155333183Y76688956D01*
X155375887Y76792054D01*
X160520000Y76792054D01*
X160520000Y76537946D01*
X160569574Y76288721D01*
X160666817Y76053956D01*
X160807991Y75842673D01*
X160987673Y75662991D01*
X161198956Y75521817D01*
X161433721Y75424574D01*
X161682946Y75375000D01*
X161937054Y75375000D01*
X162186279Y75424574D01*
X162421044Y75521817D01*
X162632327Y75662991D01*
X162812009Y75842673D01*
X162953183Y76053956D01*
X163050426Y76288721D01*
X163100000Y76537946D01*
X163100000Y76792054D01*
X163050426Y77041279D01*
X162953183Y77276044D01*
X162852282Y77427054D01*
X175900000Y77427054D01*
X175900000Y77172946D01*
X175949574Y76923721D01*
X176046817Y76688956D01*
X176187991Y76477673D01*
X176367673Y76297991D01*
X176578956Y76156817D01*
X176813721Y76059574D01*
X177062946Y76010000D01*
X177317054Y76010000D01*
X177566279Y76059574D01*
X177801044Y76156817D01*
X178012327Y76297991D01*
X178192009Y76477673D01*
X178333183Y76688956D01*
X178375887Y76792054D01*
X183520000Y76792054D01*
X183520000Y76537946D01*
X183569574Y76288721D01*
X183666817Y76053956D01*
X183807991Y75842673D01*
X183987673Y75662991D01*
X184198956Y75521817D01*
X184433721Y75424574D01*
X184682946Y75375000D01*
X184937054Y75375000D01*
X185186279Y75424574D01*
X185421044Y75521817D01*
X185632327Y75662991D01*
X185812009Y75842673D01*
X185953183Y76053956D01*
X186050426Y76288721D01*
X186100000Y76537946D01*
X186100000Y76792054D01*
X186050426Y77041279D01*
X185953183Y77276044D01*
X185812009Y77487327D01*
X185632327Y77667009D01*
X185421044Y77808183D01*
X185186279Y77905426D01*
X184937054Y77955000D01*
X184682946Y77955000D01*
X184433721Y77905426D01*
X184198956Y77808183D01*
X183987673Y77667009D01*
X183807991Y77487327D01*
X183666817Y77276044D01*
X183569574Y77041279D01*
X183520000Y76792054D01*
X178375887Y76792054D01*
X178430426Y76923721D01*
X178480000Y77172946D01*
X178480000Y77427054D01*
X178430426Y77676279D01*
X178333183Y77911044D01*
X178192009Y78122327D01*
X178012327Y78302009D01*
X177801044Y78443183D01*
X177566279Y78540426D01*
X177317054Y78590000D01*
X177062946Y78590000D01*
X176813721Y78540426D01*
X176578956Y78443183D01*
X176367673Y78302009D01*
X176187991Y78122327D01*
X176046817Y77911044D01*
X175949574Y77676279D01*
X175900000Y77427054D01*
X162852282Y77427054D01*
X162812009Y77487327D01*
X162632327Y77667009D01*
X162421044Y77808183D01*
X162186279Y77905426D01*
X161937054Y77955000D01*
X161682946Y77955000D01*
X161433721Y77905426D01*
X161198956Y77808183D01*
X160987673Y77667009D01*
X160807991Y77487327D01*
X160666817Y77276044D01*
X160569574Y77041279D01*
X160520000Y76792054D01*
X155375887Y76792054D01*
X155430426Y76923721D01*
X155480000Y77172946D01*
X155480000Y77427054D01*
X155430426Y77676279D01*
X155333183Y77911044D01*
X155192009Y78122327D01*
X155012327Y78302009D01*
X154801044Y78443183D01*
X154566279Y78540426D01*
X154317054Y78590000D01*
X154062946Y78590000D01*
X153813721Y78540426D01*
X153578956Y78443183D01*
X153367673Y78302009D01*
X153187991Y78122327D01*
X153046817Y77911044D01*
X152949574Y77676279D01*
X152900000Y77427054D01*
X139852282Y77427054D01*
X139812009Y77487327D01*
X139632327Y77667009D01*
X139421044Y77808183D01*
X139186279Y77905426D01*
X138937054Y77955000D01*
X138682946Y77955000D01*
X138433721Y77905426D01*
X138198956Y77808183D01*
X137987673Y77667009D01*
X137807991Y77487327D01*
X137666817Y77276044D01*
X137569574Y77041279D01*
X137520000Y76792054D01*
X132375887Y76792054D01*
X132430426Y76923721D01*
X132480000Y77172946D01*
X132480000Y77427054D01*
X132430426Y77676279D01*
X132333183Y77911044D01*
X132192009Y78122327D01*
X132012327Y78302009D01*
X131801044Y78443183D01*
X131566279Y78540426D01*
X131317054Y78590000D01*
X131062946Y78590000D01*
X130813721Y78540426D01*
X130578956Y78443183D01*
X130367673Y78302009D01*
X130187991Y78122327D01*
X130046817Y77911044D01*
X129949574Y77676279D01*
X129900000Y77427054D01*
X116852282Y77427054D01*
X116812009Y77487327D01*
X116632327Y77667009D01*
X116421044Y77808183D01*
X116186279Y77905426D01*
X115937054Y77955000D01*
X115682946Y77955000D01*
X115433721Y77905426D01*
X115198956Y77808183D01*
X114987673Y77667009D01*
X114807991Y77487327D01*
X114666817Y77276044D01*
X114569574Y77041279D01*
X114520000Y76792054D01*
X109375887Y76792054D01*
X109430426Y76923721D01*
X109480000Y77172946D01*
X109480000Y77427054D01*
X109430426Y77676279D01*
X109333183Y77911044D01*
X109192009Y78122327D01*
X109012327Y78302009D01*
X108801044Y78443183D01*
X108566279Y78540426D01*
X108317054Y78590000D01*
X108062946Y78590000D01*
X107813721Y78540426D01*
X107578956Y78443183D01*
X107367673Y78302009D01*
X107187991Y78122327D01*
X107046817Y77911044D01*
X106949574Y77676279D01*
X106900000Y77427054D01*
X93852282Y77427054D01*
X93812009Y77487327D01*
X93632327Y77667009D01*
X93421044Y77808183D01*
X93186279Y77905426D01*
X92937054Y77955000D01*
X92682946Y77955000D01*
X92433721Y77905426D01*
X92198956Y77808183D01*
X91987673Y77667009D01*
X91807991Y77487327D01*
X91666817Y77276044D01*
X91569574Y77041279D01*
X91520000Y76792054D01*
X86375887Y76792054D01*
X86430426Y76923721D01*
X86480000Y77172946D01*
X86480000Y77427054D01*
X86430426Y77676279D01*
X86333183Y77911044D01*
X86192009Y78122327D01*
X86012327Y78302009D01*
X85801044Y78443183D01*
X85566279Y78540426D01*
X85317054Y78590000D01*
X85062946Y78590000D01*
X84813721Y78540426D01*
X84578956Y78443183D01*
X84367673Y78302009D01*
X84187991Y78122327D01*
X84046817Y77911044D01*
X83949574Y77676279D01*
X83900000Y77427054D01*
X70952282Y77427054D01*
X70912009Y77487327D01*
X70732327Y77667009D01*
X70521044Y77808183D01*
X70286279Y77905426D01*
X70037054Y77955000D01*
X69782946Y77955000D01*
X69533721Y77905426D01*
X69298956Y77808183D01*
X69087673Y77667009D01*
X68907991Y77487327D01*
X68766817Y77276044D01*
X68669574Y77041279D01*
X68620000Y76792054D01*
X63475887Y76792054D01*
X63530426Y76923721D01*
X63580000Y77172946D01*
X63580000Y77427054D01*
X63530426Y77676279D01*
X63433183Y77911044D01*
X63292009Y78122327D01*
X63112327Y78302009D01*
X62901044Y78443183D01*
X62666279Y78540426D01*
X62417054Y78590000D01*
X62162946Y78590000D01*
X61913721Y78540426D01*
X61678956Y78443183D01*
X61467673Y78302009D01*
X61287991Y78122327D01*
X61146817Y77911044D01*
X61049574Y77676279D01*
X61000000Y77427054D01*
X47952282Y77427054D01*
X47912009Y77487327D01*
X47732327Y77667009D01*
X47521044Y77808183D01*
X47286279Y77905426D01*
X47037054Y77955000D01*
X46782946Y77955000D01*
X46533721Y77905426D01*
X46298956Y77808183D01*
X46087673Y77667009D01*
X45907991Y77487327D01*
X45766817Y77276044D01*
X45669574Y77041279D01*
X45620000Y76792054D01*
X40475887Y76792054D01*
X40530426Y76923721D01*
X40580000Y77172946D01*
X40580000Y77427054D01*
X40530426Y77676279D01*
X40433183Y77911044D01*
X40292009Y78122327D01*
X40112327Y78302009D01*
X39901044Y78443183D01*
X39666279Y78540426D01*
X39417054Y78590000D01*
X39162946Y78590000D01*
X38913721Y78540426D01*
X38678956Y78443183D01*
X38467673Y78302009D01*
X38287991Y78122327D01*
X38146817Y77911044D01*
X38049574Y77676279D01*
X38000000Y77427054D01*
X24852282Y77427054D01*
X24812009Y77487327D01*
X24632327Y77667009D01*
X24421044Y77808183D01*
X24186279Y77905426D01*
X23937054Y77955000D01*
X23682946Y77955000D01*
X23433721Y77905426D01*
X23198956Y77808183D01*
X22987673Y77667009D01*
X22807991Y77487327D01*
X22666817Y77276044D01*
X22569574Y77041279D01*
X22520000Y76792054D01*
X17375887Y76792054D01*
X17430426Y76923721D01*
X17480000Y77172946D01*
X17480000Y77427054D01*
X17430426Y77676279D01*
X17333183Y77911044D01*
X17192009Y78122327D01*
X17012327Y78302009D01*
X16801044Y78443183D01*
X16566279Y78540426D01*
X16317054Y78590000D01*
X16062946Y78590000D01*
X15813721Y78540426D01*
X15578956Y78443183D01*
X15367673Y78302009D01*
X15187991Y78122327D01*
X15046817Y77911044D01*
X14949574Y77676279D01*
X14900000Y77427054D01*
X6365000Y77427054D01*
X6365000Y81237054D01*
X22520000Y81237054D01*
X22520000Y80982946D01*
X22569574Y80733721D01*
X22666817Y80498956D01*
X22807991Y80287673D01*
X22987673Y80107991D01*
X23198956Y79966817D01*
X23433721Y79869574D01*
X23682946Y79820000D01*
X23937054Y79820000D01*
X24186279Y79869574D01*
X24421044Y79966817D01*
X24632327Y80107991D01*
X24812009Y80287673D01*
X24953183Y80498956D01*
X25050426Y80733721D01*
X25100000Y80982946D01*
X25100000Y81237054D01*
X45620000Y81237054D01*
X45620000Y80982946D01*
X45669574Y80733721D01*
X45766817Y80498956D01*
X45907991Y80287673D01*
X46087673Y80107991D01*
X46298956Y79966817D01*
X46533721Y79869574D01*
X46782946Y79820000D01*
X47037054Y79820000D01*
X47286279Y79869574D01*
X47521044Y79966817D01*
X47732327Y80107991D01*
X47912009Y80287673D01*
X48053183Y80498956D01*
X48150426Y80733721D01*
X48200000Y80982946D01*
X48200000Y81237054D01*
X68620000Y81237054D01*
X68620000Y80982946D01*
X68669574Y80733721D01*
X68766817Y80498956D01*
X68907991Y80287673D01*
X69087673Y80107991D01*
X69298956Y79966817D01*
X69533721Y79869574D01*
X69782946Y79820000D01*
X70037054Y79820000D01*
X70286279Y79869574D01*
X70521044Y79966817D01*
X70732327Y80107991D01*
X70912009Y80287673D01*
X71053183Y80498956D01*
X71150426Y80733721D01*
X71200000Y80982946D01*
X71200000Y81237054D01*
X91520000Y81237054D01*
X91520000Y80982946D01*
X91569574Y80733721D01*
X91666817Y80498956D01*
X91807991Y80287673D01*
X91987673Y80107991D01*
X92198956Y79966817D01*
X92433721Y79869574D01*
X92682946Y79820000D01*
X92937054Y79820000D01*
X93186279Y79869574D01*
X93421044Y79966817D01*
X93632327Y80107991D01*
X93812009Y80287673D01*
X93953183Y80498956D01*
X94050426Y80733721D01*
X94100000Y80982946D01*
X94100000Y81237054D01*
X114520000Y81237054D01*
X114520000Y80982946D01*
X114569574Y80733721D01*
X114666817Y80498956D01*
X114807991Y80287673D01*
X114987673Y80107991D01*
X115198956Y79966817D01*
X115433721Y79869574D01*
X115682946Y79820000D01*
X115937054Y79820000D01*
X116186279Y79869574D01*
X116421044Y79966817D01*
X116632327Y80107991D01*
X116812009Y80287673D01*
X116953183Y80498956D01*
X117050426Y80733721D01*
X117100000Y80982946D01*
X117100000Y81237054D01*
X137520000Y81237054D01*
X137520000Y80982946D01*
X137569574Y80733721D01*
X137666817Y80498956D01*
X137807991Y80287673D01*
X137987673Y80107991D01*
X138198956Y79966817D01*
X138433721Y79869574D01*
X138682946Y79820000D01*
X138937054Y79820000D01*
X139186279Y79869574D01*
X139421044Y79966817D01*
X139632327Y80107991D01*
X139812009Y80287673D01*
X139953183Y80498956D01*
X140050426Y80733721D01*
X140100000Y80982946D01*
X140100000Y81237054D01*
X160520000Y81237054D01*
X160520000Y80982946D01*
X160569574Y80733721D01*
X160666817Y80498956D01*
X160807991Y80287673D01*
X160987673Y80107991D01*
X161198956Y79966817D01*
X161433721Y79869574D01*
X161682946Y79820000D01*
X161937054Y79820000D01*
X162186279Y79869574D01*
X162421044Y79966817D01*
X162632327Y80107991D01*
X162812009Y80287673D01*
X162953183Y80498956D01*
X163050426Y80733721D01*
X163100000Y80982946D01*
X163100000Y81237054D01*
X183520000Y81237054D01*
X183520000Y80982946D01*
X183569574Y80733721D01*
X183666817Y80498956D01*
X183807991Y80287673D01*
X183987673Y80107991D01*
X184198956Y79966817D01*
X184433721Y79869574D01*
X184682946Y79820000D01*
X184937054Y79820000D01*
X185186279Y79869574D01*
X185421044Y79966817D01*
X185632327Y80107991D01*
X185812009Y80287673D01*
X185953183Y80498956D01*
X186050426Y80733721D01*
X186100000Y80982946D01*
X186100000Y81237054D01*
X186050426Y81486279D01*
X185953183Y81721044D01*
X185812009Y81932327D01*
X185632327Y82112009D01*
X185421044Y82253183D01*
X185186279Y82350426D01*
X184937054Y82400000D01*
X184682946Y82400000D01*
X184433721Y82350426D01*
X184198956Y82253183D01*
X183987673Y82112009D01*
X183807991Y81932327D01*
X183666817Y81721044D01*
X183569574Y81486279D01*
X183520000Y81237054D01*
X163100000Y81237054D01*
X163050426Y81486279D01*
X162953183Y81721044D01*
X162812009Y81932327D01*
X162632327Y82112009D01*
X162421044Y82253183D01*
X162186279Y82350426D01*
X161937054Y82400000D01*
X161682946Y82400000D01*
X161433721Y82350426D01*
X161198956Y82253183D01*
X160987673Y82112009D01*
X160807991Y81932327D01*
X160666817Y81721044D01*
X160569574Y81486279D01*
X160520000Y81237054D01*
X140100000Y81237054D01*
X140050426Y81486279D01*
X139953183Y81721044D01*
X139812009Y81932327D01*
X139632327Y82112009D01*
X139421044Y82253183D01*
X139186279Y82350426D01*
X138937054Y82400000D01*
X138682946Y82400000D01*
X138433721Y82350426D01*
X138198956Y82253183D01*
X137987673Y82112009D01*
X137807991Y81932327D01*
X137666817Y81721044D01*
X137569574Y81486279D01*
X137520000Y81237054D01*
X117100000Y81237054D01*
X117050426Y81486279D01*
X116953183Y81721044D01*
X116812009Y81932327D01*
X116632327Y82112009D01*
X116421044Y82253183D01*
X116186279Y82350426D01*
X115937054Y82400000D01*
X115682946Y82400000D01*
X115433721Y82350426D01*
X115198956Y82253183D01*
X114987673Y82112009D01*
X114807991Y81932327D01*
X114666817Y81721044D01*
X114569574Y81486279D01*
X114520000Y81237054D01*
X94100000Y81237054D01*
X94050426Y81486279D01*
X93953183Y81721044D01*
X93812009Y81932327D01*
X93632327Y82112009D01*
X93421044Y82253183D01*
X93186279Y82350426D01*
X92937054Y82400000D01*
X92682946Y82400000D01*
X92433721Y82350426D01*
X92198956Y82253183D01*
X91987673Y82112009D01*
X91807991Y81932327D01*
X91666817Y81721044D01*
X91569574Y81486279D01*
X91520000Y81237054D01*
X71200000Y81237054D01*
X71150426Y81486279D01*
X71053183Y81721044D01*
X70912009Y81932327D01*
X70732327Y82112009D01*
X70521044Y82253183D01*
X70286279Y82350426D01*
X70037054Y82400000D01*
X69782946Y82400000D01*
X69533721Y82350426D01*
X69298956Y82253183D01*
X69087673Y82112009D01*
X68907991Y81932327D01*
X68766817Y81721044D01*
X68669574Y81486279D01*
X68620000Y81237054D01*
X48200000Y81237054D01*
X48150426Y81486279D01*
X48053183Y81721044D01*
X47912009Y81932327D01*
X47732327Y82112009D01*
X47521044Y82253183D01*
X47286279Y82350426D01*
X47037054Y82400000D01*
X46782946Y82400000D01*
X46533721Y82350426D01*
X46298956Y82253183D01*
X46087673Y82112009D01*
X45907991Y81932327D01*
X45766817Y81721044D01*
X45669574Y81486279D01*
X45620000Y81237054D01*
X25100000Y81237054D01*
X25050426Y81486279D01*
X24953183Y81721044D01*
X24812009Y81932327D01*
X24632327Y82112009D01*
X24421044Y82253183D01*
X24186279Y82350426D01*
X23937054Y82400000D01*
X23682946Y82400000D01*
X23433721Y82350426D01*
X23198956Y82253183D01*
X22987673Y82112009D01*
X22807991Y81932327D01*
X22666817Y81721044D01*
X22569574Y81486279D01*
X22520000Y81237054D01*
X6365000Y81237054D01*
X6365000Y86317054D01*
X14900000Y86317054D01*
X14900000Y86062946D01*
X14949574Y85813721D01*
X15046817Y85578956D01*
X15187991Y85367673D01*
X15367673Y85187991D01*
X15578956Y85046817D01*
X15813721Y84949574D01*
X16062946Y84900000D01*
X16317054Y84900000D01*
X16566279Y84949574D01*
X16801044Y85046817D01*
X17012327Y85187991D01*
X17192009Y85367673D01*
X17333183Y85578956D01*
X17430426Y85813721D01*
X17480000Y86062946D01*
X17480000Y86317054D01*
X38000000Y86317054D01*
X38000000Y86062946D01*
X38049574Y85813721D01*
X38146817Y85578956D01*
X38287991Y85367673D01*
X38467673Y85187991D01*
X38678956Y85046817D01*
X38913721Y84949574D01*
X39162946Y84900000D01*
X39417054Y84900000D01*
X39666279Y84949574D01*
X39901044Y85046817D01*
X40112327Y85187991D01*
X40292009Y85367673D01*
X40433183Y85578956D01*
X40530426Y85813721D01*
X40580000Y86062946D01*
X40580000Y86317054D01*
X61000000Y86317054D01*
X61000000Y86062946D01*
X61049574Y85813721D01*
X61146817Y85578956D01*
X61287991Y85367673D01*
X61467673Y85187991D01*
X61678956Y85046817D01*
X61913721Y84949574D01*
X62162946Y84900000D01*
X62417054Y84900000D01*
X62666279Y84949574D01*
X62901044Y85046817D01*
X63112327Y85187991D01*
X63292009Y85367673D01*
X63433183Y85578956D01*
X63530426Y85813721D01*
X63580000Y86062946D01*
X63580000Y86317054D01*
X83900000Y86317054D01*
X83900000Y86062946D01*
X83949574Y85813721D01*
X84046817Y85578956D01*
X84187991Y85367673D01*
X84367673Y85187991D01*
X84578956Y85046817D01*
X84813721Y84949574D01*
X85062946Y84900000D01*
X85317054Y84900000D01*
X85566279Y84949574D01*
X85801044Y85046817D01*
X86012327Y85187991D01*
X86192009Y85367673D01*
X86333183Y85578956D01*
X86430426Y85813721D01*
X86480000Y86062946D01*
X86480000Y86317054D01*
X106900000Y86317054D01*
X106900000Y86062946D01*
X106949574Y85813721D01*
X107046817Y85578956D01*
X107187991Y85367673D01*
X107367673Y85187991D01*
X107578956Y85046817D01*
X107813721Y84949574D01*
X108062946Y84900000D01*
X108317054Y84900000D01*
X108566279Y84949574D01*
X108801044Y85046817D01*
X109012327Y85187991D01*
X109192009Y85367673D01*
X109333183Y85578956D01*
X109430426Y85813721D01*
X109480000Y86062946D01*
X109480000Y86317054D01*
X129900000Y86317054D01*
X129900000Y86062946D01*
X129949574Y85813721D01*
X130046817Y85578956D01*
X130187991Y85367673D01*
X130367673Y85187991D01*
X130578956Y85046817D01*
X130813721Y84949574D01*
X131062946Y84900000D01*
X131317054Y84900000D01*
X131566279Y84949574D01*
X131801044Y85046817D01*
X132012327Y85187991D01*
X132192009Y85367673D01*
X132333183Y85578956D01*
X132430426Y85813721D01*
X132480000Y86062946D01*
X132480000Y86317054D01*
X152900000Y86317054D01*
X152900000Y86062946D01*
X152949574Y85813721D01*
X153046817Y85578956D01*
X153187991Y85367673D01*
X153367673Y85187991D01*
X153578956Y85046817D01*
X153813721Y84949574D01*
X154062946Y84900000D01*
X154317054Y84900000D01*
X154566279Y84949574D01*
X154801044Y85046817D01*
X155012327Y85187991D01*
X155192009Y85367673D01*
X155333183Y85578956D01*
X155430426Y85813721D01*
X155480000Y86062946D01*
X155480000Y86317054D01*
X175900000Y86317054D01*
X175900000Y86062946D01*
X175949574Y85813721D01*
X176046817Y85578956D01*
X176187991Y85367673D01*
X176367673Y85187991D01*
X176578956Y85046817D01*
X176813721Y84949574D01*
X177062946Y84900000D01*
X177317054Y84900000D01*
X177566279Y84949574D01*
X177801044Y85046817D01*
X178012327Y85187991D01*
X178192009Y85367673D01*
X178333183Y85578956D01*
X178430426Y85813721D01*
X178480000Y86062946D01*
X178480000Y86317054D01*
X178430426Y86566279D01*
X178333183Y86801044D01*
X178192009Y87012327D01*
X178012327Y87192009D01*
X177801044Y87333183D01*
X177566279Y87430426D01*
X177317054Y87480000D01*
X177062946Y87480000D01*
X176813721Y87430426D01*
X176578956Y87333183D01*
X176367673Y87192009D01*
X176187991Y87012327D01*
X176046817Y86801044D01*
X175949574Y86566279D01*
X175900000Y86317054D01*
X155480000Y86317054D01*
X155430426Y86566279D01*
X155333183Y86801044D01*
X155192009Y87012327D01*
X155012327Y87192009D01*
X154801044Y87333183D01*
X154566279Y87430426D01*
X154317054Y87480000D01*
X154062946Y87480000D01*
X153813721Y87430426D01*
X153578956Y87333183D01*
X153367673Y87192009D01*
X153187991Y87012327D01*
X153046817Y86801044D01*
X152949574Y86566279D01*
X152900000Y86317054D01*
X132480000Y86317054D01*
X132430426Y86566279D01*
X132333183Y86801044D01*
X132192009Y87012327D01*
X132012327Y87192009D01*
X131801044Y87333183D01*
X131566279Y87430426D01*
X131317054Y87480000D01*
X131062946Y87480000D01*
X130813721Y87430426D01*
X130578956Y87333183D01*
X130367673Y87192009D01*
X130187991Y87012327D01*
X130046817Y86801044D01*
X129949574Y86566279D01*
X129900000Y86317054D01*
X109480000Y86317054D01*
X109430426Y86566279D01*
X109333183Y86801044D01*
X109192009Y87012327D01*
X109012327Y87192009D01*
X108801044Y87333183D01*
X108566279Y87430426D01*
X108317054Y87480000D01*
X108062946Y87480000D01*
X107813721Y87430426D01*
X107578956Y87333183D01*
X107367673Y87192009D01*
X107187991Y87012327D01*
X107046817Y86801044D01*
X106949574Y86566279D01*
X106900000Y86317054D01*
X86480000Y86317054D01*
X86430426Y86566279D01*
X86333183Y86801044D01*
X86192009Y87012327D01*
X86012327Y87192009D01*
X85801044Y87333183D01*
X85566279Y87430426D01*
X85317054Y87480000D01*
X85062946Y87480000D01*
X84813721Y87430426D01*
X84578956Y87333183D01*
X84367673Y87192009D01*
X84187991Y87012327D01*
X84046817Y86801044D01*
X83949574Y86566279D01*
X83900000Y86317054D01*
X63580000Y86317054D01*
X63530426Y86566279D01*
X63433183Y86801044D01*
X63292009Y87012327D01*
X63112327Y87192009D01*
X62901044Y87333183D01*
X62666279Y87430426D01*
X62417054Y87480000D01*
X62162946Y87480000D01*
X61913721Y87430426D01*
X61678956Y87333183D01*
X61467673Y87192009D01*
X61287991Y87012327D01*
X61146817Y86801044D01*
X61049574Y86566279D01*
X61000000Y86317054D01*
X40580000Y86317054D01*
X40530426Y86566279D01*
X40433183Y86801044D01*
X40292009Y87012327D01*
X40112327Y87192009D01*
X39901044Y87333183D01*
X39666279Y87430426D01*
X39417054Y87480000D01*
X39162946Y87480000D01*
X38913721Y87430426D01*
X38678956Y87333183D01*
X38467673Y87192009D01*
X38287991Y87012327D01*
X38146817Y86801044D01*
X38049574Y86566279D01*
X38000000Y86317054D01*
X17480000Y86317054D01*
X17430426Y86566279D01*
X17333183Y86801044D01*
X17192009Y87012327D01*
X17012327Y87192009D01*
X16801044Y87333183D01*
X16566279Y87430426D01*
X16317054Y87480000D01*
X16062946Y87480000D01*
X15813721Y87430426D01*
X15578956Y87333183D01*
X15367673Y87192009D01*
X15187991Y87012327D01*
X15046817Y86801044D01*
X14949574Y86566279D01*
X14900000Y86317054D01*
X6365000Y86317054D01*
X6365000Y89635000D01*
X194635000Y89635000D01*
X194635001Y54365000D01*
X194635001Y54365000D01*
G37*
X194635001Y54365000D02*
X6365000Y54365000D01*
X6365000Y57660000D01*
X52560819Y57660000D01*
X52583092Y57433855D01*
X52649056Y57216401D01*
X52756176Y57015994D01*
X52900335Y56840335D01*
X53075994Y56696176D01*
X53276401Y56589056D01*
X53493855Y56523092D01*
X53663334Y56506400D01*
X53776666Y56506400D01*
X53946145Y56523092D01*
X54163599Y56589056D01*
X54364006Y56696176D01*
X54539665Y56840335D01*
X54683824Y57015994D01*
X54790944Y57216401D01*
X54856908Y57433855D01*
X54879181Y57660000D01*
X55100819Y57660000D01*
X55123092Y57433855D01*
X55189056Y57216401D01*
X55296176Y57015994D01*
X55440335Y56840335D01*
X55615994Y56696176D01*
X55816401Y56589056D01*
X56033855Y56523092D01*
X56203334Y56506400D01*
X56316666Y56506400D01*
X56486145Y56523092D01*
X56703599Y56589056D01*
X56904006Y56696176D01*
X57079665Y56840335D01*
X57223824Y57015994D01*
X57330944Y57216401D01*
X57396908Y57433855D01*
X57419181Y57660000D01*
X57640819Y57660000D01*
X57663092Y57433855D01*
X57729056Y57216401D01*
X57836176Y57015994D01*
X57980335Y56840335D01*
X58155994Y56696176D01*
X58356401Y56589056D01*
X58573855Y56523092D01*
X58743334Y56506400D01*
X58856666Y56506400D01*
X59026145Y56523092D01*
X59243599Y56589056D01*
X59444006Y56696176D01*
X59619665Y56840335D01*
X59763824Y57015994D01*
X59870944Y57216401D01*
X59936908Y57433855D01*
X59959181Y57660000D01*
X60180819Y57660000D01*
X60203092Y57433855D01*
X60269056Y57216401D01*
X60376176Y57015994D01*
X60520335Y56840335D01*
X60695994Y56696176D01*
X60896401Y56589056D01*
X61113855Y56523092D01*
X61283334Y56506400D01*
X61396666Y56506400D01*
X61566145Y56523092D01*
X61783599Y56589056D01*
X61984006Y56696176D01*
X62159665Y56840335D01*
X62303824Y57015994D01*
X62410944Y57216401D01*
X62476908Y57433855D01*
X62499181Y57660000D01*
X62720819Y57660000D01*
X62743092Y57433855D01*
X62809056Y57216401D01*
X62916176Y57015994D01*
X63060335Y56840335D01*
X63235994Y56696176D01*
X63436401Y56589056D01*
X63653855Y56523092D01*
X63823334Y56506400D01*
X63936666Y56506400D01*
X64106145Y56523092D01*
X64323599Y56589056D01*
X64524006Y56696176D01*
X64699665Y56840335D01*
X64843824Y57015994D01*
X64950944Y57216401D01*
X65016908Y57433855D01*
X65039181Y57660000D01*
X65260819Y57660000D01*
X65283092Y57433855D01*
X65349056Y57216401D01*
X65456176Y57015994D01*
X65600335Y56840335D01*
X65775994Y56696176D01*
X65976401Y56589056D01*
X66193855Y56523092D01*
X66363334Y56506400D01*
X66476666Y56506400D01*
X66646145Y56523092D01*
X66863599Y56589056D01*
X67064006Y56696176D01*
X67239665Y56840335D01*
X67383824Y57015994D01*
X67490944Y57216401D01*
X67556908Y57433855D01*
X67579181Y57660000D01*
X67800819Y57660000D01*
X67823092Y57433855D01*
X67889056Y57216401D01*
X67996176Y57015994D01*
X68140335Y56840335D01*
X68315994Y56696176D01*
X68516401Y56589056D01*
X68733855Y56523092D01*
X68903334Y56506400D01*
X69016666Y56506400D01*
X69186145Y56523092D01*
X69403599Y56589056D01*
X69604006Y56696176D01*
X69779665Y56840335D01*
X69923824Y57015994D01*
X70030944Y57216401D01*
X70096908Y57433855D01*
X70119181Y57660000D01*
X70340819Y57660000D01*
X70363092Y57433855D01*
X70429056Y57216401D01*
X70536176Y57015994D01*
X70680335Y56840335D01*
X70855994Y56696176D01*
X71056401Y56589056D01*
X71273855Y56523092D01*
X71443334Y56506400D01*
X71556666Y56506400D01*
X71726145Y56523092D01*
X71943599Y56589056D01*
X72144006Y56696176D01*
X72319665Y56840335D01*
X72463824Y57015994D01*
X72570944Y57216401D01*
X72636908Y57433855D01*
X72659181Y57660000D01*
X72880819Y57660000D01*
X72903092Y57433855D01*
X72969056Y57216401D01*
X73076176Y57015994D01*
X73220335Y56840335D01*
X73395994Y56696176D01*
X73596401Y56589056D01*
X73813855Y56523092D01*
X73983334Y56506400D01*
X74096666Y56506400D01*
X74266145Y56523092D01*
X74483599Y56589056D01*
X74684006Y56696176D01*
X74859665Y56840335D01*
X75003824Y57015994D01*
X75110944Y57216401D01*
X75176908Y57433855D01*
X75199181Y57660000D01*
X75420819Y57660000D01*
X75443092Y57433855D01*
X75509056Y57216401D01*
X75616176Y57015994D01*
X75760335Y56840335D01*
X75935994Y56696176D01*
X76136401Y56589056D01*
X76353855Y56523092D01*
X76523334Y56506400D01*
X76636666Y56506400D01*
X76806145Y56523092D01*
X77023599Y56589056D01*
X77224006Y56696176D01*
X77399665Y56840335D01*
X77543824Y57015994D01*
X77650944Y57216401D01*
X77716908Y57433855D01*
X77739181Y57660000D01*
X77960819Y57660000D01*
X77983092Y57433855D01*
X78049056Y57216401D01*
X78156176Y57015994D01*
X78300335Y56840335D01*
X78475994Y56696176D01*
X78676401Y56589056D01*
X78893855Y56523092D01*
X79063334Y56506400D01*
X79176666Y56506400D01*
X79346145Y56523092D01*
X79563599Y56589056D01*
X79764006Y56696176D01*
X79939665Y56840335D01*
X80083824Y57015994D01*
X80190944Y57216401D01*
X80256908Y57433855D01*
X80279181Y57660000D01*
X80500819Y57660000D01*
X80523092Y57433855D01*
X80589056Y57216401D01*
X80696176Y57015994D01*
X80840335Y56840335D01*
X81015994Y56696176D01*
X81216401Y56589056D01*
X81433855Y56523092D01*
X81603334Y56506400D01*
X81716666Y56506400D01*
X81886145Y56523092D01*
X82103599Y56589056D01*
X82304006Y56696176D01*
X82479665Y56840335D01*
X82623824Y57015994D01*
X82730944Y57216401D01*
X82796908Y57433855D01*
X82819181Y57660000D01*
X83040819Y57660000D01*
X83063092Y57433855D01*
X83129056Y57216401D01*
X83236176Y57015994D01*
X83380335Y56840335D01*
X83555994Y56696176D01*
X83756401Y56589056D01*
X83973855Y56523092D01*
X84143334Y56506400D01*
X84256666Y56506400D01*
X84426145Y56523092D01*
X84643599Y56589056D01*
X84844006Y56696176D01*
X85019665Y56840335D01*
X85163824Y57015994D01*
X85270944Y57216401D01*
X85336908Y57433855D01*
X85359181Y57660000D01*
X85336908Y57886145D01*
X85270944Y58103599D01*
X85163824Y58304006D01*
X85019665Y58479665D01*
X84844006Y58623824D01*
X84643599Y58730944D01*
X84426145Y58796908D01*
X84256666Y58813600D01*
X84143334Y58813600D01*
X83973855Y58796908D01*
X83756401Y58730944D01*
X83555994Y58623824D01*
X83380335Y58479665D01*
X83236176Y58304006D01*
X83129056Y58103599D01*
X83063092Y57886145D01*
X83040819Y57660000D01*
X82819181Y57660000D01*
X82796908Y57886145D01*
X82730944Y58103599D01*
X82623824Y58304006D01*
X82479665Y58479665D01*
X82304006Y58623824D01*
X82103599Y58730944D01*
X81886145Y58796908D01*
X81716666Y58813600D01*
X81603334Y58813600D01*
X81433855Y58796908D01*
X81216401Y58730944D01*
X81015994Y58623824D01*
X80840335Y58479665D01*
X80696176Y58304006D01*
X80589056Y58103599D01*
X80523092Y57886145D01*
X80500819Y57660000D01*
X80279181Y57660000D01*
X80256908Y57886145D01*
X80190944Y58103599D01*
X80083824Y58304006D01*
X79939665Y58479665D01*
X79764006Y58623824D01*
X79563599Y58730944D01*
X79346145Y58796908D01*
X79176666Y58813600D01*
X79063334Y58813600D01*
X78893855Y58796908D01*
X78676401Y58730944D01*
X78475994Y58623824D01*
X78300335Y58479665D01*
X78156176Y58304006D01*
X78049056Y58103599D01*
X77983092Y57886145D01*
X77960819Y57660000D01*
X77739181Y57660000D01*
X77716908Y57886145D01*
X77650944Y58103599D01*
X77543824Y58304006D01*
X77399665Y58479665D01*
X77224006Y58623824D01*
X77023599Y58730944D01*
X76806145Y58796908D01*
X76636666Y58813600D01*
X76523334Y58813600D01*
X76353855Y58796908D01*
X76136401Y58730944D01*
X75935994Y58623824D01*
X75760335Y58479665D01*
X75616176Y58304006D01*
X75509056Y58103599D01*
X75443092Y57886145D01*
X75420819Y57660000D01*
X75199181Y57660000D01*
X75176908Y57886145D01*
X75110944Y58103599D01*
X75003824Y58304006D01*
X74859665Y58479665D01*
X74684006Y58623824D01*
X74483599Y58730944D01*
X74266145Y58796908D01*
X74096666Y58813600D01*
X73983334Y58813600D01*
X73813855Y58796908D01*
X73596401Y58730944D01*
X73395994Y58623824D01*
X73220335Y58479665D01*
X73076176Y58304006D01*
X72969056Y58103599D01*
X72903092Y57886145D01*
X72880819Y57660000D01*
X72659181Y57660000D01*
X72636908Y57886145D01*
X72570944Y58103599D01*
X72463824Y58304006D01*
X72319665Y58479665D01*
X72144006Y58623824D01*
X71943599Y58730944D01*
X71726145Y58796908D01*
X71556666Y58813600D01*
X71443334Y58813600D01*
X71273855Y58796908D01*
X71056401Y58730944D01*
X70855994Y58623824D01*
X70680335Y58479665D01*
X70536176Y58304006D01*
X70429056Y58103599D01*
X70363092Y57886145D01*
X70340819Y57660000D01*
X70119181Y57660000D01*
X70096908Y57886145D01*
X70030944Y58103599D01*
X69923824Y58304006D01*
X69779665Y58479665D01*
X69604006Y58623824D01*
X69403599Y58730944D01*
X69186145Y58796908D01*
X69016666Y58813600D01*
X68903334Y58813600D01*
X68733855Y58796908D01*
X68516401Y58730944D01*
X68315994Y58623824D01*
X68140335Y58479665D01*
X67996176Y58304006D01*
X67889056Y58103599D01*
X67823092Y57886145D01*
X67800819Y57660000D01*
X67579181Y57660000D01*
X67556908Y57886145D01*
X67490944Y58103599D01*
X67383824Y58304006D01*
X67239665Y58479665D01*
X67064006Y58623824D01*
X66863599Y58730944D01*
X66646145Y58796908D01*
X66476666Y58813600D01*
X66363334Y58813600D01*
X66193855Y58796908D01*
X65976401Y58730944D01*
X65775994Y58623824D01*
X65600335Y58479665D01*
X65456176Y58304006D01*
X65349056Y58103599D01*
X65283092Y57886145D01*
X65260819Y57660000D01*
X65039181Y57660000D01*
X65016908Y57886145D01*
X64950944Y58103599D01*
X64843824Y58304006D01*
X64699665Y58479665D01*
X64524006Y58623824D01*
X64323599Y58730944D01*
X64106145Y58796908D01*
X63936666Y58813600D01*
X63823334Y58813600D01*
X63653855Y58796908D01*
X63436401Y58730944D01*
X63235994Y58623824D01*
X63060335Y58479665D01*
X62916176Y58304006D01*
X62809056Y58103599D01*
X62743092Y57886145D01*
X62720819Y57660000D01*
X62499181Y57660000D01*
X62476908Y57886145D01*
X62410944Y58103599D01*
X62303824Y58304006D01*
X62159665Y58479665D01*
X61984006Y58623824D01*
X61783599Y58730944D01*
X61566145Y58796908D01*
X61396666Y58813600D01*
X61283334Y58813600D01*
X61113855Y58796908D01*
X60896401Y58730944D01*
X60695994Y58623824D01*
X60520335Y58479665D01*
X60376176Y58304006D01*
X60269056Y58103599D01*
X60203092Y57886145D01*
X60180819Y57660000D01*
X59959181Y57660000D01*
X59936908Y57886145D01*
X59870944Y58103599D01*
X59763824Y58304006D01*
X59619665Y58479665D01*
X59444006Y58623824D01*
X59243599Y58730944D01*
X59026145Y58796908D01*
X58856666Y58813600D01*
X58743334Y58813600D01*
X58573855Y58796908D01*
X58356401Y58730944D01*
X58155994Y58623824D01*
X57980335Y58479665D01*
X57836176Y58304006D01*
X57729056Y58103599D01*
X57663092Y57886145D01*
X57640819Y57660000D01*
X57419181Y57660000D01*
X57396908Y57886145D01*
X57330944Y58103599D01*
X57223824Y58304006D01*
X57079665Y58479665D01*
X56904006Y58623824D01*
X56703599Y58730944D01*
X56486145Y58796908D01*
X56316666Y58813600D01*
X56203334Y58813600D01*
X56033855Y58796908D01*
X55816401Y58730944D01*
X55615994Y58623824D01*
X55440335Y58479665D01*
X55296176Y58304006D01*
X55189056Y58103599D01*
X55123092Y57886145D01*
X55100819Y57660000D01*
X54879181Y57660000D01*
X54856908Y57886145D01*
X54790944Y58103599D01*
X54683824Y58304006D01*
X54539665Y58479665D01*
X54364006Y58623824D01*
X54163599Y58730944D01*
X53946145Y58796908D01*
X53776666Y58813600D01*
X53663334Y58813600D01*
X53493855Y58796908D01*
X53276401Y58730944D01*
X53075994Y58623824D01*
X52900335Y58479665D01*
X52756176Y58304006D01*
X52649056Y58103599D01*
X52583092Y57886145D01*
X52560819Y57660000D01*
X6365000Y57660000D01*
X6365000Y60200000D01*
X52560819Y60200000D01*
X52583092Y59973855D01*
X52649056Y59756401D01*
X52756176Y59555994D01*
X52900335Y59380335D01*
X53075994Y59236176D01*
X53276401Y59129056D01*
X53493855Y59063092D01*
X53663334Y59046400D01*
X53776666Y59046400D01*
X53946145Y59063092D01*
X54163599Y59129056D01*
X54364006Y59236176D01*
X54539665Y59380335D01*
X54683824Y59555994D01*
X54790944Y59756401D01*
X54856908Y59973855D01*
X54879181Y60200000D01*
X55100819Y60200000D01*
X55123092Y59973855D01*
X55189056Y59756401D01*
X55296176Y59555994D01*
X55440335Y59380335D01*
X55615994Y59236176D01*
X55816401Y59129056D01*
X56033855Y59063092D01*
X56203334Y59046400D01*
X56316666Y59046400D01*
X56486145Y59063092D01*
X56703599Y59129056D01*
X56904006Y59236176D01*
X57079665Y59380335D01*
X57223824Y59555994D01*
X57330944Y59756401D01*
X57396908Y59973855D01*
X57419181Y60200000D01*
X57640819Y60200000D01*
X57663092Y59973855D01*
X57729056Y59756401D01*
X57836176Y59555994D01*
X57980335Y59380335D01*
X58155994Y59236176D01*
X58356401Y59129056D01*
X58573855Y59063092D01*
X58743334Y59046400D01*
X58856666Y59046400D01*
X59026145Y59063092D01*
X59243599Y59129056D01*
X59444006Y59236176D01*
X59619665Y59380335D01*
X59763824Y59555994D01*
X59870944Y59756401D01*
X59936908Y59973855D01*
X59959181Y60200000D01*
X60180819Y60200000D01*
X60203092Y59973855D01*
X60269056Y59756401D01*
X60376176Y59555994D01*
X60520335Y59380335D01*
X60695994Y59236176D01*
X60896401Y59129056D01*
X61113855Y59063092D01*
X61283334Y59046400D01*
X61396666Y59046400D01*
X61566145Y59063092D01*
X61783599Y59129056D01*
X61984006Y59236176D01*
X62159665Y59380335D01*
X62303824Y59555994D01*
X62410944Y59756401D01*
X62476908Y59973855D01*
X62499181Y60200000D01*
X62720819Y60200000D01*
X62743092Y59973855D01*
X62809056Y59756401D01*
X62916176Y59555994D01*
X63060335Y59380335D01*
X63235994Y59236176D01*
X63436401Y59129056D01*
X63653855Y59063092D01*
X63823334Y59046400D01*
X63936666Y59046400D01*
X64106145Y59063092D01*
X64323599Y59129056D01*
X64524006Y59236176D01*
X64699665Y59380335D01*
X64843824Y59555994D01*
X64950944Y59756401D01*
X65016908Y59973855D01*
X65039181Y60200000D01*
X65260819Y60200000D01*
X65283092Y59973855D01*
X65349056Y59756401D01*
X65456176Y59555994D01*
X65600335Y59380335D01*
X65775994Y59236176D01*
X65976401Y59129056D01*
X66193855Y59063092D01*
X66363334Y59046400D01*
X66476666Y59046400D01*
X66646145Y59063092D01*
X66863599Y59129056D01*
X67064006Y59236176D01*
X67239665Y59380335D01*
X67383824Y59555994D01*
X67490944Y59756401D01*
X67556908Y59973855D01*
X67579181Y60200000D01*
X67800819Y60200000D01*
X67823092Y59973855D01*
X67889056Y59756401D01*
X67996176Y59555994D01*
X68140335Y59380335D01*
X68315994Y59236176D01*
X68516401Y59129056D01*
X68733855Y59063092D01*
X68903334Y59046400D01*
X69016666Y59046400D01*
X69186145Y59063092D01*
X69403599Y59129056D01*
X69604006Y59236176D01*
X69779665Y59380335D01*
X69923824Y59555994D01*
X70030944Y59756401D01*
X70096908Y59973855D01*
X70119181Y60200000D01*
X70340819Y60200000D01*
X70363092Y59973855D01*
X70429056Y59756401D01*
X70536176Y59555994D01*
X70680335Y59380335D01*
X70855994Y59236176D01*
X71056401Y59129056D01*
X71273855Y59063092D01*
X71443334Y59046400D01*
X71556666Y59046400D01*
X71726145Y59063092D01*
X71943599Y59129056D01*
X72144006Y59236176D01*
X72319665Y59380335D01*
X72463824Y59555994D01*
X72570944Y59756401D01*
X72636908Y59973855D01*
X72659181Y60200000D01*
X72880819Y60200000D01*
X72903092Y59973855D01*
X72969056Y59756401D01*
X73076176Y59555994D01*
X73220335Y59380335D01*
X73395994Y59236176D01*
X73596401Y59129056D01*
X73813855Y59063092D01*
X73983334Y59046400D01*
X74096666Y59046400D01*
X74266145Y59063092D01*
X74483599Y59129056D01*
X74684006Y59236176D01*
X74859665Y59380335D01*
X75003824Y59555994D01*
X75110944Y59756401D01*
X75176908Y59973855D01*
X75199181Y60200000D01*
X75420819Y60200000D01*
X75443092Y59973855D01*
X75509056Y59756401D01*
X75616176Y59555994D01*
X75760335Y59380335D01*
X75935994Y59236176D01*
X76136401Y59129056D01*
X76353855Y59063092D01*
X76523334Y59046400D01*
X76636666Y59046400D01*
X76806145Y59063092D01*
X77023599Y59129056D01*
X77224006Y59236176D01*
X77399665Y59380335D01*
X77543824Y59555994D01*
X77650944Y59756401D01*
X77716908Y59973855D01*
X77739181Y60200000D01*
X77960819Y60200000D01*
X77983092Y59973855D01*
X78049056Y59756401D01*
X78156176Y59555994D01*
X78300335Y59380335D01*
X78475994Y59236176D01*
X78676401Y59129056D01*
X78893855Y59063092D01*
X79063334Y59046400D01*
X79176666Y59046400D01*
X79346145Y59063092D01*
X79563599Y59129056D01*
X79764006Y59236176D01*
X79939665Y59380335D01*
X80083824Y59555994D01*
X80190944Y59756401D01*
X80256908Y59973855D01*
X80279181Y60200000D01*
X80500819Y60200000D01*
X80523092Y59973855D01*
X80589056Y59756401D01*
X80696176Y59555994D01*
X80840335Y59380335D01*
X81015994Y59236176D01*
X81216401Y59129056D01*
X81433855Y59063092D01*
X81603334Y59046400D01*
X81716666Y59046400D01*
X81886145Y59063092D01*
X82103599Y59129056D01*
X82304006Y59236176D01*
X82479665Y59380335D01*
X82623824Y59555994D01*
X82730944Y59756401D01*
X82796908Y59973855D01*
X82819181Y60200000D01*
X82796908Y60426145D01*
X82730944Y60643599D01*
X82623824Y60844006D01*
X82479665Y61019665D01*
X82426130Y61063600D01*
X83044997Y61063600D01*
X83044997Y59336400D01*
X83050596Y59279550D01*
X83067179Y59224885D01*
X83094107Y59174505D01*
X83130347Y59130347D01*
X83174505Y59094107D01*
X83224885Y59067179D01*
X83279550Y59050596D01*
X83336400Y59044997D01*
X85063600Y59044997D01*
X85120450Y59050596D01*
X85175115Y59067179D01*
X85225495Y59094107D01*
X85269653Y59130347D01*
X85305893Y59174505D01*
X85332821Y59224885D01*
X85349404Y59279550D01*
X85355003Y59336400D01*
X85355003Y61063600D01*
X85349404Y61120450D01*
X85332821Y61175115D01*
X85305893Y61225495D01*
X85269653Y61269653D01*
X85225495Y61305893D01*
X85175115Y61332821D01*
X85120450Y61349404D01*
X85063600Y61355003D01*
X83336400Y61355003D01*
X83279550Y61349404D01*
X83224885Y61332821D01*
X83174505Y61305893D01*
X83130347Y61269653D01*
X83094107Y61225495D01*
X83067179Y61175115D01*
X83050596Y61120450D01*
X83044997Y61063600D01*
X82426130Y61063600D01*
X82304006Y61163824D01*
X82103599Y61270944D01*
X81886145Y61336908D01*
X81716666Y61353600D01*
X81603334Y61353600D01*
X81433855Y61336908D01*
X81216401Y61270944D01*
X81015994Y61163824D01*
X80840335Y61019665D01*
X80696176Y60844006D01*
X80589056Y60643599D01*
X80523092Y60426145D01*
X80500819Y60200000D01*
X80279181Y60200000D01*
X80256908Y60426145D01*
X80190944Y60643599D01*
X80083824Y60844006D01*
X79939665Y61019665D01*
X79764006Y61163824D01*
X79563599Y61270944D01*
X79346145Y61336908D01*
X79176666Y61353600D01*
X79063334Y61353600D01*
X78893855Y61336908D01*
X78676401Y61270944D01*
X78475994Y61163824D01*
X78300335Y61019665D01*
X78156176Y60844006D01*
X78049056Y60643599D01*
X77983092Y60426145D01*
X77960819Y60200000D01*
X77739181Y60200000D01*
X77716908Y60426145D01*
X77650944Y60643599D01*
X77543824Y60844006D01*
X77399665Y61019665D01*
X77224006Y61163824D01*
X77023599Y61270944D01*
X76806145Y61336908D01*
X76636666Y61353600D01*
X76523334Y61353600D01*
X76353855Y61336908D01*
X76136401Y61270944D01*
X75935994Y61163824D01*
X75760335Y61019665D01*
X75616176Y60844006D01*
X75509056Y60643599D01*
X75443092Y60426145D01*
X75420819Y60200000D01*
X75199181Y60200000D01*
X75176908Y60426145D01*
X75110944Y60643599D01*
X75003824Y60844006D01*
X74859665Y61019665D01*
X74684006Y61163824D01*
X74483599Y61270944D01*
X74266145Y61336908D01*
X74096666Y61353600D01*
X73983334Y61353600D01*
X73813855Y61336908D01*
X73596401Y61270944D01*
X73395994Y61163824D01*
X73220335Y61019665D01*
X73076176Y60844006D01*
X72969056Y60643599D01*
X72903092Y60426145D01*
X72880819Y60200000D01*
X72659181Y60200000D01*
X72636908Y60426145D01*
X72570944Y60643599D01*
X72463824Y60844006D01*
X72319665Y61019665D01*
X72144006Y61163824D01*
X71943599Y61270944D01*
X71726145Y61336908D01*
X71556666Y61353600D01*
X71443334Y61353600D01*
X71273855Y61336908D01*
X71056401Y61270944D01*
X70855994Y61163824D01*
X70680335Y61019665D01*
X70536176Y60844006D01*
X70429056Y60643599D01*
X70363092Y60426145D01*
X70340819Y60200000D01*
X70119181Y60200000D01*
X70096908Y60426145D01*
X70030944Y60643599D01*
X69923824Y60844006D01*
X69779665Y61019665D01*
X69604006Y61163824D01*
X69403599Y61270944D01*
X69186145Y61336908D01*
X69016666Y61353600D01*
X68903334Y61353600D01*
X68733855Y61336908D01*
X68516401Y61270944D01*
X68315994Y61163824D01*
X68140335Y61019665D01*
X67996176Y60844006D01*
X67889056Y60643599D01*
X67823092Y60426145D01*
X67800819Y60200000D01*
X67579181Y60200000D01*
X67556908Y60426145D01*
X67490944Y60643599D01*
X67383824Y60844006D01*
X67239665Y61019665D01*
X67064006Y61163824D01*
X66863599Y61270944D01*
X66646145Y61336908D01*
X66476666Y61353600D01*
X66363334Y61353600D01*
X66193855Y61336908D01*
X65976401Y61270944D01*
X65775994Y61163824D01*
X65600335Y61019665D01*
X65456176Y60844006D01*
X65349056Y60643599D01*
X65283092Y60426145D01*
X65260819Y60200000D01*
X65039181Y60200000D01*
X65016908Y60426145D01*
X64950944Y60643599D01*
X64843824Y60844006D01*
X64699665Y61019665D01*
X64524006Y61163824D01*
X64323599Y61270944D01*
X64106145Y61336908D01*
X63936666Y61353600D01*
X63823334Y61353600D01*
X63653855Y61336908D01*
X63436401Y61270944D01*
X63235994Y61163824D01*
X63060335Y61019665D01*
X62916176Y60844006D01*
X62809056Y60643599D01*
X62743092Y60426145D01*
X62720819Y60200000D01*
X62499181Y60200000D01*
X62476908Y60426145D01*
X62410944Y60643599D01*
X62303824Y60844006D01*
X62159665Y61019665D01*
X61984006Y61163824D01*
X61783599Y61270944D01*
X61566145Y61336908D01*
X61396666Y61353600D01*
X61283334Y61353600D01*
X61113855Y61336908D01*
X60896401Y61270944D01*
X60695994Y61163824D01*
X60520335Y61019665D01*
X60376176Y60844006D01*
X60269056Y60643599D01*
X60203092Y60426145D01*
X60180819Y60200000D01*
X59959181Y60200000D01*
X59936908Y60426145D01*
X59870944Y60643599D01*
X59763824Y60844006D01*
X59619665Y61019665D01*
X59444006Y61163824D01*
X59243599Y61270944D01*
X59026145Y61336908D01*
X58856666Y61353600D01*
X58743334Y61353600D01*
X58573855Y61336908D01*
X58356401Y61270944D01*
X58155994Y61163824D01*
X57980335Y61019665D01*
X57836176Y60844006D01*
X57729056Y60643599D01*
X57663092Y60426145D01*
X57640819Y60200000D01*
X57419181Y60200000D01*
X57396908Y60426145D01*
X57330944Y60643599D01*
X57223824Y60844006D01*
X57079665Y61019665D01*
X56904006Y61163824D01*
X56703599Y61270944D01*
X56486145Y61336908D01*
X56316666Y61353600D01*
X56203334Y61353600D01*
X56033855Y61336908D01*
X55816401Y61270944D01*
X55615994Y61163824D01*
X55440335Y61019665D01*
X55296176Y60844006D01*
X55189056Y60643599D01*
X55123092Y60426145D01*
X55100819Y60200000D01*
X54879181Y60200000D01*
X54856908Y60426145D01*
X54790944Y60643599D01*
X54683824Y60844006D01*
X54539665Y61019665D01*
X54364006Y61163824D01*
X54163599Y61270944D01*
X53946145Y61336908D01*
X53776666Y61353600D01*
X53663334Y61353600D01*
X53493855Y61336908D01*
X53276401Y61270944D01*
X53075994Y61163824D01*
X52900335Y61019665D01*
X52756176Y60844006D01*
X52649056Y60643599D01*
X52583092Y60426145D01*
X52560819Y60200000D01*
X6365000Y60200000D01*
X6365000Y72957356D01*
X18910000Y72957356D01*
X18910000Y72742644D01*
X18951888Y72532059D01*
X19034055Y72333691D01*
X19153342Y72155166D01*
X19305166Y72003342D01*
X19483691Y71884055D01*
X19682059Y71801888D01*
X19892644Y71760000D01*
X20107356Y71760000D01*
X20317941Y71801888D01*
X20453672Y71858110D01*
X21410000Y71858110D01*
X21410000Y71741890D01*
X21432673Y71627903D01*
X21477149Y71520530D01*
X21541717Y71423897D01*
X21623897Y71341717D01*
X21720530Y71277149D01*
X21827903Y71232673D01*
X21941890Y71210000D01*
X22058110Y71210000D01*
X22172097Y71232673D01*
X22279470Y71277149D01*
X22376103Y71341717D01*
X22458283Y71423897D01*
X22522851Y71520530D01*
X22567327Y71627903D01*
X22590000Y71741890D01*
X22590000Y71858110D01*
X23410000Y71858110D01*
X23410000Y71741890D01*
X23432673Y71627903D01*
X23477149Y71520530D01*
X23541717Y71423897D01*
X23623897Y71341717D01*
X23720530Y71277149D01*
X23827903Y71232673D01*
X23941890Y71210000D01*
X24058110Y71210000D01*
X24172097Y71232673D01*
X24279470Y71277149D01*
X24376103Y71341717D01*
X24458283Y71423897D01*
X24522851Y71520530D01*
X24567327Y71627903D01*
X24590000Y71741890D01*
X24590000Y71858110D01*
X27410000Y71858110D01*
X27410000Y71741890D01*
X27432673Y71627903D01*
X27477149Y71520530D01*
X27541717Y71423897D01*
X27623897Y71341717D01*
X27720530Y71277149D01*
X27827903Y71232673D01*
X27941890Y71210000D01*
X28058110Y71210000D01*
X28172097Y71232673D01*
X28279470Y71277149D01*
X28376103Y71341717D01*
X28458283Y71423897D01*
X28522851Y71520530D01*
X28567327Y71627903D01*
X28590000Y71741890D01*
X28590000Y71858110D01*
X29410000Y71858110D01*
X29410000Y71741890D01*
X29432673Y71627903D01*
X29477149Y71520530D01*
X29541717Y71423897D01*
X29623897Y71341717D01*
X29720530Y71277149D01*
X29827903Y71232673D01*
X29941890Y71210000D01*
X30058110Y71210000D01*
X30172097Y71232673D01*
X30279470Y71277149D01*
X30376103Y71341717D01*
X30458283Y71423897D01*
X30522851Y71520530D01*
X30567327Y71627903D01*
X30590000Y71741890D01*
X30590000Y71858110D01*
X30567327Y71972097D01*
X30522851Y72079470D01*
X30458283Y72176103D01*
X30376103Y72258283D01*
X30279470Y72322851D01*
X30172097Y72367327D01*
X30058110Y72390000D01*
X29941890Y72390000D01*
X29827903Y72367327D01*
X29720530Y72322851D01*
X29623897Y72258283D01*
X29541717Y72176103D01*
X29477149Y72079470D01*
X29432673Y71972097D01*
X29410000Y71858110D01*
X28590000Y71858110D01*
X28567327Y71972097D01*
X28522851Y72079470D01*
X28458283Y72176103D01*
X28376103Y72258283D01*
X28279470Y72322851D01*
X28172097Y72367327D01*
X28058110Y72390000D01*
X27941890Y72390000D01*
X27827903Y72367327D01*
X27720530Y72322851D01*
X27623897Y72258283D01*
X27541717Y72176103D01*
X27477149Y72079470D01*
X27432673Y71972097D01*
X27410000Y71858110D01*
X24590000Y71858110D01*
X24567327Y71972097D01*
X24522851Y72079470D01*
X24458283Y72176103D01*
X24376103Y72258283D01*
X24279470Y72322851D01*
X24172097Y72367327D01*
X24058110Y72390000D01*
X23941890Y72390000D01*
X23827903Y72367327D01*
X23720530Y72322851D01*
X23623897Y72258283D01*
X23541717Y72176103D01*
X23477149Y72079470D01*
X23432673Y71972097D01*
X23410000Y71858110D01*
X22590000Y71858110D01*
X22567327Y71972097D01*
X22522851Y72079470D01*
X22458283Y72176103D01*
X22376103Y72258283D01*
X22279470Y72322851D01*
X22172097Y72367327D01*
X22058110Y72390000D01*
X21941890Y72390000D01*
X21827903Y72367327D01*
X21720530Y72322851D01*
X21623897Y72258283D01*
X21541717Y72176103D01*
X21477149Y72079470D01*
X21432673Y71972097D01*
X21410000Y71858110D01*
X20453672Y71858110D01*
X20516309Y71884055D01*
X20694834Y72003342D01*
X20846658Y72155166D01*
X20965945Y72333691D01*
X21048112Y72532059D01*
X21090000Y72742644D01*
X21090000Y72957356D01*
X42010000Y72957356D01*
X42010000Y72742644D01*
X42051888Y72532059D01*
X42134055Y72333691D01*
X42253342Y72155166D01*
X42405166Y72003342D01*
X42583691Y71884055D01*
X42782059Y71801888D01*
X42992644Y71760000D01*
X43207356Y71760000D01*
X43417941Y71801888D01*
X43616309Y71884055D01*
X43727139Y71958110D01*
X44410000Y71958110D01*
X44410000Y71841890D01*
X44432673Y71727903D01*
X44477149Y71620530D01*
X44541717Y71523897D01*
X44623897Y71441717D01*
X44720530Y71377149D01*
X44827903Y71332673D01*
X44941890Y71310000D01*
X45058110Y71310000D01*
X45172097Y71332673D01*
X45279470Y71377149D01*
X45376103Y71441717D01*
X45458283Y71523897D01*
X45522851Y71620530D01*
X45567327Y71727903D01*
X45590000Y71841890D01*
X45590000Y71858110D01*
X52410000Y71858110D01*
X52410000Y71741890D01*
X52432673Y71627903D01*
X52477149Y71520530D01*
X52541717Y71423897D01*
X52623897Y71341717D01*
X52720530Y71277149D01*
X52827903Y71232673D01*
X52941890Y71210000D01*
X53058110Y71210000D01*
X53172097Y71232673D01*
X53279470Y71277149D01*
X53376103Y71341717D01*
X53458283Y71423897D01*
X53522851Y71520530D01*
X53567327Y71627903D01*
X53590000Y71741890D01*
X53590000Y71858110D01*
X54410000Y71858110D01*
X54410000Y71741890D01*
X54432673Y71627903D01*
X54477149Y71520530D01*
X54541717Y71423897D01*
X54623897Y71341717D01*
X54720530Y71277149D01*
X54827903Y71232673D01*
X54941890Y71210000D01*
X55058110Y71210000D01*
X55172097Y71232673D01*
X55279470Y71277149D01*
X55376103Y71341717D01*
X55458283Y71423897D01*
X55522851Y71520530D01*
X55567327Y71627903D01*
X55590000Y71741890D01*
X55590000Y71858110D01*
X59410000Y71858110D01*
X59410000Y71741890D01*
X59432673Y71627903D01*
X59477149Y71520530D01*
X59541717Y71423897D01*
X59623897Y71341717D01*
X59720530Y71277149D01*
X59827903Y71232673D01*
X59941890Y71210000D01*
X60058110Y71210000D01*
X60172097Y71232673D01*
X60279470Y71277149D01*
X60376103Y71341717D01*
X60458283Y71423897D01*
X60522851Y71520530D01*
X60567327Y71627903D01*
X60590000Y71741890D01*
X60590000Y71858110D01*
X61410000Y71858110D01*
X61410000Y71741890D01*
X61432673Y71627903D01*
X61477149Y71520530D01*
X61541717Y71423897D01*
X61623897Y71341717D01*
X61720530Y71277149D01*
X61827903Y71232673D01*
X61941890Y71210000D01*
X62058110Y71210000D01*
X62172097Y71232673D01*
X62279470Y71277149D01*
X62376103Y71341717D01*
X62458283Y71423897D01*
X62522851Y71520530D01*
X62567327Y71627903D01*
X62590000Y71741890D01*
X62590000Y71858110D01*
X62567327Y71972097D01*
X62522851Y72079470D01*
X62458283Y72176103D01*
X62376103Y72258283D01*
X62279470Y72322851D01*
X62172097Y72367327D01*
X62058110Y72390000D01*
X61941890Y72390000D01*
X61827903Y72367327D01*
X61720530Y72322851D01*
X61623897Y72258283D01*
X61541717Y72176103D01*
X61477149Y72079470D01*
X61432673Y71972097D01*
X61410000Y71858110D01*
X60590000Y71858110D01*
X60567327Y71972097D01*
X60522851Y72079470D01*
X60458283Y72176103D01*
X60376103Y72258283D01*
X60279470Y72322851D01*
X60172097Y72367327D01*
X60058110Y72390000D01*
X59941890Y72390000D01*
X59827903Y72367327D01*
X59720530Y72322851D01*
X59623897Y72258283D01*
X59541717Y72176103D01*
X59477149Y72079470D01*
X59432673Y71972097D01*
X59410000Y71858110D01*
X55590000Y71858110D01*
X55567327Y71972097D01*
X55522851Y72079470D01*
X55458283Y72176103D01*
X55376103Y72258283D01*
X55279470Y72322851D01*
X55172097Y72367327D01*
X55058110Y72390000D01*
X54941890Y72390000D01*
X54827903Y72367327D01*
X54720530Y72322851D01*
X54623897Y72258283D01*
X54541717Y72176103D01*
X54477149Y72079470D01*
X54432673Y71972097D01*
X54410000Y71858110D01*
X53590000Y71858110D01*
X53567327Y71972097D01*
X53522851Y72079470D01*
X53458283Y72176103D01*
X53376103Y72258283D01*
X53279470Y72322851D01*
X53172097Y72367327D01*
X53058110Y72390000D01*
X52941890Y72390000D01*
X52827903Y72367327D01*
X52720530Y72322851D01*
X52623897Y72258283D01*
X52541717Y72176103D01*
X52477149Y72079470D01*
X52432673Y71972097D01*
X52410000Y71858110D01*
X45590000Y71858110D01*
X45590000Y71958110D01*
X45567327Y72072097D01*
X45522851Y72179470D01*
X45458283Y72276103D01*
X45376103Y72358283D01*
X45279470Y72422851D01*
X45172097Y72467327D01*
X45058110Y72490000D01*
X44941890Y72490000D01*
X44827903Y72467327D01*
X44720530Y72422851D01*
X44623897Y72358283D01*
X44541717Y72276103D01*
X44477149Y72179470D01*
X44432673Y72072097D01*
X44410000Y71958110D01*
X43727139Y71958110D01*
X43794834Y72003342D01*
X43946658Y72155166D01*
X44065945Y72333691D01*
X44148112Y72532059D01*
X44190000Y72742644D01*
X44190000Y72957356D01*
X65010000Y72957356D01*
X65010000Y72742644D01*
X65051888Y72532059D01*
X65134055Y72333691D01*
X65253342Y72155166D01*
X65405166Y72003342D01*
X65583691Y71884055D01*
X65782059Y71801888D01*
X65992644Y71760000D01*
X66207356Y71760000D01*
X66417941Y71801888D01*
X66553672Y71858110D01*
X69410000Y71858110D01*
X69410000Y71741890D01*
X69432673Y71627903D01*
X69477149Y71520530D01*
X69541717Y71423897D01*
X69623897Y71341717D01*
X69720530Y71277149D01*
X69827903Y71232673D01*
X69941890Y71210000D01*
X70058110Y71210000D01*
X70172097Y71232673D01*
X70279470Y71277149D01*
X70376103Y71341717D01*
X70458283Y71423897D01*
X70522851Y71520530D01*
X70567327Y71627903D01*
X70590000Y71741890D01*
X70590000Y71858110D01*
X71410000Y71858110D01*
X71410000Y71741890D01*
X71432673Y71627903D01*
X71477149Y71520530D01*
X71541717Y71423897D01*
X71623897Y71341717D01*
X71720530Y71277149D01*
X71827903Y71232673D01*
X71941890Y71210000D01*
X72058110Y71210000D01*
X72172097Y71232673D01*
X72279470Y71277149D01*
X72376103Y71341717D01*
X72458283Y71423897D01*
X72522851Y71520530D01*
X72567327Y71627903D01*
X72590000Y71741890D01*
X72590000Y71858110D01*
X84310000Y71858110D01*
X84310000Y71741890D01*
X84332673Y71627903D01*
X84377149Y71520530D01*
X84441717Y71423897D01*
X84523897Y71341717D01*
X84620530Y71277149D01*
X84727903Y71232673D01*
X84841890Y71210000D01*
X84958110Y71210000D01*
X85072097Y71232673D01*
X85179470Y71277149D01*
X85276103Y71341717D01*
X85358283Y71423897D01*
X85422851Y71520530D01*
X85467327Y71627903D01*
X85490000Y71741890D01*
X85490000Y71858110D01*
X86310000Y71858110D01*
X86310000Y71741890D01*
X86332673Y71627903D01*
X86377149Y71520530D01*
X86441717Y71423897D01*
X86523897Y71341717D01*
X86620530Y71277149D01*
X86727903Y71232673D01*
X86841890Y71210000D01*
X86958110Y71210000D01*
X87072097Y71232673D01*
X87179470Y71277149D01*
X87276103Y71341717D01*
X87358283Y71423897D01*
X87422851Y71520530D01*
X87467327Y71627903D01*
X87490000Y71741890D01*
X87490000Y71858110D01*
X87467327Y71972097D01*
X87422851Y72079470D01*
X87358283Y72176103D01*
X87276103Y72258283D01*
X87179470Y72322851D01*
X87072097Y72367327D01*
X86958110Y72390000D01*
X86841890Y72390000D01*
X86727903Y72367327D01*
X86620530Y72322851D01*
X86523897Y72258283D01*
X86441717Y72176103D01*
X86377149Y72079470D01*
X86332673Y71972097D01*
X86310000Y71858110D01*
X85490000Y71858110D01*
X85467327Y71972097D01*
X85422851Y72079470D01*
X85358283Y72176103D01*
X85276103Y72258283D01*
X85179470Y72322851D01*
X85072097Y72367327D01*
X84958110Y72390000D01*
X84841890Y72390000D01*
X84727903Y72367327D01*
X84620530Y72322851D01*
X84523897Y72258283D01*
X84441717Y72176103D01*
X84377149Y72079470D01*
X84332673Y71972097D01*
X84310000Y71858110D01*
X72590000Y71858110D01*
X72567327Y71972097D01*
X72522851Y72079470D01*
X72458283Y72176103D01*
X72376103Y72258283D01*
X72279470Y72322851D01*
X72172097Y72367327D01*
X72058110Y72390000D01*
X71941890Y72390000D01*
X71827903Y72367327D01*
X71720530Y72322851D01*
X71623897Y72258283D01*
X71541717Y72176103D01*
X71477149Y72079470D01*
X71432673Y71972097D01*
X71410000Y71858110D01*
X70590000Y71858110D01*
X70567327Y71972097D01*
X70522851Y72079470D01*
X70458283Y72176103D01*
X70376103Y72258283D01*
X70279470Y72322851D01*
X70172097Y72367327D01*
X70058110Y72390000D01*
X69941890Y72390000D01*
X69827903Y72367327D01*
X69720530Y72322851D01*
X69623897Y72258283D01*
X69541717Y72176103D01*
X69477149Y72079470D01*
X69432673Y71972097D01*
X69410000Y71858110D01*
X66553672Y71858110D01*
X66616309Y71884055D01*
X66794834Y72003342D01*
X66946658Y72155166D01*
X67065945Y72333691D01*
X67148112Y72532059D01*
X67190000Y72742644D01*
X67190000Y72957356D01*
X87910000Y72957356D01*
X87910000Y72742644D01*
X87951888Y72532059D01*
X88034055Y72333691D01*
X88153342Y72155166D01*
X88305166Y72003342D01*
X88483691Y71884055D01*
X88682059Y71801888D01*
X88892644Y71760000D01*
X89107356Y71760000D01*
X89317941Y71801888D01*
X89453672Y71858110D01*
X90410000Y71858110D01*
X90410000Y71741890D01*
X90432673Y71627903D01*
X90477149Y71520530D01*
X90541717Y71423897D01*
X90623897Y71341717D01*
X90720530Y71277149D01*
X90827903Y71232673D01*
X90941890Y71210000D01*
X91058110Y71210000D01*
X91172097Y71232673D01*
X91279470Y71277149D01*
X91376103Y71341717D01*
X91458283Y71423897D01*
X91522851Y71520530D01*
X91567327Y71627903D01*
X91590000Y71741890D01*
X91590000Y71858110D01*
X92410000Y71858110D01*
X92410000Y71741890D01*
X92432673Y71627903D01*
X92477149Y71520530D01*
X92541717Y71423897D01*
X92623897Y71341717D01*
X92720530Y71277149D01*
X92827903Y71232673D01*
X92941890Y71210000D01*
X93058110Y71210000D01*
X93172097Y71232673D01*
X93279470Y71277149D01*
X93376103Y71341717D01*
X93458283Y71423897D01*
X93522851Y71520530D01*
X93567327Y71627903D01*
X93590000Y71741890D01*
X93590000Y71858110D01*
X107410000Y71858110D01*
X107410000Y71741890D01*
X107432673Y71627903D01*
X107477149Y71520530D01*
X107541717Y71423897D01*
X107623897Y71341717D01*
X107720530Y71277149D01*
X107827903Y71232673D01*
X107941890Y71210000D01*
X108058110Y71210000D01*
X108172097Y71232673D01*
X108279470Y71277149D01*
X108376103Y71341717D01*
X108458283Y71423897D01*
X108522851Y71520530D01*
X108567327Y71627903D01*
X108590000Y71741890D01*
X108590000Y71858110D01*
X109410000Y71858110D01*
X109410000Y71741890D01*
X109432673Y71627903D01*
X109477149Y71520530D01*
X109541717Y71423897D01*
X109623897Y71341717D01*
X109720530Y71277149D01*
X109827903Y71232673D01*
X109941890Y71210000D01*
X110058110Y71210000D01*
X110172097Y71232673D01*
X110279470Y71277149D01*
X110376103Y71341717D01*
X110458283Y71423897D01*
X110522851Y71520530D01*
X110567327Y71627903D01*
X110590000Y71741890D01*
X110590000Y71858110D01*
X110567327Y71972097D01*
X110522851Y72079470D01*
X110458283Y72176103D01*
X110376103Y72258283D01*
X110279470Y72322851D01*
X110172097Y72367327D01*
X110058110Y72390000D01*
X109941890Y72390000D01*
X109827903Y72367327D01*
X109720530Y72322851D01*
X109623897Y72258283D01*
X109541717Y72176103D01*
X109477149Y72079470D01*
X109432673Y71972097D01*
X109410000Y71858110D01*
X108590000Y71858110D01*
X108567327Y71972097D01*
X108522851Y72079470D01*
X108458283Y72176103D01*
X108376103Y72258283D01*
X108279470Y72322851D01*
X108172097Y72367327D01*
X108058110Y72390000D01*
X107941890Y72390000D01*
X107827903Y72367327D01*
X107720530Y72322851D01*
X107623897Y72258283D01*
X107541717Y72176103D01*
X107477149Y72079470D01*
X107432673Y71972097D01*
X107410000Y71858110D01*
X93590000Y71858110D01*
X93567327Y71972097D01*
X93522851Y72079470D01*
X93458283Y72176103D01*
X93376103Y72258283D01*
X93279470Y72322851D01*
X93172097Y72367327D01*
X93058110Y72390000D01*
X92941890Y72390000D01*
X92827903Y72367327D01*
X92720530Y72322851D01*
X92623897Y72258283D01*
X92541717Y72176103D01*
X92477149Y72079470D01*
X92432673Y71972097D01*
X92410000Y71858110D01*
X91590000Y71858110D01*
X91567327Y71972097D01*
X91522851Y72079470D01*
X91458283Y72176103D01*
X91376103Y72258283D01*
X91279470Y72322851D01*
X91172097Y72367327D01*
X91058110Y72390000D01*
X90941890Y72390000D01*
X90827903Y72367327D01*
X90720530Y72322851D01*
X90623897Y72258283D01*
X90541717Y72176103D01*
X90477149Y72079470D01*
X90432673Y71972097D01*
X90410000Y71858110D01*
X89453672Y71858110D01*
X89516309Y71884055D01*
X89694834Y72003342D01*
X89846658Y72155166D01*
X89965945Y72333691D01*
X90048112Y72532059D01*
X90090000Y72742644D01*
X90090000Y72957356D01*
X110910000Y72957356D01*
X110910000Y72742644D01*
X110951888Y72532059D01*
X111034055Y72333691D01*
X111153342Y72155166D01*
X111305166Y72003342D01*
X111483691Y71884055D01*
X111682059Y71801888D01*
X111892644Y71760000D01*
X112107356Y71760000D01*
X112317941Y71801888D01*
X112453672Y71858110D01*
X113410000Y71858110D01*
X113410000Y71741890D01*
X113432673Y71627903D01*
X113477149Y71520530D01*
X113541717Y71423897D01*
X113623897Y71341717D01*
X113720530Y71277149D01*
X113827903Y71232673D01*
X113941890Y71210000D01*
X114058110Y71210000D01*
X114172097Y71232673D01*
X114279470Y71277149D01*
X114376103Y71341717D01*
X114458283Y71423897D01*
X114522851Y71520530D01*
X114567327Y71627903D01*
X114590000Y71741890D01*
X114590000Y71858110D01*
X115410000Y71858110D01*
X115410000Y71741890D01*
X115432673Y71627903D01*
X115477149Y71520530D01*
X115541717Y71423897D01*
X115623897Y71341717D01*
X115720530Y71277149D01*
X115827903Y71232673D01*
X115941890Y71210000D01*
X116058110Y71210000D01*
X116172097Y71232673D01*
X116279470Y71277149D01*
X116376103Y71341717D01*
X116458283Y71423897D01*
X116522851Y71520530D01*
X116567327Y71627903D01*
X116590000Y71741890D01*
X116590000Y71858110D01*
X130410000Y71858110D01*
X130410000Y71741890D01*
X130432673Y71627903D01*
X130477149Y71520530D01*
X130541717Y71423897D01*
X130623897Y71341717D01*
X130720530Y71277149D01*
X130827903Y71232673D01*
X130941890Y71210000D01*
X131058110Y71210000D01*
X131172097Y71232673D01*
X131279470Y71277149D01*
X131376103Y71341717D01*
X131458283Y71423897D01*
X131522851Y71520530D01*
X131567327Y71627903D01*
X131590000Y71741890D01*
X131590000Y71858110D01*
X132410000Y71858110D01*
X132410000Y71741890D01*
X132432673Y71627903D01*
X132477149Y71520530D01*
X132541717Y71423897D01*
X132623897Y71341717D01*
X132720530Y71277149D01*
X132827903Y71232673D01*
X132941890Y71210000D01*
X133058110Y71210000D01*
X133172097Y71232673D01*
X133279470Y71277149D01*
X133376103Y71341717D01*
X133458283Y71423897D01*
X133522851Y71520530D01*
X133567327Y71627903D01*
X133590000Y71741890D01*
X133590000Y71858110D01*
X133567327Y71972097D01*
X133522851Y72079470D01*
X133458283Y72176103D01*
X133376103Y72258283D01*
X133279470Y72322851D01*
X133172097Y72367327D01*
X133058110Y72390000D01*
X132941890Y72390000D01*
X132827903Y72367327D01*
X132720530Y72322851D01*
X132623897Y72258283D01*
X132541717Y72176103D01*
X132477149Y72079470D01*
X132432673Y71972097D01*
X132410000Y71858110D01*
X131590000Y71858110D01*
X131567327Y71972097D01*
X131522851Y72079470D01*
X131458283Y72176103D01*
X131376103Y72258283D01*
X131279470Y72322851D01*
X131172097Y72367327D01*
X131058110Y72390000D01*
X130941890Y72390000D01*
X130827903Y72367327D01*
X130720530Y72322851D01*
X130623897Y72258283D01*
X130541717Y72176103D01*
X130477149Y72079470D01*
X130432673Y71972097D01*
X130410000Y71858110D01*
X116590000Y71858110D01*
X116567327Y71972097D01*
X116522851Y72079470D01*
X116458283Y72176103D01*
X116376103Y72258283D01*
X116279470Y72322851D01*
X116172097Y72367327D01*
X116058110Y72390000D01*
X115941890Y72390000D01*
X115827903Y72367327D01*
X115720530Y72322851D01*
X115623897Y72258283D01*
X115541717Y72176103D01*
X115477149Y72079470D01*
X115432673Y71972097D01*
X115410000Y71858110D01*
X114590000Y71858110D01*
X114567327Y71972097D01*
X114522851Y72079470D01*
X114458283Y72176103D01*
X114376103Y72258283D01*
X114279470Y72322851D01*
X114172097Y72367327D01*
X114058110Y72390000D01*
X113941890Y72390000D01*
X113827903Y72367327D01*
X113720530Y72322851D01*
X113623897Y72258283D01*
X113541717Y72176103D01*
X113477149Y72079470D01*
X113432673Y71972097D01*
X113410000Y71858110D01*
X112453672Y71858110D01*
X112516309Y71884055D01*
X112694834Y72003342D01*
X112846658Y72155166D01*
X112965945Y72333691D01*
X113048112Y72532059D01*
X113090000Y72742644D01*
X113090000Y72957356D01*
X133910000Y72957356D01*
X133910000Y72742644D01*
X133951888Y72532059D01*
X134034055Y72333691D01*
X134153342Y72155166D01*
X134305166Y72003342D01*
X134483691Y71884055D01*
X134682059Y71801888D01*
X134892644Y71760000D01*
X135107356Y71760000D01*
X135317941Y71801888D01*
X135453672Y71858110D01*
X136410000Y71858110D01*
X136410000Y71741890D01*
X136432673Y71627903D01*
X136477149Y71520530D01*
X136541717Y71423897D01*
X136623897Y71341717D01*
X136720530Y71277149D01*
X136827903Y71232673D01*
X136941890Y71210000D01*
X137058110Y71210000D01*
X137172097Y71232673D01*
X137279470Y71277149D01*
X137376103Y71341717D01*
X137458283Y71423897D01*
X137522851Y71520530D01*
X137567327Y71627903D01*
X137590000Y71741890D01*
X137590000Y71858110D01*
X138410000Y71858110D01*
X138410000Y71741890D01*
X138432673Y71627903D01*
X138477149Y71520530D01*
X138541717Y71423897D01*
X138623897Y71341717D01*
X138720530Y71277149D01*
X138827903Y71232673D01*
X138941890Y71210000D01*
X139058110Y71210000D01*
X139172097Y71232673D01*
X139279470Y71277149D01*
X139376103Y71341717D01*
X139458283Y71423897D01*
X139522851Y71520530D01*
X139567327Y71627903D01*
X139590000Y71741890D01*
X139590000Y71858110D01*
X153410000Y71858110D01*
X153410000Y71741890D01*
X153432673Y71627903D01*
X153477149Y71520530D01*
X153541717Y71423897D01*
X153623897Y71341717D01*
X153720530Y71277149D01*
X153827903Y71232673D01*
X153941890Y71210000D01*
X154058110Y71210000D01*
X154172097Y71232673D01*
X154279470Y71277149D01*
X154376103Y71341717D01*
X154458283Y71423897D01*
X154522851Y71520530D01*
X154567327Y71627903D01*
X154590000Y71741890D01*
X154590000Y71858110D01*
X155410000Y71858110D01*
X155410000Y71741890D01*
X155432673Y71627903D01*
X155477149Y71520530D01*
X155541717Y71423897D01*
X155623897Y71341717D01*
X155720530Y71277149D01*
X155827903Y71232673D01*
X155941890Y71210000D01*
X156058110Y71210000D01*
X156172097Y71232673D01*
X156279470Y71277149D01*
X156376103Y71341717D01*
X156458283Y71423897D01*
X156522851Y71520530D01*
X156567327Y71627903D01*
X156590000Y71741890D01*
X156590000Y71858110D01*
X156567327Y71972097D01*
X156522851Y72079470D01*
X156458283Y72176103D01*
X156376103Y72258283D01*
X156279470Y72322851D01*
X156172097Y72367327D01*
X156058110Y72390000D01*
X155941890Y72390000D01*
X155827903Y72367327D01*
X155720530Y72322851D01*
X155623897Y72258283D01*
X155541717Y72176103D01*
X155477149Y72079470D01*
X155432673Y71972097D01*
X155410000Y71858110D01*
X154590000Y71858110D01*
X154567327Y71972097D01*
X154522851Y72079470D01*
X154458283Y72176103D01*
X154376103Y72258283D01*
X154279470Y72322851D01*
X154172097Y72367327D01*
X154058110Y72390000D01*
X153941890Y72390000D01*
X153827903Y72367327D01*
X153720530Y72322851D01*
X153623897Y72258283D01*
X153541717Y72176103D01*
X153477149Y72079470D01*
X153432673Y71972097D01*
X153410000Y71858110D01*
X139590000Y71858110D01*
X139567327Y71972097D01*
X139522851Y72079470D01*
X139458283Y72176103D01*
X139376103Y72258283D01*
X139279470Y72322851D01*
X139172097Y72367327D01*
X139058110Y72390000D01*
X138941890Y72390000D01*
X138827903Y72367327D01*
X138720530Y72322851D01*
X138623897Y72258283D01*
X138541717Y72176103D01*
X138477149Y72079470D01*
X138432673Y71972097D01*
X138410000Y71858110D01*
X137590000Y71858110D01*
X137567327Y71972097D01*
X137522851Y72079470D01*
X137458283Y72176103D01*
X137376103Y72258283D01*
X137279470Y72322851D01*
X137172097Y72367327D01*
X137058110Y72390000D01*
X136941890Y72390000D01*
X136827903Y72367327D01*
X136720530Y72322851D01*
X136623897Y72258283D01*
X136541717Y72176103D01*
X136477149Y72079470D01*
X136432673Y71972097D01*
X136410000Y71858110D01*
X135453672Y71858110D01*
X135516309Y71884055D01*
X135694834Y72003342D01*
X135846658Y72155166D01*
X135965945Y72333691D01*
X136048112Y72532059D01*
X136090000Y72742644D01*
X136090000Y72957356D01*
X156910000Y72957356D01*
X156910000Y72742644D01*
X156951888Y72532059D01*
X157034055Y72333691D01*
X157153342Y72155166D01*
X157305166Y72003342D01*
X157483691Y71884055D01*
X157682059Y71801888D01*
X157892644Y71760000D01*
X158107356Y71760000D01*
X158317941Y71801888D01*
X158453672Y71858110D01*
X159410000Y71858110D01*
X159410000Y71741890D01*
X159432673Y71627903D01*
X159477149Y71520530D01*
X159541717Y71423897D01*
X159623897Y71341717D01*
X159720530Y71277149D01*
X159827903Y71232673D01*
X159941890Y71210000D01*
X160058110Y71210000D01*
X160172097Y71232673D01*
X160279470Y71277149D01*
X160376103Y71341717D01*
X160458283Y71423897D01*
X160522851Y71520530D01*
X160567327Y71627903D01*
X160590000Y71741890D01*
X160590000Y71858110D01*
X161410000Y71858110D01*
X161410000Y71741890D01*
X161432673Y71627903D01*
X161477149Y71520530D01*
X161541717Y71423897D01*
X161623897Y71341717D01*
X161720530Y71277149D01*
X161827903Y71232673D01*
X161941890Y71210000D01*
X162058110Y71210000D01*
X162172097Y71232673D01*
X162279470Y71277149D01*
X162376103Y71341717D01*
X162458283Y71423897D01*
X162522851Y71520530D01*
X162567327Y71627903D01*
X162590000Y71741890D01*
X162590000Y71858110D01*
X176410000Y71858110D01*
X176410000Y71741890D01*
X176432673Y71627903D01*
X176477149Y71520530D01*
X176541717Y71423897D01*
X176623897Y71341717D01*
X176720530Y71277149D01*
X176827903Y71232673D01*
X176941890Y71210000D01*
X177058110Y71210000D01*
X177172097Y71232673D01*
X177279470Y71277149D01*
X177376103Y71341717D01*
X177458283Y71423897D01*
X177522851Y71520530D01*
X177567327Y71627903D01*
X177590000Y71741890D01*
X177590000Y71858110D01*
X178410000Y71858110D01*
X178410000Y71741890D01*
X178432673Y71627903D01*
X178477149Y71520530D01*
X178541717Y71423897D01*
X178623897Y71341717D01*
X178720530Y71277149D01*
X178827903Y71232673D01*
X178941890Y71210000D01*
X179058110Y71210000D01*
X179172097Y71232673D01*
X179279470Y71277149D01*
X179376103Y71341717D01*
X179458283Y71423897D01*
X179522851Y71520530D01*
X179567327Y71627903D01*
X179590000Y71741890D01*
X179590000Y71858110D01*
X179567327Y71972097D01*
X179522851Y72079470D01*
X179458283Y72176103D01*
X179376103Y72258283D01*
X179279470Y72322851D01*
X179172097Y72367327D01*
X179058110Y72390000D01*
X178941890Y72390000D01*
X178827903Y72367327D01*
X178720530Y72322851D01*
X178623897Y72258283D01*
X178541717Y72176103D01*
X178477149Y72079470D01*
X178432673Y71972097D01*
X178410000Y71858110D01*
X177590000Y71858110D01*
X177567327Y71972097D01*
X177522851Y72079470D01*
X177458283Y72176103D01*
X177376103Y72258283D01*
X177279470Y72322851D01*
X177172097Y72367327D01*
X177058110Y72390000D01*
X176941890Y72390000D01*
X176827903Y72367327D01*
X176720530Y72322851D01*
X176623897Y72258283D01*
X176541717Y72176103D01*
X176477149Y72079470D01*
X176432673Y71972097D01*
X176410000Y71858110D01*
X162590000Y71858110D01*
X162567327Y71972097D01*
X162522851Y72079470D01*
X162458283Y72176103D01*
X162376103Y72258283D01*
X162279470Y72322851D01*
X162172097Y72367327D01*
X162058110Y72390000D01*
X161941890Y72390000D01*
X161827903Y72367327D01*
X161720530Y72322851D01*
X161623897Y72258283D01*
X161541717Y72176103D01*
X161477149Y72079470D01*
X161432673Y71972097D01*
X161410000Y71858110D01*
X160590000Y71858110D01*
X160567327Y71972097D01*
X160522851Y72079470D01*
X160458283Y72176103D01*
X160376103Y72258283D01*
X160279470Y72322851D01*
X160172097Y72367327D01*
X160058110Y72390000D01*
X159941890Y72390000D01*
X159827903Y72367327D01*
X159720530Y72322851D01*
X159623897Y72258283D01*
X159541717Y72176103D01*
X159477149Y72079470D01*
X159432673Y71972097D01*
X159410000Y71858110D01*
X158453672Y71858110D01*
X158516309Y71884055D01*
X158694834Y72003342D01*
X158846658Y72155166D01*
X158965945Y72333691D01*
X159048112Y72532059D01*
X159090000Y72742644D01*
X159090000Y72957356D01*
X179910000Y72957356D01*
X179910000Y72742644D01*
X179951888Y72532059D01*
X180034055Y72333691D01*
X180153342Y72155166D01*
X180305166Y72003342D01*
X180483691Y71884055D01*
X180682059Y71801888D01*
X180892644Y71760000D01*
X181107356Y71760000D01*
X181317941Y71801888D01*
X181453672Y71858110D01*
X182410000Y71858110D01*
X182410000Y71741890D01*
X182432673Y71627903D01*
X182477149Y71520530D01*
X182541717Y71423897D01*
X182623897Y71341717D01*
X182720530Y71277149D01*
X182827903Y71232673D01*
X182941890Y71210000D01*
X183058110Y71210000D01*
X183172097Y71232673D01*
X183279470Y71277149D01*
X183376103Y71341717D01*
X183458283Y71423897D01*
X183522851Y71520530D01*
X183567327Y71627903D01*
X183590000Y71741890D01*
X183590000Y71858110D01*
X184410000Y71858110D01*
X184410000Y71741890D01*
X184432673Y71627903D01*
X184477149Y71520530D01*
X184541717Y71423897D01*
X184623897Y71341717D01*
X184720530Y71277149D01*
X184827903Y71232673D01*
X184941890Y71210000D01*
X185058110Y71210000D01*
X185172097Y71232673D01*
X185279470Y71277149D01*
X185376103Y71341717D01*
X185458283Y71423897D01*
X185522851Y71520530D01*
X185567327Y71627903D01*
X185590000Y71741890D01*
X185590000Y71858110D01*
X185567327Y71972097D01*
X185522851Y72079470D01*
X185458283Y72176103D01*
X185376103Y72258283D01*
X185279470Y72322851D01*
X185172097Y72367327D01*
X185058110Y72390000D01*
X184941890Y72390000D01*
X184827903Y72367327D01*
X184720530Y72322851D01*
X184623897Y72258283D01*
X184541717Y72176103D01*
X184477149Y72079470D01*
X184432673Y71972097D01*
X184410000Y71858110D01*
X183590000Y71858110D01*
X183567327Y71972097D01*
X183522851Y72079470D01*
X183458283Y72176103D01*
X183376103Y72258283D01*
X183279470Y72322851D01*
X183172097Y72367327D01*
X183058110Y72390000D01*
X182941890Y72390000D01*
X182827903Y72367327D01*
X182720530Y72322851D01*
X182623897Y72258283D01*
X182541717Y72176103D01*
X182477149Y72079470D01*
X182432673Y71972097D01*
X182410000Y71858110D01*
X181453672Y71858110D01*
X181516309Y71884055D01*
X181694834Y72003342D01*
X181846658Y72155166D01*
X181965945Y72333691D01*
X182048112Y72532059D01*
X182090000Y72742644D01*
X182090000Y72957356D01*
X182048112Y73167941D01*
X181965945Y73366309D01*
X181846658Y73544834D01*
X181694834Y73696658D01*
X181516309Y73815945D01*
X181317941Y73898112D01*
X181107356Y73940000D01*
X180892644Y73940000D01*
X180682059Y73898112D01*
X180483691Y73815945D01*
X180305166Y73696658D01*
X180153342Y73544834D01*
X180034055Y73366309D01*
X179951888Y73167941D01*
X179910000Y72957356D01*
X159090000Y72957356D01*
X159048112Y73167941D01*
X158965945Y73366309D01*
X158846658Y73544834D01*
X158694834Y73696658D01*
X158516309Y73815945D01*
X158317941Y73898112D01*
X158107356Y73940000D01*
X157892644Y73940000D01*
X157682059Y73898112D01*
X157483691Y73815945D01*
X157305166Y73696658D01*
X157153342Y73544834D01*
X157034055Y73366309D01*
X156951888Y73167941D01*
X156910000Y72957356D01*
X136090000Y72957356D01*
X136048112Y73167941D01*
X135965945Y73366309D01*
X135846658Y73544834D01*
X135694834Y73696658D01*
X135516309Y73815945D01*
X135317941Y73898112D01*
X135107356Y73940000D01*
X134892644Y73940000D01*
X134682059Y73898112D01*
X134483691Y73815945D01*
X134305166Y73696658D01*
X134153342Y73544834D01*
X134034055Y73366309D01*
X133951888Y73167941D01*
X133910000Y72957356D01*
X113090000Y72957356D01*
X113048112Y73167941D01*
X112965945Y73366309D01*
X112846658Y73544834D01*
X112694834Y73696658D01*
X112516309Y73815945D01*
X112317941Y73898112D01*
X112107356Y73940000D01*
X111892644Y73940000D01*
X111682059Y73898112D01*
X111483691Y73815945D01*
X111305166Y73696658D01*
X111153342Y73544834D01*
X111034055Y73366309D01*
X110951888Y73167941D01*
X110910000Y72957356D01*
X90090000Y72957356D01*
X90048112Y73167941D01*
X89965945Y73366309D01*
X89846658Y73544834D01*
X89694834Y73696658D01*
X89516309Y73815945D01*
X89317941Y73898112D01*
X89107356Y73940000D01*
X88892644Y73940000D01*
X88682059Y73898112D01*
X88483691Y73815945D01*
X88305166Y73696658D01*
X88153342Y73544834D01*
X88034055Y73366309D01*
X87951888Y73167941D01*
X87910000Y72957356D01*
X67190000Y72957356D01*
X67148112Y73167941D01*
X67065945Y73366309D01*
X66946658Y73544834D01*
X66794834Y73696658D01*
X66616309Y73815945D01*
X66417941Y73898112D01*
X66207356Y73940000D01*
X65992644Y73940000D01*
X65782059Y73898112D01*
X65583691Y73815945D01*
X65405166Y73696658D01*
X65253342Y73544834D01*
X65134055Y73366309D01*
X65051888Y73167941D01*
X65010000Y72957356D01*
X44190000Y72957356D01*
X44148112Y73167941D01*
X44065945Y73366309D01*
X43946658Y73544834D01*
X43794834Y73696658D01*
X43616309Y73815945D01*
X43417941Y73898112D01*
X43207356Y73940000D01*
X42992644Y73940000D01*
X42782059Y73898112D01*
X42583691Y73815945D01*
X42405166Y73696658D01*
X42253342Y73544834D01*
X42134055Y73366309D01*
X42051888Y73167941D01*
X42010000Y72957356D01*
X21090000Y72957356D01*
X21048112Y73167941D01*
X20965945Y73366309D01*
X20846658Y73544834D01*
X20694834Y73696658D01*
X20516309Y73815945D01*
X20317941Y73898112D01*
X20107356Y73940000D01*
X19892644Y73940000D01*
X19682059Y73898112D01*
X19483691Y73815945D01*
X19305166Y73696658D01*
X19153342Y73544834D01*
X19034055Y73366309D01*
X18951888Y73167941D01*
X18910000Y72957356D01*
X6365000Y72957356D01*
X6365000Y77427054D01*
X14900000Y77427054D01*
X14900000Y77172946D01*
X14949574Y76923721D01*
X15046817Y76688956D01*
X15187991Y76477673D01*
X15367673Y76297991D01*
X15578956Y76156817D01*
X15813721Y76059574D01*
X16062946Y76010000D01*
X16317054Y76010000D01*
X16566279Y76059574D01*
X16801044Y76156817D01*
X17012327Y76297991D01*
X17192009Y76477673D01*
X17333183Y76688956D01*
X17375887Y76792054D01*
X22520000Y76792054D01*
X22520000Y76537946D01*
X22569574Y76288721D01*
X22666817Y76053956D01*
X22807991Y75842673D01*
X22987673Y75662991D01*
X23198956Y75521817D01*
X23433721Y75424574D01*
X23682946Y75375000D01*
X23937054Y75375000D01*
X24186279Y75424574D01*
X24421044Y75521817D01*
X24632327Y75662991D01*
X24812009Y75842673D01*
X24953183Y76053956D01*
X25050426Y76288721D01*
X25100000Y76537946D01*
X25100000Y76792054D01*
X25050426Y77041279D01*
X24953183Y77276044D01*
X24852282Y77427054D01*
X38000000Y77427054D01*
X38000000Y77172946D01*
X38049574Y76923721D01*
X38146817Y76688956D01*
X38287991Y76477673D01*
X38467673Y76297991D01*
X38678956Y76156817D01*
X38913721Y76059574D01*
X39162946Y76010000D01*
X39417054Y76010000D01*
X39666279Y76059574D01*
X39901044Y76156817D01*
X40112327Y76297991D01*
X40292009Y76477673D01*
X40433183Y76688956D01*
X40475887Y76792054D01*
X45620000Y76792054D01*
X45620000Y76537946D01*
X45669574Y76288721D01*
X45766817Y76053956D01*
X45907991Y75842673D01*
X46087673Y75662991D01*
X46298956Y75521817D01*
X46533721Y75424574D01*
X46782946Y75375000D01*
X47037054Y75375000D01*
X47286279Y75424574D01*
X47521044Y75521817D01*
X47732327Y75662991D01*
X47912009Y75842673D01*
X48053183Y76053956D01*
X48150426Y76288721D01*
X48200000Y76537946D01*
X48200000Y76792054D01*
X48150426Y77041279D01*
X48053183Y77276044D01*
X47952282Y77427054D01*
X61000000Y77427054D01*
X61000000Y77172946D01*
X61049574Y76923721D01*
X61146817Y76688956D01*
X61287991Y76477673D01*
X61467673Y76297991D01*
X61678956Y76156817D01*
X61913721Y76059574D01*
X62162946Y76010000D01*
X62417054Y76010000D01*
X62666279Y76059574D01*
X62901044Y76156817D01*
X63112327Y76297991D01*
X63292009Y76477673D01*
X63433183Y76688956D01*
X63475887Y76792054D01*
X68620000Y76792054D01*
X68620000Y76537946D01*
X68669574Y76288721D01*
X68766817Y76053956D01*
X68907991Y75842673D01*
X69087673Y75662991D01*
X69298956Y75521817D01*
X69533721Y75424574D01*
X69782946Y75375000D01*
X70037054Y75375000D01*
X70286279Y75424574D01*
X70521044Y75521817D01*
X70732327Y75662991D01*
X70912009Y75842673D01*
X71053183Y76053956D01*
X71150426Y76288721D01*
X71200000Y76537946D01*
X71200000Y76792054D01*
X71150426Y77041279D01*
X71053183Y77276044D01*
X70952282Y77427054D01*
X83900000Y77427054D01*
X83900000Y77172946D01*
X83949574Y76923721D01*
X84046817Y76688956D01*
X84187991Y76477673D01*
X84367673Y76297991D01*
X84578956Y76156817D01*
X84813721Y76059574D01*
X85062946Y76010000D01*
X85317054Y76010000D01*
X85566279Y76059574D01*
X85801044Y76156817D01*
X86012327Y76297991D01*
X86192009Y76477673D01*
X86333183Y76688956D01*
X86375887Y76792054D01*
X91520000Y76792054D01*
X91520000Y76537946D01*
X91569574Y76288721D01*
X91666817Y76053956D01*
X91807991Y75842673D01*
X91987673Y75662991D01*
X92198956Y75521817D01*
X92433721Y75424574D01*
X92682946Y75375000D01*
X92937054Y75375000D01*
X93186279Y75424574D01*
X93421044Y75521817D01*
X93632327Y75662991D01*
X93812009Y75842673D01*
X93953183Y76053956D01*
X94050426Y76288721D01*
X94100000Y76537946D01*
X94100000Y76792054D01*
X94050426Y77041279D01*
X93953183Y77276044D01*
X93852282Y77427054D01*
X106900000Y77427054D01*
X106900000Y77172946D01*
X106949574Y76923721D01*
X107046817Y76688956D01*
X107187991Y76477673D01*
X107367673Y76297991D01*
X107578956Y76156817D01*
X107813721Y76059574D01*
X108062946Y76010000D01*
X108317054Y76010000D01*
X108566279Y76059574D01*
X108801044Y76156817D01*
X109012327Y76297991D01*
X109192009Y76477673D01*
X109333183Y76688956D01*
X109375887Y76792054D01*
X114520000Y76792054D01*
X114520000Y76537946D01*
X114569574Y76288721D01*
X114666817Y76053956D01*
X114807991Y75842673D01*
X114987673Y75662991D01*
X115198956Y75521817D01*
X115433721Y75424574D01*
X115682946Y75375000D01*
X115937054Y75375000D01*
X116186279Y75424574D01*
X116421044Y75521817D01*
X116632327Y75662991D01*
X116812009Y75842673D01*
X116953183Y76053956D01*
X117050426Y76288721D01*
X117100000Y76537946D01*
X117100000Y76792054D01*
X117050426Y77041279D01*
X116953183Y77276044D01*
X116852282Y77427054D01*
X129900000Y77427054D01*
X129900000Y77172946D01*
X129949574Y76923721D01*
X130046817Y76688956D01*
X130187991Y76477673D01*
X130367673Y76297991D01*
X130578956Y76156817D01*
X130813721Y76059574D01*
X131062946Y76010000D01*
X131317054Y76010000D01*
X131566279Y76059574D01*
X131801044Y76156817D01*
X132012327Y76297991D01*
X132192009Y76477673D01*
X132333183Y76688956D01*
X132375887Y76792054D01*
X137520000Y76792054D01*
X137520000Y76537946D01*
X137569574Y76288721D01*
X137666817Y76053956D01*
X137807991Y75842673D01*
X137987673Y75662991D01*
X138198956Y75521817D01*
X138433721Y75424574D01*
X138682946Y75375000D01*
X138937054Y75375000D01*
X139186279Y75424574D01*
X139421044Y75521817D01*
X139632327Y75662991D01*
X139812009Y75842673D01*
X139953183Y76053956D01*
X140050426Y76288721D01*
X140100000Y76537946D01*
X140100000Y76792054D01*
X140050426Y77041279D01*
X139953183Y77276044D01*
X139852282Y77427054D01*
X152900000Y77427054D01*
X152900000Y77172946D01*
X152949574Y76923721D01*
X153046817Y76688956D01*
X153187991Y76477673D01*
X153367673Y76297991D01*
X153578956Y76156817D01*
X153813721Y76059574D01*
X154062946Y76010000D01*
X154317054Y76010000D01*
X154566279Y76059574D01*
X154801044Y76156817D01*
X155012327Y76297991D01*
X155192009Y76477673D01*
X155333183Y76688956D01*
X155375887Y76792054D01*
X160520000Y76792054D01*
X160520000Y76537946D01*
X160569574Y76288721D01*
X160666817Y76053956D01*
X160807991Y75842673D01*
X160987673Y75662991D01*
X161198956Y75521817D01*
X161433721Y75424574D01*
X161682946Y75375000D01*
X161937054Y75375000D01*
X162186279Y75424574D01*
X162421044Y75521817D01*
X162632327Y75662991D01*
X162812009Y75842673D01*
X162953183Y76053956D01*
X163050426Y76288721D01*
X163100000Y76537946D01*
X163100000Y76792054D01*
X163050426Y77041279D01*
X162953183Y77276044D01*
X162852282Y77427054D01*
X175900000Y77427054D01*
X175900000Y77172946D01*
X175949574Y76923721D01*
X176046817Y76688956D01*
X176187991Y76477673D01*
X176367673Y76297991D01*
X176578956Y76156817D01*
X176813721Y76059574D01*
X177062946Y76010000D01*
X177317054Y76010000D01*
X177566279Y76059574D01*
X177801044Y76156817D01*
X178012327Y76297991D01*
X178192009Y76477673D01*
X178333183Y76688956D01*
X178375887Y76792054D01*
X183520000Y76792054D01*
X183520000Y76537946D01*
X183569574Y76288721D01*
X183666817Y76053956D01*
X183807991Y75842673D01*
X183987673Y75662991D01*
X184198956Y75521817D01*
X184433721Y75424574D01*
X184682946Y75375000D01*
X184937054Y75375000D01*
X185186279Y75424574D01*
X185421044Y75521817D01*
X185632327Y75662991D01*
X185812009Y75842673D01*
X185953183Y76053956D01*
X186050426Y76288721D01*
X186100000Y76537946D01*
X186100000Y76792054D01*
X186050426Y77041279D01*
X185953183Y77276044D01*
X185812009Y77487327D01*
X185632327Y77667009D01*
X185421044Y77808183D01*
X185186279Y77905426D01*
X184937054Y77955000D01*
X184682946Y77955000D01*
X184433721Y77905426D01*
X184198956Y77808183D01*
X183987673Y77667009D01*
X183807991Y77487327D01*
X183666817Y77276044D01*
X183569574Y77041279D01*
X183520000Y76792054D01*
X178375887Y76792054D01*
X178430426Y76923721D01*
X178480000Y77172946D01*
X178480000Y77427054D01*
X178430426Y77676279D01*
X178333183Y77911044D01*
X178192009Y78122327D01*
X178012327Y78302009D01*
X177801044Y78443183D01*
X177566279Y78540426D01*
X177317054Y78590000D01*
X177062946Y78590000D01*
X176813721Y78540426D01*
X176578956Y78443183D01*
X176367673Y78302009D01*
X176187991Y78122327D01*
X176046817Y77911044D01*
X175949574Y77676279D01*
X175900000Y77427054D01*
X162852282Y77427054D01*
X162812009Y77487327D01*
X162632327Y77667009D01*
X162421044Y77808183D01*
X162186279Y77905426D01*
X161937054Y77955000D01*
X161682946Y77955000D01*
X161433721Y77905426D01*
X161198956Y77808183D01*
X160987673Y77667009D01*
X160807991Y77487327D01*
X160666817Y77276044D01*
X160569574Y77041279D01*
X160520000Y76792054D01*
X155375887Y76792054D01*
X155430426Y76923721D01*
X155480000Y77172946D01*
X155480000Y77427054D01*
X155430426Y77676279D01*
X155333183Y77911044D01*
X155192009Y78122327D01*
X155012327Y78302009D01*
X154801044Y78443183D01*
X154566279Y78540426D01*
X154317054Y78590000D01*
X154062946Y78590000D01*
X153813721Y78540426D01*
X153578956Y78443183D01*
X153367673Y78302009D01*
X153187991Y78122327D01*
X153046817Y77911044D01*
X152949574Y77676279D01*
X152900000Y77427054D01*
X139852282Y77427054D01*
X139812009Y77487327D01*
X139632327Y77667009D01*
X139421044Y77808183D01*
X139186279Y77905426D01*
X138937054Y77955000D01*
X138682946Y77955000D01*
X138433721Y77905426D01*
X138198956Y77808183D01*
X137987673Y77667009D01*
X137807991Y77487327D01*
X137666817Y77276044D01*
X137569574Y77041279D01*
X137520000Y76792054D01*
X132375887Y76792054D01*
X132430426Y76923721D01*
X132480000Y77172946D01*
X132480000Y77427054D01*
X132430426Y77676279D01*
X132333183Y77911044D01*
X132192009Y78122327D01*
X132012327Y78302009D01*
X131801044Y78443183D01*
X131566279Y78540426D01*
X131317054Y78590000D01*
X131062946Y78590000D01*
X130813721Y78540426D01*
X130578956Y78443183D01*
X130367673Y78302009D01*
X130187991Y78122327D01*
X130046817Y77911044D01*
X129949574Y77676279D01*
X129900000Y77427054D01*
X116852282Y77427054D01*
X116812009Y77487327D01*
X116632327Y77667009D01*
X116421044Y77808183D01*
X116186279Y77905426D01*
X115937054Y77955000D01*
X115682946Y77955000D01*
X115433721Y77905426D01*
X115198956Y77808183D01*
X114987673Y77667009D01*
X114807991Y77487327D01*
X114666817Y77276044D01*
X114569574Y77041279D01*
X114520000Y76792054D01*
X109375887Y76792054D01*
X109430426Y76923721D01*
X109480000Y77172946D01*
X109480000Y77427054D01*
X109430426Y77676279D01*
X109333183Y77911044D01*
X109192009Y78122327D01*
X109012327Y78302009D01*
X108801044Y78443183D01*
X108566279Y78540426D01*
X108317054Y78590000D01*
X108062946Y78590000D01*
X107813721Y78540426D01*
X107578956Y78443183D01*
X107367673Y78302009D01*
X107187991Y78122327D01*
X107046817Y77911044D01*
X106949574Y77676279D01*
X106900000Y77427054D01*
X93852282Y77427054D01*
X93812009Y77487327D01*
X93632327Y77667009D01*
X93421044Y77808183D01*
X93186279Y77905426D01*
X92937054Y77955000D01*
X92682946Y77955000D01*
X92433721Y77905426D01*
X92198956Y77808183D01*
X91987673Y77667009D01*
X91807991Y77487327D01*
X91666817Y77276044D01*
X91569574Y77041279D01*
X91520000Y76792054D01*
X86375887Y76792054D01*
X86430426Y76923721D01*
X86480000Y77172946D01*
X86480000Y77427054D01*
X86430426Y77676279D01*
X86333183Y77911044D01*
X86192009Y78122327D01*
X86012327Y78302009D01*
X85801044Y78443183D01*
X85566279Y78540426D01*
X85317054Y78590000D01*
X85062946Y78590000D01*
X84813721Y78540426D01*
X84578956Y78443183D01*
X84367673Y78302009D01*
X84187991Y78122327D01*
X84046817Y77911044D01*
X83949574Y77676279D01*
X83900000Y77427054D01*
X70952282Y77427054D01*
X70912009Y77487327D01*
X70732327Y77667009D01*
X70521044Y77808183D01*
X70286279Y77905426D01*
X70037054Y77955000D01*
X69782946Y77955000D01*
X69533721Y77905426D01*
X69298956Y77808183D01*
X69087673Y77667009D01*
X68907991Y77487327D01*
X68766817Y77276044D01*
X68669574Y77041279D01*
X68620000Y76792054D01*
X63475887Y76792054D01*
X63530426Y76923721D01*
X63580000Y77172946D01*
X63580000Y77427054D01*
X63530426Y77676279D01*
X63433183Y77911044D01*
X63292009Y78122327D01*
X63112327Y78302009D01*
X62901044Y78443183D01*
X62666279Y78540426D01*
X62417054Y78590000D01*
X62162946Y78590000D01*
X61913721Y78540426D01*
X61678956Y78443183D01*
X61467673Y78302009D01*
X61287991Y78122327D01*
X61146817Y77911044D01*
X61049574Y77676279D01*
X61000000Y77427054D01*
X47952282Y77427054D01*
X47912009Y77487327D01*
X47732327Y77667009D01*
X47521044Y77808183D01*
X47286279Y77905426D01*
X47037054Y77955000D01*
X46782946Y77955000D01*
X46533721Y77905426D01*
X46298956Y77808183D01*
X46087673Y77667009D01*
X45907991Y77487327D01*
X45766817Y77276044D01*
X45669574Y77041279D01*
X45620000Y76792054D01*
X40475887Y76792054D01*
X40530426Y76923721D01*
X40580000Y77172946D01*
X40580000Y77427054D01*
X40530426Y77676279D01*
X40433183Y77911044D01*
X40292009Y78122327D01*
X40112327Y78302009D01*
X39901044Y78443183D01*
X39666279Y78540426D01*
X39417054Y78590000D01*
X39162946Y78590000D01*
X38913721Y78540426D01*
X38678956Y78443183D01*
X38467673Y78302009D01*
X38287991Y78122327D01*
X38146817Y77911044D01*
X38049574Y77676279D01*
X38000000Y77427054D01*
X24852282Y77427054D01*
X24812009Y77487327D01*
X24632327Y77667009D01*
X24421044Y77808183D01*
X24186279Y77905426D01*
X23937054Y77955000D01*
X23682946Y77955000D01*
X23433721Y77905426D01*
X23198956Y77808183D01*
X22987673Y77667009D01*
X22807991Y77487327D01*
X22666817Y77276044D01*
X22569574Y77041279D01*
X22520000Y76792054D01*
X17375887Y76792054D01*
X17430426Y76923721D01*
X17480000Y77172946D01*
X17480000Y77427054D01*
X17430426Y77676279D01*
X17333183Y77911044D01*
X17192009Y78122327D01*
X17012327Y78302009D01*
X16801044Y78443183D01*
X16566279Y78540426D01*
X16317054Y78590000D01*
X16062946Y78590000D01*
X15813721Y78540426D01*
X15578956Y78443183D01*
X15367673Y78302009D01*
X15187991Y78122327D01*
X15046817Y77911044D01*
X14949574Y77676279D01*
X14900000Y77427054D01*
X6365000Y77427054D01*
X6365000Y81237054D01*
X22520000Y81237054D01*
X22520000Y80982946D01*
X22569574Y80733721D01*
X22666817Y80498956D01*
X22807991Y80287673D01*
X22987673Y80107991D01*
X23198956Y79966817D01*
X23433721Y79869574D01*
X23682946Y79820000D01*
X23937054Y79820000D01*
X24186279Y79869574D01*
X24421044Y79966817D01*
X24632327Y80107991D01*
X24812009Y80287673D01*
X24953183Y80498956D01*
X25050426Y80733721D01*
X25100000Y80982946D01*
X25100000Y81237054D01*
X45620000Y81237054D01*
X45620000Y80982946D01*
X45669574Y80733721D01*
X45766817Y80498956D01*
X45907991Y80287673D01*
X46087673Y80107991D01*
X46298956Y79966817D01*
X46533721Y79869574D01*
X46782946Y79820000D01*
X47037054Y79820000D01*
X47286279Y79869574D01*
X47521044Y79966817D01*
X47732327Y80107991D01*
X47912009Y80287673D01*
X48053183Y80498956D01*
X48150426Y80733721D01*
X48200000Y80982946D01*
X48200000Y81237054D01*
X68620000Y81237054D01*
X68620000Y80982946D01*
X68669574Y80733721D01*
X68766817Y80498956D01*
X68907991Y80287673D01*
X69087673Y80107991D01*
X69298956Y79966817D01*
X69533721Y79869574D01*
X69782946Y79820000D01*
X70037054Y79820000D01*
X70286279Y79869574D01*
X70521044Y79966817D01*
X70732327Y80107991D01*
X70912009Y80287673D01*
X71053183Y80498956D01*
X71150426Y80733721D01*
X71200000Y80982946D01*
X71200000Y81237054D01*
X91520000Y81237054D01*
X91520000Y80982946D01*
X91569574Y80733721D01*
X91666817Y80498956D01*
X91807991Y80287673D01*
X91987673Y80107991D01*
X92198956Y79966817D01*
X92433721Y79869574D01*
X92682946Y79820000D01*
X92937054Y79820000D01*
X93186279Y79869574D01*
X93421044Y79966817D01*
X93632327Y80107991D01*
X93812009Y80287673D01*
X93953183Y80498956D01*
X94050426Y80733721D01*
X94100000Y80982946D01*
X94100000Y81237054D01*
X114520000Y81237054D01*
X114520000Y80982946D01*
X114569574Y80733721D01*
X114666817Y80498956D01*
X114807991Y80287673D01*
X114987673Y80107991D01*
X115198956Y79966817D01*
X115433721Y79869574D01*
X115682946Y79820000D01*
X115937054Y79820000D01*
X116186279Y79869574D01*
X116421044Y79966817D01*
X116632327Y80107991D01*
X116812009Y80287673D01*
X116953183Y80498956D01*
X117050426Y80733721D01*
X117100000Y80982946D01*
X117100000Y81237054D01*
X137520000Y81237054D01*
X137520000Y80982946D01*
X137569574Y80733721D01*
X137666817Y80498956D01*
X137807991Y80287673D01*
X137987673Y80107991D01*
X138198956Y79966817D01*
X138433721Y79869574D01*
X138682946Y79820000D01*
X138937054Y79820000D01*
X139186279Y79869574D01*
X139421044Y79966817D01*
X139632327Y80107991D01*
X139812009Y80287673D01*
X139953183Y80498956D01*
X140050426Y80733721D01*
X140100000Y80982946D01*
X140100000Y81237054D01*
X160520000Y81237054D01*
X160520000Y80982946D01*
X160569574Y80733721D01*
X160666817Y80498956D01*
X160807991Y80287673D01*
X160987673Y80107991D01*
X161198956Y79966817D01*
X161433721Y79869574D01*
X161682946Y79820000D01*
X161937054Y79820000D01*
X162186279Y79869574D01*
X162421044Y79966817D01*
X162632327Y80107991D01*
X162812009Y80287673D01*
X162953183Y80498956D01*
X163050426Y80733721D01*
X163100000Y80982946D01*
X163100000Y81237054D01*
X183520000Y81237054D01*
X183520000Y80982946D01*
X183569574Y80733721D01*
X183666817Y80498956D01*
X183807991Y80287673D01*
X183987673Y80107991D01*
X184198956Y79966817D01*
X184433721Y79869574D01*
X184682946Y79820000D01*
X184937054Y79820000D01*
X185186279Y79869574D01*
X185421044Y79966817D01*
X185632327Y80107991D01*
X185812009Y80287673D01*
X185953183Y80498956D01*
X186050426Y80733721D01*
X186100000Y80982946D01*
X186100000Y81237054D01*
X186050426Y81486279D01*
X185953183Y81721044D01*
X185812009Y81932327D01*
X185632327Y82112009D01*
X185421044Y82253183D01*
X185186279Y82350426D01*
X184937054Y82400000D01*
X184682946Y82400000D01*
X184433721Y82350426D01*
X184198956Y82253183D01*
X183987673Y82112009D01*
X183807991Y81932327D01*
X183666817Y81721044D01*
X183569574Y81486279D01*
X183520000Y81237054D01*
X163100000Y81237054D01*
X163050426Y81486279D01*
X162953183Y81721044D01*
X162812009Y81932327D01*
X162632327Y82112009D01*
X162421044Y82253183D01*
X162186279Y82350426D01*
X161937054Y82400000D01*
X161682946Y82400000D01*
X161433721Y82350426D01*
X161198956Y82253183D01*
X160987673Y82112009D01*
X160807991Y81932327D01*
X160666817Y81721044D01*
X160569574Y81486279D01*
X160520000Y81237054D01*
X140100000Y81237054D01*
X140050426Y81486279D01*
X139953183Y81721044D01*
X139812009Y81932327D01*
X139632327Y82112009D01*
X139421044Y82253183D01*
X139186279Y82350426D01*
X138937054Y82400000D01*
X138682946Y82400000D01*
X138433721Y82350426D01*
X138198956Y82253183D01*
X137987673Y82112009D01*
X137807991Y81932327D01*
X137666817Y81721044D01*
X137569574Y81486279D01*
X137520000Y81237054D01*
X117100000Y81237054D01*
X117050426Y81486279D01*
X116953183Y81721044D01*
X116812009Y81932327D01*
X116632327Y82112009D01*
X116421044Y82253183D01*
X116186279Y82350426D01*
X115937054Y82400000D01*
X115682946Y82400000D01*
X115433721Y82350426D01*
X115198956Y82253183D01*
X114987673Y82112009D01*
X114807991Y81932327D01*
X114666817Y81721044D01*
X114569574Y81486279D01*
X114520000Y81237054D01*
X94100000Y81237054D01*
X94050426Y81486279D01*
X93953183Y81721044D01*
X93812009Y81932327D01*
X93632327Y82112009D01*
X93421044Y82253183D01*
X93186279Y82350426D01*
X92937054Y82400000D01*
X92682946Y82400000D01*
X92433721Y82350426D01*
X92198956Y82253183D01*
X91987673Y82112009D01*
X91807991Y81932327D01*
X91666817Y81721044D01*
X91569574Y81486279D01*
X91520000Y81237054D01*
X71200000Y81237054D01*
X71150426Y81486279D01*
X71053183Y81721044D01*
X70912009Y81932327D01*
X70732327Y82112009D01*
X70521044Y82253183D01*
X70286279Y82350426D01*
X70037054Y82400000D01*
X69782946Y82400000D01*
X69533721Y82350426D01*
X69298956Y82253183D01*
X69087673Y82112009D01*
X68907991Y81932327D01*
X68766817Y81721044D01*
X68669574Y81486279D01*
X68620000Y81237054D01*
X48200000Y81237054D01*
X48150426Y81486279D01*
X48053183Y81721044D01*
X47912009Y81932327D01*
X47732327Y82112009D01*
X47521044Y82253183D01*
X47286279Y82350426D01*
X47037054Y82400000D01*
X46782946Y82400000D01*
X46533721Y82350426D01*
X46298956Y82253183D01*
X46087673Y82112009D01*
X45907991Y81932327D01*
X45766817Y81721044D01*
X45669574Y81486279D01*
X45620000Y81237054D01*
X25100000Y81237054D01*
X25050426Y81486279D01*
X24953183Y81721044D01*
X24812009Y81932327D01*
X24632327Y82112009D01*
X24421044Y82253183D01*
X24186279Y82350426D01*
X23937054Y82400000D01*
X23682946Y82400000D01*
X23433721Y82350426D01*
X23198956Y82253183D01*
X22987673Y82112009D01*
X22807991Y81932327D01*
X22666817Y81721044D01*
X22569574Y81486279D01*
X22520000Y81237054D01*
X6365000Y81237054D01*
X6365000Y86317054D01*
X14900000Y86317054D01*
X14900000Y86062946D01*
X14949574Y85813721D01*
X15046817Y85578956D01*
X15187991Y85367673D01*
X15367673Y85187991D01*
X15578956Y85046817D01*
X15813721Y84949574D01*
X16062946Y84900000D01*
X16317054Y84900000D01*
X16566279Y84949574D01*
X16801044Y85046817D01*
X17012327Y85187991D01*
X17192009Y85367673D01*
X17333183Y85578956D01*
X17430426Y85813721D01*
X17480000Y86062946D01*
X17480000Y86317054D01*
X38000000Y86317054D01*
X38000000Y86062946D01*
X38049574Y85813721D01*
X38146817Y85578956D01*
X38287991Y85367673D01*
X38467673Y85187991D01*
X38678956Y85046817D01*
X38913721Y84949574D01*
X39162946Y84900000D01*
X39417054Y84900000D01*
X39666279Y84949574D01*
X39901044Y85046817D01*
X40112327Y85187991D01*
X40292009Y85367673D01*
X40433183Y85578956D01*
X40530426Y85813721D01*
X40580000Y86062946D01*
X40580000Y86317054D01*
X61000000Y86317054D01*
X61000000Y86062946D01*
X61049574Y85813721D01*
X61146817Y85578956D01*
X61287991Y85367673D01*
X61467673Y85187991D01*
X61678956Y85046817D01*
X61913721Y84949574D01*
X62162946Y84900000D01*
X62417054Y84900000D01*
X62666279Y84949574D01*
X62901044Y85046817D01*
X63112327Y85187991D01*
X63292009Y85367673D01*
X63433183Y85578956D01*
X63530426Y85813721D01*
X63580000Y86062946D01*
X63580000Y86317054D01*
X83900000Y86317054D01*
X83900000Y86062946D01*
X83949574Y85813721D01*
X84046817Y85578956D01*
X84187991Y85367673D01*
X84367673Y85187991D01*
X84578956Y85046817D01*
X84813721Y84949574D01*
X85062946Y84900000D01*
X85317054Y84900000D01*
X85566279Y84949574D01*
X85801044Y85046817D01*
X86012327Y85187991D01*
X86192009Y85367673D01*
X86333183Y85578956D01*
X86430426Y85813721D01*
X86480000Y86062946D01*
X86480000Y86317054D01*
X106900000Y86317054D01*
X106900000Y86062946D01*
X106949574Y85813721D01*
X107046817Y85578956D01*
X107187991Y85367673D01*
X107367673Y85187991D01*
X107578956Y85046817D01*
X107813721Y84949574D01*
X108062946Y84900000D01*
X108317054Y84900000D01*
X108566279Y84949574D01*
X108801044Y85046817D01*
X109012327Y85187991D01*
X109192009Y85367673D01*
X109333183Y85578956D01*
X109430426Y85813721D01*
X109480000Y86062946D01*
X109480000Y86317054D01*
X129900000Y86317054D01*
X129900000Y86062946D01*
X129949574Y85813721D01*
X130046817Y85578956D01*
X130187991Y85367673D01*
X130367673Y85187991D01*
X130578956Y85046817D01*
X130813721Y84949574D01*
X131062946Y84900000D01*
X131317054Y84900000D01*
X131566279Y84949574D01*
X131801044Y85046817D01*
X132012327Y85187991D01*
X132192009Y85367673D01*
X132333183Y85578956D01*
X132430426Y85813721D01*
X132480000Y86062946D01*
X132480000Y86317054D01*
X152900000Y86317054D01*
X152900000Y86062946D01*
X152949574Y85813721D01*
X153046817Y85578956D01*
X153187991Y85367673D01*
X153367673Y85187991D01*
X153578956Y85046817D01*
X153813721Y84949574D01*
X154062946Y84900000D01*
X154317054Y84900000D01*
X154566279Y84949574D01*
X154801044Y85046817D01*
X155012327Y85187991D01*
X155192009Y85367673D01*
X155333183Y85578956D01*
X155430426Y85813721D01*
X155480000Y86062946D01*
X155480000Y86317054D01*
X175900000Y86317054D01*
X175900000Y86062946D01*
X175949574Y85813721D01*
X176046817Y85578956D01*
X176187991Y85367673D01*
X176367673Y85187991D01*
X176578956Y85046817D01*
X176813721Y84949574D01*
X177062946Y84900000D01*
X177317054Y84900000D01*
X177566279Y84949574D01*
X177801044Y85046817D01*
X178012327Y85187991D01*
X178192009Y85367673D01*
X178333183Y85578956D01*
X178430426Y85813721D01*
X178480000Y86062946D01*
X178480000Y86317054D01*
X178430426Y86566279D01*
X178333183Y86801044D01*
X178192009Y87012327D01*
X178012327Y87192009D01*
X177801044Y87333183D01*
X177566279Y87430426D01*
X177317054Y87480000D01*
X177062946Y87480000D01*
X176813721Y87430426D01*
X176578956Y87333183D01*
X176367673Y87192009D01*
X176187991Y87012327D01*
X176046817Y86801044D01*
X175949574Y86566279D01*
X175900000Y86317054D01*
X155480000Y86317054D01*
X155430426Y86566279D01*
X155333183Y86801044D01*
X155192009Y87012327D01*
X155012327Y87192009D01*
X154801044Y87333183D01*
X154566279Y87430426D01*
X154317054Y87480000D01*
X154062946Y87480000D01*
X153813721Y87430426D01*
X153578956Y87333183D01*
X153367673Y87192009D01*
X153187991Y87012327D01*
X153046817Y86801044D01*
X152949574Y86566279D01*
X152900000Y86317054D01*
X132480000Y86317054D01*
X132430426Y86566279D01*
X132333183Y86801044D01*
X132192009Y87012327D01*
X132012327Y87192009D01*
X131801044Y87333183D01*
X131566279Y87430426D01*
X131317054Y87480000D01*
X131062946Y87480000D01*
X130813721Y87430426D01*
X130578956Y87333183D01*
X130367673Y87192009D01*
X130187991Y87012327D01*
X130046817Y86801044D01*
X129949574Y86566279D01*
X129900000Y86317054D01*
X109480000Y86317054D01*
X109430426Y86566279D01*
X109333183Y86801044D01*
X109192009Y87012327D01*
X109012327Y87192009D01*
X108801044Y87333183D01*
X108566279Y87430426D01*
X108317054Y87480000D01*
X108062946Y87480000D01*
X107813721Y87430426D01*
X107578956Y87333183D01*
X107367673Y87192009D01*
X107187991Y87012327D01*
X107046817Y86801044D01*
X106949574Y86566279D01*
X106900000Y86317054D01*
X86480000Y86317054D01*
X86430426Y86566279D01*
X86333183Y86801044D01*
X86192009Y87012327D01*
X86012327Y87192009D01*
X85801044Y87333183D01*
X85566279Y87430426D01*
X85317054Y87480000D01*
X85062946Y87480000D01*
X84813721Y87430426D01*
X84578956Y87333183D01*
X84367673Y87192009D01*
X84187991Y87012327D01*
X84046817Y86801044D01*
X83949574Y86566279D01*
X83900000Y86317054D01*
X63580000Y86317054D01*
X63530426Y86566279D01*
X63433183Y86801044D01*
X63292009Y87012327D01*
X63112327Y87192009D01*
X62901044Y87333183D01*
X62666279Y87430426D01*
X62417054Y87480000D01*
X62162946Y87480000D01*
X61913721Y87430426D01*
X61678956Y87333183D01*
X61467673Y87192009D01*
X61287991Y87012327D01*
X61146817Y86801044D01*
X61049574Y86566279D01*
X61000000Y86317054D01*
X40580000Y86317054D01*
X40530426Y86566279D01*
X40433183Y86801044D01*
X40292009Y87012327D01*
X40112327Y87192009D01*
X39901044Y87333183D01*
X39666279Y87430426D01*
X39417054Y87480000D01*
X39162946Y87480000D01*
X38913721Y87430426D01*
X38678956Y87333183D01*
X38467673Y87192009D01*
X38287991Y87012327D01*
X38146817Y86801044D01*
X38049574Y86566279D01*
X38000000Y86317054D01*
X17480000Y86317054D01*
X17430426Y86566279D01*
X17333183Y86801044D01*
X17192009Y87012327D01*
X17012327Y87192009D01*
X16801044Y87333183D01*
X16566279Y87430426D01*
X16317054Y87480000D01*
X16062946Y87480000D01*
X15813721Y87430426D01*
X15578956Y87333183D01*
X15367673Y87192009D01*
X15187991Y87012327D01*
X15046817Y86801044D01*
X14949574Y86566279D01*
X14900000Y86317054D01*
X6365000Y86317054D01*
X6365000Y89635000D01*
X194635000Y89635000D01*
X194635001Y54365000D01*
M02*
