G04 #@! TF.GenerationSoftware,KiCad,Pcbnew,(5.1.0-0)*
G04 #@! TF.CreationDate,2019-04-19T21:43:25+02:00*
G04 #@! TF.ProjectId,AddOnB,4164644f-6e42-42e6-9b69-6361645f7063,rev?*
G04 #@! TF.SameCoordinates,Original*
G04 #@! TF.FileFunction,Soldermask,Bot*
G04 #@! TF.FilePolarity,Negative*
%FSLAX46Y46*%
G04 Gerber Fmt 4.6, Leading zero omitted, Abs format (unit mm)*
G04 Created by KiCad (PCBNEW (5.1.0-0)) date 2019-04-19 21:43:25*
%MOMM*%
%LPD*%
G04 APERTURE LIST*
%ADD10C,0.100000*%
G04 APERTURE END LIST*
D10*
G36*
X84408500Y58708211D02*
G01*
X84608994Y58647392D01*
X84793759Y58548633D01*
X84793762Y58548631D01*
X84793763Y58548630D01*
X84955718Y58415718D01*
X85088630Y58253763D01*
X85088633Y58253759D01*
X85187392Y58068994D01*
X85248211Y57868500D01*
X85268746Y57660000D01*
X85248211Y57451500D01*
X85187392Y57251006D01*
X85088633Y57066241D01*
X85088631Y57066238D01*
X85088630Y57066237D01*
X84955718Y56904282D01*
X84793763Y56771370D01*
X84793759Y56771367D01*
X84608994Y56672608D01*
X84408500Y56611789D01*
X84252251Y56596400D01*
X84147749Y56596400D01*
X83991500Y56611789D01*
X83791006Y56672608D01*
X83606241Y56771367D01*
X83606237Y56771370D01*
X83444282Y56904282D01*
X83311370Y57066237D01*
X83311369Y57066238D01*
X83311367Y57066241D01*
X83212608Y57251006D01*
X83151789Y57451500D01*
X83131254Y57660000D01*
X83151789Y57868500D01*
X83212608Y58068994D01*
X83311367Y58253759D01*
X83311370Y58253763D01*
X83444282Y58415718D01*
X83606237Y58548630D01*
X83606238Y58548631D01*
X83606241Y58548633D01*
X83791006Y58647392D01*
X83991500Y58708211D01*
X84147749Y58723600D01*
X84252251Y58723600D01*
X84408500Y58708211D01*
X84408500Y58708211D01*
G37*
G36*
X81868500Y58708211D02*
G01*
X82068994Y58647392D01*
X82253759Y58548633D01*
X82253762Y58548631D01*
X82253763Y58548630D01*
X82415718Y58415718D01*
X82548630Y58253763D01*
X82548633Y58253759D01*
X82647392Y58068994D01*
X82708211Y57868500D01*
X82728746Y57660000D01*
X82708211Y57451500D01*
X82647392Y57251006D01*
X82548633Y57066241D01*
X82548631Y57066238D01*
X82548630Y57066237D01*
X82415718Y56904282D01*
X82253763Y56771370D01*
X82253759Y56771367D01*
X82068994Y56672608D01*
X81868500Y56611789D01*
X81712251Y56596400D01*
X81607749Y56596400D01*
X81451500Y56611789D01*
X81251006Y56672608D01*
X81066241Y56771367D01*
X81066237Y56771370D01*
X80904282Y56904282D01*
X80771370Y57066237D01*
X80771369Y57066238D01*
X80771367Y57066241D01*
X80672608Y57251006D01*
X80611789Y57451500D01*
X80591254Y57660000D01*
X80611789Y57868500D01*
X80672608Y58068994D01*
X80771367Y58253759D01*
X80771370Y58253763D01*
X80904282Y58415718D01*
X81066237Y58548630D01*
X81066238Y58548631D01*
X81066241Y58548633D01*
X81251006Y58647392D01*
X81451500Y58708211D01*
X81607749Y58723600D01*
X81712251Y58723600D01*
X81868500Y58708211D01*
X81868500Y58708211D01*
G37*
G36*
X79328500Y58708211D02*
G01*
X79528994Y58647392D01*
X79713759Y58548633D01*
X79713762Y58548631D01*
X79713763Y58548630D01*
X79875718Y58415718D01*
X80008630Y58253763D01*
X80008633Y58253759D01*
X80107392Y58068994D01*
X80168211Y57868500D01*
X80188746Y57660000D01*
X80168211Y57451500D01*
X80107392Y57251006D01*
X80008633Y57066241D01*
X80008631Y57066238D01*
X80008630Y57066237D01*
X79875718Y56904282D01*
X79713763Y56771370D01*
X79713759Y56771367D01*
X79528994Y56672608D01*
X79328500Y56611789D01*
X79172251Y56596400D01*
X79067749Y56596400D01*
X78911500Y56611789D01*
X78711006Y56672608D01*
X78526241Y56771367D01*
X78526237Y56771370D01*
X78364282Y56904282D01*
X78231370Y57066237D01*
X78231369Y57066238D01*
X78231367Y57066241D01*
X78132608Y57251006D01*
X78071789Y57451500D01*
X78051254Y57660000D01*
X78071789Y57868500D01*
X78132608Y58068994D01*
X78231367Y58253759D01*
X78231370Y58253763D01*
X78364282Y58415718D01*
X78526237Y58548630D01*
X78526238Y58548631D01*
X78526241Y58548633D01*
X78711006Y58647392D01*
X78911500Y58708211D01*
X79067749Y58723600D01*
X79172251Y58723600D01*
X79328500Y58708211D01*
X79328500Y58708211D01*
G37*
G36*
X76788500Y58708211D02*
G01*
X76988994Y58647392D01*
X77173759Y58548633D01*
X77173762Y58548631D01*
X77173763Y58548630D01*
X77335718Y58415718D01*
X77468630Y58253763D01*
X77468633Y58253759D01*
X77567392Y58068994D01*
X77628211Y57868500D01*
X77648746Y57660000D01*
X77628211Y57451500D01*
X77567392Y57251006D01*
X77468633Y57066241D01*
X77468631Y57066238D01*
X77468630Y57066237D01*
X77335718Y56904282D01*
X77173763Y56771370D01*
X77173759Y56771367D01*
X76988994Y56672608D01*
X76788500Y56611789D01*
X76632251Y56596400D01*
X76527749Y56596400D01*
X76371500Y56611789D01*
X76171006Y56672608D01*
X75986241Y56771367D01*
X75986237Y56771370D01*
X75824282Y56904282D01*
X75691370Y57066237D01*
X75691369Y57066238D01*
X75691367Y57066241D01*
X75592608Y57251006D01*
X75531789Y57451500D01*
X75511254Y57660000D01*
X75531789Y57868500D01*
X75592608Y58068994D01*
X75691367Y58253759D01*
X75691370Y58253763D01*
X75824282Y58415718D01*
X75986237Y58548630D01*
X75986238Y58548631D01*
X75986241Y58548633D01*
X76171006Y58647392D01*
X76371500Y58708211D01*
X76527749Y58723600D01*
X76632251Y58723600D01*
X76788500Y58708211D01*
X76788500Y58708211D01*
G37*
G36*
X74248500Y58708211D02*
G01*
X74448994Y58647392D01*
X74633759Y58548633D01*
X74633762Y58548631D01*
X74633763Y58548630D01*
X74795718Y58415718D01*
X74928630Y58253763D01*
X74928633Y58253759D01*
X75027392Y58068994D01*
X75088211Y57868500D01*
X75108746Y57660000D01*
X75088211Y57451500D01*
X75027392Y57251006D01*
X74928633Y57066241D01*
X74928631Y57066238D01*
X74928630Y57066237D01*
X74795718Y56904282D01*
X74633763Y56771370D01*
X74633759Y56771367D01*
X74448994Y56672608D01*
X74248500Y56611789D01*
X74092251Y56596400D01*
X73987749Y56596400D01*
X73831500Y56611789D01*
X73631006Y56672608D01*
X73446241Y56771367D01*
X73446237Y56771370D01*
X73284282Y56904282D01*
X73151370Y57066237D01*
X73151369Y57066238D01*
X73151367Y57066241D01*
X73052608Y57251006D01*
X72991789Y57451500D01*
X72971254Y57660000D01*
X72991789Y57868500D01*
X73052608Y58068994D01*
X73151367Y58253759D01*
X73151370Y58253763D01*
X73284282Y58415718D01*
X73446237Y58548630D01*
X73446238Y58548631D01*
X73446241Y58548633D01*
X73631006Y58647392D01*
X73831500Y58708211D01*
X73987749Y58723600D01*
X74092251Y58723600D01*
X74248500Y58708211D01*
X74248500Y58708211D01*
G37*
G36*
X71708500Y58708211D02*
G01*
X71908994Y58647392D01*
X72093759Y58548633D01*
X72093762Y58548631D01*
X72093763Y58548630D01*
X72255718Y58415718D01*
X72388630Y58253763D01*
X72388633Y58253759D01*
X72487392Y58068994D01*
X72548211Y57868500D01*
X72568746Y57660000D01*
X72548211Y57451500D01*
X72487392Y57251006D01*
X72388633Y57066241D01*
X72388631Y57066238D01*
X72388630Y57066237D01*
X72255718Y56904282D01*
X72093763Y56771370D01*
X72093759Y56771367D01*
X71908994Y56672608D01*
X71708500Y56611789D01*
X71552251Y56596400D01*
X71447749Y56596400D01*
X71291500Y56611789D01*
X71091006Y56672608D01*
X70906241Y56771367D01*
X70906237Y56771370D01*
X70744282Y56904282D01*
X70611370Y57066237D01*
X70611369Y57066238D01*
X70611367Y57066241D01*
X70512608Y57251006D01*
X70451789Y57451500D01*
X70431254Y57660000D01*
X70451789Y57868500D01*
X70512608Y58068994D01*
X70611367Y58253759D01*
X70611370Y58253763D01*
X70744282Y58415718D01*
X70906237Y58548630D01*
X70906238Y58548631D01*
X70906241Y58548633D01*
X71091006Y58647392D01*
X71291500Y58708211D01*
X71447749Y58723600D01*
X71552251Y58723600D01*
X71708500Y58708211D01*
X71708500Y58708211D01*
G37*
G36*
X69168500Y58708211D02*
G01*
X69368994Y58647392D01*
X69553759Y58548633D01*
X69553762Y58548631D01*
X69553763Y58548630D01*
X69715718Y58415718D01*
X69848630Y58253763D01*
X69848633Y58253759D01*
X69947392Y58068994D01*
X70008211Y57868500D01*
X70028746Y57660000D01*
X70008211Y57451500D01*
X69947392Y57251006D01*
X69848633Y57066241D01*
X69848631Y57066238D01*
X69848630Y57066237D01*
X69715718Y56904282D01*
X69553763Y56771370D01*
X69553759Y56771367D01*
X69368994Y56672608D01*
X69168500Y56611789D01*
X69012251Y56596400D01*
X68907749Y56596400D01*
X68751500Y56611789D01*
X68551006Y56672608D01*
X68366241Y56771367D01*
X68366237Y56771370D01*
X68204282Y56904282D01*
X68071370Y57066237D01*
X68071369Y57066238D01*
X68071367Y57066241D01*
X67972608Y57251006D01*
X67911789Y57451500D01*
X67891254Y57660000D01*
X67911789Y57868500D01*
X67972608Y58068994D01*
X68071367Y58253759D01*
X68071370Y58253763D01*
X68204282Y58415718D01*
X68366237Y58548630D01*
X68366238Y58548631D01*
X68366241Y58548633D01*
X68551006Y58647392D01*
X68751500Y58708211D01*
X68907749Y58723600D01*
X69012251Y58723600D01*
X69168500Y58708211D01*
X69168500Y58708211D01*
G37*
G36*
X66628500Y58708211D02*
G01*
X66828994Y58647392D01*
X67013759Y58548633D01*
X67013762Y58548631D01*
X67013763Y58548630D01*
X67175718Y58415718D01*
X67308630Y58253763D01*
X67308633Y58253759D01*
X67407392Y58068994D01*
X67468211Y57868500D01*
X67488746Y57660000D01*
X67468211Y57451500D01*
X67407392Y57251006D01*
X67308633Y57066241D01*
X67308631Y57066238D01*
X67308630Y57066237D01*
X67175718Y56904282D01*
X67013763Y56771370D01*
X67013759Y56771367D01*
X66828994Y56672608D01*
X66628500Y56611789D01*
X66472251Y56596400D01*
X66367749Y56596400D01*
X66211500Y56611789D01*
X66011006Y56672608D01*
X65826241Y56771367D01*
X65826237Y56771370D01*
X65664282Y56904282D01*
X65531370Y57066237D01*
X65531369Y57066238D01*
X65531367Y57066241D01*
X65432608Y57251006D01*
X65371789Y57451500D01*
X65351254Y57660000D01*
X65371789Y57868500D01*
X65432608Y58068994D01*
X65531367Y58253759D01*
X65531370Y58253763D01*
X65664282Y58415718D01*
X65826237Y58548630D01*
X65826238Y58548631D01*
X65826241Y58548633D01*
X66011006Y58647392D01*
X66211500Y58708211D01*
X66367749Y58723600D01*
X66472251Y58723600D01*
X66628500Y58708211D01*
X66628500Y58708211D01*
G37*
G36*
X64088500Y58708211D02*
G01*
X64288994Y58647392D01*
X64473759Y58548633D01*
X64473762Y58548631D01*
X64473763Y58548630D01*
X64635718Y58415718D01*
X64768630Y58253763D01*
X64768633Y58253759D01*
X64867392Y58068994D01*
X64928211Y57868500D01*
X64948746Y57660000D01*
X64928211Y57451500D01*
X64867392Y57251006D01*
X64768633Y57066241D01*
X64768631Y57066238D01*
X64768630Y57066237D01*
X64635718Y56904282D01*
X64473763Y56771370D01*
X64473759Y56771367D01*
X64288994Y56672608D01*
X64088500Y56611789D01*
X63932251Y56596400D01*
X63827749Y56596400D01*
X63671500Y56611789D01*
X63471006Y56672608D01*
X63286241Y56771367D01*
X63286237Y56771370D01*
X63124282Y56904282D01*
X62991370Y57066237D01*
X62991369Y57066238D01*
X62991367Y57066241D01*
X62892608Y57251006D01*
X62831789Y57451500D01*
X62811254Y57660000D01*
X62831789Y57868500D01*
X62892608Y58068994D01*
X62991367Y58253759D01*
X62991370Y58253763D01*
X63124282Y58415718D01*
X63286237Y58548630D01*
X63286238Y58548631D01*
X63286241Y58548633D01*
X63471006Y58647392D01*
X63671500Y58708211D01*
X63827749Y58723600D01*
X63932251Y58723600D01*
X64088500Y58708211D01*
X64088500Y58708211D01*
G37*
G36*
X61548500Y58708211D02*
G01*
X61748994Y58647392D01*
X61933759Y58548633D01*
X61933762Y58548631D01*
X61933763Y58548630D01*
X62095718Y58415718D01*
X62228630Y58253763D01*
X62228633Y58253759D01*
X62327392Y58068994D01*
X62388211Y57868500D01*
X62408746Y57660000D01*
X62388211Y57451500D01*
X62327392Y57251006D01*
X62228633Y57066241D01*
X62228631Y57066238D01*
X62228630Y57066237D01*
X62095718Y56904282D01*
X61933763Y56771370D01*
X61933759Y56771367D01*
X61748994Y56672608D01*
X61548500Y56611789D01*
X61392251Y56596400D01*
X61287749Y56596400D01*
X61131500Y56611789D01*
X60931006Y56672608D01*
X60746241Y56771367D01*
X60746237Y56771370D01*
X60584282Y56904282D01*
X60451370Y57066237D01*
X60451369Y57066238D01*
X60451367Y57066241D01*
X60352608Y57251006D01*
X60291789Y57451500D01*
X60271254Y57660000D01*
X60291789Y57868500D01*
X60352608Y58068994D01*
X60451367Y58253759D01*
X60451370Y58253763D01*
X60584282Y58415718D01*
X60746237Y58548630D01*
X60746238Y58548631D01*
X60746241Y58548633D01*
X60931006Y58647392D01*
X61131500Y58708211D01*
X61287749Y58723600D01*
X61392251Y58723600D01*
X61548500Y58708211D01*
X61548500Y58708211D01*
G37*
G36*
X59008500Y58708211D02*
G01*
X59208994Y58647392D01*
X59393759Y58548633D01*
X59393762Y58548631D01*
X59393763Y58548630D01*
X59555718Y58415718D01*
X59688630Y58253763D01*
X59688633Y58253759D01*
X59787392Y58068994D01*
X59848211Y57868500D01*
X59868746Y57660000D01*
X59848211Y57451500D01*
X59787392Y57251006D01*
X59688633Y57066241D01*
X59688631Y57066238D01*
X59688630Y57066237D01*
X59555718Y56904282D01*
X59393763Y56771370D01*
X59393759Y56771367D01*
X59208994Y56672608D01*
X59008500Y56611789D01*
X58852251Y56596400D01*
X58747749Y56596400D01*
X58591500Y56611789D01*
X58391006Y56672608D01*
X58206241Y56771367D01*
X58206237Y56771370D01*
X58044282Y56904282D01*
X57911370Y57066237D01*
X57911369Y57066238D01*
X57911367Y57066241D01*
X57812608Y57251006D01*
X57751789Y57451500D01*
X57731254Y57660000D01*
X57751789Y57868500D01*
X57812608Y58068994D01*
X57911367Y58253759D01*
X57911370Y58253763D01*
X58044282Y58415718D01*
X58206237Y58548630D01*
X58206238Y58548631D01*
X58206241Y58548633D01*
X58391006Y58647392D01*
X58591500Y58708211D01*
X58747749Y58723600D01*
X58852251Y58723600D01*
X59008500Y58708211D01*
X59008500Y58708211D01*
G37*
G36*
X56468500Y58708211D02*
G01*
X56668994Y58647392D01*
X56853759Y58548633D01*
X56853762Y58548631D01*
X56853763Y58548630D01*
X57015718Y58415718D01*
X57148630Y58253763D01*
X57148633Y58253759D01*
X57247392Y58068994D01*
X57308211Y57868500D01*
X57328746Y57660000D01*
X57308211Y57451500D01*
X57247392Y57251006D01*
X57148633Y57066241D01*
X57148631Y57066238D01*
X57148630Y57066237D01*
X57015718Y56904282D01*
X56853763Y56771370D01*
X56853759Y56771367D01*
X56668994Y56672608D01*
X56468500Y56611789D01*
X56312251Y56596400D01*
X56207749Y56596400D01*
X56051500Y56611789D01*
X55851006Y56672608D01*
X55666241Y56771367D01*
X55666237Y56771370D01*
X55504282Y56904282D01*
X55371370Y57066237D01*
X55371369Y57066238D01*
X55371367Y57066241D01*
X55272608Y57251006D01*
X55211789Y57451500D01*
X55191254Y57660000D01*
X55211789Y57868500D01*
X55272608Y58068994D01*
X55371367Y58253759D01*
X55371370Y58253763D01*
X55504282Y58415718D01*
X55666237Y58548630D01*
X55666238Y58548631D01*
X55666241Y58548633D01*
X55851006Y58647392D01*
X56051500Y58708211D01*
X56207749Y58723600D01*
X56312251Y58723600D01*
X56468500Y58708211D01*
X56468500Y58708211D01*
G37*
G36*
X53928500Y58708211D02*
G01*
X54128994Y58647392D01*
X54313759Y58548633D01*
X54313762Y58548631D01*
X54313763Y58548630D01*
X54475718Y58415718D01*
X54608630Y58253763D01*
X54608633Y58253759D01*
X54707392Y58068994D01*
X54768211Y57868500D01*
X54788746Y57660000D01*
X54768211Y57451500D01*
X54707392Y57251006D01*
X54608633Y57066241D01*
X54608631Y57066238D01*
X54608630Y57066237D01*
X54475718Y56904282D01*
X54313763Y56771370D01*
X54313759Y56771367D01*
X54128994Y56672608D01*
X53928500Y56611789D01*
X53772251Y56596400D01*
X53667749Y56596400D01*
X53511500Y56611789D01*
X53311006Y56672608D01*
X53126241Y56771367D01*
X53126237Y56771370D01*
X52964282Y56904282D01*
X52831370Y57066237D01*
X52831369Y57066238D01*
X52831367Y57066241D01*
X52732608Y57251006D01*
X52671789Y57451500D01*
X52651254Y57660000D01*
X52671789Y57868500D01*
X52732608Y58068994D01*
X52831367Y58253759D01*
X52831370Y58253763D01*
X52964282Y58415718D01*
X53126237Y58548630D01*
X53126238Y58548631D01*
X53126241Y58548633D01*
X53311006Y58647392D01*
X53511500Y58708211D01*
X53667749Y58723600D01*
X53772251Y58723600D01*
X53928500Y58708211D01*
X53928500Y58708211D01*
G37*
G36*
X53928500Y61248211D02*
G01*
X54128994Y61187392D01*
X54313759Y61088633D01*
X54313762Y61088631D01*
X54313763Y61088630D01*
X54475718Y60955718D01*
X54608630Y60793763D01*
X54608633Y60793759D01*
X54707392Y60608994D01*
X54768211Y60408500D01*
X54788746Y60200000D01*
X54768211Y59991500D01*
X54707392Y59791006D01*
X54608633Y59606241D01*
X54608631Y59606238D01*
X54608630Y59606237D01*
X54475718Y59444282D01*
X54313763Y59311370D01*
X54313759Y59311367D01*
X54128994Y59212608D01*
X53928500Y59151789D01*
X53772251Y59136400D01*
X53667749Y59136400D01*
X53511500Y59151789D01*
X53311006Y59212608D01*
X53126241Y59311367D01*
X53126237Y59311370D01*
X52964282Y59444282D01*
X52831370Y59606237D01*
X52831369Y59606238D01*
X52831367Y59606241D01*
X52732608Y59791006D01*
X52671789Y59991500D01*
X52651254Y60200000D01*
X52671789Y60408500D01*
X52732608Y60608994D01*
X52831367Y60793759D01*
X52831370Y60793763D01*
X52964282Y60955718D01*
X53126237Y61088630D01*
X53126238Y61088631D01*
X53126241Y61088633D01*
X53311006Y61187392D01*
X53511500Y61248211D01*
X53667749Y61263600D01*
X53772251Y61263600D01*
X53928500Y61248211D01*
X53928500Y61248211D01*
G37*
G36*
X56468500Y61248211D02*
G01*
X56668994Y61187392D01*
X56853759Y61088633D01*
X56853762Y61088631D01*
X56853763Y61088630D01*
X57015718Y60955718D01*
X57148630Y60793763D01*
X57148633Y60793759D01*
X57247392Y60608994D01*
X57308211Y60408500D01*
X57328746Y60200000D01*
X57308211Y59991500D01*
X57247392Y59791006D01*
X57148633Y59606241D01*
X57148631Y59606238D01*
X57148630Y59606237D01*
X57015718Y59444282D01*
X56853763Y59311370D01*
X56853759Y59311367D01*
X56668994Y59212608D01*
X56468500Y59151789D01*
X56312251Y59136400D01*
X56207749Y59136400D01*
X56051500Y59151789D01*
X55851006Y59212608D01*
X55666241Y59311367D01*
X55666237Y59311370D01*
X55504282Y59444282D01*
X55371370Y59606237D01*
X55371369Y59606238D01*
X55371367Y59606241D01*
X55272608Y59791006D01*
X55211789Y59991500D01*
X55191254Y60200000D01*
X55211789Y60408500D01*
X55272608Y60608994D01*
X55371367Y60793759D01*
X55371370Y60793763D01*
X55504282Y60955718D01*
X55666237Y61088630D01*
X55666238Y61088631D01*
X55666241Y61088633D01*
X55851006Y61187392D01*
X56051500Y61248211D01*
X56207749Y61263600D01*
X56312251Y61263600D01*
X56468500Y61248211D01*
X56468500Y61248211D01*
G37*
G36*
X59008500Y61248211D02*
G01*
X59208994Y61187392D01*
X59393759Y61088633D01*
X59393762Y61088631D01*
X59393763Y61088630D01*
X59555718Y60955718D01*
X59688630Y60793763D01*
X59688633Y60793759D01*
X59787392Y60608994D01*
X59848211Y60408500D01*
X59868746Y60200000D01*
X59848211Y59991500D01*
X59787392Y59791006D01*
X59688633Y59606241D01*
X59688631Y59606238D01*
X59688630Y59606237D01*
X59555718Y59444282D01*
X59393763Y59311370D01*
X59393759Y59311367D01*
X59208994Y59212608D01*
X59008500Y59151789D01*
X58852251Y59136400D01*
X58747749Y59136400D01*
X58591500Y59151789D01*
X58391006Y59212608D01*
X58206241Y59311367D01*
X58206237Y59311370D01*
X58044282Y59444282D01*
X57911370Y59606237D01*
X57911369Y59606238D01*
X57911367Y59606241D01*
X57812608Y59791006D01*
X57751789Y59991500D01*
X57731254Y60200000D01*
X57751789Y60408500D01*
X57812608Y60608994D01*
X57911367Y60793759D01*
X57911370Y60793763D01*
X58044282Y60955718D01*
X58206237Y61088630D01*
X58206238Y61088631D01*
X58206241Y61088633D01*
X58391006Y61187392D01*
X58591500Y61248211D01*
X58747749Y61263600D01*
X58852251Y61263600D01*
X59008500Y61248211D01*
X59008500Y61248211D01*
G37*
G36*
X61548500Y61248211D02*
G01*
X61748994Y61187392D01*
X61933759Y61088633D01*
X61933762Y61088631D01*
X61933763Y61088630D01*
X62095718Y60955718D01*
X62228630Y60793763D01*
X62228633Y60793759D01*
X62327392Y60608994D01*
X62388211Y60408500D01*
X62408746Y60200000D01*
X62388211Y59991500D01*
X62327392Y59791006D01*
X62228633Y59606241D01*
X62228631Y59606238D01*
X62228630Y59606237D01*
X62095718Y59444282D01*
X61933763Y59311370D01*
X61933759Y59311367D01*
X61748994Y59212608D01*
X61548500Y59151789D01*
X61392251Y59136400D01*
X61287749Y59136400D01*
X61131500Y59151789D01*
X60931006Y59212608D01*
X60746241Y59311367D01*
X60746237Y59311370D01*
X60584282Y59444282D01*
X60451370Y59606237D01*
X60451369Y59606238D01*
X60451367Y59606241D01*
X60352608Y59791006D01*
X60291789Y59991500D01*
X60271254Y60200000D01*
X60291789Y60408500D01*
X60352608Y60608994D01*
X60451367Y60793759D01*
X60451370Y60793763D01*
X60584282Y60955718D01*
X60746237Y61088630D01*
X60746238Y61088631D01*
X60746241Y61088633D01*
X60931006Y61187392D01*
X61131500Y61248211D01*
X61287749Y61263600D01*
X61392251Y61263600D01*
X61548500Y61248211D01*
X61548500Y61248211D01*
G37*
G36*
X64088500Y61248211D02*
G01*
X64288994Y61187392D01*
X64473759Y61088633D01*
X64473762Y61088631D01*
X64473763Y61088630D01*
X64635718Y60955718D01*
X64768630Y60793763D01*
X64768633Y60793759D01*
X64867392Y60608994D01*
X64928211Y60408500D01*
X64948746Y60200000D01*
X64928211Y59991500D01*
X64867392Y59791006D01*
X64768633Y59606241D01*
X64768631Y59606238D01*
X64768630Y59606237D01*
X64635718Y59444282D01*
X64473763Y59311370D01*
X64473759Y59311367D01*
X64288994Y59212608D01*
X64088500Y59151789D01*
X63932251Y59136400D01*
X63827749Y59136400D01*
X63671500Y59151789D01*
X63471006Y59212608D01*
X63286241Y59311367D01*
X63286237Y59311370D01*
X63124282Y59444282D01*
X62991370Y59606237D01*
X62991369Y59606238D01*
X62991367Y59606241D01*
X62892608Y59791006D01*
X62831789Y59991500D01*
X62811254Y60200000D01*
X62831789Y60408500D01*
X62892608Y60608994D01*
X62991367Y60793759D01*
X62991370Y60793763D01*
X63124282Y60955718D01*
X63286237Y61088630D01*
X63286238Y61088631D01*
X63286241Y61088633D01*
X63471006Y61187392D01*
X63671500Y61248211D01*
X63827749Y61263600D01*
X63932251Y61263600D01*
X64088500Y61248211D01*
X64088500Y61248211D01*
G37*
G36*
X66628500Y61248211D02*
G01*
X66828994Y61187392D01*
X67013759Y61088633D01*
X67013762Y61088631D01*
X67013763Y61088630D01*
X67175718Y60955718D01*
X67308630Y60793763D01*
X67308633Y60793759D01*
X67407392Y60608994D01*
X67468211Y60408500D01*
X67488746Y60200000D01*
X67468211Y59991500D01*
X67407392Y59791006D01*
X67308633Y59606241D01*
X67308631Y59606238D01*
X67308630Y59606237D01*
X67175718Y59444282D01*
X67013763Y59311370D01*
X67013759Y59311367D01*
X66828994Y59212608D01*
X66628500Y59151789D01*
X66472251Y59136400D01*
X66367749Y59136400D01*
X66211500Y59151789D01*
X66011006Y59212608D01*
X65826241Y59311367D01*
X65826237Y59311370D01*
X65664282Y59444282D01*
X65531370Y59606237D01*
X65531369Y59606238D01*
X65531367Y59606241D01*
X65432608Y59791006D01*
X65371789Y59991500D01*
X65351254Y60200000D01*
X65371789Y60408500D01*
X65432608Y60608994D01*
X65531367Y60793759D01*
X65531370Y60793763D01*
X65664282Y60955718D01*
X65826237Y61088630D01*
X65826238Y61088631D01*
X65826241Y61088633D01*
X66011006Y61187392D01*
X66211500Y61248211D01*
X66367749Y61263600D01*
X66472251Y61263600D01*
X66628500Y61248211D01*
X66628500Y61248211D01*
G37*
G36*
X69168500Y61248211D02*
G01*
X69368994Y61187392D01*
X69553759Y61088633D01*
X69553762Y61088631D01*
X69553763Y61088630D01*
X69715718Y60955718D01*
X69848630Y60793763D01*
X69848633Y60793759D01*
X69947392Y60608994D01*
X70008211Y60408500D01*
X70028746Y60200000D01*
X70008211Y59991500D01*
X69947392Y59791006D01*
X69848633Y59606241D01*
X69848631Y59606238D01*
X69848630Y59606237D01*
X69715718Y59444282D01*
X69553763Y59311370D01*
X69553759Y59311367D01*
X69368994Y59212608D01*
X69168500Y59151789D01*
X69012251Y59136400D01*
X68907749Y59136400D01*
X68751500Y59151789D01*
X68551006Y59212608D01*
X68366241Y59311367D01*
X68366237Y59311370D01*
X68204282Y59444282D01*
X68071370Y59606237D01*
X68071369Y59606238D01*
X68071367Y59606241D01*
X67972608Y59791006D01*
X67911789Y59991500D01*
X67891254Y60200000D01*
X67911789Y60408500D01*
X67972608Y60608994D01*
X68071367Y60793759D01*
X68071370Y60793763D01*
X68204282Y60955718D01*
X68366237Y61088630D01*
X68366238Y61088631D01*
X68366241Y61088633D01*
X68551006Y61187392D01*
X68751500Y61248211D01*
X68907749Y61263600D01*
X69012251Y61263600D01*
X69168500Y61248211D01*
X69168500Y61248211D01*
G37*
G36*
X71708500Y61248211D02*
G01*
X71908994Y61187392D01*
X72093759Y61088633D01*
X72093762Y61088631D01*
X72093763Y61088630D01*
X72255718Y60955718D01*
X72388630Y60793763D01*
X72388633Y60793759D01*
X72487392Y60608994D01*
X72548211Y60408500D01*
X72568746Y60200000D01*
X72548211Y59991500D01*
X72487392Y59791006D01*
X72388633Y59606241D01*
X72388631Y59606238D01*
X72388630Y59606237D01*
X72255718Y59444282D01*
X72093763Y59311370D01*
X72093759Y59311367D01*
X71908994Y59212608D01*
X71708500Y59151789D01*
X71552251Y59136400D01*
X71447749Y59136400D01*
X71291500Y59151789D01*
X71091006Y59212608D01*
X70906241Y59311367D01*
X70906237Y59311370D01*
X70744282Y59444282D01*
X70611370Y59606237D01*
X70611369Y59606238D01*
X70611367Y59606241D01*
X70512608Y59791006D01*
X70451789Y59991500D01*
X70431254Y60200000D01*
X70451789Y60408500D01*
X70512608Y60608994D01*
X70611367Y60793759D01*
X70611370Y60793763D01*
X70744282Y60955718D01*
X70906237Y61088630D01*
X70906238Y61088631D01*
X70906241Y61088633D01*
X71091006Y61187392D01*
X71291500Y61248211D01*
X71447749Y61263600D01*
X71552251Y61263600D01*
X71708500Y61248211D01*
X71708500Y61248211D01*
G37*
G36*
X74248500Y61248211D02*
G01*
X74448994Y61187392D01*
X74633759Y61088633D01*
X74633762Y61088631D01*
X74633763Y61088630D01*
X74795718Y60955718D01*
X74928630Y60793763D01*
X74928633Y60793759D01*
X75027392Y60608994D01*
X75088211Y60408500D01*
X75108746Y60200000D01*
X75088211Y59991500D01*
X75027392Y59791006D01*
X74928633Y59606241D01*
X74928631Y59606238D01*
X74928630Y59606237D01*
X74795718Y59444282D01*
X74633763Y59311370D01*
X74633759Y59311367D01*
X74448994Y59212608D01*
X74248500Y59151789D01*
X74092251Y59136400D01*
X73987749Y59136400D01*
X73831500Y59151789D01*
X73631006Y59212608D01*
X73446241Y59311367D01*
X73446237Y59311370D01*
X73284282Y59444282D01*
X73151370Y59606237D01*
X73151369Y59606238D01*
X73151367Y59606241D01*
X73052608Y59791006D01*
X72991789Y59991500D01*
X72971254Y60200000D01*
X72991789Y60408500D01*
X73052608Y60608994D01*
X73151367Y60793759D01*
X73151370Y60793763D01*
X73284282Y60955718D01*
X73446237Y61088630D01*
X73446238Y61088631D01*
X73446241Y61088633D01*
X73631006Y61187392D01*
X73831500Y61248211D01*
X73987749Y61263600D01*
X74092251Y61263600D01*
X74248500Y61248211D01*
X74248500Y61248211D01*
G37*
G36*
X76788500Y61248211D02*
G01*
X76988994Y61187392D01*
X77173759Y61088633D01*
X77173762Y61088631D01*
X77173763Y61088630D01*
X77335718Y60955718D01*
X77468630Y60793763D01*
X77468633Y60793759D01*
X77567392Y60608994D01*
X77628211Y60408500D01*
X77648746Y60200000D01*
X77628211Y59991500D01*
X77567392Y59791006D01*
X77468633Y59606241D01*
X77468631Y59606238D01*
X77468630Y59606237D01*
X77335718Y59444282D01*
X77173763Y59311370D01*
X77173759Y59311367D01*
X76988994Y59212608D01*
X76788500Y59151789D01*
X76632251Y59136400D01*
X76527749Y59136400D01*
X76371500Y59151789D01*
X76171006Y59212608D01*
X75986241Y59311367D01*
X75986237Y59311370D01*
X75824282Y59444282D01*
X75691370Y59606237D01*
X75691369Y59606238D01*
X75691367Y59606241D01*
X75592608Y59791006D01*
X75531789Y59991500D01*
X75511254Y60200000D01*
X75531789Y60408500D01*
X75592608Y60608994D01*
X75691367Y60793759D01*
X75691370Y60793763D01*
X75824282Y60955718D01*
X75986237Y61088630D01*
X75986238Y61088631D01*
X75986241Y61088633D01*
X76171006Y61187392D01*
X76371500Y61248211D01*
X76527749Y61263600D01*
X76632251Y61263600D01*
X76788500Y61248211D01*
X76788500Y61248211D01*
G37*
G36*
X79328500Y61248211D02*
G01*
X79528994Y61187392D01*
X79713759Y61088633D01*
X79713762Y61088631D01*
X79713763Y61088630D01*
X79875718Y60955718D01*
X80008630Y60793763D01*
X80008633Y60793759D01*
X80107392Y60608994D01*
X80168211Y60408500D01*
X80188746Y60200000D01*
X80168211Y59991500D01*
X80107392Y59791006D01*
X80008633Y59606241D01*
X80008631Y59606238D01*
X80008630Y59606237D01*
X79875718Y59444282D01*
X79713763Y59311370D01*
X79713759Y59311367D01*
X79528994Y59212608D01*
X79328500Y59151789D01*
X79172251Y59136400D01*
X79067749Y59136400D01*
X78911500Y59151789D01*
X78711006Y59212608D01*
X78526241Y59311367D01*
X78526237Y59311370D01*
X78364282Y59444282D01*
X78231370Y59606237D01*
X78231369Y59606238D01*
X78231367Y59606241D01*
X78132608Y59791006D01*
X78071789Y59991500D01*
X78051254Y60200000D01*
X78071789Y60408500D01*
X78132608Y60608994D01*
X78231367Y60793759D01*
X78231370Y60793763D01*
X78364282Y60955718D01*
X78526237Y61088630D01*
X78526238Y61088631D01*
X78526241Y61088633D01*
X78711006Y61187392D01*
X78911500Y61248211D01*
X79067749Y61263600D01*
X79172251Y61263600D01*
X79328500Y61248211D01*
X79328500Y61248211D01*
G37*
G36*
X81868500Y61248211D02*
G01*
X82068994Y61187392D01*
X82253759Y61088633D01*
X82253762Y61088631D01*
X82253763Y61088630D01*
X82415718Y60955718D01*
X82548630Y60793763D01*
X82548633Y60793759D01*
X82647392Y60608994D01*
X82708211Y60408500D01*
X82728746Y60200000D01*
X82708211Y59991500D01*
X82647392Y59791006D01*
X82548633Y59606241D01*
X82548631Y59606238D01*
X82548630Y59606237D01*
X82415718Y59444282D01*
X82253763Y59311370D01*
X82253759Y59311367D01*
X82068994Y59212608D01*
X81868500Y59151789D01*
X81712251Y59136400D01*
X81607749Y59136400D01*
X81451500Y59151789D01*
X81251006Y59212608D01*
X81066241Y59311367D01*
X81066237Y59311370D01*
X80904282Y59444282D01*
X80771370Y59606237D01*
X80771369Y59606238D01*
X80771367Y59606241D01*
X80672608Y59791006D01*
X80611789Y59991500D01*
X80591254Y60200000D01*
X80611789Y60408500D01*
X80672608Y60608994D01*
X80771367Y60793759D01*
X80771370Y60793763D01*
X80904282Y60955718D01*
X81066237Y61088630D01*
X81066238Y61088631D01*
X81066241Y61088633D01*
X81251006Y61187392D01*
X81451500Y61248211D01*
X81607749Y61263600D01*
X81712251Y61263600D01*
X81868500Y61248211D01*
X81868500Y61248211D01*
G37*
G36*
X85263600Y59136400D02*
G01*
X83136400Y59136400D01*
X83136400Y61263600D01*
X85263600Y61263600D01*
X85263600Y59136400D01*
X85263600Y59136400D01*
G37*
G36*
X91850000Y68400000D02*
G01*
X90150000Y68400000D01*
X90150000Y69800000D01*
X91850000Y69800000D01*
X91850000Y68400000D01*
X91850000Y68400000D01*
G37*
G36*
X89850000Y68400000D02*
G01*
X88150000Y68400000D01*
X88150000Y69800000D01*
X89850000Y69800000D01*
X89850000Y68400000D01*
X89850000Y68400000D01*
G37*
G36*
X87750000Y68400000D02*
G01*
X86050000Y68400000D01*
X86050000Y69800000D01*
X87750000Y69800000D01*
X87750000Y68400000D01*
X87750000Y68400000D01*
G37*
G36*
X85750000Y68400000D02*
G01*
X84050000Y68400000D01*
X84050000Y69800000D01*
X85750000Y69800000D01*
X85750000Y68400000D01*
X85750000Y68400000D01*
G37*
G36*
X74850000Y68400000D02*
G01*
X73150000Y68400000D01*
X73150000Y69800000D01*
X74850000Y69800000D01*
X74850000Y68400000D01*
X74850000Y68400000D01*
G37*
G36*
X72850000Y68400000D02*
G01*
X71150000Y68400000D01*
X71150000Y69800000D01*
X72850000Y69800000D01*
X72850000Y68400000D01*
X72850000Y68400000D01*
G37*
G36*
X70850000Y68400000D02*
G01*
X69150000Y68400000D01*
X69150000Y69800000D01*
X70850000Y69800000D01*
X70850000Y68400000D01*
X70850000Y68400000D01*
G37*
G36*
X68850000Y68400000D02*
G01*
X67150000Y68400000D01*
X67150000Y69800000D01*
X68850000Y69800000D01*
X68850000Y68400000D01*
X68850000Y68400000D01*
G37*
G36*
X66850000Y68400000D02*
G01*
X65150000Y68400000D01*
X65150000Y69800000D01*
X66850000Y69800000D01*
X66850000Y68400000D01*
X66850000Y68400000D01*
G37*
G36*
X64850000Y68400000D02*
G01*
X63150000Y68400000D01*
X63150000Y69800000D01*
X64850000Y69800000D01*
X64850000Y68400000D01*
X64850000Y68400000D01*
G37*
G36*
X53850000Y68400000D02*
G01*
X52150000Y68400000D01*
X52150000Y69800000D01*
X53850000Y69800000D01*
X53850000Y68400000D01*
X53850000Y68400000D01*
G37*
G36*
X51850000Y68400000D02*
G01*
X50150000Y68400000D01*
X50150000Y69800000D01*
X51850000Y69800000D01*
X51850000Y68400000D01*
X51850000Y68400000D01*
G37*
G36*
X49850000Y68400000D02*
G01*
X48150000Y68400000D01*
X48150000Y69800000D01*
X49850000Y69800000D01*
X49850000Y68400000D01*
X49850000Y68400000D01*
G37*
G36*
X47850000Y68400000D02*
G01*
X46150000Y68400000D01*
X46150000Y69800000D01*
X47850000Y69800000D01*
X47850000Y68400000D01*
X47850000Y68400000D01*
G37*
G36*
X45850000Y68400000D02*
G01*
X44150000Y68400000D01*
X44150000Y69800000D01*
X45850000Y69800000D01*
X45850000Y68400000D01*
X45850000Y68400000D01*
G37*
G36*
X43850000Y68400000D02*
G01*
X42150000Y68400000D01*
X42150000Y69800000D01*
X43850000Y69800000D01*
X43850000Y68400000D01*
X43850000Y68400000D01*
G37*
G36*
X30850000Y68400000D02*
G01*
X29150000Y68400000D01*
X29150000Y69800000D01*
X30850000Y69800000D01*
X30850000Y68400000D01*
X30850000Y68400000D01*
G37*
G36*
X28850000Y68400000D02*
G01*
X27150000Y68400000D01*
X27150000Y69800000D01*
X28850000Y69800000D01*
X28850000Y68400000D01*
X28850000Y68400000D01*
G37*
G36*
X26850000Y68400000D02*
G01*
X25150000Y68400000D01*
X25150000Y69800000D01*
X26850000Y69800000D01*
X26850000Y68400000D01*
X26850000Y68400000D01*
G37*
G36*
X24850000Y68400000D02*
G01*
X23150000Y68400000D01*
X23150000Y69800000D01*
X24850000Y69800000D01*
X24850000Y68400000D01*
X24850000Y68400000D01*
G37*
G36*
X22850000Y68400000D02*
G01*
X21150000Y68400000D01*
X21150000Y69800000D01*
X22850000Y69800000D01*
X22850000Y68400000D01*
X22850000Y68400000D01*
G37*
G36*
X20850000Y68400000D02*
G01*
X19150000Y68400000D01*
X19150000Y69800000D01*
X20850000Y69800000D01*
X20850000Y68400000D01*
X20850000Y68400000D01*
G37*
G36*
X177850000Y68400000D02*
G01*
X176150000Y68400000D01*
X176150000Y69800000D01*
X177850000Y69800000D01*
X177850000Y68400000D01*
X177850000Y68400000D01*
G37*
G36*
X181850000Y68400000D02*
G01*
X180150000Y68400000D01*
X180150000Y69800000D01*
X181850000Y69800000D01*
X181850000Y68400000D01*
X181850000Y68400000D01*
G37*
G36*
X183850000Y68400000D02*
G01*
X182150000Y68400000D01*
X182150000Y69800000D01*
X183850000Y69800000D01*
X183850000Y68400000D01*
X183850000Y68400000D01*
G37*
G36*
X187850000Y68400000D02*
G01*
X186150000Y68400000D01*
X186150000Y69800000D01*
X187850000Y69800000D01*
X187850000Y68400000D01*
X187850000Y68400000D01*
G37*
G36*
X154850000Y68400000D02*
G01*
X153150000Y68400000D01*
X153150000Y69800000D01*
X154850000Y69800000D01*
X154850000Y68400000D01*
X154850000Y68400000D01*
G37*
G36*
X158850000Y68400000D02*
G01*
X157150000Y68400000D01*
X157150000Y69800000D01*
X158850000Y69800000D01*
X158850000Y68400000D01*
X158850000Y68400000D01*
G37*
G36*
X160850000Y68400000D02*
G01*
X159150000Y68400000D01*
X159150000Y69800000D01*
X160850000Y69800000D01*
X160850000Y68400000D01*
X160850000Y68400000D01*
G37*
G36*
X164850000Y68400000D02*
G01*
X163150000Y68400000D01*
X163150000Y69800000D01*
X164850000Y69800000D01*
X164850000Y68400000D01*
X164850000Y68400000D01*
G37*
G36*
X131850000Y68400000D02*
G01*
X130150000Y68400000D01*
X130150000Y69800000D01*
X131850000Y69800000D01*
X131850000Y68400000D01*
X131850000Y68400000D01*
G37*
G36*
X135850000Y68400000D02*
G01*
X134150000Y68400000D01*
X134150000Y69800000D01*
X135850000Y69800000D01*
X135850000Y68400000D01*
X135850000Y68400000D01*
G37*
G36*
X137850000Y68400000D02*
G01*
X136150000Y68400000D01*
X136150000Y69800000D01*
X137850000Y69800000D01*
X137850000Y68400000D01*
X137850000Y68400000D01*
G37*
G36*
X141850000Y68400000D02*
G01*
X140150000Y68400000D01*
X140150000Y69800000D01*
X141850000Y69800000D01*
X141850000Y68400000D01*
X141850000Y68400000D01*
G37*
G36*
X108850000Y68400000D02*
G01*
X107150000Y68400000D01*
X107150000Y69800000D01*
X108850000Y69800000D01*
X108850000Y68400000D01*
X108850000Y68400000D01*
G37*
G36*
X112850000Y68400000D02*
G01*
X111150000Y68400000D01*
X111150000Y69800000D01*
X112850000Y69800000D01*
X112850000Y68400000D01*
X112850000Y68400000D01*
G37*
G36*
X114850000Y68400000D02*
G01*
X113150000Y68400000D01*
X113150000Y69800000D01*
X114850000Y69800000D01*
X114850000Y68400000D01*
X114850000Y68400000D01*
G37*
G36*
X118850000Y68400000D02*
G01*
X117150000Y68400000D01*
X117150000Y69800000D01*
X118850000Y69800000D01*
X118850000Y68400000D01*
X118850000Y68400000D01*
G37*
G36*
X179850000Y68400000D02*
G01*
X178150000Y68400000D01*
X178150000Y69800000D01*
X179850000Y69800000D01*
X179850000Y68400000D01*
X179850000Y68400000D01*
G37*
G36*
X185850000Y68400000D02*
G01*
X184150000Y68400000D01*
X184150000Y69800000D01*
X185850000Y69800000D01*
X185850000Y68400000D01*
X185850000Y68400000D01*
G37*
G36*
X156850000Y68400000D02*
G01*
X155150000Y68400000D01*
X155150000Y69800000D01*
X156850000Y69800000D01*
X156850000Y68400000D01*
X156850000Y68400000D01*
G37*
G36*
X162850000Y68400000D02*
G01*
X161150000Y68400000D01*
X161150000Y69800000D01*
X162850000Y69800000D01*
X162850000Y68400000D01*
X162850000Y68400000D01*
G37*
G36*
X133850000Y68400000D02*
G01*
X132150000Y68400000D01*
X132150000Y69800000D01*
X133850000Y69800000D01*
X133850000Y68400000D01*
X133850000Y68400000D01*
G37*
G36*
X139850000Y68400000D02*
G01*
X138150000Y68400000D01*
X138150000Y69800000D01*
X139850000Y69800000D01*
X139850000Y68400000D01*
X139850000Y68400000D01*
G37*
G36*
X110850000Y68400000D02*
G01*
X109150000Y68400000D01*
X109150000Y69800000D01*
X110850000Y69800000D01*
X110850000Y68400000D01*
X110850000Y68400000D01*
G37*
G36*
X116850000Y68400000D02*
G01*
X115150000Y68400000D01*
X115150000Y69800000D01*
X116850000Y69800000D01*
X116850000Y68400000D01*
X116850000Y68400000D01*
G37*
G36*
X93850000Y68400000D02*
G01*
X92150000Y68400000D01*
X92150000Y69800000D01*
X93850000Y69800000D01*
X93850000Y68400000D01*
X93850000Y68400000D01*
G37*
G36*
X95850000Y68400000D02*
G01*
X94150000Y68400000D01*
X94150000Y69800000D01*
X95850000Y69800000D01*
X95850000Y68400000D01*
X95850000Y68400000D01*
G37*
G36*
X177850000Y70200000D02*
G01*
X176150000Y70200000D01*
X176150000Y71600000D01*
X177850000Y71600000D01*
X177850000Y70200000D01*
X177850000Y70200000D01*
G37*
G36*
X53850000Y70200000D02*
G01*
X52150000Y70200000D01*
X52150000Y71600000D01*
X53850000Y71600000D01*
X53850000Y70200000D01*
X53850000Y70200000D01*
G37*
G36*
X187850000Y70200000D02*
G01*
X186150000Y70200000D01*
X186150000Y71600000D01*
X187850000Y71600000D01*
X187850000Y70200000D01*
X187850000Y70200000D01*
G37*
G36*
X185850000Y70200000D02*
G01*
X184150000Y70200000D01*
X184150000Y71600000D01*
X185850000Y71600000D01*
X185850000Y70200000D01*
X185850000Y70200000D01*
G37*
G36*
X181850000Y70200000D02*
G01*
X180150000Y70200000D01*
X180150000Y71600000D01*
X181850000Y71600000D01*
X181850000Y70200000D01*
X181850000Y70200000D01*
G37*
G36*
X183850000Y70200000D02*
G01*
X182150000Y70200000D01*
X182150000Y71600000D01*
X183850000Y71600000D01*
X183850000Y70200000D01*
X183850000Y70200000D01*
G37*
G36*
X154850000Y70200000D02*
G01*
X153150000Y70200000D01*
X153150000Y71600000D01*
X154850000Y71600000D01*
X154850000Y70200000D01*
X154850000Y70200000D01*
G37*
G36*
X179850000Y70200000D02*
G01*
X178150000Y70200000D01*
X178150000Y71600000D01*
X179850000Y71600000D01*
X179850000Y70200000D01*
X179850000Y70200000D01*
G37*
G36*
X158850000Y70200000D02*
G01*
X157150000Y70200000D01*
X157150000Y71600000D01*
X158850000Y71600000D01*
X158850000Y70200000D01*
X158850000Y70200000D01*
G37*
G36*
X160850000Y70200000D02*
G01*
X159150000Y70200000D01*
X159150000Y71600000D01*
X160850000Y71600000D01*
X160850000Y70200000D01*
X160850000Y70200000D01*
G37*
G36*
X164850000Y70200000D02*
G01*
X163150000Y70200000D01*
X163150000Y71600000D01*
X164850000Y71600000D01*
X164850000Y70200000D01*
X164850000Y70200000D01*
G37*
G36*
X162850000Y70200000D02*
G01*
X161150000Y70200000D01*
X161150000Y71600000D01*
X162850000Y71600000D01*
X162850000Y70200000D01*
X162850000Y70200000D01*
G37*
G36*
X26850000Y70200000D02*
G01*
X25150000Y70200000D01*
X25150000Y71600000D01*
X26850000Y71600000D01*
X26850000Y70200000D01*
X26850000Y70200000D01*
G37*
G36*
X131850000Y70200000D02*
G01*
X130150000Y70200000D01*
X130150000Y71600000D01*
X131850000Y71600000D01*
X131850000Y70200000D01*
X131850000Y70200000D01*
G37*
G36*
X30850000Y70200000D02*
G01*
X29150000Y70200000D01*
X29150000Y71600000D01*
X30850000Y71600000D01*
X30850000Y70200000D01*
X30850000Y70200000D01*
G37*
G36*
X20850000Y70200000D02*
G01*
X19150000Y70200000D01*
X19150000Y71600000D01*
X20850000Y71600000D01*
X20850000Y70200000D01*
X20850000Y70200000D01*
G37*
G36*
X156850000Y70200000D02*
G01*
X155150000Y70200000D01*
X155150000Y71600000D01*
X156850000Y71600000D01*
X156850000Y70200000D01*
X156850000Y70200000D01*
G37*
G36*
X24850000Y70200000D02*
G01*
X23150000Y70200000D01*
X23150000Y71600000D01*
X24850000Y71600000D01*
X24850000Y70200000D01*
X24850000Y70200000D01*
G37*
G36*
X49850000Y70200000D02*
G01*
X48150000Y70200000D01*
X48150000Y71600000D01*
X49850000Y71600000D01*
X49850000Y70200000D01*
X49850000Y70200000D01*
G37*
G36*
X118850000Y70200000D02*
G01*
X117150000Y70200000D01*
X117150000Y71600000D01*
X118850000Y71600000D01*
X118850000Y70200000D01*
X118850000Y70200000D01*
G37*
G36*
X116850000Y70200000D02*
G01*
X115150000Y70200000D01*
X115150000Y71600000D01*
X116850000Y71600000D01*
X116850000Y70200000D01*
X116850000Y70200000D01*
G37*
G36*
X43850000Y70200000D02*
G01*
X42150000Y70200000D01*
X42150000Y71600000D01*
X43850000Y71600000D01*
X43850000Y70200000D01*
X43850000Y70200000D01*
G37*
G36*
X133850000Y70200000D02*
G01*
X132150000Y70200000D01*
X132150000Y71600000D01*
X133850000Y71600000D01*
X133850000Y70200000D01*
X133850000Y70200000D01*
G37*
G36*
X47850000Y70200000D02*
G01*
X46150000Y70200000D01*
X46150000Y71600000D01*
X47850000Y71600000D01*
X47850000Y70200000D01*
X47850000Y70200000D01*
G37*
G36*
X74850000Y70200000D02*
G01*
X73150000Y70200000D01*
X73150000Y71600000D01*
X74850000Y71600000D01*
X74850000Y70200000D01*
X74850000Y70200000D01*
G37*
G36*
X114850000Y70200000D02*
G01*
X113150000Y70200000D01*
X113150000Y71600000D01*
X114850000Y71600000D01*
X114850000Y70200000D01*
X114850000Y70200000D01*
G37*
G36*
X139850000Y70200000D02*
G01*
X138150000Y70200000D01*
X138150000Y71600000D01*
X139850000Y71600000D01*
X139850000Y70200000D01*
X139850000Y70200000D01*
G37*
G36*
X70850000Y70200000D02*
G01*
X69150000Y70200000D01*
X69150000Y71600000D01*
X70850000Y71600000D01*
X70850000Y70200000D01*
X70850000Y70200000D01*
G37*
G36*
X68850000Y70200000D02*
G01*
X67150000Y70200000D01*
X67150000Y71600000D01*
X68850000Y71600000D01*
X68850000Y70200000D01*
X68850000Y70200000D01*
G37*
G36*
X112850000Y70200000D02*
G01*
X111150000Y70200000D01*
X111150000Y71600000D01*
X112850000Y71600000D01*
X112850000Y70200000D01*
X112850000Y70200000D01*
G37*
G36*
X110850000Y70200000D02*
G01*
X109150000Y70200000D01*
X109150000Y71600000D01*
X110850000Y71600000D01*
X110850000Y70200000D01*
X110850000Y70200000D01*
G37*
G36*
X64850000Y70200000D02*
G01*
X63150000Y70200000D01*
X63150000Y71600000D01*
X64850000Y71600000D01*
X64850000Y70200000D01*
X64850000Y70200000D01*
G37*
G36*
X95850000Y70200000D02*
G01*
X94150000Y70200000D01*
X94150000Y71600000D01*
X95850000Y71600000D01*
X95850000Y70200000D01*
X95850000Y70200000D01*
G37*
G36*
X108850000Y70200000D02*
G01*
X107150000Y70200000D01*
X107150000Y71600000D01*
X108850000Y71600000D01*
X108850000Y70200000D01*
X108850000Y70200000D01*
G37*
G36*
X91850000Y70200000D02*
G01*
X90150000Y70200000D01*
X90150000Y71600000D01*
X91850000Y71600000D01*
X91850000Y70200000D01*
X91850000Y70200000D01*
G37*
G36*
X89850000Y70200000D02*
G01*
X88150000Y70200000D01*
X88150000Y71600000D01*
X89850000Y71600000D01*
X89850000Y70200000D01*
X89850000Y70200000D01*
G37*
G36*
X87750000Y70200000D02*
G01*
X86050000Y70200000D01*
X86050000Y71600000D01*
X87750000Y71600000D01*
X87750000Y70200000D01*
X87750000Y70200000D01*
G37*
G36*
X85750000Y70200000D02*
G01*
X84050000Y70200000D01*
X84050000Y71600000D01*
X85750000Y71600000D01*
X85750000Y70200000D01*
X85750000Y70200000D01*
G37*
G36*
X93850000Y70200000D02*
G01*
X92150000Y70200000D01*
X92150000Y71600000D01*
X93850000Y71600000D01*
X93850000Y70200000D01*
X93850000Y70200000D01*
G37*
G36*
X66850000Y70200000D02*
G01*
X65150000Y70200000D01*
X65150000Y71600000D01*
X66850000Y71600000D01*
X66850000Y70200000D01*
X66850000Y70200000D01*
G37*
G36*
X72850000Y70200000D02*
G01*
X71150000Y70200000D01*
X71150000Y71600000D01*
X72850000Y71600000D01*
X72850000Y70200000D01*
X72850000Y70200000D01*
G37*
G36*
X45850000Y70200000D02*
G01*
X44150000Y70200000D01*
X44150000Y71600000D01*
X45850000Y71600000D01*
X45850000Y70200000D01*
X45850000Y70200000D01*
G37*
G36*
X22850000Y70200000D02*
G01*
X21150000Y70200000D01*
X21150000Y71600000D01*
X22850000Y71600000D01*
X22850000Y70200000D01*
X22850000Y70200000D01*
G37*
G36*
X28850000Y70200000D02*
G01*
X27150000Y70200000D01*
X27150000Y71600000D01*
X28850000Y71600000D01*
X28850000Y70200000D01*
X28850000Y70200000D01*
G37*
G36*
X51850000Y70200000D02*
G01*
X50150000Y70200000D01*
X50150000Y71600000D01*
X51850000Y71600000D01*
X51850000Y70200000D01*
X51850000Y70200000D01*
G37*
G36*
X135850000Y70200000D02*
G01*
X134150000Y70200000D01*
X134150000Y71600000D01*
X135850000Y71600000D01*
X135850000Y70200000D01*
X135850000Y70200000D01*
G37*
G36*
X137850000Y70200000D02*
G01*
X136150000Y70200000D01*
X136150000Y71600000D01*
X137850000Y71600000D01*
X137850000Y70200000D01*
X137850000Y70200000D01*
G37*
G36*
X141850000Y70200000D02*
G01*
X140150000Y70200000D01*
X140150000Y71600000D01*
X141850000Y71600000D01*
X141850000Y70200000D01*
X141850000Y70200000D01*
G37*
G36*
X112227290Y73824381D02*
G01*
X112291689Y73811571D01*
X112473678Y73736189D01*
X112637463Y73626751D01*
X112776751Y73487463D01*
X112886189Y73323678D01*
X112961571Y73141689D01*
X113000000Y72948491D01*
X113000000Y72751509D01*
X112961571Y72558311D01*
X112886189Y72376322D01*
X112776751Y72212537D01*
X112637463Y72073249D01*
X112473678Y71963811D01*
X112291689Y71888429D01*
X112227290Y71875619D01*
X112098493Y71850000D01*
X111901507Y71850000D01*
X111772710Y71875619D01*
X111708311Y71888429D01*
X111526322Y71963811D01*
X111362537Y72073249D01*
X111223249Y72212537D01*
X111113811Y72376322D01*
X111038429Y72558311D01*
X111000000Y72751509D01*
X111000000Y72948491D01*
X111038429Y73141689D01*
X111113811Y73323678D01*
X111223249Y73487463D01*
X111362537Y73626751D01*
X111526322Y73736189D01*
X111708311Y73811571D01*
X111772710Y73824381D01*
X111901507Y73850000D01*
X112098493Y73850000D01*
X112227290Y73824381D01*
X112227290Y73824381D01*
G37*
G36*
X66227290Y73824381D02*
G01*
X66291689Y73811571D01*
X66473678Y73736189D01*
X66637463Y73626751D01*
X66776751Y73487463D01*
X66886189Y73323678D01*
X66961571Y73141689D01*
X67000000Y72948491D01*
X67000000Y72751509D01*
X66961571Y72558311D01*
X66886189Y72376322D01*
X66776751Y72212537D01*
X66637463Y72073249D01*
X66473678Y71963811D01*
X66291689Y71888429D01*
X66227290Y71875619D01*
X66098493Y71850000D01*
X65901507Y71850000D01*
X65772710Y71875619D01*
X65708311Y71888429D01*
X65526322Y71963811D01*
X65362537Y72073249D01*
X65223249Y72212537D01*
X65113811Y72376322D01*
X65038429Y72558311D01*
X65000000Y72751509D01*
X65000000Y72948491D01*
X65038429Y73141689D01*
X65113811Y73323678D01*
X65223249Y73487463D01*
X65362537Y73626751D01*
X65526322Y73736189D01*
X65708311Y73811571D01*
X65772710Y73824381D01*
X65901507Y73850000D01*
X66098493Y73850000D01*
X66227290Y73824381D01*
X66227290Y73824381D01*
G37*
G36*
X20227290Y73824381D02*
G01*
X20291689Y73811571D01*
X20473678Y73736189D01*
X20637463Y73626751D01*
X20776751Y73487463D01*
X20886189Y73323678D01*
X20961571Y73141689D01*
X21000000Y72948491D01*
X21000000Y72751509D01*
X20961571Y72558311D01*
X20886189Y72376322D01*
X20776751Y72212537D01*
X20637463Y72073249D01*
X20473678Y71963811D01*
X20291689Y71888429D01*
X20227290Y71875619D01*
X20098493Y71850000D01*
X19901507Y71850000D01*
X19772710Y71875619D01*
X19708311Y71888429D01*
X19526322Y71963811D01*
X19362537Y72073249D01*
X19223249Y72212537D01*
X19113811Y72376322D01*
X19038429Y72558311D01*
X19000000Y72751509D01*
X19000000Y72948491D01*
X19038429Y73141689D01*
X19113811Y73323678D01*
X19223249Y73487463D01*
X19362537Y73626751D01*
X19526322Y73736189D01*
X19708311Y73811571D01*
X19772710Y73824381D01*
X19901507Y73850000D01*
X20098493Y73850000D01*
X20227290Y73824381D01*
X20227290Y73824381D01*
G37*
G36*
X135227290Y73824381D02*
G01*
X135291689Y73811571D01*
X135473678Y73736189D01*
X135637463Y73626751D01*
X135776751Y73487463D01*
X135886189Y73323678D01*
X135961571Y73141689D01*
X136000000Y72948491D01*
X136000000Y72751509D01*
X135961571Y72558311D01*
X135886189Y72376322D01*
X135776751Y72212537D01*
X135637463Y72073249D01*
X135473678Y71963811D01*
X135291689Y71888429D01*
X135227290Y71875619D01*
X135098493Y71850000D01*
X134901507Y71850000D01*
X134772710Y71875619D01*
X134708311Y71888429D01*
X134526322Y71963811D01*
X134362537Y72073249D01*
X134223249Y72212537D01*
X134113811Y72376322D01*
X134038429Y72558311D01*
X134000000Y72751509D01*
X134000000Y72948491D01*
X134038429Y73141689D01*
X134113811Y73323678D01*
X134223249Y73487463D01*
X134362537Y73626751D01*
X134526322Y73736189D01*
X134708311Y73811571D01*
X134772710Y73824381D01*
X134901507Y73850000D01*
X135098493Y73850000D01*
X135227290Y73824381D01*
X135227290Y73824381D01*
G37*
G36*
X43227290Y73824381D02*
G01*
X43291689Y73811571D01*
X43473678Y73736189D01*
X43637463Y73626751D01*
X43776751Y73487463D01*
X43886189Y73323678D01*
X43961571Y73141689D01*
X44000000Y72948491D01*
X44000000Y72751509D01*
X43961571Y72558311D01*
X43886189Y72376322D01*
X43776751Y72212537D01*
X43637463Y72073249D01*
X43473678Y71963811D01*
X43291689Y71888429D01*
X43227290Y71875619D01*
X43098493Y71850000D01*
X42901507Y71850000D01*
X42772710Y71875619D01*
X42708311Y71888429D01*
X42526322Y71963811D01*
X42362537Y72073249D01*
X42223249Y72212537D01*
X42113811Y72376322D01*
X42038429Y72558311D01*
X42000000Y72751509D01*
X42000000Y72948491D01*
X42038429Y73141689D01*
X42113811Y73323678D01*
X42223249Y73487463D01*
X42362537Y73626751D01*
X42526322Y73736189D01*
X42708311Y73811571D01*
X42772710Y73824381D01*
X42901507Y73850000D01*
X43098493Y73850000D01*
X43227290Y73824381D01*
X43227290Y73824381D01*
G37*
G36*
X89227290Y73824381D02*
G01*
X89291689Y73811571D01*
X89473678Y73736189D01*
X89637463Y73626751D01*
X89776751Y73487463D01*
X89886189Y73323678D01*
X89961571Y73141689D01*
X90000000Y72948491D01*
X90000000Y72751509D01*
X89961571Y72558311D01*
X89886189Y72376322D01*
X89776751Y72212537D01*
X89637463Y72073249D01*
X89473678Y71963811D01*
X89291689Y71888429D01*
X89227290Y71875619D01*
X89098493Y71850000D01*
X88901507Y71850000D01*
X88772710Y71875619D01*
X88708311Y71888429D01*
X88526322Y71963811D01*
X88362537Y72073249D01*
X88223249Y72212537D01*
X88113811Y72376322D01*
X88038429Y72558311D01*
X88000000Y72751509D01*
X88000000Y72948491D01*
X88038429Y73141689D01*
X88113811Y73323678D01*
X88223249Y73487463D01*
X88362537Y73626751D01*
X88526322Y73736189D01*
X88708311Y73811571D01*
X88772710Y73824381D01*
X88901507Y73850000D01*
X89098493Y73850000D01*
X89227290Y73824381D01*
X89227290Y73824381D01*
G37*
G36*
X158227290Y73824381D02*
G01*
X158291689Y73811571D01*
X158473678Y73736189D01*
X158637463Y73626751D01*
X158776751Y73487463D01*
X158886189Y73323678D01*
X158961571Y73141689D01*
X159000000Y72948491D01*
X159000000Y72751509D01*
X158961571Y72558311D01*
X158886189Y72376322D01*
X158776751Y72212537D01*
X158637463Y72073249D01*
X158473678Y71963811D01*
X158291689Y71888429D01*
X158227290Y71875619D01*
X158098493Y71850000D01*
X157901507Y71850000D01*
X157772710Y71875619D01*
X157708311Y71888429D01*
X157526322Y71963811D01*
X157362537Y72073249D01*
X157223249Y72212537D01*
X157113811Y72376322D01*
X157038429Y72558311D01*
X157000000Y72751509D01*
X157000000Y72948491D01*
X157038429Y73141689D01*
X157113811Y73323678D01*
X157223249Y73487463D01*
X157362537Y73626751D01*
X157526322Y73736189D01*
X157708311Y73811571D01*
X157772710Y73824381D01*
X157901507Y73850000D01*
X158098493Y73850000D01*
X158227290Y73824381D01*
X158227290Y73824381D01*
G37*
G36*
X181227290Y73824381D02*
G01*
X181291689Y73811571D01*
X181473678Y73736189D01*
X181637463Y73626751D01*
X181776751Y73487463D01*
X181886189Y73323678D01*
X181961571Y73141689D01*
X182000000Y72948491D01*
X182000000Y72751509D01*
X181961571Y72558311D01*
X181886189Y72376322D01*
X181776751Y72212537D01*
X181637463Y72073249D01*
X181473678Y71963811D01*
X181291689Y71888429D01*
X181227290Y71875619D01*
X181098493Y71850000D01*
X180901507Y71850000D01*
X180772710Y71875619D01*
X180708311Y71888429D01*
X180526322Y71963811D01*
X180362537Y72073249D01*
X180223249Y72212537D01*
X180113811Y72376322D01*
X180038429Y72558311D01*
X180000000Y72751509D01*
X180000000Y72948491D01*
X180038429Y73141689D01*
X180113811Y73323678D01*
X180223249Y73487463D01*
X180362537Y73626751D01*
X180526322Y73736189D01*
X180708311Y73811571D01*
X180772710Y73824381D01*
X180901507Y73850000D01*
X181098493Y73850000D01*
X181227290Y73824381D01*
X181227290Y73824381D01*
G37*
G36*
X47160026Y77818885D02*
G01*
X47378411Y77728427D01*
X47378413Y77728426D01*
X47495747Y77650026D01*
X47574955Y77597101D01*
X47742101Y77429955D01*
X47873427Y77233411D01*
X47963885Y77015026D01*
X48010000Y76783191D01*
X48010000Y76546809D01*
X47963885Y76314974D01*
X47893941Y76146115D01*
X47873426Y76096587D01*
X47742101Y75900045D01*
X47574955Y75732899D01*
X47378413Y75601574D01*
X47378412Y75601573D01*
X47378411Y75601573D01*
X47160026Y75511115D01*
X46928191Y75465000D01*
X46691809Y75465000D01*
X46459974Y75511115D01*
X46241589Y75601573D01*
X46241588Y75601573D01*
X46241587Y75601574D01*
X46045045Y75732899D01*
X45877899Y75900045D01*
X45746574Y76096587D01*
X45726059Y76146115D01*
X45656115Y76314974D01*
X45610000Y76546809D01*
X45610000Y76783191D01*
X45656115Y77015026D01*
X45746573Y77233411D01*
X45877899Y77429955D01*
X46045045Y77597101D01*
X46124253Y77650026D01*
X46241587Y77728426D01*
X46241589Y77728427D01*
X46459974Y77818885D01*
X46691809Y77865000D01*
X46928191Y77865000D01*
X47160026Y77818885D01*
X47160026Y77818885D01*
G37*
G36*
X70160026Y77818885D02*
G01*
X70378411Y77728427D01*
X70378413Y77728426D01*
X70495747Y77650026D01*
X70574955Y77597101D01*
X70742101Y77429955D01*
X70873427Y77233411D01*
X70963885Y77015026D01*
X71010000Y76783191D01*
X71010000Y76546809D01*
X70963885Y76314974D01*
X70893941Y76146115D01*
X70873426Y76096587D01*
X70742101Y75900045D01*
X70574955Y75732899D01*
X70378413Y75601574D01*
X70378412Y75601573D01*
X70378411Y75601573D01*
X70160026Y75511115D01*
X69928191Y75465000D01*
X69691809Y75465000D01*
X69459974Y75511115D01*
X69241589Y75601573D01*
X69241588Y75601573D01*
X69241587Y75601574D01*
X69045045Y75732899D01*
X68877899Y75900045D01*
X68746574Y76096587D01*
X68726059Y76146115D01*
X68656115Y76314974D01*
X68610000Y76546809D01*
X68610000Y76783191D01*
X68656115Y77015026D01*
X68746573Y77233411D01*
X68877899Y77429955D01*
X69045045Y77597101D01*
X69124253Y77650026D01*
X69241587Y77728426D01*
X69241589Y77728427D01*
X69459974Y77818885D01*
X69691809Y77865000D01*
X69928191Y77865000D01*
X70160026Y77818885D01*
X70160026Y77818885D01*
G37*
G36*
X185160026Y77818885D02*
G01*
X185378411Y77728427D01*
X185378413Y77728426D01*
X185495747Y77650026D01*
X185574955Y77597101D01*
X185742101Y77429955D01*
X185873427Y77233411D01*
X185963885Y77015026D01*
X186010000Y76783191D01*
X186010000Y76546809D01*
X185963885Y76314974D01*
X185893941Y76146115D01*
X185873426Y76096587D01*
X185742101Y75900045D01*
X185574955Y75732899D01*
X185378413Y75601574D01*
X185378412Y75601573D01*
X185378411Y75601573D01*
X185160026Y75511115D01*
X184928191Y75465000D01*
X184691809Y75465000D01*
X184459974Y75511115D01*
X184241589Y75601573D01*
X184241588Y75601573D01*
X184241587Y75601574D01*
X184045045Y75732899D01*
X183877899Y75900045D01*
X183746574Y76096587D01*
X183726059Y76146115D01*
X183656115Y76314974D01*
X183610000Y76546809D01*
X183610000Y76783191D01*
X183656115Y77015026D01*
X183746573Y77233411D01*
X183877899Y77429955D01*
X184045045Y77597101D01*
X184124253Y77650026D01*
X184241587Y77728426D01*
X184241589Y77728427D01*
X184459974Y77818885D01*
X184691809Y77865000D01*
X184928191Y77865000D01*
X185160026Y77818885D01*
X185160026Y77818885D01*
G37*
G36*
X24160026Y77818885D02*
G01*
X24378411Y77728427D01*
X24378413Y77728426D01*
X24495747Y77650026D01*
X24574955Y77597101D01*
X24742101Y77429955D01*
X24873427Y77233411D01*
X24963885Y77015026D01*
X25010000Y76783191D01*
X25010000Y76546809D01*
X24963885Y76314974D01*
X24893941Y76146115D01*
X24873426Y76096587D01*
X24742101Y75900045D01*
X24574955Y75732899D01*
X24378413Y75601574D01*
X24378412Y75601573D01*
X24378411Y75601573D01*
X24160026Y75511115D01*
X23928191Y75465000D01*
X23691809Y75465000D01*
X23459974Y75511115D01*
X23241589Y75601573D01*
X23241588Y75601573D01*
X23241587Y75601574D01*
X23045045Y75732899D01*
X22877899Y75900045D01*
X22746574Y76096587D01*
X22726059Y76146115D01*
X22656115Y76314974D01*
X22610000Y76546809D01*
X22610000Y76783191D01*
X22656115Y77015026D01*
X22746573Y77233411D01*
X22877899Y77429955D01*
X23045045Y77597101D01*
X23124253Y77650026D01*
X23241587Y77728426D01*
X23241589Y77728427D01*
X23459974Y77818885D01*
X23691809Y77865000D01*
X23928191Y77865000D01*
X24160026Y77818885D01*
X24160026Y77818885D01*
G37*
G36*
X116160026Y77818885D02*
G01*
X116378411Y77728427D01*
X116378413Y77728426D01*
X116495747Y77650026D01*
X116574955Y77597101D01*
X116742101Y77429955D01*
X116873427Y77233411D01*
X116963885Y77015026D01*
X117010000Y76783191D01*
X117010000Y76546809D01*
X116963885Y76314974D01*
X116893941Y76146115D01*
X116873426Y76096587D01*
X116742101Y75900045D01*
X116574955Y75732899D01*
X116378413Y75601574D01*
X116378412Y75601573D01*
X116378411Y75601573D01*
X116160026Y75511115D01*
X115928191Y75465000D01*
X115691809Y75465000D01*
X115459974Y75511115D01*
X115241589Y75601573D01*
X115241588Y75601573D01*
X115241587Y75601574D01*
X115045045Y75732899D01*
X114877899Y75900045D01*
X114746574Y76096587D01*
X114726059Y76146115D01*
X114656115Y76314974D01*
X114610000Y76546809D01*
X114610000Y76783191D01*
X114656115Y77015026D01*
X114746573Y77233411D01*
X114877899Y77429955D01*
X115045045Y77597101D01*
X115124253Y77650026D01*
X115241587Y77728426D01*
X115241589Y77728427D01*
X115459974Y77818885D01*
X115691809Y77865000D01*
X115928191Y77865000D01*
X116160026Y77818885D01*
X116160026Y77818885D01*
G37*
G36*
X93160026Y77818885D02*
G01*
X93378411Y77728427D01*
X93378413Y77728426D01*
X93495747Y77650026D01*
X93574955Y77597101D01*
X93742101Y77429955D01*
X93873427Y77233411D01*
X93963885Y77015026D01*
X94010000Y76783191D01*
X94010000Y76546809D01*
X93963885Y76314974D01*
X93893941Y76146115D01*
X93873426Y76096587D01*
X93742101Y75900045D01*
X93574955Y75732899D01*
X93378413Y75601574D01*
X93378412Y75601573D01*
X93378411Y75601573D01*
X93160026Y75511115D01*
X92928191Y75465000D01*
X92691809Y75465000D01*
X92459974Y75511115D01*
X92241589Y75601573D01*
X92241588Y75601573D01*
X92241587Y75601574D01*
X92045045Y75732899D01*
X91877899Y75900045D01*
X91746574Y76096587D01*
X91726059Y76146115D01*
X91656115Y76314974D01*
X91610000Y76546809D01*
X91610000Y76783191D01*
X91656115Y77015026D01*
X91746573Y77233411D01*
X91877899Y77429955D01*
X92045045Y77597101D01*
X92124253Y77650026D01*
X92241587Y77728426D01*
X92241589Y77728427D01*
X92459974Y77818885D01*
X92691809Y77865000D01*
X92928191Y77865000D01*
X93160026Y77818885D01*
X93160026Y77818885D01*
G37*
G36*
X162160026Y77818885D02*
G01*
X162378411Y77728427D01*
X162378413Y77728426D01*
X162495747Y77650026D01*
X162574955Y77597101D01*
X162742101Y77429955D01*
X162873427Y77233411D01*
X162963885Y77015026D01*
X163010000Y76783191D01*
X163010000Y76546809D01*
X162963885Y76314974D01*
X162893941Y76146115D01*
X162873426Y76096587D01*
X162742101Y75900045D01*
X162574955Y75732899D01*
X162378413Y75601574D01*
X162378412Y75601573D01*
X162378411Y75601573D01*
X162160026Y75511115D01*
X161928191Y75465000D01*
X161691809Y75465000D01*
X161459974Y75511115D01*
X161241589Y75601573D01*
X161241588Y75601573D01*
X161241587Y75601574D01*
X161045045Y75732899D01*
X160877899Y75900045D01*
X160746574Y76096587D01*
X160726059Y76146115D01*
X160656115Y76314974D01*
X160610000Y76546809D01*
X160610000Y76783191D01*
X160656115Y77015026D01*
X160746573Y77233411D01*
X160877899Y77429955D01*
X161045045Y77597101D01*
X161124253Y77650026D01*
X161241587Y77728426D01*
X161241589Y77728427D01*
X161459974Y77818885D01*
X161691809Y77865000D01*
X161928191Y77865000D01*
X162160026Y77818885D01*
X162160026Y77818885D01*
G37*
G36*
X139160026Y77818885D02*
G01*
X139378411Y77728427D01*
X139378413Y77728426D01*
X139495747Y77650026D01*
X139574955Y77597101D01*
X139742101Y77429955D01*
X139873427Y77233411D01*
X139963885Y77015026D01*
X140010000Y76783191D01*
X140010000Y76546809D01*
X139963885Y76314974D01*
X139893941Y76146115D01*
X139873426Y76096587D01*
X139742101Y75900045D01*
X139574955Y75732899D01*
X139378413Y75601574D01*
X139378412Y75601573D01*
X139378411Y75601573D01*
X139160026Y75511115D01*
X138928191Y75465000D01*
X138691809Y75465000D01*
X138459974Y75511115D01*
X138241589Y75601573D01*
X138241588Y75601573D01*
X138241587Y75601574D01*
X138045045Y75732899D01*
X137877899Y75900045D01*
X137746574Y76096587D01*
X137726059Y76146115D01*
X137656115Y76314974D01*
X137610000Y76546809D01*
X137610000Y76783191D01*
X137656115Y77015026D01*
X137746573Y77233411D01*
X137877899Y77429955D01*
X138045045Y77597101D01*
X138124253Y77650026D01*
X138241587Y77728426D01*
X138241589Y77728427D01*
X138459974Y77818885D01*
X138691809Y77865000D01*
X138928191Y77865000D01*
X139160026Y77818885D01*
X139160026Y77818885D01*
G37*
G36*
X108540026Y78453885D02*
G01*
X108758411Y78363427D01*
X108758413Y78363426D01*
X108954955Y78232101D01*
X109122101Y78064955D01*
X109253427Y77868411D01*
X109343885Y77650026D01*
X109390000Y77418191D01*
X109390000Y77181809D01*
X109343885Y76949974D01*
X109274801Y76783191D01*
X109253426Y76731587D01*
X109122101Y76535045D01*
X108954955Y76367899D01*
X108758413Y76236574D01*
X108758412Y76236573D01*
X108758411Y76236573D01*
X108540026Y76146115D01*
X108308191Y76100000D01*
X108071809Y76100000D01*
X107839974Y76146115D01*
X107621589Y76236573D01*
X107621588Y76236573D01*
X107621587Y76236574D01*
X107425045Y76367899D01*
X107257899Y76535045D01*
X107126574Y76731587D01*
X107105199Y76783191D01*
X107036115Y76949974D01*
X106990000Y77181809D01*
X106990000Y77418191D01*
X107036115Y77650026D01*
X107126573Y77868411D01*
X107257899Y78064955D01*
X107425045Y78232101D01*
X107621587Y78363426D01*
X107621589Y78363427D01*
X107839974Y78453885D01*
X108071809Y78500000D01*
X108308191Y78500000D01*
X108540026Y78453885D01*
X108540026Y78453885D01*
G37*
G36*
X131540026Y78453885D02*
G01*
X131758411Y78363427D01*
X131758413Y78363426D01*
X131954955Y78232101D01*
X132122101Y78064955D01*
X132253427Y77868411D01*
X132343885Y77650026D01*
X132390000Y77418191D01*
X132390000Y77181809D01*
X132343885Y76949974D01*
X132274801Y76783191D01*
X132253426Y76731587D01*
X132122101Y76535045D01*
X131954955Y76367899D01*
X131758413Y76236574D01*
X131758412Y76236573D01*
X131758411Y76236573D01*
X131540026Y76146115D01*
X131308191Y76100000D01*
X131071809Y76100000D01*
X130839974Y76146115D01*
X130621589Y76236573D01*
X130621588Y76236573D01*
X130621587Y76236574D01*
X130425045Y76367899D01*
X130257899Y76535045D01*
X130126574Y76731587D01*
X130105199Y76783191D01*
X130036115Y76949974D01*
X129990000Y77181809D01*
X129990000Y77418191D01*
X130036115Y77650026D01*
X130126573Y77868411D01*
X130257899Y78064955D01*
X130425045Y78232101D01*
X130621587Y78363426D01*
X130621589Y78363427D01*
X130839974Y78453885D01*
X131071809Y78500000D01*
X131308191Y78500000D01*
X131540026Y78453885D01*
X131540026Y78453885D01*
G37*
G36*
X154540026Y78453885D02*
G01*
X154758411Y78363427D01*
X154758413Y78363426D01*
X154954955Y78232101D01*
X155122101Y78064955D01*
X155253427Y77868411D01*
X155343885Y77650026D01*
X155390000Y77418191D01*
X155390000Y77181809D01*
X155343885Y76949974D01*
X155274801Y76783191D01*
X155253426Y76731587D01*
X155122101Y76535045D01*
X154954955Y76367899D01*
X154758413Y76236574D01*
X154758412Y76236573D01*
X154758411Y76236573D01*
X154540026Y76146115D01*
X154308191Y76100000D01*
X154071809Y76100000D01*
X153839974Y76146115D01*
X153621589Y76236573D01*
X153621588Y76236573D01*
X153621587Y76236574D01*
X153425045Y76367899D01*
X153257899Y76535045D01*
X153126574Y76731587D01*
X153105199Y76783191D01*
X153036115Y76949974D01*
X152990000Y77181809D01*
X152990000Y77418191D01*
X153036115Y77650026D01*
X153126573Y77868411D01*
X153257899Y78064955D01*
X153425045Y78232101D01*
X153621587Y78363426D01*
X153621589Y78363427D01*
X153839974Y78453885D01*
X154071809Y78500000D01*
X154308191Y78500000D01*
X154540026Y78453885D01*
X154540026Y78453885D01*
G37*
G36*
X85540026Y78453885D02*
G01*
X85758411Y78363427D01*
X85758413Y78363426D01*
X85954955Y78232101D01*
X86122101Y78064955D01*
X86253427Y77868411D01*
X86343885Y77650026D01*
X86390000Y77418191D01*
X86390000Y77181809D01*
X86343885Y76949974D01*
X86274801Y76783191D01*
X86253426Y76731587D01*
X86122101Y76535045D01*
X85954955Y76367899D01*
X85758413Y76236574D01*
X85758412Y76236573D01*
X85758411Y76236573D01*
X85540026Y76146115D01*
X85308191Y76100000D01*
X85071809Y76100000D01*
X84839974Y76146115D01*
X84621589Y76236573D01*
X84621588Y76236573D01*
X84621587Y76236574D01*
X84425045Y76367899D01*
X84257899Y76535045D01*
X84126574Y76731587D01*
X84105199Y76783191D01*
X84036115Y76949974D01*
X83990000Y77181809D01*
X83990000Y77418191D01*
X84036115Y77650026D01*
X84126573Y77868411D01*
X84257899Y78064955D01*
X84425045Y78232101D01*
X84621587Y78363426D01*
X84621589Y78363427D01*
X84839974Y78453885D01*
X85071809Y78500000D01*
X85308191Y78500000D01*
X85540026Y78453885D01*
X85540026Y78453885D01*
G37*
G36*
X39540026Y78453885D02*
G01*
X39758411Y78363427D01*
X39758413Y78363426D01*
X39954955Y78232101D01*
X40122101Y78064955D01*
X40253427Y77868411D01*
X40343885Y77650026D01*
X40390000Y77418191D01*
X40390000Y77181809D01*
X40343885Y76949974D01*
X40274801Y76783191D01*
X40253426Y76731587D01*
X40122101Y76535045D01*
X39954955Y76367899D01*
X39758413Y76236574D01*
X39758412Y76236573D01*
X39758411Y76236573D01*
X39540026Y76146115D01*
X39308191Y76100000D01*
X39071809Y76100000D01*
X38839974Y76146115D01*
X38621589Y76236573D01*
X38621588Y76236573D01*
X38621587Y76236574D01*
X38425045Y76367899D01*
X38257899Y76535045D01*
X38126574Y76731587D01*
X38105199Y76783191D01*
X38036115Y76949974D01*
X37990000Y77181809D01*
X37990000Y77418191D01*
X38036115Y77650026D01*
X38126573Y77868411D01*
X38257899Y78064955D01*
X38425045Y78232101D01*
X38621587Y78363426D01*
X38621589Y78363427D01*
X38839974Y78453885D01*
X39071809Y78500000D01*
X39308191Y78500000D01*
X39540026Y78453885D01*
X39540026Y78453885D01*
G37*
G36*
X177540026Y78453885D02*
G01*
X177758411Y78363427D01*
X177758413Y78363426D01*
X177954955Y78232101D01*
X178122101Y78064955D01*
X178253427Y77868411D01*
X178343885Y77650026D01*
X178390000Y77418191D01*
X178390000Y77181809D01*
X178343885Y76949974D01*
X178274801Y76783191D01*
X178253426Y76731587D01*
X178122101Y76535045D01*
X177954955Y76367899D01*
X177758413Y76236574D01*
X177758412Y76236573D01*
X177758411Y76236573D01*
X177540026Y76146115D01*
X177308191Y76100000D01*
X177071809Y76100000D01*
X176839974Y76146115D01*
X176621589Y76236573D01*
X176621588Y76236573D01*
X176621587Y76236574D01*
X176425045Y76367899D01*
X176257899Y76535045D01*
X176126574Y76731587D01*
X176105199Y76783191D01*
X176036115Y76949974D01*
X175990000Y77181809D01*
X175990000Y77418191D01*
X176036115Y77650026D01*
X176126573Y77868411D01*
X176257899Y78064955D01*
X176425045Y78232101D01*
X176621587Y78363426D01*
X176621589Y78363427D01*
X176839974Y78453885D01*
X177071809Y78500000D01*
X177308191Y78500000D01*
X177540026Y78453885D01*
X177540026Y78453885D01*
G37*
G36*
X62540026Y78453885D02*
G01*
X62758411Y78363427D01*
X62758413Y78363426D01*
X62954955Y78232101D01*
X63122101Y78064955D01*
X63253427Y77868411D01*
X63343885Y77650026D01*
X63390000Y77418191D01*
X63390000Y77181809D01*
X63343885Y76949974D01*
X63274801Y76783191D01*
X63253426Y76731587D01*
X63122101Y76535045D01*
X62954955Y76367899D01*
X62758413Y76236574D01*
X62758412Y76236573D01*
X62758411Y76236573D01*
X62540026Y76146115D01*
X62308191Y76100000D01*
X62071809Y76100000D01*
X61839974Y76146115D01*
X61621589Y76236573D01*
X61621588Y76236573D01*
X61621587Y76236574D01*
X61425045Y76367899D01*
X61257899Y76535045D01*
X61126574Y76731587D01*
X61105199Y76783191D01*
X61036115Y76949974D01*
X60990000Y77181809D01*
X60990000Y77418191D01*
X61036115Y77650026D01*
X61126573Y77868411D01*
X61257899Y78064955D01*
X61425045Y78232101D01*
X61621587Y78363426D01*
X61621589Y78363427D01*
X61839974Y78453885D01*
X62071809Y78500000D01*
X62308191Y78500000D01*
X62540026Y78453885D01*
X62540026Y78453885D01*
G37*
G36*
X16540026Y78453885D02*
G01*
X16758411Y78363427D01*
X16758413Y78363426D01*
X16954955Y78232101D01*
X17122101Y78064955D01*
X17253427Y77868411D01*
X17343885Y77650026D01*
X17390000Y77418191D01*
X17390000Y77181809D01*
X17343885Y76949974D01*
X17274801Y76783191D01*
X17253426Y76731587D01*
X17122101Y76535045D01*
X16954955Y76367899D01*
X16758413Y76236574D01*
X16758412Y76236573D01*
X16758411Y76236573D01*
X16540026Y76146115D01*
X16308191Y76100000D01*
X16071809Y76100000D01*
X15839974Y76146115D01*
X15621589Y76236573D01*
X15621588Y76236573D01*
X15621587Y76236574D01*
X15425045Y76367899D01*
X15257899Y76535045D01*
X15126574Y76731587D01*
X15105199Y76783191D01*
X15036115Y76949974D01*
X14990000Y77181809D01*
X14990000Y77418191D01*
X15036115Y77650026D01*
X15126573Y77868411D01*
X15257899Y78064955D01*
X15425045Y78232101D01*
X15621587Y78363426D01*
X15621589Y78363427D01*
X15839974Y78453885D01*
X16071809Y78500000D01*
X16308191Y78500000D01*
X16540026Y78453885D01*
X16540026Y78453885D01*
G37*
G36*
X185160026Y82263885D02*
G01*
X185378411Y82173427D01*
X185378413Y82173426D01*
X185574955Y82042101D01*
X185742101Y81874955D01*
X185873427Y81678411D01*
X185963885Y81460026D01*
X186010000Y81228191D01*
X186010000Y80991809D01*
X185963885Y80759974D01*
X185873427Y80541589D01*
X185873426Y80541587D01*
X185742101Y80345045D01*
X185574955Y80177899D01*
X185378413Y80046574D01*
X185378412Y80046573D01*
X185378411Y80046573D01*
X185160026Y79956115D01*
X184928191Y79910000D01*
X184691809Y79910000D01*
X184459974Y79956115D01*
X184241589Y80046573D01*
X184241588Y80046573D01*
X184241587Y80046574D01*
X184045045Y80177899D01*
X183877899Y80345045D01*
X183746574Y80541587D01*
X183746573Y80541589D01*
X183656115Y80759974D01*
X183610000Y80991809D01*
X183610000Y81228191D01*
X183656115Y81460026D01*
X183746573Y81678411D01*
X183877899Y81874955D01*
X184045045Y82042101D01*
X184241587Y82173426D01*
X184241589Y82173427D01*
X184459974Y82263885D01*
X184691809Y82310000D01*
X184928191Y82310000D01*
X185160026Y82263885D01*
X185160026Y82263885D01*
G37*
G36*
X93160026Y82263885D02*
G01*
X93378411Y82173427D01*
X93378413Y82173426D01*
X93574955Y82042101D01*
X93742101Y81874955D01*
X93873427Y81678411D01*
X93963885Y81460026D01*
X94010000Y81228191D01*
X94010000Y80991809D01*
X93963885Y80759974D01*
X93873427Y80541589D01*
X93873426Y80541587D01*
X93742101Y80345045D01*
X93574955Y80177899D01*
X93378413Y80046574D01*
X93378412Y80046573D01*
X93378411Y80046573D01*
X93160026Y79956115D01*
X92928191Y79910000D01*
X92691809Y79910000D01*
X92459974Y79956115D01*
X92241589Y80046573D01*
X92241588Y80046573D01*
X92241587Y80046574D01*
X92045045Y80177899D01*
X91877899Y80345045D01*
X91746574Y80541587D01*
X91746573Y80541589D01*
X91656115Y80759974D01*
X91610000Y80991809D01*
X91610000Y81228191D01*
X91656115Y81460026D01*
X91746573Y81678411D01*
X91877899Y81874955D01*
X92045045Y82042101D01*
X92241587Y82173426D01*
X92241589Y82173427D01*
X92459974Y82263885D01*
X92691809Y82310000D01*
X92928191Y82310000D01*
X93160026Y82263885D01*
X93160026Y82263885D01*
G37*
G36*
X162160026Y82263885D02*
G01*
X162378411Y82173427D01*
X162378413Y82173426D01*
X162574955Y82042101D01*
X162742101Y81874955D01*
X162873427Y81678411D01*
X162963885Y81460026D01*
X163010000Y81228191D01*
X163010000Y80991809D01*
X162963885Y80759974D01*
X162873427Y80541589D01*
X162873426Y80541587D01*
X162742101Y80345045D01*
X162574955Y80177899D01*
X162378413Y80046574D01*
X162378412Y80046573D01*
X162378411Y80046573D01*
X162160026Y79956115D01*
X161928191Y79910000D01*
X161691809Y79910000D01*
X161459974Y79956115D01*
X161241589Y80046573D01*
X161241588Y80046573D01*
X161241587Y80046574D01*
X161045045Y80177899D01*
X160877899Y80345045D01*
X160746574Y80541587D01*
X160746573Y80541589D01*
X160656115Y80759974D01*
X160610000Y80991809D01*
X160610000Y81228191D01*
X160656115Y81460026D01*
X160746573Y81678411D01*
X160877899Y81874955D01*
X161045045Y82042101D01*
X161241587Y82173426D01*
X161241589Y82173427D01*
X161459974Y82263885D01*
X161691809Y82310000D01*
X161928191Y82310000D01*
X162160026Y82263885D01*
X162160026Y82263885D01*
G37*
G36*
X139160026Y82263885D02*
G01*
X139378411Y82173427D01*
X139378413Y82173426D01*
X139574955Y82042101D01*
X139742101Y81874955D01*
X139873427Y81678411D01*
X139963885Y81460026D01*
X140010000Y81228191D01*
X140010000Y80991809D01*
X139963885Y80759974D01*
X139873427Y80541589D01*
X139873426Y80541587D01*
X139742101Y80345045D01*
X139574955Y80177899D01*
X139378413Y80046574D01*
X139378412Y80046573D01*
X139378411Y80046573D01*
X139160026Y79956115D01*
X138928191Y79910000D01*
X138691809Y79910000D01*
X138459974Y79956115D01*
X138241589Y80046573D01*
X138241588Y80046573D01*
X138241587Y80046574D01*
X138045045Y80177899D01*
X137877899Y80345045D01*
X137746574Y80541587D01*
X137746573Y80541589D01*
X137656115Y80759974D01*
X137610000Y80991809D01*
X137610000Y81228191D01*
X137656115Y81460026D01*
X137746573Y81678411D01*
X137877899Y81874955D01*
X138045045Y82042101D01*
X138241587Y82173426D01*
X138241589Y82173427D01*
X138459974Y82263885D01*
X138691809Y82310000D01*
X138928191Y82310000D01*
X139160026Y82263885D01*
X139160026Y82263885D01*
G37*
G36*
X70160026Y82263885D02*
G01*
X70378411Y82173427D01*
X70378413Y82173426D01*
X70574955Y82042101D01*
X70742101Y81874955D01*
X70873427Y81678411D01*
X70963885Y81460026D01*
X71010000Y81228191D01*
X71010000Y80991809D01*
X70963885Y80759974D01*
X70873427Y80541589D01*
X70873426Y80541587D01*
X70742101Y80345045D01*
X70574955Y80177899D01*
X70378413Y80046574D01*
X70378412Y80046573D01*
X70378411Y80046573D01*
X70160026Y79956115D01*
X69928191Y79910000D01*
X69691809Y79910000D01*
X69459974Y79956115D01*
X69241589Y80046573D01*
X69241588Y80046573D01*
X69241587Y80046574D01*
X69045045Y80177899D01*
X68877899Y80345045D01*
X68746574Y80541587D01*
X68746573Y80541589D01*
X68656115Y80759974D01*
X68610000Y80991809D01*
X68610000Y81228191D01*
X68656115Y81460026D01*
X68746573Y81678411D01*
X68877899Y81874955D01*
X69045045Y82042101D01*
X69241587Y82173426D01*
X69241589Y82173427D01*
X69459974Y82263885D01*
X69691809Y82310000D01*
X69928191Y82310000D01*
X70160026Y82263885D01*
X70160026Y82263885D01*
G37*
G36*
X47160026Y82263885D02*
G01*
X47378411Y82173427D01*
X47378413Y82173426D01*
X47574955Y82042101D01*
X47742101Y81874955D01*
X47873427Y81678411D01*
X47963885Y81460026D01*
X48010000Y81228191D01*
X48010000Y80991809D01*
X47963885Y80759974D01*
X47873427Y80541589D01*
X47873426Y80541587D01*
X47742101Y80345045D01*
X47574955Y80177899D01*
X47378413Y80046574D01*
X47378412Y80046573D01*
X47378411Y80046573D01*
X47160026Y79956115D01*
X46928191Y79910000D01*
X46691809Y79910000D01*
X46459974Y79956115D01*
X46241589Y80046573D01*
X46241588Y80046573D01*
X46241587Y80046574D01*
X46045045Y80177899D01*
X45877899Y80345045D01*
X45746574Y80541587D01*
X45746573Y80541589D01*
X45656115Y80759974D01*
X45610000Y80991809D01*
X45610000Y81228191D01*
X45656115Y81460026D01*
X45746573Y81678411D01*
X45877899Y81874955D01*
X46045045Y82042101D01*
X46241587Y82173426D01*
X46241589Y82173427D01*
X46459974Y82263885D01*
X46691809Y82310000D01*
X46928191Y82310000D01*
X47160026Y82263885D01*
X47160026Y82263885D01*
G37*
G36*
X116160026Y82263885D02*
G01*
X116378411Y82173427D01*
X116378413Y82173426D01*
X116574955Y82042101D01*
X116742101Y81874955D01*
X116873427Y81678411D01*
X116963885Y81460026D01*
X117010000Y81228191D01*
X117010000Y80991809D01*
X116963885Y80759974D01*
X116873427Y80541589D01*
X116873426Y80541587D01*
X116742101Y80345045D01*
X116574955Y80177899D01*
X116378413Y80046574D01*
X116378412Y80046573D01*
X116378411Y80046573D01*
X116160026Y79956115D01*
X115928191Y79910000D01*
X115691809Y79910000D01*
X115459974Y79956115D01*
X115241589Y80046573D01*
X115241588Y80046573D01*
X115241587Y80046574D01*
X115045045Y80177899D01*
X114877899Y80345045D01*
X114746574Y80541587D01*
X114746573Y80541589D01*
X114656115Y80759974D01*
X114610000Y80991809D01*
X114610000Y81228191D01*
X114656115Y81460026D01*
X114746573Y81678411D01*
X114877899Y81874955D01*
X115045045Y82042101D01*
X115241587Y82173426D01*
X115241589Y82173427D01*
X115459974Y82263885D01*
X115691809Y82310000D01*
X115928191Y82310000D01*
X116160026Y82263885D01*
X116160026Y82263885D01*
G37*
G36*
X24160026Y82263885D02*
G01*
X24378411Y82173427D01*
X24378413Y82173426D01*
X24574955Y82042101D01*
X24742101Y81874955D01*
X24873427Y81678411D01*
X24963885Y81460026D01*
X25010000Y81228191D01*
X25010000Y80991809D01*
X24963885Y80759974D01*
X24873427Y80541589D01*
X24873426Y80541587D01*
X24742101Y80345045D01*
X24574955Y80177899D01*
X24378413Y80046574D01*
X24378412Y80046573D01*
X24378411Y80046573D01*
X24160026Y79956115D01*
X23928191Y79910000D01*
X23691809Y79910000D01*
X23459974Y79956115D01*
X23241589Y80046573D01*
X23241588Y80046573D01*
X23241587Y80046574D01*
X23045045Y80177899D01*
X22877899Y80345045D01*
X22746574Y80541587D01*
X22746573Y80541589D01*
X22656115Y80759974D01*
X22610000Y80991809D01*
X22610000Y81228191D01*
X22656115Y81460026D01*
X22746573Y81678411D01*
X22877899Y81874955D01*
X23045045Y82042101D01*
X23241587Y82173426D01*
X23241589Y82173427D01*
X23459974Y82263885D01*
X23691809Y82310000D01*
X23928191Y82310000D01*
X24160026Y82263885D01*
X24160026Y82263885D01*
G37*
G36*
X177540026Y87343885D02*
G01*
X177758411Y87253427D01*
X177758413Y87253426D01*
X177954955Y87122101D01*
X178122101Y86954955D01*
X178253427Y86758411D01*
X178343885Y86540026D01*
X178390000Y86308191D01*
X178390000Y86071809D01*
X178343885Y85839974D01*
X178253427Y85621589D01*
X178253426Y85621587D01*
X178122101Y85425045D01*
X177954955Y85257899D01*
X177758413Y85126574D01*
X177758412Y85126573D01*
X177758411Y85126573D01*
X177540026Y85036115D01*
X177308191Y84990000D01*
X177071809Y84990000D01*
X176839974Y85036115D01*
X176621589Y85126573D01*
X176621588Y85126573D01*
X176621587Y85126574D01*
X176425045Y85257899D01*
X176257899Y85425045D01*
X176126574Y85621587D01*
X176126573Y85621589D01*
X176036115Y85839974D01*
X175990000Y86071809D01*
X175990000Y86308191D01*
X176036115Y86540026D01*
X176126573Y86758411D01*
X176257899Y86954955D01*
X176425045Y87122101D01*
X176621587Y87253426D01*
X176621589Y87253427D01*
X176839974Y87343885D01*
X177071809Y87390000D01*
X177308191Y87390000D01*
X177540026Y87343885D01*
X177540026Y87343885D01*
G37*
G36*
X16540026Y87343885D02*
G01*
X16758411Y87253427D01*
X16758413Y87253426D01*
X16954955Y87122101D01*
X17122101Y86954955D01*
X17253427Y86758411D01*
X17343885Y86540026D01*
X17390000Y86308191D01*
X17390000Y86071809D01*
X17343885Y85839974D01*
X17253427Y85621589D01*
X17253426Y85621587D01*
X17122101Y85425045D01*
X16954955Y85257899D01*
X16758413Y85126574D01*
X16758412Y85126573D01*
X16758411Y85126573D01*
X16540026Y85036115D01*
X16308191Y84990000D01*
X16071809Y84990000D01*
X15839974Y85036115D01*
X15621589Y85126573D01*
X15621588Y85126573D01*
X15621587Y85126574D01*
X15425045Y85257899D01*
X15257899Y85425045D01*
X15126574Y85621587D01*
X15126573Y85621589D01*
X15036115Y85839974D01*
X14990000Y86071809D01*
X14990000Y86308191D01*
X15036115Y86540026D01*
X15126573Y86758411D01*
X15257899Y86954955D01*
X15425045Y87122101D01*
X15621587Y87253426D01*
X15621589Y87253427D01*
X15839974Y87343885D01*
X16071809Y87390000D01*
X16308191Y87390000D01*
X16540026Y87343885D01*
X16540026Y87343885D01*
G37*
G36*
X39540026Y87343885D02*
G01*
X39758411Y87253427D01*
X39758413Y87253426D01*
X39954955Y87122101D01*
X40122101Y86954955D01*
X40253427Y86758411D01*
X40343885Y86540026D01*
X40390000Y86308191D01*
X40390000Y86071809D01*
X40343885Y85839974D01*
X40253427Y85621589D01*
X40253426Y85621587D01*
X40122101Y85425045D01*
X39954955Y85257899D01*
X39758413Y85126574D01*
X39758412Y85126573D01*
X39758411Y85126573D01*
X39540026Y85036115D01*
X39308191Y84990000D01*
X39071809Y84990000D01*
X38839974Y85036115D01*
X38621589Y85126573D01*
X38621588Y85126573D01*
X38621587Y85126574D01*
X38425045Y85257899D01*
X38257899Y85425045D01*
X38126574Y85621587D01*
X38126573Y85621589D01*
X38036115Y85839974D01*
X37990000Y86071809D01*
X37990000Y86308191D01*
X38036115Y86540026D01*
X38126573Y86758411D01*
X38257899Y86954955D01*
X38425045Y87122101D01*
X38621587Y87253426D01*
X38621589Y87253427D01*
X38839974Y87343885D01*
X39071809Y87390000D01*
X39308191Y87390000D01*
X39540026Y87343885D01*
X39540026Y87343885D01*
G37*
G36*
X62540026Y87343885D02*
G01*
X62758411Y87253427D01*
X62758413Y87253426D01*
X62954955Y87122101D01*
X63122101Y86954955D01*
X63253427Y86758411D01*
X63343885Y86540026D01*
X63390000Y86308191D01*
X63390000Y86071809D01*
X63343885Y85839974D01*
X63253427Y85621589D01*
X63253426Y85621587D01*
X63122101Y85425045D01*
X62954955Y85257899D01*
X62758413Y85126574D01*
X62758412Y85126573D01*
X62758411Y85126573D01*
X62540026Y85036115D01*
X62308191Y84990000D01*
X62071809Y84990000D01*
X61839974Y85036115D01*
X61621589Y85126573D01*
X61621588Y85126573D01*
X61621587Y85126574D01*
X61425045Y85257899D01*
X61257899Y85425045D01*
X61126574Y85621587D01*
X61126573Y85621589D01*
X61036115Y85839974D01*
X60990000Y86071809D01*
X60990000Y86308191D01*
X61036115Y86540026D01*
X61126573Y86758411D01*
X61257899Y86954955D01*
X61425045Y87122101D01*
X61621587Y87253426D01*
X61621589Y87253427D01*
X61839974Y87343885D01*
X62071809Y87390000D01*
X62308191Y87390000D01*
X62540026Y87343885D01*
X62540026Y87343885D01*
G37*
G36*
X85540026Y87343885D02*
G01*
X85758411Y87253427D01*
X85758413Y87253426D01*
X85954955Y87122101D01*
X86122101Y86954955D01*
X86253427Y86758411D01*
X86343885Y86540026D01*
X86390000Y86308191D01*
X86390000Y86071809D01*
X86343885Y85839974D01*
X86253427Y85621589D01*
X86253426Y85621587D01*
X86122101Y85425045D01*
X85954955Y85257899D01*
X85758413Y85126574D01*
X85758412Y85126573D01*
X85758411Y85126573D01*
X85540026Y85036115D01*
X85308191Y84990000D01*
X85071809Y84990000D01*
X84839974Y85036115D01*
X84621589Y85126573D01*
X84621588Y85126573D01*
X84621587Y85126574D01*
X84425045Y85257899D01*
X84257899Y85425045D01*
X84126574Y85621587D01*
X84126573Y85621589D01*
X84036115Y85839974D01*
X83990000Y86071809D01*
X83990000Y86308191D01*
X84036115Y86540026D01*
X84126573Y86758411D01*
X84257899Y86954955D01*
X84425045Y87122101D01*
X84621587Y87253426D01*
X84621589Y87253427D01*
X84839974Y87343885D01*
X85071809Y87390000D01*
X85308191Y87390000D01*
X85540026Y87343885D01*
X85540026Y87343885D01*
G37*
G36*
X108540026Y87343885D02*
G01*
X108758411Y87253427D01*
X108758413Y87253426D01*
X108954955Y87122101D01*
X109122101Y86954955D01*
X109253427Y86758411D01*
X109343885Y86540026D01*
X109390000Y86308191D01*
X109390000Y86071809D01*
X109343885Y85839974D01*
X109253427Y85621589D01*
X109253426Y85621587D01*
X109122101Y85425045D01*
X108954955Y85257899D01*
X108758413Y85126574D01*
X108758412Y85126573D01*
X108758411Y85126573D01*
X108540026Y85036115D01*
X108308191Y84990000D01*
X108071809Y84990000D01*
X107839974Y85036115D01*
X107621589Y85126573D01*
X107621588Y85126573D01*
X107621587Y85126574D01*
X107425045Y85257899D01*
X107257899Y85425045D01*
X107126574Y85621587D01*
X107126573Y85621589D01*
X107036115Y85839974D01*
X106990000Y86071809D01*
X106990000Y86308191D01*
X107036115Y86540026D01*
X107126573Y86758411D01*
X107257899Y86954955D01*
X107425045Y87122101D01*
X107621587Y87253426D01*
X107621589Y87253427D01*
X107839974Y87343885D01*
X108071809Y87390000D01*
X108308191Y87390000D01*
X108540026Y87343885D01*
X108540026Y87343885D01*
G37*
G36*
X131540026Y87343885D02*
G01*
X131758411Y87253427D01*
X131758413Y87253426D01*
X131954955Y87122101D01*
X132122101Y86954955D01*
X132253427Y86758411D01*
X132343885Y86540026D01*
X132390000Y86308191D01*
X132390000Y86071809D01*
X132343885Y85839974D01*
X132253427Y85621589D01*
X132253426Y85621587D01*
X132122101Y85425045D01*
X131954955Y85257899D01*
X131758413Y85126574D01*
X131758412Y85126573D01*
X131758411Y85126573D01*
X131540026Y85036115D01*
X131308191Y84990000D01*
X131071809Y84990000D01*
X130839974Y85036115D01*
X130621589Y85126573D01*
X130621588Y85126573D01*
X130621587Y85126574D01*
X130425045Y85257899D01*
X130257899Y85425045D01*
X130126574Y85621587D01*
X130126573Y85621589D01*
X130036115Y85839974D01*
X129990000Y86071809D01*
X129990000Y86308191D01*
X130036115Y86540026D01*
X130126573Y86758411D01*
X130257899Y86954955D01*
X130425045Y87122101D01*
X130621587Y87253426D01*
X130621589Y87253427D01*
X130839974Y87343885D01*
X131071809Y87390000D01*
X131308191Y87390000D01*
X131540026Y87343885D01*
X131540026Y87343885D01*
G37*
G36*
X154540026Y87343885D02*
G01*
X154758411Y87253427D01*
X154758413Y87253426D01*
X154954955Y87122101D01*
X155122101Y86954955D01*
X155253427Y86758411D01*
X155343885Y86540026D01*
X155390000Y86308191D01*
X155390000Y86071809D01*
X155343885Y85839974D01*
X155253427Y85621589D01*
X155253426Y85621587D01*
X155122101Y85425045D01*
X154954955Y85257899D01*
X154758413Y85126574D01*
X154758412Y85126573D01*
X154758411Y85126573D01*
X154540026Y85036115D01*
X154308191Y84990000D01*
X154071809Y84990000D01*
X153839974Y85036115D01*
X153621589Y85126573D01*
X153621588Y85126573D01*
X153621587Y85126574D01*
X153425045Y85257899D01*
X153257899Y85425045D01*
X153126574Y85621587D01*
X153126573Y85621589D01*
X153036115Y85839974D01*
X152990000Y86071809D01*
X152990000Y86308191D01*
X153036115Y86540026D01*
X153126573Y86758411D01*
X153257899Y86954955D01*
X153425045Y87122101D01*
X153621587Y87253426D01*
X153621589Y87253427D01*
X153839974Y87343885D01*
X154071809Y87390000D01*
X154308191Y87390000D01*
X154540026Y87343885D01*
X154540026Y87343885D01*
G37*
M02*
