G04 #@! TF.GenerationSoftware,KiCad,Pcbnew,(5.1.0-0)*
G04 #@! TF.CreationDate,2019-04-19T21:43:25+02:00*
G04 #@! TF.ProjectId,AddOnB,4164644f-6e42-42e6-9b69-6361645f7063,rev?*
G04 #@! TF.SameCoordinates,Original*
G04 #@! TF.FileFunction,Legend,Bot*
G04 #@! TF.FilePolarity,Positive*
%FSLAX46Y46*%
G04 Gerber Fmt 4.6, Leading zero omitted, Abs format (unit mm)*
G04 Created by KiCad (PCBNEW (5.1.0-0)) date 2019-04-19 21:43:25*
%MOMM*%
%LPD*%
G04 APERTURE LIST*
%ADD10C,0.150000*%
G04 APERTURE END LIST*
D10*
X26875000Y69400000D02*
X26875000Y70600000D01*
X25125000Y70600000D02*
X25125000Y69400000D01*
X29125000Y70600000D02*
X29125000Y69400000D01*
X30875000Y69400000D02*
X30875000Y70600000D01*
X20875000Y69400000D02*
X20875000Y70600000D01*
X19125000Y70600000D02*
X19125000Y69400000D01*
X23125000Y70600000D02*
X23125000Y69400000D01*
X24875000Y69400000D02*
X24875000Y70600000D01*
X49875000Y69400000D02*
X49875000Y70600000D01*
X48125000Y70600000D02*
X48125000Y69400000D01*
X52125000Y70600000D02*
X52125000Y69400000D01*
X53875000Y69400000D02*
X53875000Y70600000D01*
X43875000Y69400000D02*
X43875000Y70600000D01*
X42125000Y70600000D02*
X42125000Y69400000D01*
X46125000Y70600000D02*
X46125000Y69400000D01*
X47875000Y69400000D02*
X47875000Y70600000D01*
X74875000Y69400000D02*
X74875000Y70600000D01*
X73125000Y70600000D02*
X73125000Y69400000D01*
X69125000Y70600000D02*
X69125000Y69400000D01*
X70875000Y69400000D02*
X70875000Y70600000D01*
X68875000Y69400000D02*
X68875000Y70600000D01*
X67125000Y70600000D02*
X67125000Y69400000D01*
X63125000Y70600000D02*
X63125000Y69400000D01*
X64875000Y69400000D02*
X64875000Y70600000D01*
X95875000Y69400000D02*
X95875000Y70600000D01*
X94125000Y70600000D02*
X94125000Y69400000D01*
X90125000Y70600000D02*
X90125000Y69400000D01*
X91875000Y69400000D02*
X91875000Y70600000D01*
X89875000Y69400000D02*
X89875000Y70600000D01*
X88125000Y70600000D02*
X88125000Y69400000D01*
X84025000Y70600000D02*
X84025000Y69400000D01*
X85775000Y69400000D02*
X85775000Y70600000D01*
X28850000Y70500000D02*
X28850000Y69500000D01*
X27150000Y69500000D02*
X27150000Y70500000D01*
X21150000Y69500000D02*
X21150000Y70500000D01*
X22850000Y70500000D02*
X22850000Y69500000D01*
X50150000Y69500000D02*
X50150000Y70500000D01*
X51850000Y70500000D02*
X51850000Y69500000D01*
X45850000Y70500000D02*
X45850000Y69500000D01*
X44150000Y69500000D02*
X44150000Y70500000D01*
X71150000Y69500000D02*
X71150000Y70500000D01*
X72850000Y70500000D02*
X72850000Y69500000D01*
X65150000Y69500000D02*
X65150000Y70500000D01*
X66850000Y70500000D02*
X66850000Y69500000D01*
X93850000Y70500000D02*
X93850000Y69500000D01*
X92150000Y69500000D02*
X92150000Y70500000D01*
X87750000Y70500000D02*
X87750000Y69500000D01*
X86050000Y69500000D02*
X86050000Y70500000D01*
X115150000Y69500000D02*
X115150000Y70500000D01*
X116850000Y70500000D02*
X116850000Y69500000D01*
X109150000Y69500000D02*
X109150000Y70500000D01*
X110850000Y70500000D02*
X110850000Y69500000D01*
X139850000Y70500000D02*
X139850000Y69500000D01*
X138150000Y69500000D02*
X138150000Y70500000D01*
X133850000Y70500000D02*
X133850000Y69500000D01*
X132150000Y69500000D02*
X132150000Y70500000D01*
X161150000Y69500000D02*
X161150000Y70500000D01*
X162850000Y70500000D02*
X162850000Y69500000D01*
X156850000Y70500000D02*
X156850000Y69500000D01*
X155150000Y69500000D02*
X155150000Y70500000D01*
X185850000Y70500000D02*
X185850000Y69500000D01*
X184150000Y69500000D02*
X184150000Y70500000D01*
X178150000Y69500000D02*
X178150000Y70500000D01*
X179850000Y70500000D02*
X179850000Y69500000D01*
X118875000Y69400000D02*
X118875000Y70600000D01*
X117125000Y70600000D02*
X117125000Y69400000D01*
X113125000Y70600000D02*
X113125000Y69400000D01*
X114875000Y69400000D02*
X114875000Y70600000D01*
X112875000Y69400000D02*
X112875000Y70600000D01*
X111125000Y70600000D02*
X111125000Y69400000D01*
X107125000Y70600000D02*
X107125000Y69400000D01*
X108875000Y69400000D02*
X108875000Y70600000D01*
X141875000Y69400000D02*
X141875000Y70600000D01*
X140125000Y70600000D02*
X140125000Y69400000D01*
X136125000Y70600000D02*
X136125000Y69400000D01*
X137875000Y69400000D02*
X137875000Y70600000D01*
X135875000Y69400000D02*
X135875000Y70600000D01*
X134125000Y70600000D02*
X134125000Y69400000D01*
X130125000Y70600000D02*
X130125000Y69400000D01*
X131875000Y69400000D02*
X131875000Y70600000D01*
X164875000Y69400000D02*
X164875000Y70600000D01*
X163125000Y70600000D02*
X163125000Y69400000D01*
X159125000Y70600000D02*
X159125000Y69400000D01*
X160875000Y69400000D02*
X160875000Y70600000D01*
X158875000Y69400000D02*
X158875000Y70600000D01*
X157125000Y70600000D02*
X157125000Y69400000D01*
X153125000Y70600000D02*
X153125000Y69400000D01*
X154875000Y69400000D02*
X154875000Y70600000D01*
X187875000Y69400000D02*
X187875000Y70600000D01*
X186125000Y70600000D02*
X186125000Y69400000D01*
X182125000Y70600000D02*
X182125000Y69400000D01*
X183875000Y69400000D02*
X183875000Y70600000D01*
X181875000Y69400000D02*
X181875000Y70600000D01*
X180125000Y70600000D02*
X180125000Y69400000D01*
X176125000Y70600000D02*
X176125000Y69400000D01*
X177875000Y69400000D02*
X177875000Y70600000D01*
X26552380Y67619047D02*
X26076190Y67952380D01*
X26552380Y68190476D02*
X25552380Y68190476D01*
X25552380Y67809523D01*
X25600000Y67714285D01*
X25647619Y67666666D01*
X25742857Y67619047D01*
X25885714Y67619047D01*
X25980952Y67666666D01*
X26028571Y67714285D01*
X26076190Y67809523D01*
X26076190Y68190476D01*
X26552380Y66666666D02*
X26552380Y67238095D01*
X26552380Y66952380D02*
X25552380Y66952380D01*
X25695238Y67047619D01*
X25790476Y67142857D01*
X25838095Y67238095D01*
X25552380Y66047619D02*
X25552380Y65952380D01*
X25600000Y65857142D01*
X25647619Y65809523D01*
X25742857Y65761904D01*
X25933333Y65714285D01*
X26171428Y65714285D01*
X26361904Y65761904D01*
X26457142Y65809523D01*
X26504761Y65857142D01*
X26552380Y65952380D01*
X26552380Y66047619D01*
X26504761Y66142857D01*
X26457142Y66190476D01*
X26361904Y66238095D01*
X26171428Y66285714D01*
X25933333Y66285714D01*
X25742857Y66238095D01*
X25647619Y66190476D01*
X25600000Y66142857D01*
X25552380Y66047619D01*
X26552380Y64761904D02*
X26552380Y65333333D01*
X26552380Y65047619D02*
X25552380Y65047619D01*
X25695238Y65142857D01*
X25790476Y65238095D01*
X25838095Y65333333D01*
X30452380Y67519047D02*
X29976190Y67852380D01*
X30452380Y68090476D02*
X29452380Y68090476D01*
X29452380Y67709523D01*
X29500000Y67614285D01*
X29547619Y67566666D01*
X29642857Y67519047D01*
X29785714Y67519047D01*
X29880952Y67566666D01*
X29928571Y67614285D01*
X29976190Y67709523D01*
X29976190Y68090476D01*
X30452380Y66566666D02*
X30452380Y67138095D01*
X30452380Y66852380D02*
X29452380Y66852380D01*
X29595238Y66947619D01*
X29690476Y67042857D01*
X29738095Y67138095D01*
X29452380Y65947619D02*
X29452380Y65852380D01*
X29500000Y65757142D01*
X29547619Y65709523D01*
X29642857Y65661904D01*
X29833333Y65614285D01*
X30071428Y65614285D01*
X30261904Y65661904D01*
X30357142Y65709523D01*
X30404761Y65757142D01*
X30452380Y65852380D01*
X30452380Y65947619D01*
X30404761Y66042857D01*
X30357142Y66090476D01*
X30261904Y66138095D01*
X30071428Y66185714D01*
X29833333Y66185714D01*
X29642857Y66138095D01*
X29547619Y66090476D01*
X29500000Y66042857D01*
X29452380Y65947619D01*
X29547619Y65233333D02*
X29500000Y65185714D01*
X29452380Y65090476D01*
X29452380Y64852380D01*
X29500000Y64757142D01*
X29547619Y64709523D01*
X29642857Y64661904D01*
X29738095Y64661904D01*
X29880952Y64709523D01*
X30452380Y65280952D01*
X30452380Y64661904D01*
X20552380Y67519047D02*
X20076190Y67852380D01*
X20552380Y68090476D02*
X19552380Y68090476D01*
X19552380Y67709523D01*
X19600000Y67614285D01*
X19647619Y67566666D01*
X19742857Y67519047D01*
X19885714Y67519047D01*
X19980952Y67566666D01*
X20028571Y67614285D01*
X20076190Y67709523D01*
X20076190Y68090476D01*
X20552380Y66566666D02*
X20552380Y67138095D01*
X20552380Y66852380D02*
X19552380Y66852380D01*
X19695238Y66947619D01*
X19790476Y67042857D01*
X19838095Y67138095D01*
X19552380Y65947619D02*
X19552380Y65852380D01*
X19600000Y65757142D01*
X19647619Y65709523D01*
X19742857Y65661904D01*
X19933333Y65614285D01*
X20171428Y65614285D01*
X20361904Y65661904D01*
X20457142Y65709523D01*
X20504761Y65757142D01*
X20552380Y65852380D01*
X20552380Y65947619D01*
X20504761Y66042857D01*
X20457142Y66090476D01*
X20361904Y66138095D01*
X20171428Y66185714D01*
X19933333Y66185714D01*
X19742857Y66138095D01*
X19647619Y66090476D01*
X19600000Y66042857D01*
X19552380Y65947619D01*
X19552380Y65280952D02*
X19552380Y64661904D01*
X19933333Y64995238D01*
X19933333Y64852380D01*
X19980952Y64757142D01*
X20028571Y64709523D01*
X20123809Y64661904D01*
X20361904Y64661904D01*
X20457142Y64709523D01*
X20504761Y64757142D01*
X20552380Y64852380D01*
X20552380Y65138095D01*
X20504761Y65233333D01*
X20457142Y65280952D01*
X24452380Y67519047D02*
X23976190Y67852380D01*
X24452380Y68090476D02*
X23452380Y68090476D01*
X23452380Y67709523D01*
X23500000Y67614285D01*
X23547619Y67566666D01*
X23642857Y67519047D01*
X23785714Y67519047D01*
X23880952Y67566666D01*
X23928571Y67614285D01*
X23976190Y67709523D01*
X23976190Y68090476D01*
X24452380Y66566666D02*
X24452380Y67138095D01*
X24452380Y66852380D02*
X23452380Y66852380D01*
X23595238Y66947619D01*
X23690476Y67042857D01*
X23738095Y67138095D01*
X23452380Y65947619D02*
X23452380Y65852380D01*
X23500000Y65757142D01*
X23547619Y65709523D01*
X23642857Y65661904D01*
X23833333Y65614285D01*
X24071428Y65614285D01*
X24261904Y65661904D01*
X24357142Y65709523D01*
X24404761Y65757142D01*
X24452380Y65852380D01*
X24452380Y65947619D01*
X24404761Y66042857D01*
X24357142Y66090476D01*
X24261904Y66138095D01*
X24071428Y66185714D01*
X23833333Y66185714D01*
X23642857Y66138095D01*
X23547619Y66090476D01*
X23500000Y66042857D01*
X23452380Y65947619D01*
X23785714Y64757142D02*
X24452380Y64757142D01*
X23404761Y64995238D02*
X24119047Y65233333D01*
X24119047Y64614285D01*
X49552380Y67619047D02*
X49076190Y67952380D01*
X49552380Y68190476D02*
X48552380Y68190476D01*
X48552380Y67809523D01*
X48600000Y67714285D01*
X48647619Y67666666D01*
X48742857Y67619047D01*
X48885714Y67619047D01*
X48980952Y67666666D01*
X49028571Y67714285D01*
X49076190Y67809523D01*
X49076190Y68190476D01*
X49552380Y66666666D02*
X49552380Y67238095D01*
X49552380Y66952380D02*
X48552380Y66952380D01*
X48695238Y67047619D01*
X48790476Y67142857D01*
X48838095Y67238095D01*
X48552380Y66047619D02*
X48552380Y65952380D01*
X48600000Y65857142D01*
X48647619Y65809523D01*
X48742857Y65761904D01*
X48933333Y65714285D01*
X49171428Y65714285D01*
X49361904Y65761904D01*
X49457142Y65809523D01*
X49504761Y65857142D01*
X49552380Y65952380D01*
X49552380Y66047619D01*
X49504761Y66142857D01*
X49457142Y66190476D01*
X49361904Y66238095D01*
X49171428Y66285714D01*
X48933333Y66285714D01*
X48742857Y66238095D01*
X48647619Y66190476D01*
X48600000Y66142857D01*
X48552380Y66047619D01*
X48552380Y64809523D02*
X48552380Y65285714D01*
X49028571Y65333333D01*
X48980952Y65285714D01*
X48933333Y65190476D01*
X48933333Y64952380D01*
X48980952Y64857142D01*
X49028571Y64809523D01*
X49123809Y64761904D01*
X49361904Y64761904D01*
X49457142Y64809523D01*
X49504761Y64857142D01*
X49552380Y64952380D01*
X49552380Y65190476D01*
X49504761Y65285714D01*
X49457142Y65333333D01*
X53452380Y67619047D02*
X52976190Y67952380D01*
X53452380Y68190476D02*
X52452380Y68190476D01*
X52452380Y67809523D01*
X52500000Y67714285D01*
X52547619Y67666666D01*
X52642857Y67619047D01*
X52785714Y67619047D01*
X52880952Y67666666D01*
X52928571Y67714285D01*
X52976190Y67809523D01*
X52976190Y68190476D01*
X53452380Y66666666D02*
X53452380Y67238095D01*
X53452380Y66952380D02*
X52452380Y66952380D01*
X52595238Y67047619D01*
X52690476Y67142857D01*
X52738095Y67238095D01*
X52452380Y66047619D02*
X52452380Y65952380D01*
X52500000Y65857142D01*
X52547619Y65809523D01*
X52642857Y65761904D01*
X52833333Y65714285D01*
X53071428Y65714285D01*
X53261904Y65761904D01*
X53357142Y65809523D01*
X53404761Y65857142D01*
X53452380Y65952380D01*
X53452380Y66047619D01*
X53404761Y66142857D01*
X53357142Y66190476D01*
X53261904Y66238095D01*
X53071428Y66285714D01*
X52833333Y66285714D01*
X52642857Y66238095D01*
X52547619Y66190476D01*
X52500000Y66142857D01*
X52452380Y66047619D01*
X52452380Y64857142D02*
X52452380Y65047619D01*
X52500000Y65142857D01*
X52547619Y65190476D01*
X52690476Y65285714D01*
X52880952Y65333333D01*
X53261904Y65333333D01*
X53357142Y65285714D01*
X53404761Y65238095D01*
X53452380Y65142857D01*
X53452380Y64952380D01*
X53404761Y64857142D01*
X53357142Y64809523D01*
X53261904Y64761904D01*
X53023809Y64761904D01*
X52928571Y64809523D01*
X52880952Y64857142D01*
X52833333Y64952380D01*
X52833333Y65142857D01*
X52880952Y65238095D01*
X52928571Y65285714D01*
X53023809Y65333333D01*
X43452380Y67619047D02*
X42976190Y67952380D01*
X43452380Y68190476D02*
X42452380Y68190476D01*
X42452380Y67809523D01*
X42500000Y67714285D01*
X42547619Y67666666D01*
X42642857Y67619047D01*
X42785714Y67619047D01*
X42880952Y67666666D01*
X42928571Y67714285D01*
X42976190Y67809523D01*
X42976190Y68190476D01*
X43452380Y66666666D02*
X43452380Y67238095D01*
X43452380Y66952380D02*
X42452380Y66952380D01*
X42595238Y67047619D01*
X42690476Y67142857D01*
X42738095Y67238095D01*
X42452380Y66047619D02*
X42452380Y65952380D01*
X42500000Y65857142D01*
X42547619Y65809523D01*
X42642857Y65761904D01*
X42833333Y65714285D01*
X43071428Y65714285D01*
X43261904Y65761904D01*
X43357142Y65809523D01*
X43404761Y65857142D01*
X43452380Y65952380D01*
X43452380Y66047619D01*
X43404761Y66142857D01*
X43357142Y66190476D01*
X43261904Y66238095D01*
X43071428Y66285714D01*
X42833333Y66285714D01*
X42642857Y66238095D01*
X42547619Y66190476D01*
X42500000Y66142857D01*
X42452380Y66047619D01*
X42452380Y65380952D02*
X42452380Y64714285D01*
X43452380Y65142857D01*
X47452380Y67519047D02*
X46976190Y67852380D01*
X47452380Y68090476D02*
X46452380Y68090476D01*
X46452380Y67709523D01*
X46500000Y67614285D01*
X46547619Y67566666D01*
X46642857Y67519047D01*
X46785714Y67519047D01*
X46880952Y67566666D01*
X46928571Y67614285D01*
X46976190Y67709523D01*
X46976190Y68090476D01*
X47452380Y66566666D02*
X47452380Y67138095D01*
X47452380Y66852380D02*
X46452380Y66852380D01*
X46595238Y66947619D01*
X46690476Y67042857D01*
X46738095Y67138095D01*
X46452380Y65947619D02*
X46452380Y65852380D01*
X46500000Y65757142D01*
X46547619Y65709523D01*
X46642857Y65661904D01*
X46833333Y65614285D01*
X47071428Y65614285D01*
X47261904Y65661904D01*
X47357142Y65709523D01*
X47404761Y65757142D01*
X47452380Y65852380D01*
X47452380Y65947619D01*
X47404761Y66042857D01*
X47357142Y66090476D01*
X47261904Y66138095D01*
X47071428Y66185714D01*
X46833333Y66185714D01*
X46642857Y66138095D01*
X46547619Y66090476D01*
X46500000Y66042857D01*
X46452380Y65947619D01*
X46880952Y65042857D02*
X46833333Y65138095D01*
X46785714Y65185714D01*
X46690476Y65233333D01*
X46642857Y65233333D01*
X46547619Y65185714D01*
X46500000Y65138095D01*
X46452380Y65042857D01*
X46452380Y64852380D01*
X46500000Y64757142D01*
X46547619Y64709523D01*
X46642857Y64661904D01*
X46690476Y64661904D01*
X46785714Y64709523D01*
X46833333Y64757142D01*
X46880952Y64852380D01*
X46880952Y65042857D01*
X46928571Y65138095D01*
X46976190Y65185714D01*
X47071428Y65233333D01*
X47261904Y65233333D01*
X47357142Y65185714D01*
X47404761Y65138095D01*
X47452380Y65042857D01*
X47452380Y64852380D01*
X47404761Y64757142D01*
X47357142Y64709523D01*
X47261904Y64661904D01*
X47071428Y64661904D01*
X46976190Y64709523D01*
X46928571Y64757142D01*
X46880952Y64852380D01*
X74552380Y67619047D02*
X74076190Y67952380D01*
X74552380Y68190476D02*
X73552380Y68190476D01*
X73552380Y67809523D01*
X73600000Y67714285D01*
X73647619Y67666666D01*
X73742857Y67619047D01*
X73885714Y67619047D01*
X73980952Y67666666D01*
X74028571Y67714285D01*
X74076190Y67809523D01*
X74076190Y68190476D01*
X74552380Y66666666D02*
X74552380Y67238095D01*
X74552380Y66952380D02*
X73552380Y66952380D01*
X73695238Y67047619D01*
X73790476Y67142857D01*
X73838095Y67238095D01*
X73552380Y66047619D02*
X73552380Y65952380D01*
X73600000Y65857142D01*
X73647619Y65809523D01*
X73742857Y65761904D01*
X73933333Y65714285D01*
X74171428Y65714285D01*
X74361904Y65761904D01*
X74457142Y65809523D01*
X74504761Y65857142D01*
X74552380Y65952380D01*
X74552380Y66047619D01*
X74504761Y66142857D01*
X74457142Y66190476D01*
X74361904Y66238095D01*
X74171428Y66285714D01*
X73933333Y66285714D01*
X73742857Y66238095D01*
X73647619Y66190476D01*
X73600000Y66142857D01*
X73552380Y66047619D01*
X74552380Y65238095D02*
X74552380Y65047619D01*
X74504761Y64952380D01*
X74457142Y64904761D01*
X74314285Y64809523D01*
X74123809Y64761904D01*
X73742857Y64761904D01*
X73647619Y64809523D01*
X73600000Y64857142D01*
X73552380Y64952380D01*
X73552380Y65142857D01*
X73600000Y65238095D01*
X73647619Y65285714D01*
X73742857Y65333333D01*
X73980952Y65333333D01*
X74076190Y65285714D01*
X74123809Y65238095D01*
X74171428Y65142857D01*
X74171428Y64952380D01*
X74123809Y64857142D01*
X74076190Y64809523D01*
X73980952Y64761904D01*
X70552380Y67619047D02*
X70076190Y67952380D01*
X70552380Y68190476D02*
X69552380Y68190476D01*
X69552380Y67809523D01*
X69600000Y67714285D01*
X69647619Y67666666D01*
X69742857Y67619047D01*
X69885714Y67619047D01*
X69980952Y67666666D01*
X70028571Y67714285D01*
X70076190Y67809523D01*
X70076190Y68190476D01*
X70552380Y66666666D02*
X70552380Y67238095D01*
X70552380Y66952380D02*
X69552380Y66952380D01*
X69695238Y67047619D01*
X69790476Y67142857D01*
X69838095Y67238095D01*
X70552380Y65714285D02*
X70552380Y66285714D01*
X70552380Y66000000D02*
X69552380Y66000000D01*
X69695238Y66095238D01*
X69790476Y66190476D01*
X69838095Y66285714D01*
X69552380Y65095238D02*
X69552380Y65000000D01*
X69600000Y64904761D01*
X69647619Y64857142D01*
X69742857Y64809523D01*
X69933333Y64761904D01*
X70171428Y64761904D01*
X70361904Y64809523D01*
X70457142Y64857142D01*
X70504761Y64904761D01*
X70552380Y65000000D01*
X70552380Y65095238D01*
X70504761Y65190476D01*
X70457142Y65238095D01*
X70361904Y65285714D01*
X70171428Y65333333D01*
X69933333Y65333333D01*
X69742857Y65285714D01*
X69647619Y65238095D01*
X69600000Y65190476D01*
X69552380Y65095238D01*
X68452380Y67619047D02*
X67976190Y67952380D01*
X68452380Y68190476D02*
X67452380Y68190476D01*
X67452380Y67809523D01*
X67500000Y67714285D01*
X67547619Y67666666D01*
X67642857Y67619047D01*
X67785714Y67619047D01*
X67880952Y67666666D01*
X67928571Y67714285D01*
X67976190Y67809523D01*
X67976190Y68190476D01*
X68452380Y66666666D02*
X68452380Y67238095D01*
X68452380Y66952380D02*
X67452380Y66952380D01*
X67595238Y67047619D01*
X67690476Y67142857D01*
X67738095Y67238095D01*
X68452380Y65714285D02*
X68452380Y66285714D01*
X68452380Y66000000D02*
X67452380Y66000000D01*
X67595238Y66095238D01*
X67690476Y66190476D01*
X67738095Y66285714D01*
X68452380Y64761904D02*
X68452380Y65333333D01*
X68452380Y65047619D02*
X67452380Y65047619D01*
X67595238Y65142857D01*
X67690476Y65238095D01*
X67738095Y65333333D01*
X64452380Y67619047D02*
X63976190Y67952380D01*
X64452380Y68190476D02*
X63452380Y68190476D01*
X63452380Y67809523D01*
X63500000Y67714285D01*
X63547619Y67666666D01*
X63642857Y67619047D01*
X63785714Y67619047D01*
X63880952Y67666666D01*
X63928571Y67714285D01*
X63976190Y67809523D01*
X63976190Y68190476D01*
X64452380Y66666666D02*
X64452380Y67238095D01*
X64452380Y66952380D02*
X63452380Y66952380D01*
X63595238Y67047619D01*
X63690476Y67142857D01*
X63738095Y67238095D01*
X64452380Y65714285D02*
X64452380Y66285714D01*
X64452380Y66000000D02*
X63452380Y66000000D01*
X63595238Y66095238D01*
X63690476Y66190476D01*
X63738095Y66285714D01*
X63547619Y65333333D02*
X63500000Y65285714D01*
X63452380Y65190476D01*
X63452380Y64952380D01*
X63500000Y64857142D01*
X63547619Y64809523D01*
X63642857Y64761904D01*
X63738095Y64761904D01*
X63880952Y64809523D01*
X64452380Y65380952D01*
X64452380Y64761904D01*
X95352380Y67619047D02*
X94876190Y67952380D01*
X95352380Y68190476D02*
X94352380Y68190476D01*
X94352380Y67809523D01*
X94400000Y67714285D01*
X94447619Y67666666D01*
X94542857Y67619047D01*
X94685714Y67619047D01*
X94780952Y67666666D01*
X94828571Y67714285D01*
X94876190Y67809523D01*
X94876190Y68190476D01*
X95352380Y66666666D02*
X95352380Y67238095D01*
X95352380Y66952380D02*
X94352380Y66952380D01*
X94495238Y67047619D01*
X94590476Y67142857D01*
X94638095Y67238095D01*
X95352380Y65714285D02*
X95352380Y66285714D01*
X95352380Y66000000D02*
X94352380Y66000000D01*
X94495238Y66095238D01*
X94590476Y66190476D01*
X94638095Y66285714D01*
X94352380Y65380952D02*
X94352380Y64761904D01*
X94733333Y65095238D01*
X94733333Y64952380D01*
X94780952Y64857142D01*
X94828571Y64809523D01*
X94923809Y64761904D01*
X95161904Y64761904D01*
X95257142Y64809523D01*
X95304761Y64857142D01*
X95352380Y64952380D01*
X95352380Y65238095D01*
X95304761Y65333333D01*
X95257142Y65380952D01*
X91452380Y67619047D02*
X90976190Y67952380D01*
X91452380Y68190476D02*
X90452380Y68190476D01*
X90452380Y67809523D01*
X90500000Y67714285D01*
X90547619Y67666666D01*
X90642857Y67619047D01*
X90785714Y67619047D01*
X90880952Y67666666D01*
X90928571Y67714285D01*
X90976190Y67809523D01*
X90976190Y68190476D01*
X91452380Y66666666D02*
X91452380Y67238095D01*
X91452380Y66952380D02*
X90452380Y66952380D01*
X90595238Y67047619D01*
X90690476Y67142857D01*
X90738095Y67238095D01*
X91452380Y65714285D02*
X91452380Y66285714D01*
X91452380Y66000000D02*
X90452380Y66000000D01*
X90595238Y66095238D01*
X90690476Y66190476D01*
X90738095Y66285714D01*
X90785714Y64857142D02*
X91452380Y64857142D01*
X90404761Y65095238D02*
X91119047Y65333333D01*
X91119047Y64714285D01*
X89452380Y67619047D02*
X88976190Y67952380D01*
X89452380Y68190476D02*
X88452380Y68190476D01*
X88452380Y67809523D01*
X88500000Y67714285D01*
X88547619Y67666666D01*
X88642857Y67619047D01*
X88785714Y67619047D01*
X88880952Y67666666D01*
X88928571Y67714285D01*
X88976190Y67809523D01*
X88976190Y68190476D01*
X89452380Y66666666D02*
X89452380Y67238095D01*
X89452380Y66952380D02*
X88452380Y66952380D01*
X88595238Y67047619D01*
X88690476Y67142857D01*
X88738095Y67238095D01*
X89452380Y65714285D02*
X89452380Y66285714D01*
X89452380Y66000000D02*
X88452380Y66000000D01*
X88595238Y66095238D01*
X88690476Y66190476D01*
X88738095Y66285714D01*
X88452380Y64809523D02*
X88452380Y65285714D01*
X88928571Y65333333D01*
X88880952Y65285714D01*
X88833333Y65190476D01*
X88833333Y64952380D01*
X88880952Y64857142D01*
X88928571Y64809523D01*
X89023809Y64761904D01*
X89261904Y64761904D01*
X89357142Y64809523D01*
X89404761Y64857142D01*
X89452380Y64952380D01*
X89452380Y65190476D01*
X89404761Y65285714D01*
X89357142Y65333333D01*
X85352380Y67619047D02*
X84876190Y67952380D01*
X85352380Y68190476D02*
X84352380Y68190476D01*
X84352380Y67809523D01*
X84400000Y67714285D01*
X84447619Y67666666D01*
X84542857Y67619047D01*
X84685714Y67619047D01*
X84780952Y67666666D01*
X84828571Y67714285D01*
X84876190Y67809523D01*
X84876190Y68190476D01*
X85352380Y66666666D02*
X85352380Y67238095D01*
X85352380Y66952380D02*
X84352380Y66952380D01*
X84495238Y67047619D01*
X84590476Y67142857D01*
X84638095Y67238095D01*
X85352380Y65714285D02*
X85352380Y66285714D01*
X85352380Y66000000D02*
X84352380Y66000000D01*
X84495238Y66095238D01*
X84590476Y66190476D01*
X84638095Y66285714D01*
X84352380Y64857142D02*
X84352380Y65047619D01*
X84400000Y65142857D01*
X84447619Y65190476D01*
X84590476Y65285714D01*
X84780952Y65333333D01*
X85161904Y65333333D01*
X85257142Y65285714D01*
X85304761Y65238095D01*
X85352380Y65142857D01*
X85352380Y64952380D01*
X85304761Y64857142D01*
X85257142Y64809523D01*
X85161904Y64761904D01*
X84923809Y64761904D01*
X84828571Y64809523D01*
X84780952Y64857142D01*
X84733333Y64952380D01*
X84733333Y65142857D01*
X84780952Y65238095D01*
X84828571Y65285714D01*
X84923809Y65333333D01*
X28357142Y67619047D02*
X28404761Y67666666D01*
X28452380Y67809523D01*
X28452380Y67904761D01*
X28404761Y68047619D01*
X28309523Y68142857D01*
X28214285Y68190476D01*
X28023809Y68238095D01*
X27880952Y68238095D01*
X27690476Y68190476D01*
X27595238Y68142857D01*
X27500000Y68047619D01*
X27452380Y67904761D01*
X27452380Y67809523D01*
X27500000Y67666666D01*
X27547619Y67619047D01*
X28452380Y66666666D02*
X28452380Y67238095D01*
X28452380Y66952380D02*
X27452380Y66952380D01*
X27595238Y67047619D01*
X27690476Y67142857D01*
X27738095Y67238095D01*
X27452380Y66047619D02*
X27452380Y65952380D01*
X27500000Y65857142D01*
X27547619Y65809523D01*
X27642857Y65761904D01*
X27833333Y65714285D01*
X28071428Y65714285D01*
X28261904Y65761904D01*
X28357142Y65809523D01*
X28404761Y65857142D01*
X28452380Y65952380D01*
X28452380Y66047619D01*
X28404761Y66142857D01*
X28357142Y66190476D01*
X28261904Y66238095D01*
X28071428Y66285714D01*
X27833333Y66285714D01*
X27642857Y66238095D01*
X27547619Y66190476D01*
X27500000Y66142857D01*
X27452380Y66047619D01*
X28452380Y64761904D02*
X28452380Y65333333D01*
X28452380Y65047619D02*
X27452380Y65047619D01*
X27595238Y65142857D01*
X27690476Y65238095D01*
X27738095Y65333333D01*
X22357142Y67519047D02*
X22404761Y67566666D01*
X22452380Y67709523D01*
X22452380Y67804761D01*
X22404761Y67947619D01*
X22309523Y68042857D01*
X22214285Y68090476D01*
X22023809Y68138095D01*
X21880952Y68138095D01*
X21690476Y68090476D01*
X21595238Y68042857D01*
X21500000Y67947619D01*
X21452380Y67804761D01*
X21452380Y67709523D01*
X21500000Y67566666D01*
X21547619Y67519047D01*
X22452380Y66566666D02*
X22452380Y67138095D01*
X22452380Y66852380D02*
X21452380Y66852380D01*
X21595238Y66947619D01*
X21690476Y67042857D01*
X21738095Y67138095D01*
X21452380Y65947619D02*
X21452380Y65852380D01*
X21500000Y65757142D01*
X21547619Y65709523D01*
X21642857Y65661904D01*
X21833333Y65614285D01*
X22071428Y65614285D01*
X22261904Y65661904D01*
X22357142Y65709523D01*
X22404761Y65757142D01*
X22452380Y65852380D01*
X22452380Y65947619D01*
X22404761Y66042857D01*
X22357142Y66090476D01*
X22261904Y66138095D01*
X22071428Y66185714D01*
X21833333Y66185714D01*
X21642857Y66138095D01*
X21547619Y66090476D01*
X21500000Y66042857D01*
X21452380Y65947619D01*
X21547619Y65233333D02*
X21500000Y65185714D01*
X21452380Y65090476D01*
X21452380Y64852380D01*
X21500000Y64757142D01*
X21547619Y64709523D01*
X21642857Y64661904D01*
X21738095Y64661904D01*
X21880952Y64709523D01*
X22452380Y65280952D01*
X22452380Y64661904D01*
X51357142Y67519047D02*
X51404761Y67566666D01*
X51452380Y67709523D01*
X51452380Y67804761D01*
X51404761Y67947619D01*
X51309523Y68042857D01*
X51214285Y68090476D01*
X51023809Y68138095D01*
X50880952Y68138095D01*
X50690476Y68090476D01*
X50595238Y68042857D01*
X50500000Y67947619D01*
X50452380Y67804761D01*
X50452380Y67709523D01*
X50500000Y67566666D01*
X50547619Y67519047D01*
X51452380Y66566666D02*
X51452380Y67138095D01*
X51452380Y66852380D02*
X50452380Y66852380D01*
X50595238Y66947619D01*
X50690476Y67042857D01*
X50738095Y67138095D01*
X50452380Y65947619D02*
X50452380Y65852380D01*
X50500000Y65757142D01*
X50547619Y65709523D01*
X50642857Y65661904D01*
X50833333Y65614285D01*
X51071428Y65614285D01*
X51261904Y65661904D01*
X51357142Y65709523D01*
X51404761Y65757142D01*
X51452380Y65852380D01*
X51452380Y65947619D01*
X51404761Y66042857D01*
X51357142Y66090476D01*
X51261904Y66138095D01*
X51071428Y66185714D01*
X50833333Y66185714D01*
X50642857Y66138095D01*
X50547619Y66090476D01*
X50500000Y66042857D01*
X50452380Y65947619D01*
X50452380Y65280952D02*
X50452380Y64661904D01*
X50833333Y64995238D01*
X50833333Y64852380D01*
X50880952Y64757142D01*
X50928571Y64709523D01*
X51023809Y64661904D01*
X51261904Y64661904D01*
X51357142Y64709523D01*
X51404761Y64757142D01*
X51452380Y64852380D01*
X51452380Y65138095D01*
X51404761Y65233333D01*
X51357142Y65280952D01*
X45357142Y67519047D02*
X45404761Y67566666D01*
X45452380Y67709523D01*
X45452380Y67804761D01*
X45404761Y67947619D01*
X45309523Y68042857D01*
X45214285Y68090476D01*
X45023809Y68138095D01*
X44880952Y68138095D01*
X44690476Y68090476D01*
X44595238Y68042857D01*
X44500000Y67947619D01*
X44452380Y67804761D01*
X44452380Y67709523D01*
X44500000Y67566666D01*
X44547619Y67519047D01*
X45452380Y66566666D02*
X45452380Y67138095D01*
X45452380Y66852380D02*
X44452380Y66852380D01*
X44595238Y66947619D01*
X44690476Y67042857D01*
X44738095Y67138095D01*
X44452380Y65947619D02*
X44452380Y65852380D01*
X44500000Y65757142D01*
X44547619Y65709523D01*
X44642857Y65661904D01*
X44833333Y65614285D01*
X45071428Y65614285D01*
X45261904Y65661904D01*
X45357142Y65709523D01*
X45404761Y65757142D01*
X45452380Y65852380D01*
X45452380Y65947619D01*
X45404761Y66042857D01*
X45357142Y66090476D01*
X45261904Y66138095D01*
X45071428Y66185714D01*
X44833333Y66185714D01*
X44642857Y66138095D01*
X44547619Y66090476D01*
X44500000Y66042857D01*
X44452380Y65947619D01*
X44785714Y64757142D02*
X45452380Y64757142D01*
X44404761Y64995238D02*
X45119047Y65233333D01*
X45119047Y64614285D01*
X72357142Y67619047D02*
X72404761Y67666666D01*
X72452380Y67809523D01*
X72452380Y67904761D01*
X72404761Y68047619D01*
X72309523Y68142857D01*
X72214285Y68190476D01*
X72023809Y68238095D01*
X71880952Y68238095D01*
X71690476Y68190476D01*
X71595238Y68142857D01*
X71500000Y68047619D01*
X71452380Y67904761D01*
X71452380Y67809523D01*
X71500000Y67666666D01*
X71547619Y67619047D01*
X72452380Y66666666D02*
X72452380Y67238095D01*
X72452380Y66952380D02*
X71452380Y66952380D01*
X71595238Y67047619D01*
X71690476Y67142857D01*
X71738095Y67238095D01*
X71452380Y66047619D02*
X71452380Y65952380D01*
X71500000Y65857142D01*
X71547619Y65809523D01*
X71642857Y65761904D01*
X71833333Y65714285D01*
X72071428Y65714285D01*
X72261904Y65761904D01*
X72357142Y65809523D01*
X72404761Y65857142D01*
X72452380Y65952380D01*
X72452380Y66047619D01*
X72404761Y66142857D01*
X72357142Y66190476D01*
X72261904Y66238095D01*
X72071428Y66285714D01*
X71833333Y66285714D01*
X71642857Y66238095D01*
X71547619Y66190476D01*
X71500000Y66142857D01*
X71452380Y66047619D01*
X71452380Y64809523D02*
X71452380Y65285714D01*
X71928571Y65333333D01*
X71880952Y65285714D01*
X71833333Y65190476D01*
X71833333Y64952380D01*
X71880952Y64857142D01*
X71928571Y64809523D01*
X72023809Y64761904D01*
X72261904Y64761904D01*
X72357142Y64809523D01*
X72404761Y64857142D01*
X72452380Y64952380D01*
X72452380Y65190476D01*
X72404761Y65285714D01*
X72357142Y65333333D01*
X66357142Y67619047D02*
X66404761Y67666666D01*
X66452380Y67809523D01*
X66452380Y67904761D01*
X66404761Y68047619D01*
X66309523Y68142857D01*
X66214285Y68190476D01*
X66023809Y68238095D01*
X65880952Y68238095D01*
X65690476Y68190476D01*
X65595238Y68142857D01*
X65500000Y68047619D01*
X65452380Y67904761D01*
X65452380Y67809523D01*
X65500000Y67666666D01*
X65547619Y67619047D01*
X66452380Y66666666D02*
X66452380Y67238095D01*
X66452380Y66952380D02*
X65452380Y66952380D01*
X65595238Y67047619D01*
X65690476Y67142857D01*
X65738095Y67238095D01*
X65452380Y66047619D02*
X65452380Y65952380D01*
X65500000Y65857142D01*
X65547619Y65809523D01*
X65642857Y65761904D01*
X65833333Y65714285D01*
X66071428Y65714285D01*
X66261904Y65761904D01*
X66357142Y65809523D01*
X66404761Y65857142D01*
X66452380Y65952380D01*
X66452380Y66047619D01*
X66404761Y66142857D01*
X66357142Y66190476D01*
X66261904Y66238095D01*
X66071428Y66285714D01*
X65833333Y66285714D01*
X65642857Y66238095D01*
X65547619Y66190476D01*
X65500000Y66142857D01*
X65452380Y66047619D01*
X65452380Y64857142D02*
X65452380Y65047619D01*
X65500000Y65142857D01*
X65547619Y65190476D01*
X65690476Y65285714D01*
X65880952Y65333333D01*
X66261904Y65333333D01*
X66357142Y65285714D01*
X66404761Y65238095D01*
X66452380Y65142857D01*
X66452380Y64952380D01*
X66404761Y64857142D01*
X66357142Y64809523D01*
X66261904Y64761904D01*
X66023809Y64761904D01*
X65928571Y64809523D01*
X65880952Y64857142D01*
X65833333Y64952380D01*
X65833333Y65142857D01*
X65880952Y65238095D01*
X65928571Y65285714D01*
X66023809Y65333333D01*
X93357142Y67619047D02*
X93404761Y67666666D01*
X93452380Y67809523D01*
X93452380Y67904761D01*
X93404761Y68047619D01*
X93309523Y68142857D01*
X93214285Y68190476D01*
X93023809Y68238095D01*
X92880952Y68238095D01*
X92690476Y68190476D01*
X92595238Y68142857D01*
X92500000Y68047619D01*
X92452380Y67904761D01*
X92452380Y67809523D01*
X92500000Y67666666D01*
X92547619Y67619047D01*
X93452380Y66666666D02*
X93452380Y67238095D01*
X93452380Y66952380D02*
X92452380Y66952380D01*
X92595238Y67047619D01*
X92690476Y67142857D01*
X92738095Y67238095D01*
X92452380Y66047619D02*
X92452380Y65952380D01*
X92500000Y65857142D01*
X92547619Y65809523D01*
X92642857Y65761904D01*
X92833333Y65714285D01*
X93071428Y65714285D01*
X93261904Y65761904D01*
X93357142Y65809523D01*
X93404761Y65857142D01*
X93452380Y65952380D01*
X93452380Y66047619D01*
X93404761Y66142857D01*
X93357142Y66190476D01*
X93261904Y66238095D01*
X93071428Y66285714D01*
X92833333Y66285714D01*
X92642857Y66238095D01*
X92547619Y66190476D01*
X92500000Y66142857D01*
X92452380Y66047619D01*
X92452380Y65380952D02*
X92452380Y64714285D01*
X93452380Y65142857D01*
X87257142Y67519047D02*
X87304761Y67566666D01*
X87352380Y67709523D01*
X87352380Y67804761D01*
X87304761Y67947619D01*
X87209523Y68042857D01*
X87114285Y68090476D01*
X86923809Y68138095D01*
X86780952Y68138095D01*
X86590476Y68090476D01*
X86495238Y68042857D01*
X86400000Y67947619D01*
X86352380Y67804761D01*
X86352380Y67709523D01*
X86400000Y67566666D01*
X86447619Y67519047D01*
X87352380Y66566666D02*
X87352380Y67138095D01*
X87352380Y66852380D02*
X86352380Y66852380D01*
X86495238Y66947619D01*
X86590476Y67042857D01*
X86638095Y67138095D01*
X86352380Y65947619D02*
X86352380Y65852380D01*
X86400000Y65757142D01*
X86447619Y65709523D01*
X86542857Y65661904D01*
X86733333Y65614285D01*
X86971428Y65614285D01*
X87161904Y65661904D01*
X87257142Y65709523D01*
X87304761Y65757142D01*
X87352380Y65852380D01*
X87352380Y65947619D01*
X87304761Y66042857D01*
X87257142Y66090476D01*
X87161904Y66138095D01*
X86971428Y66185714D01*
X86733333Y66185714D01*
X86542857Y66138095D01*
X86447619Y66090476D01*
X86400000Y66042857D01*
X86352380Y65947619D01*
X86780952Y65042857D02*
X86733333Y65138095D01*
X86685714Y65185714D01*
X86590476Y65233333D01*
X86542857Y65233333D01*
X86447619Y65185714D01*
X86400000Y65138095D01*
X86352380Y65042857D01*
X86352380Y64852380D01*
X86400000Y64757142D01*
X86447619Y64709523D01*
X86542857Y64661904D01*
X86590476Y64661904D01*
X86685714Y64709523D01*
X86733333Y64757142D01*
X86780952Y64852380D01*
X86780952Y65042857D01*
X86828571Y65138095D01*
X86876190Y65185714D01*
X86971428Y65233333D01*
X87161904Y65233333D01*
X87257142Y65185714D01*
X87304761Y65138095D01*
X87352380Y65042857D01*
X87352380Y64852380D01*
X87304761Y64757142D01*
X87257142Y64709523D01*
X87161904Y64661904D01*
X86971428Y64661904D01*
X86876190Y64709523D01*
X86828571Y64757142D01*
X86780952Y64852380D01*
X116357142Y67619047D02*
X116404761Y67666666D01*
X116452380Y67809523D01*
X116452380Y67904761D01*
X116404761Y68047619D01*
X116309523Y68142857D01*
X116214285Y68190476D01*
X116023809Y68238095D01*
X115880952Y68238095D01*
X115690476Y68190476D01*
X115595238Y68142857D01*
X115500000Y68047619D01*
X115452380Y67904761D01*
X115452380Y67809523D01*
X115500000Y67666666D01*
X115547619Y67619047D01*
X116452380Y66666666D02*
X116452380Y67238095D01*
X116452380Y66952380D02*
X115452380Y66952380D01*
X115595238Y67047619D01*
X115690476Y67142857D01*
X115738095Y67238095D01*
X115452380Y66047619D02*
X115452380Y65952380D01*
X115500000Y65857142D01*
X115547619Y65809523D01*
X115642857Y65761904D01*
X115833333Y65714285D01*
X116071428Y65714285D01*
X116261904Y65761904D01*
X116357142Y65809523D01*
X116404761Y65857142D01*
X116452380Y65952380D01*
X116452380Y66047619D01*
X116404761Y66142857D01*
X116357142Y66190476D01*
X116261904Y66238095D01*
X116071428Y66285714D01*
X115833333Y66285714D01*
X115642857Y66238095D01*
X115547619Y66190476D01*
X115500000Y66142857D01*
X115452380Y66047619D01*
X116452380Y65238095D02*
X116452380Y65047619D01*
X116404761Y64952380D01*
X116357142Y64904761D01*
X116214285Y64809523D01*
X116023809Y64761904D01*
X115642857Y64761904D01*
X115547619Y64809523D01*
X115500000Y64857142D01*
X115452380Y64952380D01*
X115452380Y65142857D01*
X115500000Y65238095D01*
X115547619Y65285714D01*
X115642857Y65333333D01*
X115880952Y65333333D01*
X115976190Y65285714D01*
X116023809Y65238095D01*
X116071428Y65142857D01*
X116071428Y64952380D01*
X116023809Y64857142D01*
X115976190Y64809523D01*
X115880952Y64761904D01*
X110357142Y67619047D02*
X110404761Y67666666D01*
X110452380Y67809523D01*
X110452380Y67904761D01*
X110404761Y68047619D01*
X110309523Y68142857D01*
X110214285Y68190476D01*
X110023809Y68238095D01*
X109880952Y68238095D01*
X109690476Y68190476D01*
X109595238Y68142857D01*
X109500000Y68047619D01*
X109452380Y67904761D01*
X109452380Y67809523D01*
X109500000Y67666666D01*
X109547619Y67619047D01*
X110452380Y66666666D02*
X110452380Y67238095D01*
X110452380Y66952380D02*
X109452380Y66952380D01*
X109595238Y67047619D01*
X109690476Y67142857D01*
X109738095Y67238095D01*
X110452380Y65714285D02*
X110452380Y66285714D01*
X110452380Y66000000D02*
X109452380Y66000000D01*
X109595238Y66095238D01*
X109690476Y66190476D01*
X109738095Y66285714D01*
X109452380Y65095238D02*
X109452380Y65000000D01*
X109500000Y64904761D01*
X109547619Y64857142D01*
X109642857Y64809523D01*
X109833333Y64761904D01*
X110071428Y64761904D01*
X110261904Y64809523D01*
X110357142Y64857142D01*
X110404761Y64904761D01*
X110452380Y65000000D01*
X110452380Y65095238D01*
X110404761Y65190476D01*
X110357142Y65238095D01*
X110261904Y65285714D01*
X110071428Y65333333D01*
X109833333Y65333333D01*
X109642857Y65285714D01*
X109547619Y65238095D01*
X109500000Y65190476D01*
X109452380Y65095238D01*
X139257142Y67619047D02*
X139304761Y67666666D01*
X139352380Y67809523D01*
X139352380Y67904761D01*
X139304761Y68047619D01*
X139209523Y68142857D01*
X139114285Y68190476D01*
X138923809Y68238095D01*
X138780952Y68238095D01*
X138590476Y68190476D01*
X138495238Y68142857D01*
X138400000Y68047619D01*
X138352380Y67904761D01*
X138352380Y67809523D01*
X138400000Y67666666D01*
X138447619Y67619047D01*
X139352380Y66666666D02*
X139352380Y67238095D01*
X139352380Y66952380D02*
X138352380Y66952380D01*
X138495238Y67047619D01*
X138590476Y67142857D01*
X138638095Y67238095D01*
X139352380Y65714285D02*
X139352380Y66285714D01*
X139352380Y66000000D02*
X138352380Y66000000D01*
X138495238Y66095238D01*
X138590476Y66190476D01*
X138638095Y66285714D01*
X139352380Y64761904D02*
X139352380Y65333333D01*
X139352380Y65047619D02*
X138352380Y65047619D01*
X138495238Y65142857D01*
X138590476Y65238095D01*
X138638095Y65333333D01*
X133357142Y67619047D02*
X133404761Y67666666D01*
X133452380Y67809523D01*
X133452380Y67904761D01*
X133404761Y68047619D01*
X133309523Y68142857D01*
X133214285Y68190476D01*
X133023809Y68238095D01*
X132880952Y68238095D01*
X132690476Y68190476D01*
X132595238Y68142857D01*
X132500000Y68047619D01*
X132452380Y67904761D01*
X132452380Y67809523D01*
X132500000Y67666666D01*
X132547619Y67619047D01*
X133452380Y66666666D02*
X133452380Y67238095D01*
X133452380Y66952380D02*
X132452380Y66952380D01*
X132595238Y67047619D01*
X132690476Y67142857D01*
X132738095Y67238095D01*
X133452380Y65714285D02*
X133452380Y66285714D01*
X133452380Y66000000D02*
X132452380Y66000000D01*
X132595238Y66095238D01*
X132690476Y66190476D01*
X132738095Y66285714D01*
X132547619Y65333333D02*
X132500000Y65285714D01*
X132452380Y65190476D01*
X132452380Y64952380D01*
X132500000Y64857142D01*
X132547619Y64809523D01*
X132642857Y64761904D01*
X132738095Y64761904D01*
X132880952Y64809523D01*
X133452380Y65380952D01*
X133452380Y64761904D01*
X162357142Y67619047D02*
X162404761Y67666666D01*
X162452380Y67809523D01*
X162452380Y67904761D01*
X162404761Y68047619D01*
X162309523Y68142857D01*
X162214285Y68190476D01*
X162023809Y68238095D01*
X161880952Y68238095D01*
X161690476Y68190476D01*
X161595238Y68142857D01*
X161500000Y68047619D01*
X161452380Y67904761D01*
X161452380Y67809523D01*
X161500000Y67666666D01*
X161547619Y67619047D01*
X162452380Y66666666D02*
X162452380Y67238095D01*
X162452380Y66952380D02*
X161452380Y66952380D01*
X161595238Y67047619D01*
X161690476Y67142857D01*
X161738095Y67238095D01*
X162452380Y65714285D02*
X162452380Y66285714D01*
X162452380Y66000000D02*
X161452380Y66000000D01*
X161595238Y66095238D01*
X161690476Y66190476D01*
X161738095Y66285714D01*
X161452380Y65380952D02*
X161452380Y64761904D01*
X161833333Y65095238D01*
X161833333Y64952380D01*
X161880952Y64857142D01*
X161928571Y64809523D01*
X162023809Y64761904D01*
X162261904Y64761904D01*
X162357142Y64809523D01*
X162404761Y64857142D01*
X162452380Y64952380D01*
X162452380Y65238095D01*
X162404761Y65333333D01*
X162357142Y65380952D01*
X156357142Y67619047D02*
X156404761Y67666666D01*
X156452380Y67809523D01*
X156452380Y67904761D01*
X156404761Y68047619D01*
X156309523Y68142857D01*
X156214285Y68190476D01*
X156023809Y68238095D01*
X155880952Y68238095D01*
X155690476Y68190476D01*
X155595238Y68142857D01*
X155500000Y68047619D01*
X155452380Y67904761D01*
X155452380Y67809523D01*
X155500000Y67666666D01*
X155547619Y67619047D01*
X156452380Y66666666D02*
X156452380Y67238095D01*
X156452380Y66952380D02*
X155452380Y66952380D01*
X155595238Y67047619D01*
X155690476Y67142857D01*
X155738095Y67238095D01*
X156452380Y65714285D02*
X156452380Y66285714D01*
X156452380Y66000000D02*
X155452380Y66000000D01*
X155595238Y66095238D01*
X155690476Y66190476D01*
X155738095Y66285714D01*
X155785714Y64857142D02*
X156452380Y64857142D01*
X155404761Y65095238D02*
X156119047Y65333333D01*
X156119047Y64714285D01*
X185357142Y67619047D02*
X185404761Y67666666D01*
X185452380Y67809523D01*
X185452380Y67904761D01*
X185404761Y68047619D01*
X185309523Y68142857D01*
X185214285Y68190476D01*
X185023809Y68238095D01*
X184880952Y68238095D01*
X184690476Y68190476D01*
X184595238Y68142857D01*
X184500000Y68047619D01*
X184452380Y67904761D01*
X184452380Y67809523D01*
X184500000Y67666666D01*
X184547619Y67619047D01*
X185452380Y66666666D02*
X185452380Y67238095D01*
X185452380Y66952380D02*
X184452380Y66952380D01*
X184595238Y67047619D01*
X184690476Y67142857D01*
X184738095Y67238095D01*
X185452380Y65714285D02*
X185452380Y66285714D01*
X185452380Y66000000D02*
X184452380Y66000000D01*
X184595238Y66095238D01*
X184690476Y66190476D01*
X184738095Y66285714D01*
X184452380Y64809523D02*
X184452380Y65285714D01*
X184928571Y65333333D01*
X184880952Y65285714D01*
X184833333Y65190476D01*
X184833333Y64952380D01*
X184880952Y64857142D01*
X184928571Y64809523D01*
X185023809Y64761904D01*
X185261904Y64761904D01*
X185357142Y64809523D01*
X185404761Y64857142D01*
X185452380Y64952380D01*
X185452380Y65190476D01*
X185404761Y65285714D01*
X185357142Y65333333D01*
X179357142Y67619047D02*
X179404761Y67666666D01*
X179452380Y67809523D01*
X179452380Y67904761D01*
X179404761Y68047619D01*
X179309523Y68142857D01*
X179214285Y68190476D01*
X179023809Y68238095D01*
X178880952Y68238095D01*
X178690476Y68190476D01*
X178595238Y68142857D01*
X178500000Y68047619D01*
X178452380Y67904761D01*
X178452380Y67809523D01*
X178500000Y67666666D01*
X178547619Y67619047D01*
X179452380Y66666666D02*
X179452380Y67238095D01*
X179452380Y66952380D02*
X178452380Y66952380D01*
X178595238Y67047619D01*
X178690476Y67142857D01*
X178738095Y67238095D01*
X179452380Y65714285D02*
X179452380Y66285714D01*
X179452380Y66000000D02*
X178452380Y66000000D01*
X178595238Y66095238D01*
X178690476Y66190476D01*
X178738095Y66285714D01*
X178452380Y64857142D02*
X178452380Y65047619D01*
X178500000Y65142857D01*
X178547619Y65190476D01*
X178690476Y65285714D01*
X178880952Y65333333D01*
X179261904Y65333333D01*
X179357142Y65285714D01*
X179404761Y65238095D01*
X179452380Y65142857D01*
X179452380Y64952380D01*
X179404761Y64857142D01*
X179357142Y64809523D01*
X179261904Y64761904D01*
X179023809Y64761904D01*
X178928571Y64809523D01*
X178880952Y64857142D01*
X178833333Y64952380D01*
X178833333Y65142857D01*
X178880952Y65238095D01*
X178928571Y65285714D01*
X179023809Y65333333D01*
X118552380Y67619047D02*
X118076190Y67952380D01*
X118552380Y68190476D02*
X117552380Y68190476D01*
X117552380Y67809523D01*
X117600000Y67714285D01*
X117647619Y67666666D01*
X117742857Y67619047D01*
X117885714Y67619047D01*
X117980952Y67666666D01*
X118028571Y67714285D01*
X118076190Y67809523D01*
X118076190Y68190476D01*
X118552380Y66666666D02*
X118552380Y67238095D01*
X118552380Y66952380D02*
X117552380Y66952380D01*
X117695238Y67047619D01*
X117790476Y67142857D01*
X117838095Y67238095D01*
X118552380Y65714285D02*
X118552380Y66285714D01*
X118552380Y66000000D02*
X117552380Y66000000D01*
X117695238Y66095238D01*
X117790476Y66190476D01*
X117838095Y66285714D01*
X117552380Y65380952D02*
X117552380Y64714285D01*
X118552380Y65142857D01*
X114452380Y67619047D02*
X113976190Y67952380D01*
X114452380Y68190476D02*
X113452380Y68190476D01*
X113452380Y67809523D01*
X113500000Y67714285D01*
X113547619Y67666666D01*
X113642857Y67619047D01*
X113785714Y67619047D01*
X113880952Y67666666D01*
X113928571Y67714285D01*
X113976190Y67809523D01*
X113976190Y68190476D01*
X114452380Y66666666D02*
X114452380Y67238095D01*
X114452380Y66952380D02*
X113452380Y66952380D01*
X113595238Y67047619D01*
X113690476Y67142857D01*
X113738095Y67238095D01*
X114452380Y65714285D02*
X114452380Y66285714D01*
X114452380Y66000000D02*
X113452380Y66000000D01*
X113595238Y66095238D01*
X113690476Y66190476D01*
X113738095Y66285714D01*
X113880952Y65142857D02*
X113833333Y65238095D01*
X113785714Y65285714D01*
X113690476Y65333333D01*
X113642857Y65333333D01*
X113547619Y65285714D01*
X113500000Y65238095D01*
X113452380Y65142857D01*
X113452380Y64952380D01*
X113500000Y64857142D01*
X113547619Y64809523D01*
X113642857Y64761904D01*
X113690476Y64761904D01*
X113785714Y64809523D01*
X113833333Y64857142D01*
X113880952Y64952380D01*
X113880952Y65142857D01*
X113928571Y65238095D01*
X113976190Y65285714D01*
X114071428Y65333333D01*
X114261904Y65333333D01*
X114357142Y65285714D01*
X114404761Y65238095D01*
X114452380Y65142857D01*
X114452380Y64952380D01*
X114404761Y64857142D01*
X114357142Y64809523D01*
X114261904Y64761904D01*
X114071428Y64761904D01*
X113976190Y64809523D01*
X113928571Y64857142D01*
X113880952Y64952380D01*
X112452380Y67619047D02*
X111976190Y67952380D01*
X112452380Y68190476D02*
X111452380Y68190476D01*
X111452380Y67809523D01*
X111500000Y67714285D01*
X111547619Y67666666D01*
X111642857Y67619047D01*
X111785714Y67619047D01*
X111880952Y67666666D01*
X111928571Y67714285D01*
X111976190Y67809523D01*
X111976190Y68190476D01*
X112452380Y66666666D02*
X112452380Y67238095D01*
X112452380Y66952380D02*
X111452380Y66952380D01*
X111595238Y67047619D01*
X111690476Y67142857D01*
X111738095Y67238095D01*
X112452380Y65714285D02*
X112452380Y66285714D01*
X112452380Y66000000D02*
X111452380Y66000000D01*
X111595238Y66095238D01*
X111690476Y66190476D01*
X111738095Y66285714D01*
X112452380Y65238095D02*
X112452380Y65047619D01*
X112404761Y64952380D01*
X112357142Y64904761D01*
X112214285Y64809523D01*
X112023809Y64761904D01*
X111642857Y64761904D01*
X111547619Y64809523D01*
X111500000Y64857142D01*
X111452380Y64952380D01*
X111452380Y65142857D01*
X111500000Y65238095D01*
X111547619Y65285714D01*
X111642857Y65333333D01*
X111880952Y65333333D01*
X111976190Y65285714D01*
X112023809Y65238095D01*
X112071428Y65142857D01*
X112071428Y64952380D01*
X112023809Y64857142D01*
X111976190Y64809523D01*
X111880952Y64761904D01*
X108452380Y67619047D02*
X107976190Y67952380D01*
X108452380Y68190476D02*
X107452380Y68190476D01*
X107452380Y67809523D01*
X107500000Y67714285D01*
X107547619Y67666666D01*
X107642857Y67619047D01*
X107785714Y67619047D01*
X107880952Y67666666D01*
X107928571Y67714285D01*
X107976190Y67809523D01*
X107976190Y68190476D01*
X108452380Y66666666D02*
X108452380Y67238095D01*
X108452380Y66952380D02*
X107452380Y66952380D01*
X107595238Y67047619D01*
X107690476Y67142857D01*
X107738095Y67238095D01*
X107547619Y66285714D02*
X107500000Y66238095D01*
X107452380Y66142857D01*
X107452380Y65904761D01*
X107500000Y65809523D01*
X107547619Y65761904D01*
X107642857Y65714285D01*
X107738095Y65714285D01*
X107880952Y65761904D01*
X108452380Y66333333D01*
X108452380Y65714285D01*
X107452380Y65095238D02*
X107452380Y65000000D01*
X107500000Y64904761D01*
X107547619Y64857142D01*
X107642857Y64809523D01*
X107833333Y64761904D01*
X108071428Y64761904D01*
X108261904Y64809523D01*
X108357142Y64857142D01*
X108404761Y64904761D01*
X108452380Y65000000D01*
X108452380Y65095238D01*
X108404761Y65190476D01*
X108357142Y65238095D01*
X108261904Y65285714D01*
X108071428Y65333333D01*
X107833333Y65333333D01*
X107642857Y65285714D01*
X107547619Y65238095D01*
X107500000Y65190476D01*
X107452380Y65095238D01*
X141452380Y67619047D02*
X140976190Y67952380D01*
X141452380Y68190476D02*
X140452380Y68190476D01*
X140452380Y67809523D01*
X140500000Y67714285D01*
X140547619Y67666666D01*
X140642857Y67619047D01*
X140785714Y67619047D01*
X140880952Y67666666D01*
X140928571Y67714285D01*
X140976190Y67809523D01*
X140976190Y68190476D01*
X141452380Y66666666D02*
X141452380Y67238095D01*
X141452380Y66952380D02*
X140452380Y66952380D01*
X140595238Y67047619D01*
X140690476Y67142857D01*
X140738095Y67238095D01*
X140547619Y66285714D02*
X140500000Y66238095D01*
X140452380Y66142857D01*
X140452380Y65904761D01*
X140500000Y65809523D01*
X140547619Y65761904D01*
X140642857Y65714285D01*
X140738095Y65714285D01*
X140880952Y65761904D01*
X141452380Y66333333D01*
X141452380Y65714285D01*
X141452380Y64761904D02*
X141452380Y65333333D01*
X141452380Y65047619D02*
X140452380Y65047619D01*
X140595238Y65142857D01*
X140690476Y65238095D01*
X140738095Y65333333D01*
X137452380Y67619047D02*
X136976190Y67952380D01*
X137452380Y68190476D02*
X136452380Y68190476D01*
X136452380Y67809523D01*
X136500000Y67714285D01*
X136547619Y67666666D01*
X136642857Y67619047D01*
X136785714Y67619047D01*
X136880952Y67666666D01*
X136928571Y67714285D01*
X136976190Y67809523D01*
X136976190Y68190476D01*
X137452380Y66666666D02*
X137452380Y67238095D01*
X137452380Y66952380D02*
X136452380Y66952380D01*
X136595238Y67047619D01*
X136690476Y67142857D01*
X136738095Y67238095D01*
X136547619Y66285714D02*
X136500000Y66238095D01*
X136452380Y66142857D01*
X136452380Y65904761D01*
X136500000Y65809523D01*
X136547619Y65761904D01*
X136642857Y65714285D01*
X136738095Y65714285D01*
X136880952Y65761904D01*
X137452380Y66333333D01*
X137452380Y65714285D01*
X136547619Y65333333D02*
X136500000Y65285714D01*
X136452380Y65190476D01*
X136452380Y64952380D01*
X136500000Y64857142D01*
X136547619Y64809523D01*
X136642857Y64761904D01*
X136738095Y64761904D01*
X136880952Y64809523D01*
X137452380Y65380952D01*
X137452380Y64761904D01*
X135452380Y67619047D02*
X134976190Y67952380D01*
X135452380Y68190476D02*
X134452380Y68190476D01*
X134452380Y67809523D01*
X134500000Y67714285D01*
X134547619Y67666666D01*
X134642857Y67619047D01*
X134785714Y67619047D01*
X134880952Y67666666D01*
X134928571Y67714285D01*
X134976190Y67809523D01*
X134976190Y68190476D01*
X135452380Y66666666D02*
X135452380Y67238095D01*
X135452380Y66952380D02*
X134452380Y66952380D01*
X134595238Y67047619D01*
X134690476Y67142857D01*
X134738095Y67238095D01*
X134547619Y66285714D02*
X134500000Y66238095D01*
X134452380Y66142857D01*
X134452380Y65904761D01*
X134500000Y65809523D01*
X134547619Y65761904D01*
X134642857Y65714285D01*
X134738095Y65714285D01*
X134880952Y65761904D01*
X135452380Y66333333D01*
X135452380Y65714285D01*
X134452380Y65380952D02*
X134452380Y64761904D01*
X134833333Y65095238D01*
X134833333Y64952380D01*
X134880952Y64857142D01*
X134928571Y64809523D01*
X135023809Y64761904D01*
X135261904Y64761904D01*
X135357142Y64809523D01*
X135404761Y64857142D01*
X135452380Y64952380D01*
X135452380Y65238095D01*
X135404761Y65333333D01*
X135357142Y65380952D01*
X131552380Y67619047D02*
X131076190Y67952380D01*
X131552380Y68190476D02*
X130552380Y68190476D01*
X130552380Y67809523D01*
X130600000Y67714285D01*
X130647619Y67666666D01*
X130742857Y67619047D01*
X130885714Y67619047D01*
X130980952Y67666666D01*
X131028571Y67714285D01*
X131076190Y67809523D01*
X131076190Y68190476D01*
X131552380Y66666666D02*
X131552380Y67238095D01*
X131552380Y66952380D02*
X130552380Y66952380D01*
X130695238Y67047619D01*
X130790476Y67142857D01*
X130838095Y67238095D01*
X130647619Y66285714D02*
X130600000Y66238095D01*
X130552380Y66142857D01*
X130552380Y65904761D01*
X130600000Y65809523D01*
X130647619Y65761904D01*
X130742857Y65714285D01*
X130838095Y65714285D01*
X130980952Y65761904D01*
X131552380Y66333333D01*
X131552380Y65714285D01*
X130885714Y64857142D02*
X131552380Y64857142D01*
X130504761Y65095238D02*
X131219047Y65333333D01*
X131219047Y64714285D01*
X164552380Y67619047D02*
X164076190Y67952380D01*
X164552380Y68190476D02*
X163552380Y68190476D01*
X163552380Y67809523D01*
X163600000Y67714285D01*
X163647619Y67666666D01*
X163742857Y67619047D01*
X163885714Y67619047D01*
X163980952Y67666666D01*
X164028571Y67714285D01*
X164076190Y67809523D01*
X164076190Y68190476D01*
X164552380Y66666666D02*
X164552380Y67238095D01*
X164552380Y66952380D02*
X163552380Y66952380D01*
X163695238Y67047619D01*
X163790476Y67142857D01*
X163838095Y67238095D01*
X163647619Y66285714D02*
X163600000Y66238095D01*
X163552380Y66142857D01*
X163552380Y65904761D01*
X163600000Y65809523D01*
X163647619Y65761904D01*
X163742857Y65714285D01*
X163838095Y65714285D01*
X163980952Y65761904D01*
X164552380Y66333333D01*
X164552380Y65714285D01*
X163552380Y64809523D02*
X163552380Y65285714D01*
X164028571Y65333333D01*
X163980952Y65285714D01*
X163933333Y65190476D01*
X163933333Y64952380D01*
X163980952Y64857142D01*
X164028571Y64809523D01*
X164123809Y64761904D01*
X164361904Y64761904D01*
X164457142Y64809523D01*
X164504761Y64857142D01*
X164552380Y64952380D01*
X164552380Y65190476D01*
X164504761Y65285714D01*
X164457142Y65333333D01*
X160552380Y67619047D02*
X160076190Y67952380D01*
X160552380Y68190476D02*
X159552380Y68190476D01*
X159552380Y67809523D01*
X159600000Y67714285D01*
X159647619Y67666666D01*
X159742857Y67619047D01*
X159885714Y67619047D01*
X159980952Y67666666D01*
X160028571Y67714285D01*
X160076190Y67809523D01*
X160076190Y68190476D01*
X160552380Y66666666D02*
X160552380Y67238095D01*
X160552380Y66952380D02*
X159552380Y66952380D01*
X159695238Y67047619D01*
X159790476Y67142857D01*
X159838095Y67238095D01*
X159647619Y66285714D02*
X159600000Y66238095D01*
X159552380Y66142857D01*
X159552380Y65904761D01*
X159600000Y65809523D01*
X159647619Y65761904D01*
X159742857Y65714285D01*
X159838095Y65714285D01*
X159980952Y65761904D01*
X160552380Y66333333D01*
X160552380Y65714285D01*
X159552380Y64857142D02*
X159552380Y65047619D01*
X159600000Y65142857D01*
X159647619Y65190476D01*
X159790476Y65285714D01*
X159980952Y65333333D01*
X160361904Y65333333D01*
X160457142Y65285714D01*
X160504761Y65238095D01*
X160552380Y65142857D01*
X160552380Y64952380D01*
X160504761Y64857142D01*
X160457142Y64809523D01*
X160361904Y64761904D01*
X160123809Y64761904D01*
X160028571Y64809523D01*
X159980952Y64857142D01*
X159933333Y64952380D01*
X159933333Y65142857D01*
X159980952Y65238095D01*
X160028571Y65285714D01*
X160123809Y65333333D01*
X158452380Y67619047D02*
X157976190Y67952380D01*
X158452380Y68190476D02*
X157452380Y68190476D01*
X157452380Y67809523D01*
X157500000Y67714285D01*
X157547619Y67666666D01*
X157642857Y67619047D01*
X157785714Y67619047D01*
X157880952Y67666666D01*
X157928571Y67714285D01*
X157976190Y67809523D01*
X157976190Y68190476D01*
X158452380Y66666666D02*
X158452380Y67238095D01*
X158452380Y66952380D02*
X157452380Y66952380D01*
X157595238Y67047619D01*
X157690476Y67142857D01*
X157738095Y67238095D01*
X157547619Y66285714D02*
X157500000Y66238095D01*
X157452380Y66142857D01*
X157452380Y65904761D01*
X157500000Y65809523D01*
X157547619Y65761904D01*
X157642857Y65714285D01*
X157738095Y65714285D01*
X157880952Y65761904D01*
X158452380Y66333333D01*
X158452380Y65714285D01*
X157452380Y65380952D02*
X157452380Y64714285D01*
X158452380Y65142857D01*
X154552380Y67619047D02*
X154076190Y67952380D01*
X154552380Y68190476D02*
X153552380Y68190476D01*
X153552380Y67809523D01*
X153600000Y67714285D01*
X153647619Y67666666D01*
X153742857Y67619047D01*
X153885714Y67619047D01*
X153980952Y67666666D01*
X154028571Y67714285D01*
X154076190Y67809523D01*
X154076190Y68190476D01*
X154552380Y66666666D02*
X154552380Y67238095D01*
X154552380Y66952380D02*
X153552380Y66952380D01*
X153695238Y67047619D01*
X153790476Y67142857D01*
X153838095Y67238095D01*
X153647619Y66285714D02*
X153600000Y66238095D01*
X153552380Y66142857D01*
X153552380Y65904761D01*
X153600000Y65809523D01*
X153647619Y65761904D01*
X153742857Y65714285D01*
X153838095Y65714285D01*
X153980952Y65761904D01*
X154552380Y66333333D01*
X154552380Y65714285D01*
X153980952Y65142857D02*
X153933333Y65238095D01*
X153885714Y65285714D01*
X153790476Y65333333D01*
X153742857Y65333333D01*
X153647619Y65285714D01*
X153600000Y65238095D01*
X153552380Y65142857D01*
X153552380Y64952380D01*
X153600000Y64857142D01*
X153647619Y64809523D01*
X153742857Y64761904D01*
X153790476Y64761904D01*
X153885714Y64809523D01*
X153933333Y64857142D01*
X153980952Y64952380D01*
X153980952Y65142857D01*
X154028571Y65238095D01*
X154076190Y65285714D01*
X154171428Y65333333D01*
X154361904Y65333333D01*
X154457142Y65285714D01*
X154504761Y65238095D01*
X154552380Y65142857D01*
X154552380Y64952380D01*
X154504761Y64857142D01*
X154457142Y64809523D01*
X154361904Y64761904D01*
X154171428Y64761904D01*
X154076190Y64809523D01*
X154028571Y64857142D01*
X153980952Y64952380D01*
X187452380Y67619047D02*
X186976190Y67952380D01*
X187452380Y68190476D02*
X186452380Y68190476D01*
X186452380Y67809523D01*
X186500000Y67714285D01*
X186547619Y67666666D01*
X186642857Y67619047D01*
X186785714Y67619047D01*
X186880952Y67666666D01*
X186928571Y67714285D01*
X186976190Y67809523D01*
X186976190Y68190476D01*
X187452380Y66666666D02*
X187452380Y67238095D01*
X187452380Y66952380D02*
X186452380Y66952380D01*
X186595238Y67047619D01*
X186690476Y67142857D01*
X186738095Y67238095D01*
X186547619Y66285714D02*
X186500000Y66238095D01*
X186452380Y66142857D01*
X186452380Y65904761D01*
X186500000Y65809523D01*
X186547619Y65761904D01*
X186642857Y65714285D01*
X186738095Y65714285D01*
X186880952Y65761904D01*
X187452380Y66333333D01*
X187452380Y65714285D01*
X187452380Y65238095D02*
X187452380Y65047619D01*
X187404761Y64952380D01*
X187357142Y64904761D01*
X187214285Y64809523D01*
X187023809Y64761904D01*
X186642857Y64761904D01*
X186547619Y64809523D01*
X186500000Y64857142D01*
X186452380Y64952380D01*
X186452380Y65142857D01*
X186500000Y65238095D01*
X186547619Y65285714D01*
X186642857Y65333333D01*
X186880952Y65333333D01*
X186976190Y65285714D01*
X187023809Y65238095D01*
X187071428Y65142857D01*
X187071428Y64952380D01*
X187023809Y64857142D01*
X186976190Y64809523D01*
X186880952Y64761904D01*
X183452380Y67619047D02*
X182976190Y67952380D01*
X183452380Y68190476D02*
X182452380Y68190476D01*
X182452380Y67809523D01*
X182500000Y67714285D01*
X182547619Y67666666D01*
X182642857Y67619047D01*
X182785714Y67619047D01*
X182880952Y67666666D01*
X182928571Y67714285D01*
X182976190Y67809523D01*
X182976190Y68190476D01*
X183452380Y66666666D02*
X183452380Y67238095D01*
X183452380Y66952380D02*
X182452380Y66952380D01*
X182595238Y67047619D01*
X182690476Y67142857D01*
X182738095Y67238095D01*
X182452380Y66333333D02*
X182452380Y65714285D01*
X182833333Y66047619D01*
X182833333Y65904761D01*
X182880952Y65809523D01*
X182928571Y65761904D01*
X183023809Y65714285D01*
X183261904Y65714285D01*
X183357142Y65761904D01*
X183404761Y65809523D01*
X183452380Y65904761D01*
X183452380Y66190476D01*
X183404761Y66285714D01*
X183357142Y66333333D01*
X182452380Y65095238D02*
X182452380Y65000000D01*
X182500000Y64904761D01*
X182547619Y64857142D01*
X182642857Y64809523D01*
X182833333Y64761904D01*
X183071428Y64761904D01*
X183261904Y64809523D01*
X183357142Y64857142D01*
X183404761Y64904761D01*
X183452380Y65000000D01*
X183452380Y65095238D01*
X183404761Y65190476D01*
X183357142Y65238095D01*
X183261904Y65285714D01*
X183071428Y65333333D01*
X182833333Y65333333D01*
X182642857Y65285714D01*
X182547619Y65238095D01*
X182500000Y65190476D01*
X182452380Y65095238D01*
X181452380Y67619047D02*
X180976190Y67952380D01*
X181452380Y68190476D02*
X180452380Y68190476D01*
X180452380Y67809523D01*
X180500000Y67714285D01*
X180547619Y67666666D01*
X180642857Y67619047D01*
X180785714Y67619047D01*
X180880952Y67666666D01*
X180928571Y67714285D01*
X180976190Y67809523D01*
X180976190Y68190476D01*
X181452380Y66666666D02*
X181452380Y67238095D01*
X181452380Y66952380D02*
X180452380Y66952380D01*
X180595238Y67047619D01*
X180690476Y67142857D01*
X180738095Y67238095D01*
X180452380Y66333333D02*
X180452380Y65714285D01*
X180833333Y66047619D01*
X180833333Y65904761D01*
X180880952Y65809523D01*
X180928571Y65761904D01*
X181023809Y65714285D01*
X181261904Y65714285D01*
X181357142Y65761904D01*
X181404761Y65809523D01*
X181452380Y65904761D01*
X181452380Y66190476D01*
X181404761Y66285714D01*
X181357142Y66333333D01*
X181452380Y64761904D02*
X181452380Y65333333D01*
X181452380Y65047619D02*
X180452380Y65047619D01*
X180595238Y65142857D01*
X180690476Y65238095D01*
X180738095Y65333333D01*
X177552380Y67619047D02*
X177076190Y67952380D01*
X177552380Y68190476D02*
X176552380Y68190476D01*
X176552380Y67809523D01*
X176600000Y67714285D01*
X176647619Y67666666D01*
X176742857Y67619047D01*
X176885714Y67619047D01*
X176980952Y67666666D01*
X177028571Y67714285D01*
X177076190Y67809523D01*
X177076190Y68190476D01*
X177552380Y66666666D02*
X177552380Y67238095D01*
X177552380Y66952380D02*
X176552380Y66952380D01*
X176695238Y67047619D01*
X176790476Y67142857D01*
X176838095Y67238095D01*
X176552380Y66333333D02*
X176552380Y65714285D01*
X176933333Y66047619D01*
X176933333Y65904761D01*
X176980952Y65809523D01*
X177028571Y65761904D01*
X177123809Y65714285D01*
X177361904Y65714285D01*
X177457142Y65761904D01*
X177504761Y65809523D01*
X177552380Y65904761D01*
X177552380Y66190476D01*
X177504761Y66285714D01*
X177457142Y66333333D01*
X176647619Y65333333D02*
X176600000Y65285714D01*
X176552380Y65190476D01*
X176552380Y64952380D01*
X176600000Y64857142D01*
X176647619Y64809523D01*
X176742857Y64761904D01*
X176838095Y64761904D01*
X176980952Y64809523D01*
X177552380Y65380952D01*
X177552380Y64761904D01*
M02*
