M48
INCH,TZ
T1C0.0118
T2C0.0400
T3C0.0472
T4C0.0630
%
G90
G05
T1
X8661Y28268
X9449Y28268
X11024Y28268
X11811Y28268
X17717Y28307
X20866Y28268
X21654Y28268
X23622Y28268
X24409Y28268
X27559Y28268
X28346Y28268
X33425Y28268
X34213Y28268
X35827Y28268
X36614Y28268
X42520Y28268
X43307Y28268
X44882Y28268
X45669Y28268
X51575Y28268
X52362Y28268
X53937Y28268
X54724Y28268
X60630Y28268
X61417Y28268
X62992Y28268
X63780Y28268
X69685Y28268
X70472Y28268
X72047Y28268
X72835Y28268
T2
X21150Y23701
X21150Y22701
X22150Y23701
X22150Y22701
X23150Y23701
X23150Y22701
X24150Y23701
X24150Y22701
X25150Y23701
X25150Y22701
X26150Y23701
X26150Y22701
X27150Y23701
X27150Y22701
X28150Y23701
X28150Y22701
X29150Y23701
X29150Y22701
X30150Y23701
X30150Y22701
X31150Y23701
X31150Y22701
X32150Y23701
X32150Y22701
X33150Y23701
X33150Y22701
T3
X44094Y28681
X26024Y28681
X7874Y28681
X53150Y28681
X71260Y28681
X16969Y28681
X62205Y28681
X35039Y28681
T4
X24524Y33933
X24524Y30433
X27524Y31933
X27524Y30183
X6374Y33933
X6374Y30433
X9374Y31933
X9374Y30183
X33539Y33933
X33539Y30433
X36539Y31933
X36539Y30183
X51650Y33933
X51650Y30433
X54650Y31933
X54650Y30183
X69760Y33933
X42594Y33933
X42594Y30433
X45594Y31933
X45594Y30183
X69760Y30433
X60705Y30433
X63705Y30183
X18469Y30183
X60705Y33933
X63705Y31933
X72760Y31933
X72760Y30183
X15469Y33933
X15469Y30433
X18469Y31933
T0
M30
