G04 #@! TF.GenerationSoftware,KiCad,Pcbnew,(5.1.0-0)*
G04 #@! TF.CreationDate,2019-06-11T18:16:09+02:00*
G04 #@! TF.ProjectId,AddOnB,4164644f-6e42-42e6-9b69-6361645f7063,rev?*
G04 #@! TF.SameCoordinates,Original*
G04 #@! TF.FileFunction,Paste,Bot*
G04 #@! TF.FilePolarity,Positive*
%FSLAX46Y46*%
G04 Gerber Fmt 4.6, Leading zero omitted, Abs format (unit mm)*
G04 Created by KiCad (PCBNEW (5.1.0-0)) date 2019-06-11 18:16:09*
%MOMM*%
%LPD*%
G04 APERTURE LIST*
%ADD10R,1.300000X1.000000*%
%ADD11R,1.000000X1.300000*%
G04 APERTURE END LIST*
D10*
X26000000Y70900000D03*
X26000000Y69100000D03*
X30000000Y69100000D03*
X30000000Y70900000D03*
X20000000Y70900000D03*
X20000000Y69100000D03*
X24000000Y69100000D03*
X24000000Y70900000D03*
X51000000Y70900000D03*
X51000000Y69100000D03*
X55000000Y69100000D03*
X55000000Y70900000D03*
X41000000Y70900000D03*
X41000000Y69100000D03*
X45000000Y69100000D03*
X45000000Y70900000D03*
X74000000Y70900000D03*
X74000000Y69100000D03*
X70000000Y69100000D03*
X70000000Y70900000D03*
X64000000Y70900000D03*
X64000000Y69100000D03*
X60000000Y69100000D03*
X60000000Y70900000D03*
X95000000Y70900000D03*
X95000000Y69100000D03*
X91000000Y69100000D03*
X91000000Y70900000D03*
X89000000Y70900000D03*
X89000000Y69100000D03*
X84900000Y69100000D03*
X84900000Y70900000D03*
X28000000Y69100000D03*
X28000000Y70900000D03*
X22000000Y70900000D03*
X22000000Y69100000D03*
X53000000Y70900000D03*
X53000000Y69100000D03*
X43000000Y69100000D03*
X43000000Y70900000D03*
X72000000Y70900000D03*
X72000000Y69100000D03*
X62000000Y70900000D03*
X62000000Y69100000D03*
X93000000Y69100000D03*
X93000000Y70900000D03*
X86900000Y69100000D03*
X86900000Y70900000D03*
X116000000Y70900000D03*
X116000000Y69100000D03*
X110000000Y70900000D03*
X110000000Y69100000D03*
X139000000Y69100000D03*
X139000000Y70900000D03*
X133000000Y69100000D03*
X133000000Y70900000D03*
X162000000Y70900000D03*
X162000000Y69100000D03*
X156000000Y69100000D03*
X156000000Y70900000D03*
X185000000Y69100000D03*
X185000000Y70900000D03*
X179000000Y70900000D03*
X179000000Y69100000D03*
X118000000Y70900000D03*
X118000000Y69100000D03*
X114000000Y69100000D03*
X114000000Y70900000D03*
X112000000Y70900000D03*
X112000000Y69100000D03*
X108000000Y69100000D03*
X108000000Y70900000D03*
X141000000Y70900000D03*
X141000000Y69100000D03*
X137000000Y69100000D03*
X137000000Y70900000D03*
X135000000Y70900000D03*
X135000000Y69100000D03*
X131000000Y69100000D03*
X131000000Y70900000D03*
X164000000Y70900000D03*
X164000000Y69100000D03*
X160000000Y69100000D03*
X160000000Y70900000D03*
X158000000Y70900000D03*
X158000000Y69100000D03*
X154000000Y69100000D03*
X154000000Y70900000D03*
X187000000Y70900000D03*
X187000000Y69100000D03*
X183000000Y69100000D03*
X183000000Y70900000D03*
X181000000Y70900000D03*
X181000000Y69100000D03*
X177000000Y69100000D03*
X177000000Y70900000D03*
X34000000Y69100000D03*
X34000000Y70900000D03*
X36000000Y69100000D03*
X36000000Y70900000D03*
X32000000Y69100000D03*
X32000000Y70900000D03*
X49000000Y69100000D03*
X49000000Y70900000D03*
D11*
X48900000Y67200000D03*
X47100000Y67200000D03*
D10*
X47000000Y70900000D03*
X47000000Y69100000D03*
X68000000Y70900000D03*
X68000000Y69100000D03*
D11*
X66100000Y67200000D03*
X67900000Y67200000D03*
D10*
X66000000Y69100000D03*
X66000000Y70900000D03*
X82900000Y70900000D03*
X82900000Y69100000D03*
X78900000Y69100000D03*
X78900000Y70900000D03*
X80900000Y69100000D03*
X80900000Y70900000D03*
X106000000Y69100000D03*
X106000000Y70900000D03*
X102000000Y70900000D03*
X102000000Y69100000D03*
X104000000Y70900000D03*
X104000000Y69100000D03*
X129000000Y70900000D03*
X129000000Y69100000D03*
X125000000Y69100000D03*
X125000000Y70900000D03*
X127000000Y69100000D03*
X127000000Y70900000D03*
X152000000Y69100000D03*
X152000000Y70900000D03*
X148000000Y70900000D03*
X148000000Y69100000D03*
X150000000Y70900000D03*
X150000000Y69100000D03*
X175000000Y70900000D03*
X175000000Y69100000D03*
X171000000Y69100000D03*
X171000000Y70900000D03*
X173000000Y69100000D03*
X173000000Y70900000D03*
M02*
