M48
INCH
T1C0.0118
T2C0.0197
T3C0.0315
T4C0.0394
T5C0.0400
T6C0.0433
T7C0.0472
T8C0.0591
T9C0.1260
T10C0.0433
%
G90
G05
T1
X4.0079Y-2.937
X4.0079Y-2.9921
X4.0079Y-3.4173
X4.0079Y-3.9094
X4.0118Y-2.0039
X4.0433Y-2.1417
X4.0433Y-2.2795
X4.0433Y-2.3819
X4.0433Y-2.5394
X4.0433Y-2.6339
X4.0433Y-2.7992
X4.0433Y-3.1299
X4.0433Y-3.2717
X4.0433Y-3.5354
X4.0433Y-3.6299
X4.0433Y-3.7638
X4.0433Y-3.7638
X4.1535Y-2.2776
X4.1535Y-2.3465
X4.1535Y-2.7717
X4.1535Y-2.8366
X4.1535Y-3.2717
X4.1535Y-3.3346
X4.2008Y-2.5276
X4.2008Y-3.0236
X4.2008Y-3.5551
X4.2047Y-2.0354
X4.2244Y-2.563
X4.2244Y-3.0551
X4.2283Y-5.315
X4.2284Y-2.063
X4.2323Y-4.3228
X4.2323Y-4.8189
X4.2402Y-4.8661
X4.2402Y-4.9291
X4.2402Y-5.0315
X4.2402Y-5.0945
X4.2441Y-5.3622
X4.2441Y-4.3701
X4.2441Y-5.5906
X4.2441Y-4.4331
X4.2441Y-4.5354
X4.2441Y-4.5984
X4.2441Y-5.4252
X4.2441Y-5.5276
X4.252Y-2.1102
X4.252Y-2.3425
X4.252Y-2.6063
X4.252Y-2.8386
X4.252Y-3.1024
X4.252Y-3.3346
X4.252Y-3.4173
X4.252Y-3.5984
X4.2638Y-5.811
X4.2717Y-4.8661
X4.2717Y-4.9291
X4.2717Y-5.0315
X4.2717Y-5.0945
X4.2756Y-4.3701
X4.2756Y-4.4331
X4.2756Y-4.5354
X4.2756Y-4.5984
X4.2756Y-5.3622
X4.2756Y-5.4252
X4.2756Y-5.5276
X4.2756Y-5.5906
X4.3504Y-4.5984
X4.3504Y-5.0945
X4.3504Y-5.5906
X4.3976Y-4.126
X4.3976Y-4.622
X4.3976Y-5.1181
X4.3976Y-5.6142
X4.4331Y-2.063
X4.4331Y-2.563
X4.4331Y-3.0551
X4.4331Y-3.5551
X4.4331Y-4.8189
X4.4331Y-5.315
X4.4331Y-5.811
X4.437Y-2.1102
X4.437Y-2.6063
X4.437Y-3.1024
X4.437Y-3.5984
X4.437Y-4.3228
X4.4567Y-1.7943
X4.4567Y-1.874
X4.4567Y-2.3701
X4.4567Y-2.8661
X4.4567Y-3.3622
X4.4685Y-4.622
X4.4685Y-5.1181
X4.4685Y-5.6142
X4.5276Y-2.3701
X4.5276Y-2.8661
X4.5276Y-3.3622
X4.5563Y-4.8729
X4.5563Y-5.865
X4.5568Y-4.3767
X4.5568Y-5.3688
X4.563Y-1.874
X4.5787Y-2.8386
X4.5794Y-2.3431
X4.5816Y-3.3346
X4.6063Y-2.6181
X4.6063Y-3.1142
X4.6065Y-2.122
X4.6065Y-3.6102
X4.6077Y-5.2652
X4.6116Y-4.7652
X4.6116Y-5.7573
X4.622Y-2.0118
X4.622Y-2.5079
X4.622Y-3.0039
X4.622Y-3.5
X4.622Y-4.2874
X4.6339Y-4.4291
X4.6358Y-4.9252
X4.6358Y-5.4213
X4.6358Y-5.9173
X4.7598Y-1.8898
X4.7598Y-2.3898
X4.7598Y-2.8819
X4.7598Y-3.3819
X4.7598Y-4.2205
X4.7598Y-4.4252
X4.7598Y-4.7165
X4.7598Y-4.9213
X4.7598Y-5.2126
X4.7598Y-5.4173
X4.7598Y-5.7087
X4.7598Y-5.9134
X4.7835Y-4.0984
X4.8052Y-2.3425
X4.8061Y-1.7943
X4.8068Y-1.8664
X4.8071Y-2.8386
X4.8071Y-3.3346
X4.8106Y-2.1772
X4.811Y-2.248
X4.815Y-3.5512
X4.815Y-2.063
X4.815Y-2.5591
X4.815Y-3.0551
X4.815Y-3.1654
X4.815Y-3.248
X4.8189Y-2.6772
X4.8189Y-2.7441
X4.8307Y-4.1457
X4.8701Y-2.3425
X4.872Y-2.8386
X4.872Y-3.3346
X4.8937Y-2.063
X4.8937Y-2.5591
X4.8937Y-3.0551
X4.8937Y-3.5512
X4.8964Y-3.765
X4.8964Y-3.8307
X4.8976Y-4.0984
X4.9094Y-3.6181
X4.9094Y-4.5354
X4.9094Y-5.0315
X4.9094Y-5.5276
X4.9134Y-3.5157
X4.9606Y-2.0354
X4.9606Y-2.5315
X4.9606Y-3.0276
X4.9803Y-4.3228
X4.9843Y-2.063
X4.9843Y-2.5591
X4.9843Y-3.0551
X4.9843Y-3.5512
X4.9843Y-3.7677
X4.9843Y-3.8622
X4.9843Y-4.8189
X4.9843Y-5.315
X4.9862Y-4.0335
X4.9862Y-4.1299
X4.9961Y-3.6102
X5.0Y-4.8661
X5.0Y-5.3622
X5.0Y-4.3701
X5.0Y-4.4331
X5.0Y-4.5354
X5.0Y-4.5984
X5.0Y-4.9291
X5.0Y-5.0315
X5.0Y-5.0945
X5.0Y-5.4252
X5.0Y-5.5236
X5.0Y-5.5906
X5.0079Y-2.1102
X5.0079Y-2.6063
X5.0079Y-3.1024
X5.0157Y-5.811
X5.0315Y-4.3701
X5.0315Y-4.4331
X5.0315Y-4.5354
X5.0315Y-4.5984
X5.0315Y-4.8661
X5.0315Y-4.9291
X5.0315Y-5.0315
X5.0315Y-5.0945
X5.0315Y-5.3622
X5.0315Y-5.4252
X5.0315Y-5.5276
X5.0315Y-5.5906
X5.1102Y-5.0945
X5.1102Y-5.5906
X5.1142Y-4.5984
X5.1143Y-4.0984
X5.1417Y-4.0354
X5.1535Y-4.126
X5.1535Y-4.622
X5.1535Y-5.1181
X5.1535Y-5.6142
X5.1732Y-2.8386
X5.1732Y-3.3346
X5.1752Y-2.3425
X5.189Y-2.063
X5.189Y-2.5591
X5.189Y-3.0551
X5.189Y-3.5512
X5.189Y-4.8189
X5.189Y-5.811
X5.1929Y-2.1102
X5.1929Y-2.6063
X5.1929Y-3.1024
X5.1929Y-3.5984
X5.1929Y-3.748
X5.1929Y-4.3228
X5.1929Y-5.315
X5.2244Y-4.126
X5.2244Y-4.622
X5.2244Y-5.1181
X5.2244Y-5.6142
X5.2545Y-3.912
X5.2835Y-1.874
X5.3127Y-4.3767
X5.3127Y-5.3688
X5.3132Y-4.8723
X5.3132Y-5.8644
X5.3184Y-2.374
X5.3184Y-2.8701
X5.3189Y-3.3622
X5.3228Y-2.3425
X5.3228Y-2.8386
X5.3228Y-3.3307
X5.3622Y-2.6181
X5.3622Y-3.1142
X5.3624Y-2.122
X5.3624Y-3.6102
X5.3656Y-4.7671
X5.3656Y-5.2632
X5.3656Y-5.7593
X5.3661Y-4.2717
X5.378Y-2.0118
X5.378Y-2.5079
X5.378Y-3.0039
X5.378Y-3.5
X5.3917Y-4.4291
X5.3917Y-4.9252
X5.3917Y-5.4213
X5.3917Y-5.9173
X5.4094Y-5.5906
X5.5Y-3.9685
X5.5048Y-2.8386
X5.5128Y-2.3425
X5.5157Y-1.8898
X5.5157Y-2.3858
X5.5157Y-2.8819
X5.5157Y-3.378
X5.5157Y-4.2205
X5.5157Y-4.4252
X5.5157Y-4.7165
X5.5157Y-4.9213
X5.5157Y-5.2126
X5.5157Y-5.4173
X5.5157Y-5.7087
X5.5157Y-5.9134
X5.5591Y-2.8031
X5.5705Y-3.0004
X5.5709Y-1.8258
X5.579Y-5.5515
X5.5827Y-5.9882
X5.5944Y-2.3423
X5.6017Y-2.9425
X5.6457Y-5.5512
X5.6772Y-4.2008
X5.6811Y-3.2461
X5.6811Y-3.3091
X5.7205Y-3.3858
X5.7598Y-3.5098
X5.7835Y-3.3858
X5.7913Y-5.7913
X5.7919Y-5.1176
X5.8268Y-3.0433
X5.8268Y-4.2402
X5.8268Y-4.3189
X5.8268Y-4.3661
X5.8425Y-2.9567
X5.8425Y-3.2008
X5.8425Y-5.2835
X5.8587Y-4.4689
X5.8661Y-5.1575
X5.8819Y-4.6142
X5.8898Y-5.8307
X5.8976Y-3.6811
X5.8976Y-4.1634
X5.8976Y-4.2402
X5.8976Y-4.3189
X5.8976Y-4.4016
X5.9055Y-3.0433
X5.9213Y-5.2835
X5.9591Y-3.7419
X5.9606Y-4.6142
X5.9646Y-3.4311
X5.9646Y-3.6024
X5.9646Y-3.7992
X5.9646Y-3.8937
X5.9646Y-4.0197
X5.9646Y-4.1142
X6.0079Y-2.189
X6.0079Y-2.3976
X6.0217Y-5.3205
X6.0236Y-5.6063
X6.0236Y-5.685
X6.0354Y-3.6024
X6.0354Y-3.7992
X6.0354Y-3.8937
X6.0354Y-4.0197
X6.0354Y-4.3189
X6.0534Y-2.9983
X6.0534Y-3.0376
X6.0534Y-3.077
X6.0534Y-3.1164
X6.0534Y-3.1558
X6.0645Y-5.3205
X6.0669Y-5.9961
X6.0928Y-2.9983
X6.0928Y-3.0376
X6.0928Y-3.077
X6.0928Y-3.1164
X6.0928Y-3.1558
X6.0945Y-2.8898
X6.0945Y-3.2638
X6.1024Y-3.6811
X6.1024Y-4.2402
X6.1321Y-2.9983
X6.1321Y-3.0376
X6.1321Y-3.077
X6.1321Y-3.1164
X6.1321Y-3.1558
X6.1339Y-5.311
X6.1656Y-2.8701
X6.1715Y-2.9983
X6.1715Y-3.0376
X6.1715Y-3.077
X6.1715Y-3.1164
X6.1715Y-3.1558
X6.1732Y-3.5512
X6.1732Y-3.6811
X6.1732Y-3.8543
X6.1732Y-3.9055
X6.1732Y-3.9567
X6.1732Y-4.0079
X6.1732Y-4.0591
X6.1732Y-4.2402
X6.1732Y-4.3701
X6.1772Y-5.311
X6.1811Y-3.378
X6.2109Y-2.9983
X6.2109Y-3.0376
X6.2109Y-3.077
X6.2109Y-3.1164
X6.2109Y-3.1558
X6.2244Y-3.8543
X6.2244Y-3.9055
X6.2244Y-3.9567
X6.2244Y-4.0079
X6.2244Y-4.0591
X6.2362Y-4.4331
X6.2402Y-4.7244
X6.2476Y-4.2366
X6.252Y-4.5236
X6.2598Y-2.378
X6.2598Y-3.378
X6.2756Y-3.8543
X6.2756Y-3.9055
X6.2756Y-3.9567
X6.2756Y-4.0079
X6.2756Y-4.0591
X6.2809Y-2.9134
X6.2992Y-4.4331
X6.2992Y-4.5236
X6.3031Y-3.1024
X6.3031Y-3.1853
X6.3031Y-4.9646
X6.3031Y-5.0335
X6.3105Y-5.4101
X6.315Y-4.2835
X6.3268Y-3.8543
X6.3268Y-3.9055
X6.3268Y-3.9567
X6.3268Y-4.0079
X6.3268Y-4.0591
X6.3281Y-2.9134
X6.3425Y-4.9449
X6.3425Y-5.0787
X6.3504Y-4.7799
X6.354Y-3.0371
X6.3543Y-3.198
X6.3661Y-5.0472
X6.3661Y-4.9252
X6.3702Y-3.2252
X6.374Y-5.7087
X6.3755Y-4.8287
X6.378Y-3.8543
X6.378Y-3.9055
X6.378Y-3.9567
X6.378Y-4.0079
X6.378Y-4.0591
X6.378Y-4.6969
X6.378Y-3.063
X6.3819Y-4.7815
X6.3849Y-4.0994
X6.3898Y-4.9437
X6.3898Y-5.0787
X6.3937Y-4.2126
X6.3937Y-4.2835
X6.3976Y-3.3425
X6.4016Y-3.0866
X6.4016Y-3.2225
X6.4134Y-2.3071
X6.4134Y-4.6969
X6.4134Y-4.9252
X6.4134Y-5.0469
X6.4134Y-5.5787
X6.4163Y-4.7992
X6.4173Y-5.1598
X6.4173Y-5.2175
X6.4232Y-3.7343
X6.4376Y-4.9454
X6.4449Y-3.2913
X6.4488Y-4.5689
X6.4488Y-4.6319
X6.4488Y-5.146
X6.4488Y-5.2165
X6.4528Y-5.0374
X6.4646Y-5.7087
X6.4685Y-4.3307
X6.4724Y-4.1614
X6.4724Y-4.2835
X6.4724Y-4.7874
X6.4764Y-5.937
X6.4764Y-6.0157
X6.4882Y-4.7283
X6.4882Y-4.6811
X6.4961Y-3.8425
X6.4961Y-3.8898
X6.4961Y-3.937
X6.4961Y-4.0217
X6.5039Y-5.3858
X6.5118Y-3.063
X6.5118Y-3.1417
X6.5125Y-3.2237
X6.5181Y-4.2244
X6.5184Y-4.2717
X6.5276Y-2.7638
X6.5308Y-4.0727
X6.5335Y-3.8661
X6.5472Y-4.7244
X6.5472Y-4.7559
X6.5492Y-3.9134
X6.5512Y-5.3858
X6.5532Y-2.7382
X6.5591Y-2.8386
X6.5591Y-2.9783
X6.561Y-4.5709
X6.565Y-3.8228
X6.5669Y-2.7087
X6.5748Y-3.7913
X6.5787Y-3.0591
X6.5787Y-3.1496
X6.5846Y-3.6454
X6.5866Y-4.1378
X6.6004Y-3.6181
X6.6024Y-4.5394
X6.6024Y-4.6024
X6.6024Y-4.9545
X6.6063Y-6.0236
X6.6142Y-2.7087
X6.6181Y-3.3858
X6.6181Y-3.4646
X6.6181Y-4.6535
X6.6194Y-4.7539
X6.624Y-5.122
X6.624Y-5.2047
X6.624Y-5.2638
X6.624Y-5.3071
X6.624Y-5.3543
X6.624Y-5.4173
X6.624Y-5.4921
X6.6271Y-5.5759
X6.6299Y-3.0236
X6.6299Y-4.3307
X6.6378Y-2.9094
X6.6433Y-5.0213
X6.6457Y-4.5236
X6.6457Y-4.6024
X6.6496Y-5.5276
X6.6614Y-4.9134
X6.6673Y-3.6614
X6.6673Y-3.7165
X6.6673Y-5.122
X6.6673Y-5.2047
X6.6673Y-5.2638
X6.6673Y-5.3071
X6.6673Y-5.3543
X6.6673Y-5.4173
X6.6715Y-5.0125
X6.6772Y-2.9488
X6.6772Y-4.5236
X6.6772Y-4.6024
X6.6772Y-4.7756
X6.689Y-3.3858
X6.6909Y-3.8228
X6.6909Y-4.063
X6.7008Y-3.0236
X6.7067Y-3.7913
X6.7087Y-4.6024
X6.7126Y-4.9466
X6.7165Y-2.7953
X6.7165Y-2.8386
X6.7165Y-2.9724
X6.7244Y-3.8819
X6.7283Y-4.2244
X6.7323Y-4.9016
X6.7362Y-2.7638
X6.7382Y-3.6142
X6.7441Y-5.0125
X6.748Y-4.9453
X6.752Y-3.9134
X6.752Y-4.0276
X6.752Y-4.0787
X6.7559Y-2.6171
X6.7559Y-2.6837
X6.7598Y-3.6378
X6.7598Y-5.6417
X6.7618Y-3.7165
X6.7624Y-2.7402
X6.7638Y-3.4528
X6.7638Y-3.5236
X6.7657Y-2.9961
X6.7657Y-3.3898
X6.7756Y-5.0133
X6.7913Y-2.6181
X6.7913Y-2.685
X6.7953Y-2.8386
X6.7953Y-5.874
X6.7959Y-3.6699
X6.7992Y-3.0315
X6.7992Y-3.0787
X6.7992Y-3.3189
X6.7992Y-3.3543
X6.7992Y-4.8701
X6.7992Y-4.9016
X6.7992Y-5.0512
X6.7992Y-5.122
X6.7992Y-5.2638
X6.8126Y-5.3543
X6.8154Y-3.6337
X6.8228Y-2.7953
X6.8307Y-4.874
X6.8307Y-4.9232
X6.8307Y-5.0512
X6.8425Y-5.7146
X6.853Y-3.0223
X6.8575Y-5.2047
X6.8583Y-5.7795
X6.8622Y-5.0512
X6.8661Y-5.3071
X6.8686Y-5.6479
X6.8701Y-2.71
X6.874Y-3.3649
X6.874Y-3.4882
X6.8751Y-3.022
X6.877Y-4.9016
X6.878Y-3.8307
X6.878Y-5.5
X6.8807Y-5.4646
X6.8819Y-5.4173
X6.8839Y-3.1142
X6.8839Y-3.1535
X6.8839Y-3.1929
X6.8839Y-3.2323
X6.8839Y-3.2717
X6.8858Y-4.8701
X6.8976Y-5.6378
X6.9047Y-2.3878
X6.9055Y-2.2933
X6.9094Y-5.6713
X6.9094Y-5.7146
X6.9134Y-4.9528
X6.9142Y-3.5875
X6.9173Y-4.0787
X6.9232Y-3.1142
X6.9232Y-3.1535
X6.9232Y-3.1929
X6.9232Y-3.2323
X6.9232Y-3.2717
X6.9252Y-5.0512
X6.9291Y-5.5
X6.9409Y-2.71
X6.9409Y-4.0551
X6.9567Y-5.6732
X6.9567Y-5.7146
X6.9579Y-4.7283
X6.9591Y-5.5299
X6.9606Y-2.8957
X6.9626Y-2.61
X6.9626Y-3.1142
X6.9626Y-3.1535
X6.9626Y-3.1929
X6.9626Y-3.2323
X6.9626Y-3.2717
X6.9646Y-5.2165
X6.9646Y-5.2559
X6.9646Y-5.2953
X6.9646Y-5.3346
X6.9646Y-5.374
X6.9724Y-2.1299
X6.9724Y-2.2087
X6.9724Y-2.3248
X6.9724Y-2.4134
X6.9724Y-4.9449
X7.002Y-3.1142
X7.002Y-3.1535
X7.002Y-3.1929
X7.002Y-3.2323
X7.002Y-3.2717
X7.0039Y-5.2165
X7.0039Y-5.2559
X7.0039Y-5.2953
X7.0039Y-5.3346
X7.0039Y-5.374
X7.0118Y-3.021
X7.0168Y-2.9636
X7.0315Y-2.7992
X7.0315Y-3.5787
X7.0315Y-3.3649
X7.0413Y-3.1142
X7.0413Y-3.1535
X7.0413Y-3.1929
X7.0413Y-3.2323
X7.0413Y-3.2717
X7.0433Y-5.2165
X7.0433Y-5.2559
X7.0433Y-5.2953
X7.0433Y-5.3346
X7.0433Y-5.374
X7.0472Y-2.4173
X7.0512Y-5.4843
X7.0512Y-5.6713
X7.0512Y-5.7146
X7.0591Y-4.9488
X7.0591Y-5.0512
X7.0827Y-5.2165
X7.0827Y-5.2559
X7.0827Y-5.2953
X7.0827Y-5.3346
X7.0827Y-5.374
X7.0906Y-2.5551
X7.0906Y-2.7047
X7.0906Y-4.878
X7.0984Y-5.6713
X7.0984Y-5.7146
X7.0984Y-5.5299
X7.1079Y-3.7756
X7.122Y-3.0315
X7.122Y-5.2165
X7.122Y-5.2559
X7.122Y-5.2953
X7.122Y-5.3346
X7.122Y-5.374
X7.126Y-3.3543
X7.126Y-5.7795
X7.1272Y-3.0629
X7.1339Y-2.8031
X7.1339Y-2.9449
X7.1339Y-3.937
X7.1339Y-3.9764
X7.1339Y-4.0157
X7.1339Y-4.0551
X7.1339Y-4.0945
X7.1346Y-3.1043
X7.1364Y-5.0512
X7.1417Y-3.4528
X7.1457Y-5.7146
X7.1496Y-3.5276
X7.1535Y-3.0
X7.1575Y-3.8166
X7.1583Y-4.2874
X7.1583Y-4.3346
X7.1594Y-3.3898
X7.1614Y-4.9232
X7.1654Y-4.8799
X7.1732Y-2.8386
X7.1732Y-2.9685
X7.1732Y-3.937
X7.1732Y-3.9764
X7.1732Y-4.0157
X7.1732Y-4.0551
X7.1732Y-4.0945
X7.1768Y-5.0259
X7.1772Y-2.5551
X7.1772Y-2.7677
X7.189Y-3.124
X7.1969Y-5.4861
X7.1969Y-5.6713
X7.1969Y-5.7146
X7.2126Y-2.4791
X7.2126Y-3.937
X7.2126Y-3.9764
X7.2126Y-4.0157
X7.2126Y-4.0551
X7.2126Y-4.0945
X7.2165Y-2.9094
X7.2165Y-4.8799
X7.2165Y-4.9232
X7.2239Y-2.7987
X7.2244Y-3.0079
X7.2244Y-3.1654
X7.2244Y-3.2441
X7.2244Y-3.3543
X7.2244Y-4.7008
X7.2291Y-5.0797
X7.252Y-3.937
X7.252Y-3.9764
X7.252Y-4.0157
X7.252Y-4.0551
X7.252Y-4.0945
X7.2583Y-4.2717
X7.2583Y-4.3346
X7.2598Y-5.7402
X7.2717Y-5.1929
X7.2717Y-5.3307
X7.2717Y-5.6614
X7.2835Y-4.8425
X7.2913Y-2.4882
X7.2913Y-3.937
X7.2913Y-3.9764
X7.2913Y-4.0157
X7.2913Y-4.0551
X7.2913Y-4.0945
X7.2953Y-3.0079
X7.2953Y-3.3386
X7.2953Y-3.4331
X7.2953Y-3.2579
X7.3031Y-5.1102
X7.3031Y-5.4685
X7.3307Y-4.8425
X7.3386Y-4.7677
X7.3457Y-5.5701
X7.3543Y-3.5669
X7.3622Y-3.0079
X7.3622Y-3.3386
X7.3622Y-3.2579
X7.3661Y-5.0197
X7.4079Y-3.7205
X7.4079Y-4.2559
X7.4079Y-4.3346
X7.4173Y-5.5276
X7.4193Y-5.1102
X7.4193Y-5.1929
X7.4193Y-5.3307
X7.4193Y-5.3858
X7.4193Y-5.4685
X7.4291Y-4.7323
X7.4331Y-2.9449
X7.4331Y-3.2441
X7.4331Y-3.5669
X7.4409Y-5.7874
X7.4449Y-4.8425
X7.4626Y-5.1102
X7.4626Y-5.1929
X7.4626Y-5.2598
X7.4626Y-5.3307
X7.4626Y-5.3858
X7.4626Y-5.4685
X7.4646Y-3.4941
X7.4685Y-3.7992
X7.4738Y-2.8084
X7.4764Y-3.2559
X7.4764Y-3.3228
X7.4803Y-4.8465
X7.4803Y-4.9291
X7.481Y-4.776
X7.4882Y-2.2598
X7.4941Y-5.3551
X7.5Y-3.3465
X7.5Y-5.0866
X7.5079Y-3.7205
X7.5079Y-4.4449
X7.5079Y-3.2559
X7.5118Y-3.5669
X7.5118Y-3.6378
X7.5118Y-5.5787
X7.517Y-5.5477
X7.5183Y-2.853
X7.5197Y-2.189
X7.5248Y-2.5051
X7.5276Y-5.0709
X7.5315Y-4.065
X7.5335Y-4.7008
X7.5391Y-3.8664
X7.5413Y-3.3527
X7.5413Y-3.4016
X7.5413Y-3.4528
X7.5418Y-4.5024
X7.5433Y-3.1142
X7.5433Y-5.7795
X7.5472Y-5.3819
X7.5563Y-2.9409
X7.5669Y-3.9243
X7.5787Y-2.2947
X7.5787Y-2.374
X7.5866Y-3.2756
X7.594Y-4.3155
X7.5945Y-4.0157
X7.5945Y-4.2087
X7.5945Y-4.2677
X7.5945Y-4.3661
X7.5949Y-5.4278
X7.5984Y-5.5
X7.6193Y-2.9409
X7.6205Y-3.4528
X7.6205Y-3.5551
X7.622Y-3.3543
X7.6391Y-3.9239
X7.6929Y-2.2947
X7.6929Y-2.3583
X7.7047Y-4.2087
X7.7795Y-3.8189
T2
X7.7283Y-4.0157
X7.7283Y-4.065
X7.7283Y-4.1142
X7.7283Y-4.2677
X7.7283Y-4.3169
X7.7283Y-4.3661
X7.7283Y-4.4154
X7.7283Y-4.4646
X7.6378Y-2.2126
X7.687Y-2.2126
X7.7362Y-2.2126
T3
X6.4094Y-1.878
X6.4094Y-2.0157
X4.1142Y-4.6969
X4.1929Y-4.6969
X4.8701Y-2.9331
X4.9488Y-2.9331
X4.1142Y-4.2008
X4.1929Y-4.2008
X4.8701Y-1.9409
X4.9488Y-1.9409
X5.8268Y-2.7992
X5.9055Y-2.7992
X4.8701Y-3.6732
X4.9488Y-3.6732
X4.1142Y-4.4449
X4.1929Y-4.4449
X4.8701Y-2.6811
X4.9488Y-2.6811
X4.1142Y-5.9331
X4.1929Y-5.9331
X4.8701Y-5.1929
X4.9488Y-5.1929
X4.8701Y-2.437
X4.9488Y-2.437
X4.5551Y-3.937
X4.6339Y-3.937
X5.6772Y-3.8071
X5.6772Y-3.8858
X4.8701Y-4.9409
X4.9488Y-4.9409
X7.639Y-2.3774
X7.639Y-2.4774
X7.639Y-2.5774
X7.639Y-2.6774
X7.639Y-2.7774
X7.739Y-2.4274
X7.739Y-2.5274
X7.739Y-2.6274
X7.739Y-2.7274
X7.739Y-2.8274
X4.8701Y-3.1772
X4.9488Y-3.1772
X4.8701Y-2.185
X4.9488Y-2.185
X4.8701Y-4.6969
X4.9488Y-4.6969
X5.6457Y-2.9646
X5.7244Y-2.9646
X4.1142Y-1.9409
X4.1929Y-1.9409
X4.1142Y-5.689
X4.1929Y-5.689
X4.1142Y-3.4291
X4.1929Y-3.4291
X4.8701Y-4.4449
X4.9488Y-4.4449
X5.8268Y-3.3583
X5.9055Y-3.3583
X4.1142Y-3.937
X4.1929Y-3.937
X6.0709Y-1.878
X6.0709Y-2.0157
X5.7323Y-1.8819
X5.7323Y-2.0197
X4.1142Y-5.437
X4.1929Y-5.437
X5.6457Y-3.189
X5.7244Y-3.189
X4.7756Y-3.937
X4.8543Y-3.937
X5.6772Y-4.0276
X5.6772Y-4.1063
X4.1142Y-2.9331
X4.1929Y-2.9331
X4.1142Y-2.185
X4.1929Y-2.185
X7.6402Y-5.0642
X7.6402Y-5.1642
X7.6402Y-5.2642
X7.6402Y-5.3642
X7.6402Y-5.4642
X7.6402Y-5.5642
X7.6402Y-5.6642
X7.7402Y-5.1142
X7.7402Y-5.2142
X7.7402Y-5.3142
X7.7402Y-5.4142
X7.7402Y-5.5142
X7.7402Y-5.6142
X7.7402Y-5.7142
X4.1142Y-4.9409
X4.1929Y-4.9409
X4.1142Y-3.6732
X4.1929Y-3.6732
X4.8701Y-4.2008
X4.9488Y-4.2008
X4.1142Y-2.6811
X4.1929Y-2.6811
X4.8701Y-5.689
X4.9488Y-5.689
X4.8701Y-3.4291
X4.9488Y-3.4291
X4.1142Y-5.1929
X4.1929Y-5.1929
X4.1142Y-2.437
X4.1929Y-2.437
X4.3346Y-3.937
X4.4134Y-3.937
X5.6772Y-3.5866
X5.6772Y-3.6654
X4.8701Y-5.9331
X4.9488Y-5.9331
X4.8701Y-5.437
X4.9488Y-5.437
X4.1142Y-3.1772
X4.1929Y-3.1772
X4.9961Y-3.937
X5.0748Y-3.937
X5.6772Y-4.252
X5.6772Y-4.3307
T4
X6.8976Y-4.5039
X6.9976Y-4.5039
X7.0976Y-4.5039
X7.1976Y-4.5039
X7.2976Y-4.5039
X7.3976Y-4.5039
X6.6937Y-5.9724
X6.7937Y-5.9724
X6.8937Y-5.9724
X6.9937Y-5.9724
X7.0937Y-5.9724
T5
X3.6736Y-4.1654
X3.6736Y-4.2654
X3.6736Y-4.3654
X3.6736Y-4.4654
X3.6736Y-4.5654
X3.6736Y-4.6654
X3.6736Y-4.7654
X3.6736Y-4.8654
X3.6736Y-4.9654
X3.6736Y-5.0654
X3.6736Y-5.1654
X3.6736Y-5.2654
X3.6736Y-5.3654
X3.7736Y-4.1654
X3.7736Y-4.2654
X3.7736Y-4.3654
X3.7736Y-4.4654
X3.7736Y-4.5654
X3.7736Y-4.6654
X3.7736Y-4.7654
X3.7736Y-4.8654
X3.7736Y-4.9654
X3.7736Y-5.0654
X3.7736Y-5.1654
X3.7736Y-5.2654
X3.7736Y-5.3654
X6.0984Y-4.6614
X6.0984Y-4.7614
X6.0984Y-4.8614
X6.0984Y-4.9614
X6.0984Y-5.0614
X6.0984Y-5.1614
X6.0984Y-5.2614
X6.0984Y-5.3614
X6.0984Y-5.4614
X6.0984Y-5.5614
X6.1984Y-4.6614
X6.1984Y-4.7614
X6.1984Y-4.8614
X6.1984Y-4.9614
X6.1984Y-5.0614
X6.1984Y-5.1614
X6.1984Y-5.2614
X6.1984Y-5.3614
X6.1984Y-5.4614
X6.1984Y-5.5614
X7.6441Y-3.0039
X7.6441Y-3.1039
X7.6441Y-3.2039
X7.6441Y-3.3039
X7.6441Y-3.4039
X7.6441Y-3.5039
X7.6441Y-3.6039
X7.6441Y-3.7039
X7.7441Y-3.0039
X7.7441Y-3.1039
X7.7441Y-3.2039
X7.7441Y-3.3039
X7.7441Y-3.4039
X7.7441Y-3.5039
X7.7441Y-3.6039
X7.7441Y-3.7039
X3.6736Y-2.5441
X3.6736Y-2.6441
X3.6736Y-2.7441
X3.6736Y-2.8441
X3.6736Y-2.9441
X3.6736Y-3.0441
X3.6736Y-3.1441
X3.6736Y-3.2441
X3.6736Y-3.3441
X3.6736Y-3.4441
X3.6736Y-3.5441
X3.6736Y-3.6441
X3.6736Y-3.7441
X3.7736Y-2.5441
X3.7736Y-2.6441
X3.7736Y-2.7441
X3.7736Y-2.8441
X3.7736Y-2.9441
X3.7736Y-3.0441
X3.7736Y-3.1441
X3.7736Y-3.2441
X3.7736Y-3.3441
X3.7736Y-3.4441
X3.7736Y-3.5441
X3.7736Y-3.6441
X3.7736Y-3.7441
X6.4488Y-2.8173
X6.4488Y-2.9173
X5.7228Y-5.9724
X5.8228Y-5.9724
T6
X6.7638Y-1.8819
X6.7638Y-2.0
X6.8819Y-1.8819
X6.8819Y-2.0
T7
X7.6693Y-4.5976
X7.6693Y-4.6976
X7.6693Y-4.7976
X7.6693Y-4.8976
T8
X7.6681Y-2.8825
X7.711Y-5.0091
T9
X7.6772Y-5.9055
X7.6772Y-1.9685
X3.7402Y-1.9685
X3.7402Y-5.9055
T10
X6.6457Y-2.037
X7.0Y-2.0394
T0
M30
