G04 #@! TF.GenerationSoftware,KiCad,Pcbnew,(5.1.0-0)*
G04 #@! TF.CreationDate,2020-01-08T22:44:41+01:00*
G04 #@! TF.ProjectId,AddOnC,4164644f-6e43-42e6-9b69-6361645f7063,rev?*
G04 #@! TF.SameCoordinates,Original*
G04 #@! TF.FileFunction,Legend,Bot*
G04 #@! TF.FilePolarity,Positive*
%FSLAX46Y46*%
G04 Gerber Fmt 4.6, Leading zero omitted, Abs format (unit mm)*
G04 Created by KiCad (PCBNEW (5.1.0-0)) date 2020-01-08 22:44:41*
%MOMM*%
%LPD*%
G04 APERTURE LIST*
%ADD10C,0.150000*%
%ADD11C,0.120000*%
G04 APERTURE END LIST*
D10*
X243175000Y78800000D02*
X243175000Y80000000D01*
X241425000Y80000000D02*
X241425000Y78800000D01*
X229075000Y57800000D02*
X229075000Y59000000D01*
X227325000Y59000000D02*
X227325000Y57800000D01*
X260150000Y84200000D02*
X260150000Y85200000D01*
X261850000Y85200000D02*
X261850000Y84200000D01*
X222175000Y66100000D02*
X222175000Y67300000D01*
X220425000Y67300000D02*
X220425000Y66100000D01*
X199175000Y66100000D02*
X199175000Y67300000D01*
X197425000Y67300000D02*
X197425000Y66100000D01*
X205375000Y48300000D02*
X205375000Y49500000D01*
X203625000Y49500000D02*
X203625000Y48300000D01*
X201650000Y48400000D02*
X201650000Y49400000D01*
X203350000Y49400000D02*
X203350000Y48400000D01*
X209625000Y49500000D02*
X209625000Y48300000D01*
X211375000Y48300000D02*
X211375000Y49500000D01*
X211625000Y49500000D02*
X211625000Y48300000D01*
X213375000Y48300000D02*
X213375000Y49500000D01*
X209375000Y48300000D02*
X209375000Y49500000D01*
X207625000Y49500000D02*
X207625000Y48300000D01*
X207375000Y48300000D02*
X207375000Y49500000D01*
X205625000Y49500000D02*
X205625000Y48300000D01*
D11*
X212340000Y61310000D02*
X212340000Y62600000D01*
X211890000Y61310000D02*
X212340000Y61310000D01*
X211890000Y60860000D02*
X211890000Y61310000D01*
X211890000Y54090000D02*
X212340000Y54090000D01*
X211890000Y54540000D02*
X211890000Y54090000D01*
X219110000Y61310000D02*
X218660000Y61310000D01*
X219110000Y60860000D02*
X219110000Y61310000D01*
X219110000Y54090000D02*
X218660000Y54090000D01*
X219110000Y54540000D02*
X219110000Y54090000D01*
D10*
X227075000Y57800000D02*
X227075000Y59000000D01*
X225325000Y59000000D02*
X225325000Y57800000D01*
X225075000Y57800000D02*
X225075000Y59000000D01*
X223325000Y59000000D02*
X223325000Y57800000D01*
X205200000Y60575000D02*
X204000000Y60575000D01*
X204000000Y58825000D02*
X205200000Y58825000D01*
X208700000Y56575000D02*
X207500000Y56575000D01*
X207500000Y54825000D02*
X208700000Y54825000D01*
X221675000Y49700000D02*
X221675000Y50900000D01*
X219925000Y50900000D02*
X219925000Y49700000D01*
X219675000Y49700000D02*
X219675000Y50900000D01*
X217925000Y50900000D02*
X217925000Y49700000D01*
X215925000Y50900000D02*
X215925000Y49700000D01*
X217675000Y49700000D02*
X217675000Y50900000D01*
X223050000Y55400000D02*
X223050000Y54400000D01*
X221350000Y54400000D02*
X221350000Y55400000D01*
X225050000Y55400000D02*
X225050000Y54400000D01*
X223350000Y54400000D02*
X223350000Y55400000D01*
X208600000Y52850000D02*
X207600000Y52850000D01*
X207600000Y54550000D02*
X208600000Y54550000D01*
X208600000Y50850000D02*
X207600000Y50850000D01*
X207600000Y52550000D02*
X208600000Y52550000D01*
X221350000Y61400000D02*
X221350000Y62400000D01*
X223050000Y62400000D02*
X223050000Y61400000D01*
X223350000Y61400000D02*
X223350000Y62400000D01*
X225050000Y62400000D02*
X225050000Y61400000D01*
X221350000Y57900000D02*
X221350000Y58900000D01*
X223050000Y58900000D02*
X223050000Y57900000D01*
X208600000Y58850000D02*
X207600000Y58850000D01*
X207600000Y60550000D02*
X208600000Y60550000D01*
X206950000Y73100000D02*
X206950000Y74100000D01*
X208650000Y74100000D02*
X208650000Y73100000D01*
X208600000Y56850000D02*
X207600000Y56850000D01*
X207600000Y58550000D02*
X208600000Y58550000D01*
X-800000Y68025000D02*
X400000Y68025000D01*
X400000Y69775000D02*
X-800000Y69775000D01*
X-800000Y72025000D02*
X400000Y72025000D01*
X400000Y73775000D02*
X-800000Y73775000D01*
X3200000Y70025000D02*
X4400000Y70025000D01*
X4400000Y71775000D02*
X3200000Y71775000D01*
X3200000Y74025000D02*
X4400000Y74025000D01*
X4400000Y75775000D02*
X3200000Y75775000D01*
X-23800000Y68025000D02*
X-22600000Y68025000D01*
X-22600000Y69775000D02*
X-23800000Y69775000D01*
X-23800000Y72025000D02*
X-22600000Y72025000D01*
X-22600000Y73775000D02*
X-23800000Y73775000D01*
X-19800000Y70025000D02*
X-18600000Y70025000D01*
X-18600000Y71775000D02*
X-19800000Y71775000D01*
X-19800000Y74025000D02*
X-18600000Y74025000D01*
X-18600000Y75775000D02*
X-19800000Y75775000D01*
X-46800000Y68025000D02*
X-45600000Y68025000D01*
X-45600000Y69775000D02*
X-46800000Y69775000D01*
X-46800000Y72025000D02*
X-45600000Y72025000D01*
X-45600000Y73775000D02*
X-46800000Y73775000D01*
X-42800000Y70025000D02*
X-41600000Y70025000D01*
X-41600000Y71775000D02*
X-42800000Y71775000D01*
X-42800000Y74025000D02*
X-41600000Y74025000D01*
X-41600000Y75775000D02*
X-42800000Y75775000D01*
X-69800000Y68025000D02*
X-68600000Y68025000D01*
X-68600000Y69775000D02*
X-69800000Y69775000D01*
X-69800000Y72025000D02*
X-68600000Y72025000D01*
X-68600000Y73775000D02*
X-69800000Y73775000D01*
X-65700000Y70025000D02*
X-64500000Y70025000D01*
X-64500000Y71775000D02*
X-65700000Y71775000D01*
X-65700000Y74025000D02*
X-64500000Y74025000D01*
X-64500000Y75775000D02*
X-65700000Y75775000D01*
X300000Y70050000D02*
X-700000Y70050000D01*
X-700000Y71750000D02*
X300000Y71750000D01*
X4300000Y72050000D02*
X3300000Y72050000D01*
X3300000Y73750000D02*
X4300000Y73750000D01*
X-22700000Y70050000D02*
X-23700000Y70050000D01*
X-23700000Y71750000D02*
X-22700000Y71750000D01*
X-18700000Y72050000D02*
X-19700000Y72050000D01*
X-19700000Y73750000D02*
X-18700000Y73750000D01*
X-45700000Y70050000D02*
X-46700000Y70050000D01*
X-46700000Y71750000D02*
X-45700000Y71750000D01*
X-41700000Y72050000D02*
X-42700000Y72050000D01*
X-42700000Y73750000D02*
X-41700000Y73750000D01*
X-68700000Y70050000D02*
X-69700000Y70050000D01*
X-69700000Y71750000D02*
X-68700000Y71750000D01*
X-64600000Y72050000D02*
X-65600000Y72050000D01*
X-65600000Y73750000D02*
X-64600000Y73750000D01*
X15900000Y70875000D02*
X14700000Y70875000D01*
X14700000Y69125000D02*
X15900000Y69125000D01*
X18500000Y69125000D02*
X19700000Y69125000D01*
X19700000Y70875000D02*
X18500000Y70875000D01*
X38900000Y70875000D02*
X37700000Y70875000D01*
X37700000Y69125000D02*
X38900000Y69125000D01*
X41500000Y69125000D02*
X42700000Y69125000D01*
X42700000Y70875000D02*
X41500000Y70875000D01*
X61325000Y69900000D02*
X61325000Y68700000D01*
X63075000Y68700000D02*
X63075000Y69900000D01*
X66875000Y68700000D02*
X66875000Y69900000D01*
X65125000Y69900000D02*
X65125000Y68700000D01*
X84325000Y69900000D02*
X84325000Y68700000D01*
X86075000Y68700000D02*
X86075000Y69900000D01*
X89875000Y68700000D02*
X89875000Y69900000D01*
X88125000Y69900000D02*
X88125000Y68700000D01*
X107325000Y69900000D02*
X107325000Y68700000D01*
X109075000Y68700000D02*
X109075000Y69900000D01*
X112875000Y68700000D02*
X112875000Y69900000D01*
X111125000Y69900000D02*
X111125000Y68700000D01*
X130325000Y69900000D02*
X130325000Y68700000D01*
X132075000Y68700000D02*
X132075000Y69900000D01*
X135875000Y68700000D02*
X135875000Y69900000D01*
X134125000Y69900000D02*
X134125000Y68700000D01*
X153325000Y69900000D02*
X153325000Y68700000D01*
X155075000Y68700000D02*
X155075000Y69900000D01*
X158875000Y68700000D02*
X158875000Y69900000D01*
X157125000Y69900000D02*
X157125000Y68700000D01*
X176325000Y69900000D02*
X176325000Y68700000D01*
X178075000Y68700000D02*
X178075000Y69900000D01*
X181875000Y68700000D02*
X181875000Y69900000D01*
X180125000Y69900000D02*
X180125000Y68700000D01*
X252900000Y81150000D02*
X251900000Y81150000D01*
X251900000Y82850000D02*
X252900000Y82850000D01*
X252900000Y83150000D02*
X251900000Y83150000D01*
X251900000Y84850000D02*
X252900000Y84850000D01*
X243175000Y82300000D02*
X243175000Y83500000D01*
X241425000Y83500000D02*
X241425000Y82300000D01*
X241152380Y80519047D02*
X240676190Y80852380D01*
X241152380Y81090476D02*
X240152380Y81090476D01*
X240152380Y80709523D01*
X240200000Y80614285D01*
X240247619Y80566666D01*
X240342857Y80519047D01*
X240485714Y80519047D01*
X240580952Y80566666D01*
X240628571Y80614285D01*
X240676190Y80709523D01*
X240676190Y81090476D01*
X241152380Y79566666D02*
X241152380Y80138095D01*
X241152380Y79852380D02*
X240152380Y79852380D01*
X240295238Y79947619D01*
X240390476Y80042857D01*
X240438095Y80138095D01*
X240485714Y78709523D02*
X241152380Y78709523D01*
X240104761Y78947619D02*
X240819047Y79185714D01*
X240819047Y78566666D01*
X240580952Y78042857D02*
X240533333Y78138095D01*
X240485714Y78185714D01*
X240390476Y78233333D01*
X240342857Y78233333D01*
X240247619Y78185714D01*
X240200000Y78138095D01*
X240152380Y78042857D01*
X240152380Y77852380D01*
X240200000Y77757142D01*
X240247619Y77709523D01*
X240342857Y77661904D01*
X240390476Y77661904D01*
X240485714Y77709523D01*
X240533333Y77757142D01*
X240580952Y77852380D01*
X240580952Y78042857D01*
X240628571Y78138095D01*
X240676190Y78185714D01*
X240771428Y78233333D01*
X240961904Y78233333D01*
X241057142Y78185714D01*
X241104761Y78138095D01*
X241152380Y78042857D01*
X241152380Y77852380D01*
X241104761Y77757142D01*
X241057142Y77709523D01*
X240961904Y77661904D01*
X240771428Y77661904D01*
X240676190Y77709523D01*
X240628571Y77757142D01*
X240580952Y77852380D01*
X233952380Y59619047D02*
X233476190Y59952380D01*
X233952380Y60190476D02*
X232952380Y60190476D01*
X232952380Y59809523D01*
X233000000Y59714285D01*
X233047619Y59666666D01*
X233142857Y59619047D01*
X233285714Y59619047D01*
X233380952Y59666666D01*
X233428571Y59714285D01*
X233476190Y59809523D01*
X233476190Y60190476D01*
X233952380Y58666666D02*
X233952380Y59238095D01*
X233952380Y58952380D02*
X232952380Y58952380D01*
X233095238Y59047619D01*
X233190476Y59142857D01*
X233238095Y59238095D01*
X233285714Y57809523D02*
X233952380Y57809523D01*
X232904761Y58047619D02*
X233619047Y58285714D01*
X233619047Y57666666D01*
X232952380Y57380952D02*
X232952380Y56714285D01*
X233952380Y57142857D01*
X262119047Y86642857D02*
X262166666Y86595238D01*
X262309523Y86547619D01*
X262404761Y86547619D01*
X262547619Y86595238D01*
X262642857Y86690476D01*
X262690476Y86785714D01*
X262738095Y86976190D01*
X262738095Y87119047D01*
X262690476Y87309523D01*
X262642857Y87404761D01*
X262547619Y87500000D01*
X262404761Y87547619D01*
X262309523Y87547619D01*
X262166666Y87500000D01*
X262119047Y87452380D01*
X261166666Y86547619D02*
X261738095Y86547619D01*
X261452380Y86547619D02*
X261452380Y87547619D01*
X261547619Y87404761D01*
X261642857Y87309523D01*
X261738095Y87261904D01*
X260785714Y87452380D02*
X260738095Y87500000D01*
X260642857Y87547619D01*
X260404761Y87547619D01*
X260309523Y87500000D01*
X260261904Y87452380D01*
X260214285Y87357142D01*
X260214285Y87261904D01*
X260261904Y87119047D01*
X260833333Y86547619D01*
X260214285Y86547619D01*
X259309523Y87547619D02*
X259785714Y87547619D01*
X259833333Y87071428D01*
X259785714Y87119047D01*
X259690476Y87166666D01*
X259452380Y87166666D01*
X259357142Y87119047D01*
X259309523Y87071428D01*
X259261904Y86976190D01*
X259261904Y86738095D01*
X259309523Y86642857D01*
X259357142Y86595238D01*
X259452380Y86547619D01*
X259690476Y86547619D01*
X259785714Y86595238D01*
X259833333Y86642857D01*
X220152380Y67719047D02*
X219676190Y68052380D01*
X220152380Y68290476D02*
X219152380Y68290476D01*
X219152380Y67909523D01*
X219200000Y67814285D01*
X219247619Y67766666D01*
X219342857Y67719047D01*
X219485714Y67719047D01*
X219580952Y67766666D01*
X219628571Y67814285D01*
X219676190Y67909523D01*
X219676190Y68290476D01*
X220152380Y66766666D02*
X220152380Y67338095D01*
X220152380Y67052380D02*
X219152380Y67052380D01*
X219295238Y67147619D01*
X219390476Y67242857D01*
X219438095Y67338095D01*
X219485714Y65909523D02*
X220152380Y65909523D01*
X219104761Y66147619D02*
X219819047Y66385714D01*
X219819047Y65766666D01*
X219152380Y64957142D02*
X219152380Y65147619D01*
X219200000Y65242857D01*
X219247619Y65290476D01*
X219390476Y65385714D01*
X219580952Y65433333D01*
X219961904Y65433333D01*
X220057142Y65385714D01*
X220104761Y65338095D01*
X220152380Y65242857D01*
X220152380Y65052380D01*
X220104761Y64957142D01*
X220057142Y64909523D01*
X219961904Y64861904D01*
X219723809Y64861904D01*
X219628571Y64909523D01*
X219580952Y64957142D01*
X219533333Y65052380D01*
X219533333Y65242857D01*
X219580952Y65338095D01*
X219628571Y65385714D01*
X219723809Y65433333D01*
X200452380Y67819047D02*
X199976190Y68152380D01*
X200452380Y68390476D02*
X199452380Y68390476D01*
X199452380Y68009523D01*
X199500000Y67914285D01*
X199547619Y67866666D01*
X199642857Y67819047D01*
X199785714Y67819047D01*
X199880952Y67866666D01*
X199928571Y67914285D01*
X199976190Y68009523D01*
X199976190Y68390476D01*
X200452380Y66866666D02*
X200452380Y67438095D01*
X200452380Y67152380D02*
X199452380Y67152380D01*
X199595238Y67247619D01*
X199690476Y67342857D01*
X199738095Y67438095D01*
X199785714Y66009523D02*
X200452380Y66009523D01*
X199404761Y66247619D02*
X200119047Y66485714D01*
X200119047Y65866666D01*
X199452380Y65009523D02*
X199452380Y65485714D01*
X199928571Y65533333D01*
X199880952Y65485714D01*
X199833333Y65390476D01*
X199833333Y65152380D01*
X199880952Y65057142D01*
X199928571Y65009523D01*
X200023809Y64961904D01*
X200261904Y64961904D01*
X200357142Y65009523D01*
X200404761Y65057142D01*
X200452380Y65152380D01*
X200452380Y65390476D01*
X200404761Y65485714D01*
X200357142Y65533333D01*
X198952380Y50019047D02*
X198476190Y50352380D01*
X198952380Y50590476D02*
X197952380Y50590476D01*
X197952380Y50209523D01*
X198000000Y50114285D01*
X198047619Y50066666D01*
X198142857Y50019047D01*
X198285714Y50019047D01*
X198380952Y50066666D01*
X198428571Y50114285D01*
X198476190Y50209523D01*
X198476190Y50590476D01*
X198952380Y49066666D02*
X198952380Y49638095D01*
X198952380Y49352380D02*
X197952380Y49352380D01*
X198095238Y49447619D01*
X198190476Y49542857D01*
X198238095Y49638095D01*
X198285714Y48209523D02*
X198952380Y48209523D01*
X197904761Y48447619D02*
X198619047Y48685714D01*
X198619047Y48066666D01*
X198285714Y47257142D02*
X198952380Y47257142D01*
X197904761Y47495238D02*
X198619047Y47733333D01*
X198619047Y47114285D01*
X197657142Y50019047D02*
X197704761Y50066666D01*
X197752380Y50209523D01*
X197752380Y50304761D01*
X197704761Y50447619D01*
X197609523Y50542857D01*
X197514285Y50590476D01*
X197323809Y50638095D01*
X197180952Y50638095D01*
X196990476Y50590476D01*
X196895238Y50542857D01*
X196800000Y50447619D01*
X196752380Y50304761D01*
X196752380Y50209523D01*
X196800000Y50066666D01*
X196847619Y50019047D01*
X197752380Y49066666D02*
X197752380Y49638095D01*
X197752380Y49352380D02*
X196752380Y49352380D01*
X196895238Y49447619D01*
X196990476Y49542857D01*
X197038095Y49638095D01*
X196847619Y48685714D02*
X196800000Y48638095D01*
X196752380Y48542857D01*
X196752380Y48304761D01*
X196800000Y48209523D01*
X196847619Y48161904D01*
X196942857Y48114285D01*
X197038095Y48114285D01*
X197180952Y48161904D01*
X197752380Y48733333D01*
X197752380Y48114285D01*
X197085714Y47257142D02*
X197752380Y47257142D01*
X196704761Y47495238D02*
X197419047Y47733333D01*
X197419047Y47114285D01*
X211052380Y53619047D02*
X210576190Y53952380D01*
X211052380Y54190476D02*
X210052380Y54190476D01*
X210052380Y53809523D01*
X210100000Y53714285D01*
X210147619Y53666666D01*
X210242857Y53619047D01*
X210385714Y53619047D01*
X210480952Y53666666D01*
X210528571Y53714285D01*
X210576190Y53809523D01*
X210576190Y54190476D01*
X211052380Y52666666D02*
X211052380Y53238095D01*
X211052380Y52952380D02*
X210052380Y52952380D01*
X210195238Y53047619D01*
X210290476Y53142857D01*
X210338095Y53238095D01*
X210385714Y51809523D02*
X211052380Y51809523D01*
X210004761Y52047619D02*
X210719047Y52285714D01*
X210719047Y51666666D01*
X210052380Y51380952D02*
X210052380Y50761904D01*
X210433333Y51095238D01*
X210433333Y50952380D01*
X210480952Y50857142D01*
X210528571Y50809523D01*
X210623809Y50761904D01*
X210861904Y50761904D01*
X210957142Y50809523D01*
X211004761Y50857142D01*
X211052380Y50952380D01*
X211052380Y51238095D01*
X211004761Y51333333D01*
X210957142Y51380952D01*
X213052380Y53619047D02*
X212576190Y53952380D01*
X213052380Y54190476D02*
X212052380Y54190476D01*
X212052380Y53809523D01*
X212100000Y53714285D01*
X212147619Y53666666D01*
X212242857Y53619047D01*
X212385714Y53619047D01*
X212480952Y53666666D01*
X212528571Y53714285D01*
X212576190Y53809523D01*
X212576190Y54190476D01*
X213052380Y52666666D02*
X213052380Y53238095D01*
X213052380Y52952380D02*
X212052380Y52952380D01*
X212195238Y53047619D01*
X212290476Y53142857D01*
X212338095Y53238095D01*
X212052380Y52333333D02*
X212052380Y51714285D01*
X212433333Y52047619D01*
X212433333Y51904761D01*
X212480952Y51809523D01*
X212528571Y51761904D01*
X212623809Y51714285D01*
X212861904Y51714285D01*
X212957142Y51761904D01*
X213004761Y51809523D01*
X213052380Y51904761D01*
X213052380Y52190476D01*
X213004761Y52285714D01*
X212957142Y52333333D01*
X212480952Y51142857D02*
X212433333Y51238095D01*
X212385714Y51285714D01*
X212290476Y51333333D01*
X212242857Y51333333D01*
X212147619Y51285714D01*
X212100000Y51238095D01*
X212052380Y51142857D01*
X212052380Y50952380D01*
X212100000Y50857142D01*
X212147619Y50809523D01*
X212242857Y50761904D01*
X212290476Y50761904D01*
X212385714Y50809523D01*
X212433333Y50857142D01*
X212480952Y50952380D01*
X212480952Y51142857D01*
X212528571Y51238095D01*
X212576190Y51285714D01*
X212671428Y51333333D01*
X212861904Y51333333D01*
X212957142Y51285714D01*
X213004761Y51238095D01*
X213052380Y51142857D01*
X213052380Y50952380D01*
X213004761Y50857142D01*
X212957142Y50809523D01*
X212861904Y50761904D01*
X212671428Y50761904D01*
X212576190Y50809523D01*
X212528571Y50857142D01*
X212480952Y50952380D01*
X201352380Y50019047D02*
X200876190Y50352380D01*
X201352380Y50590476D02*
X200352380Y50590476D01*
X200352380Y50209523D01*
X200400000Y50114285D01*
X200447619Y50066666D01*
X200542857Y50019047D01*
X200685714Y50019047D01*
X200780952Y50066666D01*
X200828571Y50114285D01*
X200876190Y50209523D01*
X200876190Y50590476D01*
X201352380Y49066666D02*
X201352380Y49638095D01*
X201352380Y49352380D02*
X200352380Y49352380D01*
X200495238Y49447619D01*
X200590476Y49542857D01*
X200638095Y49638095D01*
X200352380Y48733333D02*
X200352380Y48114285D01*
X200733333Y48447619D01*
X200733333Y48304761D01*
X200780952Y48209523D01*
X200828571Y48161904D01*
X200923809Y48114285D01*
X201161904Y48114285D01*
X201257142Y48161904D01*
X201304761Y48209523D01*
X201352380Y48304761D01*
X201352380Y48590476D01*
X201304761Y48685714D01*
X201257142Y48733333D01*
X200685714Y47257142D02*
X201352380Y47257142D01*
X200304761Y47495238D02*
X201019047Y47733333D01*
X201019047Y47114285D01*
X200152380Y50019047D02*
X199676190Y50352380D01*
X200152380Y50590476D02*
X199152380Y50590476D01*
X199152380Y50209523D01*
X199200000Y50114285D01*
X199247619Y50066666D01*
X199342857Y50019047D01*
X199485714Y50019047D01*
X199580952Y50066666D01*
X199628571Y50114285D01*
X199676190Y50209523D01*
X199676190Y50590476D01*
X200152380Y49066666D02*
X200152380Y49638095D01*
X200152380Y49352380D02*
X199152380Y49352380D01*
X199295238Y49447619D01*
X199390476Y49542857D01*
X199438095Y49638095D01*
X199152380Y48733333D02*
X199152380Y48114285D01*
X199533333Y48447619D01*
X199533333Y48304761D01*
X199580952Y48209523D01*
X199628571Y48161904D01*
X199723809Y48114285D01*
X199961904Y48114285D01*
X200057142Y48161904D01*
X200104761Y48209523D01*
X200152380Y48304761D01*
X200152380Y48590476D01*
X200104761Y48685714D01*
X200057142Y48733333D01*
X199152380Y47780952D02*
X199152380Y47161904D01*
X199533333Y47495238D01*
X199533333Y47352380D01*
X199580952Y47257142D01*
X199628571Y47209523D01*
X199723809Y47161904D01*
X199961904Y47161904D01*
X200057142Y47209523D01*
X200104761Y47257142D01*
X200152380Y47352380D01*
X200152380Y47638095D01*
X200104761Y47733333D01*
X200057142Y47780952D01*
X211552380Y64928571D02*
X210552380Y64928571D01*
X211457142Y63880952D02*
X211504761Y63928571D01*
X211552380Y64071428D01*
X211552380Y64166666D01*
X211504761Y64309523D01*
X211409523Y64404761D01*
X211314285Y64452380D01*
X211123809Y64500000D01*
X210980952Y64500000D01*
X210790476Y64452380D01*
X210695238Y64404761D01*
X210600000Y64309523D01*
X210552380Y64166666D01*
X210552380Y64071428D01*
X210600000Y63928571D01*
X210647619Y63880952D01*
X211552380Y62928571D02*
X211552380Y63500000D01*
X211552380Y63214285D02*
X210552380Y63214285D01*
X210695238Y63309523D01*
X210790476Y63404761D01*
X210838095Y63500000D01*
X210552380Y62309523D02*
X210552380Y62214285D01*
X210600000Y62119047D01*
X210647619Y62071428D01*
X210742857Y62023809D01*
X210933333Y61976190D01*
X211171428Y61976190D01*
X211361904Y62023809D01*
X211457142Y62071428D01*
X211504761Y62119047D01*
X211552380Y62214285D01*
X211552380Y62309523D01*
X211504761Y62404761D01*
X211457142Y62452380D01*
X211361904Y62500000D01*
X211171428Y62547619D01*
X210933333Y62547619D01*
X210742857Y62500000D01*
X210647619Y62452380D01*
X210600000Y62404761D01*
X210552380Y62309523D01*
X210647619Y61595238D02*
X210600000Y61547619D01*
X210552380Y61452380D01*
X210552380Y61214285D01*
X210600000Y61119047D01*
X210647619Y61071428D01*
X210742857Y61023809D01*
X210838095Y61023809D01*
X210980952Y61071428D01*
X211552380Y61642857D01*
X211552380Y61023809D01*
X232752380Y59619047D02*
X232276190Y59952380D01*
X232752380Y60190476D02*
X231752380Y60190476D01*
X231752380Y59809523D01*
X231800000Y59714285D01*
X231847619Y59666666D01*
X231942857Y59619047D01*
X232085714Y59619047D01*
X232180952Y59666666D01*
X232228571Y59714285D01*
X232276190Y59809523D01*
X232276190Y60190476D01*
X232752380Y58666666D02*
X232752380Y59238095D01*
X232752380Y58952380D02*
X231752380Y58952380D01*
X231895238Y59047619D01*
X231990476Y59142857D01*
X232038095Y59238095D01*
X232085714Y57809523D02*
X232752380Y57809523D01*
X231704761Y58047619D02*
X232419047Y58285714D01*
X232419047Y57666666D01*
X231847619Y57333333D02*
X231800000Y57285714D01*
X231752380Y57190476D01*
X231752380Y56952380D01*
X231800000Y56857142D01*
X231847619Y56809523D01*
X231942857Y56761904D01*
X232038095Y56761904D01*
X232180952Y56809523D01*
X232752380Y57380952D01*
X232752380Y56761904D01*
X231552380Y59619047D02*
X231076190Y59952380D01*
X231552380Y60190476D02*
X230552380Y60190476D01*
X230552380Y59809523D01*
X230600000Y59714285D01*
X230647619Y59666666D01*
X230742857Y59619047D01*
X230885714Y59619047D01*
X230980952Y59666666D01*
X231028571Y59714285D01*
X231076190Y59809523D01*
X231076190Y60190476D01*
X231552380Y58666666D02*
X231552380Y59238095D01*
X231552380Y58952380D02*
X230552380Y58952380D01*
X230695238Y59047619D01*
X230790476Y59142857D01*
X230838095Y59238095D01*
X230885714Y57809523D02*
X231552380Y57809523D01*
X230504761Y58047619D02*
X231219047Y58285714D01*
X231219047Y57666666D01*
X231552380Y56761904D02*
X231552380Y57333333D01*
X231552380Y57047619D02*
X230552380Y57047619D01*
X230695238Y57142857D01*
X230790476Y57238095D01*
X230838095Y57333333D01*
X205719047Y60847619D02*
X206052380Y61323809D01*
X206290476Y60847619D02*
X206290476Y61847619D01*
X205909523Y61847619D01*
X205814285Y61800000D01*
X205766666Y61752380D01*
X205719047Y61657142D01*
X205719047Y61514285D01*
X205766666Y61419047D01*
X205814285Y61371428D01*
X205909523Y61323809D01*
X206290476Y61323809D01*
X204766666Y60847619D02*
X205338095Y60847619D01*
X205052380Y60847619D02*
X205052380Y61847619D01*
X205147619Y61704761D01*
X205242857Y61609523D01*
X205338095Y61561904D01*
X203909523Y61514285D02*
X203909523Y60847619D01*
X204147619Y61895238D02*
X204385714Y61180952D01*
X203766666Y61180952D01*
X203195238Y61847619D02*
X203100000Y61847619D01*
X203004761Y61800000D01*
X202957142Y61752380D01*
X202909523Y61657142D01*
X202861904Y61466666D01*
X202861904Y61228571D01*
X202909523Y61038095D01*
X202957142Y60942857D01*
X203004761Y60895238D01*
X203100000Y60847619D01*
X203195238Y60847619D01*
X203290476Y60895238D01*
X203338095Y60942857D01*
X203385714Y61038095D01*
X203433333Y61228571D01*
X203433333Y61466666D01*
X203385714Y61657142D01*
X203338095Y61752380D01*
X203290476Y61800000D01*
X203195238Y61847619D01*
X205719047Y55247619D02*
X206052380Y55723809D01*
X206290476Y55247619D02*
X206290476Y56247619D01*
X205909523Y56247619D01*
X205814285Y56200000D01*
X205766666Y56152380D01*
X205719047Y56057142D01*
X205719047Y55914285D01*
X205766666Y55819047D01*
X205814285Y55771428D01*
X205909523Y55723809D01*
X206290476Y55723809D01*
X204766666Y55247619D02*
X205338095Y55247619D01*
X205052380Y55247619D02*
X205052380Y56247619D01*
X205147619Y56104761D01*
X205242857Y56009523D01*
X205338095Y55961904D01*
X204433333Y56247619D02*
X203814285Y56247619D01*
X204147619Y55866666D01*
X204004761Y55866666D01*
X203909523Y55819047D01*
X203861904Y55771428D01*
X203814285Y55676190D01*
X203814285Y55438095D01*
X203861904Y55342857D01*
X203909523Y55295238D01*
X204004761Y55247619D01*
X204290476Y55247619D01*
X204385714Y55295238D01*
X204433333Y55342857D01*
X203338095Y55247619D02*
X203147619Y55247619D01*
X203052380Y55295238D01*
X203004761Y55342857D01*
X202909523Y55485714D01*
X202861904Y55676190D01*
X202861904Y56057142D01*
X202909523Y56152380D01*
X202957142Y56200000D01*
X203052380Y56247619D01*
X203242857Y56247619D01*
X203338095Y56200000D01*
X203385714Y56152380D01*
X203433333Y56057142D01*
X203433333Y55819047D01*
X203385714Y55723809D01*
X203338095Y55676190D01*
X203242857Y55628571D01*
X203052380Y55628571D01*
X202957142Y55676190D01*
X202909523Y55723809D01*
X202861904Y55819047D01*
X225352380Y51419047D02*
X224876190Y51752380D01*
X225352380Y51990476D02*
X224352380Y51990476D01*
X224352380Y51609523D01*
X224400000Y51514285D01*
X224447619Y51466666D01*
X224542857Y51419047D01*
X224685714Y51419047D01*
X224780952Y51466666D01*
X224828571Y51514285D01*
X224876190Y51609523D01*
X224876190Y51990476D01*
X225352380Y50466666D02*
X225352380Y51038095D01*
X225352380Y50752380D02*
X224352380Y50752380D01*
X224495238Y50847619D01*
X224590476Y50942857D01*
X224638095Y51038095D01*
X224352380Y50133333D02*
X224352380Y49514285D01*
X224733333Y49847619D01*
X224733333Y49704761D01*
X224780952Y49609523D01*
X224828571Y49561904D01*
X224923809Y49514285D01*
X225161904Y49514285D01*
X225257142Y49561904D01*
X225304761Y49609523D01*
X225352380Y49704761D01*
X225352380Y49990476D01*
X225304761Y50085714D01*
X225257142Y50133333D01*
X224352380Y49180952D02*
X224352380Y48514285D01*
X225352380Y48942857D01*
X224152380Y51419047D02*
X223676190Y51752380D01*
X224152380Y51990476D02*
X223152380Y51990476D01*
X223152380Y51609523D01*
X223200000Y51514285D01*
X223247619Y51466666D01*
X223342857Y51419047D01*
X223485714Y51419047D01*
X223580952Y51466666D01*
X223628571Y51514285D01*
X223676190Y51609523D01*
X223676190Y51990476D01*
X224152380Y50466666D02*
X224152380Y51038095D01*
X224152380Y50752380D02*
X223152380Y50752380D01*
X223295238Y50847619D01*
X223390476Y50942857D01*
X223438095Y51038095D01*
X223152380Y50133333D02*
X223152380Y49514285D01*
X223533333Y49847619D01*
X223533333Y49704761D01*
X223580952Y49609523D01*
X223628571Y49561904D01*
X223723809Y49514285D01*
X223961904Y49514285D01*
X224057142Y49561904D01*
X224104761Y49609523D01*
X224152380Y49704761D01*
X224152380Y49990476D01*
X224104761Y50085714D01*
X224057142Y50133333D01*
X223152380Y48657142D02*
X223152380Y48847619D01*
X223200000Y48942857D01*
X223247619Y48990476D01*
X223390476Y49085714D01*
X223580952Y49133333D01*
X223961904Y49133333D01*
X224057142Y49085714D01*
X224104761Y49038095D01*
X224152380Y48942857D01*
X224152380Y48752380D01*
X224104761Y48657142D01*
X224057142Y48609523D01*
X223961904Y48561904D01*
X223723809Y48561904D01*
X223628571Y48609523D01*
X223580952Y48657142D01*
X223533333Y48752380D01*
X223533333Y48942857D01*
X223580952Y49038095D01*
X223628571Y49085714D01*
X223723809Y49133333D01*
X222952380Y51419047D02*
X222476190Y51752380D01*
X222952380Y51990476D02*
X221952380Y51990476D01*
X221952380Y51609523D01*
X222000000Y51514285D01*
X222047619Y51466666D01*
X222142857Y51419047D01*
X222285714Y51419047D01*
X222380952Y51466666D01*
X222428571Y51514285D01*
X222476190Y51609523D01*
X222476190Y51990476D01*
X222952380Y50466666D02*
X222952380Y51038095D01*
X222952380Y50752380D02*
X221952380Y50752380D01*
X222095238Y50847619D01*
X222190476Y50942857D01*
X222238095Y51038095D01*
X221952380Y50133333D02*
X221952380Y49514285D01*
X222333333Y49847619D01*
X222333333Y49704761D01*
X222380952Y49609523D01*
X222428571Y49561904D01*
X222523809Y49514285D01*
X222761904Y49514285D01*
X222857142Y49561904D01*
X222904761Y49609523D01*
X222952380Y49704761D01*
X222952380Y49990476D01*
X222904761Y50085714D01*
X222857142Y50133333D01*
X221952380Y48609523D02*
X221952380Y49085714D01*
X222428571Y49133333D01*
X222380952Y49085714D01*
X222333333Y48990476D01*
X222333333Y48752380D01*
X222380952Y48657142D01*
X222428571Y48609523D01*
X222523809Y48561904D01*
X222761904Y48561904D01*
X222857142Y48609523D01*
X222904761Y48657142D01*
X222952380Y48752380D01*
X222952380Y48990476D01*
X222904761Y49085714D01*
X222857142Y49133333D01*
X226157142Y56019047D02*
X226204761Y56066666D01*
X226252380Y56209523D01*
X226252380Y56304761D01*
X226204761Y56447619D01*
X226109523Y56542857D01*
X226014285Y56590476D01*
X225823809Y56638095D01*
X225680952Y56638095D01*
X225490476Y56590476D01*
X225395238Y56542857D01*
X225300000Y56447619D01*
X225252380Y56304761D01*
X225252380Y56209523D01*
X225300000Y56066666D01*
X225347619Y56019047D01*
X226252380Y55066666D02*
X226252380Y55638095D01*
X226252380Y55352380D02*
X225252380Y55352380D01*
X225395238Y55447619D01*
X225490476Y55542857D01*
X225538095Y55638095D01*
X225347619Y54685714D02*
X225300000Y54638095D01*
X225252380Y54542857D01*
X225252380Y54304761D01*
X225300000Y54209523D01*
X225347619Y54161904D01*
X225442857Y54114285D01*
X225538095Y54114285D01*
X225680952Y54161904D01*
X226252380Y54733333D01*
X226252380Y54114285D01*
X225252380Y53780952D02*
X225252380Y53161904D01*
X225633333Y53495238D01*
X225633333Y53352380D01*
X225680952Y53257142D01*
X225728571Y53209523D01*
X225823809Y53161904D01*
X226061904Y53161904D01*
X226157142Y53209523D01*
X226204761Y53257142D01*
X226252380Y53352380D01*
X226252380Y53638095D01*
X226204761Y53733333D01*
X226157142Y53780952D01*
X227357142Y56019047D02*
X227404761Y56066666D01*
X227452380Y56209523D01*
X227452380Y56304761D01*
X227404761Y56447619D01*
X227309523Y56542857D01*
X227214285Y56590476D01*
X227023809Y56638095D01*
X226880952Y56638095D01*
X226690476Y56590476D01*
X226595238Y56542857D01*
X226500000Y56447619D01*
X226452380Y56304761D01*
X226452380Y56209523D01*
X226500000Y56066666D01*
X226547619Y56019047D01*
X227452380Y55066666D02*
X227452380Y55638095D01*
X227452380Y55352380D02*
X226452380Y55352380D01*
X226595238Y55447619D01*
X226690476Y55542857D01*
X226738095Y55638095D01*
X226547619Y54685714D02*
X226500000Y54638095D01*
X226452380Y54542857D01*
X226452380Y54304761D01*
X226500000Y54209523D01*
X226547619Y54161904D01*
X226642857Y54114285D01*
X226738095Y54114285D01*
X226880952Y54161904D01*
X227452380Y54733333D01*
X227452380Y54114285D01*
X226547619Y53733333D02*
X226500000Y53685714D01*
X226452380Y53590476D01*
X226452380Y53352380D01*
X226500000Y53257142D01*
X226547619Y53209523D01*
X226642857Y53161904D01*
X226738095Y53161904D01*
X226880952Y53209523D01*
X227452380Y53780952D01*
X227452380Y53161904D01*
X205619047Y53342857D02*
X205666666Y53295238D01*
X205809523Y53247619D01*
X205904761Y53247619D01*
X206047619Y53295238D01*
X206142857Y53390476D01*
X206190476Y53485714D01*
X206238095Y53676190D01*
X206238095Y53819047D01*
X206190476Y54009523D01*
X206142857Y54104761D01*
X206047619Y54200000D01*
X205904761Y54247619D01*
X205809523Y54247619D01*
X205666666Y54200000D01*
X205619047Y54152380D01*
X204666666Y53247619D02*
X205238095Y53247619D01*
X204952380Y53247619D02*
X204952380Y54247619D01*
X205047619Y54104761D01*
X205142857Y54009523D01*
X205238095Y53961904D01*
X204285714Y54152380D02*
X204238095Y54200000D01*
X204142857Y54247619D01*
X203904761Y54247619D01*
X203809523Y54200000D01*
X203761904Y54152380D01*
X203714285Y54057142D01*
X203714285Y53961904D01*
X203761904Y53819047D01*
X204333333Y53247619D01*
X203714285Y53247619D01*
X202761904Y53247619D02*
X203333333Y53247619D01*
X203047619Y53247619D02*
X203047619Y54247619D01*
X203142857Y54104761D01*
X203238095Y54009523D01*
X203333333Y53961904D01*
X205619047Y51342857D02*
X205666666Y51295238D01*
X205809523Y51247619D01*
X205904761Y51247619D01*
X206047619Y51295238D01*
X206142857Y51390476D01*
X206190476Y51485714D01*
X206238095Y51676190D01*
X206238095Y51819047D01*
X206190476Y52009523D01*
X206142857Y52104761D01*
X206047619Y52200000D01*
X205904761Y52247619D01*
X205809523Y52247619D01*
X205666666Y52200000D01*
X205619047Y52152380D01*
X204666666Y51247619D02*
X205238095Y51247619D01*
X204952380Y51247619D02*
X204952380Y52247619D01*
X205047619Y52104761D01*
X205142857Y52009523D01*
X205238095Y51961904D01*
X204285714Y52152380D02*
X204238095Y52200000D01*
X204142857Y52247619D01*
X203904761Y52247619D01*
X203809523Y52200000D01*
X203761904Y52152380D01*
X203714285Y52057142D01*
X203714285Y51961904D01*
X203761904Y51819047D01*
X204333333Y51247619D01*
X203714285Y51247619D01*
X203095238Y52247619D02*
X203000000Y52247619D01*
X202904761Y52200000D01*
X202857142Y52152380D01*
X202809523Y52057142D01*
X202761904Y51866666D01*
X202761904Y51628571D01*
X202809523Y51438095D01*
X202857142Y51342857D01*
X202904761Y51295238D01*
X203000000Y51247619D01*
X203095238Y51247619D01*
X203190476Y51295238D01*
X203238095Y51342857D01*
X203285714Y51438095D01*
X203333333Y51628571D01*
X203333333Y51866666D01*
X203285714Y52057142D01*
X203238095Y52152380D01*
X203190476Y52200000D01*
X203095238Y52247619D01*
X223257142Y66719047D02*
X223304761Y66766666D01*
X223352380Y66909523D01*
X223352380Y67004761D01*
X223304761Y67147619D01*
X223209523Y67242857D01*
X223114285Y67290476D01*
X222923809Y67338095D01*
X222780952Y67338095D01*
X222590476Y67290476D01*
X222495238Y67242857D01*
X222400000Y67147619D01*
X222352380Y67004761D01*
X222352380Y66909523D01*
X222400000Y66766666D01*
X222447619Y66719047D01*
X223352380Y65766666D02*
X223352380Y66338095D01*
X223352380Y66052380D02*
X222352380Y66052380D01*
X222495238Y66147619D01*
X222590476Y66242857D01*
X222638095Y66338095D01*
X223352380Y64814285D02*
X223352380Y65385714D01*
X223352380Y65100000D02*
X222352380Y65100000D01*
X222495238Y65195238D01*
X222590476Y65290476D01*
X222638095Y65385714D01*
X223352380Y64338095D02*
X223352380Y64147619D01*
X223304761Y64052380D01*
X223257142Y64004761D01*
X223114285Y63909523D01*
X222923809Y63861904D01*
X222542857Y63861904D01*
X222447619Y63909523D01*
X222400000Y63957142D01*
X222352380Y64052380D01*
X222352380Y64242857D01*
X222400000Y64338095D01*
X222447619Y64385714D01*
X222542857Y64433333D01*
X222780952Y64433333D01*
X222876190Y64385714D01*
X222923809Y64338095D01*
X222971428Y64242857D01*
X222971428Y64052380D01*
X222923809Y63957142D01*
X222876190Y63909523D01*
X222780952Y63861904D01*
X224557142Y66719047D02*
X224604761Y66766666D01*
X224652380Y66909523D01*
X224652380Y67004761D01*
X224604761Y67147619D01*
X224509523Y67242857D01*
X224414285Y67290476D01*
X224223809Y67338095D01*
X224080952Y67338095D01*
X223890476Y67290476D01*
X223795238Y67242857D01*
X223700000Y67147619D01*
X223652380Y67004761D01*
X223652380Y66909523D01*
X223700000Y66766666D01*
X223747619Y66719047D01*
X224652380Y65766666D02*
X224652380Y66338095D01*
X224652380Y66052380D02*
X223652380Y66052380D01*
X223795238Y66147619D01*
X223890476Y66242857D01*
X223938095Y66338095D01*
X224652380Y64814285D02*
X224652380Y65385714D01*
X224652380Y65100000D02*
X223652380Y65100000D01*
X223795238Y65195238D01*
X223890476Y65290476D01*
X223938095Y65385714D01*
X224080952Y64242857D02*
X224033333Y64338095D01*
X223985714Y64385714D01*
X223890476Y64433333D01*
X223842857Y64433333D01*
X223747619Y64385714D01*
X223700000Y64338095D01*
X223652380Y64242857D01*
X223652380Y64052380D01*
X223700000Y63957142D01*
X223747619Y63909523D01*
X223842857Y63861904D01*
X223890476Y63861904D01*
X223985714Y63909523D01*
X224033333Y63957142D01*
X224080952Y64052380D01*
X224080952Y64242857D01*
X224128571Y64338095D01*
X224176190Y64385714D01*
X224271428Y64433333D01*
X224461904Y64433333D01*
X224557142Y64385714D01*
X224604761Y64338095D01*
X224652380Y64242857D01*
X224652380Y64052380D01*
X224604761Y63957142D01*
X224557142Y63909523D01*
X224461904Y63861904D01*
X224271428Y63861904D01*
X224176190Y63909523D01*
X224128571Y63957142D01*
X224080952Y64052380D01*
X230257142Y59619047D02*
X230304761Y59666666D01*
X230352380Y59809523D01*
X230352380Y59904761D01*
X230304761Y60047619D01*
X230209523Y60142857D01*
X230114285Y60190476D01*
X229923809Y60238095D01*
X229780952Y60238095D01*
X229590476Y60190476D01*
X229495238Y60142857D01*
X229400000Y60047619D01*
X229352380Y59904761D01*
X229352380Y59809523D01*
X229400000Y59666666D01*
X229447619Y59619047D01*
X230352380Y58666666D02*
X230352380Y59238095D01*
X230352380Y58952380D02*
X229352380Y58952380D01*
X229495238Y59047619D01*
X229590476Y59142857D01*
X229638095Y59238095D01*
X230352380Y57714285D02*
X230352380Y58285714D01*
X230352380Y58000000D02*
X229352380Y58000000D01*
X229495238Y58095238D01*
X229590476Y58190476D01*
X229638095Y58285714D01*
X229352380Y57380952D02*
X229352380Y56714285D01*
X230352380Y57142857D01*
X209219047Y60942857D02*
X209266666Y60895238D01*
X209409523Y60847619D01*
X209504761Y60847619D01*
X209647619Y60895238D01*
X209742857Y60990476D01*
X209790476Y61085714D01*
X209838095Y61276190D01*
X209838095Y61419047D01*
X209790476Y61609523D01*
X209742857Y61704761D01*
X209647619Y61800000D01*
X209504761Y61847619D01*
X209409523Y61847619D01*
X209266666Y61800000D01*
X209219047Y61752380D01*
X208266666Y60847619D02*
X208838095Y60847619D01*
X208552380Y60847619D02*
X208552380Y61847619D01*
X208647619Y61704761D01*
X208742857Y61609523D01*
X208838095Y61561904D01*
X207314285Y60847619D02*
X207885714Y60847619D01*
X207600000Y60847619D02*
X207600000Y61847619D01*
X207695238Y61704761D01*
X207790476Y61609523D01*
X207885714Y61561904D01*
X206457142Y61847619D02*
X206647619Y61847619D01*
X206742857Y61800000D01*
X206790476Y61752380D01*
X206885714Y61609523D01*
X206933333Y61419047D01*
X206933333Y61038095D01*
X206885714Y60942857D01*
X206838095Y60895238D01*
X206742857Y60847619D01*
X206552380Y60847619D01*
X206457142Y60895238D01*
X206409523Y60942857D01*
X206361904Y61038095D01*
X206361904Y61276190D01*
X206409523Y61371428D01*
X206457142Y61419047D01*
X206552380Y61466666D01*
X206742857Y61466666D01*
X206838095Y61419047D01*
X206885714Y61371428D01*
X206933333Y61276190D01*
X209857142Y74719047D02*
X209904761Y74766666D01*
X209952380Y74909523D01*
X209952380Y75004761D01*
X209904761Y75147619D01*
X209809523Y75242857D01*
X209714285Y75290476D01*
X209523809Y75338095D01*
X209380952Y75338095D01*
X209190476Y75290476D01*
X209095238Y75242857D01*
X209000000Y75147619D01*
X208952380Y75004761D01*
X208952380Y74909523D01*
X209000000Y74766666D01*
X209047619Y74719047D01*
X209952380Y73766666D02*
X209952380Y74338095D01*
X209952380Y74052380D02*
X208952380Y74052380D01*
X209095238Y74147619D01*
X209190476Y74242857D01*
X209238095Y74338095D01*
X209952380Y72814285D02*
X209952380Y73385714D01*
X209952380Y73100000D02*
X208952380Y73100000D01*
X209095238Y73195238D01*
X209190476Y73290476D01*
X209238095Y73385714D01*
X208952380Y71909523D02*
X208952380Y72385714D01*
X209428571Y72433333D01*
X209380952Y72385714D01*
X209333333Y72290476D01*
X209333333Y72052380D01*
X209380952Y71957142D01*
X209428571Y71909523D01*
X209523809Y71861904D01*
X209761904Y71861904D01*
X209857142Y71909523D01*
X209904761Y71957142D01*
X209952380Y72052380D01*
X209952380Y72290476D01*
X209904761Y72385714D01*
X209857142Y72433333D01*
X205619047Y57342857D02*
X205666666Y57295238D01*
X205809523Y57247619D01*
X205904761Y57247619D01*
X206047619Y57295238D01*
X206142857Y57390476D01*
X206190476Y57485714D01*
X206238095Y57676190D01*
X206238095Y57819047D01*
X206190476Y58009523D01*
X206142857Y58104761D01*
X206047619Y58200000D01*
X205904761Y58247619D01*
X205809523Y58247619D01*
X205666666Y58200000D01*
X205619047Y58152380D01*
X204666666Y57247619D02*
X205238095Y57247619D01*
X204952380Y57247619D02*
X204952380Y58247619D01*
X205047619Y58104761D01*
X205142857Y58009523D01*
X205238095Y57961904D01*
X203714285Y57247619D02*
X204285714Y57247619D01*
X204000000Y57247619D02*
X204000000Y58247619D01*
X204095238Y58104761D01*
X204190476Y58009523D01*
X204285714Y57961904D01*
X202857142Y57914285D02*
X202857142Y57247619D01*
X203095238Y58295238D02*
X203333333Y57580952D01*
X202714285Y57580952D01*
X4519047Y68447619D02*
X4852380Y68923809D01*
X5090476Y68447619D02*
X5090476Y69447619D01*
X4709523Y69447619D01*
X4614285Y69400000D01*
X4566666Y69352380D01*
X4519047Y69257142D01*
X4519047Y69114285D01*
X4566666Y69019047D01*
X4614285Y68971428D01*
X4709523Y68923809D01*
X5090476Y68923809D01*
X3566666Y68447619D02*
X4138095Y68447619D01*
X3852380Y68447619D02*
X3852380Y69447619D01*
X3947619Y69304761D01*
X4042857Y69209523D01*
X4138095Y69161904D01*
X3233333Y69447619D02*
X2614285Y69447619D01*
X2947619Y69066666D01*
X2804761Y69066666D01*
X2709523Y69019047D01*
X2661904Y68971428D01*
X2614285Y68876190D01*
X2614285Y68638095D01*
X2661904Y68542857D01*
X2709523Y68495238D01*
X2804761Y68447619D01*
X3090476Y68447619D01*
X3185714Y68495238D01*
X3233333Y68542857D01*
X2233333Y69352380D02*
X2185714Y69400000D01*
X2090476Y69447619D01*
X1852380Y69447619D01*
X1757142Y69400000D01*
X1709523Y69352380D01*
X1661904Y69257142D01*
X1661904Y69161904D01*
X1709523Y69019047D01*
X2280952Y68447619D01*
X1661904Y68447619D01*
X919047Y74047619D02*
X1252380Y74523809D01*
X1490476Y74047619D02*
X1490476Y75047619D01*
X1109523Y75047619D01*
X1014285Y75000000D01*
X966666Y74952380D01*
X919047Y74857142D01*
X919047Y74714285D01*
X966666Y74619047D01*
X1014285Y74571428D01*
X1109523Y74523809D01*
X1490476Y74523809D01*
X-33333Y74047619D02*
X538095Y74047619D01*
X252380Y74047619D02*
X252380Y75047619D01*
X347619Y74904761D01*
X442857Y74809523D01*
X538095Y74761904D01*
X-366666Y75047619D02*
X-985714Y75047619D01*
X-652380Y74666666D01*
X-795238Y74666666D01*
X-890476Y74619047D01*
X-938095Y74571428D01*
X-985714Y74476190D01*
X-985714Y74238095D01*
X-938095Y74142857D01*
X-890476Y74095238D01*
X-795238Y74047619D01*
X-509523Y74047619D01*
X-414285Y74095238D01*
X-366666Y74142857D01*
X-1938095Y74047619D02*
X-1366666Y74047619D01*
X-1652380Y74047619D02*
X-1652380Y75047619D01*
X-1557142Y74904761D01*
X-1461904Y74809523D01*
X-1366666Y74761904D01*
X8519047Y70447619D02*
X8852380Y70923809D01*
X9090476Y70447619D02*
X9090476Y71447619D01*
X8709523Y71447619D01*
X8614285Y71400000D01*
X8566666Y71352380D01*
X8519047Y71257142D01*
X8519047Y71114285D01*
X8566666Y71019047D01*
X8614285Y70971428D01*
X8709523Y70923809D01*
X9090476Y70923809D01*
X7566666Y70447619D02*
X8138095Y70447619D01*
X7852380Y70447619D02*
X7852380Y71447619D01*
X7947619Y71304761D01*
X8042857Y71209523D01*
X8138095Y71161904D01*
X7233333Y71447619D02*
X6614285Y71447619D01*
X6947619Y71066666D01*
X6804761Y71066666D01*
X6709523Y71019047D01*
X6661904Y70971428D01*
X6614285Y70876190D01*
X6614285Y70638095D01*
X6661904Y70542857D01*
X6709523Y70495238D01*
X6804761Y70447619D01*
X7090476Y70447619D01*
X7185714Y70495238D01*
X7233333Y70542857D01*
X5995238Y71447619D02*
X5900000Y71447619D01*
X5804761Y71400000D01*
X5757142Y71352380D01*
X5709523Y71257142D01*
X5661904Y71066666D01*
X5661904Y70828571D01*
X5709523Y70638095D01*
X5757142Y70542857D01*
X5804761Y70495238D01*
X5900000Y70447619D01*
X5995238Y70447619D01*
X6090476Y70495238D01*
X6138095Y70542857D01*
X6185714Y70638095D01*
X6233333Y70828571D01*
X6233333Y71066666D01*
X6185714Y71257142D01*
X6138095Y71352380D01*
X6090476Y71400000D01*
X5995238Y71447619D01*
X8519047Y74447619D02*
X8852380Y74923809D01*
X9090476Y74447619D02*
X9090476Y75447619D01*
X8709523Y75447619D01*
X8614285Y75400000D01*
X8566666Y75352380D01*
X8519047Y75257142D01*
X8519047Y75114285D01*
X8566666Y75019047D01*
X8614285Y74971428D01*
X8709523Y74923809D01*
X9090476Y74923809D01*
X7566666Y74447619D02*
X8138095Y74447619D01*
X7852380Y74447619D02*
X7852380Y75447619D01*
X7947619Y75304761D01*
X8042857Y75209523D01*
X8138095Y75161904D01*
X7185714Y75352380D02*
X7138095Y75400000D01*
X7042857Y75447619D01*
X6804761Y75447619D01*
X6709523Y75400000D01*
X6661904Y75352380D01*
X6614285Y75257142D01*
X6614285Y75161904D01*
X6661904Y75019047D01*
X7233333Y74447619D01*
X6614285Y74447619D01*
X6138095Y74447619D02*
X5947619Y74447619D01*
X5852380Y74495238D01*
X5804761Y74542857D01*
X5709523Y74685714D01*
X5661904Y74876190D01*
X5661904Y75257142D01*
X5709523Y75352380D01*
X5757142Y75400000D01*
X5852380Y75447619D01*
X6042857Y75447619D01*
X6138095Y75400000D01*
X6185714Y75352380D01*
X6233333Y75257142D01*
X6233333Y75019047D01*
X6185714Y74923809D01*
X6138095Y74876190D01*
X6042857Y74828571D01*
X5852380Y74828571D01*
X5757142Y74876190D01*
X5709523Y74923809D01*
X5661904Y75019047D01*
X-18480952Y68447619D02*
X-18147619Y68923809D01*
X-17909523Y68447619D02*
X-17909523Y69447619D01*
X-18290476Y69447619D01*
X-18385714Y69400000D01*
X-18433333Y69352380D01*
X-18480952Y69257142D01*
X-18480952Y69114285D01*
X-18433333Y69019047D01*
X-18385714Y68971428D01*
X-18290476Y68923809D01*
X-17909523Y68923809D01*
X-19433333Y68447619D02*
X-18861904Y68447619D01*
X-19147619Y68447619D02*
X-19147619Y69447619D01*
X-19052380Y69304761D01*
X-18957142Y69209523D01*
X-18861904Y69161904D01*
X-19814285Y69352380D02*
X-19861904Y69400000D01*
X-19957142Y69447619D01*
X-20195238Y69447619D01*
X-20290476Y69400000D01*
X-20338095Y69352380D01*
X-20385714Y69257142D01*
X-20385714Y69161904D01*
X-20338095Y69019047D01*
X-19766666Y68447619D01*
X-20385714Y68447619D01*
X-20957142Y69019047D02*
X-20861904Y69066666D01*
X-20814285Y69114285D01*
X-20766666Y69209523D01*
X-20766666Y69257142D01*
X-20814285Y69352380D01*
X-20861904Y69400000D01*
X-20957142Y69447619D01*
X-21147619Y69447619D01*
X-21242857Y69400000D01*
X-21290476Y69352380D01*
X-21338095Y69257142D01*
X-21338095Y69209523D01*
X-21290476Y69114285D01*
X-21242857Y69066666D01*
X-21147619Y69019047D01*
X-20957142Y69019047D01*
X-20861904Y68971428D01*
X-20814285Y68923809D01*
X-20766666Y68828571D01*
X-20766666Y68638095D01*
X-20814285Y68542857D01*
X-20861904Y68495238D01*
X-20957142Y68447619D01*
X-21147619Y68447619D01*
X-21242857Y68495238D01*
X-21290476Y68542857D01*
X-21338095Y68638095D01*
X-21338095Y68828571D01*
X-21290476Y68923809D01*
X-21242857Y68971428D01*
X-21147619Y69019047D01*
X-22180952Y74047619D02*
X-21847619Y74523809D01*
X-21609523Y74047619D02*
X-21609523Y75047619D01*
X-21990476Y75047619D01*
X-22085714Y75000000D01*
X-22133333Y74952380D01*
X-22180952Y74857142D01*
X-22180952Y74714285D01*
X-22133333Y74619047D01*
X-22085714Y74571428D01*
X-21990476Y74523809D01*
X-21609523Y74523809D01*
X-23133333Y74047619D02*
X-22561904Y74047619D01*
X-22847619Y74047619D02*
X-22847619Y75047619D01*
X-22752380Y74904761D01*
X-22657142Y74809523D01*
X-22561904Y74761904D01*
X-23514285Y74952380D02*
X-23561904Y75000000D01*
X-23657142Y75047619D01*
X-23895238Y75047619D01*
X-23990476Y75000000D01*
X-24038095Y74952380D01*
X-24085714Y74857142D01*
X-24085714Y74761904D01*
X-24038095Y74619047D01*
X-23466666Y74047619D01*
X-24085714Y74047619D01*
X-24419047Y75047619D02*
X-25085714Y75047619D01*
X-24657142Y74047619D01*
X-14480952Y70547619D02*
X-14147619Y71023809D01*
X-13909523Y70547619D02*
X-13909523Y71547619D01*
X-14290476Y71547619D01*
X-14385714Y71500000D01*
X-14433333Y71452380D01*
X-14480952Y71357142D01*
X-14480952Y71214285D01*
X-14433333Y71119047D01*
X-14385714Y71071428D01*
X-14290476Y71023809D01*
X-13909523Y71023809D01*
X-15433333Y70547619D02*
X-14861904Y70547619D01*
X-15147619Y70547619D02*
X-15147619Y71547619D01*
X-15052380Y71404761D01*
X-14957142Y71309523D01*
X-14861904Y71261904D01*
X-15814285Y71452380D02*
X-15861904Y71500000D01*
X-15957142Y71547619D01*
X-16195238Y71547619D01*
X-16290476Y71500000D01*
X-16338095Y71452380D01*
X-16385714Y71357142D01*
X-16385714Y71261904D01*
X-16338095Y71119047D01*
X-15766666Y70547619D01*
X-16385714Y70547619D01*
X-17242857Y71547619D02*
X-17052380Y71547619D01*
X-16957142Y71500000D01*
X-16909523Y71452380D01*
X-16814285Y71309523D01*
X-16766666Y71119047D01*
X-16766666Y70738095D01*
X-16814285Y70642857D01*
X-16861904Y70595238D01*
X-16957142Y70547619D01*
X-17147619Y70547619D01*
X-17242857Y70595238D01*
X-17290476Y70642857D01*
X-17338095Y70738095D01*
X-17338095Y70976190D01*
X-17290476Y71071428D01*
X-17242857Y71119047D01*
X-17147619Y71166666D01*
X-16957142Y71166666D01*
X-16861904Y71119047D01*
X-16814285Y71071428D01*
X-16766666Y70976190D01*
X-14480952Y74447619D02*
X-14147619Y74923809D01*
X-13909523Y74447619D02*
X-13909523Y75447619D01*
X-14290476Y75447619D01*
X-14385714Y75400000D01*
X-14433333Y75352380D01*
X-14480952Y75257142D01*
X-14480952Y75114285D01*
X-14433333Y75019047D01*
X-14385714Y74971428D01*
X-14290476Y74923809D01*
X-13909523Y74923809D01*
X-15433333Y74447619D02*
X-14861904Y74447619D01*
X-15147619Y74447619D02*
X-15147619Y75447619D01*
X-15052380Y75304761D01*
X-14957142Y75209523D01*
X-14861904Y75161904D01*
X-15814285Y75352380D02*
X-15861904Y75400000D01*
X-15957142Y75447619D01*
X-16195238Y75447619D01*
X-16290476Y75400000D01*
X-16338095Y75352380D01*
X-16385714Y75257142D01*
X-16385714Y75161904D01*
X-16338095Y75019047D01*
X-15766666Y74447619D01*
X-16385714Y74447619D01*
X-17290476Y75447619D02*
X-16814285Y75447619D01*
X-16766666Y74971428D01*
X-16814285Y75019047D01*
X-16909523Y75066666D01*
X-17147619Y75066666D01*
X-17242857Y75019047D01*
X-17290476Y74971428D01*
X-17338095Y74876190D01*
X-17338095Y74638095D01*
X-17290476Y74542857D01*
X-17242857Y74495238D01*
X-17147619Y74447619D01*
X-16909523Y74447619D01*
X-16814285Y74495238D01*
X-16766666Y74542857D01*
X-41580952Y68447619D02*
X-41247619Y68923809D01*
X-41009523Y68447619D02*
X-41009523Y69447619D01*
X-41390476Y69447619D01*
X-41485714Y69400000D01*
X-41533333Y69352380D01*
X-41580952Y69257142D01*
X-41580952Y69114285D01*
X-41533333Y69019047D01*
X-41485714Y68971428D01*
X-41390476Y68923809D01*
X-41009523Y68923809D01*
X-42533333Y68447619D02*
X-41961904Y68447619D01*
X-42247619Y68447619D02*
X-42247619Y69447619D01*
X-42152380Y69304761D01*
X-42057142Y69209523D01*
X-41961904Y69161904D01*
X-42914285Y69352380D02*
X-42961904Y69400000D01*
X-43057142Y69447619D01*
X-43295238Y69447619D01*
X-43390476Y69400000D01*
X-43438095Y69352380D01*
X-43485714Y69257142D01*
X-43485714Y69161904D01*
X-43438095Y69019047D01*
X-42866666Y68447619D01*
X-43485714Y68447619D01*
X-44342857Y69114285D02*
X-44342857Y68447619D01*
X-44104761Y69495238D02*
X-43866666Y68780952D01*
X-44485714Y68780952D01*
X-45080952Y74047619D02*
X-44747619Y74523809D01*
X-44509523Y74047619D02*
X-44509523Y75047619D01*
X-44890476Y75047619D01*
X-44985714Y75000000D01*
X-45033333Y74952380D01*
X-45080952Y74857142D01*
X-45080952Y74714285D01*
X-45033333Y74619047D01*
X-44985714Y74571428D01*
X-44890476Y74523809D01*
X-44509523Y74523809D01*
X-46033333Y74047619D02*
X-45461904Y74047619D01*
X-45747619Y74047619D02*
X-45747619Y75047619D01*
X-45652380Y74904761D01*
X-45557142Y74809523D01*
X-45461904Y74761904D01*
X-46414285Y74952380D02*
X-46461904Y75000000D01*
X-46557142Y75047619D01*
X-46795238Y75047619D01*
X-46890476Y75000000D01*
X-46938095Y74952380D01*
X-46985714Y74857142D01*
X-46985714Y74761904D01*
X-46938095Y74619047D01*
X-46366666Y74047619D01*
X-46985714Y74047619D01*
X-47319047Y75047619D02*
X-47938095Y75047619D01*
X-47604761Y74666666D01*
X-47747619Y74666666D01*
X-47842857Y74619047D01*
X-47890476Y74571428D01*
X-47938095Y74476190D01*
X-47938095Y74238095D01*
X-47890476Y74142857D01*
X-47842857Y74095238D01*
X-47747619Y74047619D01*
X-47461904Y74047619D01*
X-47366666Y74095238D01*
X-47319047Y74142857D01*
X-37480952Y70447619D02*
X-37147619Y70923809D01*
X-36909523Y70447619D02*
X-36909523Y71447619D01*
X-37290476Y71447619D01*
X-37385714Y71400000D01*
X-37433333Y71352380D01*
X-37480952Y71257142D01*
X-37480952Y71114285D01*
X-37433333Y71019047D01*
X-37385714Y70971428D01*
X-37290476Y70923809D01*
X-36909523Y70923809D01*
X-38433333Y70447619D02*
X-37861904Y70447619D01*
X-38147619Y70447619D02*
X-38147619Y71447619D01*
X-38052380Y71304761D01*
X-37957142Y71209523D01*
X-37861904Y71161904D01*
X-38814285Y71352380D02*
X-38861904Y71400000D01*
X-38957142Y71447619D01*
X-39195238Y71447619D01*
X-39290476Y71400000D01*
X-39338095Y71352380D01*
X-39385714Y71257142D01*
X-39385714Y71161904D01*
X-39338095Y71019047D01*
X-38766666Y70447619D01*
X-39385714Y70447619D01*
X-39766666Y71352380D02*
X-39814285Y71400000D01*
X-39909523Y71447619D01*
X-40147619Y71447619D01*
X-40242857Y71400000D01*
X-40290476Y71352380D01*
X-40338095Y71257142D01*
X-40338095Y71161904D01*
X-40290476Y71019047D01*
X-39719047Y70447619D01*
X-40338095Y70447619D01*
X-37480952Y74447619D02*
X-37147619Y74923809D01*
X-36909523Y74447619D02*
X-36909523Y75447619D01*
X-37290476Y75447619D01*
X-37385714Y75400000D01*
X-37433333Y75352380D01*
X-37480952Y75257142D01*
X-37480952Y75114285D01*
X-37433333Y75019047D01*
X-37385714Y74971428D01*
X-37290476Y74923809D01*
X-36909523Y74923809D01*
X-38433333Y74447619D02*
X-37861904Y74447619D01*
X-38147619Y74447619D02*
X-38147619Y75447619D01*
X-38052380Y75304761D01*
X-37957142Y75209523D01*
X-37861904Y75161904D01*
X-38814285Y75352380D02*
X-38861904Y75400000D01*
X-38957142Y75447619D01*
X-39195238Y75447619D01*
X-39290476Y75400000D01*
X-39338095Y75352380D01*
X-39385714Y75257142D01*
X-39385714Y75161904D01*
X-39338095Y75019047D01*
X-38766666Y74447619D01*
X-39385714Y74447619D01*
X-40338095Y74447619D02*
X-39766666Y74447619D01*
X-40052380Y74447619D02*
X-40052380Y75447619D01*
X-39957142Y75304761D01*
X-39861904Y75209523D01*
X-39766666Y75161904D01*
X-64580952Y68447619D02*
X-64247619Y68923809D01*
X-64009523Y68447619D02*
X-64009523Y69447619D01*
X-64390476Y69447619D01*
X-64485714Y69400000D01*
X-64533333Y69352380D01*
X-64580952Y69257142D01*
X-64580952Y69114285D01*
X-64533333Y69019047D01*
X-64485714Y68971428D01*
X-64390476Y68923809D01*
X-64009523Y68923809D01*
X-65533333Y68447619D02*
X-64961904Y68447619D01*
X-65247619Y68447619D02*
X-65247619Y69447619D01*
X-65152380Y69304761D01*
X-65057142Y69209523D01*
X-64961904Y69161904D01*
X-65914285Y69352380D02*
X-65961904Y69400000D01*
X-66057142Y69447619D01*
X-66295238Y69447619D01*
X-66390476Y69400000D01*
X-66438095Y69352380D01*
X-66485714Y69257142D01*
X-66485714Y69161904D01*
X-66438095Y69019047D01*
X-65866666Y68447619D01*
X-66485714Y68447619D01*
X-67104761Y69447619D02*
X-67200000Y69447619D01*
X-67295238Y69400000D01*
X-67342857Y69352380D01*
X-67390476Y69257142D01*
X-67438095Y69066666D01*
X-67438095Y68828571D01*
X-67390476Y68638095D01*
X-67342857Y68542857D01*
X-67295238Y68495238D01*
X-67200000Y68447619D01*
X-67104761Y68447619D01*
X-67009523Y68495238D01*
X-66961904Y68542857D01*
X-66914285Y68638095D01*
X-66866666Y68828571D01*
X-66866666Y69066666D01*
X-66914285Y69257142D01*
X-66961904Y69352380D01*
X-67009523Y69400000D01*
X-67104761Y69447619D01*
X-68080952Y74047619D02*
X-67747619Y74523809D01*
X-67509523Y74047619D02*
X-67509523Y75047619D01*
X-67890476Y75047619D01*
X-67985714Y75000000D01*
X-68033333Y74952380D01*
X-68080952Y74857142D01*
X-68080952Y74714285D01*
X-68033333Y74619047D01*
X-67985714Y74571428D01*
X-67890476Y74523809D01*
X-67509523Y74523809D01*
X-69033333Y74047619D02*
X-68461904Y74047619D01*
X-68747619Y74047619D02*
X-68747619Y75047619D01*
X-68652380Y74904761D01*
X-68557142Y74809523D01*
X-68461904Y74761904D01*
X-69985714Y74047619D02*
X-69414285Y74047619D01*
X-69700000Y74047619D02*
X-69700000Y75047619D01*
X-69604761Y74904761D01*
X-69509523Y74809523D01*
X-69414285Y74761904D01*
X-70461904Y74047619D02*
X-70652380Y74047619D01*
X-70747619Y74095238D01*
X-70795238Y74142857D01*
X-70890476Y74285714D01*
X-70938095Y74476190D01*
X-70938095Y74857142D01*
X-70890476Y74952380D01*
X-70842857Y75000000D01*
X-70747619Y75047619D01*
X-70557142Y75047619D01*
X-70461904Y75000000D01*
X-70414285Y74952380D01*
X-70366666Y74857142D01*
X-70366666Y74619047D01*
X-70414285Y74523809D01*
X-70461904Y74476190D01*
X-70557142Y74428571D01*
X-70747619Y74428571D01*
X-70842857Y74476190D01*
X-70890476Y74523809D01*
X-70938095Y74619047D01*
X-60480952Y70447619D02*
X-60147619Y70923809D01*
X-59909523Y70447619D02*
X-59909523Y71447619D01*
X-60290476Y71447619D01*
X-60385714Y71400000D01*
X-60433333Y71352380D01*
X-60480952Y71257142D01*
X-60480952Y71114285D01*
X-60433333Y71019047D01*
X-60385714Y70971428D01*
X-60290476Y70923809D01*
X-59909523Y70923809D01*
X-61433333Y70447619D02*
X-60861904Y70447619D01*
X-61147619Y70447619D02*
X-61147619Y71447619D01*
X-61052380Y71304761D01*
X-60957142Y71209523D01*
X-60861904Y71161904D01*
X-62385714Y70447619D02*
X-61814285Y70447619D01*
X-62100000Y70447619D02*
X-62100000Y71447619D01*
X-62004761Y71304761D01*
X-61909523Y71209523D01*
X-61814285Y71161904D01*
X-62957142Y71019047D02*
X-62861904Y71066666D01*
X-62814285Y71114285D01*
X-62766666Y71209523D01*
X-62766666Y71257142D01*
X-62814285Y71352380D01*
X-62861904Y71400000D01*
X-62957142Y71447619D01*
X-63147619Y71447619D01*
X-63242857Y71400000D01*
X-63290476Y71352380D01*
X-63338095Y71257142D01*
X-63338095Y71209523D01*
X-63290476Y71114285D01*
X-63242857Y71066666D01*
X-63147619Y71019047D01*
X-62957142Y71019047D01*
X-62861904Y70971428D01*
X-62814285Y70923809D01*
X-62766666Y70828571D01*
X-62766666Y70638095D01*
X-62814285Y70542857D01*
X-62861904Y70495238D01*
X-62957142Y70447619D01*
X-63147619Y70447619D01*
X-63242857Y70495238D01*
X-63290476Y70542857D01*
X-63338095Y70638095D01*
X-63338095Y70828571D01*
X-63290476Y70923809D01*
X-63242857Y70971428D01*
X-63147619Y71019047D01*
X-60480952Y74447619D02*
X-60147619Y74923809D01*
X-59909523Y74447619D02*
X-59909523Y75447619D01*
X-60290476Y75447619D01*
X-60385714Y75400000D01*
X-60433333Y75352380D01*
X-60480952Y75257142D01*
X-60480952Y75114285D01*
X-60433333Y75019047D01*
X-60385714Y74971428D01*
X-60290476Y74923809D01*
X-59909523Y74923809D01*
X-61433333Y74447619D02*
X-60861904Y74447619D01*
X-61147619Y74447619D02*
X-61147619Y75447619D01*
X-61052380Y75304761D01*
X-60957142Y75209523D01*
X-60861904Y75161904D01*
X-62385714Y74447619D02*
X-61814285Y74447619D01*
X-62100000Y74447619D02*
X-62100000Y75447619D01*
X-62004761Y75304761D01*
X-61909523Y75209523D01*
X-61814285Y75161904D01*
X-62719047Y75447619D02*
X-63385714Y75447619D01*
X-62957142Y74447619D01*
X4519047Y70542857D02*
X4566666Y70495238D01*
X4709523Y70447619D01*
X4804761Y70447619D01*
X4947619Y70495238D01*
X5042857Y70590476D01*
X5090476Y70685714D01*
X5138095Y70876190D01*
X5138095Y71019047D01*
X5090476Y71209523D01*
X5042857Y71304761D01*
X4947619Y71400000D01*
X4804761Y71447619D01*
X4709523Y71447619D01*
X4566666Y71400000D01*
X4519047Y71352380D01*
X3566666Y70447619D02*
X4138095Y70447619D01*
X3852380Y70447619D02*
X3852380Y71447619D01*
X3947619Y71304761D01*
X4042857Y71209523D01*
X4138095Y71161904D01*
X2947619Y71447619D02*
X2852380Y71447619D01*
X2757142Y71400000D01*
X2709523Y71352380D01*
X2661904Y71257142D01*
X2614285Y71066666D01*
X2614285Y70828571D01*
X2661904Y70638095D01*
X2709523Y70542857D01*
X2757142Y70495238D01*
X2852380Y70447619D01*
X2947619Y70447619D01*
X3042857Y70495238D01*
X3090476Y70542857D01*
X3138095Y70638095D01*
X3185714Y70828571D01*
X3185714Y71066666D01*
X3138095Y71257142D01*
X3090476Y71352380D01*
X3042857Y71400000D01*
X2947619Y71447619D01*
X2042857Y71019047D02*
X2138095Y71066666D01*
X2185714Y71114285D01*
X2233333Y71209523D01*
X2233333Y71257142D01*
X2185714Y71352380D01*
X2138095Y71400000D01*
X2042857Y71447619D01*
X1852380Y71447619D01*
X1757142Y71400000D01*
X1709523Y71352380D01*
X1661904Y71257142D01*
X1661904Y71209523D01*
X1709523Y71114285D01*
X1757142Y71066666D01*
X1852380Y71019047D01*
X2042857Y71019047D01*
X2138095Y70971428D01*
X2185714Y70923809D01*
X2233333Y70828571D01*
X2233333Y70638095D01*
X2185714Y70542857D01*
X2138095Y70495238D01*
X2042857Y70447619D01*
X1852380Y70447619D01*
X1757142Y70495238D01*
X1709523Y70542857D01*
X1661904Y70638095D01*
X1661904Y70828571D01*
X1709523Y70923809D01*
X1757142Y70971428D01*
X1852380Y71019047D01*
X8519047Y72442857D02*
X8566666Y72395238D01*
X8709523Y72347619D01*
X8804761Y72347619D01*
X8947619Y72395238D01*
X9042857Y72490476D01*
X9090476Y72585714D01*
X9138095Y72776190D01*
X9138095Y72919047D01*
X9090476Y73109523D01*
X9042857Y73204761D01*
X8947619Y73300000D01*
X8804761Y73347619D01*
X8709523Y73347619D01*
X8566666Y73300000D01*
X8519047Y73252380D01*
X7566666Y72347619D02*
X8138095Y72347619D01*
X7852380Y72347619D02*
X7852380Y73347619D01*
X7947619Y73204761D01*
X8042857Y73109523D01*
X8138095Y73061904D01*
X6947619Y73347619D02*
X6852380Y73347619D01*
X6757142Y73300000D01*
X6709523Y73252380D01*
X6661904Y73157142D01*
X6614285Y72966666D01*
X6614285Y72728571D01*
X6661904Y72538095D01*
X6709523Y72442857D01*
X6757142Y72395238D01*
X6852380Y72347619D01*
X6947619Y72347619D01*
X7042857Y72395238D01*
X7090476Y72442857D01*
X7138095Y72538095D01*
X7185714Y72728571D01*
X7185714Y72966666D01*
X7138095Y73157142D01*
X7090476Y73252380D01*
X7042857Y73300000D01*
X6947619Y73347619D01*
X6280952Y73347619D02*
X5614285Y73347619D01*
X6042857Y72347619D01*
X-18480952Y70542857D02*
X-18433333Y70495238D01*
X-18290476Y70447619D01*
X-18195238Y70447619D01*
X-18052380Y70495238D01*
X-17957142Y70590476D01*
X-17909523Y70685714D01*
X-17861904Y70876190D01*
X-17861904Y71019047D01*
X-17909523Y71209523D01*
X-17957142Y71304761D01*
X-18052380Y71400000D01*
X-18195238Y71447619D01*
X-18290476Y71447619D01*
X-18433333Y71400000D01*
X-18480952Y71352380D01*
X-19433333Y70447619D02*
X-18861904Y70447619D01*
X-19147619Y70447619D02*
X-19147619Y71447619D01*
X-19052380Y71304761D01*
X-18957142Y71209523D01*
X-18861904Y71161904D01*
X-20052380Y71447619D02*
X-20147619Y71447619D01*
X-20242857Y71400000D01*
X-20290476Y71352380D01*
X-20338095Y71257142D01*
X-20385714Y71066666D01*
X-20385714Y70828571D01*
X-20338095Y70638095D01*
X-20290476Y70542857D01*
X-20242857Y70495238D01*
X-20147619Y70447619D01*
X-20052380Y70447619D01*
X-19957142Y70495238D01*
X-19909523Y70542857D01*
X-19861904Y70638095D01*
X-19814285Y70828571D01*
X-19814285Y71066666D01*
X-19861904Y71257142D01*
X-19909523Y71352380D01*
X-19957142Y71400000D01*
X-20052380Y71447619D01*
X-21242857Y71447619D02*
X-21052380Y71447619D01*
X-20957142Y71400000D01*
X-20909523Y71352380D01*
X-20814285Y71209523D01*
X-20766666Y71019047D01*
X-20766666Y70638095D01*
X-20814285Y70542857D01*
X-20861904Y70495238D01*
X-20957142Y70447619D01*
X-21147619Y70447619D01*
X-21242857Y70495238D01*
X-21290476Y70542857D01*
X-21338095Y70638095D01*
X-21338095Y70876190D01*
X-21290476Y70971428D01*
X-21242857Y71019047D01*
X-21147619Y71066666D01*
X-20957142Y71066666D01*
X-20861904Y71019047D01*
X-20814285Y70971428D01*
X-20766666Y70876190D01*
X-14480952Y72542857D02*
X-14433333Y72495238D01*
X-14290476Y72447619D01*
X-14195238Y72447619D01*
X-14052380Y72495238D01*
X-13957142Y72590476D01*
X-13909523Y72685714D01*
X-13861904Y72876190D01*
X-13861904Y73019047D01*
X-13909523Y73209523D01*
X-13957142Y73304761D01*
X-14052380Y73400000D01*
X-14195238Y73447619D01*
X-14290476Y73447619D01*
X-14433333Y73400000D01*
X-14480952Y73352380D01*
X-15433333Y72447619D02*
X-14861904Y72447619D01*
X-15147619Y72447619D02*
X-15147619Y73447619D01*
X-15052380Y73304761D01*
X-14957142Y73209523D01*
X-14861904Y73161904D01*
X-16052380Y73447619D02*
X-16147619Y73447619D01*
X-16242857Y73400000D01*
X-16290476Y73352380D01*
X-16338095Y73257142D01*
X-16385714Y73066666D01*
X-16385714Y72828571D01*
X-16338095Y72638095D01*
X-16290476Y72542857D01*
X-16242857Y72495238D01*
X-16147619Y72447619D01*
X-16052380Y72447619D01*
X-15957142Y72495238D01*
X-15909523Y72542857D01*
X-15861904Y72638095D01*
X-15814285Y72828571D01*
X-15814285Y73066666D01*
X-15861904Y73257142D01*
X-15909523Y73352380D01*
X-15957142Y73400000D01*
X-16052380Y73447619D01*
X-17290476Y73447619D02*
X-16814285Y73447619D01*
X-16766666Y72971428D01*
X-16814285Y73019047D01*
X-16909523Y73066666D01*
X-17147619Y73066666D01*
X-17242857Y73019047D01*
X-17290476Y72971428D01*
X-17338095Y72876190D01*
X-17338095Y72638095D01*
X-17290476Y72542857D01*
X-17242857Y72495238D01*
X-17147619Y72447619D01*
X-16909523Y72447619D01*
X-16814285Y72495238D01*
X-16766666Y72542857D01*
X-41580952Y70542857D02*
X-41533333Y70495238D01*
X-41390476Y70447619D01*
X-41295238Y70447619D01*
X-41152380Y70495238D01*
X-41057142Y70590476D01*
X-41009523Y70685714D01*
X-40961904Y70876190D01*
X-40961904Y71019047D01*
X-41009523Y71209523D01*
X-41057142Y71304761D01*
X-41152380Y71400000D01*
X-41295238Y71447619D01*
X-41390476Y71447619D01*
X-41533333Y71400000D01*
X-41580952Y71352380D01*
X-42533333Y70447619D02*
X-41961904Y70447619D01*
X-42247619Y70447619D02*
X-42247619Y71447619D01*
X-42152380Y71304761D01*
X-42057142Y71209523D01*
X-41961904Y71161904D01*
X-43152380Y71447619D02*
X-43247619Y71447619D01*
X-43342857Y71400000D01*
X-43390476Y71352380D01*
X-43438095Y71257142D01*
X-43485714Y71066666D01*
X-43485714Y70828571D01*
X-43438095Y70638095D01*
X-43390476Y70542857D01*
X-43342857Y70495238D01*
X-43247619Y70447619D01*
X-43152380Y70447619D01*
X-43057142Y70495238D01*
X-43009523Y70542857D01*
X-42961904Y70638095D01*
X-42914285Y70828571D01*
X-42914285Y71066666D01*
X-42961904Y71257142D01*
X-43009523Y71352380D01*
X-43057142Y71400000D01*
X-43152380Y71447619D01*
X-44342857Y71114285D02*
X-44342857Y70447619D01*
X-44104761Y71495238D02*
X-43866666Y70780952D01*
X-44485714Y70780952D01*
X-37480952Y72542857D02*
X-37433333Y72495238D01*
X-37290476Y72447619D01*
X-37195238Y72447619D01*
X-37052380Y72495238D01*
X-36957142Y72590476D01*
X-36909523Y72685714D01*
X-36861904Y72876190D01*
X-36861904Y73019047D01*
X-36909523Y73209523D01*
X-36957142Y73304761D01*
X-37052380Y73400000D01*
X-37195238Y73447619D01*
X-37290476Y73447619D01*
X-37433333Y73400000D01*
X-37480952Y73352380D01*
X-38433333Y72447619D02*
X-37861904Y72447619D01*
X-38147619Y72447619D02*
X-38147619Y73447619D01*
X-38052380Y73304761D01*
X-37957142Y73209523D01*
X-37861904Y73161904D01*
X-39052380Y73447619D02*
X-39147619Y73447619D01*
X-39242857Y73400000D01*
X-39290476Y73352380D01*
X-39338095Y73257142D01*
X-39385714Y73066666D01*
X-39385714Y72828571D01*
X-39338095Y72638095D01*
X-39290476Y72542857D01*
X-39242857Y72495238D01*
X-39147619Y72447619D01*
X-39052380Y72447619D01*
X-38957142Y72495238D01*
X-38909523Y72542857D01*
X-38861904Y72638095D01*
X-38814285Y72828571D01*
X-38814285Y73066666D01*
X-38861904Y73257142D01*
X-38909523Y73352380D01*
X-38957142Y73400000D01*
X-39052380Y73447619D01*
X-39719047Y73447619D02*
X-40338095Y73447619D01*
X-40004761Y73066666D01*
X-40147619Y73066666D01*
X-40242857Y73019047D01*
X-40290476Y72971428D01*
X-40338095Y72876190D01*
X-40338095Y72638095D01*
X-40290476Y72542857D01*
X-40242857Y72495238D01*
X-40147619Y72447619D01*
X-39861904Y72447619D01*
X-39766666Y72495238D01*
X-39719047Y72542857D01*
X-64580952Y70542857D02*
X-64533333Y70495238D01*
X-64390476Y70447619D01*
X-64295238Y70447619D01*
X-64152380Y70495238D01*
X-64057142Y70590476D01*
X-64009523Y70685714D01*
X-63961904Y70876190D01*
X-63961904Y71019047D01*
X-64009523Y71209523D01*
X-64057142Y71304761D01*
X-64152380Y71400000D01*
X-64295238Y71447619D01*
X-64390476Y71447619D01*
X-64533333Y71400000D01*
X-64580952Y71352380D01*
X-65533333Y70447619D02*
X-64961904Y70447619D01*
X-65247619Y70447619D02*
X-65247619Y71447619D01*
X-65152380Y71304761D01*
X-65057142Y71209523D01*
X-64961904Y71161904D01*
X-66152380Y71447619D02*
X-66247619Y71447619D01*
X-66342857Y71400000D01*
X-66390476Y71352380D01*
X-66438095Y71257142D01*
X-66485714Y71066666D01*
X-66485714Y70828571D01*
X-66438095Y70638095D01*
X-66390476Y70542857D01*
X-66342857Y70495238D01*
X-66247619Y70447619D01*
X-66152380Y70447619D01*
X-66057142Y70495238D01*
X-66009523Y70542857D01*
X-65961904Y70638095D01*
X-65914285Y70828571D01*
X-65914285Y71066666D01*
X-65961904Y71257142D01*
X-66009523Y71352380D01*
X-66057142Y71400000D01*
X-66152380Y71447619D01*
X-66866666Y71352380D02*
X-66914285Y71400000D01*
X-67009523Y71447619D01*
X-67247619Y71447619D01*
X-67342857Y71400000D01*
X-67390476Y71352380D01*
X-67438095Y71257142D01*
X-67438095Y71161904D01*
X-67390476Y71019047D01*
X-66819047Y70447619D01*
X-67438095Y70447619D01*
X-60380952Y72542857D02*
X-60333333Y72495238D01*
X-60190476Y72447619D01*
X-60095238Y72447619D01*
X-59952380Y72495238D01*
X-59857142Y72590476D01*
X-59809523Y72685714D01*
X-59761904Y72876190D01*
X-59761904Y73019047D01*
X-59809523Y73209523D01*
X-59857142Y73304761D01*
X-59952380Y73400000D01*
X-60095238Y73447619D01*
X-60190476Y73447619D01*
X-60333333Y73400000D01*
X-60380952Y73352380D01*
X-61333333Y72447619D02*
X-60761904Y72447619D01*
X-61047619Y72447619D02*
X-61047619Y73447619D01*
X-60952380Y73304761D01*
X-60857142Y73209523D01*
X-60761904Y73161904D01*
X-61952380Y73447619D02*
X-62047619Y73447619D01*
X-62142857Y73400000D01*
X-62190476Y73352380D01*
X-62238095Y73257142D01*
X-62285714Y73066666D01*
X-62285714Y72828571D01*
X-62238095Y72638095D01*
X-62190476Y72542857D01*
X-62142857Y72495238D01*
X-62047619Y72447619D01*
X-61952380Y72447619D01*
X-61857142Y72495238D01*
X-61809523Y72542857D01*
X-61761904Y72638095D01*
X-61714285Y72828571D01*
X-61714285Y73066666D01*
X-61761904Y73257142D01*
X-61809523Y73352380D01*
X-61857142Y73400000D01*
X-61952380Y73447619D01*
X-63238095Y72447619D02*
X-62666666Y72447619D01*
X-62952380Y72447619D02*
X-62952380Y73447619D01*
X-62857142Y73304761D01*
X-62761904Y73209523D01*
X-62666666Y73161904D01*
X12919047Y69547619D02*
X13252380Y70023809D01*
X13490476Y69547619D02*
X13490476Y70547619D01*
X13109523Y70547619D01*
X13014285Y70500000D01*
X12966666Y70452380D01*
X12919047Y70357142D01*
X12919047Y70214285D01*
X12966666Y70119047D01*
X13014285Y70071428D01*
X13109523Y70023809D01*
X13490476Y70023809D01*
X11966666Y69547619D02*
X12538095Y69547619D01*
X12252380Y69547619D02*
X12252380Y70547619D01*
X12347619Y70404761D01*
X12442857Y70309523D01*
X12538095Y70261904D01*
X11347619Y70547619D02*
X11252380Y70547619D01*
X11157142Y70500000D01*
X11109523Y70452380D01*
X11061904Y70357142D01*
X11014285Y70166666D01*
X11014285Y69928571D01*
X11061904Y69738095D01*
X11109523Y69642857D01*
X11157142Y69595238D01*
X11252380Y69547619D01*
X11347619Y69547619D01*
X11442857Y69595238D01*
X11490476Y69642857D01*
X11538095Y69738095D01*
X11585714Y69928571D01*
X11585714Y70166666D01*
X11538095Y70357142D01*
X11490476Y70452380D01*
X11442857Y70500000D01*
X11347619Y70547619D01*
X10061904Y69547619D02*
X10633333Y69547619D01*
X10347619Y69547619D02*
X10347619Y70547619D01*
X10442857Y70404761D01*
X10538095Y70309523D01*
X10633333Y70261904D01*
X23819047Y69547619D02*
X24152380Y70023809D01*
X24390476Y69547619D02*
X24390476Y70547619D01*
X24009523Y70547619D01*
X23914285Y70500000D01*
X23866666Y70452380D01*
X23819047Y70357142D01*
X23819047Y70214285D01*
X23866666Y70119047D01*
X23914285Y70071428D01*
X24009523Y70023809D01*
X24390476Y70023809D01*
X22866666Y69547619D02*
X23438095Y69547619D01*
X23152380Y69547619D02*
X23152380Y70547619D01*
X23247619Y70404761D01*
X23342857Y70309523D01*
X23438095Y70261904D01*
X22247619Y70547619D02*
X22152380Y70547619D01*
X22057142Y70500000D01*
X22009523Y70452380D01*
X21961904Y70357142D01*
X21914285Y70166666D01*
X21914285Y69928571D01*
X21961904Y69738095D01*
X22009523Y69642857D01*
X22057142Y69595238D01*
X22152380Y69547619D01*
X22247619Y69547619D01*
X22342857Y69595238D01*
X22390476Y69642857D01*
X22438095Y69738095D01*
X22485714Y69928571D01*
X22485714Y70166666D01*
X22438095Y70357142D01*
X22390476Y70452380D01*
X22342857Y70500000D01*
X22247619Y70547619D01*
X21533333Y70452380D02*
X21485714Y70500000D01*
X21390476Y70547619D01*
X21152380Y70547619D01*
X21057142Y70500000D01*
X21009523Y70452380D01*
X20961904Y70357142D01*
X20961904Y70261904D01*
X21009523Y70119047D01*
X21580952Y69547619D01*
X20961904Y69547619D01*
X35919047Y69547619D02*
X36252380Y70023809D01*
X36490476Y69547619D02*
X36490476Y70547619D01*
X36109523Y70547619D01*
X36014285Y70500000D01*
X35966666Y70452380D01*
X35919047Y70357142D01*
X35919047Y70214285D01*
X35966666Y70119047D01*
X36014285Y70071428D01*
X36109523Y70023809D01*
X36490476Y70023809D01*
X34966666Y69547619D02*
X35538095Y69547619D01*
X35252380Y69547619D02*
X35252380Y70547619D01*
X35347619Y70404761D01*
X35442857Y70309523D01*
X35538095Y70261904D01*
X34347619Y70547619D02*
X34252380Y70547619D01*
X34157142Y70500000D01*
X34109523Y70452380D01*
X34061904Y70357142D01*
X34014285Y70166666D01*
X34014285Y69928571D01*
X34061904Y69738095D01*
X34109523Y69642857D01*
X34157142Y69595238D01*
X34252380Y69547619D01*
X34347619Y69547619D01*
X34442857Y69595238D01*
X34490476Y69642857D01*
X34538095Y69738095D01*
X34585714Y69928571D01*
X34585714Y70166666D01*
X34538095Y70357142D01*
X34490476Y70452380D01*
X34442857Y70500000D01*
X34347619Y70547619D01*
X33680952Y70547619D02*
X33061904Y70547619D01*
X33395238Y70166666D01*
X33252380Y70166666D01*
X33157142Y70119047D01*
X33109523Y70071428D01*
X33061904Y69976190D01*
X33061904Y69738095D01*
X33109523Y69642857D01*
X33157142Y69595238D01*
X33252380Y69547619D01*
X33538095Y69547619D01*
X33633333Y69595238D01*
X33680952Y69642857D01*
X46819047Y69547619D02*
X47152380Y70023809D01*
X47390476Y69547619D02*
X47390476Y70547619D01*
X47009523Y70547619D01*
X46914285Y70500000D01*
X46866666Y70452380D01*
X46819047Y70357142D01*
X46819047Y70214285D01*
X46866666Y70119047D01*
X46914285Y70071428D01*
X47009523Y70023809D01*
X47390476Y70023809D01*
X45866666Y69547619D02*
X46438095Y69547619D01*
X46152380Y69547619D02*
X46152380Y70547619D01*
X46247619Y70404761D01*
X46342857Y70309523D01*
X46438095Y70261904D01*
X45247619Y70547619D02*
X45152380Y70547619D01*
X45057142Y70500000D01*
X45009523Y70452380D01*
X44961904Y70357142D01*
X44914285Y70166666D01*
X44914285Y69928571D01*
X44961904Y69738095D01*
X45009523Y69642857D01*
X45057142Y69595238D01*
X45152380Y69547619D01*
X45247619Y69547619D01*
X45342857Y69595238D01*
X45390476Y69642857D01*
X45438095Y69738095D01*
X45485714Y69928571D01*
X45485714Y70166666D01*
X45438095Y70357142D01*
X45390476Y70452380D01*
X45342857Y70500000D01*
X45247619Y70547619D01*
X44057142Y70214285D02*
X44057142Y69547619D01*
X44295238Y70595238D02*
X44533333Y69880952D01*
X43914285Y69880952D01*
X61052380Y70519047D02*
X60576190Y70852380D01*
X61052380Y71090476D02*
X60052380Y71090476D01*
X60052380Y70709523D01*
X60100000Y70614285D01*
X60147619Y70566666D01*
X60242857Y70519047D01*
X60385714Y70519047D01*
X60480952Y70566666D01*
X60528571Y70614285D01*
X60576190Y70709523D01*
X60576190Y71090476D01*
X61052380Y69566666D02*
X61052380Y70138095D01*
X61052380Y69852380D02*
X60052380Y69852380D01*
X60195238Y69947619D01*
X60290476Y70042857D01*
X60338095Y70138095D01*
X60052380Y68947619D02*
X60052380Y68852380D01*
X60100000Y68757142D01*
X60147619Y68709523D01*
X60242857Y68661904D01*
X60433333Y68614285D01*
X60671428Y68614285D01*
X60861904Y68661904D01*
X60957142Y68709523D01*
X61004761Y68757142D01*
X61052380Y68852380D01*
X61052380Y68947619D01*
X61004761Y69042857D01*
X60957142Y69090476D01*
X60861904Y69138095D01*
X60671428Y69185714D01*
X60433333Y69185714D01*
X60242857Y69138095D01*
X60147619Y69090476D01*
X60100000Y69042857D01*
X60052380Y68947619D01*
X60052380Y67709523D02*
X60052380Y68185714D01*
X60528571Y68233333D01*
X60480952Y68185714D01*
X60433333Y68090476D01*
X60433333Y67852380D01*
X60480952Y67757142D01*
X60528571Y67709523D01*
X60623809Y67661904D01*
X60861904Y67661904D01*
X60957142Y67709523D01*
X61004761Y67757142D01*
X61052380Y67852380D01*
X61052380Y68090476D01*
X61004761Y68185714D01*
X60957142Y68233333D01*
X64852380Y70519047D02*
X64376190Y70852380D01*
X64852380Y71090476D02*
X63852380Y71090476D01*
X63852380Y70709523D01*
X63900000Y70614285D01*
X63947619Y70566666D01*
X64042857Y70519047D01*
X64185714Y70519047D01*
X64280952Y70566666D01*
X64328571Y70614285D01*
X64376190Y70709523D01*
X64376190Y71090476D01*
X64852380Y69566666D02*
X64852380Y70138095D01*
X64852380Y69852380D02*
X63852380Y69852380D01*
X63995238Y69947619D01*
X64090476Y70042857D01*
X64138095Y70138095D01*
X63852380Y68947619D02*
X63852380Y68852380D01*
X63900000Y68757142D01*
X63947619Y68709523D01*
X64042857Y68661904D01*
X64233333Y68614285D01*
X64471428Y68614285D01*
X64661904Y68661904D01*
X64757142Y68709523D01*
X64804761Y68757142D01*
X64852380Y68852380D01*
X64852380Y68947619D01*
X64804761Y69042857D01*
X64757142Y69090476D01*
X64661904Y69138095D01*
X64471428Y69185714D01*
X64233333Y69185714D01*
X64042857Y69138095D01*
X63947619Y69090476D01*
X63900000Y69042857D01*
X63852380Y68947619D01*
X63852380Y67757142D02*
X63852380Y67947619D01*
X63900000Y68042857D01*
X63947619Y68090476D01*
X64090476Y68185714D01*
X64280952Y68233333D01*
X64661904Y68233333D01*
X64757142Y68185714D01*
X64804761Y68138095D01*
X64852380Y68042857D01*
X64852380Y67852380D01*
X64804761Y67757142D01*
X64757142Y67709523D01*
X64661904Y67661904D01*
X64423809Y67661904D01*
X64328571Y67709523D01*
X64280952Y67757142D01*
X64233333Y67852380D01*
X64233333Y68042857D01*
X64280952Y68138095D01*
X64328571Y68185714D01*
X64423809Y68233333D01*
X84052380Y70419047D02*
X83576190Y70752380D01*
X84052380Y70990476D02*
X83052380Y70990476D01*
X83052380Y70609523D01*
X83100000Y70514285D01*
X83147619Y70466666D01*
X83242857Y70419047D01*
X83385714Y70419047D01*
X83480952Y70466666D01*
X83528571Y70514285D01*
X83576190Y70609523D01*
X83576190Y70990476D01*
X84052380Y69466666D02*
X84052380Y70038095D01*
X84052380Y69752380D02*
X83052380Y69752380D01*
X83195238Y69847619D01*
X83290476Y69942857D01*
X83338095Y70038095D01*
X83052380Y68847619D02*
X83052380Y68752380D01*
X83100000Y68657142D01*
X83147619Y68609523D01*
X83242857Y68561904D01*
X83433333Y68514285D01*
X83671428Y68514285D01*
X83861904Y68561904D01*
X83957142Y68609523D01*
X84004761Y68657142D01*
X84052380Y68752380D01*
X84052380Y68847619D01*
X84004761Y68942857D01*
X83957142Y68990476D01*
X83861904Y69038095D01*
X83671428Y69085714D01*
X83433333Y69085714D01*
X83242857Y69038095D01*
X83147619Y68990476D01*
X83100000Y68942857D01*
X83052380Y68847619D01*
X83052380Y68180952D02*
X83052380Y67514285D01*
X84052380Y67942857D01*
X87852380Y70419047D02*
X87376190Y70752380D01*
X87852380Y70990476D02*
X86852380Y70990476D01*
X86852380Y70609523D01*
X86900000Y70514285D01*
X86947619Y70466666D01*
X87042857Y70419047D01*
X87185714Y70419047D01*
X87280952Y70466666D01*
X87328571Y70514285D01*
X87376190Y70609523D01*
X87376190Y70990476D01*
X87852380Y69466666D02*
X87852380Y70038095D01*
X87852380Y69752380D02*
X86852380Y69752380D01*
X86995238Y69847619D01*
X87090476Y69942857D01*
X87138095Y70038095D01*
X86852380Y68847619D02*
X86852380Y68752380D01*
X86900000Y68657142D01*
X86947619Y68609523D01*
X87042857Y68561904D01*
X87233333Y68514285D01*
X87471428Y68514285D01*
X87661904Y68561904D01*
X87757142Y68609523D01*
X87804761Y68657142D01*
X87852380Y68752380D01*
X87852380Y68847619D01*
X87804761Y68942857D01*
X87757142Y68990476D01*
X87661904Y69038095D01*
X87471428Y69085714D01*
X87233333Y69085714D01*
X87042857Y69038095D01*
X86947619Y68990476D01*
X86900000Y68942857D01*
X86852380Y68847619D01*
X87280952Y67942857D02*
X87233333Y68038095D01*
X87185714Y68085714D01*
X87090476Y68133333D01*
X87042857Y68133333D01*
X86947619Y68085714D01*
X86900000Y68038095D01*
X86852380Y67942857D01*
X86852380Y67752380D01*
X86900000Y67657142D01*
X86947619Y67609523D01*
X87042857Y67561904D01*
X87090476Y67561904D01*
X87185714Y67609523D01*
X87233333Y67657142D01*
X87280952Y67752380D01*
X87280952Y67942857D01*
X87328571Y68038095D01*
X87376190Y68085714D01*
X87471428Y68133333D01*
X87661904Y68133333D01*
X87757142Y68085714D01*
X87804761Y68038095D01*
X87852380Y67942857D01*
X87852380Y67752380D01*
X87804761Y67657142D01*
X87757142Y67609523D01*
X87661904Y67561904D01*
X87471428Y67561904D01*
X87376190Y67609523D01*
X87328571Y67657142D01*
X87280952Y67752380D01*
X107052380Y70419047D02*
X106576190Y70752380D01*
X107052380Y70990476D02*
X106052380Y70990476D01*
X106052380Y70609523D01*
X106100000Y70514285D01*
X106147619Y70466666D01*
X106242857Y70419047D01*
X106385714Y70419047D01*
X106480952Y70466666D01*
X106528571Y70514285D01*
X106576190Y70609523D01*
X106576190Y70990476D01*
X107052380Y69466666D02*
X107052380Y70038095D01*
X107052380Y69752380D02*
X106052380Y69752380D01*
X106195238Y69847619D01*
X106290476Y69942857D01*
X106338095Y70038095D01*
X106052380Y68847619D02*
X106052380Y68752380D01*
X106100000Y68657142D01*
X106147619Y68609523D01*
X106242857Y68561904D01*
X106433333Y68514285D01*
X106671428Y68514285D01*
X106861904Y68561904D01*
X106957142Y68609523D01*
X107004761Y68657142D01*
X107052380Y68752380D01*
X107052380Y68847619D01*
X107004761Y68942857D01*
X106957142Y68990476D01*
X106861904Y69038095D01*
X106671428Y69085714D01*
X106433333Y69085714D01*
X106242857Y69038095D01*
X106147619Y68990476D01*
X106100000Y68942857D01*
X106052380Y68847619D01*
X107052380Y68038095D02*
X107052380Y67847619D01*
X107004761Y67752380D01*
X106957142Y67704761D01*
X106814285Y67609523D01*
X106623809Y67561904D01*
X106242857Y67561904D01*
X106147619Y67609523D01*
X106100000Y67657142D01*
X106052380Y67752380D01*
X106052380Y67942857D01*
X106100000Y68038095D01*
X106147619Y68085714D01*
X106242857Y68133333D01*
X106480952Y68133333D01*
X106576190Y68085714D01*
X106623809Y68038095D01*
X106671428Y67942857D01*
X106671428Y67752380D01*
X106623809Y67657142D01*
X106576190Y67609523D01*
X106480952Y67561904D01*
X110852380Y70419047D02*
X110376190Y70752380D01*
X110852380Y70990476D02*
X109852380Y70990476D01*
X109852380Y70609523D01*
X109900000Y70514285D01*
X109947619Y70466666D01*
X110042857Y70419047D01*
X110185714Y70419047D01*
X110280952Y70466666D01*
X110328571Y70514285D01*
X110376190Y70609523D01*
X110376190Y70990476D01*
X110852380Y69466666D02*
X110852380Y70038095D01*
X110852380Y69752380D02*
X109852380Y69752380D01*
X109995238Y69847619D01*
X110090476Y69942857D01*
X110138095Y70038095D01*
X110852380Y68514285D02*
X110852380Y69085714D01*
X110852380Y68800000D02*
X109852380Y68800000D01*
X109995238Y68895238D01*
X110090476Y68990476D01*
X110138095Y69085714D01*
X109852380Y67895238D02*
X109852380Y67800000D01*
X109900000Y67704761D01*
X109947619Y67657142D01*
X110042857Y67609523D01*
X110233333Y67561904D01*
X110471428Y67561904D01*
X110661904Y67609523D01*
X110757142Y67657142D01*
X110804761Y67704761D01*
X110852380Y67800000D01*
X110852380Y67895238D01*
X110804761Y67990476D01*
X110757142Y68038095D01*
X110661904Y68085714D01*
X110471428Y68133333D01*
X110233333Y68133333D01*
X110042857Y68085714D01*
X109947619Y68038095D01*
X109900000Y67990476D01*
X109852380Y67895238D01*
X130052380Y70419047D02*
X129576190Y70752380D01*
X130052380Y70990476D02*
X129052380Y70990476D01*
X129052380Y70609523D01*
X129100000Y70514285D01*
X129147619Y70466666D01*
X129242857Y70419047D01*
X129385714Y70419047D01*
X129480952Y70466666D01*
X129528571Y70514285D01*
X129576190Y70609523D01*
X129576190Y70990476D01*
X130052380Y69466666D02*
X130052380Y70038095D01*
X130052380Y69752380D02*
X129052380Y69752380D01*
X129195238Y69847619D01*
X129290476Y69942857D01*
X129338095Y70038095D01*
X130052380Y68514285D02*
X130052380Y69085714D01*
X130052380Y68800000D02*
X129052380Y68800000D01*
X129195238Y68895238D01*
X129290476Y68990476D01*
X129338095Y69085714D01*
X130052380Y67561904D02*
X130052380Y68133333D01*
X130052380Y67847619D02*
X129052380Y67847619D01*
X129195238Y67942857D01*
X129290476Y68038095D01*
X129338095Y68133333D01*
X133852380Y70419047D02*
X133376190Y70752380D01*
X133852380Y70990476D02*
X132852380Y70990476D01*
X132852380Y70609523D01*
X132900000Y70514285D01*
X132947619Y70466666D01*
X133042857Y70419047D01*
X133185714Y70419047D01*
X133280952Y70466666D01*
X133328571Y70514285D01*
X133376190Y70609523D01*
X133376190Y70990476D01*
X133852380Y69466666D02*
X133852380Y70038095D01*
X133852380Y69752380D02*
X132852380Y69752380D01*
X132995238Y69847619D01*
X133090476Y69942857D01*
X133138095Y70038095D01*
X133852380Y68514285D02*
X133852380Y69085714D01*
X133852380Y68800000D02*
X132852380Y68800000D01*
X132995238Y68895238D01*
X133090476Y68990476D01*
X133138095Y69085714D01*
X132947619Y68133333D02*
X132900000Y68085714D01*
X132852380Y67990476D01*
X132852380Y67752380D01*
X132900000Y67657142D01*
X132947619Y67609523D01*
X133042857Y67561904D01*
X133138095Y67561904D01*
X133280952Y67609523D01*
X133852380Y68180952D01*
X133852380Y67561904D01*
X153052380Y70419047D02*
X152576190Y70752380D01*
X153052380Y70990476D02*
X152052380Y70990476D01*
X152052380Y70609523D01*
X152100000Y70514285D01*
X152147619Y70466666D01*
X152242857Y70419047D01*
X152385714Y70419047D01*
X152480952Y70466666D01*
X152528571Y70514285D01*
X152576190Y70609523D01*
X152576190Y70990476D01*
X153052380Y69466666D02*
X153052380Y70038095D01*
X153052380Y69752380D02*
X152052380Y69752380D01*
X152195238Y69847619D01*
X152290476Y69942857D01*
X152338095Y70038095D01*
X153052380Y68514285D02*
X153052380Y69085714D01*
X153052380Y68800000D02*
X152052380Y68800000D01*
X152195238Y68895238D01*
X152290476Y68990476D01*
X152338095Y69085714D01*
X152052380Y68180952D02*
X152052380Y67561904D01*
X152433333Y67895238D01*
X152433333Y67752380D01*
X152480952Y67657142D01*
X152528571Y67609523D01*
X152623809Y67561904D01*
X152861904Y67561904D01*
X152957142Y67609523D01*
X153004761Y67657142D01*
X153052380Y67752380D01*
X153052380Y68038095D01*
X153004761Y68133333D01*
X152957142Y68180952D01*
X156852380Y70419047D02*
X156376190Y70752380D01*
X156852380Y70990476D02*
X155852380Y70990476D01*
X155852380Y70609523D01*
X155900000Y70514285D01*
X155947619Y70466666D01*
X156042857Y70419047D01*
X156185714Y70419047D01*
X156280952Y70466666D01*
X156328571Y70514285D01*
X156376190Y70609523D01*
X156376190Y70990476D01*
X156852380Y69466666D02*
X156852380Y70038095D01*
X156852380Y69752380D02*
X155852380Y69752380D01*
X155995238Y69847619D01*
X156090476Y69942857D01*
X156138095Y70038095D01*
X156852380Y68514285D02*
X156852380Y69085714D01*
X156852380Y68800000D02*
X155852380Y68800000D01*
X155995238Y68895238D01*
X156090476Y68990476D01*
X156138095Y69085714D01*
X156185714Y67657142D02*
X156852380Y67657142D01*
X155804761Y67895238D02*
X156519047Y68133333D01*
X156519047Y67514285D01*
X176052380Y70419047D02*
X175576190Y70752380D01*
X176052380Y70990476D02*
X175052380Y70990476D01*
X175052380Y70609523D01*
X175100000Y70514285D01*
X175147619Y70466666D01*
X175242857Y70419047D01*
X175385714Y70419047D01*
X175480952Y70466666D01*
X175528571Y70514285D01*
X175576190Y70609523D01*
X175576190Y70990476D01*
X176052380Y69466666D02*
X176052380Y70038095D01*
X176052380Y69752380D02*
X175052380Y69752380D01*
X175195238Y69847619D01*
X175290476Y69942857D01*
X175338095Y70038095D01*
X176052380Y68514285D02*
X176052380Y69085714D01*
X176052380Y68800000D02*
X175052380Y68800000D01*
X175195238Y68895238D01*
X175290476Y68990476D01*
X175338095Y69085714D01*
X175052380Y67609523D02*
X175052380Y68085714D01*
X175528571Y68133333D01*
X175480952Y68085714D01*
X175433333Y67990476D01*
X175433333Y67752380D01*
X175480952Y67657142D01*
X175528571Y67609523D01*
X175623809Y67561904D01*
X175861904Y67561904D01*
X175957142Y67609523D01*
X176004761Y67657142D01*
X176052380Y67752380D01*
X176052380Y67990476D01*
X176004761Y68085714D01*
X175957142Y68133333D01*
X179852380Y70419047D02*
X179376190Y70752380D01*
X179852380Y70990476D02*
X178852380Y70990476D01*
X178852380Y70609523D01*
X178900000Y70514285D01*
X178947619Y70466666D01*
X179042857Y70419047D01*
X179185714Y70419047D01*
X179280952Y70466666D01*
X179328571Y70514285D01*
X179376190Y70609523D01*
X179376190Y70990476D01*
X179852380Y69466666D02*
X179852380Y70038095D01*
X179852380Y69752380D02*
X178852380Y69752380D01*
X178995238Y69847619D01*
X179090476Y69942857D01*
X179138095Y70038095D01*
X179852380Y68514285D02*
X179852380Y69085714D01*
X179852380Y68800000D02*
X178852380Y68800000D01*
X178995238Y68895238D01*
X179090476Y68990476D01*
X179138095Y69085714D01*
X178852380Y67657142D02*
X178852380Y67847619D01*
X178900000Y67942857D01*
X178947619Y67990476D01*
X179090476Y68085714D01*
X179280952Y68133333D01*
X179661904Y68133333D01*
X179757142Y68085714D01*
X179804761Y68038095D01*
X179852380Y67942857D01*
X179852380Y67752380D01*
X179804761Y67657142D01*
X179757142Y67609523D01*
X179661904Y67561904D01*
X179423809Y67561904D01*
X179328571Y67609523D01*
X179280952Y67657142D01*
X179233333Y67752380D01*
X179233333Y67942857D01*
X179280952Y68038095D01*
X179328571Y68085714D01*
X179423809Y68133333D01*
X253519047Y80042857D02*
X253566666Y79995238D01*
X253709523Y79947619D01*
X253804761Y79947619D01*
X253947619Y79995238D01*
X254042857Y80090476D01*
X254090476Y80185714D01*
X254138095Y80376190D01*
X254138095Y80519047D01*
X254090476Y80709523D01*
X254042857Y80804761D01*
X253947619Y80900000D01*
X253804761Y80947619D01*
X253709523Y80947619D01*
X253566666Y80900000D01*
X253519047Y80852380D01*
X252566666Y79947619D02*
X253138095Y79947619D01*
X252852380Y79947619D02*
X252852380Y80947619D01*
X252947619Y80804761D01*
X253042857Y80709523D01*
X253138095Y80661904D01*
X251947619Y80947619D02*
X251852380Y80947619D01*
X251757142Y80900000D01*
X251709523Y80852380D01*
X251661904Y80757142D01*
X251614285Y80566666D01*
X251614285Y80328571D01*
X251661904Y80138095D01*
X251709523Y80042857D01*
X251757142Y79995238D01*
X251852380Y79947619D01*
X251947619Y79947619D01*
X252042857Y79995238D01*
X252090476Y80042857D01*
X252138095Y80138095D01*
X252185714Y80328571D01*
X252185714Y80566666D01*
X252138095Y80757142D01*
X252090476Y80852380D01*
X252042857Y80900000D01*
X251947619Y80947619D01*
X251138095Y79947619D02*
X250947619Y79947619D01*
X250852380Y79995238D01*
X250804761Y80042857D01*
X250709523Y80185714D01*
X250661904Y80376190D01*
X250661904Y80757142D01*
X250709523Y80852380D01*
X250757142Y80900000D01*
X250852380Y80947619D01*
X251042857Y80947619D01*
X251138095Y80900000D01*
X251185714Y80852380D01*
X251233333Y80757142D01*
X251233333Y80519047D01*
X251185714Y80423809D01*
X251138095Y80376190D01*
X251042857Y80328571D01*
X250852380Y80328571D01*
X250757142Y80376190D01*
X250709523Y80423809D01*
X250661904Y80519047D01*
X253519047Y85147619D02*
X253995238Y85147619D01*
X253995238Y86147619D01*
X252661904Y85147619D02*
X253233333Y85147619D01*
X252947619Y85147619D02*
X252947619Y86147619D01*
X253042857Y86004761D01*
X253138095Y85909523D01*
X253233333Y85861904D01*
X252042857Y86147619D02*
X251947619Y86147619D01*
X251852380Y86100000D01*
X251804761Y86052380D01*
X251757142Y85957142D01*
X251709523Y85766666D01*
X251709523Y85528571D01*
X251757142Y85338095D01*
X251804761Y85242857D01*
X251852380Y85195238D01*
X251947619Y85147619D01*
X252042857Y85147619D01*
X252138095Y85195238D01*
X252185714Y85242857D01*
X252233333Y85338095D01*
X252280952Y85528571D01*
X252280952Y85766666D01*
X252233333Y85957142D01*
X252185714Y86052380D01*
X252138095Y86100000D01*
X252042857Y86147619D01*
X250757142Y85147619D02*
X251328571Y85147619D01*
X251042857Y85147619D02*
X251042857Y86147619D01*
X251138095Y86004761D01*
X251233333Y85909523D01*
X251328571Y85861904D01*
X241152380Y83542857D02*
X240676190Y83876190D01*
X241152380Y84114285D02*
X240152380Y84114285D01*
X240152380Y83733333D01*
X240200000Y83638095D01*
X240247619Y83590476D01*
X240342857Y83542857D01*
X240485714Y83542857D01*
X240580952Y83590476D01*
X240628571Y83638095D01*
X240676190Y83733333D01*
X240676190Y84114285D01*
X240247619Y83161904D02*
X240200000Y83114285D01*
X240152380Y83019047D01*
X240152380Y82780952D01*
X240200000Y82685714D01*
X240247619Y82638095D01*
X240342857Y82590476D01*
X240438095Y82590476D01*
X240580952Y82638095D01*
X241152380Y83209523D01*
X241152380Y82590476D01*
X240152380Y81685714D02*
X240152380Y82161904D01*
X240628571Y82209523D01*
X240580952Y82161904D01*
X240533333Y82066666D01*
X240533333Y81828571D01*
X240580952Y81733333D01*
X240628571Y81685714D01*
X240723809Y81638095D01*
X240961904Y81638095D01*
X241057142Y81685714D01*
X241104761Y81733333D01*
X241152380Y81828571D01*
X241152380Y82066666D01*
X241104761Y82161904D01*
X241057142Y82209523D01*
M02*
