M48
; DRILL file {KiCad (5.1.0-0)} date 2020 January 08, Wednesday 22:30:15
; FORMAT={-:-/ absolute / metric / decimal}
; #@! TF.CreationDate,2020-01-08T22:30:15+01:00
; #@! TF.GenerationSoftware,Kicad,Pcbnew,(5.1.0-0)
FMAT,2
METRIC
T1C0.300
T2C0.800
T3C0.813
T4C1.000
T5C1.016
T6C1.100
T7C1.200
T8C1.500
T9C1.600
T10C2.301
T11C3.200
%
G90
G05
T1
X-71.0Y70.9
X-71.0Y68.9
X-66.9Y72.9
X-66.9Y70.9
X-48.0Y70.9
X-48.0Y68.9
X-44.0Y72.9
X-44.0Y70.9
X-25.0Y70.9
X-25.0Y68.9
X-21.0Y72.9
X-21.0Y70.9
X-2.0Y70.9
X-2.0Y68.9
X2.0Y72.9
X2.0Y70.9
X198.3Y68.5
X198.3Y64.9
X201.46Y70.66
X202.5Y50.7
X202.8Y59.7
X205.65Y57.85
X206.3Y55.7
X206.3Y53.7
X206.3Y51.7
X206.54Y70.66
X210.15Y59.95
X210.5Y50.7
X212.2Y50.7
X212.55Y58.95
X212.55Y57.95
X212.55Y56.95
X213.25Y63.05
X214.09Y49.5
X214.25Y63.05
X214.3Y51.6
X214.525Y47.576
X214.93Y50.93
X215.25Y63.05
X216.65Y63.05
X217.1Y52.2
X217.35Y63.05
X220.2Y65.8
X220.449Y52.249
X220.9Y55.8
X221.3Y68.5
X222.2Y63.7
X222.2Y53.0
X224.2Y63.7
X224.2Y53.1
X224.46Y70.54
X225.35Y59.3
X225.5Y56.6
X229.54Y70.56
X230.9Y57.0
X230.9Y55.0
X249.157Y47.53
X254.2Y82.0
X261.0Y86.5
T2
X258.46Y82.0
X261.0Y82.0
X263.54Y82.0
X251.545Y47.53
X252.815Y50.07
X254.085Y47.53
X255.355Y50.07
X256.625Y47.53
X257.895Y50.07
X259.165Y47.53
X260.435Y50.07
X261.705Y47.53
X262.975Y50.07
X264.245Y47.53
X265.515Y50.07
X266.785Y47.53
X268.055Y50.07
X244.46Y82.0
X247.0Y82.0
X249.54Y82.0
T3
X275.73Y79.999
X275.73Y78.0
X278.27Y79.999
X278.27Y78.0
T4
X274.26Y46.9
X276.8Y46.9
X279.34Y46.9
X281.88Y46.9
X284.42Y46.9
T5
X-28.68Y50.9
X225.5Y52.04
X225.5Y49.5
X-28.68Y48.36
X-26.14Y50.9
X-26.14Y48.36
X-23.6Y50.9
X-23.6Y48.36
X-21.06Y50.9
X-21.06Y48.36
X-18.52Y50.9
X-18.52Y48.36
X-15.98Y50.9
X-15.98Y48.36
X-13.44Y50.9
X-13.44Y48.36
X-10.9Y50.9
X-10.9Y48.36
X-8.36Y50.9
X-8.36Y48.36
X-5.82Y50.9
X-5.82Y48.36
X228.04Y52.04
X228.04Y49.5
X230.58Y52.04
X230.58Y49.5
X233.12Y52.04
X233.12Y49.5
X235.66Y52.04
X235.66Y49.5
X238.2Y52.04
X238.2Y49.5
X240.74Y49.5
X243.28Y52.04
X-3.28Y50.9
X240.74Y52.04
X-3.28Y48.36
X-0.74Y50.9
X-0.74Y48.36
X1.8Y50.9
X1.8Y48.36
X243.28Y49.5
X12.52Y50.9
X12.52Y48.36
X15.06Y50.9
X15.06Y48.36
X17.6Y50.9
X17.6Y48.36
X20.14Y50.9
X20.14Y48.36
X22.68Y50.9
X22.68Y48.36
X25.22Y50.9
X25.22Y48.36
X27.76Y50.9
X27.76Y48.36
X30.3Y50.9
X30.3Y48.36
X32.84Y50.9
X32.84Y48.36
X35.38Y50.9
X35.38Y48.36
X37.92Y50.9
X37.92Y48.36
X40.46Y50.9
X40.46Y48.36
X43.0Y50.9
X43.0Y48.36
T6
X258.46Y84.62
X263.54Y84.62
X244.46Y84.63
X249.54Y84.63
T7
X89.0Y77.3
X89.0Y72.22
X112.0Y72.22
X43.0Y77.3
X43.0Y72.22
X181.0Y77.3
X181.0Y72.22
X-72.0Y72.85
X-49.0Y72.85
X-3.0Y72.85
X204.0Y72.85
X227.0Y77.3
X227.0Y72.22
X112.0Y77.3
X135.0Y77.3
X135.0Y72.22
X66.0Y77.3
X66.0Y72.22
X-26.0Y72.85
X158.0Y77.3
X158.0Y72.22
X20.0Y77.3
X20.0Y72.22
T8
X269.455Y48.27
T9
X131.19Y86.19
X131.19Y72.22
X138.81Y81.11
X138.81Y72.22
X62.19Y86.19
X62.19Y72.22
X69.81Y81.11
X69.81Y72.22
X-52.81Y86.19
X-52.81Y77.3
X-45.19Y81.11
X-45.19Y76.665
X177.19Y86.19
X177.19Y72.22
X184.81Y81.11
X184.81Y72.22
X-29.81Y86.19
X-29.81Y77.3
X-22.19Y81.11
X-22.19Y76.665
X154.19Y86.19
X154.19Y72.22
X161.81Y81.11
X161.81Y72.22
X16.19Y86.19
X16.19Y72.22
X23.81Y81.11
X23.81Y72.22
X85.19Y86.19
X85.19Y72.22
X92.81Y81.11
X92.81Y72.22
X223.19Y86.19
X223.19Y72.22
X230.81Y81.11
X230.81Y72.22
X-75.81Y86.19
X-75.81Y77.3
X-68.19Y81.11
X-68.19Y76.665
X108.19Y86.19
X108.19Y72.22
X115.81Y81.11
X115.81Y72.22
X-6.81Y86.19
X-6.81Y77.3
X0.81Y81.11
X0.81Y76.665
X39.19Y86.19
X39.19Y72.22
X46.81Y81.11
X46.81Y72.22
X200.19Y86.19
X200.19Y77.3
X207.81Y81.11
X207.81Y76.665
T10
X271.001Y82.699
X282.999Y82.699
T11
X291.0Y82.5
T0
M30
