G04 #@! TF.GenerationSoftware,KiCad,Pcbnew,(5.1.0-0)*
G04 #@! TF.CreationDate,2020-01-08T22:44:41+01:00*
G04 #@! TF.ProjectId,AddOnC,4164644f-6e43-42e6-9b69-6361645f7063,rev?*
G04 #@! TF.SameCoordinates,Original*
G04 #@! TF.FileFunction,Paste,Bot*
G04 #@! TF.FilePolarity,Positive*
%FSLAX46Y46*%
G04 Gerber Fmt 4.6, Leading zero omitted, Abs format (unit mm)*
G04 Created by KiCad (PCBNEW (5.1.0-0)) date 2020-01-08 22:44:41*
%MOMM*%
%LPD*%
G04 APERTURE LIST*
%ADD10R,1.300000X1.000000*%
%ADD11C,0.100000*%
%ADD12C,0.300000*%
%ADD13R,1.000000X1.300000*%
G04 APERTURE END LIST*
D10*
X242300000Y80300000D03*
X242300000Y78500000D03*
X228200000Y59300000D03*
X228200000Y57500000D03*
X261000000Y85600000D03*
X261000000Y83800000D03*
X221300000Y67600000D03*
X221300000Y65800000D03*
X198300000Y67600000D03*
X198300000Y65800000D03*
X204500000Y49800000D03*
X204500000Y48000000D03*
X202500000Y49800000D03*
X202500000Y48000000D03*
X210500000Y48000000D03*
X210500000Y49800000D03*
X212500000Y48000000D03*
X212500000Y49800000D03*
X208500000Y49800000D03*
X208500000Y48000000D03*
X206500000Y49800000D03*
X206500000Y48000000D03*
D11*
G36*
X212007351Y60599639D02*
G01*
X212014632Y60598559D01*
X212021771Y60596771D01*
X212028701Y60594291D01*
X212035355Y60591144D01*
X212041668Y60587360D01*
X212047579Y60582976D01*
X212053033Y60578033D01*
X212057976Y60572579D01*
X212062360Y60566668D01*
X212066144Y60560355D01*
X212069291Y60553701D01*
X212071771Y60546771D01*
X212073559Y60539632D01*
X212074639Y60532351D01*
X212075000Y60525000D01*
X212075000Y60375000D01*
X212074639Y60367649D01*
X212073559Y60360368D01*
X212071771Y60353229D01*
X212069291Y60346299D01*
X212066144Y60339645D01*
X212062360Y60333332D01*
X212057976Y60327421D01*
X212053033Y60321967D01*
X212047579Y60317024D01*
X212041668Y60312640D01*
X212035355Y60308856D01*
X212028701Y60305709D01*
X212021771Y60303229D01*
X212014632Y60301441D01*
X212007351Y60300361D01*
X212000000Y60300000D01*
X210675000Y60300000D01*
X210667649Y60300361D01*
X210660368Y60301441D01*
X210653229Y60303229D01*
X210646299Y60305709D01*
X210639645Y60308856D01*
X210633332Y60312640D01*
X210627421Y60317024D01*
X210621967Y60321967D01*
X210617024Y60327421D01*
X210612640Y60333332D01*
X210608856Y60339645D01*
X210605709Y60346299D01*
X210603229Y60353229D01*
X210601441Y60360368D01*
X210600361Y60367649D01*
X210600000Y60375000D01*
X210600000Y60525000D01*
X210600361Y60532351D01*
X210601441Y60539632D01*
X210603229Y60546771D01*
X210605709Y60553701D01*
X210608856Y60560355D01*
X210612640Y60566668D01*
X210617024Y60572579D01*
X210621967Y60578033D01*
X210627421Y60582976D01*
X210633332Y60587360D01*
X210639645Y60591144D01*
X210646299Y60594291D01*
X210653229Y60596771D01*
X210660368Y60598559D01*
X210667649Y60599639D01*
X210675000Y60600000D01*
X212000000Y60600000D01*
X212007351Y60599639D01*
X212007351Y60599639D01*
G37*
D12*
X211337500Y60450000D03*
D11*
G36*
X212007351Y60099639D02*
G01*
X212014632Y60098559D01*
X212021771Y60096771D01*
X212028701Y60094291D01*
X212035355Y60091144D01*
X212041668Y60087360D01*
X212047579Y60082976D01*
X212053033Y60078033D01*
X212057976Y60072579D01*
X212062360Y60066668D01*
X212066144Y60060355D01*
X212069291Y60053701D01*
X212071771Y60046771D01*
X212073559Y60039632D01*
X212074639Y60032351D01*
X212075000Y60025000D01*
X212075000Y59875000D01*
X212074639Y59867649D01*
X212073559Y59860368D01*
X212071771Y59853229D01*
X212069291Y59846299D01*
X212066144Y59839645D01*
X212062360Y59833332D01*
X212057976Y59827421D01*
X212053033Y59821967D01*
X212047579Y59817024D01*
X212041668Y59812640D01*
X212035355Y59808856D01*
X212028701Y59805709D01*
X212021771Y59803229D01*
X212014632Y59801441D01*
X212007351Y59800361D01*
X212000000Y59800000D01*
X210675000Y59800000D01*
X210667649Y59800361D01*
X210660368Y59801441D01*
X210653229Y59803229D01*
X210646299Y59805709D01*
X210639645Y59808856D01*
X210633332Y59812640D01*
X210627421Y59817024D01*
X210621967Y59821967D01*
X210617024Y59827421D01*
X210612640Y59833332D01*
X210608856Y59839645D01*
X210605709Y59846299D01*
X210603229Y59853229D01*
X210601441Y59860368D01*
X210600361Y59867649D01*
X210600000Y59875000D01*
X210600000Y60025000D01*
X210600361Y60032351D01*
X210601441Y60039632D01*
X210603229Y60046771D01*
X210605709Y60053701D01*
X210608856Y60060355D01*
X210612640Y60066668D01*
X210617024Y60072579D01*
X210621967Y60078033D01*
X210627421Y60082976D01*
X210633332Y60087360D01*
X210639645Y60091144D01*
X210646299Y60094291D01*
X210653229Y60096771D01*
X210660368Y60098559D01*
X210667649Y60099639D01*
X210675000Y60100000D01*
X212000000Y60100000D01*
X212007351Y60099639D01*
X212007351Y60099639D01*
G37*
D12*
X211337500Y59950000D03*
D11*
G36*
X212007351Y59599639D02*
G01*
X212014632Y59598559D01*
X212021771Y59596771D01*
X212028701Y59594291D01*
X212035355Y59591144D01*
X212041668Y59587360D01*
X212047579Y59582976D01*
X212053033Y59578033D01*
X212057976Y59572579D01*
X212062360Y59566668D01*
X212066144Y59560355D01*
X212069291Y59553701D01*
X212071771Y59546771D01*
X212073559Y59539632D01*
X212074639Y59532351D01*
X212075000Y59525000D01*
X212075000Y59375000D01*
X212074639Y59367649D01*
X212073559Y59360368D01*
X212071771Y59353229D01*
X212069291Y59346299D01*
X212066144Y59339645D01*
X212062360Y59333332D01*
X212057976Y59327421D01*
X212053033Y59321967D01*
X212047579Y59317024D01*
X212041668Y59312640D01*
X212035355Y59308856D01*
X212028701Y59305709D01*
X212021771Y59303229D01*
X212014632Y59301441D01*
X212007351Y59300361D01*
X212000000Y59300000D01*
X210675000Y59300000D01*
X210667649Y59300361D01*
X210660368Y59301441D01*
X210653229Y59303229D01*
X210646299Y59305709D01*
X210639645Y59308856D01*
X210633332Y59312640D01*
X210627421Y59317024D01*
X210621967Y59321967D01*
X210617024Y59327421D01*
X210612640Y59333332D01*
X210608856Y59339645D01*
X210605709Y59346299D01*
X210603229Y59353229D01*
X210601441Y59360368D01*
X210600361Y59367649D01*
X210600000Y59375000D01*
X210600000Y59525000D01*
X210600361Y59532351D01*
X210601441Y59539632D01*
X210603229Y59546771D01*
X210605709Y59553701D01*
X210608856Y59560355D01*
X210612640Y59566668D01*
X210617024Y59572579D01*
X210621967Y59578033D01*
X210627421Y59582976D01*
X210633332Y59587360D01*
X210639645Y59591144D01*
X210646299Y59594291D01*
X210653229Y59596771D01*
X210660368Y59598559D01*
X210667649Y59599639D01*
X210675000Y59600000D01*
X212000000Y59600000D01*
X212007351Y59599639D01*
X212007351Y59599639D01*
G37*
D12*
X211337500Y59450000D03*
D11*
G36*
X212007351Y59099639D02*
G01*
X212014632Y59098559D01*
X212021771Y59096771D01*
X212028701Y59094291D01*
X212035355Y59091144D01*
X212041668Y59087360D01*
X212047579Y59082976D01*
X212053033Y59078033D01*
X212057976Y59072579D01*
X212062360Y59066668D01*
X212066144Y59060355D01*
X212069291Y59053701D01*
X212071771Y59046771D01*
X212073559Y59039632D01*
X212074639Y59032351D01*
X212075000Y59025000D01*
X212075000Y58875000D01*
X212074639Y58867649D01*
X212073559Y58860368D01*
X212071771Y58853229D01*
X212069291Y58846299D01*
X212066144Y58839645D01*
X212062360Y58833332D01*
X212057976Y58827421D01*
X212053033Y58821967D01*
X212047579Y58817024D01*
X212041668Y58812640D01*
X212035355Y58808856D01*
X212028701Y58805709D01*
X212021771Y58803229D01*
X212014632Y58801441D01*
X212007351Y58800361D01*
X212000000Y58800000D01*
X210675000Y58800000D01*
X210667649Y58800361D01*
X210660368Y58801441D01*
X210653229Y58803229D01*
X210646299Y58805709D01*
X210639645Y58808856D01*
X210633332Y58812640D01*
X210627421Y58817024D01*
X210621967Y58821967D01*
X210617024Y58827421D01*
X210612640Y58833332D01*
X210608856Y58839645D01*
X210605709Y58846299D01*
X210603229Y58853229D01*
X210601441Y58860368D01*
X210600361Y58867649D01*
X210600000Y58875000D01*
X210600000Y59025000D01*
X210600361Y59032351D01*
X210601441Y59039632D01*
X210603229Y59046771D01*
X210605709Y59053701D01*
X210608856Y59060355D01*
X210612640Y59066668D01*
X210617024Y59072579D01*
X210621967Y59078033D01*
X210627421Y59082976D01*
X210633332Y59087360D01*
X210639645Y59091144D01*
X210646299Y59094291D01*
X210653229Y59096771D01*
X210660368Y59098559D01*
X210667649Y59099639D01*
X210675000Y59100000D01*
X212000000Y59100000D01*
X212007351Y59099639D01*
X212007351Y59099639D01*
G37*
D12*
X211337500Y58950000D03*
D11*
G36*
X212007351Y58599639D02*
G01*
X212014632Y58598559D01*
X212021771Y58596771D01*
X212028701Y58594291D01*
X212035355Y58591144D01*
X212041668Y58587360D01*
X212047579Y58582976D01*
X212053033Y58578033D01*
X212057976Y58572579D01*
X212062360Y58566668D01*
X212066144Y58560355D01*
X212069291Y58553701D01*
X212071771Y58546771D01*
X212073559Y58539632D01*
X212074639Y58532351D01*
X212075000Y58525000D01*
X212075000Y58375000D01*
X212074639Y58367649D01*
X212073559Y58360368D01*
X212071771Y58353229D01*
X212069291Y58346299D01*
X212066144Y58339645D01*
X212062360Y58333332D01*
X212057976Y58327421D01*
X212053033Y58321967D01*
X212047579Y58317024D01*
X212041668Y58312640D01*
X212035355Y58308856D01*
X212028701Y58305709D01*
X212021771Y58303229D01*
X212014632Y58301441D01*
X212007351Y58300361D01*
X212000000Y58300000D01*
X210675000Y58300000D01*
X210667649Y58300361D01*
X210660368Y58301441D01*
X210653229Y58303229D01*
X210646299Y58305709D01*
X210639645Y58308856D01*
X210633332Y58312640D01*
X210627421Y58317024D01*
X210621967Y58321967D01*
X210617024Y58327421D01*
X210612640Y58333332D01*
X210608856Y58339645D01*
X210605709Y58346299D01*
X210603229Y58353229D01*
X210601441Y58360368D01*
X210600361Y58367649D01*
X210600000Y58375000D01*
X210600000Y58525000D01*
X210600361Y58532351D01*
X210601441Y58539632D01*
X210603229Y58546771D01*
X210605709Y58553701D01*
X210608856Y58560355D01*
X210612640Y58566668D01*
X210617024Y58572579D01*
X210621967Y58578033D01*
X210627421Y58582976D01*
X210633332Y58587360D01*
X210639645Y58591144D01*
X210646299Y58594291D01*
X210653229Y58596771D01*
X210660368Y58598559D01*
X210667649Y58599639D01*
X210675000Y58600000D01*
X212000000Y58600000D01*
X212007351Y58599639D01*
X212007351Y58599639D01*
G37*
D12*
X211337500Y58450000D03*
D11*
G36*
X212007351Y58099639D02*
G01*
X212014632Y58098559D01*
X212021771Y58096771D01*
X212028701Y58094291D01*
X212035355Y58091144D01*
X212041668Y58087360D01*
X212047579Y58082976D01*
X212053033Y58078033D01*
X212057976Y58072579D01*
X212062360Y58066668D01*
X212066144Y58060355D01*
X212069291Y58053701D01*
X212071771Y58046771D01*
X212073559Y58039632D01*
X212074639Y58032351D01*
X212075000Y58025000D01*
X212075000Y57875000D01*
X212074639Y57867649D01*
X212073559Y57860368D01*
X212071771Y57853229D01*
X212069291Y57846299D01*
X212066144Y57839645D01*
X212062360Y57833332D01*
X212057976Y57827421D01*
X212053033Y57821967D01*
X212047579Y57817024D01*
X212041668Y57812640D01*
X212035355Y57808856D01*
X212028701Y57805709D01*
X212021771Y57803229D01*
X212014632Y57801441D01*
X212007351Y57800361D01*
X212000000Y57800000D01*
X210675000Y57800000D01*
X210667649Y57800361D01*
X210660368Y57801441D01*
X210653229Y57803229D01*
X210646299Y57805709D01*
X210639645Y57808856D01*
X210633332Y57812640D01*
X210627421Y57817024D01*
X210621967Y57821967D01*
X210617024Y57827421D01*
X210612640Y57833332D01*
X210608856Y57839645D01*
X210605709Y57846299D01*
X210603229Y57853229D01*
X210601441Y57860368D01*
X210600361Y57867649D01*
X210600000Y57875000D01*
X210600000Y58025000D01*
X210600361Y58032351D01*
X210601441Y58039632D01*
X210603229Y58046771D01*
X210605709Y58053701D01*
X210608856Y58060355D01*
X210612640Y58066668D01*
X210617024Y58072579D01*
X210621967Y58078033D01*
X210627421Y58082976D01*
X210633332Y58087360D01*
X210639645Y58091144D01*
X210646299Y58094291D01*
X210653229Y58096771D01*
X210660368Y58098559D01*
X210667649Y58099639D01*
X210675000Y58100000D01*
X212000000Y58100000D01*
X212007351Y58099639D01*
X212007351Y58099639D01*
G37*
D12*
X211337500Y57950000D03*
D11*
G36*
X212007351Y57599639D02*
G01*
X212014632Y57598559D01*
X212021771Y57596771D01*
X212028701Y57594291D01*
X212035355Y57591144D01*
X212041668Y57587360D01*
X212047579Y57582976D01*
X212053033Y57578033D01*
X212057976Y57572579D01*
X212062360Y57566668D01*
X212066144Y57560355D01*
X212069291Y57553701D01*
X212071771Y57546771D01*
X212073559Y57539632D01*
X212074639Y57532351D01*
X212075000Y57525000D01*
X212075000Y57375000D01*
X212074639Y57367649D01*
X212073559Y57360368D01*
X212071771Y57353229D01*
X212069291Y57346299D01*
X212066144Y57339645D01*
X212062360Y57333332D01*
X212057976Y57327421D01*
X212053033Y57321967D01*
X212047579Y57317024D01*
X212041668Y57312640D01*
X212035355Y57308856D01*
X212028701Y57305709D01*
X212021771Y57303229D01*
X212014632Y57301441D01*
X212007351Y57300361D01*
X212000000Y57300000D01*
X210675000Y57300000D01*
X210667649Y57300361D01*
X210660368Y57301441D01*
X210653229Y57303229D01*
X210646299Y57305709D01*
X210639645Y57308856D01*
X210633332Y57312640D01*
X210627421Y57317024D01*
X210621967Y57321967D01*
X210617024Y57327421D01*
X210612640Y57333332D01*
X210608856Y57339645D01*
X210605709Y57346299D01*
X210603229Y57353229D01*
X210601441Y57360368D01*
X210600361Y57367649D01*
X210600000Y57375000D01*
X210600000Y57525000D01*
X210600361Y57532351D01*
X210601441Y57539632D01*
X210603229Y57546771D01*
X210605709Y57553701D01*
X210608856Y57560355D01*
X210612640Y57566668D01*
X210617024Y57572579D01*
X210621967Y57578033D01*
X210627421Y57582976D01*
X210633332Y57587360D01*
X210639645Y57591144D01*
X210646299Y57594291D01*
X210653229Y57596771D01*
X210660368Y57598559D01*
X210667649Y57599639D01*
X210675000Y57600000D01*
X212000000Y57600000D01*
X212007351Y57599639D01*
X212007351Y57599639D01*
G37*
D12*
X211337500Y57450000D03*
D11*
G36*
X212007351Y57099639D02*
G01*
X212014632Y57098559D01*
X212021771Y57096771D01*
X212028701Y57094291D01*
X212035355Y57091144D01*
X212041668Y57087360D01*
X212047579Y57082976D01*
X212053033Y57078033D01*
X212057976Y57072579D01*
X212062360Y57066668D01*
X212066144Y57060355D01*
X212069291Y57053701D01*
X212071771Y57046771D01*
X212073559Y57039632D01*
X212074639Y57032351D01*
X212075000Y57025000D01*
X212075000Y56875000D01*
X212074639Y56867649D01*
X212073559Y56860368D01*
X212071771Y56853229D01*
X212069291Y56846299D01*
X212066144Y56839645D01*
X212062360Y56833332D01*
X212057976Y56827421D01*
X212053033Y56821967D01*
X212047579Y56817024D01*
X212041668Y56812640D01*
X212035355Y56808856D01*
X212028701Y56805709D01*
X212021771Y56803229D01*
X212014632Y56801441D01*
X212007351Y56800361D01*
X212000000Y56800000D01*
X210675000Y56800000D01*
X210667649Y56800361D01*
X210660368Y56801441D01*
X210653229Y56803229D01*
X210646299Y56805709D01*
X210639645Y56808856D01*
X210633332Y56812640D01*
X210627421Y56817024D01*
X210621967Y56821967D01*
X210617024Y56827421D01*
X210612640Y56833332D01*
X210608856Y56839645D01*
X210605709Y56846299D01*
X210603229Y56853229D01*
X210601441Y56860368D01*
X210600361Y56867649D01*
X210600000Y56875000D01*
X210600000Y57025000D01*
X210600361Y57032351D01*
X210601441Y57039632D01*
X210603229Y57046771D01*
X210605709Y57053701D01*
X210608856Y57060355D01*
X210612640Y57066668D01*
X210617024Y57072579D01*
X210621967Y57078033D01*
X210627421Y57082976D01*
X210633332Y57087360D01*
X210639645Y57091144D01*
X210646299Y57094291D01*
X210653229Y57096771D01*
X210660368Y57098559D01*
X210667649Y57099639D01*
X210675000Y57100000D01*
X212000000Y57100000D01*
X212007351Y57099639D01*
X212007351Y57099639D01*
G37*
D12*
X211337500Y56950000D03*
D11*
G36*
X212007351Y56599639D02*
G01*
X212014632Y56598559D01*
X212021771Y56596771D01*
X212028701Y56594291D01*
X212035355Y56591144D01*
X212041668Y56587360D01*
X212047579Y56582976D01*
X212053033Y56578033D01*
X212057976Y56572579D01*
X212062360Y56566668D01*
X212066144Y56560355D01*
X212069291Y56553701D01*
X212071771Y56546771D01*
X212073559Y56539632D01*
X212074639Y56532351D01*
X212075000Y56525000D01*
X212075000Y56375000D01*
X212074639Y56367649D01*
X212073559Y56360368D01*
X212071771Y56353229D01*
X212069291Y56346299D01*
X212066144Y56339645D01*
X212062360Y56333332D01*
X212057976Y56327421D01*
X212053033Y56321967D01*
X212047579Y56317024D01*
X212041668Y56312640D01*
X212035355Y56308856D01*
X212028701Y56305709D01*
X212021771Y56303229D01*
X212014632Y56301441D01*
X212007351Y56300361D01*
X212000000Y56300000D01*
X210675000Y56300000D01*
X210667649Y56300361D01*
X210660368Y56301441D01*
X210653229Y56303229D01*
X210646299Y56305709D01*
X210639645Y56308856D01*
X210633332Y56312640D01*
X210627421Y56317024D01*
X210621967Y56321967D01*
X210617024Y56327421D01*
X210612640Y56333332D01*
X210608856Y56339645D01*
X210605709Y56346299D01*
X210603229Y56353229D01*
X210601441Y56360368D01*
X210600361Y56367649D01*
X210600000Y56375000D01*
X210600000Y56525000D01*
X210600361Y56532351D01*
X210601441Y56539632D01*
X210603229Y56546771D01*
X210605709Y56553701D01*
X210608856Y56560355D01*
X210612640Y56566668D01*
X210617024Y56572579D01*
X210621967Y56578033D01*
X210627421Y56582976D01*
X210633332Y56587360D01*
X210639645Y56591144D01*
X210646299Y56594291D01*
X210653229Y56596771D01*
X210660368Y56598559D01*
X210667649Y56599639D01*
X210675000Y56600000D01*
X212000000Y56600000D01*
X212007351Y56599639D01*
X212007351Y56599639D01*
G37*
D12*
X211337500Y56450000D03*
D11*
G36*
X212007351Y56099639D02*
G01*
X212014632Y56098559D01*
X212021771Y56096771D01*
X212028701Y56094291D01*
X212035355Y56091144D01*
X212041668Y56087360D01*
X212047579Y56082976D01*
X212053033Y56078033D01*
X212057976Y56072579D01*
X212062360Y56066668D01*
X212066144Y56060355D01*
X212069291Y56053701D01*
X212071771Y56046771D01*
X212073559Y56039632D01*
X212074639Y56032351D01*
X212075000Y56025000D01*
X212075000Y55875000D01*
X212074639Y55867649D01*
X212073559Y55860368D01*
X212071771Y55853229D01*
X212069291Y55846299D01*
X212066144Y55839645D01*
X212062360Y55833332D01*
X212057976Y55827421D01*
X212053033Y55821967D01*
X212047579Y55817024D01*
X212041668Y55812640D01*
X212035355Y55808856D01*
X212028701Y55805709D01*
X212021771Y55803229D01*
X212014632Y55801441D01*
X212007351Y55800361D01*
X212000000Y55800000D01*
X210675000Y55800000D01*
X210667649Y55800361D01*
X210660368Y55801441D01*
X210653229Y55803229D01*
X210646299Y55805709D01*
X210639645Y55808856D01*
X210633332Y55812640D01*
X210627421Y55817024D01*
X210621967Y55821967D01*
X210617024Y55827421D01*
X210612640Y55833332D01*
X210608856Y55839645D01*
X210605709Y55846299D01*
X210603229Y55853229D01*
X210601441Y55860368D01*
X210600361Y55867649D01*
X210600000Y55875000D01*
X210600000Y56025000D01*
X210600361Y56032351D01*
X210601441Y56039632D01*
X210603229Y56046771D01*
X210605709Y56053701D01*
X210608856Y56060355D01*
X210612640Y56066668D01*
X210617024Y56072579D01*
X210621967Y56078033D01*
X210627421Y56082976D01*
X210633332Y56087360D01*
X210639645Y56091144D01*
X210646299Y56094291D01*
X210653229Y56096771D01*
X210660368Y56098559D01*
X210667649Y56099639D01*
X210675000Y56100000D01*
X212000000Y56100000D01*
X212007351Y56099639D01*
X212007351Y56099639D01*
G37*
D12*
X211337500Y55950000D03*
D11*
G36*
X212007351Y55599639D02*
G01*
X212014632Y55598559D01*
X212021771Y55596771D01*
X212028701Y55594291D01*
X212035355Y55591144D01*
X212041668Y55587360D01*
X212047579Y55582976D01*
X212053033Y55578033D01*
X212057976Y55572579D01*
X212062360Y55566668D01*
X212066144Y55560355D01*
X212069291Y55553701D01*
X212071771Y55546771D01*
X212073559Y55539632D01*
X212074639Y55532351D01*
X212075000Y55525000D01*
X212075000Y55375000D01*
X212074639Y55367649D01*
X212073559Y55360368D01*
X212071771Y55353229D01*
X212069291Y55346299D01*
X212066144Y55339645D01*
X212062360Y55333332D01*
X212057976Y55327421D01*
X212053033Y55321967D01*
X212047579Y55317024D01*
X212041668Y55312640D01*
X212035355Y55308856D01*
X212028701Y55305709D01*
X212021771Y55303229D01*
X212014632Y55301441D01*
X212007351Y55300361D01*
X212000000Y55300000D01*
X210675000Y55300000D01*
X210667649Y55300361D01*
X210660368Y55301441D01*
X210653229Y55303229D01*
X210646299Y55305709D01*
X210639645Y55308856D01*
X210633332Y55312640D01*
X210627421Y55317024D01*
X210621967Y55321967D01*
X210617024Y55327421D01*
X210612640Y55333332D01*
X210608856Y55339645D01*
X210605709Y55346299D01*
X210603229Y55353229D01*
X210601441Y55360368D01*
X210600361Y55367649D01*
X210600000Y55375000D01*
X210600000Y55525000D01*
X210600361Y55532351D01*
X210601441Y55539632D01*
X210603229Y55546771D01*
X210605709Y55553701D01*
X210608856Y55560355D01*
X210612640Y55566668D01*
X210617024Y55572579D01*
X210621967Y55578033D01*
X210627421Y55582976D01*
X210633332Y55587360D01*
X210639645Y55591144D01*
X210646299Y55594291D01*
X210653229Y55596771D01*
X210660368Y55598559D01*
X210667649Y55599639D01*
X210675000Y55600000D01*
X212000000Y55600000D01*
X212007351Y55599639D01*
X212007351Y55599639D01*
G37*
D12*
X211337500Y55450000D03*
D11*
G36*
X212007351Y55099639D02*
G01*
X212014632Y55098559D01*
X212021771Y55096771D01*
X212028701Y55094291D01*
X212035355Y55091144D01*
X212041668Y55087360D01*
X212047579Y55082976D01*
X212053033Y55078033D01*
X212057976Y55072579D01*
X212062360Y55066668D01*
X212066144Y55060355D01*
X212069291Y55053701D01*
X212071771Y55046771D01*
X212073559Y55039632D01*
X212074639Y55032351D01*
X212075000Y55025000D01*
X212075000Y54875000D01*
X212074639Y54867649D01*
X212073559Y54860368D01*
X212071771Y54853229D01*
X212069291Y54846299D01*
X212066144Y54839645D01*
X212062360Y54833332D01*
X212057976Y54827421D01*
X212053033Y54821967D01*
X212047579Y54817024D01*
X212041668Y54812640D01*
X212035355Y54808856D01*
X212028701Y54805709D01*
X212021771Y54803229D01*
X212014632Y54801441D01*
X212007351Y54800361D01*
X212000000Y54800000D01*
X210675000Y54800000D01*
X210667649Y54800361D01*
X210660368Y54801441D01*
X210653229Y54803229D01*
X210646299Y54805709D01*
X210639645Y54808856D01*
X210633332Y54812640D01*
X210627421Y54817024D01*
X210621967Y54821967D01*
X210617024Y54827421D01*
X210612640Y54833332D01*
X210608856Y54839645D01*
X210605709Y54846299D01*
X210603229Y54853229D01*
X210601441Y54860368D01*
X210600361Y54867649D01*
X210600000Y54875000D01*
X210600000Y55025000D01*
X210600361Y55032351D01*
X210601441Y55039632D01*
X210603229Y55046771D01*
X210605709Y55053701D01*
X210608856Y55060355D01*
X210612640Y55066668D01*
X210617024Y55072579D01*
X210621967Y55078033D01*
X210627421Y55082976D01*
X210633332Y55087360D01*
X210639645Y55091144D01*
X210646299Y55094291D01*
X210653229Y55096771D01*
X210660368Y55098559D01*
X210667649Y55099639D01*
X210675000Y55100000D01*
X212000000Y55100000D01*
X212007351Y55099639D01*
X212007351Y55099639D01*
G37*
D12*
X211337500Y54950000D03*
D11*
G36*
X212832351Y54274639D02*
G01*
X212839632Y54273559D01*
X212846771Y54271771D01*
X212853701Y54269291D01*
X212860355Y54266144D01*
X212866668Y54262360D01*
X212872579Y54257976D01*
X212878033Y54253033D01*
X212882976Y54247579D01*
X212887360Y54241668D01*
X212891144Y54235355D01*
X212894291Y54228701D01*
X212896771Y54221771D01*
X212898559Y54214632D01*
X212899639Y54207351D01*
X212900000Y54200000D01*
X212900000Y52875000D01*
X212899639Y52867649D01*
X212898559Y52860368D01*
X212896771Y52853229D01*
X212894291Y52846299D01*
X212891144Y52839645D01*
X212887360Y52833332D01*
X212882976Y52827421D01*
X212878033Y52821967D01*
X212872579Y52817024D01*
X212866668Y52812640D01*
X212860355Y52808856D01*
X212853701Y52805709D01*
X212846771Y52803229D01*
X212839632Y52801441D01*
X212832351Y52800361D01*
X212825000Y52800000D01*
X212675000Y52800000D01*
X212667649Y52800361D01*
X212660368Y52801441D01*
X212653229Y52803229D01*
X212646299Y52805709D01*
X212639645Y52808856D01*
X212633332Y52812640D01*
X212627421Y52817024D01*
X212621967Y52821967D01*
X212617024Y52827421D01*
X212612640Y52833332D01*
X212608856Y52839645D01*
X212605709Y52846299D01*
X212603229Y52853229D01*
X212601441Y52860368D01*
X212600361Y52867649D01*
X212600000Y52875000D01*
X212600000Y54200000D01*
X212600361Y54207351D01*
X212601441Y54214632D01*
X212603229Y54221771D01*
X212605709Y54228701D01*
X212608856Y54235355D01*
X212612640Y54241668D01*
X212617024Y54247579D01*
X212621967Y54253033D01*
X212627421Y54257976D01*
X212633332Y54262360D01*
X212639645Y54266144D01*
X212646299Y54269291D01*
X212653229Y54271771D01*
X212660368Y54273559D01*
X212667649Y54274639D01*
X212675000Y54275000D01*
X212825000Y54275000D01*
X212832351Y54274639D01*
X212832351Y54274639D01*
G37*
D12*
X212750000Y53537500D03*
D11*
G36*
X213332351Y54274639D02*
G01*
X213339632Y54273559D01*
X213346771Y54271771D01*
X213353701Y54269291D01*
X213360355Y54266144D01*
X213366668Y54262360D01*
X213372579Y54257976D01*
X213378033Y54253033D01*
X213382976Y54247579D01*
X213387360Y54241668D01*
X213391144Y54235355D01*
X213394291Y54228701D01*
X213396771Y54221771D01*
X213398559Y54214632D01*
X213399639Y54207351D01*
X213400000Y54200000D01*
X213400000Y52875000D01*
X213399639Y52867649D01*
X213398559Y52860368D01*
X213396771Y52853229D01*
X213394291Y52846299D01*
X213391144Y52839645D01*
X213387360Y52833332D01*
X213382976Y52827421D01*
X213378033Y52821967D01*
X213372579Y52817024D01*
X213366668Y52812640D01*
X213360355Y52808856D01*
X213353701Y52805709D01*
X213346771Y52803229D01*
X213339632Y52801441D01*
X213332351Y52800361D01*
X213325000Y52800000D01*
X213175000Y52800000D01*
X213167649Y52800361D01*
X213160368Y52801441D01*
X213153229Y52803229D01*
X213146299Y52805709D01*
X213139645Y52808856D01*
X213133332Y52812640D01*
X213127421Y52817024D01*
X213121967Y52821967D01*
X213117024Y52827421D01*
X213112640Y52833332D01*
X213108856Y52839645D01*
X213105709Y52846299D01*
X213103229Y52853229D01*
X213101441Y52860368D01*
X213100361Y52867649D01*
X213100000Y52875000D01*
X213100000Y54200000D01*
X213100361Y54207351D01*
X213101441Y54214632D01*
X213103229Y54221771D01*
X213105709Y54228701D01*
X213108856Y54235355D01*
X213112640Y54241668D01*
X213117024Y54247579D01*
X213121967Y54253033D01*
X213127421Y54257976D01*
X213133332Y54262360D01*
X213139645Y54266144D01*
X213146299Y54269291D01*
X213153229Y54271771D01*
X213160368Y54273559D01*
X213167649Y54274639D01*
X213175000Y54275000D01*
X213325000Y54275000D01*
X213332351Y54274639D01*
X213332351Y54274639D01*
G37*
D12*
X213250000Y53537500D03*
D11*
G36*
X213832351Y54274639D02*
G01*
X213839632Y54273559D01*
X213846771Y54271771D01*
X213853701Y54269291D01*
X213860355Y54266144D01*
X213866668Y54262360D01*
X213872579Y54257976D01*
X213878033Y54253033D01*
X213882976Y54247579D01*
X213887360Y54241668D01*
X213891144Y54235355D01*
X213894291Y54228701D01*
X213896771Y54221771D01*
X213898559Y54214632D01*
X213899639Y54207351D01*
X213900000Y54200000D01*
X213900000Y52875000D01*
X213899639Y52867649D01*
X213898559Y52860368D01*
X213896771Y52853229D01*
X213894291Y52846299D01*
X213891144Y52839645D01*
X213887360Y52833332D01*
X213882976Y52827421D01*
X213878033Y52821967D01*
X213872579Y52817024D01*
X213866668Y52812640D01*
X213860355Y52808856D01*
X213853701Y52805709D01*
X213846771Y52803229D01*
X213839632Y52801441D01*
X213832351Y52800361D01*
X213825000Y52800000D01*
X213675000Y52800000D01*
X213667649Y52800361D01*
X213660368Y52801441D01*
X213653229Y52803229D01*
X213646299Y52805709D01*
X213639645Y52808856D01*
X213633332Y52812640D01*
X213627421Y52817024D01*
X213621967Y52821967D01*
X213617024Y52827421D01*
X213612640Y52833332D01*
X213608856Y52839645D01*
X213605709Y52846299D01*
X213603229Y52853229D01*
X213601441Y52860368D01*
X213600361Y52867649D01*
X213600000Y52875000D01*
X213600000Y54200000D01*
X213600361Y54207351D01*
X213601441Y54214632D01*
X213603229Y54221771D01*
X213605709Y54228701D01*
X213608856Y54235355D01*
X213612640Y54241668D01*
X213617024Y54247579D01*
X213621967Y54253033D01*
X213627421Y54257976D01*
X213633332Y54262360D01*
X213639645Y54266144D01*
X213646299Y54269291D01*
X213653229Y54271771D01*
X213660368Y54273559D01*
X213667649Y54274639D01*
X213675000Y54275000D01*
X213825000Y54275000D01*
X213832351Y54274639D01*
X213832351Y54274639D01*
G37*
D12*
X213750000Y53537500D03*
D11*
G36*
X214332351Y54274639D02*
G01*
X214339632Y54273559D01*
X214346771Y54271771D01*
X214353701Y54269291D01*
X214360355Y54266144D01*
X214366668Y54262360D01*
X214372579Y54257976D01*
X214378033Y54253033D01*
X214382976Y54247579D01*
X214387360Y54241668D01*
X214391144Y54235355D01*
X214394291Y54228701D01*
X214396771Y54221771D01*
X214398559Y54214632D01*
X214399639Y54207351D01*
X214400000Y54200000D01*
X214400000Y52875000D01*
X214399639Y52867649D01*
X214398559Y52860368D01*
X214396771Y52853229D01*
X214394291Y52846299D01*
X214391144Y52839645D01*
X214387360Y52833332D01*
X214382976Y52827421D01*
X214378033Y52821967D01*
X214372579Y52817024D01*
X214366668Y52812640D01*
X214360355Y52808856D01*
X214353701Y52805709D01*
X214346771Y52803229D01*
X214339632Y52801441D01*
X214332351Y52800361D01*
X214325000Y52800000D01*
X214175000Y52800000D01*
X214167649Y52800361D01*
X214160368Y52801441D01*
X214153229Y52803229D01*
X214146299Y52805709D01*
X214139645Y52808856D01*
X214133332Y52812640D01*
X214127421Y52817024D01*
X214121967Y52821967D01*
X214117024Y52827421D01*
X214112640Y52833332D01*
X214108856Y52839645D01*
X214105709Y52846299D01*
X214103229Y52853229D01*
X214101441Y52860368D01*
X214100361Y52867649D01*
X214100000Y52875000D01*
X214100000Y54200000D01*
X214100361Y54207351D01*
X214101441Y54214632D01*
X214103229Y54221771D01*
X214105709Y54228701D01*
X214108856Y54235355D01*
X214112640Y54241668D01*
X214117024Y54247579D01*
X214121967Y54253033D01*
X214127421Y54257976D01*
X214133332Y54262360D01*
X214139645Y54266144D01*
X214146299Y54269291D01*
X214153229Y54271771D01*
X214160368Y54273559D01*
X214167649Y54274639D01*
X214175000Y54275000D01*
X214325000Y54275000D01*
X214332351Y54274639D01*
X214332351Y54274639D01*
G37*
D12*
X214250000Y53537500D03*
D11*
G36*
X214832351Y54274639D02*
G01*
X214839632Y54273559D01*
X214846771Y54271771D01*
X214853701Y54269291D01*
X214860355Y54266144D01*
X214866668Y54262360D01*
X214872579Y54257976D01*
X214878033Y54253033D01*
X214882976Y54247579D01*
X214887360Y54241668D01*
X214891144Y54235355D01*
X214894291Y54228701D01*
X214896771Y54221771D01*
X214898559Y54214632D01*
X214899639Y54207351D01*
X214900000Y54200000D01*
X214900000Y52875000D01*
X214899639Y52867649D01*
X214898559Y52860368D01*
X214896771Y52853229D01*
X214894291Y52846299D01*
X214891144Y52839645D01*
X214887360Y52833332D01*
X214882976Y52827421D01*
X214878033Y52821967D01*
X214872579Y52817024D01*
X214866668Y52812640D01*
X214860355Y52808856D01*
X214853701Y52805709D01*
X214846771Y52803229D01*
X214839632Y52801441D01*
X214832351Y52800361D01*
X214825000Y52800000D01*
X214675000Y52800000D01*
X214667649Y52800361D01*
X214660368Y52801441D01*
X214653229Y52803229D01*
X214646299Y52805709D01*
X214639645Y52808856D01*
X214633332Y52812640D01*
X214627421Y52817024D01*
X214621967Y52821967D01*
X214617024Y52827421D01*
X214612640Y52833332D01*
X214608856Y52839645D01*
X214605709Y52846299D01*
X214603229Y52853229D01*
X214601441Y52860368D01*
X214600361Y52867649D01*
X214600000Y52875000D01*
X214600000Y54200000D01*
X214600361Y54207351D01*
X214601441Y54214632D01*
X214603229Y54221771D01*
X214605709Y54228701D01*
X214608856Y54235355D01*
X214612640Y54241668D01*
X214617024Y54247579D01*
X214621967Y54253033D01*
X214627421Y54257976D01*
X214633332Y54262360D01*
X214639645Y54266144D01*
X214646299Y54269291D01*
X214653229Y54271771D01*
X214660368Y54273559D01*
X214667649Y54274639D01*
X214675000Y54275000D01*
X214825000Y54275000D01*
X214832351Y54274639D01*
X214832351Y54274639D01*
G37*
D12*
X214750000Y53537500D03*
D11*
G36*
X215332351Y54274639D02*
G01*
X215339632Y54273559D01*
X215346771Y54271771D01*
X215353701Y54269291D01*
X215360355Y54266144D01*
X215366668Y54262360D01*
X215372579Y54257976D01*
X215378033Y54253033D01*
X215382976Y54247579D01*
X215387360Y54241668D01*
X215391144Y54235355D01*
X215394291Y54228701D01*
X215396771Y54221771D01*
X215398559Y54214632D01*
X215399639Y54207351D01*
X215400000Y54200000D01*
X215400000Y52875000D01*
X215399639Y52867649D01*
X215398559Y52860368D01*
X215396771Y52853229D01*
X215394291Y52846299D01*
X215391144Y52839645D01*
X215387360Y52833332D01*
X215382976Y52827421D01*
X215378033Y52821967D01*
X215372579Y52817024D01*
X215366668Y52812640D01*
X215360355Y52808856D01*
X215353701Y52805709D01*
X215346771Y52803229D01*
X215339632Y52801441D01*
X215332351Y52800361D01*
X215325000Y52800000D01*
X215175000Y52800000D01*
X215167649Y52800361D01*
X215160368Y52801441D01*
X215153229Y52803229D01*
X215146299Y52805709D01*
X215139645Y52808856D01*
X215133332Y52812640D01*
X215127421Y52817024D01*
X215121967Y52821967D01*
X215117024Y52827421D01*
X215112640Y52833332D01*
X215108856Y52839645D01*
X215105709Y52846299D01*
X215103229Y52853229D01*
X215101441Y52860368D01*
X215100361Y52867649D01*
X215100000Y52875000D01*
X215100000Y54200000D01*
X215100361Y54207351D01*
X215101441Y54214632D01*
X215103229Y54221771D01*
X215105709Y54228701D01*
X215108856Y54235355D01*
X215112640Y54241668D01*
X215117024Y54247579D01*
X215121967Y54253033D01*
X215127421Y54257976D01*
X215133332Y54262360D01*
X215139645Y54266144D01*
X215146299Y54269291D01*
X215153229Y54271771D01*
X215160368Y54273559D01*
X215167649Y54274639D01*
X215175000Y54275000D01*
X215325000Y54275000D01*
X215332351Y54274639D01*
X215332351Y54274639D01*
G37*
D12*
X215250000Y53537500D03*
D11*
G36*
X215832351Y54274639D02*
G01*
X215839632Y54273559D01*
X215846771Y54271771D01*
X215853701Y54269291D01*
X215860355Y54266144D01*
X215866668Y54262360D01*
X215872579Y54257976D01*
X215878033Y54253033D01*
X215882976Y54247579D01*
X215887360Y54241668D01*
X215891144Y54235355D01*
X215894291Y54228701D01*
X215896771Y54221771D01*
X215898559Y54214632D01*
X215899639Y54207351D01*
X215900000Y54200000D01*
X215900000Y52875000D01*
X215899639Y52867649D01*
X215898559Y52860368D01*
X215896771Y52853229D01*
X215894291Y52846299D01*
X215891144Y52839645D01*
X215887360Y52833332D01*
X215882976Y52827421D01*
X215878033Y52821967D01*
X215872579Y52817024D01*
X215866668Y52812640D01*
X215860355Y52808856D01*
X215853701Y52805709D01*
X215846771Y52803229D01*
X215839632Y52801441D01*
X215832351Y52800361D01*
X215825000Y52800000D01*
X215675000Y52800000D01*
X215667649Y52800361D01*
X215660368Y52801441D01*
X215653229Y52803229D01*
X215646299Y52805709D01*
X215639645Y52808856D01*
X215633332Y52812640D01*
X215627421Y52817024D01*
X215621967Y52821967D01*
X215617024Y52827421D01*
X215612640Y52833332D01*
X215608856Y52839645D01*
X215605709Y52846299D01*
X215603229Y52853229D01*
X215601441Y52860368D01*
X215600361Y52867649D01*
X215600000Y52875000D01*
X215600000Y54200000D01*
X215600361Y54207351D01*
X215601441Y54214632D01*
X215603229Y54221771D01*
X215605709Y54228701D01*
X215608856Y54235355D01*
X215612640Y54241668D01*
X215617024Y54247579D01*
X215621967Y54253033D01*
X215627421Y54257976D01*
X215633332Y54262360D01*
X215639645Y54266144D01*
X215646299Y54269291D01*
X215653229Y54271771D01*
X215660368Y54273559D01*
X215667649Y54274639D01*
X215675000Y54275000D01*
X215825000Y54275000D01*
X215832351Y54274639D01*
X215832351Y54274639D01*
G37*
D12*
X215750000Y53537500D03*
D11*
G36*
X216332351Y54274639D02*
G01*
X216339632Y54273559D01*
X216346771Y54271771D01*
X216353701Y54269291D01*
X216360355Y54266144D01*
X216366668Y54262360D01*
X216372579Y54257976D01*
X216378033Y54253033D01*
X216382976Y54247579D01*
X216387360Y54241668D01*
X216391144Y54235355D01*
X216394291Y54228701D01*
X216396771Y54221771D01*
X216398559Y54214632D01*
X216399639Y54207351D01*
X216400000Y54200000D01*
X216400000Y52875000D01*
X216399639Y52867649D01*
X216398559Y52860368D01*
X216396771Y52853229D01*
X216394291Y52846299D01*
X216391144Y52839645D01*
X216387360Y52833332D01*
X216382976Y52827421D01*
X216378033Y52821967D01*
X216372579Y52817024D01*
X216366668Y52812640D01*
X216360355Y52808856D01*
X216353701Y52805709D01*
X216346771Y52803229D01*
X216339632Y52801441D01*
X216332351Y52800361D01*
X216325000Y52800000D01*
X216175000Y52800000D01*
X216167649Y52800361D01*
X216160368Y52801441D01*
X216153229Y52803229D01*
X216146299Y52805709D01*
X216139645Y52808856D01*
X216133332Y52812640D01*
X216127421Y52817024D01*
X216121967Y52821967D01*
X216117024Y52827421D01*
X216112640Y52833332D01*
X216108856Y52839645D01*
X216105709Y52846299D01*
X216103229Y52853229D01*
X216101441Y52860368D01*
X216100361Y52867649D01*
X216100000Y52875000D01*
X216100000Y54200000D01*
X216100361Y54207351D01*
X216101441Y54214632D01*
X216103229Y54221771D01*
X216105709Y54228701D01*
X216108856Y54235355D01*
X216112640Y54241668D01*
X216117024Y54247579D01*
X216121967Y54253033D01*
X216127421Y54257976D01*
X216133332Y54262360D01*
X216139645Y54266144D01*
X216146299Y54269291D01*
X216153229Y54271771D01*
X216160368Y54273559D01*
X216167649Y54274639D01*
X216175000Y54275000D01*
X216325000Y54275000D01*
X216332351Y54274639D01*
X216332351Y54274639D01*
G37*
D12*
X216250000Y53537500D03*
D11*
G36*
X216832351Y54274639D02*
G01*
X216839632Y54273559D01*
X216846771Y54271771D01*
X216853701Y54269291D01*
X216860355Y54266144D01*
X216866668Y54262360D01*
X216872579Y54257976D01*
X216878033Y54253033D01*
X216882976Y54247579D01*
X216887360Y54241668D01*
X216891144Y54235355D01*
X216894291Y54228701D01*
X216896771Y54221771D01*
X216898559Y54214632D01*
X216899639Y54207351D01*
X216900000Y54200000D01*
X216900000Y52875000D01*
X216899639Y52867649D01*
X216898559Y52860368D01*
X216896771Y52853229D01*
X216894291Y52846299D01*
X216891144Y52839645D01*
X216887360Y52833332D01*
X216882976Y52827421D01*
X216878033Y52821967D01*
X216872579Y52817024D01*
X216866668Y52812640D01*
X216860355Y52808856D01*
X216853701Y52805709D01*
X216846771Y52803229D01*
X216839632Y52801441D01*
X216832351Y52800361D01*
X216825000Y52800000D01*
X216675000Y52800000D01*
X216667649Y52800361D01*
X216660368Y52801441D01*
X216653229Y52803229D01*
X216646299Y52805709D01*
X216639645Y52808856D01*
X216633332Y52812640D01*
X216627421Y52817024D01*
X216621967Y52821967D01*
X216617024Y52827421D01*
X216612640Y52833332D01*
X216608856Y52839645D01*
X216605709Y52846299D01*
X216603229Y52853229D01*
X216601441Y52860368D01*
X216600361Y52867649D01*
X216600000Y52875000D01*
X216600000Y54200000D01*
X216600361Y54207351D01*
X216601441Y54214632D01*
X216603229Y54221771D01*
X216605709Y54228701D01*
X216608856Y54235355D01*
X216612640Y54241668D01*
X216617024Y54247579D01*
X216621967Y54253033D01*
X216627421Y54257976D01*
X216633332Y54262360D01*
X216639645Y54266144D01*
X216646299Y54269291D01*
X216653229Y54271771D01*
X216660368Y54273559D01*
X216667649Y54274639D01*
X216675000Y54275000D01*
X216825000Y54275000D01*
X216832351Y54274639D01*
X216832351Y54274639D01*
G37*
D12*
X216750000Y53537500D03*
D11*
G36*
X217332351Y54274639D02*
G01*
X217339632Y54273559D01*
X217346771Y54271771D01*
X217353701Y54269291D01*
X217360355Y54266144D01*
X217366668Y54262360D01*
X217372579Y54257976D01*
X217378033Y54253033D01*
X217382976Y54247579D01*
X217387360Y54241668D01*
X217391144Y54235355D01*
X217394291Y54228701D01*
X217396771Y54221771D01*
X217398559Y54214632D01*
X217399639Y54207351D01*
X217400000Y54200000D01*
X217400000Y52875000D01*
X217399639Y52867649D01*
X217398559Y52860368D01*
X217396771Y52853229D01*
X217394291Y52846299D01*
X217391144Y52839645D01*
X217387360Y52833332D01*
X217382976Y52827421D01*
X217378033Y52821967D01*
X217372579Y52817024D01*
X217366668Y52812640D01*
X217360355Y52808856D01*
X217353701Y52805709D01*
X217346771Y52803229D01*
X217339632Y52801441D01*
X217332351Y52800361D01*
X217325000Y52800000D01*
X217175000Y52800000D01*
X217167649Y52800361D01*
X217160368Y52801441D01*
X217153229Y52803229D01*
X217146299Y52805709D01*
X217139645Y52808856D01*
X217133332Y52812640D01*
X217127421Y52817024D01*
X217121967Y52821967D01*
X217117024Y52827421D01*
X217112640Y52833332D01*
X217108856Y52839645D01*
X217105709Y52846299D01*
X217103229Y52853229D01*
X217101441Y52860368D01*
X217100361Y52867649D01*
X217100000Y52875000D01*
X217100000Y54200000D01*
X217100361Y54207351D01*
X217101441Y54214632D01*
X217103229Y54221771D01*
X217105709Y54228701D01*
X217108856Y54235355D01*
X217112640Y54241668D01*
X217117024Y54247579D01*
X217121967Y54253033D01*
X217127421Y54257976D01*
X217133332Y54262360D01*
X217139645Y54266144D01*
X217146299Y54269291D01*
X217153229Y54271771D01*
X217160368Y54273559D01*
X217167649Y54274639D01*
X217175000Y54275000D01*
X217325000Y54275000D01*
X217332351Y54274639D01*
X217332351Y54274639D01*
G37*
D12*
X217250000Y53537500D03*
D11*
G36*
X217832351Y54274639D02*
G01*
X217839632Y54273559D01*
X217846771Y54271771D01*
X217853701Y54269291D01*
X217860355Y54266144D01*
X217866668Y54262360D01*
X217872579Y54257976D01*
X217878033Y54253033D01*
X217882976Y54247579D01*
X217887360Y54241668D01*
X217891144Y54235355D01*
X217894291Y54228701D01*
X217896771Y54221771D01*
X217898559Y54214632D01*
X217899639Y54207351D01*
X217900000Y54200000D01*
X217900000Y52875000D01*
X217899639Y52867649D01*
X217898559Y52860368D01*
X217896771Y52853229D01*
X217894291Y52846299D01*
X217891144Y52839645D01*
X217887360Y52833332D01*
X217882976Y52827421D01*
X217878033Y52821967D01*
X217872579Y52817024D01*
X217866668Y52812640D01*
X217860355Y52808856D01*
X217853701Y52805709D01*
X217846771Y52803229D01*
X217839632Y52801441D01*
X217832351Y52800361D01*
X217825000Y52800000D01*
X217675000Y52800000D01*
X217667649Y52800361D01*
X217660368Y52801441D01*
X217653229Y52803229D01*
X217646299Y52805709D01*
X217639645Y52808856D01*
X217633332Y52812640D01*
X217627421Y52817024D01*
X217621967Y52821967D01*
X217617024Y52827421D01*
X217612640Y52833332D01*
X217608856Y52839645D01*
X217605709Y52846299D01*
X217603229Y52853229D01*
X217601441Y52860368D01*
X217600361Y52867649D01*
X217600000Y52875000D01*
X217600000Y54200000D01*
X217600361Y54207351D01*
X217601441Y54214632D01*
X217603229Y54221771D01*
X217605709Y54228701D01*
X217608856Y54235355D01*
X217612640Y54241668D01*
X217617024Y54247579D01*
X217621967Y54253033D01*
X217627421Y54257976D01*
X217633332Y54262360D01*
X217639645Y54266144D01*
X217646299Y54269291D01*
X217653229Y54271771D01*
X217660368Y54273559D01*
X217667649Y54274639D01*
X217675000Y54275000D01*
X217825000Y54275000D01*
X217832351Y54274639D01*
X217832351Y54274639D01*
G37*
D12*
X217750000Y53537500D03*
D11*
G36*
X218332351Y54274639D02*
G01*
X218339632Y54273559D01*
X218346771Y54271771D01*
X218353701Y54269291D01*
X218360355Y54266144D01*
X218366668Y54262360D01*
X218372579Y54257976D01*
X218378033Y54253033D01*
X218382976Y54247579D01*
X218387360Y54241668D01*
X218391144Y54235355D01*
X218394291Y54228701D01*
X218396771Y54221771D01*
X218398559Y54214632D01*
X218399639Y54207351D01*
X218400000Y54200000D01*
X218400000Y52875000D01*
X218399639Y52867649D01*
X218398559Y52860368D01*
X218396771Y52853229D01*
X218394291Y52846299D01*
X218391144Y52839645D01*
X218387360Y52833332D01*
X218382976Y52827421D01*
X218378033Y52821967D01*
X218372579Y52817024D01*
X218366668Y52812640D01*
X218360355Y52808856D01*
X218353701Y52805709D01*
X218346771Y52803229D01*
X218339632Y52801441D01*
X218332351Y52800361D01*
X218325000Y52800000D01*
X218175000Y52800000D01*
X218167649Y52800361D01*
X218160368Y52801441D01*
X218153229Y52803229D01*
X218146299Y52805709D01*
X218139645Y52808856D01*
X218133332Y52812640D01*
X218127421Y52817024D01*
X218121967Y52821967D01*
X218117024Y52827421D01*
X218112640Y52833332D01*
X218108856Y52839645D01*
X218105709Y52846299D01*
X218103229Y52853229D01*
X218101441Y52860368D01*
X218100361Y52867649D01*
X218100000Y52875000D01*
X218100000Y54200000D01*
X218100361Y54207351D01*
X218101441Y54214632D01*
X218103229Y54221771D01*
X218105709Y54228701D01*
X218108856Y54235355D01*
X218112640Y54241668D01*
X218117024Y54247579D01*
X218121967Y54253033D01*
X218127421Y54257976D01*
X218133332Y54262360D01*
X218139645Y54266144D01*
X218146299Y54269291D01*
X218153229Y54271771D01*
X218160368Y54273559D01*
X218167649Y54274639D01*
X218175000Y54275000D01*
X218325000Y54275000D01*
X218332351Y54274639D01*
X218332351Y54274639D01*
G37*
D12*
X218250000Y53537500D03*
D11*
G36*
X220332351Y55099639D02*
G01*
X220339632Y55098559D01*
X220346771Y55096771D01*
X220353701Y55094291D01*
X220360355Y55091144D01*
X220366668Y55087360D01*
X220372579Y55082976D01*
X220378033Y55078033D01*
X220382976Y55072579D01*
X220387360Y55066668D01*
X220391144Y55060355D01*
X220394291Y55053701D01*
X220396771Y55046771D01*
X220398559Y55039632D01*
X220399639Y55032351D01*
X220400000Y55025000D01*
X220400000Y54875000D01*
X220399639Y54867649D01*
X220398559Y54860368D01*
X220396771Y54853229D01*
X220394291Y54846299D01*
X220391144Y54839645D01*
X220387360Y54833332D01*
X220382976Y54827421D01*
X220378033Y54821967D01*
X220372579Y54817024D01*
X220366668Y54812640D01*
X220360355Y54808856D01*
X220353701Y54805709D01*
X220346771Y54803229D01*
X220339632Y54801441D01*
X220332351Y54800361D01*
X220325000Y54800000D01*
X219000000Y54800000D01*
X218992649Y54800361D01*
X218985368Y54801441D01*
X218978229Y54803229D01*
X218971299Y54805709D01*
X218964645Y54808856D01*
X218958332Y54812640D01*
X218952421Y54817024D01*
X218946967Y54821967D01*
X218942024Y54827421D01*
X218937640Y54833332D01*
X218933856Y54839645D01*
X218930709Y54846299D01*
X218928229Y54853229D01*
X218926441Y54860368D01*
X218925361Y54867649D01*
X218925000Y54875000D01*
X218925000Y55025000D01*
X218925361Y55032351D01*
X218926441Y55039632D01*
X218928229Y55046771D01*
X218930709Y55053701D01*
X218933856Y55060355D01*
X218937640Y55066668D01*
X218942024Y55072579D01*
X218946967Y55078033D01*
X218952421Y55082976D01*
X218958332Y55087360D01*
X218964645Y55091144D01*
X218971299Y55094291D01*
X218978229Y55096771D01*
X218985368Y55098559D01*
X218992649Y55099639D01*
X219000000Y55100000D01*
X220325000Y55100000D01*
X220332351Y55099639D01*
X220332351Y55099639D01*
G37*
D12*
X219662500Y54950000D03*
D11*
G36*
X220332351Y55599639D02*
G01*
X220339632Y55598559D01*
X220346771Y55596771D01*
X220353701Y55594291D01*
X220360355Y55591144D01*
X220366668Y55587360D01*
X220372579Y55582976D01*
X220378033Y55578033D01*
X220382976Y55572579D01*
X220387360Y55566668D01*
X220391144Y55560355D01*
X220394291Y55553701D01*
X220396771Y55546771D01*
X220398559Y55539632D01*
X220399639Y55532351D01*
X220400000Y55525000D01*
X220400000Y55375000D01*
X220399639Y55367649D01*
X220398559Y55360368D01*
X220396771Y55353229D01*
X220394291Y55346299D01*
X220391144Y55339645D01*
X220387360Y55333332D01*
X220382976Y55327421D01*
X220378033Y55321967D01*
X220372579Y55317024D01*
X220366668Y55312640D01*
X220360355Y55308856D01*
X220353701Y55305709D01*
X220346771Y55303229D01*
X220339632Y55301441D01*
X220332351Y55300361D01*
X220325000Y55300000D01*
X219000000Y55300000D01*
X218992649Y55300361D01*
X218985368Y55301441D01*
X218978229Y55303229D01*
X218971299Y55305709D01*
X218964645Y55308856D01*
X218958332Y55312640D01*
X218952421Y55317024D01*
X218946967Y55321967D01*
X218942024Y55327421D01*
X218937640Y55333332D01*
X218933856Y55339645D01*
X218930709Y55346299D01*
X218928229Y55353229D01*
X218926441Y55360368D01*
X218925361Y55367649D01*
X218925000Y55375000D01*
X218925000Y55525000D01*
X218925361Y55532351D01*
X218926441Y55539632D01*
X218928229Y55546771D01*
X218930709Y55553701D01*
X218933856Y55560355D01*
X218937640Y55566668D01*
X218942024Y55572579D01*
X218946967Y55578033D01*
X218952421Y55582976D01*
X218958332Y55587360D01*
X218964645Y55591144D01*
X218971299Y55594291D01*
X218978229Y55596771D01*
X218985368Y55598559D01*
X218992649Y55599639D01*
X219000000Y55600000D01*
X220325000Y55600000D01*
X220332351Y55599639D01*
X220332351Y55599639D01*
G37*
D12*
X219662500Y55450000D03*
D11*
G36*
X220332351Y56099639D02*
G01*
X220339632Y56098559D01*
X220346771Y56096771D01*
X220353701Y56094291D01*
X220360355Y56091144D01*
X220366668Y56087360D01*
X220372579Y56082976D01*
X220378033Y56078033D01*
X220382976Y56072579D01*
X220387360Y56066668D01*
X220391144Y56060355D01*
X220394291Y56053701D01*
X220396771Y56046771D01*
X220398559Y56039632D01*
X220399639Y56032351D01*
X220400000Y56025000D01*
X220400000Y55875000D01*
X220399639Y55867649D01*
X220398559Y55860368D01*
X220396771Y55853229D01*
X220394291Y55846299D01*
X220391144Y55839645D01*
X220387360Y55833332D01*
X220382976Y55827421D01*
X220378033Y55821967D01*
X220372579Y55817024D01*
X220366668Y55812640D01*
X220360355Y55808856D01*
X220353701Y55805709D01*
X220346771Y55803229D01*
X220339632Y55801441D01*
X220332351Y55800361D01*
X220325000Y55800000D01*
X219000000Y55800000D01*
X218992649Y55800361D01*
X218985368Y55801441D01*
X218978229Y55803229D01*
X218971299Y55805709D01*
X218964645Y55808856D01*
X218958332Y55812640D01*
X218952421Y55817024D01*
X218946967Y55821967D01*
X218942024Y55827421D01*
X218937640Y55833332D01*
X218933856Y55839645D01*
X218930709Y55846299D01*
X218928229Y55853229D01*
X218926441Y55860368D01*
X218925361Y55867649D01*
X218925000Y55875000D01*
X218925000Y56025000D01*
X218925361Y56032351D01*
X218926441Y56039632D01*
X218928229Y56046771D01*
X218930709Y56053701D01*
X218933856Y56060355D01*
X218937640Y56066668D01*
X218942024Y56072579D01*
X218946967Y56078033D01*
X218952421Y56082976D01*
X218958332Y56087360D01*
X218964645Y56091144D01*
X218971299Y56094291D01*
X218978229Y56096771D01*
X218985368Y56098559D01*
X218992649Y56099639D01*
X219000000Y56100000D01*
X220325000Y56100000D01*
X220332351Y56099639D01*
X220332351Y56099639D01*
G37*
D12*
X219662500Y55950000D03*
D11*
G36*
X220332351Y56599639D02*
G01*
X220339632Y56598559D01*
X220346771Y56596771D01*
X220353701Y56594291D01*
X220360355Y56591144D01*
X220366668Y56587360D01*
X220372579Y56582976D01*
X220378033Y56578033D01*
X220382976Y56572579D01*
X220387360Y56566668D01*
X220391144Y56560355D01*
X220394291Y56553701D01*
X220396771Y56546771D01*
X220398559Y56539632D01*
X220399639Y56532351D01*
X220400000Y56525000D01*
X220400000Y56375000D01*
X220399639Y56367649D01*
X220398559Y56360368D01*
X220396771Y56353229D01*
X220394291Y56346299D01*
X220391144Y56339645D01*
X220387360Y56333332D01*
X220382976Y56327421D01*
X220378033Y56321967D01*
X220372579Y56317024D01*
X220366668Y56312640D01*
X220360355Y56308856D01*
X220353701Y56305709D01*
X220346771Y56303229D01*
X220339632Y56301441D01*
X220332351Y56300361D01*
X220325000Y56300000D01*
X219000000Y56300000D01*
X218992649Y56300361D01*
X218985368Y56301441D01*
X218978229Y56303229D01*
X218971299Y56305709D01*
X218964645Y56308856D01*
X218958332Y56312640D01*
X218952421Y56317024D01*
X218946967Y56321967D01*
X218942024Y56327421D01*
X218937640Y56333332D01*
X218933856Y56339645D01*
X218930709Y56346299D01*
X218928229Y56353229D01*
X218926441Y56360368D01*
X218925361Y56367649D01*
X218925000Y56375000D01*
X218925000Y56525000D01*
X218925361Y56532351D01*
X218926441Y56539632D01*
X218928229Y56546771D01*
X218930709Y56553701D01*
X218933856Y56560355D01*
X218937640Y56566668D01*
X218942024Y56572579D01*
X218946967Y56578033D01*
X218952421Y56582976D01*
X218958332Y56587360D01*
X218964645Y56591144D01*
X218971299Y56594291D01*
X218978229Y56596771D01*
X218985368Y56598559D01*
X218992649Y56599639D01*
X219000000Y56600000D01*
X220325000Y56600000D01*
X220332351Y56599639D01*
X220332351Y56599639D01*
G37*
D12*
X219662500Y56450000D03*
D11*
G36*
X220332351Y57099639D02*
G01*
X220339632Y57098559D01*
X220346771Y57096771D01*
X220353701Y57094291D01*
X220360355Y57091144D01*
X220366668Y57087360D01*
X220372579Y57082976D01*
X220378033Y57078033D01*
X220382976Y57072579D01*
X220387360Y57066668D01*
X220391144Y57060355D01*
X220394291Y57053701D01*
X220396771Y57046771D01*
X220398559Y57039632D01*
X220399639Y57032351D01*
X220400000Y57025000D01*
X220400000Y56875000D01*
X220399639Y56867649D01*
X220398559Y56860368D01*
X220396771Y56853229D01*
X220394291Y56846299D01*
X220391144Y56839645D01*
X220387360Y56833332D01*
X220382976Y56827421D01*
X220378033Y56821967D01*
X220372579Y56817024D01*
X220366668Y56812640D01*
X220360355Y56808856D01*
X220353701Y56805709D01*
X220346771Y56803229D01*
X220339632Y56801441D01*
X220332351Y56800361D01*
X220325000Y56800000D01*
X219000000Y56800000D01*
X218992649Y56800361D01*
X218985368Y56801441D01*
X218978229Y56803229D01*
X218971299Y56805709D01*
X218964645Y56808856D01*
X218958332Y56812640D01*
X218952421Y56817024D01*
X218946967Y56821967D01*
X218942024Y56827421D01*
X218937640Y56833332D01*
X218933856Y56839645D01*
X218930709Y56846299D01*
X218928229Y56853229D01*
X218926441Y56860368D01*
X218925361Y56867649D01*
X218925000Y56875000D01*
X218925000Y57025000D01*
X218925361Y57032351D01*
X218926441Y57039632D01*
X218928229Y57046771D01*
X218930709Y57053701D01*
X218933856Y57060355D01*
X218937640Y57066668D01*
X218942024Y57072579D01*
X218946967Y57078033D01*
X218952421Y57082976D01*
X218958332Y57087360D01*
X218964645Y57091144D01*
X218971299Y57094291D01*
X218978229Y57096771D01*
X218985368Y57098559D01*
X218992649Y57099639D01*
X219000000Y57100000D01*
X220325000Y57100000D01*
X220332351Y57099639D01*
X220332351Y57099639D01*
G37*
D12*
X219662500Y56950000D03*
D11*
G36*
X220332351Y57599639D02*
G01*
X220339632Y57598559D01*
X220346771Y57596771D01*
X220353701Y57594291D01*
X220360355Y57591144D01*
X220366668Y57587360D01*
X220372579Y57582976D01*
X220378033Y57578033D01*
X220382976Y57572579D01*
X220387360Y57566668D01*
X220391144Y57560355D01*
X220394291Y57553701D01*
X220396771Y57546771D01*
X220398559Y57539632D01*
X220399639Y57532351D01*
X220400000Y57525000D01*
X220400000Y57375000D01*
X220399639Y57367649D01*
X220398559Y57360368D01*
X220396771Y57353229D01*
X220394291Y57346299D01*
X220391144Y57339645D01*
X220387360Y57333332D01*
X220382976Y57327421D01*
X220378033Y57321967D01*
X220372579Y57317024D01*
X220366668Y57312640D01*
X220360355Y57308856D01*
X220353701Y57305709D01*
X220346771Y57303229D01*
X220339632Y57301441D01*
X220332351Y57300361D01*
X220325000Y57300000D01*
X219000000Y57300000D01*
X218992649Y57300361D01*
X218985368Y57301441D01*
X218978229Y57303229D01*
X218971299Y57305709D01*
X218964645Y57308856D01*
X218958332Y57312640D01*
X218952421Y57317024D01*
X218946967Y57321967D01*
X218942024Y57327421D01*
X218937640Y57333332D01*
X218933856Y57339645D01*
X218930709Y57346299D01*
X218928229Y57353229D01*
X218926441Y57360368D01*
X218925361Y57367649D01*
X218925000Y57375000D01*
X218925000Y57525000D01*
X218925361Y57532351D01*
X218926441Y57539632D01*
X218928229Y57546771D01*
X218930709Y57553701D01*
X218933856Y57560355D01*
X218937640Y57566668D01*
X218942024Y57572579D01*
X218946967Y57578033D01*
X218952421Y57582976D01*
X218958332Y57587360D01*
X218964645Y57591144D01*
X218971299Y57594291D01*
X218978229Y57596771D01*
X218985368Y57598559D01*
X218992649Y57599639D01*
X219000000Y57600000D01*
X220325000Y57600000D01*
X220332351Y57599639D01*
X220332351Y57599639D01*
G37*
D12*
X219662500Y57450000D03*
D11*
G36*
X220332351Y58099639D02*
G01*
X220339632Y58098559D01*
X220346771Y58096771D01*
X220353701Y58094291D01*
X220360355Y58091144D01*
X220366668Y58087360D01*
X220372579Y58082976D01*
X220378033Y58078033D01*
X220382976Y58072579D01*
X220387360Y58066668D01*
X220391144Y58060355D01*
X220394291Y58053701D01*
X220396771Y58046771D01*
X220398559Y58039632D01*
X220399639Y58032351D01*
X220400000Y58025000D01*
X220400000Y57875000D01*
X220399639Y57867649D01*
X220398559Y57860368D01*
X220396771Y57853229D01*
X220394291Y57846299D01*
X220391144Y57839645D01*
X220387360Y57833332D01*
X220382976Y57827421D01*
X220378033Y57821967D01*
X220372579Y57817024D01*
X220366668Y57812640D01*
X220360355Y57808856D01*
X220353701Y57805709D01*
X220346771Y57803229D01*
X220339632Y57801441D01*
X220332351Y57800361D01*
X220325000Y57800000D01*
X219000000Y57800000D01*
X218992649Y57800361D01*
X218985368Y57801441D01*
X218978229Y57803229D01*
X218971299Y57805709D01*
X218964645Y57808856D01*
X218958332Y57812640D01*
X218952421Y57817024D01*
X218946967Y57821967D01*
X218942024Y57827421D01*
X218937640Y57833332D01*
X218933856Y57839645D01*
X218930709Y57846299D01*
X218928229Y57853229D01*
X218926441Y57860368D01*
X218925361Y57867649D01*
X218925000Y57875000D01*
X218925000Y58025000D01*
X218925361Y58032351D01*
X218926441Y58039632D01*
X218928229Y58046771D01*
X218930709Y58053701D01*
X218933856Y58060355D01*
X218937640Y58066668D01*
X218942024Y58072579D01*
X218946967Y58078033D01*
X218952421Y58082976D01*
X218958332Y58087360D01*
X218964645Y58091144D01*
X218971299Y58094291D01*
X218978229Y58096771D01*
X218985368Y58098559D01*
X218992649Y58099639D01*
X219000000Y58100000D01*
X220325000Y58100000D01*
X220332351Y58099639D01*
X220332351Y58099639D01*
G37*
D12*
X219662500Y57950000D03*
D11*
G36*
X220332351Y58599639D02*
G01*
X220339632Y58598559D01*
X220346771Y58596771D01*
X220353701Y58594291D01*
X220360355Y58591144D01*
X220366668Y58587360D01*
X220372579Y58582976D01*
X220378033Y58578033D01*
X220382976Y58572579D01*
X220387360Y58566668D01*
X220391144Y58560355D01*
X220394291Y58553701D01*
X220396771Y58546771D01*
X220398559Y58539632D01*
X220399639Y58532351D01*
X220400000Y58525000D01*
X220400000Y58375000D01*
X220399639Y58367649D01*
X220398559Y58360368D01*
X220396771Y58353229D01*
X220394291Y58346299D01*
X220391144Y58339645D01*
X220387360Y58333332D01*
X220382976Y58327421D01*
X220378033Y58321967D01*
X220372579Y58317024D01*
X220366668Y58312640D01*
X220360355Y58308856D01*
X220353701Y58305709D01*
X220346771Y58303229D01*
X220339632Y58301441D01*
X220332351Y58300361D01*
X220325000Y58300000D01*
X219000000Y58300000D01*
X218992649Y58300361D01*
X218985368Y58301441D01*
X218978229Y58303229D01*
X218971299Y58305709D01*
X218964645Y58308856D01*
X218958332Y58312640D01*
X218952421Y58317024D01*
X218946967Y58321967D01*
X218942024Y58327421D01*
X218937640Y58333332D01*
X218933856Y58339645D01*
X218930709Y58346299D01*
X218928229Y58353229D01*
X218926441Y58360368D01*
X218925361Y58367649D01*
X218925000Y58375000D01*
X218925000Y58525000D01*
X218925361Y58532351D01*
X218926441Y58539632D01*
X218928229Y58546771D01*
X218930709Y58553701D01*
X218933856Y58560355D01*
X218937640Y58566668D01*
X218942024Y58572579D01*
X218946967Y58578033D01*
X218952421Y58582976D01*
X218958332Y58587360D01*
X218964645Y58591144D01*
X218971299Y58594291D01*
X218978229Y58596771D01*
X218985368Y58598559D01*
X218992649Y58599639D01*
X219000000Y58600000D01*
X220325000Y58600000D01*
X220332351Y58599639D01*
X220332351Y58599639D01*
G37*
D12*
X219662500Y58450000D03*
D11*
G36*
X220332351Y59099639D02*
G01*
X220339632Y59098559D01*
X220346771Y59096771D01*
X220353701Y59094291D01*
X220360355Y59091144D01*
X220366668Y59087360D01*
X220372579Y59082976D01*
X220378033Y59078033D01*
X220382976Y59072579D01*
X220387360Y59066668D01*
X220391144Y59060355D01*
X220394291Y59053701D01*
X220396771Y59046771D01*
X220398559Y59039632D01*
X220399639Y59032351D01*
X220400000Y59025000D01*
X220400000Y58875000D01*
X220399639Y58867649D01*
X220398559Y58860368D01*
X220396771Y58853229D01*
X220394291Y58846299D01*
X220391144Y58839645D01*
X220387360Y58833332D01*
X220382976Y58827421D01*
X220378033Y58821967D01*
X220372579Y58817024D01*
X220366668Y58812640D01*
X220360355Y58808856D01*
X220353701Y58805709D01*
X220346771Y58803229D01*
X220339632Y58801441D01*
X220332351Y58800361D01*
X220325000Y58800000D01*
X219000000Y58800000D01*
X218992649Y58800361D01*
X218985368Y58801441D01*
X218978229Y58803229D01*
X218971299Y58805709D01*
X218964645Y58808856D01*
X218958332Y58812640D01*
X218952421Y58817024D01*
X218946967Y58821967D01*
X218942024Y58827421D01*
X218937640Y58833332D01*
X218933856Y58839645D01*
X218930709Y58846299D01*
X218928229Y58853229D01*
X218926441Y58860368D01*
X218925361Y58867649D01*
X218925000Y58875000D01*
X218925000Y59025000D01*
X218925361Y59032351D01*
X218926441Y59039632D01*
X218928229Y59046771D01*
X218930709Y59053701D01*
X218933856Y59060355D01*
X218937640Y59066668D01*
X218942024Y59072579D01*
X218946967Y59078033D01*
X218952421Y59082976D01*
X218958332Y59087360D01*
X218964645Y59091144D01*
X218971299Y59094291D01*
X218978229Y59096771D01*
X218985368Y59098559D01*
X218992649Y59099639D01*
X219000000Y59100000D01*
X220325000Y59100000D01*
X220332351Y59099639D01*
X220332351Y59099639D01*
G37*
D12*
X219662500Y58950000D03*
D11*
G36*
X220332351Y59599639D02*
G01*
X220339632Y59598559D01*
X220346771Y59596771D01*
X220353701Y59594291D01*
X220360355Y59591144D01*
X220366668Y59587360D01*
X220372579Y59582976D01*
X220378033Y59578033D01*
X220382976Y59572579D01*
X220387360Y59566668D01*
X220391144Y59560355D01*
X220394291Y59553701D01*
X220396771Y59546771D01*
X220398559Y59539632D01*
X220399639Y59532351D01*
X220400000Y59525000D01*
X220400000Y59375000D01*
X220399639Y59367649D01*
X220398559Y59360368D01*
X220396771Y59353229D01*
X220394291Y59346299D01*
X220391144Y59339645D01*
X220387360Y59333332D01*
X220382976Y59327421D01*
X220378033Y59321967D01*
X220372579Y59317024D01*
X220366668Y59312640D01*
X220360355Y59308856D01*
X220353701Y59305709D01*
X220346771Y59303229D01*
X220339632Y59301441D01*
X220332351Y59300361D01*
X220325000Y59300000D01*
X219000000Y59300000D01*
X218992649Y59300361D01*
X218985368Y59301441D01*
X218978229Y59303229D01*
X218971299Y59305709D01*
X218964645Y59308856D01*
X218958332Y59312640D01*
X218952421Y59317024D01*
X218946967Y59321967D01*
X218942024Y59327421D01*
X218937640Y59333332D01*
X218933856Y59339645D01*
X218930709Y59346299D01*
X218928229Y59353229D01*
X218926441Y59360368D01*
X218925361Y59367649D01*
X218925000Y59375000D01*
X218925000Y59525000D01*
X218925361Y59532351D01*
X218926441Y59539632D01*
X218928229Y59546771D01*
X218930709Y59553701D01*
X218933856Y59560355D01*
X218937640Y59566668D01*
X218942024Y59572579D01*
X218946967Y59578033D01*
X218952421Y59582976D01*
X218958332Y59587360D01*
X218964645Y59591144D01*
X218971299Y59594291D01*
X218978229Y59596771D01*
X218985368Y59598559D01*
X218992649Y59599639D01*
X219000000Y59600000D01*
X220325000Y59600000D01*
X220332351Y59599639D01*
X220332351Y59599639D01*
G37*
D12*
X219662500Y59450000D03*
D11*
G36*
X220332351Y60099639D02*
G01*
X220339632Y60098559D01*
X220346771Y60096771D01*
X220353701Y60094291D01*
X220360355Y60091144D01*
X220366668Y60087360D01*
X220372579Y60082976D01*
X220378033Y60078033D01*
X220382976Y60072579D01*
X220387360Y60066668D01*
X220391144Y60060355D01*
X220394291Y60053701D01*
X220396771Y60046771D01*
X220398559Y60039632D01*
X220399639Y60032351D01*
X220400000Y60025000D01*
X220400000Y59875000D01*
X220399639Y59867649D01*
X220398559Y59860368D01*
X220396771Y59853229D01*
X220394291Y59846299D01*
X220391144Y59839645D01*
X220387360Y59833332D01*
X220382976Y59827421D01*
X220378033Y59821967D01*
X220372579Y59817024D01*
X220366668Y59812640D01*
X220360355Y59808856D01*
X220353701Y59805709D01*
X220346771Y59803229D01*
X220339632Y59801441D01*
X220332351Y59800361D01*
X220325000Y59800000D01*
X219000000Y59800000D01*
X218992649Y59800361D01*
X218985368Y59801441D01*
X218978229Y59803229D01*
X218971299Y59805709D01*
X218964645Y59808856D01*
X218958332Y59812640D01*
X218952421Y59817024D01*
X218946967Y59821967D01*
X218942024Y59827421D01*
X218937640Y59833332D01*
X218933856Y59839645D01*
X218930709Y59846299D01*
X218928229Y59853229D01*
X218926441Y59860368D01*
X218925361Y59867649D01*
X218925000Y59875000D01*
X218925000Y60025000D01*
X218925361Y60032351D01*
X218926441Y60039632D01*
X218928229Y60046771D01*
X218930709Y60053701D01*
X218933856Y60060355D01*
X218937640Y60066668D01*
X218942024Y60072579D01*
X218946967Y60078033D01*
X218952421Y60082976D01*
X218958332Y60087360D01*
X218964645Y60091144D01*
X218971299Y60094291D01*
X218978229Y60096771D01*
X218985368Y60098559D01*
X218992649Y60099639D01*
X219000000Y60100000D01*
X220325000Y60100000D01*
X220332351Y60099639D01*
X220332351Y60099639D01*
G37*
D12*
X219662500Y59950000D03*
D11*
G36*
X220332351Y60599639D02*
G01*
X220339632Y60598559D01*
X220346771Y60596771D01*
X220353701Y60594291D01*
X220360355Y60591144D01*
X220366668Y60587360D01*
X220372579Y60582976D01*
X220378033Y60578033D01*
X220382976Y60572579D01*
X220387360Y60566668D01*
X220391144Y60560355D01*
X220394291Y60553701D01*
X220396771Y60546771D01*
X220398559Y60539632D01*
X220399639Y60532351D01*
X220400000Y60525000D01*
X220400000Y60375000D01*
X220399639Y60367649D01*
X220398559Y60360368D01*
X220396771Y60353229D01*
X220394291Y60346299D01*
X220391144Y60339645D01*
X220387360Y60333332D01*
X220382976Y60327421D01*
X220378033Y60321967D01*
X220372579Y60317024D01*
X220366668Y60312640D01*
X220360355Y60308856D01*
X220353701Y60305709D01*
X220346771Y60303229D01*
X220339632Y60301441D01*
X220332351Y60300361D01*
X220325000Y60300000D01*
X219000000Y60300000D01*
X218992649Y60300361D01*
X218985368Y60301441D01*
X218978229Y60303229D01*
X218971299Y60305709D01*
X218964645Y60308856D01*
X218958332Y60312640D01*
X218952421Y60317024D01*
X218946967Y60321967D01*
X218942024Y60327421D01*
X218937640Y60333332D01*
X218933856Y60339645D01*
X218930709Y60346299D01*
X218928229Y60353229D01*
X218926441Y60360368D01*
X218925361Y60367649D01*
X218925000Y60375000D01*
X218925000Y60525000D01*
X218925361Y60532351D01*
X218926441Y60539632D01*
X218928229Y60546771D01*
X218930709Y60553701D01*
X218933856Y60560355D01*
X218937640Y60566668D01*
X218942024Y60572579D01*
X218946967Y60578033D01*
X218952421Y60582976D01*
X218958332Y60587360D01*
X218964645Y60591144D01*
X218971299Y60594291D01*
X218978229Y60596771D01*
X218985368Y60598559D01*
X218992649Y60599639D01*
X219000000Y60600000D01*
X220325000Y60600000D01*
X220332351Y60599639D01*
X220332351Y60599639D01*
G37*
D12*
X219662500Y60450000D03*
D11*
G36*
X218332351Y62599639D02*
G01*
X218339632Y62598559D01*
X218346771Y62596771D01*
X218353701Y62594291D01*
X218360355Y62591144D01*
X218366668Y62587360D01*
X218372579Y62582976D01*
X218378033Y62578033D01*
X218382976Y62572579D01*
X218387360Y62566668D01*
X218391144Y62560355D01*
X218394291Y62553701D01*
X218396771Y62546771D01*
X218398559Y62539632D01*
X218399639Y62532351D01*
X218400000Y62525000D01*
X218400000Y61200000D01*
X218399639Y61192649D01*
X218398559Y61185368D01*
X218396771Y61178229D01*
X218394291Y61171299D01*
X218391144Y61164645D01*
X218387360Y61158332D01*
X218382976Y61152421D01*
X218378033Y61146967D01*
X218372579Y61142024D01*
X218366668Y61137640D01*
X218360355Y61133856D01*
X218353701Y61130709D01*
X218346771Y61128229D01*
X218339632Y61126441D01*
X218332351Y61125361D01*
X218325000Y61125000D01*
X218175000Y61125000D01*
X218167649Y61125361D01*
X218160368Y61126441D01*
X218153229Y61128229D01*
X218146299Y61130709D01*
X218139645Y61133856D01*
X218133332Y61137640D01*
X218127421Y61142024D01*
X218121967Y61146967D01*
X218117024Y61152421D01*
X218112640Y61158332D01*
X218108856Y61164645D01*
X218105709Y61171299D01*
X218103229Y61178229D01*
X218101441Y61185368D01*
X218100361Y61192649D01*
X218100000Y61200000D01*
X218100000Y62525000D01*
X218100361Y62532351D01*
X218101441Y62539632D01*
X218103229Y62546771D01*
X218105709Y62553701D01*
X218108856Y62560355D01*
X218112640Y62566668D01*
X218117024Y62572579D01*
X218121967Y62578033D01*
X218127421Y62582976D01*
X218133332Y62587360D01*
X218139645Y62591144D01*
X218146299Y62594291D01*
X218153229Y62596771D01*
X218160368Y62598559D01*
X218167649Y62599639D01*
X218175000Y62600000D01*
X218325000Y62600000D01*
X218332351Y62599639D01*
X218332351Y62599639D01*
G37*
D12*
X218250000Y61862500D03*
D11*
G36*
X217832351Y62599639D02*
G01*
X217839632Y62598559D01*
X217846771Y62596771D01*
X217853701Y62594291D01*
X217860355Y62591144D01*
X217866668Y62587360D01*
X217872579Y62582976D01*
X217878033Y62578033D01*
X217882976Y62572579D01*
X217887360Y62566668D01*
X217891144Y62560355D01*
X217894291Y62553701D01*
X217896771Y62546771D01*
X217898559Y62539632D01*
X217899639Y62532351D01*
X217900000Y62525000D01*
X217900000Y61200000D01*
X217899639Y61192649D01*
X217898559Y61185368D01*
X217896771Y61178229D01*
X217894291Y61171299D01*
X217891144Y61164645D01*
X217887360Y61158332D01*
X217882976Y61152421D01*
X217878033Y61146967D01*
X217872579Y61142024D01*
X217866668Y61137640D01*
X217860355Y61133856D01*
X217853701Y61130709D01*
X217846771Y61128229D01*
X217839632Y61126441D01*
X217832351Y61125361D01*
X217825000Y61125000D01*
X217675000Y61125000D01*
X217667649Y61125361D01*
X217660368Y61126441D01*
X217653229Y61128229D01*
X217646299Y61130709D01*
X217639645Y61133856D01*
X217633332Y61137640D01*
X217627421Y61142024D01*
X217621967Y61146967D01*
X217617024Y61152421D01*
X217612640Y61158332D01*
X217608856Y61164645D01*
X217605709Y61171299D01*
X217603229Y61178229D01*
X217601441Y61185368D01*
X217600361Y61192649D01*
X217600000Y61200000D01*
X217600000Y62525000D01*
X217600361Y62532351D01*
X217601441Y62539632D01*
X217603229Y62546771D01*
X217605709Y62553701D01*
X217608856Y62560355D01*
X217612640Y62566668D01*
X217617024Y62572579D01*
X217621967Y62578033D01*
X217627421Y62582976D01*
X217633332Y62587360D01*
X217639645Y62591144D01*
X217646299Y62594291D01*
X217653229Y62596771D01*
X217660368Y62598559D01*
X217667649Y62599639D01*
X217675000Y62600000D01*
X217825000Y62600000D01*
X217832351Y62599639D01*
X217832351Y62599639D01*
G37*
D12*
X217750000Y61862500D03*
D11*
G36*
X217332351Y62599639D02*
G01*
X217339632Y62598559D01*
X217346771Y62596771D01*
X217353701Y62594291D01*
X217360355Y62591144D01*
X217366668Y62587360D01*
X217372579Y62582976D01*
X217378033Y62578033D01*
X217382976Y62572579D01*
X217387360Y62566668D01*
X217391144Y62560355D01*
X217394291Y62553701D01*
X217396771Y62546771D01*
X217398559Y62539632D01*
X217399639Y62532351D01*
X217400000Y62525000D01*
X217400000Y61200000D01*
X217399639Y61192649D01*
X217398559Y61185368D01*
X217396771Y61178229D01*
X217394291Y61171299D01*
X217391144Y61164645D01*
X217387360Y61158332D01*
X217382976Y61152421D01*
X217378033Y61146967D01*
X217372579Y61142024D01*
X217366668Y61137640D01*
X217360355Y61133856D01*
X217353701Y61130709D01*
X217346771Y61128229D01*
X217339632Y61126441D01*
X217332351Y61125361D01*
X217325000Y61125000D01*
X217175000Y61125000D01*
X217167649Y61125361D01*
X217160368Y61126441D01*
X217153229Y61128229D01*
X217146299Y61130709D01*
X217139645Y61133856D01*
X217133332Y61137640D01*
X217127421Y61142024D01*
X217121967Y61146967D01*
X217117024Y61152421D01*
X217112640Y61158332D01*
X217108856Y61164645D01*
X217105709Y61171299D01*
X217103229Y61178229D01*
X217101441Y61185368D01*
X217100361Y61192649D01*
X217100000Y61200000D01*
X217100000Y62525000D01*
X217100361Y62532351D01*
X217101441Y62539632D01*
X217103229Y62546771D01*
X217105709Y62553701D01*
X217108856Y62560355D01*
X217112640Y62566668D01*
X217117024Y62572579D01*
X217121967Y62578033D01*
X217127421Y62582976D01*
X217133332Y62587360D01*
X217139645Y62591144D01*
X217146299Y62594291D01*
X217153229Y62596771D01*
X217160368Y62598559D01*
X217167649Y62599639D01*
X217175000Y62600000D01*
X217325000Y62600000D01*
X217332351Y62599639D01*
X217332351Y62599639D01*
G37*
D12*
X217250000Y61862500D03*
D11*
G36*
X216832351Y62599639D02*
G01*
X216839632Y62598559D01*
X216846771Y62596771D01*
X216853701Y62594291D01*
X216860355Y62591144D01*
X216866668Y62587360D01*
X216872579Y62582976D01*
X216878033Y62578033D01*
X216882976Y62572579D01*
X216887360Y62566668D01*
X216891144Y62560355D01*
X216894291Y62553701D01*
X216896771Y62546771D01*
X216898559Y62539632D01*
X216899639Y62532351D01*
X216900000Y62525000D01*
X216900000Y61200000D01*
X216899639Y61192649D01*
X216898559Y61185368D01*
X216896771Y61178229D01*
X216894291Y61171299D01*
X216891144Y61164645D01*
X216887360Y61158332D01*
X216882976Y61152421D01*
X216878033Y61146967D01*
X216872579Y61142024D01*
X216866668Y61137640D01*
X216860355Y61133856D01*
X216853701Y61130709D01*
X216846771Y61128229D01*
X216839632Y61126441D01*
X216832351Y61125361D01*
X216825000Y61125000D01*
X216675000Y61125000D01*
X216667649Y61125361D01*
X216660368Y61126441D01*
X216653229Y61128229D01*
X216646299Y61130709D01*
X216639645Y61133856D01*
X216633332Y61137640D01*
X216627421Y61142024D01*
X216621967Y61146967D01*
X216617024Y61152421D01*
X216612640Y61158332D01*
X216608856Y61164645D01*
X216605709Y61171299D01*
X216603229Y61178229D01*
X216601441Y61185368D01*
X216600361Y61192649D01*
X216600000Y61200000D01*
X216600000Y62525000D01*
X216600361Y62532351D01*
X216601441Y62539632D01*
X216603229Y62546771D01*
X216605709Y62553701D01*
X216608856Y62560355D01*
X216612640Y62566668D01*
X216617024Y62572579D01*
X216621967Y62578033D01*
X216627421Y62582976D01*
X216633332Y62587360D01*
X216639645Y62591144D01*
X216646299Y62594291D01*
X216653229Y62596771D01*
X216660368Y62598559D01*
X216667649Y62599639D01*
X216675000Y62600000D01*
X216825000Y62600000D01*
X216832351Y62599639D01*
X216832351Y62599639D01*
G37*
D12*
X216750000Y61862500D03*
D11*
G36*
X216332351Y62599639D02*
G01*
X216339632Y62598559D01*
X216346771Y62596771D01*
X216353701Y62594291D01*
X216360355Y62591144D01*
X216366668Y62587360D01*
X216372579Y62582976D01*
X216378033Y62578033D01*
X216382976Y62572579D01*
X216387360Y62566668D01*
X216391144Y62560355D01*
X216394291Y62553701D01*
X216396771Y62546771D01*
X216398559Y62539632D01*
X216399639Y62532351D01*
X216400000Y62525000D01*
X216400000Y61200000D01*
X216399639Y61192649D01*
X216398559Y61185368D01*
X216396771Y61178229D01*
X216394291Y61171299D01*
X216391144Y61164645D01*
X216387360Y61158332D01*
X216382976Y61152421D01*
X216378033Y61146967D01*
X216372579Y61142024D01*
X216366668Y61137640D01*
X216360355Y61133856D01*
X216353701Y61130709D01*
X216346771Y61128229D01*
X216339632Y61126441D01*
X216332351Y61125361D01*
X216325000Y61125000D01*
X216175000Y61125000D01*
X216167649Y61125361D01*
X216160368Y61126441D01*
X216153229Y61128229D01*
X216146299Y61130709D01*
X216139645Y61133856D01*
X216133332Y61137640D01*
X216127421Y61142024D01*
X216121967Y61146967D01*
X216117024Y61152421D01*
X216112640Y61158332D01*
X216108856Y61164645D01*
X216105709Y61171299D01*
X216103229Y61178229D01*
X216101441Y61185368D01*
X216100361Y61192649D01*
X216100000Y61200000D01*
X216100000Y62525000D01*
X216100361Y62532351D01*
X216101441Y62539632D01*
X216103229Y62546771D01*
X216105709Y62553701D01*
X216108856Y62560355D01*
X216112640Y62566668D01*
X216117024Y62572579D01*
X216121967Y62578033D01*
X216127421Y62582976D01*
X216133332Y62587360D01*
X216139645Y62591144D01*
X216146299Y62594291D01*
X216153229Y62596771D01*
X216160368Y62598559D01*
X216167649Y62599639D01*
X216175000Y62600000D01*
X216325000Y62600000D01*
X216332351Y62599639D01*
X216332351Y62599639D01*
G37*
D12*
X216250000Y61862500D03*
D11*
G36*
X215832351Y62599639D02*
G01*
X215839632Y62598559D01*
X215846771Y62596771D01*
X215853701Y62594291D01*
X215860355Y62591144D01*
X215866668Y62587360D01*
X215872579Y62582976D01*
X215878033Y62578033D01*
X215882976Y62572579D01*
X215887360Y62566668D01*
X215891144Y62560355D01*
X215894291Y62553701D01*
X215896771Y62546771D01*
X215898559Y62539632D01*
X215899639Y62532351D01*
X215900000Y62525000D01*
X215900000Y61200000D01*
X215899639Y61192649D01*
X215898559Y61185368D01*
X215896771Y61178229D01*
X215894291Y61171299D01*
X215891144Y61164645D01*
X215887360Y61158332D01*
X215882976Y61152421D01*
X215878033Y61146967D01*
X215872579Y61142024D01*
X215866668Y61137640D01*
X215860355Y61133856D01*
X215853701Y61130709D01*
X215846771Y61128229D01*
X215839632Y61126441D01*
X215832351Y61125361D01*
X215825000Y61125000D01*
X215675000Y61125000D01*
X215667649Y61125361D01*
X215660368Y61126441D01*
X215653229Y61128229D01*
X215646299Y61130709D01*
X215639645Y61133856D01*
X215633332Y61137640D01*
X215627421Y61142024D01*
X215621967Y61146967D01*
X215617024Y61152421D01*
X215612640Y61158332D01*
X215608856Y61164645D01*
X215605709Y61171299D01*
X215603229Y61178229D01*
X215601441Y61185368D01*
X215600361Y61192649D01*
X215600000Y61200000D01*
X215600000Y62525000D01*
X215600361Y62532351D01*
X215601441Y62539632D01*
X215603229Y62546771D01*
X215605709Y62553701D01*
X215608856Y62560355D01*
X215612640Y62566668D01*
X215617024Y62572579D01*
X215621967Y62578033D01*
X215627421Y62582976D01*
X215633332Y62587360D01*
X215639645Y62591144D01*
X215646299Y62594291D01*
X215653229Y62596771D01*
X215660368Y62598559D01*
X215667649Y62599639D01*
X215675000Y62600000D01*
X215825000Y62600000D01*
X215832351Y62599639D01*
X215832351Y62599639D01*
G37*
D12*
X215750000Y61862500D03*
D11*
G36*
X215332351Y62599639D02*
G01*
X215339632Y62598559D01*
X215346771Y62596771D01*
X215353701Y62594291D01*
X215360355Y62591144D01*
X215366668Y62587360D01*
X215372579Y62582976D01*
X215378033Y62578033D01*
X215382976Y62572579D01*
X215387360Y62566668D01*
X215391144Y62560355D01*
X215394291Y62553701D01*
X215396771Y62546771D01*
X215398559Y62539632D01*
X215399639Y62532351D01*
X215400000Y62525000D01*
X215400000Y61200000D01*
X215399639Y61192649D01*
X215398559Y61185368D01*
X215396771Y61178229D01*
X215394291Y61171299D01*
X215391144Y61164645D01*
X215387360Y61158332D01*
X215382976Y61152421D01*
X215378033Y61146967D01*
X215372579Y61142024D01*
X215366668Y61137640D01*
X215360355Y61133856D01*
X215353701Y61130709D01*
X215346771Y61128229D01*
X215339632Y61126441D01*
X215332351Y61125361D01*
X215325000Y61125000D01*
X215175000Y61125000D01*
X215167649Y61125361D01*
X215160368Y61126441D01*
X215153229Y61128229D01*
X215146299Y61130709D01*
X215139645Y61133856D01*
X215133332Y61137640D01*
X215127421Y61142024D01*
X215121967Y61146967D01*
X215117024Y61152421D01*
X215112640Y61158332D01*
X215108856Y61164645D01*
X215105709Y61171299D01*
X215103229Y61178229D01*
X215101441Y61185368D01*
X215100361Y61192649D01*
X215100000Y61200000D01*
X215100000Y62525000D01*
X215100361Y62532351D01*
X215101441Y62539632D01*
X215103229Y62546771D01*
X215105709Y62553701D01*
X215108856Y62560355D01*
X215112640Y62566668D01*
X215117024Y62572579D01*
X215121967Y62578033D01*
X215127421Y62582976D01*
X215133332Y62587360D01*
X215139645Y62591144D01*
X215146299Y62594291D01*
X215153229Y62596771D01*
X215160368Y62598559D01*
X215167649Y62599639D01*
X215175000Y62600000D01*
X215325000Y62600000D01*
X215332351Y62599639D01*
X215332351Y62599639D01*
G37*
D12*
X215250000Y61862500D03*
D11*
G36*
X214832351Y62599639D02*
G01*
X214839632Y62598559D01*
X214846771Y62596771D01*
X214853701Y62594291D01*
X214860355Y62591144D01*
X214866668Y62587360D01*
X214872579Y62582976D01*
X214878033Y62578033D01*
X214882976Y62572579D01*
X214887360Y62566668D01*
X214891144Y62560355D01*
X214894291Y62553701D01*
X214896771Y62546771D01*
X214898559Y62539632D01*
X214899639Y62532351D01*
X214900000Y62525000D01*
X214900000Y61200000D01*
X214899639Y61192649D01*
X214898559Y61185368D01*
X214896771Y61178229D01*
X214894291Y61171299D01*
X214891144Y61164645D01*
X214887360Y61158332D01*
X214882976Y61152421D01*
X214878033Y61146967D01*
X214872579Y61142024D01*
X214866668Y61137640D01*
X214860355Y61133856D01*
X214853701Y61130709D01*
X214846771Y61128229D01*
X214839632Y61126441D01*
X214832351Y61125361D01*
X214825000Y61125000D01*
X214675000Y61125000D01*
X214667649Y61125361D01*
X214660368Y61126441D01*
X214653229Y61128229D01*
X214646299Y61130709D01*
X214639645Y61133856D01*
X214633332Y61137640D01*
X214627421Y61142024D01*
X214621967Y61146967D01*
X214617024Y61152421D01*
X214612640Y61158332D01*
X214608856Y61164645D01*
X214605709Y61171299D01*
X214603229Y61178229D01*
X214601441Y61185368D01*
X214600361Y61192649D01*
X214600000Y61200000D01*
X214600000Y62525000D01*
X214600361Y62532351D01*
X214601441Y62539632D01*
X214603229Y62546771D01*
X214605709Y62553701D01*
X214608856Y62560355D01*
X214612640Y62566668D01*
X214617024Y62572579D01*
X214621967Y62578033D01*
X214627421Y62582976D01*
X214633332Y62587360D01*
X214639645Y62591144D01*
X214646299Y62594291D01*
X214653229Y62596771D01*
X214660368Y62598559D01*
X214667649Y62599639D01*
X214675000Y62600000D01*
X214825000Y62600000D01*
X214832351Y62599639D01*
X214832351Y62599639D01*
G37*
D12*
X214750000Y61862500D03*
D11*
G36*
X214332351Y62599639D02*
G01*
X214339632Y62598559D01*
X214346771Y62596771D01*
X214353701Y62594291D01*
X214360355Y62591144D01*
X214366668Y62587360D01*
X214372579Y62582976D01*
X214378033Y62578033D01*
X214382976Y62572579D01*
X214387360Y62566668D01*
X214391144Y62560355D01*
X214394291Y62553701D01*
X214396771Y62546771D01*
X214398559Y62539632D01*
X214399639Y62532351D01*
X214400000Y62525000D01*
X214400000Y61200000D01*
X214399639Y61192649D01*
X214398559Y61185368D01*
X214396771Y61178229D01*
X214394291Y61171299D01*
X214391144Y61164645D01*
X214387360Y61158332D01*
X214382976Y61152421D01*
X214378033Y61146967D01*
X214372579Y61142024D01*
X214366668Y61137640D01*
X214360355Y61133856D01*
X214353701Y61130709D01*
X214346771Y61128229D01*
X214339632Y61126441D01*
X214332351Y61125361D01*
X214325000Y61125000D01*
X214175000Y61125000D01*
X214167649Y61125361D01*
X214160368Y61126441D01*
X214153229Y61128229D01*
X214146299Y61130709D01*
X214139645Y61133856D01*
X214133332Y61137640D01*
X214127421Y61142024D01*
X214121967Y61146967D01*
X214117024Y61152421D01*
X214112640Y61158332D01*
X214108856Y61164645D01*
X214105709Y61171299D01*
X214103229Y61178229D01*
X214101441Y61185368D01*
X214100361Y61192649D01*
X214100000Y61200000D01*
X214100000Y62525000D01*
X214100361Y62532351D01*
X214101441Y62539632D01*
X214103229Y62546771D01*
X214105709Y62553701D01*
X214108856Y62560355D01*
X214112640Y62566668D01*
X214117024Y62572579D01*
X214121967Y62578033D01*
X214127421Y62582976D01*
X214133332Y62587360D01*
X214139645Y62591144D01*
X214146299Y62594291D01*
X214153229Y62596771D01*
X214160368Y62598559D01*
X214167649Y62599639D01*
X214175000Y62600000D01*
X214325000Y62600000D01*
X214332351Y62599639D01*
X214332351Y62599639D01*
G37*
D12*
X214250000Y61862500D03*
D11*
G36*
X213832351Y62599639D02*
G01*
X213839632Y62598559D01*
X213846771Y62596771D01*
X213853701Y62594291D01*
X213860355Y62591144D01*
X213866668Y62587360D01*
X213872579Y62582976D01*
X213878033Y62578033D01*
X213882976Y62572579D01*
X213887360Y62566668D01*
X213891144Y62560355D01*
X213894291Y62553701D01*
X213896771Y62546771D01*
X213898559Y62539632D01*
X213899639Y62532351D01*
X213900000Y62525000D01*
X213900000Y61200000D01*
X213899639Y61192649D01*
X213898559Y61185368D01*
X213896771Y61178229D01*
X213894291Y61171299D01*
X213891144Y61164645D01*
X213887360Y61158332D01*
X213882976Y61152421D01*
X213878033Y61146967D01*
X213872579Y61142024D01*
X213866668Y61137640D01*
X213860355Y61133856D01*
X213853701Y61130709D01*
X213846771Y61128229D01*
X213839632Y61126441D01*
X213832351Y61125361D01*
X213825000Y61125000D01*
X213675000Y61125000D01*
X213667649Y61125361D01*
X213660368Y61126441D01*
X213653229Y61128229D01*
X213646299Y61130709D01*
X213639645Y61133856D01*
X213633332Y61137640D01*
X213627421Y61142024D01*
X213621967Y61146967D01*
X213617024Y61152421D01*
X213612640Y61158332D01*
X213608856Y61164645D01*
X213605709Y61171299D01*
X213603229Y61178229D01*
X213601441Y61185368D01*
X213600361Y61192649D01*
X213600000Y61200000D01*
X213600000Y62525000D01*
X213600361Y62532351D01*
X213601441Y62539632D01*
X213603229Y62546771D01*
X213605709Y62553701D01*
X213608856Y62560355D01*
X213612640Y62566668D01*
X213617024Y62572579D01*
X213621967Y62578033D01*
X213627421Y62582976D01*
X213633332Y62587360D01*
X213639645Y62591144D01*
X213646299Y62594291D01*
X213653229Y62596771D01*
X213660368Y62598559D01*
X213667649Y62599639D01*
X213675000Y62600000D01*
X213825000Y62600000D01*
X213832351Y62599639D01*
X213832351Y62599639D01*
G37*
D12*
X213750000Y61862500D03*
D11*
G36*
X213332351Y62599639D02*
G01*
X213339632Y62598559D01*
X213346771Y62596771D01*
X213353701Y62594291D01*
X213360355Y62591144D01*
X213366668Y62587360D01*
X213372579Y62582976D01*
X213378033Y62578033D01*
X213382976Y62572579D01*
X213387360Y62566668D01*
X213391144Y62560355D01*
X213394291Y62553701D01*
X213396771Y62546771D01*
X213398559Y62539632D01*
X213399639Y62532351D01*
X213400000Y62525000D01*
X213400000Y61200000D01*
X213399639Y61192649D01*
X213398559Y61185368D01*
X213396771Y61178229D01*
X213394291Y61171299D01*
X213391144Y61164645D01*
X213387360Y61158332D01*
X213382976Y61152421D01*
X213378033Y61146967D01*
X213372579Y61142024D01*
X213366668Y61137640D01*
X213360355Y61133856D01*
X213353701Y61130709D01*
X213346771Y61128229D01*
X213339632Y61126441D01*
X213332351Y61125361D01*
X213325000Y61125000D01*
X213175000Y61125000D01*
X213167649Y61125361D01*
X213160368Y61126441D01*
X213153229Y61128229D01*
X213146299Y61130709D01*
X213139645Y61133856D01*
X213133332Y61137640D01*
X213127421Y61142024D01*
X213121967Y61146967D01*
X213117024Y61152421D01*
X213112640Y61158332D01*
X213108856Y61164645D01*
X213105709Y61171299D01*
X213103229Y61178229D01*
X213101441Y61185368D01*
X213100361Y61192649D01*
X213100000Y61200000D01*
X213100000Y62525000D01*
X213100361Y62532351D01*
X213101441Y62539632D01*
X213103229Y62546771D01*
X213105709Y62553701D01*
X213108856Y62560355D01*
X213112640Y62566668D01*
X213117024Y62572579D01*
X213121967Y62578033D01*
X213127421Y62582976D01*
X213133332Y62587360D01*
X213139645Y62591144D01*
X213146299Y62594291D01*
X213153229Y62596771D01*
X213160368Y62598559D01*
X213167649Y62599639D01*
X213175000Y62600000D01*
X213325000Y62600000D01*
X213332351Y62599639D01*
X213332351Y62599639D01*
G37*
D12*
X213250000Y61862500D03*
D11*
G36*
X212832351Y62599639D02*
G01*
X212839632Y62598559D01*
X212846771Y62596771D01*
X212853701Y62594291D01*
X212860355Y62591144D01*
X212866668Y62587360D01*
X212872579Y62582976D01*
X212878033Y62578033D01*
X212882976Y62572579D01*
X212887360Y62566668D01*
X212891144Y62560355D01*
X212894291Y62553701D01*
X212896771Y62546771D01*
X212898559Y62539632D01*
X212899639Y62532351D01*
X212900000Y62525000D01*
X212900000Y61200000D01*
X212899639Y61192649D01*
X212898559Y61185368D01*
X212896771Y61178229D01*
X212894291Y61171299D01*
X212891144Y61164645D01*
X212887360Y61158332D01*
X212882976Y61152421D01*
X212878033Y61146967D01*
X212872579Y61142024D01*
X212866668Y61137640D01*
X212860355Y61133856D01*
X212853701Y61130709D01*
X212846771Y61128229D01*
X212839632Y61126441D01*
X212832351Y61125361D01*
X212825000Y61125000D01*
X212675000Y61125000D01*
X212667649Y61125361D01*
X212660368Y61126441D01*
X212653229Y61128229D01*
X212646299Y61130709D01*
X212639645Y61133856D01*
X212633332Y61137640D01*
X212627421Y61142024D01*
X212621967Y61146967D01*
X212617024Y61152421D01*
X212612640Y61158332D01*
X212608856Y61164645D01*
X212605709Y61171299D01*
X212603229Y61178229D01*
X212601441Y61185368D01*
X212600361Y61192649D01*
X212600000Y61200000D01*
X212600000Y62525000D01*
X212600361Y62532351D01*
X212601441Y62539632D01*
X212603229Y62546771D01*
X212605709Y62553701D01*
X212608856Y62560355D01*
X212612640Y62566668D01*
X212617024Y62572579D01*
X212621967Y62578033D01*
X212627421Y62582976D01*
X212633332Y62587360D01*
X212639645Y62591144D01*
X212646299Y62594291D01*
X212653229Y62596771D01*
X212660368Y62598559D01*
X212667649Y62599639D01*
X212675000Y62600000D01*
X212825000Y62600000D01*
X212832351Y62599639D01*
X212832351Y62599639D01*
G37*
D12*
X212750000Y61862500D03*
D10*
X226200000Y59300000D03*
X226200000Y57500000D03*
X224200000Y59300000D03*
X224200000Y57500000D03*
D13*
X203700000Y59700000D03*
X205500000Y59700000D03*
X207200000Y55700000D03*
X209000000Y55700000D03*
D10*
X220800000Y51200000D03*
X220800000Y49400000D03*
X218800000Y51200000D03*
X218800000Y49400000D03*
X216800000Y49400000D03*
X216800000Y51200000D03*
X222200000Y54000000D03*
X222200000Y55800000D03*
X224200000Y54000000D03*
X224200000Y55800000D03*
D13*
X207200000Y53700000D03*
X209000000Y53700000D03*
X207200000Y51700000D03*
X209000000Y51700000D03*
D10*
X222200000Y62800000D03*
X222200000Y61000000D03*
X224200000Y62800000D03*
X224200000Y61000000D03*
X222200000Y59300000D03*
X222200000Y57500000D03*
D13*
X207200000Y59700000D03*
X209000000Y59700000D03*
D10*
X207800000Y74500000D03*
X207800000Y72700000D03*
D13*
X207200000Y57700000D03*
X209000000Y57700000D03*
X700000Y68900000D03*
X-1100000Y68900000D03*
X700000Y72900000D03*
X-1100000Y72900000D03*
X4700000Y70900000D03*
X2900000Y70900000D03*
X4700000Y74900000D03*
X2900000Y74900000D03*
X-22300000Y68900000D03*
X-24100000Y68900000D03*
X-22300000Y72900000D03*
X-24100000Y72900000D03*
X-18300000Y70900000D03*
X-20100000Y70900000D03*
X-18300000Y74900000D03*
X-20100000Y74900000D03*
X-45300000Y68900000D03*
X-47100000Y68900000D03*
X-45300000Y72900000D03*
X-47100000Y72900000D03*
X-41300000Y70900000D03*
X-43100000Y70900000D03*
X-41300000Y74900000D03*
X-43100000Y74900000D03*
X-68300000Y68900000D03*
X-70100000Y68900000D03*
X-68300000Y72900000D03*
X-70100000Y72900000D03*
X-64200000Y70900000D03*
X-66000000Y70900000D03*
X-64200000Y74900000D03*
X-66000000Y74900000D03*
X-1100000Y70900000D03*
X700000Y70900000D03*
X2900000Y72900000D03*
X4700000Y72900000D03*
X-24100000Y70900000D03*
X-22300000Y70900000D03*
X-20100000Y72900000D03*
X-18300000Y72900000D03*
X-47100000Y70900000D03*
X-45300000Y70900000D03*
X-43100000Y72900000D03*
X-41300000Y72900000D03*
X-70100000Y70900000D03*
X-68300000Y70900000D03*
X-66000000Y72900000D03*
X-64200000Y72900000D03*
X14400000Y70000000D03*
X16200000Y70000000D03*
X20000000Y70000000D03*
X18200000Y70000000D03*
X37400000Y70000000D03*
X39200000Y70000000D03*
X43000000Y70000000D03*
X41200000Y70000000D03*
D10*
X62200000Y68400000D03*
X62200000Y70200000D03*
X66000000Y70200000D03*
X66000000Y68400000D03*
X85200000Y68400000D03*
X85200000Y70200000D03*
X89000000Y70200000D03*
X89000000Y68400000D03*
X108200000Y68400000D03*
X108200000Y70200000D03*
X112000000Y70200000D03*
X112000000Y68400000D03*
X131200000Y68400000D03*
X131200000Y70200000D03*
X135000000Y70200000D03*
X135000000Y68400000D03*
X154200000Y68400000D03*
X154200000Y70200000D03*
X158000000Y70200000D03*
X158000000Y68400000D03*
X177200000Y68400000D03*
X177200000Y70200000D03*
X181000000Y70200000D03*
X181000000Y68400000D03*
D13*
X251500000Y82000000D03*
X253300000Y82000000D03*
X251500000Y84000000D03*
X253300000Y84000000D03*
D10*
X242300000Y83800000D03*
X242300000Y82000000D03*
M02*
