G04 #@! TF.GenerationSoftware,KiCad,Pcbnew,(5.1.0-0)*
G04 #@! TF.CreationDate,2020-01-08T22:44:41+01:00*
G04 #@! TF.ProjectId,AddOnC,4164644f-6e43-42e6-9b69-6361645f7063,rev?*
G04 #@! TF.SameCoordinates,Original*
G04 #@! TF.FileFunction,Soldermask,Top*
G04 #@! TF.FilePolarity,Negative*
%FSLAX46Y46*%
G04 Gerber Fmt 4.6, Leading zero omitted, Abs format (unit mm)*
G04 Created by KiCad (PCBNEW (5.1.0-0)) date 2020-01-08 22:44:41*
%MOMM*%
%LPD*%
G04 APERTURE LIST*
%ADD10C,0.100000*%
G04 APERTURE END LIST*
D10*
G36*
X284548707Y47942403D02*
G01*
X284625836Y47934807D01*
X284823762Y47874767D01*
X284823765Y47874766D01*
X285006170Y47777268D01*
X285166055Y47646055D01*
X285297268Y47486170D01*
X285394766Y47303765D01*
X285394767Y47303762D01*
X285454807Y47105836D01*
X285475080Y46900000D01*
X285454807Y46694164D01*
X285394767Y46496238D01*
X285394766Y46496235D01*
X285297268Y46313830D01*
X285166055Y46153945D01*
X285006170Y46022732D01*
X284823765Y45925234D01*
X284823762Y45925233D01*
X284625836Y45865193D01*
X284548707Y45857597D01*
X284471580Y45850000D01*
X284368420Y45850000D01*
X284291293Y45857597D01*
X284214164Y45865193D01*
X284016238Y45925233D01*
X284016235Y45925234D01*
X283833830Y46022732D01*
X283673945Y46153945D01*
X283542732Y46313830D01*
X283445234Y46496235D01*
X283445233Y46496238D01*
X283385193Y46694164D01*
X283364920Y46900000D01*
X283385193Y47105836D01*
X283445233Y47303762D01*
X283445234Y47303765D01*
X283542732Y47486170D01*
X283673945Y47646055D01*
X283833830Y47777268D01*
X284016235Y47874766D01*
X284016238Y47874767D01*
X284214164Y47934807D01*
X284291293Y47942404D01*
X284368420Y47950000D01*
X284471580Y47950000D01*
X284548707Y47942403D01*
X284548707Y47942403D01*
G37*
G36*
X282008707Y47942403D02*
G01*
X282085836Y47934807D01*
X282283762Y47874767D01*
X282283765Y47874766D01*
X282466170Y47777268D01*
X282626055Y47646055D01*
X282757268Y47486170D01*
X282854766Y47303765D01*
X282854767Y47303762D01*
X282914807Y47105836D01*
X282935080Y46900000D01*
X282914807Y46694164D01*
X282854767Y46496238D01*
X282854766Y46496235D01*
X282757268Y46313830D01*
X282626055Y46153945D01*
X282466170Y46022732D01*
X282283765Y45925234D01*
X282283762Y45925233D01*
X282085836Y45865193D01*
X282008707Y45857597D01*
X281931580Y45850000D01*
X281828420Y45850000D01*
X281751293Y45857597D01*
X281674164Y45865193D01*
X281476238Y45925233D01*
X281476235Y45925234D01*
X281293830Y46022732D01*
X281133945Y46153945D01*
X281002732Y46313830D01*
X280905234Y46496235D01*
X280905233Y46496238D01*
X280845193Y46694164D01*
X280824920Y46900000D01*
X280845193Y47105836D01*
X280905233Y47303762D01*
X280905234Y47303765D01*
X281002732Y47486170D01*
X281133945Y47646055D01*
X281293830Y47777268D01*
X281476235Y47874766D01*
X281476238Y47874767D01*
X281674164Y47934807D01*
X281751293Y47942404D01*
X281828420Y47950000D01*
X281931580Y47950000D01*
X282008707Y47942403D01*
X282008707Y47942403D01*
G37*
G36*
X279468707Y47942403D02*
G01*
X279545836Y47934807D01*
X279743762Y47874767D01*
X279743765Y47874766D01*
X279926170Y47777268D01*
X280086055Y47646055D01*
X280217268Y47486170D01*
X280314766Y47303765D01*
X280314767Y47303762D01*
X280374807Y47105836D01*
X280395080Y46900000D01*
X280374807Y46694164D01*
X280314767Y46496238D01*
X280314766Y46496235D01*
X280217268Y46313830D01*
X280086055Y46153945D01*
X279926170Y46022732D01*
X279743765Y45925234D01*
X279743762Y45925233D01*
X279545836Y45865193D01*
X279468707Y45857597D01*
X279391580Y45850000D01*
X279288420Y45850000D01*
X279211293Y45857597D01*
X279134164Y45865193D01*
X278936238Y45925233D01*
X278936235Y45925234D01*
X278753830Y46022732D01*
X278593945Y46153945D01*
X278462732Y46313830D01*
X278365234Y46496235D01*
X278365233Y46496238D01*
X278305193Y46694164D01*
X278284920Y46900000D01*
X278305193Y47105836D01*
X278365233Y47303762D01*
X278365234Y47303765D01*
X278462732Y47486170D01*
X278593945Y47646055D01*
X278753830Y47777268D01*
X278936235Y47874766D01*
X278936238Y47874767D01*
X279134164Y47934807D01*
X279211293Y47942404D01*
X279288420Y47950000D01*
X279391580Y47950000D01*
X279468707Y47942403D01*
X279468707Y47942403D01*
G37*
G36*
X276928707Y47942403D02*
G01*
X277005836Y47934807D01*
X277203762Y47874767D01*
X277203765Y47874766D01*
X277386170Y47777268D01*
X277546055Y47646055D01*
X277677268Y47486170D01*
X277774766Y47303765D01*
X277774767Y47303762D01*
X277834807Y47105836D01*
X277855080Y46900000D01*
X277834807Y46694164D01*
X277774767Y46496238D01*
X277774766Y46496235D01*
X277677268Y46313830D01*
X277546055Y46153945D01*
X277386170Y46022732D01*
X277203765Y45925234D01*
X277203762Y45925233D01*
X277005836Y45865193D01*
X276928707Y45857597D01*
X276851580Y45850000D01*
X276748420Y45850000D01*
X276671293Y45857597D01*
X276594164Y45865193D01*
X276396238Y45925233D01*
X276396235Y45925234D01*
X276213830Y46022732D01*
X276053945Y46153945D01*
X275922732Y46313830D01*
X275825234Y46496235D01*
X275825233Y46496238D01*
X275765193Y46694164D01*
X275744920Y46900000D01*
X275765193Y47105836D01*
X275825233Y47303762D01*
X275825234Y47303765D01*
X275922732Y47486170D01*
X276053945Y47646055D01*
X276213830Y47777268D01*
X276396235Y47874766D01*
X276396238Y47874767D01*
X276594164Y47934807D01*
X276671293Y47942404D01*
X276748420Y47950000D01*
X276851580Y47950000D01*
X276928707Y47942403D01*
X276928707Y47942403D01*
G37*
G36*
X275310000Y45850000D02*
G01*
X273210000Y45850000D01*
X273210000Y47950000D01*
X275310000Y47950000D01*
X275310000Y45850000D01*
X275310000Y45850000D01*
G37*
G36*
X254312290Y48504381D02*
G01*
X254376689Y48491571D01*
X254558678Y48416189D01*
X254722463Y48306751D01*
X254861751Y48167463D01*
X254971189Y48003678D01*
X255046571Y47821689D01*
X255046571Y47821688D01*
X255081507Y47646055D01*
X255085000Y47628491D01*
X255085000Y47431509D01*
X255046571Y47238311D01*
X254971189Y47056322D01*
X254861751Y46892537D01*
X254722463Y46753249D01*
X254558678Y46643811D01*
X254376689Y46568429D01*
X254312290Y46555619D01*
X254183493Y46530000D01*
X253986507Y46530000D01*
X253857710Y46555619D01*
X253793311Y46568429D01*
X253611322Y46643811D01*
X253447537Y46753249D01*
X253308249Y46892537D01*
X253198811Y47056322D01*
X253123429Y47238311D01*
X253085000Y47431509D01*
X253085000Y47628491D01*
X253088494Y47646055D01*
X253123429Y47821688D01*
X253123429Y47821689D01*
X253198811Y48003678D01*
X253308249Y48167463D01*
X253447537Y48306751D01*
X253611322Y48416189D01*
X253793311Y48491571D01*
X253857710Y48504381D01*
X253986507Y48530000D01*
X254183493Y48530000D01*
X254312290Y48504381D01*
X254312290Y48504381D01*
G37*
G36*
X251772290Y48504381D02*
G01*
X251836689Y48491571D01*
X252018678Y48416189D01*
X252182463Y48306751D01*
X252321751Y48167463D01*
X252431189Y48003678D01*
X252506571Y47821689D01*
X252506571Y47821688D01*
X252541507Y47646055D01*
X252545000Y47628491D01*
X252545000Y47431509D01*
X252506571Y47238311D01*
X252431189Y47056322D01*
X252321751Y46892537D01*
X252182463Y46753249D01*
X252018678Y46643811D01*
X251836689Y46568429D01*
X251772290Y46555619D01*
X251643493Y46530000D01*
X251446507Y46530000D01*
X251317710Y46555619D01*
X251253311Y46568429D01*
X251071322Y46643811D01*
X250907537Y46753249D01*
X250768249Y46892537D01*
X250658811Y47056322D01*
X250583429Y47238311D01*
X250545000Y47431509D01*
X250545000Y47628491D01*
X250548494Y47646055D01*
X250583429Y47821688D01*
X250583429Y47821689D01*
X250658811Y48003678D01*
X250768249Y48167463D01*
X250907537Y48306751D01*
X251071322Y48416189D01*
X251253311Y48491571D01*
X251317710Y48504381D01*
X251446507Y48530000D01*
X251643493Y48530000D01*
X251772290Y48504381D01*
X251772290Y48504381D01*
G37*
G36*
X256852290Y48504381D02*
G01*
X256916689Y48491571D01*
X257098678Y48416189D01*
X257262463Y48306751D01*
X257401751Y48167463D01*
X257511189Y48003678D01*
X257586571Y47821689D01*
X257586571Y47821688D01*
X257621507Y47646055D01*
X257625000Y47628491D01*
X257625000Y47431509D01*
X257586571Y47238311D01*
X257511189Y47056322D01*
X257401751Y46892537D01*
X257262463Y46753249D01*
X257098678Y46643811D01*
X256916689Y46568429D01*
X256852290Y46555619D01*
X256723493Y46530000D01*
X256526507Y46530000D01*
X256397710Y46555619D01*
X256333311Y46568429D01*
X256151322Y46643811D01*
X255987537Y46753249D01*
X255848249Y46892537D01*
X255738811Y47056322D01*
X255663429Y47238311D01*
X255625000Y47431509D01*
X255625000Y47628491D01*
X255628494Y47646055D01*
X255663429Y47821688D01*
X255663429Y47821689D01*
X255738811Y48003678D01*
X255848249Y48167463D01*
X255987537Y48306751D01*
X256151322Y48416189D01*
X256333311Y48491571D01*
X256397710Y48504381D01*
X256526507Y48530000D01*
X256723493Y48530000D01*
X256852290Y48504381D01*
X256852290Y48504381D01*
G37*
G36*
X259392290Y48504381D02*
G01*
X259456689Y48491571D01*
X259638678Y48416189D01*
X259802463Y48306751D01*
X259941751Y48167463D01*
X260051189Y48003678D01*
X260126571Y47821689D01*
X260126571Y47821688D01*
X260161507Y47646055D01*
X260165000Y47628491D01*
X260165000Y47431509D01*
X260126571Y47238311D01*
X260051189Y47056322D01*
X259941751Y46892537D01*
X259802463Y46753249D01*
X259638678Y46643811D01*
X259456689Y46568429D01*
X259392290Y46555619D01*
X259263493Y46530000D01*
X259066507Y46530000D01*
X258937710Y46555619D01*
X258873311Y46568429D01*
X258691322Y46643811D01*
X258527537Y46753249D01*
X258388249Y46892537D01*
X258278811Y47056322D01*
X258203429Y47238311D01*
X258165000Y47431509D01*
X258165000Y47628491D01*
X258168494Y47646055D01*
X258203429Y47821688D01*
X258203429Y47821689D01*
X258278811Y48003678D01*
X258388249Y48167463D01*
X258527537Y48306751D01*
X258691322Y48416189D01*
X258873311Y48491571D01*
X258937710Y48504381D01*
X259066507Y48530000D01*
X259263493Y48530000D01*
X259392290Y48504381D01*
X259392290Y48504381D01*
G37*
G36*
X261932290Y48504381D02*
G01*
X261996689Y48491571D01*
X262178678Y48416189D01*
X262342463Y48306751D01*
X262481751Y48167463D01*
X262591189Y48003678D01*
X262666571Y47821689D01*
X262666571Y47821688D01*
X262701507Y47646055D01*
X262705000Y47628491D01*
X262705000Y47431509D01*
X262666571Y47238311D01*
X262591189Y47056322D01*
X262481751Y46892537D01*
X262342463Y46753249D01*
X262178678Y46643811D01*
X261996689Y46568429D01*
X261932290Y46555619D01*
X261803493Y46530000D01*
X261606507Y46530000D01*
X261477710Y46555619D01*
X261413311Y46568429D01*
X261231322Y46643811D01*
X261067537Y46753249D01*
X260928249Y46892537D01*
X260818811Y47056322D01*
X260743429Y47238311D01*
X260705000Y47431509D01*
X260705000Y47628491D01*
X260708494Y47646055D01*
X260743429Y47821688D01*
X260743429Y47821689D01*
X260818811Y48003678D01*
X260928249Y48167463D01*
X261067537Y48306751D01*
X261231322Y48416189D01*
X261413311Y48491571D01*
X261477710Y48504381D01*
X261606507Y48530000D01*
X261803493Y48530000D01*
X261932290Y48504381D01*
X261932290Y48504381D01*
G37*
G36*
X264472290Y48504381D02*
G01*
X264536689Y48491571D01*
X264718678Y48416189D01*
X264882463Y48306751D01*
X265021751Y48167463D01*
X265131189Y48003678D01*
X265206571Y47821689D01*
X265206571Y47821688D01*
X265241507Y47646055D01*
X265245000Y47628491D01*
X265245000Y47431509D01*
X265206571Y47238311D01*
X265131189Y47056322D01*
X265021751Y46892537D01*
X264882463Y46753249D01*
X264718678Y46643811D01*
X264536689Y46568429D01*
X264472290Y46555619D01*
X264343493Y46530000D01*
X264146507Y46530000D01*
X264017710Y46555619D01*
X263953311Y46568429D01*
X263771322Y46643811D01*
X263607537Y46753249D01*
X263468249Y46892537D01*
X263358811Y47056322D01*
X263283429Y47238311D01*
X263245000Y47431509D01*
X263245000Y47628491D01*
X263248494Y47646055D01*
X263283429Y47821688D01*
X263283429Y47821689D01*
X263358811Y48003678D01*
X263468249Y48167463D01*
X263607537Y48306751D01*
X263771322Y48416189D01*
X263953311Y48491571D01*
X264017710Y48504381D01*
X264146507Y48530000D01*
X264343493Y48530000D01*
X264472290Y48504381D01*
X264472290Y48504381D01*
G37*
G36*
X267012290Y48504381D02*
G01*
X267076689Y48491571D01*
X267258678Y48416189D01*
X267422463Y48306751D01*
X267561751Y48167463D01*
X267671189Y48003678D01*
X267746571Y47821689D01*
X267746571Y47821688D01*
X267781507Y47646055D01*
X267785000Y47628491D01*
X267785000Y47431509D01*
X267746571Y47238311D01*
X267671189Y47056322D01*
X267561751Y46892537D01*
X267422463Y46753249D01*
X267258678Y46643811D01*
X267076689Y46568429D01*
X267012290Y46555619D01*
X266883493Y46530000D01*
X266686507Y46530000D01*
X266557710Y46555619D01*
X266493311Y46568429D01*
X266311322Y46643811D01*
X266147537Y46753249D01*
X266008249Y46892537D01*
X265898811Y47056322D01*
X265823429Y47238311D01*
X265785000Y47431509D01*
X265785000Y47628491D01*
X265788494Y47646055D01*
X265823429Y47821688D01*
X265823429Y47821689D01*
X265898811Y48003678D01*
X266008249Y48167463D01*
X266147537Y48306751D01*
X266311322Y48416189D01*
X266493311Y48491571D01*
X266557710Y48504381D01*
X266686507Y48530000D01*
X266883493Y48530000D01*
X267012290Y48504381D01*
X267012290Y48504381D01*
G37*
G36*
X12728500Y49408211D02*
G01*
X12928994Y49347392D01*
X13113759Y49248633D01*
X13113762Y49248631D01*
X13113763Y49248630D01*
X13275718Y49115718D01*
X13408630Y48953763D01*
X13408633Y48953759D01*
X13507392Y48768994D01*
X13568211Y48568500D01*
X13588746Y48360000D01*
X13568211Y48151500D01*
X13507392Y47951006D01*
X13408633Y47766241D01*
X13408631Y47766238D01*
X13408630Y47766237D01*
X13275718Y47604282D01*
X13113763Y47471370D01*
X13113759Y47471367D01*
X12928994Y47372608D01*
X12728500Y47311789D01*
X12572251Y47296400D01*
X12467749Y47296400D01*
X12311500Y47311789D01*
X12111006Y47372608D01*
X11926241Y47471367D01*
X11926237Y47471370D01*
X11764282Y47604282D01*
X11631370Y47766237D01*
X11631369Y47766238D01*
X11631367Y47766241D01*
X11532608Y47951006D01*
X11471789Y48151500D01*
X11451254Y48360000D01*
X11471789Y48568500D01*
X11532608Y48768994D01*
X11631367Y48953759D01*
X11631370Y48953763D01*
X11764282Y49115718D01*
X11926237Y49248630D01*
X11926238Y49248631D01*
X11926241Y49248633D01*
X12111006Y49347392D01*
X12311500Y49408211D01*
X12467749Y49423600D01*
X12572251Y49423600D01*
X12728500Y49408211D01*
X12728500Y49408211D01*
G37*
G36*
X2008500Y49408211D02*
G01*
X2208994Y49347392D01*
X2393759Y49248633D01*
X2393762Y49248631D01*
X2393763Y49248630D01*
X2555718Y49115718D01*
X2688630Y48953763D01*
X2688633Y48953759D01*
X2787392Y48768994D01*
X2848211Y48568500D01*
X2868746Y48360000D01*
X2848211Y48151500D01*
X2787392Y47951006D01*
X2688633Y47766241D01*
X2688631Y47766238D01*
X2688630Y47766237D01*
X2555718Y47604282D01*
X2393763Y47471370D01*
X2393759Y47471367D01*
X2208994Y47372608D01*
X2008500Y47311789D01*
X1852251Y47296400D01*
X1747749Y47296400D01*
X1591500Y47311789D01*
X1391006Y47372608D01*
X1206241Y47471367D01*
X1206237Y47471370D01*
X1044282Y47604282D01*
X911370Y47766237D01*
X911369Y47766238D01*
X911367Y47766241D01*
X812608Y47951006D01*
X751789Y48151500D01*
X731254Y48360000D01*
X751789Y48568500D01*
X812608Y48768994D01*
X911367Y48953759D01*
X911370Y48953763D01*
X1044282Y49115718D01*
X1206237Y49248630D01*
X1206238Y49248631D01*
X1206241Y49248633D01*
X1391006Y49347392D01*
X1591500Y49408211D01*
X1747749Y49423600D01*
X1852251Y49423600D01*
X2008500Y49408211D01*
X2008500Y49408211D01*
G37*
G36*
X-531500Y49408211D02*
G01*
X-331006Y49347392D01*
X-146241Y49248633D01*
X-146238Y49248631D01*
X-146237Y49248630D01*
X15718Y49115718D01*
X148630Y48953763D01*
X148633Y48953759D01*
X247392Y48768994D01*
X308211Y48568500D01*
X328746Y48360000D01*
X308211Y48151500D01*
X247392Y47951006D01*
X148633Y47766241D01*
X148631Y47766238D01*
X148630Y47766237D01*
X15718Y47604282D01*
X-146237Y47471370D01*
X-146241Y47471367D01*
X-331006Y47372608D01*
X-531500Y47311789D01*
X-687749Y47296400D01*
X-792251Y47296400D01*
X-948500Y47311789D01*
X-1148994Y47372608D01*
X-1333759Y47471367D01*
X-1333763Y47471370D01*
X-1495718Y47604282D01*
X-1628630Y47766237D01*
X-1628631Y47766238D01*
X-1628633Y47766241D01*
X-1727392Y47951006D01*
X-1788211Y48151500D01*
X-1808746Y48360000D01*
X-1788211Y48568500D01*
X-1727392Y48768994D01*
X-1628633Y48953759D01*
X-1628630Y48953763D01*
X-1495718Y49115718D01*
X-1333763Y49248630D01*
X-1333762Y49248631D01*
X-1333759Y49248633D01*
X-1148994Y49347392D01*
X-948500Y49408211D01*
X-792251Y49423600D01*
X-687749Y49423600D01*
X-531500Y49408211D01*
X-531500Y49408211D01*
G37*
G36*
X-3071500Y49408211D02*
G01*
X-2871006Y49347392D01*
X-2686241Y49248633D01*
X-2686238Y49248631D01*
X-2686237Y49248630D01*
X-2524282Y49115718D01*
X-2391370Y48953763D01*
X-2391367Y48953759D01*
X-2292608Y48768994D01*
X-2231789Y48568500D01*
X-2211254Y48360000D01*
X-2231789Y48151500D01*
X-2292608Y47951006D01*
X-2391367Y47766241D01*
X-2391369Y47766238D01*
X-2391370Y47766237D01*
X-2524282Y47604282D01*
X-2686237Y47471370D01*
X-2686241Y47471367D01*
X-2871006Y47372608D01*
X-3071500Y47311789D01*
X-3227749Y47296400D01*
X-3332251Y47296400D01*
X-3488500Y47311789D01*
X-3688994Y47372608D01*
X-3873759Y47471367D01*
X-3873763Y47471370D01*
X-4035718Y47604282D01*
X-4168630Y47766237D01*
X-4168631Y47766238D01*
X-4168633Y47766241D01*
X-4267392Y47951006D01*
X-4328211Y48151500D01*
X-4348746Y48360000D01*
X-4328211Y48568500D01*
X-4267392Y48768994D01*
X-4168633Y48953759D01*
X-4168630Y48953763D01*
X-4035718Y49115718D01*
X-3873763Y49248630D01*
X-3873762Y49248631D01*
X-3873759Y49248633D01*
X-3688994Y49347392D01*
X-3488500Y49408211D01*
X-3332251Y49423600D01*
X-3227749Y49423600D01*
X-3071500Y49408211D01*
X-3071500Y49408211D01*
G37*
G36*
X-5611500Y49408211D02*
G01*
X-5411006Y49347392D01*
X-5226241Y49248633D01*
X-5226238Y49248631D01*
X-5226237Y49248630D01*
X-5064282Y49115718D01*
X-4931370Y48953763D01*
X-4931367Y48953759D01*
X-4832608Y48768994D01*
X-4771789Y48568500D01*
X-4751254Y48360000D01*
X-4771789Y48151500D01*
X-4832608Y47951006D01*
X-4931367Y47766241D01*
X-4931369Y47766238D01*
X-4931370Y47766237D01*
X-5064282Y47604282D01*
X-5226237Y47471370D01*
X-5226241Y47471367D01*
X-5411006Y47372608D01*
X-5611500Y47311789D01*
X-5767749Y47296400D01*
X-5872251Y47296400D01*
X-6028500Y47311789D01*
X-6228994Y47372608D01*
X-6413759Y47471367D01*
X-6413763Y47471370D01*
X-6575718Y47604282D01*
X-6708630Y47766237D01*
X-6708631Y47766238D01*
X-6708633Y47766241D01*
X-6807392Y47951006D01*
X-6868211Y48151500D01*
X-6888746Y48360000D01*
X-6868211Y48568500D01*
X-6807392Y48768994D01*
X-6708633Y48953759D01*
X-6708630Y48953763D01*
X-6575718Y49115718D01*
X-6413763Y49248630D01*
X-6413762Y49248631D01*
X-6413759Y49248633D01*
X-6228994Y49347392D01*
X-6028500Y49408211D01*
X-5872251Y49423600D01*
X-5767749Y49423600D01*
X-5611500Y49408211D01*
X-5611500Y49408211D01*
G37*
G36*
X-8151500Y49408211D02*
G01*
X-7951006Y49347392D01*
X-7766241Y49248633D01*
X-7766238Y49248631D01*
X-7766237Y49248630D01*
X-7604282Y49115718D01*
X-7471370Y48953763D01*
X-7471367Y48953759D01*
X-7372608Y48768994D01*
X-7311789Y48568500D01*
X-7291254Y48360000D01*
X-7311789Y48151500D01*
X-7372608Y47951006D01*
X-7471367Y47766241D01*
X-7471369Y47766238D01*
X-7471370Y47766237D01*
X-7604282Y47604282D01*
X-7766237Y47471370D01*
X-7766241Y47471367D01*
X-7951006Y47372608D01*
X-8151500Y47311789D01*
X-8307749Y47296400D01*
X-8412251Y47296400D01*
X-8568500Y47311789D01*
X-8768994Y47372608D01*
X-8953759Y47471367D01*
X-8953763Y47471370D01*
X-9115718Y47604282D01*
X-9248630Y47766237D01*
X-9248631Y47766238D01*
X-9248633Y47766241D01*
X-9347392Y47951006D01*
X-9408211Y48151500D01*
X-9428746Y48360000D01*
X-9408211Y48568500D01*
X-9347392Y48768994D01*
X-9248633Y48953759D01*
X-9248630Y48953763D01*
X-9115718Y49115718D01*
X-8953763Y49248630D01*
X-8953762Y49248631D01*
X-8953759Y49248633D01*
X-8768994Y49347392D01*
X-8568500Y49408211D01*
X-8412251Y49423600D01*
X-8307749Y49423600D01*
X-8151500Y49408211D01*
X-8151500Y49408211D01*
G37*
G36*
X-10691500Y49408211D02*
G01*
X-10491006Y49347392D01*
X-10306241Y49248633D01*
X-10306238Y49248631D01*
X-10306237Y49248630D01*
X-10144282Y49115718D01*
X-10011370Y48953763D01*
X-10011367Y48953759D01*
X-9912608Y48768994D01*
X-9851789Y48568500D01*
X-9831254Y48360000D01*
X-9851789Y48151500D01*
X-9912608Y47951006D01*
X-10011367Y47766241D01*
X-10011369Y47766238D01*
X-10011370Y47766237D01*
X-10144282Y47604282D01*
X-10306237Y47471370D01*
X-10306241Y47471367D01*
X-10491006Y47372608D01*
X-10691500Y47311789D01*
X-10847749Y47296400D01*
X-10952251Y47296400D01*
X-11108500Y47311789D01*
X-11308994Y47372608D01*
X-11493759Y47471367D01*
X-11493763Y47471370D01*
X-11655718Y47604282D01*
X-11788630Y47766237D01*
X-11788631Y47766238D01*
X-11788633Y47766241D01*
X-11887392Y47951006D01*
X-11948211Y48151500D01*
X-11968746Y48360000D01*
X-11948211Y48568500D01*
X-11887392Y48768994D01*
X-11788633Y48953759D01*
X-11788630Y48953763D01*
X-11655718Y49115718D01*
X-11493763Y49248630D01*
X-11493762Y49248631D01*
X-11493759Y49248633D01*
X-11308994Y49347392D01*
X-11108500Y49408211D01*
X-10952251Y49423600D01*
X-10847749Y49423600D01*
X-10691500Y49408211D01*
X-10691500Y49408211D01*
G37*
G36*
X-13231500Y49408211D02*
G01*
X-13031006Y49347392D01*
X-12846241Y49248633D01*
X-12846238Y49248631D01*
X-12846237Y49248630D01*
X-12684282Y49115718D01*
X-12551370Y48953763D01*
X-12551367Y48953759D01*
X-12452608Y48768994D01*
X-12391789Y48568500D01*
X-12371254Y48360000D01*
X-12391789Y48151500D01*
X-12452608Y47951006D01*
X-12551367Y47766241D01*
X-12551369Y47766238D01*
X-12551370Y47766237D01*
X-12684282Y47604282D01*
X-12846237Y47471370D01*
X-12846241Y47471367D01*
X-13031006Y47372608D01*
X-13231500Y47311789D01*
X-13387749Y47296400D01*
X-13492251Y47296400D01*
X-13648500Y47311789D01*
X-13848994Y47372608D01*
X-14033759Y47471367D01*
X-14033763Y47471370D01*
X-14195718Y47604282D01*
X-14328630Y47766237D01*
X-14328631Y47766238D01*
X-14328633Y47766241D01*
X-14427392Y47951006D01*
X-14488211Y48151500D01*
X-14508746Y48360000D01*
X-14488211Y48568500D01*
X-14427392Y48768994D01*
X-14328633Y48953759D01*
X-14328630Y48953763D01*
X-14195718Y49115718D01*
X-14033763Y49248630D01*
X-14033762Y49248631D01*
X-14033759Y49248633D01*
X-13848994Y49347392D01*
X-13648500Y49408211D01*
X-13492251Y49423600D01*
X-13387749Y49423600D01*
X-13231500Y49408211D01*
X-13231500Y49408211D01*
G37*
G36*
X-15771500Y49408211D02*
G01*
X-15571006Y49347392D01*
X-15386241Y49248633D01*
X-15386238Y49248631D01*
X-15386237Y49248630D01*
X-15224282Y49115718D01*
X-15091370Y48953763D01*
X-15091367Y48953759D01*
X-14992608Y48768994D01*
X-14931789Y48568500D01*
X-14911254Y48360000D01*
X-14931789Y48151500D01*
X-14992608Y47951006D01*
X-15091367Y47766241D01*
X-15091369Y47766238D01*
X-15091370Y47766237D01*
X-15224282Y47604282D01*
X-15386237Y47471370D01*
X-15386241Y47471367D01*
X-15571006Y47372608D01*
X-15771500Y47311789D01*
X-15927749Y47296400D01*
X-16032251Y47296400D01*
X-16188500Y47311789D01*
X-16388994Y47372608D01*
X-16573759Y47471367D01*
X-16573763Y47471370D01*
X-16735718Y47604282D01*
X-16868630Y47766237D01*
X-16868631Y47766238D01*
X-16868633Y47766241D01*
X-16967392Y47951006D01*
X-17028211Y48151500D01*
X-17048746Y48360000D01*
X-17028211Y48568500D01*
X-16967392Y48768994D01*
X-16868633Y48953759D01*
X-16868630Y48953763D01*
X-16735718Y49115718D01*
X-16573763Y49248630D01*
X-16573762Y49248631D01*
X-16573759Y49248633D01*
X-16388994Y49347392D01*
X-16188500Y49408211D01*
X-16032251Y49423600D01*
X-15927749Y49423600D01*
X-15771500Y49408211D01*
X-15771500Y49408211D01*
G37*
G36*
X-18311500Y49408211D02*
G01*
X-18111006Y49347392D01*
X-17926241Y49248633D01*
X-17926238Y49248631D01*
X-17926237Y49248630D01*
X-17764282Y49115718D01*
X-17631370Y48953763D01*
X-17631367Y48953759D01*
X-17532608Y48768994D01*
X-17471789Y48568500D01*
X-17451254Y48360000D01*
X-17471789Y48151500D01*
X-17532608Y47951006D01*
X-17631367Y47766241D01*
X-17631369Y47766238D01*
X-17631370Y47766237D01*
X-17764282Y47604282D01*
X-17926237Y47471370D01*
X-17926241Y47471367D01*
X-18111006Y47372608D01*
X-18311500Y47311789D01*
X-18467749Y47296400D01*
X-18572251Y47296400D01*
X-18728500Y47311789D01*
X-18928994Y47372608D01*
X-19113759Y47471367D01*
X-19113763Y47471370D01*
X-19275718Y47604282D01*
X-19408630Y47766237D01*
X-19408631Y47766238D01*
X-19408633Y47766241D01*
X-19507392Y47951006D01*
X-19568211Y48151500D01*
X-19588746Y48360000D01*
X-19568211Y48568500D01*
X-19507392Y48768994D01*
X-19408633Y48953759D01*
X-19408630Y48953763D01*
X-19275718Y49115718D01*
X-19113763Y49248630D01*
X-19113762Y49248631D01*
X-19113759Y49248633D01*
X-18928994Y49347392D01*
X-18728500Y49408211D01*
X-18572251Y49423600D01*
X-18467749Y49423600D01*
X-18311500Y49408211D01*
X-18311500Y49408211D01*
G37*
G36*
X-20851500Y49408211D02*
G01*
X-20651006Y49347392D01*
X-20466241Y49248633D01*
X-20466238Y49248631D01*
X-20466237Y49248630D01*
X-20304282Y49115718D01*
X-20171370Y48953763D01*
X-20171367Y48953759D01*
X-20072608Y48768994D01*
X-20011789Y48568500D01*
X-19991254Y48360000D01*
X-20011789Y48151500D01*
X-20072608Y47951006D01*
X-20171367Y47766241D01*
X-20171369Y47766238D01*
X-20171370Y47766237D01*
X-20304282Y47604282D01*
X-20466237Y47471370D01*
X-20466241Y47471367D01*
X-20651006Y47372608D01*
X-20851500Y47311789D01*
X-21007749Y47296400D01*
X-21112251Y47296400D01*
X-21268500Y47311789D01*
X-21468994Y47372608D01*
X-21653759Y47471367D01*
X-21653763Y47471370D01*
X-21815718Y47604282D01*
X-21948630Y47766237D01*
X-21948631Y47766238D01*
X-21948633Y47766241D01*
X-22047392Y47951006D01*
X-22108211Y48151500D01*
X-22128746Y48360000D01*
X-22108211Y48568500D01*
X-22047392Y48768994D01*
X-21948633Y48953759D01*
X-21948630Y48953763D01*
X-21815718Y49115718D01*
X-21653763Y49248630D01*
X-21653762Y49248631D01*
X-21653759Y49248633D01*
X-21468994Y49347392D01*
X-21268500Y49408211D01*
X-21112251Y49423600D01*
X-21007749Y49423600D01*
X-20851500Y49408211D01*
X-20851500Y49408211D01*
G37*
G36*
X-23391500Y49408211D02*
G01*
X-23191006Y49347392D01*
X-23006241Y49248633D01*
X-23006238Y49248631D01*
X-23006237Y49248630D01*
X-22844282Y49115718D01*
X-22711370Y48953763D01*
X-22711367Y48953759D01*
X-22612608Y48768994D01*
X-22551789Y48568500D01*
X-22531254Y48360000D01*
X-22551789Y48151500D01*
X-22612608Y47951006D01*
X-22711367Y47766241D01*
X-22711369Y47766238D01*
X-22711370Y47766237D01*
X-22844282Y47604282D01*
X-23006237Y47471370D01*
X-23006241Y47471367D01*
X-23191006Y47372608D01*
X-23391500Y47311789D01*
X-23547749Y47296400D01*
X-23652251Y47296400D01*
X-23808500Y47311789D01*
X-24008994Y47372608D01*
X-24193759Y47471367D01*
X-24193763Y47471370D01*
X-24355718Y47604282D01*
X-24488630Y47766237D01*
X-24488631Y47766238D01*
X-24488633Y47766241D01*
X-24587392Y47951006D01*
X-24648211Y48151500D01*
X-24668746Y48360000D01*
X-24648211Y48568500D01*
X-24587392Y48768994D01*
X-24488633Y48953759D01*
X-24488630Y48953763D01*
X-24355718Y49115718D01*
X-24193763Y49248630D01*
X-24193762Y49248631D01*
X-24193759Y49248633D01*
X-24008994Y49347392D01*
X-23808500Y49408211D01*
X-23652251Y49423600D01*
X-23547749Y49423600D01*
X-23391500Y49408211D01*
X-23391500Y49408211D01*
G37*
G36*
X-25931500Y49408211D02*
G01*
X-25731006Y49347392D01*
X-25546241Y49248633D01*
X-25546238Y49248631D01*
X-25546237Y49248630D01*
X-25384282Y49115718D01*
X-25251370Y48953763D01*
X-25251367Y48953759D01*
X-25152608Y48768994D01*
X-25091789Y48568500D01*
X-25071254Y48360000D01*
X-25091789Y48151500D01*
X-25152608Y47951006D01*
X-25251367Y47766241D01*
X-25251369Y47766238D01*
X-25251370Y47766237D01*
X-25384282Y47604282D01*
X-25546237Y47471370D01*
X-25546241Y47471367D01*
X-25731006Y47372608D01*
X-25931500Y47311789D01*
X-26087749Y47296400D01*
X-26192251Y47296400D01*
X-26348500Y47311789D01*
X-26548994Y47372608D01*
X-26733759Y47471367D01*
X-26733763Y47471370D01*
X-26895718Y47604282D01*
X-27028630Y47766237D01*
X-27028631Y47766238D01*
X-27028633Y47766241D01*
X-27127392Y47951006D01*
X-27188211Y48151500D01*
X-27208746Y48360000D01*
X-27188211Y48568500D01*
X-27127392Y48768994D01*
X-27028633Y48953759D01*
X-27028630Y48953763D01*
X-26895718Y49115718D01*
X-26733763Y49248630D01*
X-26733762Y49248631D01*
X-26733759Y49248633D01*
X-26548994Y49347392D01*
X-26348500Y49408211D01*
X-26192251Y49423600D01*
X-26087749Y49423600D01*
X-25931500Y49408211D01*
X-25931500Y49408211D01*
G37*
G36*
X-28471500Y49408211D02*
G01*
X-28271006Y49347392D01*
X-28086241Y49248633D01*
X-28086238Y49248631D01*
X-28086237Y49248630D01*
X-27924282Y49115718D01*
X-27791370Y48953763D01*
X-27791367Y48953759D01*
X-27692608Y48768994D01*
X-27631789Y48568500D01*
X-27611254Y48360000D01*
X-27631789Y48151500D01*
X-27692608Y47951006D01*
X-27791367Y47766241D01*
X-27791369Y47766238D01*
X-27791370Y47766237D01*
X-27924282Y47604282D01*
X-28086237Y47471370D01*
X-28086241Y47471367D01*
X-28271006Y47372608D01*
X-28471500Y47311789D01*
X-28627749Y47296400D01*
X-28732251Y47296400D01*
X-28888500Y47311789D01*
X-29088994Y47372608D01*
X-29273759Y47471367D01*
X-29273763Y47471370D01*
X-29435718Y47604282D01*
X-29568630Y47766237D01*
X-29568631Y47766238D01*
X-29568633Y47766241D01*
X-29667392Y47951006D01*
X-29728211Y48151500D01*
X-29748746Y48360000D01*
X-29728211Y48568500D01*
X-29667392Y48768994D01*
X-29568633Y48953759D01*
X-29568630Y48953763D01*
X-29435718Y49115718D01*
X-29273763Y49248630D01*
X-29273762Y49248631D01*
X-29273759Y49248633D01*
X-29088994Y49347392D01*
X-28888500Y49408211D01*
X-28732251Y49423600D01*
X-28627749Y49423600D01*
X-28471500Y49408211D01*
X-28471500Y49408211D01*
G37*
G36*
X15268500Y49408211D02*
G01*
X15468994Y49347392D01*
X15653759Y49248633D01*
X15653762Y49248631D01*
X15653763Y49248630D01*
X15815718Y49115718D01*
X15948630Y48953763D01*
X15948633Y48953759D01*
X16047392Y48768994D01*
X16108211Y48568500D01*
X16128746Y48360000D01*
X16108211Y48151500D01*
X16047392Y47951006D01*
X15948633Y47766241D01*
X15948631Y47766238D01*
X15948630Y47766237D01*
X15815718Y47604282D01*
X15653763Y47471370D01*
X15653759Y47471367D01*
X15468994Y47372608D01*
X15268500Y47311789D01*
X15112251Y47296400D01*
X15007749Y47296400D01*
X14851500Y47311789D01*
X14651006Y47372608D01*
X14466241Y47471367D01*
X14466237Y47471370D01*
X14304282Y47604282D01*
X14171370Y47766237D01*
X14171369Y47766238D01*
X14171367Y47766241D01*
X14072608Y47951006D01*
X14011789Y48151500D01*
X13991254Y48360000D01*
X14011789Y48568500D01*
X14072608Y48768994D01*
X14171367Y48953759D01*
X14171370Y48953763D01*
X14304282Y49115718D01*
X14466237Y49248630D01*
X14466238Y49248631D01*
X14466241Y49248633D01*
X14651006Y49347392D01*
X14851500Y49408211D01*
X15007749Y49423600D01*
X15112251Y49423600D01*
X15268500Y49408211D01*
X15268500Y49408211D01*
G37*
G36*
X17808500Y49408211D02*
G01*
X18008994Y49347392D01*
X18193759Y49248633D01*
X18193762Y49248631D01*
X18193763Y49248630D01*
X18355718Y49115718D01*
X18488630Y48953763D01*
X18488633Y48953759D01*
X18587392Y48768994D01*
X18648211Y48568500D01*
X18668746Y48360000D01*
X18648211Y48151500D01*
X18587392Y47951006D01*
X18488633Y47766241D01*
X18488631Y47766238D01*
X18488630Y47766237D01*
X18355718Y47604282D01*
X18193763Y47471370D01*
X18193759Y47471367D01*
X18008994Y47372608D01*
X17808500Y47311789D01*
X17652251Y47296400D01*
X17547749Y47296400D01*
X17391500Y47311789D01*
X17191006Y47372608D01*
X17006241Y47471367D01*
X17006237Y47471370D01*
X16844282Y47604282D01*
X16711370Y47766237D01*
X16711369Y47766238D01*
X16711367Y47766241D01*
X16612608Y47951006D01*
X16551789Y48151500D01*
X16531254Y48360000D01*
X16551789Y48568500D01*
X16612608Y48768994D01*
X16711367Y48953759D01*
X16711370Y48953763D01*
X16844282Y49115718D01*
X17006237Y49248630D01*
X17006238Y49248631D01*
X17006241Y49248633D01*
X17191006Y49347392D01*
X17391500Y49408211D01*
X17547749Y49423600D01*
X17652251Y49423600D01*
X17808500Y49408211D01*
X17808500Y49408211D01*
G37*
G36*
X20348500Y49408211D02*
G01*
X20548994Y49347392D01*
X20733759Y49248633D01*
X20733762Y49248631D01*
X20733763Y49248630D01*
X20895718Y49115718D01*
X21028630Y48953763D01*
X21028633Y48953759D01*
X21127392Y48768994D01*
X21188211Y48568500D01*
X21208746Y48360000D01*
X21188211Y48151500D01*
X21127392Y47951006D01*
X21028633Y47766241D01*
X21028631Y47766238D01*
X21028630Y47766237D01*
X20895718Y47604282D01*
X20733763Y47471370D01*
X20733759Y47471367D01*
X20548994Y47372608D01*
X20348500Y47311789D01*
X20192251Y47296400D01*
X20087749Y47296400D01*
X19931500Y47311789D01*
X19731006Y47372608D01*
X19546241Y47471367D01*
X19546237Y47471370D01*
X19384282Y47604282D01*
X19251370Y47766237D01*
X19251369Y47766238D01*
X19251367Y47766241D01*
X19152608Y47951006D01*
X19091789Y48151500D01*
X19071254Y48360000D01*
X19091789Y48568500D01*
X19152608Y48768994D01*
X19251367Y48953759D01*
X19251370Y48953763D01*
X19384282Y49115718D01*
X19546237Y49248630D01*
X19546238Y49248631D01*
X19546241Y49248633D01*
X19731006Y49347392D01*
X19931500Y49408211D01*
X20087749Y49423600D01*
X20192251Y49423600D01*
X20348500Y49408211D01*
X20348500Y49408211D01*
G37*
G36*
X22888500Y49408211D02*
G01*
X23088994Y49347392D01*
X23273759Y49248633D01*
X23273762Y49248631D01*
X23273763Y49248630D01*
X23435718Y49115718D01*
X23568630Y48953763D01*
X23568633Y48953759D01*
X23667392Y48768994D01*
X23728211Y48568500D01*
X23748746Y48360000D01*
X23728211Y48151500D01*
X23667392Y47951006D01*
X23568633Y47766241D01*
X23568631Y47766238D01*
X23568630Y47766237D01*
X23435718Y47604282D01*
X23273763Y47471370D01*
X23273759Y47471367D01*
X23088994Y47372608D01*
X22888500Y47311789D01*
X22732251Y47296400D01*
X22627749Y47296400D01*
X22471500Y47311789D01*
X22271006Y47372608D01*
X22086241Y47471367D01*
X22086237Y47471370D01*
X21924282Y47604282D01*
X21791370Y47766237D01*
X21791369Y47766238D01*
X21791367Y47766241D01*
X21692608Y47951006D01*
X21631789Y48151500D01*
X21611254Y48360000D01*
X21631789Y48568500D01*
X21692608Y48768994D01*
X21791367Y48953759D01*
X21791370Y48953763D01*
X21924282Y49115718D01*
X22086237Y49248630D01*
X22086238Y49248631D01*
X22086241Y49248633D01*
X22271006Y49347392D01*
X22471500Y49408211D01*
X22627749Y49423600D01*
X22732251Y49423600D01*
X22888500Y49408211D01*
X22888500Y49408211D01*
G37*
G36*
X25428500Y49408211D02*
G01*
X25628994Y49347392D01*
X25813759Y49248633D01*
X25813762Y49248631D01*
X25813763Y49248630D01*
X25975718Y49115718D01*
X26108630Y48953763D01*
X26108633Y48953759D01*
X26207392Y48768994D01*
X26268211Y48568500D01*
X26288746Y48360000D01*
X26268211Y48151500D01*
X26207392Y47951006D01*
X26108633Y47766241D01*
X26108631Y47766238D01*
X26108630Y47766237D01*
X25975718Y47604282D01*
X25813763Y47471370D01*
X25813759Y47471367D01*
X25628994Y47372608D01*
X25428500Y47311789D01*
X25272251Y47296400D01*
X25167749Y47296400D01*
X25011500Y47311789D01*
X24811006Y47372608D01*
X24626241Y47471367D01*
X24626237Y47471370D01*
X24464282Y47604282D01*
X24331370Y47766237D01*
X24331369Y47766238D01*
X24331367Y47766241D01*
X24232608Y47951006D01*
X24171789Y48151500D01*
X24151254Y48360000D01*
X24171789Y48568500D01*
X24232608Y48768994D01*
X24331367Y48953759D01*
X24331370Y48953763D01*
X24464282Y49115718D01*
X24626237Y49248630D01*
X24626238Y49248631D01*
X24626241Y49248633D01*
X24811006Y49347392D01*
X25011500Y49408211D01*
X25167749Y49423600D01*
X25272251Y49423600D01*
X25428500Y49408211D01*
X25428500Y49408211D01*
G37*
G36*
X27968500Y49408211D02*
G01*
X28168994Y49347392D01*
X28353759Y49248633D01*
X28353762Y49248631D01*
X28353763Y49248630D01*
X28515718Y49115718D01*
X28648630Y48953763D01*
X28648633Y48953759D01*
X28747392Y48768994D01*
X28808211Y48568500D01*
X28828746Y48360000D01*
X28808211Y48151500D01*
X28747392Y47951006D01*
X28648633Y47766241D01*
X28648631Y47766238D01*
X28648630Y47766237D01*
X28515718Y47604282D01*
X28353763Y47471370D01*
X28353759Y47471367D01*
X28168994Y47372608D01*
X27968500Y47311789D01*
X27812251Y47296400D01*
X27707749Y47296400D01*
X27551500Y47311789D01*
X27351006Y47372608D01*
X27166241Y47471367D01*
X27166237Y47471370D01*
X27004282Y47604282D01*
X26871370Y47766237D01*
X26871369Y47766238D01*
X26871367Y47766241D01*
X26772608Y47951006D01*
X26711789Y48151500D01*
X26691254Y48360000D01*
X26711789Y48568500D01*
X26772608Y48768994D01*
X26871367Y48953759D01*
X26871370Y48953763D01*
X27004282Y49115718D01*
X27166237Y49248630D01*
X27166238Y49248631D01*
X27166241Y49248633D01*
X27351006Y49347392D01*
X27551500Y49408211D01*
X27707749Y49423600D01*
X27812251Y49423600D01*
X27968500Y49408211D01*
X27968500Y49408211D01*
G37*
G36*
X30508500Y49408211D02*
G01*
X30708994Y49347392D01*
X30893759Y49248633D01*
X30893762Y49248631D01*
X30893763Y49248630D01*
X31055718Y49115718D01*
X31188630Y48953763D01*
X31188633Y48953759D01*
X31287392Y48768994D01*
X31348211Y48568500D01*
X31368746Y48360000D01*
X31348211Y48151500D01*
X31287392Y47951006D01*
X31188633Y47766241D01*
X31188631Y47766238D01*
X31188630Y47766237D01*
X31055718Y47604282D01*
X30893763Y47471370D01*
X30893759Y47471367D01*
X30708994Y47372608D01*
X30508500Y47311789D01*
X30352251Y47296400D01*
X30247749Y47296400D01*
X30091500Y47311789D01*
X29891006Y47372608D01*
X29706241Y47471367D01*
X29706237Y47471370D01*
X29544282Y47604282D01*
X29411370Y47766237D01*
X29411369Y47766238D01*
X29411367Y47766241D01*
X29312608Y47951006D01*
X29251789Y48151500D01*
X29231254Y48360000D01*
X29251789Y48568500D01*
X29312608Y48768994D01*
X29411367Y48953759D01*
X29411370Y48953763D01*
X29544282Y49115718D01*
X29706237Y49248630D01*
X29706238Y49248631D01*
X29706241Y49248633D01*
X29891006Y49347392D01*
X30091500Y49408211D01*
X30247749Y49423600D01*
X30352251Y49423600D01*
X30508500Y49408211D01*
X30508500Y49408211D01*
G37*
G36*
X33048500Y49408211D02*
G01*
X33248994Y49347392D01*
X33433759Y49248633D01*
X33433762Y49248631D01*
X33433763Y49248630D01*
X33595718Y49115718D01*
X33728630Y48953763D01*
X33728633Y48953759D01*
X33827392Y48768994D01*
X33888211Y48568500D01*
X33908746Y48360000D01*
X33888211Y48151500D01*
X33827392Y47951006D01*
X33728633Y47766241D01*
X33728631Y47766238D01*
X33728630Y47766237D01*
X33595718Y47604282D01*
X33433763Y47471370D01*
X33433759Y47471367D01*
X33248994Y47372608D01*
X33048500Y47311789D01*
X32892251Y47296400D01*
X32787749Y47296400D01*
X32631500Y47311789D01*
X32431006Y47372608D01*
X32246241Y47471367D01*
X32246237Y47471370D01*
X32084282Y47604282D01*
X31951370Y47766237D01*
X31951369Y47766238D01*
X31951367Y47766241D01*
X31852608Y47951006D01*
X31791789Y48151500D01*
X31771254Y48360000D01*
X31791789Y48568500D01*
X31852608Y48768994D01*
X31951367Y48953759D01*
X31951370Y48953763D01*
X32084282Y49115718D01*
X32246237Y49248630D01*
X32246238Y49248631D01*
X32246241Y49248633D01*
X32431006Y49347392D01*
X32631500Y49408211D01*
X32787749Y49423600D01*
X32892251Y49423600D01*
X33048500Y49408211D01*
X33048500Y49408211D01*
G37*
G36*
X35588500Y49408211D02*
G01*
X35788994Y49347392D01*
X35973759Y49248633D01*
X35973762Y49248631D01*
X35973763Y49248630D01*
X36135718Y49115718D01*
X36268630Y48953763D01*
X36268633Y48953759D01*
X36367392Y48768994D01*
X36428211Y48568500D01*
X36448746Y48360000D01*
X36428211Y48151500D01*
X36367392Y47951006D01*
X36268633Y47766241D01*
X36268631Y47766238D01*
X36268630Y47766237D01*
X36135718Y47604282D01*
X35973763Y47471370D01*
X35973759Y47471367D01*
X35788994Y47372608D01*
X35588500Y47311789D01*
X35432251Y47296400D01*
X35327749Y47296400D01*
X35171500Y47311789D01*
X34971006Y47372608D01*
X34786241Y47471367D01*
X34786237Y47471370D01*
X34624282Y47604282D01*
X34491370Y47766237D01*
X34491369Y47766238D01*
X34491367Y47766241D01*
X34392608Y47951006D01*
X34331789Y48151500D01*
X34311254Y48360000D01*
X34331789Y48568500D01*
X34392608Y48768994D01*
X34491367Y48953759D01*
X34491370Y48953763D01*
X34624282Y49115718D01*
X34786237Y49248630D01*
X34786238Y49248631D01*
X34786241Y49248633D01*
X34971006Y49347392D01*
X35171500Y49408211D01*
X35327749Y49423600D01*
X35432251Y49423600D01*
X35588500Y49408211D01*
X35588500Y49408211D01*
G37*
G36*
X38128500Y49408211D02*
G01*
X38328994Y49347392D01*
X38513759Y49248633D01*
X38513762Y49248631D01*
X38513763Y49248630D01*
X38675718Y49115718D01*
X38808630Y48953763D01*
X38808633Y48953759D01*
X38907392Y48768994D01*
X38968211Y48568500D01*
X38988746Y48360000D01*
X38968211Y48151500D01*
X38907392Y47951006D01*
X38808633Y47766241D01*
X38808631Y47766238D01*
X38808630Y47766237D01*
X38675718Y47604282D01*
X38513763Y47471370D01*
X38513759Y47471367D01*
X38328994Y47372608D01*
X38128500Y47311789D01*
X37972251Y47296400D01*
X37867749Y47296400D01*
X37711500Y47311789D01*
X37511006Y47372608D01*
X37326241Y47471367D01*
X37326237Y47471370D01*
X37164282Y47604282D01*
X37031370Y47766237D01*
X37031369Y47766238D01*
X37031367Y47766241D01*
X36932608Y47951006D01*
X36871789Y48151500D01*
X36851254Y48360000D01*
X36871789Y48568500D01*
X36932608Y48768994D01*
X37031367Y48953759D01*
X37031370Y48953763D01*
X37164282Y49115718D01*
X37326237Y49248630D01*
X37326238Y49248631D01*
X37326241Y49248633D01*
X37511006Y49347392D01*
X37711500Y49408211D01*
X37867749Y49423600D01*
X37972251Y49423600D01*
X38128500Y49408211D01*
X38128500Y49408211D01*
G37*
G36*
X40668500Y49408211D02*
G01*
X40868994Y49347392D01*
X41053759Y49248633D01*
X41053762Y49248631D01*
X41053763Y49248630D01*
X41215718Y49115718D01*
X41348630Y48953763D01*
X41348633Y48953759D01*
X41447392Y48768994D01*
X41508211Y48568500D01*
X41528746Y48360000D01*
X41508211Y48151500D01*
X41447392Y47951006D01*
X41348633Y47766241D01*
X41348631Y47766238D01*
X41348630Y47766237D01*
X41215718Y47604282D01*
X41053763Y47471370D01*
X41053759Y47471367D01*
X40868994Y47372608D01*
X40668500Y47311789D01*
X40512251Y47296400D01*
X40407749Y47296400D01*
X40251500Y47311789D01*
X40051006Y47372608D01*
X39866241Y47471367D01*
X39866237Y47471370D01*
X39704282Y47604282D01*
X39571370Y47766237D01*
X39571369Y47766238D01*
X39571367Y47766241D01*
X39472608Y47951006D01*
X39411789Y48151500D01*
X39391254Y48360000D01*
X39411789Y48568500D01*
X39472608Y48768994D01*
X39571367Y48953759D01*
X39571370Y48953763D01*
X39704282Y49115718D01*
X39866237Y49248630D01*
X39866238Y49248631D01*
X39866241Y49248633D01*
X40051006Y49347392D01*
X40251500Y49408211D01*
X40407749Y49423600D01*
X40512251Y49423600D01*
X40668500Y49408211D01*
X40668500Y49408211D01*
G37*
G36*
X43208500Y49408211D02*
G01*
X43408994Y49347392D01*
X43593759Y49248633D01*
X43593762Y49248631D01*
X43593763Y49248630D01*
X43755718Y49115718D01*
X43888630Y48953763D01*
X43888633Y48953759D01*
X43987392Y48768994D01*
X44048211Y48568500D01*
X44068746Y48360000D01*
X44048211Y48151500D01*
X43987392Y47951006D01*
X43888633Y47766241D01*
X43888631Y47766238D01*
X43888630Y47766237D01*
X43755718Y47604282D01*
X43593763Y47471370D01*
X43593759Y47471367D01*
X43408994Y47372608D01*
X43208500Y47311789D01*
X43052251Y47296400D01*
X42947749Y47296400D01*
X42791500Y47311789D01*
X42591006Y47372608D01*
X42406241Y47471367D01*
X42406237Y47471370D01*
X42244282Y47604282D01*
X42111370Y47766237D01*
X42111369Y47766238D01*
X42111367Y47766241D01*
X42012608Y47951006D01*
X41951789Y48151500D01*
X41931254Y48360000D01*
X41951789Y48568500D01*
X42012608Y48768994D01*
X42111367Y48953759D01*
X42111370Y48953763D01*
X42244282Y49115718D01*
X42406237Y49248630D01*
X42406238Y49248631D01*
X42406241Y49248633D01*
X42591006Y49347392D01*
X42791500Y49408211D01*
X42947749Y49423600D01*
X43052251Y49423600D01*
X43208500Y49408211D01*
X43208500Y49408211D01*
G37*
G36*
X269640336Y49201746D02*
G01*
X269732105Y49183492D01*
X269904994Y49111879D01*
X270060590Y49007913D01*
X270192913Y48875590D01*
X270296879Y48719994D01*
X270364207Y48557450D01*
X270368492Y48547104D01*
X270405000Y48363568D01*
X270405000Y48176432D01*
X270400041Y48151500D01*
X270368492Y47992895D01*
X270296879Y47820006D01*
X270192913Y47664410D01*
X270060590Y47532087D01*
X269904994Y47428121D01*
X269732105Y47356508D01*
X269640336Y47338254D01*
X269548568Y47320000D01*
X269361432Y47320000D01*
X269269664Y47338254D01*
X269177895Y47356508D01*
X269005006Y47428121D01*
X268849410Y47532087D01*
X268717087Y47664410D01*
X268613121Y47820006D01*
X268541508Y47992895D01*
X268509959Y48151500D01*
X268505000Y48176432D01*
X268505000Y48363568D01*
X268541508Y48547104D01*
X268545793Y48557450D01*
X268613121Y48719994D01*
X268717087Y48875590D01*
X268849410Y49007913D01*
X269005006Y49111879D01*
X269177895Y49183492D01*
X269269664Y49201746D01*
X269361432Y49220000D01*
X269548568Y49220000D01*
X269640336Y49201746D01*
X269640336Y49201746D01*
G37*
G36*
X228350240Y50522727D02*
G01*
X228543802Y50442551D01*
X228718005Y50326152D01*
X228866152Y50178005D01*
X228982551Y50003802D01*
X229062727Y49810240D01*
X229103600Y49604757D01*
X229103600Y49395243D01*
X229062727Y49189760D01*
X228982551Y48996198D01*
X228866152Y48821995D01*
X228718005Y48673848D01*
X228543802Y48557449D01*
X228350240Y48477273D01*
X228144757Y48436400D01*
X227935243Y48436400D01*
X227729760Y48477273D01*
X227536198Y48557449D01*
X227361995Y48673848D01*
X227213848Y48821995D01*
X227097449Y48996198D01*
X227017273Y49189760D01*
X226976400Y49395243D01*
X226976400Y49604757D01*
X227017273Y49810240D01*
X227097449Y50003802D01*
X227213848Y50178005D01*
X227361995Y50326152D01*
X227536198Y50442551D01*
X227729760Y50522727D01*
X227935243Y50563600D01*
X228144757Y50563600D01*
X228350240Y50522727D01*
X228350240Y50522727D01*
G37*
G36*
X226563600Y48436400D02*
G01*
X224436400Y48436400D01*
X224436400Y50563600D01*
X226563600Y50563600D01*
X226563600Y48436400D01*
X226563600Y48436400D01*
G37*
G36*
X233430240Y50522727D02*
G01*
X233623802Y50442551D01*
X233798005Y50326152D01*
X233946152Y50178005D01*
X234062551Y50003802D01*
X234142727Y49810240D01*
X234183600Y49604757D01*
X234183600Y49395243D01*
X234142727Y49189760D01*
X234062551Y48996198D01*
X233946152Y48821995D01*
X233798005Y48673848D01*
X233623802Y48557449D01*
X233430240Y48477273D01*
X233224757Y48436400D01*
X233015243Y48436400D01*
X232809760Y48477273D01*
X232616198Y48557449D01*
X232441995Y48673848D01*
X232293848Y48821995D01*
X232177449Y48996198D01*
X232097273Y49189760D01*
X232056400Y49395243D01*
X232056400Y49604757D01*
X232097273Y49810240D01*
X232177449Y50003802D01*
X232293848Y50178005D01*
X232441995Y50326152D01*
X232616198Y50442551D01*
X232809760Y50522727D01*
X233015243Y50563600D01*
X233224757Y50563600D01*
X233430240Y50522727D01*
X233430240Y50522727D01*
G37*
G36*
X235970240Y50522727D02*
G01*
X236163802Y50442551D01*
X236338005Y50326152D01*
X236486152Y50178005D01*
X236602551Y50003802D01*
X236682727Y49810240D01*
X236723600Y49604757D01*
X236723600Y49395243D01*
X236682727Y49189760D01*
X236602551Y48996198D01*
X236486152Y48821995D01*
X236338005Y48673848D01*
X236163802Y48557449D01*
X235970240Y48477273D01*
X235764757Y48436400D01*
X235555243Y48436400D01*
X235349760Y48477273D01*
X235156198Y48557449D01*
X234981995Y48673848D01*
X234833848Y48821995D01*
X234717449Y48996198D01*
X234637273Y49189760D01*
X234596400Y49395243D01*
X234596400Y49604757D01*
X234637273Y49810240D01*
X234717449Y50003802D01*
X234833848Y50178005D01*
X234981995Y50326152D01*
X235156198Y50442551D01*
X235349760Y50522727D01*
X235555243Y50563600D01*
X235764757Y50563600D01*
X235970240Y50522727D01*
X235970240Y50522727D01*
G37*
G36*
X243590240Y50522727D02*
G01*
X243783802Y50442551D01*
X243958005Y50326152D01*
X244106152Y50178005D01*
X244222551Y50003802D01*
X244302727Y49810240D01*
X244343600Y49604757D01*
X244343600Y49395243D01*
X244302727Y49189760D01*
X244222551Y48996198D01*
X244106152Y48821995D01*
X243958005Y48673848D01*
X243783802Y48557449D01*
X243590240Y48477273D01*
X243384757Y48436400D01*
X243175243Y48436400D01*
X242969760Y48477273D01*
X242776198Y48557449D01*
X242601995Y48673848D01*
X242453848Y48821995D01*
X242337449Y48996198D01*
X242257273Y49189760D01*
X242216400Y49395243D01*
X242216400Y49604757D01*
X242257273Y49810240D01*
X242337449Y50003802D01*
X242453848Y50178005D01*
X242601995Y50326152D01*
X242776198Y50442551D01*
X242969760Y50522727D01*
X243175243Y50563600D01*
X243384757Y50563600D01*
X243590240Y50522727D01*
X243590240Y50522727D01*
G37*
G36*
X241050240Y50522727D02*
G01*
X241243802Y50442551D01*
X241418005Y50326152D01*
X241566152Y50178005D01*
X241682551Y50003802D01*
X241762727Y49810240D01*
X241803600Y49604757D01*
X241803600Y49395243D01*
X241762727Y49189760D01*
X241682551Y48996198D01*
X241566152Y48821995D01*
X241418005Y48673848D01*
X241243802Y48557449D01*
X241050240Y48477273D01*
X240844757Y48436400D01*
X240635243Y48436400D01*
X240429760Y48477273D01*
X240236198Y48557449D01*
X240061995Y48673848D01*
X239913848Y48821995D01*
X239797449Y48996198D01*
X239717273Y49189760D01*
X239676400Y49395243D01*
X239676400Y49604757D01*
X239717273Y49810240D01*
X239797449Y50003802D01*
X239913848Y50178005D01*
X240061995Y50326152D01*
X240236198Y50442551D01*
X240429760Y50522727D01*
X240635243Y50563600D01*
X240844757Y50563600D01*
X241050240Y50522727D01*
X241050240Y50522727D01*
G37*
G36*
X238510240Y50522727D02*
G01*
X238703802Y50442551D01*
X238878005Y50326152D01*
X239026152Y50178005D01*
X239142551Y50003802D01*
X239222727Y49810240D01*
X239263600Y49604757D01*
X239263600Y49395243D01*
X239222727Y49189760D01*
X239142551Y48996198D01*
X239026152Y48821995D01*
X238878005Y48673848D01*
X238703802Y48557449D01*
X238510240Y48477273D01*
X238304757Y48436400D01*
X238095243Y48436400D01*
X237889760Y48477273D01*
X237696198Y48557449D01*
X237521995Y48673848D01*
X237373848Y48821995D01*
X237257449Y48996198D01*
X237177273Y49189760D01*
X237136400Y49395243D01*
X237136400Y49604757D01*
X237177273Y49810240D01*
X237257449Y50003802D01*
X237373848Y50178005D01*
X237521995Y50326152D01*
X237696198Y50442551D01*
X237889760Y50522727D01*
X238095243Y50563600D01*
X238304757Y50563600D01*
X238510240Y50522727D01*
X238510240Y50522727D01*
G37*
G36*
X230890240Y50522727D02*
G01*
X231083802Y50442551D01*
X231258005Y50326152D01*
X231406152Y50178005D01*
X231522551Y50003802D01*
X231602727Y49810240D01*
X231643600Y49604757D01*
X231643600Y49395243D01*
X231602727Y49189760D01*
X231522551Y48996198D01*
X231406152Y48821995D01*
X231258005Y48673848D01*
X231083802Y48557449D01*
X230890240Y48477273D01*
X230684757Y48436400D01*
X230475243Y48436400D01*
X230269760Y48477273D01*
X230076198Y48557449D01*
X229901995Y48673848D01*
X229753848Y48821995D01*
X229637449Y48996198D01*
X229557273Y49189760D01*
X229516400Y49395243D01*
X229516400Y49604757D01*
X229557273Y49810240D01*
X229637449Y50003802D01*
X229753848Y50178005D01*
X229901995Y50326152D01*
X230076198Y50442551D01*
X230269760Y50522727D01*
X230475243Y50563600D01*
X230684757Y50563600D01*
X230890240Y50522727D01*
X230890240Y50522727D01*
G37*
G36*
X258122290Y51044381D02*
G01*
X258186689Y51031571D01*
X258368678Y50956189D01*
X258532463Y50846751D01*
X258671751Y50707463D01*
X258781189Y50543678D01*
X258856571Y50361689D01*
X258895000Y50168491D01*
X258895000Y49971509D01*
X258856571Y49778311D01*
X258781189Y49596322D01*
X258671751Y49432537D01*
X258532463Y49293249D01*
X258368678Y49183811D01*
X258186689Y49108429D01*
X258122290Y49095619D01*
X257993493Y49070000D01*
X257796507Y49070000D01*
X257667710Y49095619D01*
X257603311Y49108429D01*
X257421322Y49183811D01*
X257257537Y49293249D01*
X257118249Y49432537D01*
X257008811Y49596322D01*
X256933429Y49778311D01*
X256895000Y49971509D01*
X256895000Y50168491D01*
X256933429Y50361689D01*
X257008811Y50543678D01*
X257118249Y50707463D01*
X257257537Y50846751D01*
X257421322Y50956189D01*
X257603311Y51031571D01*
X257667710Y51044381D01*
X257796507Y51070000D01*
X257993493Y51070000D01*
X258122290Y51044381D01*
X258122290Y51044381D01*
G37*
G36*
X268282290Y51044381D02*
G01*
X268346689Y51031571D01*
X268528678Y50956189D01*
X268692463Y50846751D01*
X268831751Y50707463D01*
X268941189Y50543678D01*
X269016571Y50361689D01*
X269055000Y50168491D01*
X269055000Y49971509D01*
X269016571Y49778311D01*
X268941189Y49596322D01*
X268831751Y49432537D01*
X268692463Y49293249D01*
X268528678Y49183811D01*
X268346689Y49108429D01*
X268282290Y49095619D01*
X268153493Y49070000D01*
X267956507Y49070000D01*
X267827710Y49095619D01*
X267763311Y49108429D01*
X267581322Y49183811D01*
X267417537Y49293249D01*
X267278249Y49432537D01*
X267168811Y49596322D01*
X267093429Y49778311D01*
X267055000Y49971509D01*
X267055000Y50168491D01*
X267093429Y50361689D01*
X267168811Y50543678D01*
X267278249Y50707463D01*
X267417537Y50846751D01*
X267581322Y50956189D01*
X267763311Y51031571D01*
X267827710Y51044381D01*
X267956507Y51070000D01*
X268153493Y51070000D01*
X268282290Y51044381D01*
X268282290Y51044381D01*
G37*
G36*
X265742290Y51044381D02*
G01*
X265806689Y51031571D01*
X265988678Y50956189D01*
X266152463Y50846751D01*
X266291751Y50707463D01*
X266401189Y50543678D01*
X266476571Y50361689D01*
X266515000Y50168491D01*
X266515000Y49971509D01*
X266476571Y49778311D01*
X266401189Y49596322D01*
X266291751Y49432537D01*
X266152463Y49293249D01*
X265988678Y49183811D01*
X265806689Y49108429D01*
X265742290Y49095619D01*
X265613493Y49070000D01*
X265416507Y49070000D01*
X265287710Y49095619D01*
X265223311Y49108429D01*
X265041322Y49183811D01*
X264877537Y49293249D01*
X264738249Y49432537D01*
X264628811Y49596322D01*
X264553429Y49778311D01*
X264515000Y49971509D01*
X264515000Y50168491D01*
X264553429Y50361689D01*
X264628811Y50543678D01*
X264738249Y50707463D01*
X264877537Y50846751D01*
X265041322Y50956189D01*
X265223311Y51031571D01*
X265287710Y51044381D01*
X265416507Y51070000D01*
X265613493Y51070000D01*
X265742290Y51044381D01*
X265742290Y51044381D01*
G37*
G36*
X263202290Y51044381D02*
G01*
X263266689Y51031571D01*
X263448678Y50956189D01*
X263612463Y50846751D01*
X263751751Y50707463D01*
X263861189Y50543678D01*
X263936571Y50361689D01*
X263975000Y50168491D01*
X263975000Y49971509D01*
X263936571Y49778311D01*
X263861189Y49596322D01*
X263751751Y49432537D01*
X263612463Y49293249D01*
X263448678Y49183811D01*
X263266689Y49108429D01*
X263202290Y49095619D01*
X263073493Y49070000D01*
X262876507Y49070000D01*
X262747710Y49095619D01*
X262683311Y49108429D01*
X262501322Y49183811D01*
X262337537Y49293249D01*
X262198249Y49432537D01*
X262088811Y49596322D01*
X262013429Y49778311D01*
X261975000Y49971509D01*
X261975000Y50168491D01*
X262013429Y50361689D01*
X262088811Y50543678D01*
X262198249Y50707463D01*
X262337537Y50846751D01*
X262501322Y50956189D01*
X262683311Y51031571D01*
X262747710Y51044381D01*
X262876507Y51070000D01*
X263073493Y51070000D01*
X263202290Y51044381D01*
X263202290Y51044381D01*
G37*
G36*
X260662290Y51044381D02*
G01*
X260726689Y51031571D01*
X260908678Y50956189D01*
X261072463Y50846751D01*
X261211751Y50707463D01*
X261321189Y50543678D01*
X261396571Y50361689D01*
X261435000Y50168491D01*
X261435000Y49971509D01*
X261396571Y49778311D01*
X261321189Y49596322D01*
X261211751Y49432537D01*
X261072463Y49293249D01*
X260908678Y49183811D01*
X260726689Y49108429D01*
X260662290Y49095619D01*
X260533493Y49070000D01*
X260336507Y49070000D01*
X260207710Y49095619D01*
X260143311Y49108429D01*
X259961322Y49183811D01*
X259797537Y49293249D01*
X259658249Y49432537D01*
X259548811Y49596322D01*
X259473429Y49778311D01*
X259435000Y49971509D01*
X259435000Y50168491D01*
X259473429Y50361689D01*
X259548811Y50543678D01*
X259658249Y50707463D01*
X259797537Y50846751D01*
X259961322Y50956189D01*
X260143311Y51031571D01*
X260207710Y51044381D01*
X260336507Y51070000D01*
X260533493Y51070000D01*
X260662290Y51044381D01*
X260662290Y51044381D01*
G37*
G36*
X255582290Y51044381D02*
G01*
X255646689Y51031571D01*
X255828678Y50956189D01*
X255992463Y50846751D01*
X256131751Y50707463D01*
X256241189Y50543678D01*
X256316571Y50361689D01*
X256355000Y50168491D01*
X256355000Y49971509D01*
X256316571Y49778311D01*
X256241189Y49596322D01*
X256131751Y49432537D01*
X255992463Y49293249D01*
X255828678Y49183811D01*
X255646689Y49108429D01*
X255582290Y49095619D01*
X255453493Y49070000D01*
X255256507Y49070000D01*
X255127710Y49095619D01*
X255063311Y49108429D01*
X254881322Y49183811D01*
X254717537Y49293249D01*
X254578249Y49432537D01*
X254468811Y49596322D01*
X254393429Y49778311D01*
X254355000Y49971509D01*
X254355000Y50168491D01*
X254393429Y50361689D01*
X254468811Y50543678D01*
X254578249Y50707463D01*
X254717537Y50846751D01*
X254881322Y50956189D01*
X255063311Y51031571D01*
X255127710Y51044381D01*
X255256507Y51070000D01*
X255453493Y51070000D01*
X255582290Y51044381D01*
X255582290Y51044381D01*
G37*
G36*
X253042290Y51044381D02*
G01*
X253106689Y51031571D01*
X253288678Y50956189D01*
X253452463Y50846751D01*
X253591751Y50707463D01*
X253701189Y50543678D01*
X253776571Y50361689D01*
X253815000Y50168491D01*
X253815000Y49971509D01*
X253776571Y49778311D01*
X253701189Y49596322D01*
X253591751Y49432537D01*
X253452463Y49293249D01*
X253288678Y49183811D01*
X253106689Y49108429D01*
X253042290Y49095619D01*
X252913493Y49070000D01*
X252716507Y49070000D01*
X252587710Y49095619D01*
X252523311Y49108429D01*
X252341322Y49183811D01*
X252177537Y49293249D01*
X252038249Y49432537D01*
X251928811Y49596322D01*
X251853429Y49778311D01*
X251815000Y49971509D01*
X251815000Y50168491D01*
X251853429Y50361689D01*
X251928811Y50543678D01*
X252038249Y50707463D01*
X252177537Y50846751D01*
X252341322Y50956189D01*
X252523311Y51031571D01*
X252587710Y51044381D01*
X252716507Y51070000D01*
X252913493Y51070000D01*
X253042290Y51044381D01*
X253042290Y51044381D01*
G37*
G36*
X35588500Y51948211D02*
G01*
X35788994Y51887392D01*
X35973759Y51788633D01*
X35973762Y51788631D01*
X35973763Y51788630D01*
X36135718Y51655718D01*
X36268630Y51493763D01*
X36268633Y51493759D01*
X36367392Y51308994D01*
X36428211Y51108500D01*
X36448746Y50900000D01*
X36428211Y50691500D01*
X36367392Y50491006D01*
X36268633Y50306241D01*
X36268631Y50306238D01*
X36268630Y50306237D01*
X36135718Y50144282D01*
X35973763Y50011370D01*
X35973759Y50011367D01*
X35788994Y49912608D01*
X35588500Y49851789D01*
X35432251Y49836400D01*
X35327749Y49836400D01*
X35171500Y49851789D01*
X34971006Y49912608D01*
X34786241Y50011367D01*
X34786237Y50011370D01*
X34624282Y50144282D01*
X34491370Y50306237D01*
X34491369Y50306238D01*
X34491367Y50306241D01*
X34392608Y50491006D01*
X34331789Y50691500D01*
X34311254Y50900000D01*
X34331789Y51108500D01*
X34392608Y51308994D01*
X34491367Y51493759D01*
X34491370Y51493763D01*
X34624282Y51655718D01*
X34786237Y51788630D01*
X34786238Y51788631D01*
X34786241Y51788633D01*
X34971006Y51887392D01*
X35171500Y51948211D01*
X35327749Y51963600D01*
X35432251Y51963600D01*
X35588500Y51948211D01*
X35588500Y51948211D01*
G37*
G36*
X44063600Y49836400D02*
G01*
X41936400Y49836400D01*
X41936400Y51963600D01*
X44063600Y51963600D01*
X44063600Y49836400D01*
X44063600Y49836400D01*
G37*
G36*
X40668500Y51948211D02*
G01*
X40868994Y51887392D01*
X41053759Y51788633D01*
X41053762Y51788631D01*
X41053763Y51788630D01*
X41215718Y51655718D01*
X41348630Y51493763D01*
X41348633Y51493759D01*
X41447392Y51308994D01*
X41508211Y51108500D01*
X41528746Y50900000D01*
X41508211Y50691500D01*
X41447392Y50491006D01*
X41348633Y50306241D01*
X41348631Y50306238D01*
X41348630Y50306237D01*
X41215718Y50144282D01*
X41053763Y50011370D01*
X41053759Y50011367D01*
X40868994Y49912608D01*
X40668500Y49851789D01*
X40512251Y49836400D01*
X40407749Y49836400D01*
X40251500Y49851789D01*
X40051006Y49912608D01*
X39866241Y50011367D01*
X39866237Y50011370D01*
X39704282Y50144282D01*
X39571370Y50306237D01*
X39571369Y50306238D01*
X39571367Y50306241D01*
X39472608Y50491006D01*
X39411789Y50691500D01*
X39391254Y50900000D01*
X39411789Y51108500D01*
X39472608Y51308994D01*
X39571367Y51493759D01*
X39571370Y51493763D01*
X39704282Y51655718D01*
X39866237Y51788630D01*
X39866238Y51788631D01*
X39866241Y51788633D01*
X40051006Y51887392D01*
X40251500Y51948211D01*
X40407749Y51963600D01*
X40512251Y51963600D01*
X40668500Y51948211D01*
X40668500Y51948211D01*
G37*
G36*
X-28471500Y51948211D02*
G01*
X-28271006Y51887392D01*
X-28086241Y51788633D01*
X-28086238Y51788631D01*
X-28086237Y51788630D01*
X-27924282Y51655718D01*
X-27791370Y51493763D01*
X-27791367Y51493759D01*
X-27692608Y51308994D01*
X-27631789Y51108500D01*
X-27611254Y50900000D01*
X-27631789Y50691500D01*
X-27692608Y50491006D01*
X-27791367Y50306241D01*
X-27791369Y50306238D01*
X-27791370Y50306237D01*
X-27924282Y50144282D01*
X-28086237Y50011370D01*
X-28086241Y50011367D01*
X-28271006Y49912608D01*
X-28471500Y49851789D01*
X-28627749Y49836400D01*
X-28732251Y49836400D01*
X-28888500Y49851789D01*
X-29088994Y49912608D01*
X-29273759Y50011367D01*
X-29273763Y50011370D01*
X-29435718Y50144282D01*
X-29568630Y50306237D01*
X-29568631Y50306238D01*
X-29568633Y50306241D01*
X-29667392Y50491006D01*
X-29728211Y50691500D01*
X-29748746Y50900000D01*
X-29728211Y51108500D01*
X-29667392Y51308994D01*
X-29568633Y51493759D01*
X-29568630Y51493763D01*
X-29435718Y51655718D01*
X-29273763Y51788630D01*
X-29273762Y51788631D01*
X-29273759Y51788633D01*
X-29088994Y51887392D01*
X-28888500Y51948211D01*
X-28732251Y51963600D01*
X-28627749Y51963600D01*
X-28471500Y51948211D01*
X-28471500Y51948211D01*
G37*
G36*
X38128500Y51948211D02*
G01*
X38328994Y51887392D01*
X38513759Y51788633D01*
X38513762Y51788631D01*
X38513763Y51788630D01*
X38675718Y51655718D01*
X38808630Y51493763D01*
X38808633Y51493759D01*
X38907392Y51308994D01*
X38968211Y51108500D01*
X38988746Y50900000D01*
X38968211Y50691500D01*
X38907392Y50491006D01*
X38808633Y50306241D01*
X38808631Y50306238D01*
X38808630Y50306237D01*
X38675718Y50144282D01*
X38513763Y50011370D01*
X38513759Y50011367D01*
X38328994Y49912608D01*
X38128500Y49851789D01*
X37972251Y49836400D01*
X37867749Y49836400D01*
X37711500Y49851789D01*
X37511006Y49912608D01*
X37326241Y50011367D01*
X37326237Y50011370D01*
X37164282Y50144282D01*
X37031370Y50306237D01*
X37031369Y50306238D01*
X37031367Y50306241D01*
X36932608Y50491006D01*
X36871789Y50691500D01*
X36851254Y50900000D01*
X36871789Y51108500D01*
X36932608Y51308994D01*
X37031367Y51493759D01*
X37031370Y51493763D01*
X37164282Y51655718D01*
X37326237Y51788630D01*
X37326238Y51788631D01*
X37326241Y51788633D01*
X37511006Y51887392D01*
X37711500Y51948211D01*
X37867749Y51963600D01*
X37972251Y51963600D01*
X38128500Y51948211D01*
X38128500Y51948211D01*
G37*
G36*
X-25931500Y51948211D02*
G01*
X-25731006Y51887392D01*
X-25546241Y51788633D01*
X-25546238Y51788631D01*
X-25546237Y51788630D01*
X-25384282Y51655718D01*
X-25251370Y51493763D01*
X-25251367Y51493759D01*
X-25152608Y51308994D01*
X-25091789Y51108500D01*
X-25071254Y50900000D01*
X-25091789Y50691500D01*
X-25152608Y50491006D01*
X-25251367Y50306241D01*
X-25251369Y50306238D01*
X-25251370Y50306237D01*
X-25384282Y50144282D01*
X-25546237Y50011370D01*
X-25546241Y50011367D01*
X-25731006Y49912608D01*
X-25931500Y49851789D01*
X-26087749Y49836400D01*
X-26192251Y49836400D01*
X-26348500Y49851789D01*
X-26548994Y49912608D01*
X-26733759Y50011367D01*
X-26733763Y50011370D01*
X-26895718Y50144282D01*
X-27028630Y50306237D01*
X-27028631Y50306238D01*
X-27028633Y50306241D01*
X-27127392Y50491006D01*
X-27188211Y50691500D01*
X-27208746Y50900000D01*
X-27188211Y51108500D01*
X-27127392Y51308994D01*
X-27028633Y51493759D01*
X-27028630Y51493763D01*
X-26895718Y51655718D01*
X-26733763Y51788630D01*
X-26733762Y51788631D01*
X-26733759Y51788633D01*
X-26548994Y51887392D01*
X-26348500Y51948211D01*
X-26192251Y51963600D01*
X-26087749Y51963600D01*
X-25931500Y51948211D01*
X-25931500Y51948211D01*
G37*
G36*
X-23391500Y51948211D02*
G01*
X-23191006Y51887392D01*
X-23006241Y51788633D01*
X-23006238Y51788631D01*
X-23006237Y51788630D01*
X-22844282Y51655718D01*
X-22711370Y51493763D01*
X-22711367Y51493759D01*
X-22612608Y51308994D01*
X-22551789Y51108500D01*
X-22531254Y50900000D01*
X-22551789Y50691500D01*
X-22612608Y50491006D01*
X-22711367Y50306241D01*
X-22711369Y50306238D01*
X-22711370Y50306237D01*
X-22844282Y50144282D01*
X-23006237Y50011370D01*
X-23006241Y50011367D01*
X-23191006Y49912608D01*
X-23391500Y49851789D01*
X-23547749Y49836400D01*
X-23652251Y49836400D01*
X-23808500Y49851789D01*
X-24008994Y49912608D01*
X-24193759Y50011367D01*
X-24193763Y50011370D01*
X-24355718Y50144282D01*
X-24488630Y50306237D01*
X-24488631Y50306238D01*
X-24488633Y50306241D01*
X-24587392Y50491006D01*
X-24648211Y50691500D01*
X-24668746Y50900000D01*
X-24648211Y51108500D01*
X-24587392Y51308994D01*
X-24488633Y51493759D01*
X-24488630Y51493763D01*
X-24355718Y51655718D01*
X-24193763Y51788630D01*
X-24193762Y51788631D01*
X-24193759Y51788633D01*
X-24008994Y51887392D01*
X-23808500Y51948211D01*
X-23652251Y51963600D01*
X-23547749Y51963600D01*
X-23391500Y51948211D01*
X-23391500Y51948211D01*
G37*
G36*
X33048500Y51948211D02*
G01*
X33248994Y51887392D01*
X33433759Y51788633D01*
X33433762Y51788631D01*
X33433763Y51788630D01*
X33595718Y51655718D01*
X33728630Y51493763D01*
X33728633Y51493759D01*
X33827392Y51308994D01*
X33888211Y51108500D01*
X33908746Y50900000D01*
X33888211Y50691500D01*
X33827392Y50491006D01*
X33728633Y50306241D01*
X33728631Y50306238D01*
X33728630Y50306237D01*
X33595718Y50144282D01*
X33433763Y50011370D01*
X33433759Y50011367D01*
X33248994Y49912608D01*
X33048500Y49851789D01*
X32892251Y49836400D01*
X32787749Y49836400D01*
X32631500Y49851789D01*
X32431006Y49912608D01*
X32246241Y50011367D01*
X32246237Y50011370D01*
X32084282Y50144282D01*
X31951370Y50306237D01*
X31951369Y50306238D01*
X31951367Y50306241D01*
X31852608Y50491006D01*
X31791789Y50691500D01*
X31771254Y50900000D01*
X31791789Y51108500D01*
X31852608Y51308994D01*
X31951367Y51493759D01*
X31951370Y51493763D01*
X32084282Y51655718D01*
X32246237Y51788630D01*
X32246238Y51788631D01*
X32246241Y51788633D01*
X32431006Y51887392D01*
X32631500Y51948211D01*
X32787749Y51963600D01*
X32892251Y51963600D01*
X33048500Y51948211D01*
X33048500Y51948211D01*
G37*
G36*
X-20851500Y51948211D02*
G01*
X-20651006Y51887392D01*
X-20466241Y51788633D01*
X-20466238Y51788631D01*
X-20466237Y51788630D01*
X-20304282Y51655718D01*
X-20171370Y51493763D01*
X-20171367Y51493759D01*
X-20072608Y51308994D01*
X-20011789Y51108500D01*
X-19991254Y50900000D01*
X-20011789Y50691500D01*
X-20072608Y50491006D01*
X-20171367Y50306241D01*
X-20171369Y50306238D01*
X-20171370Y50306237D01*
X-20304282Y50144282D01*
X-20466237Y50011370D01*
X-20466241Y50011367D01*
X-20651006Y49912608D01*
X-20851500Y49851789D01*
X-21007749Y49836400D01*
X-21112251Y49836400D01*
X-21268500Y49851789D01*
X-21468994Y49912608D01*
X-21653759Y50011367D01*
X-21653763Y50011370D01*
X-21815718Y50144282D01*
X-21948630Y50306237D01*
X-21948631Y50306238D01*
X-21948633Y50306241D01*
X-22047392Y50491006D01*
X-22108211Y50691500D01*
X-22128746Y50900000D01*
X-22108211Y51108500D01*
X-22047392Y51308994D01*
X-21948633Y51493759D01*
X-21948630Y51493763D01*
X-21815718Y51655718D01*
X-21653763Y51788630D01*
X-21653762Y51788631D01*
X-21653759Y51788633D01*
X-21468994Y51887392D01*
X-21268500Y51948211D01*
X-21112251Y51963600D01*
X-21007749Y51963600D01*
X-20851500Y51948211D01*
X-20851500Y51948211D01*
G37*
G36*
X30508500Y51948211D02*
G01*
X30708994Y51887392D01*
X30893759Y51788633D01*
X30893762Y51788631D01*
X30893763Y51788630D01*
X31055718Y51655718D01*
X31188630Y51493763D01*
X31188633Y51493759D01*
X31287392Y51308994D01*
X31348211Y51108500D01*
X31368746Y50900000D01*
X31348211Y50691500D01*
X31287392Y50491006D01*
X31188633Y50306241D01*
X31188631Y50306238D01*
X31188630Y50306237D01*
X31055718Y50144282D01*
X30893763Y50011370D01*
X30893759Y50011367D01*
X30708994Y49912608D01*
X30508500Y49851789D01*
X30352251Y49836400D01*
X30247749Y49836400D01*
X30091500Y49851789D01*
X29891006Y49912608D01*
X29706241Y50011367D01*
X29706237Y50011370D01*
X29544282Y50144282D01*
X29411370Y50306237D01*
X29411369Y50306238D01*
X29411367Y50306241D01*
X29312608Y50491006D01*
X29251789Y50691500D01*
X29231254Y50900000D01*
X29251789Y51108500D01*
X29312608Y51308994D01*
X29411367Y51493759D01*
X29411370Y51493763D01*
X29544282Y51655718D01*
X29706237Y51788630D01*
X29706238Y51788631D01*
X29706241Y51788633D01*
X29891006Y51887392D01*
X30091500Y51948211D01*
X30247749Y51963600D01*
X30352251Y51963600D01*
X30508500Y51948211D01*
X30508500Y51948211D01*
G37*
G36*
X-18311500Y51948211D02*
G01*
X-18111006Y51887392D01*
X-17926241Y51788633D01*
X-17926238Y51788631D01*
X-17926237Y51788630D01*
X-17764282Y51655718D01*
X-17631370Y51493763D01*
X-17631367Y51493759D01*
X-17532608Y51308994D01*
X-17471789Y51108500D01*
X-17451254Y50900000D01*
X-17471789Y50691500D01*
X-17532608Y50491006D01*
X-17631367Y50306241D01*
X-17631369Y50306238D01*
X-17631370Y50306237D01*
X-17764282Y50144282D01*
X-17926237Y50011370D01*
X-17926241Y50011367D01*
X-18111006Y49912608D01*
X-18311500Y49851789D01*
X-18467749Y49836400D01*
X-18572251Y49836400D01*
X-18728500Y49851789D01*
X-18928994Y49912608D01*
X-19113759Y50011367D01*
X-19113763Y50011370D01*
X-19275718Y50144282D01*
X-19408630Y50306237D01*
X-19408631Y50306238D01*
X-19408633Y50306241D01*
X-19507392Y50491006D01*
X-19568211Y50691500D01*
X-19588746Y50900000D01*
X-19568211Y51108500D01*
X-19507392Y51308994D01*
X-19408633Y51493759D01*
X-19408630Y51493763D01*
X-19275718Y51655718D01*
X-19113763Y51788630D01*
X-19113762Y51788631D01*
X-19113759Y51788633D01*
X-18928994Y51887392D01*
X-18728500Y51948211D01*
X-18572251Y51963600D01*
X-18467749Y51963600D01*
X-18311500Y51948211D01*
X-18311500Y51948211D01*
G37*
G36*
X27968500Y51948211D02*
G01*
X28168994Y51887392D01*
X28353759Y51788633D01*
X28353762Y51788631D01*
X28353763Y51788630D01*
X28515718Y51655718D01*
X28648630Y51493763D01*
X28648633Y51493759D01*
X28747392Y51308994D01*
X28808211Y51108500D01*
X28828746Y50900000D01*
X28808211Y50691500D01*
X28747392Y50491006D01*
X28648633Y50306241D01*
X28648631Y50306238D01*
X28648630Y50306237D01*
X28515718Y50144282D01*
X28353763Y50011370D01*
X28353759Y50011367D01*
X28168994Y49912608D01*
X27968500Y49851789D01*
X27812251Y49836400D01*
X27707749Y49836400D01*
X27551500Y49851789D01*
X27351006Y49912608D01*
X27166241Y50011367D01*
X27166237Y50011370D01*
X27004282Y50144282D01*
X26871370Y50306237D01*
X26871369Y50306238D01*
X26871367Y50306241D01*
X26772608Y50491006D01*
X26711789Y50691500D01*
X26691254Y50900000D01*
X26711789Y51108500D01*
X26772608Y51308994D01*
X26871367Y51493759D01*
X26871370Y51493763D01*
X27004282Y51655718D01*
X27166237Y51788630D01*
X27166238Y51788631D01*
X27166241Y51788633D01*
X27351006Y51887392D01*
X27551500Y51948211D01*
X27707749Y51963600D01*
X27812251Y51963600D01*
X27968500Y51948211D01*
X27968500Y51948211D01*
G37*
G36*
X-15771500Y51948211D02*
G01*
X-15571006Y51887392D01*
X-15386241Y51788633D01*
X-15386238Y51788631D01*
X-15386237Y51788630D01*
X-15224282Y51655718D01*
X-15091370Y51493763D01*
X-15091367Y51493759D01*
X-14992608Y51308994D01*
X-14931789Y51108500D01*
X-14911254Y50900000D01*
X-14931789Y50691500D01*
X-14992608Y50491006D01*
X-15091367Y50306241D01*
X-15091369Y50306238D01*
X-15091370Y50306237D01*
X-15224282Y50144282D01*
X-15386237Y50011370D01*
X-15386241Y50011367D01*
X-15571006Y49912608D01*
X-15771500Y49851789D01*
X-15927749Y49836400D01*
X-16032251Y49836400D01*
X-16188500Y49851789D01*
X-16388994Y49912608D01*
X-16573759Y50011367D01*
X-16573763Y50011370D01*
X-16735718Y50144282D01*
X-16868630Y50306237D01*
X-16868631Y50306238D01*
X-16868633Y50306241D01*
X-16967392Y50491006D01*
X-17028211Y50691500D01*
X-17048746Y50900000D01*
X-17028211Y51108500D01*
X-16967392Y51308994D01*
X-16868633Y51493759D01*
X-16868630Y51493763D01*
X-16735718Y51655718D01*
X-16573763Y51788630D01*
X-16573762Y51788631D01*
X-16573759Y51788633D01*
X-16388994Y51887392D01*
X-16188500Y51948211D01*
X-16032251Y51963600D01*
X-15927749Y51963600D01*
X-15771500Y51948211D01*
X-15771500Y51948211D01*
G37*
G36*
X25428500Y51948211D02*
G01*
X25628994Y51887392D01*
X25813759Y51788633D01*
X25813762Y51788631D01*
X25813763Y51788630D01*
X25975718Y51655718D01*
X26108630Y51493763D01*
X26108633Y51493759D01*
X26207392Y51308994D01*
X26268211Y51108500D01*
X26288746Y50900000D01*
X26268211Y50691500D01*
X26207392Y50491006D01*
X26108633Y50306241D01*
X26108631Y50306238D01*
X26108630Y50306237D01*
X25975718Y50144282D01*
X25813763Y50011370D01*
X25813759Y50011367D01*
X25628994Y49912608D01*
X25428500Y49851789D01*
X25272251Y49836400D01*
X25167749Y49836400D01*
X25011500Y49851789D01*
X24811006Y49912608D01*
X24626241Y50011367D01*
X24626237Y50011370D01*
X24464282Y50144282D01*
X24331370Y50306237D01*
X24331369Y50306238D01*
X24331367Y50306241D01*
X24232608Y50491006D01*
X24171789Y50691500D01*
X24151254Y50900000D01*
X24171789Y51108500D01*
X24232608Y51308994D01*
X24331367Y51493759D01*
X24331370Y51493763D01*
X24464282Y51655718D01*
X24626237Y51788630D01*
X24626238Y51788631D01*
X24626241Y51788633D01*
X24811006Y51887392D01*
X25011500Y51948211D01*
X25167749Y51963600D01*
X25272251Y51963600D01*
X25428500Y51948211D01*
X25428500Y51948211D01*
G37*
G36*
X-13231500Y51948211D02*
G01*
X-13031006Y51887392D01*
X-12846241Y51788633D01*
X-12846238Y51788631D01*
X-12846237Y51788630D01*
X-12684282Y51655718D01*
X-12551370Y51493763D01*
X-12551367Y51493759D01*
X-12452608Y51308994D01*
X-12391789Y51108500D01*
X-12371254Y50900000D01*
X-12391789Y50691500D01*
X-12452608Y50491006D01*
X-12551367Y50306241D01*
X-12551369Y50306238D01*
X-12551370Y50306237D01*
X-12684282Y50144282D01*
X-12846237Y50011370D01*
X-12846241Y50011367D01*
X-13031006Y49912608D01*
X-13231500Y49851789D01*
X-13387749Y49836400D01*
X-13492251Y49836400D01*
X-13648500Y49851789D01*
X-13848994Y49912608D01*
X-14033759Y50011367D01*
X-14033763Y50011370D01*
X-14195718Y50144282D01*
X-14328630Y50306237D01*
X-14328631Y50306238D01*
X-14328633Y50306241D01*
X-14427392Y50491006D01*
X-14488211Y50691500D01*
X-14508746Y50900000D01*
X-14488211Y51108500D01*
X-14427392Y51308994D01*
X-14328633Y51493759D01*
X-14328630Y51493763D01*
X-14195718Y51655718D01*
X-14033763Y51788630D01*
X-14033762Y51788631D01*
X-14033759Y51788633D01*
X-13848994Y51887392D01*
X-13648500Y51948211D01*
X-13492251Y51963600D01*
X-13387749Y51963600D01*
X-13231500Y51948211D01*
X-13231500Y51948211D01*
G37*
G36*
X22888500Y51948211D02*
G01*
X23088994Y51887392D01*
X23273759Y51788633D01*
X23273762Y51788631D01*
X23273763Y51788630D01*
X23435718Y51655718D01*
X23568630Y51493763D01*
X23568633Y51493759D01*
X23667392Y51308994D01*
X23728211Y51108500D01*
X23748746Y50900000D01*
X23728211Y50691500D01*
X23667392Y50491006D01*
X23568633Y50306241D01*
X23568631Y50306238D01*
X23568630Y50306237D01*
X23435718Y50144282D01*
X23273763Y50011370D01*
X23273759Y50011367D01*
X23088994Y49912608D01*
X22888500Y49851789D01*
X22732251Y49836400D01*
X22627749Y49836400D01*
X22471500Y49851789D01*
X22271006Y49912608D01*
X22086241Y50011367D01*
X22086237Y50011370D01*
X21924282Y50144282D01*
X21791370Y50306237D01*
X21791369Y50306238D01*
X21791367Y50306241D01*
X21692608Y50491006D01*
X21631789Y50691500D01*
X21611254Y50900000D01*
X21631789Y51108500D01*
X21692608Y51308994D01*
X21791367Y51493759D01*
X21791370Y51493763D01*
X21924282Y51655718D01*
X22086237Y51788630D01*
X22086238Y51788631D01*
X22086241Y51788633D01*
X22271006Y51887392D01*
X22471500Y51948211D01*
X22627749Y51963600D01*
X22732251Y51963600D01*
X22888500Y51948211D01*
X22888500Y51948211D01*
G37*
G36*
X-10691500Y51948211D02*
G01*
X-10491006Y51887392D01*
X-10306241Y51788633D01*
X-10306238Y51788631D01*
X-10306237Y51788630D01*
X-10144282Y51655718D01*
X-10011370Y51493763D01*
X-10011367Y51493759D01*
X-9912608Y51308994D01*
X-9851789Y51108500D01*
X-9831254Y50900000D01*
X-9851789Y50691500D01*
X-9912608Y50491006D01*
X-10011367Y50306241D01*
X-10011369Y50306238D01*
X-10011370Y50306237D01*
X-10144282Y50144282D01*
X-10306237Y50011370D01*
X-10306241Y50011367D01*
X-10491006Y49912608D01*
X-10691500Y49851789D01*
X-10847749Y49836400D01*
X-10952251Y49836400D01*
X-11108500Y49851789D01*
X-11308994Y49912608D01*
X-11493759Y50011367D01*
X-11493763Y50011370D01*
X-11655718Y50144282D01*
X-11788630Y50306237D01*
X-11788631Y50306238D01*
X-11788633Y50306241D01*
X-11887392Y50491006D01*
X-11948211Y50691500D01*
X-11968746Y50900000D01*
X-11948211Y51108500D01*
X-11887392Y51308994D01*
X-11788633Y51493759D01*
X-11788630Y51493763D01*
X-11655718Y51655718D01*
X-11493763Y51788630D01*
X-11493762Y51788631D01*
X-11493759Y51788633D01*
X-11308994Y51887392D01*
X-11108500Y51948211D01*
X-10952251Y51963600D01*
X-10847749Y51963600D01*
X-10691500Y51948211D01*
X-10691500Y51948211D01*
G37*
G36*
X20348500Y51948211D02*
G01*
X20548994Y51887392D01*
X20733759Y51788633D01*
X20733762Y51788631D01*
X20733763Y51788630D01*
X20895718Y51655718D01*
X21028630Y51493763D01*
X21028633Y51493759D01*
X21127392Y51308994D01*
X21188211Y51108500D01*
X21208746Y50900000D01*
X21188211Y50691500D01*
X21127392Y50491006D01*
X21028633Y50306241D01*
X21028631Y50306238D01*
X21028630Y50306237D01*
X20895718Y50144282D01*
X20733763Y50011370D01*
X20733759Y50011367D01*
X20548994Y49912608D01*
X20348500Y49851789D01*
X20192251Y49836400D01*
X20087749Y49836400D01*
X19931500Y49851789D01*
X19731006Y49912608D01*
X19546241Y50011367D01*
X19546237Y50011370D01*
X19384282Y50144282D01*
X19251370Y50306237D01*
X19251369Y50306238D01*
X19251367Y50306241D01*
X19152608Y50491006D01*
X19091789Y50691500D01*
X19071254Y50900000D01*
X19091789Y51108500D01*
X19152608Y51308994D01*
X19251367Y51493759D01*
X19251370Y51493763D01*
X19384282Y51655718D01*
X19546237Y51788630D01*
X19546238Y51788631D01*
X19546241Y51788633D01*
X19731006Y51887392D01*
X19931500Y51948211D01*
X20087749Y51963600D01*
X20192251Y51963600D01*
X20348500Y51948211D01*
X20348500Y51948211D01*
G37*
G36*
X-8151500Y51948211D02*
G01*
X-7951006Y51887392D01*
X-7766241Y51788633D01*
X-7766238Y51788631D01*
X-7766237Y51788630D01*
X-7604282Y51655718D01*
X-7471370Y51493763D01*
X-7471367Y51493759D01*
X-7372608Y51308994D01*
X-7311789Y51108500D01*
X-7291254Y50900000D01*
X-7311789Y50691500D01*
X-7372608Y50491006D01*
X-7471367Y50306241D01*
X-7471369Y50306238D01*
X-7471370Y50306237D01*
X-7604282Y50144282D01*
X-7766237Y50011370D01*
X-7766241Y50011367D01*
X-7951006Y49912608D01*
X-8151500Y49851789D01*
X-8307749Y49836400D01*
X-8412251Y49836400D01*
X-8568500Y49851789D01*
X-8768994Y49912608D01*
X-8953759Y50011367D01*
X-8953763Y50011370D01*
X-9115718Y50144282D01*
X-9248630Y50306237D01*
X-9248631Y50306238D01*
X-9248633Y50306241D01*
X-9347392Y50491006D01*
X-9408211Y50691500D01*
X-9428746Y50900000D01*
X-9408211Y51108500D01*
X-9347392Y51308994D01*
X-9248633Y51493759D01*
X-9248630Y51493763D01*
X-9115718Y51655718D01*
X-8953763Y51788630D01*
X-8953762Y51788631D01*
X-8953759Y51788633D01*
X-8768994Y51887392D01*
X-8568500Y51948211D01*
X-8412251Y51963600D01*
X-8307749Y51963600D01*
X-8151500Y51948211D01*
X-8151500Y51948211D01*
G37*
G36*
X17808500Y51948211D02*
G01*
X18008994Y51887392D01*
X18193759Y51788633D01*
X18193762Y51788631D01*
X18193763Y51788630D01*
X18355718Y51655718D01*
X18488630Y51493763D01*
X18488633Y51493759D01*
X18587392Y51308994D01*
X18648211Y51108500D01*
X18668746Y50900000D01*
X18648211Y50691500D01*
X18587392Y50491006D01*
X18488633Y50306241D01*
X18488631Y50306238D01*
X18488630Y50306237D01*
X18355718Y50144282D01*
X18193763Y50011370D01*
X18193759Y50011367D01*
X18008994Y49912608D01*
X17808500Y49851789D01*
X17652251Y49836400D01*
X17547749Y49836400D01*
X17391500Y49851789D01*
X17191006Y49912608D01*
X17006241Y50011367D01*
X17006237Y50011370D01*
X16844282Y50144282D01*
X16711370Y50306237D01*
X16711369Y50306238D01*
X16711367Y50306241D01*
X16612608Y50491006D01*
X16551789Y50691500D01*
X16531254Y50900000D01*
X16551789Y51108500D01*
X16612608Y51308994D01*
X16711367Y51493759D01*
X16711370Y51493763D01*
X16844282Y51655718D01*
X17006237Y51788630D01*
X17006238Y51788631D01*
X17006241Y51788633D01*
X17191006Y51887392D01*
X17391500Y51948211D01*
X17547749Y51963600D01*
X17652251Y51963600D01*
X17808500Y51948211D01*
X17808500Y51948211D01*
G37*
G36*
X-5611500Y51948211D02*
G01*
X-5411006Y51887392D01*
X-5226241Y51788633D01*
X-5226238Y51788631D01*
X-5226237Y51788630D01*
X-5064282Y51655718D01*
X-4931370Y51493763D01*
X-4931367Y51493759D01*
X-4832608Y51308994D01*
X-4771789Y51108500D01*
X-4751254Y50900000D01*
X-4771789Y50691500D01*
X-4832608Y50491006D01*
X-4931367Y50306241D01*
X-4931369Y50306238D01*
X-4931370Y50306237D01*
X-5064282Y50144282D01*
X-5226237Y50011370D01*
X-5226241Y50011367D01*
X-5411006Y49912608D01*
X-5611500Y49851789D01*
X-5767749Y49836400D01*
X-5872251Y49836400D01*
X-6028500Y49851789D01*
X-6228994Y49912608D01*
X-6413759Y50011367D01*
X-6413763Y50011370D01*
X-6575718Y50144282D01*
X-6708630Y50306237D01*
X-6708631Y50306238D01*
X-6708633Y50306241D01*
X-6807392Y50491006D01*
X-6868211Y50691500D01*
X-6888746Y50900000D01*
X-6868211Y51108500D01*
X-6807392Y51308994D01*
X-6708633Y51493759D01*
X-6708630Y51493763D01*
X-6575718Y51655718D01*
X-6413763Y51788630D01*
X-6413762Y51788631D01*
X-6413759Y51788633D01*
X-6228994Y51887392D01*
X-6028500Y51948211D01*
X-5872251Y51963600D01*
X-5767749Y51963600D01*
X-5611500Y51948211D01*
X-5611500Y51948211D01*
G37*
G36*
X15268500Y51948211D02*
G01*
X15468994Y51887392D01*
X15653759Y51788633D01*
X15653762Y51788631D01*
X15653763Y51788630D01*
X15815718Y51655718D01*
X15948630Y51493763D01*
X15948633Y51493759D01*
X16047392Y51308994D01*
X16108211Y51108500D01*
X16128746Y50900000D01*
X16108211Y50691500D01*
X16047392Y50491006D01*
X15948633Y50306241D01*
X15948631Y50306238D01*
X15948630Y50306237D01*
X15815718Y50144282D01*
X15653763Y50011370D01*
X15653759Y50011367D01*
X15468994Y49912608D01*
X15268500Y49851789D01*
X15112251Y49836400D01*
X15007749Y49836400D01*
X14851500Y49851789D01*
X14651006Y49912608D01*
X14466241Y50011367D01*
X14466237Y50011370D01*
X14304282Y50144282D01*
X14171370Y50306237D01*
X14171369Y50306238D01*
X14171367Y50306241D01*
X14072608Y50491006D01*
X14011789Y50691500D01*
X13991254Y50900000D01*
X14011789Y51108500D01*
X14072608Y51308994D01*
X14171367Y51493759D01*
X14171370Y51493763D01*
X14304282Y51655718D01*
X14466237Y51788630D01*
X14466238Y51788631D01*
X14466241Y51788633D01*
X14651006Y51887392D01*
X14851500Y51948211D01*
X15007749Y51963600D01*
X15112251Y51963600D01*
X15268500Y51948211D01*
X15268500Y51948211D01*
G37*
G36*
X-3071500Y51948211D02*
G01*
X-2871006Y51887392D01*
X-2686241Y51788633D01*
X-2686238Y51788631D01*
X-2686237Y51788630D01*
X-2524282Y51655718D01*
X-2391370Y51493763D01*
X-2391367Y51493759D01*
X-2292608Y51308994D01*
X-2231789Y51108500D01*
X-2211254Y50900000D01*
X-2231789Y50691500D01*
X-2292608Y50491006D01*
X-2391367Y50306241D01*
X-2391369Y50306238D01*
X-2391370Y50306237D01*
X-2524282Y50144282D01*
X-2686237Y50011370D01*
X-2686241Y50011367D01*
X-2871006Y49912608D01*
X-3071500Y49851789D01*
X-3227749Y49836400D01*
X-3332251Y49836400D01*
X-3488500Y49851789D01*
X-3688994Y49912608D01*
X-3873759Y50011367D01*
X-3873763Y50011370D01*
X-4035718Y50144282D01*
X-4168630Y50306237D01*
X-4168631Y50306238D01*
X-4168633Y50306241D01*
X-4267392Y50491006D01*
X-4328211Y50691500D01*
X-4348746Y50900000D01*
X-4328211Y51108500D01*
X-4267392Y51308994D01*
X-4168633Y51493759D01*
X-4168630Y51493763D01*
X-4035718Y51655718D01*
X-3873763Y51788630D01*
X-3873762Y51788631D01*
X-3873759Y51788633D01*
X-3688994Y51887392D01*
X-3488500Y51948211D01*
X-3332251Y51963600D01*
X-3227749Y51963600D01*
X-3071500Y51948211D01*
X-3071500Y51948211D01*
G37*
G36*
X12728500Y51948211D02*
G01*
X12928994Y51887392D01*
X13113759Y51788633D01*
X13113762Y51788631D01*
X13113763Y51788630D01*
X13275718Y51655718D01*
X13408630Y51493763D01*
X13408633Y51493759D01*
X13507392Y51308994D01*
X13568211Y51108500D01*
X13588746Y50900000D01*
X13568211Y50691500D01*
X13507392Y50491006D01*
X13408633Y50306241D01*
X13408631Y50306238D01*
X13408630Y50306237D01*
X13275718Y50144282D01*
X13113763Y50011370D01*
X13113759Y50011367D01*
X12928994Y49912608D01*
X12728500Y49851789D01*
X12572251Y49836400D01*
X12467749Y49836400D01*
X12311500Y49851789D01*
X12111006Y49912608D01*
X11926241Y50011367D01*
X11926237Y50011370D01*
X11764282Y50144282D01*
X11631370Y50306237D01*
X11631369Y50306238D01*
X11631367Y50306241D01*
X11532608Y50491006D01*
X11471789Y50691500D01*
X11451254Y50900000D01*
X11471789Y51108500D01*
X11532608Y51308994D01*
X11631367Y51493759D01*
X11631370Y51493763D01*
X11764282Y51655718D01*
X11926237Y51788630D01*
X11926238Y51788631D01*
X11926241Y51788633D01*
X12111006Y51887392D01*
X12311500Y51948211D01*
X12467749Y51963600D01*
X12572251Y51963600D01*
X12728500Y51948211D01*
X12728500Y51948211D01*
G37*
G36*
X-531500Y51948211D02*
G01*
X-331006Y51887392D01*
X-146241Y51788633D01*
X-146238Y51788631D01*
X-146237Y51788630D01*
X15718Y51655718D01*
X148630Y51493763D01*
X148633Y51493759D01*
X247392Y51308994D01*
X308211Y51108500D01*
X328746Y50900000D01*
X308211Y50691500D01*
X247392Y50491006D01*
X148633Y50306241D01*
X148631Y50306238D01*
X148630Y50306237D01*
X15718Y50144282D01*
X-146237Y50011370D01*
X-146241Y50011367D01*
X-331006Y49912608D01*
X-531500Y49851789D01*
X-687749Y49836400D01*
X-792251Y49836400D01*
X-948500Y49851789D01*
X-1148994Y49912608D01*
X-1333759Y50011367D01*
X-1333763Y50011370D01*
X-1495718Y50144282D01*
X-1628630Y50306237D01*
X-1628631Y50306238D01*
X-1628633Y50306241D01*
X-1727392Y50491006D01*
X-1788211Y50691500D01*
X-1808746Y50900000D01*
X-1788211Y51108500D01*
X-1727392Y51308994D01*
X-1628633Y51493759D01*
X-1628630Y51493763D01*
X-1495718Y51655718D01*
X-1333763Y51788630D01*
X-1333762Y51788631D01*
X-1333759Y51788633D01*
X-1148994Y51887392D01*
X-948500Y51948211D01*
X-792251Y51963600D01*
X-687749Y51963600D01*
X-531500Y51948211D01*
X-531500Y51948211D01*
G37*
G36*
X2863600Y49836400D02*
G01*
X736400Y49836400D01*
X736400Y51963600D01*
X2863600Y51963600D01*
X2863600Y49836400D01*
X2863600Y49836400D01*
G37*
G36*
X225810240Y53062727D02*
G01*
X226003802Y52982551D01*
X226178005Y52866152D01*
X226326152Y52718005D01*
X226442551Y52543802D01*
X226522727Y52350240D01*
X226563600Y52144757D01*
X226563600Y51935243D01*
X226522727Y51729760D01*
X226442551Y51536198D01*
X226326152Y51361995D01*
X226178005Y51213848D01*
X226003802Y51097449D01*
X225810240Y51017273D01*
X225604757Y50976400D01*
X225395243Y50976400D01*
X225189760Y51017273D01*
X224996198Y51097449D01*
X224821995Y51213848D01*
X224673848Y51361995D01*
X224557449Y51536198D01*
X224477273Y51729760D01*
X224436400Y51935243D01*
X224436400Y52144757D01*
X224477273Y52350240D01*
X224557449Y52543802D01*
X224673848Y52718005D01*
X224821995Y52866152D01*
X224996198Y52982551D01*
X225189760Y53062727D01*
X225395243Y53103600D01*
X225604757Y53103600D01*
X225810240Y53062727D01*
X225810240Y53062727D01*
G37*
G36*
X243590240Y53062727D02*
G01*
X243783802Y52982551D01*
X243958005Y52866152D01*
X244106152Y52718005D01*
X244222551Y52543802D01*
X244302727Y52350240D01*
X244343600Y52144757D01*
X244343600Y51935243D01*
X244302727Y51729760D01*
X244222551Y51536198D01*
X244106152Y51361995D01*
X243958005Y51213848D01*
X243783802Y51097449D01*
X243590240Y51017273D01*
X243384757Y50976400D01*
X243175243Y50976400D01*
X242969760Y51017273D01*
X242776198Y51097449D01*
X242601995Y51213848D01*
X242453848Y51361995D01*
X242337449Y51536198D01*
X242257273Y51729760D01*
X242216400Y51935243D01*
X242216400Y52144757D01*
X242257273Y52350240D01*
X242337449Y52543802D01*
X242453848Y52718005D01*
X242601995Y52866152D01*
X242776198Y52982551D01*
X242969760Y53062727D01*
X243175243Y53103600D01*
X243384757Y53103600D01*
X243590240Y53062727D01*
X243590240Y53062727D01*
G37*
G36*
X241050240Y53062727D02*
G01*
X241243802Y52982551D01*
X241418005Y52866152D01*
X241566152Y52718005D01*
X241682551Y52543802D01*
X241762727Y52350240D01*
X241803600Y52144757D01*
X241803600Y51935243D01*
X241762727Y51729760D01*
X241682551Y51536198D01*
X241566152Y51361995D01*
X241418005Y51213848D01*
X241243802Y51097449D01*
X241050240Y51017273D01*
X240844757Y50976400D01*
X240635243Y50976400D01*
X240429760Y51017273D01*
X240236198Y51097449D01*
X240061995Y51213848D01*
X239913848Y51361995D01*
X239797449Y51536198D01*
X239717273Y51729760D01*
X239676400Y51935243D01*
X239676400Y52144757D01*
X239717273Y52350240D01*
X239797449Y52543802D01*
X239913848Y52718005D01*
X240061995Y52866152D01*
X240236198Y52982551D01*
X240429760Y53062727D01*
X240635243Y53103600D01*
X240844757Y53103600D01*
X241050240Y53062727D01*
X241050240Y53062727D01*
G37*
G36*
X238510240Y53062727D02*
G01*
X238703802Y52982551D01*
X238878005Y52866152D01*
X239026152Y52718005D01*
X239142551Y52543802D01*
X239222727Y52350240D01*
X239263600Y52144757D01*
X239263600Y51935243D01*
X239222727Y51729760D01*
X239142551Y51536198D01*
X239026152Y51361995D01*
X238878005Y51213848D01*
X238703802Y51097449D01*
X238510240Y51017273D01*
X238304757Y50976400D01*
X238095243Y50976400D01*
X237889760Y51017273D01*
X237696198Y51097449D01*
X237521995Y51213848D01*
X237373848Y51361995D01*
X237257449Y51536198D01*
X237177273Y51729760D01*
X237136400Y51935243D01*
X237136400Y52144757D01*
X237177273Y52350240D01*
X237257449Y52543802D01*
X237373848Y52718005D01*
X237521995Y52866152D01*
X237696198Y52982551D01*
X237889760Y53062727D01*
X238095243Y53103600D01*
X238304757Y53103600D01*
X238510240Y53062727D01*
X238510240Y53062727D01*
G37*
G36*
X228350240Y53062727D02*
G01*
X228543802Y52982551D01*
X228718005Y52866152D01*
X228866152Y52718005D01*
X228982551Y52543802D01*
X229062727Y52350240D01*
X229103600Y52144757D01*
X229103600Y51935243D01*
X229062727Y51729760D01*
X228982551Y51536198D01*
X228866152Y51361995D01*
X228718005Y51213848D01*
X228543802Y51097449D01*
X228350240Y51017273D01*
X228144757Y50976400D01*
X227935243Y50976400D01*
X227729760Y51017273D01*
X227536198Y51097449D01*
X227361995Y51213848D01*
X227213848Y51361995D01*
X227097449Y51536198D01*
X227017273Y51729760D01*
X226976400Y51935243D01*
X226976400Y52144757D01*
X227017273Y52350240D01*
X227097449Y52543802D01*
X227213848Y52718005D01*
X227361995Y52866152D01*
X227536198Y52982551D01*
X227729760Y53062727D01*
X227935243Y53103600D01*
X228144757Y53103600D01*
X228350240Y53062727D01*
X228350240Y53062727D01*
G37*
G36*
X230890240Y53062727D02*
G01*
X231083802Y52982551D01*
X231258005Y52866152D01*
X231406152Y52718005D01*
X231522551Y52543802D01*
X231602727Y52350240D01*
X231643600Y52144757D01*
X231643600Y51935243D01*
X231602727Y51729760D01*
X231522551Y51536198D01*
X231406152Y51361995D01*
X231258005Y51213848D01*
X231083802Y51097449D01*
X230890240Y51017273D01*
X230684757Y50976400D01*
X230475243Y50976400D01*
X230269760Y51017273D01*
X230076198Y51097449D01*
X229901995Y51213848D01*
X229753848Y51361995D01*
X229637449Y51536198D01*
X229557273Y51729760D01*
X229516400Y51935243D01*
X229516400Y52144757D01*
X229557273Y52350240D01*
X229637449Y52543802D01*
X229753848Y52718005D01*
X229901995Y52866152D01*
X230076198Y52982551D01*
X230269760Y53062727D01*
X230475243Y53103600D01*
X230684757Y53103600D01*
X230890240Y53062727D01*
X230890240Y53062727D01*
G37*
G36*
X233430240Y53062727D02*
G01*
X233623802Y52982551D01*
X233798005Y52866152D01*
X233946152Y52718005D01*
X234062551Y52543802D01*
X234142727Y52350240D01*
X234183600Y52144757D01*
X234183600Y51935243D01*
X234142727Y51729760D01*
X234062551Y51536198D01*
X233946152Y51361995D01*
X233798005Y51213848D01*
X233623802Y51097449D01*
X233430240Y51017273D01*
X233224757Y50976400D01*
X233015243Y50976400D01*
X232809760Y51017273D01*
X232616198Y51097449D01*
X232441995Y51213848D01*
X232293848Y51361995D01*
X232177449Y51536198D01*
X232097273Y51729760D01*
X232056400Y51935243D01*
X232056400Y52144757D01*
X232097273Y52350240D01*
X232177449Y52543802D01*
X232293848Y52718005D01*
X232441995Y52866152D01*
X232616198Y52982551D01*
X232809760Y53062727D01*
X233015243Y53103600D01*
X233224757Y53103600D01*
X233430240Y53062727D01*
X233430240Y53062727D01*
G37*
G36*
X235970240Y53062727D02*
G01*
X236163802Y52982551D01*
X236338005Y52866152D01*
X236486152Y52718005D01*
X236602551Y52543802D01*
X236682727Y52350240D01*
X236723600Y52144757D01*
X236723600Y51935243D01*
X236682727Y51729760D01*
X236602551Y51536198D01*
X236486152Y51361995D01*
X236338005Y51213848D01*
X236163802Y51097449D01*
X235970240Y51017273D01*
X235764757Y50976400D01*
X235555243Y50976400D01*
X235349760Y51017273D01*
X235156198Y51097449D01*
X234981995Y51213848D01*
X234833848Y51361995D01*
X234717449Y51536198D01*
X234637273Y51729760D01*
X234596400Y51935243D01*
X234596400Y52144757D01*
X234637273Y52350240D01*
X234717449Y52543802D01*
X234833848Y52718005D01*
X234981995Y52866152D01*
X235156198Y52982551D01*
X235349760Y53062727D01*
X235555243Y53103600D01*
X235764757Y53103600D01*
X235970240Y53062727D01*
X235970240Y53062727D01*
G37*
G36*
X230240000Y56850000D02*
G01*
X228840000Y56850000D01*
X228840000Y58850000D01*
X230240000Y58850000D01*
X230240000Y56850000D01*
X230240000Y56850000D01*
G37*
G36*
X225160000Y56850000D02*
G01*
X223760000Y56850000D01*
X223760000Y58850000D01*
X225160000Y58850000D01*
X225160000Y56850000D01*
X225160000Y56850000D01*
G37*
G36*
X207240000Y56850000D02*
G01*
X205840000Y56850000D01*
X205840000Y58850000D01*
X207240000Y58850000D01*
X207240000Y56850000D01*
X207240000Y56850000D01*
G37*
G36*
X204700000Y56850000D02*
G01*
X203300000Y56850000D01*
X203300000Y58850000D01*
X204700000Y58850000D01*
X204700000Y56850000D01*
X204700000Y56850000D01*
G37*
G36*
X202160000Y56850000D02*
G01*
X200760000Y56850000D01*
X200760000Y58850000D01*
X202160000Y58850000D01*
X202160000Y56850000D01*
X202160000Y56850000D01*
G37*
G36*
X227700000Y56850000D02*
G01*
X226300000Y56850000D01*
X226300000Y58850000D01*
X227700000Y58850000D01*
X227700000Y56850000D01*
X227700000Y56850000D01*
G37*
G36*
X230240000Y68350000D02*
G01*
X228840000Y68350000D01*
X228840000Y70350000D01*
X230240000Y70350000D01*
X230240000Y68350000D01*
X230240000Y68350000D01*
G37*
G36*
X207240000Y68350000D02*
G01*
X205840000Y68350000D01*
X205840000Y70350000D01*
X207240000Y70350000D01*
X207240000Y68350000D01*
X207240000Y68350000D01*
G37*
G36*
X225160000Y68350000D02*
G01*
X223760000Y68350000D01*
X223760000Y70350000D01*
X225160000Y70350000D01*
X225160000Y68350000D01*
X225160000Y68350000D01*
G37*
G36*
X204700000Y68350000D02*
G01*
X203300000Y68350000D01*
X203300000Y70350000D01*
X204700000Y70350000D01*
X204700000Y68350000D01*
X204700000Y68350000D01*
G37*
G36*
X202160000Y68350000D02*
G01*
X200760000Y68350000D01*
X200760000Y70350000D01*
X202160000Y70350000D01*
X202160000Y68350000D01*
X202160000Y68350000D01*
G37*
G36*
X227700000Y68350000D02*
G01*
X226300000Y68350000D01*
X226300000Y70350000D01*
X227700000Y70350000D01*
X227700000Y68350000D01*
X227700000Y68350000D01*
G37*
G36*
X70160026Y73373885D02*
G01*
X70378411Y73283427D01*
X70378413Y73283426D01*
X70574955Y73152101D01*
X70742101Y72984955D01*
X70827290Y72857461D01*
X70873427Y72788411D01*
X70963885Y72570026D01*
X71010000Y72338191D01*
X71010000Y72101809D01*
X70963885Y71869974D01*
X70873427Y71651589D01*
X70873426Y71651587D01*
X70742101Y71455045D01*
X70574955Y71287899D01*
X70378413Y71156574D01*
X70378412Y71156573D01*
X70378411Y71156573D01*
X70160026Y71066115D01*
X69928191Y71020000D01*
X69691809Y71020000D01*
X69459974Y71066115D01*
X69241589Y71156573D01*
X69241588Y71156573D01*
X69241587Y71156574D01*
X69045045Y71287899D01*
X68877899Y71455045D01*
X68746574Y71651587D01*
X68746573Y71651589D01*
X68656115Y71869974D01*
X68610000Y72101809D01*
X68610000Y72338191D01*
X68656115Y72570026D01*
X68746573Y72788411D01*
X68792711Y72857461D01*
X68877899Y72984955D01*
X69045045Y73152101D01*
X69241587Y73283426D01*
X69241589Y73283427D01*
X69459974Y73373885D01*
X69691809Y73420000D01*
X69928191Y73420000D01*
X70160026Y73373885D01*
X70160026Y73373885D01*
G37*
G36*
X62540026Y73373885D02*
G01*
X62758411Y73283427D01*
X62758413Y73283426D01*
X62954955Y73152101D01*
X63122101Y72984955D01*
X63207290Y72857461D01*
X63253427Y72788411D01*
X63343885Y72570026D01*
X63390000Y72338191D01*
X63390000Y72101809D01*
X63343885Y71869974D01*
X63253427Y71651589D01*
X63253426Y71651587D01*
X63122101Y71455045D01*
X62954955Y71287899D01*
X62758413Y71156574D01*
X62758412Y71156573D01*
X62758411Y71156573D01*
X62540026Y71066115D01*
X62308191Y71020000D01*
X62071809Y71020000D01*
X61839974Y71066115D01*
X61621589Y71156573D01*
X61621588Y71156573D01*
X61621587Y71156574D01*
X61425045Y71287899D01*
X61257899Y71455045D01*
X61126574Y71651587D01*
X61126573Y71651589D01*
X61036115Y71869974D01*
X60990000Y72101809D01*
X60990000Y72338191D01*
X61036115Y72570026D01*
X61126573Y72788411D01*
X61172711Y72857461D01*
X61257899Y72984955D01*
X61425045Y73152101D01*
X61621587Y73283426D01*
X61621589Y73283427D01*
X61839974Y73373885D01*
X62071809Y73420000D01*
X62308191Y73420000D01*
X62540026Y73373885D01*
X62540026Y73373885D01*
G37*
G36*
X154540026Y73373885D02*
G01*
X154758411Y73283427D01*
X154758413Y73283426D01*
X154954955Y73152101D01*
X155122101Y72984955D01*
X155207290Y72857461D01*
X155253427Y72788411D01*
X155343885Y72570026D01*
X155390000Y72338191D01*
X155390000Y72101809D01*
X155343885Y71869974D01*
X155253427Y71651589D01*
X155253426Y71651587D01*
X155122101Y71455045D01*
X154954955Y71287899D01*
X154758413Y71156574D01*
X154758412Y71156573D01*
X154758411Y71156573D01*
X154540026Y71066115D01*
X154308191Y71020000D01*
X154071809Y71020000D01*
X153839974Y71066115D01*
X153621589Y71156573D01*
X153621588Y71156573D01*
X153621587Y71156574D01*
X153425045Y71287899D01*
X153257899Y71455045D01*
X153126574Y71651587D01*
X153126573Y71651589D01*
X153036115Y71869974D01*
X152990000Y72101809D01*
X152990000Y72338191D01*
X153036115Y72570026D01*
X153126573Y72788411D01*
X153172711Y72857461D01*
X153257899Y72984955D01*
X153425045Y73152101D01*
X153621587Y73283426D01*
X153621589Y73283427D01*
X153839974Y73373885D01*
X154071809Y73420000D01*
X154308191Y73420000D01*
X154540026Y73373885D01*
X154540026Y73373885D01*
G37*
G36*
X162160026Y73373885D02*
G01*
X162378411Y73283427D01*
X162378413Y73283426D01*
X162574955Y73152101D01*
X162742101Y72984955D01*
X162827290Y72857461D01*
X162873427Y72788411D01*
X162963885Y72570026D01*
X163010000Y72338191D01*
X163010000Y72101809D01*
X162963885Y71869974D01*
X162873427Y71651589D01*
X162873426Y71651587D01*
X162742101Y71455045D01*
X162574955Y71287899D01*
X162378413Y71156574D01*
X162378412Y71156573D01*
X162378411Y71156573D01*
X162160026Y71066115D01*
X161928191Y71020000D01*
X161691809Y71020000D01*
X161459974Y71066115D01*
X161241589Y71156573D01*
X161241588Y71156573D01*
X161241587Y71156574D01*
X161045045Y71287899D01*
X160877899Y71455045D01*
X160746574Y71651587D01*
X160746573Y71651589D01*
X160656115Y71869974D01*
X160610000Y72101809D01*
X160610000Y72338191D01*
X160656115Y72570026D01*
X160746573Y72788411D01*
X160792711Y72857461D01*
X160877899Y72984955D01*
X161045045Y73152101D01*
X161241587Y73283426D01*
X161241589Y73283427D01*
X161459974Y73373885D01*
X161691809Y73420000D01*
X161928191Y73420000D01*
X162160026Y73373885D01*
X162160026Y73373885D01*
G37*
G36*
X47160026Y73373885D02*
G01*
X47378411Y73283427D01*
X47378413Y73283426D01*
X47574955Y73152101D01*
X47742101Y72984955D01*
X47827290Y72857461D01*
X47873427Y72788411D01*
X47963885Y72570026D01*
X48010000Y72338191D01*
X48010000Y72101809D01*
X47963885Y71869974D01*
X47873427Y71651589D01*
X47873426Y71651587D01*
X47742101Y71455045D01*
X47574955Y71287899D01*
X47378413Y71156574D01*
X47378412Y71156573D01*
X47378411Y71156573D01*
X47160026Y71066115D01*
X46928191Y71020000D01*
X46691809Y71020000D01*
X46459974Y71066115D01*
X46241589Y71156573D01*
X46241588Y71156573D01*
X46241587Y71156574D01*
X46045045Y71287899D01*
X45877899Y71455045D01*
X45746574Y71651587D01*
X45746573Y71651589D01*
X45656115Y71869974D01*
X45610000Y72101809D01*
X45610000Y72338191D01*
X45656115Y72570026D01*
X45746573Y72788411D01*
X45792711Y72857461D01*
X45877899Y72984955D01*
X46045045Y73152101D01*
X46241587Y73283426D01*
X46241589Y73283427D01*
X46459974Y73373885D01*
X46691809Y73420000D01*
X46928191Y73420000D01*
X47160026Y73373885D01*
X47160026Y73373885D01*
G37*
G36*
X139160026Y73373885D02*
G01*
X139378411Y73283427D01*
X139378413Y73283426D01*
X139574955Y73152101D01*
X139742101Y72984955D01*
X139827290Y72857461D01*
X139873427Y72788411D01*
X139963885Y72570026D01*
X140010000Y72338191D01*
X140010000Y72101809D01*
X139963885Y71869974D01*
X139873427Y71651589D01*
X139873426Y71651587D01*
X139742101Y71455045D01*
X139574955Y71287899D01*
X139378413Y71156574D01*
X139378412Y71156573D01*
X139378411Y71156573D01*
X139160026Y71066115D01*
X138928191Y71020000D01*
X138691809Y71020000D01*
X138459974Y71066115D01*
X138241589Y71156573D01*
X138241588Y71156573D01*
X138241587Y71156574D01*
X138045045Y71287899D01*
X137877899Y71455045D01*
X137746574Y71651587D01*
X137746573Y71651589D01*
X137656115Y71869974D01*
X137610000Y72101809D01*
X137610000Y72338191D01*
X137656115Y72570026D01*
X137746573Y72788411D01*
X137792711Y72857461D01*
X137877899Y72984955D01*
X138045045Y73152101D01*
X138241587Y73283426D01*
X138241589Y73283427D01*
X138459974Y73373885D01*
X138691809Y73420000D01*
X138928191Y73420000D01*
X139160026Y73373885D01*
X139160026Y73373885D01*
G37*
G36*
X131540026Y73373885D02*
G01*
X131758411Y73283427D01*
X131758413Y73283426D01*
X131954955Y73152101D01*
X132122101Y72984955D01*
X132207290Y72857461D01*
X132253427Y72788411D01*
X132343885Y72570026D01*
X132390000Y72338191D01*
X132390000Y72101809D01*
X132343885Y71869974D01*
X132253427Y71651589D01*
X132253426Y71651587D01*
X132122101Y71455045D01*
X131954955Y71287899D01*
X131758413Y71156574D01*
X131758412Y71156573D01*
X131758411Y71156573D01*
X131540026Y71066115D01*
X131308191Y71020000D01*
X131071809Y71020000D01*
X130839974Y71066115D01*
X130621589Y71156573D01*
X130621588Y71156573D01*
X130621587Y71156574D01*
X130425045Y71287899D01*
X130257899Y71455045D01*
X130126574Y71651587D01*
X130126573Y71651589D01*
X130036115Y71869974D01*
X129990000Y72101809D01*
X129990000Y72338191D01*
X130036115Y72570026D01*
X130126573Y72788411D01*
X130172711Y72857461D01*
X130257899Y72984955D01*
X130425045Y73152101D01*
X130621587Y73283426D01*
X130621589Y73283427D01*
X130839974Y73373885D01*
X131071809Y73420000D01*
X131308191Y73420000D01*
X131540026Y73373885D01*
X131540026Y73373885D01*
G37*
G36*
X85540026Y73373885D02*
G01*
X85758411Y73283427D01*
X85758413Y73283426D01*
X85954955Y73152101D01*
X86122101Y72984955D01*
X86207290Y72857461D01*
X86253427Y72788411D01*
X86343885Y72570026D01*
X86390000Y72338191D01*
X86390000Y72101809D01*
X86343885Y71869974D01*
X86253427Y71651589D01*
X86253426Y71651587D01*
X86122101Y71455045D01*
X85954955Y71287899D01*
X85758413Y71156574D01*
X85758412Y71156573D01*
X85758411Y71156573D01*
X85540026Y71066115D01*
X85308191Y71020000D01*
X85071809Y71020000D01*
X84839974Y71066115D01*
X84621589Y71156573D01*
X84621588Y71156573D01*
X84621587Y71156574D01*
X84425045Y71287899D01*
X84257899Y71455045D01*
X84126574Y71651587D01*
X84126573Y71651589D01*
X84036115Y71869974D01*
X83990000Y72101809D01*
X83990000Y72338191D01*
X84036115Y72570026D01*
X84126573Y72788411D01*
X84172711Y72857461D01*
X84257899Y72984955D01*
X84425045Y73152101D01*
X84621587Y73283426D01*
X84621589Y73283427D01*
X84839974Y73373885D01*
X85071809Y73420000D01*
X85308191Y73420000D01*
X85540026Y73373885D01*
X85540026Y73373885D01*
G37*
G36*
X93160026Y73373885D02*
G01*
X93378411Y73283427D01*
X93378413Y73283426D01*
X93574955Y73152101D01*
X93742101Y72984955D01*
X93827290Y72857461D01*
X93873427Y72788411D01*
X93963885Y72570026D01*
X94010000Y72338191D01*
X94010000Y72101809D01*
X93963885Y71869974D01*
X93873427Y71651589D01*
X93873426Y71651587D01*
X93742101Y71455045D01*
X93574955Y71287899D01*
X93378413Y71156574D01*
X93378412Y71156573D01*
X93378411Y71156573D01*
X93160026Y71066115D01*
X92928191Y71020000D01*
X92691809Y71020000D01*
X92459974Y71066115D01*
X92241589Y71156573D01*
X92241588Y71156573D01*
X92241587Y71156574D01*
X92045045Y71287899D01*
X91877899Y71455045D01*
X91746574Y71651587D01*
X91746573Y71651589D01*
X91656115Y71869974D01*
X91610000Y72101809D01*
X91610000Y72338191D01*
X91656115Y72570026D01*
X91746573Y72788411D01*
X91792711Y72857461D01*
X91877899Y72984955D01*
X92045045Y73152101D01*
X92241587Y73283426D01*
X92241589Y73283427D01*
X92459974Y73373885D01*
X92691809Y73420000D01*
X92928191Y73420000D01*
X93160026Y73373885D01*
X93160026Y73373885D01*
G37*
G36*
X116160026Y73373885D02*
G01*
X116378411Y73283427D01*
X116378413Y73283426D01*
X116574955Y73152101D01*
X116742101Y72984955D01*
X116827290Y72857461D01*
X116873427Y72788411D01*
X116963885Y72570026D01*
X117010000Y72338191D01*
X117010000Y72101809D01*
X116963885Y71869974D01*
X116873427Y71651589D01*
X116873426Y71651587D01*
X116742101Y71455045D01*
X116574955Y71287899D01*
X116378413Y71156574D01*
X116378412Y71156573D01*
X116378411Y71156573D01*
X116160026Y71066115D01*
X115928191Y71020000D01*
X115691809Y71020000D01*
X115459974Y71066115D01*
X115241589Y71156573D01*
X115241588Y71156573D01*
X115241587Y71156574D01*
X115045045Y71287899D01*
X114877899Y71455045D01*
X114746574Y71651587D01*
X114746573Y71651589D01*
X114656115Y71869974D01*
X114610000Y72101809D01*
X114610000Y72338191D01*
X114656115Y72570026D01*
X114746573Y72788411D01*
X114792711Y72857461D01*
X114877899Y72984955D01*
X115045045Y73152101D01*
X115241587Y73283426D01*
X115241589Y73283427D01*
X115459974Y73373885D01*
X115691809Y73420000D01*
X115928191Y73420000D01*
X116160026Y73373885D01*
X116160026Y73373885D01*
G37*
G36*
X108540026Y73373885D02*
G01*
X108758411Y73283427D01*
X108758413Y73283426D01*
X108954955Y73152101D01*
X109122101Y72984955D01*
X109207290Y72857461D01*
X109253427Y72788411D01*
X109343885Y72570026D01*
X109390000Y72338191D01*
X109390000Y72101809D01*
X109343885Y71869974D01*
X109253427Y71651589D01*
X109253426Y71651587D01*
X109122101Y71455045D01*
X108954955Y71287899D01*
X108758413Y71156574D01*
X108758412Y71156573D01*
X108758411Y71156573D01*
X108540026Y71066115D01*
X108308191Y71020000D01*
X108071809Y71020000D01*
X107839974Y71066115D01*
X107621589Y71156573D01*
X107621588Y71156573D01*
X107621587Y71156574D01*
X107425045Y71287899D01*
X107257899Y71455045D01*
X107126574Y71651587D01*
X107126573Y71651589D01*
X107036115Y71869974D01*
X106990000Y72101809D01*
X106990000Y72338191D01*
X107036115Y72570026D01*
X107126573Y72788411D01*
X107172711Y72857461D01*
X107257899Y72984955D01*
X107425045Y73152101D01*
X107621587Y73283426D01*
X107621589Y73283427D01*
X107839974Y73373885D01*
X108071809Y73420000D01*
X108308191Y73420000D01*
X108540026Y73373885D01*
X108540026Y73373885D01*
G37*
G36*
X231160026Y73373885D02*
G01*
X231378411Y73283427D01*
X231378413Y73283426D01*
X231574955Y73152101D01*
X231742101Y72984955D01*
X231827290Y72857461D01*
X231873427Y72788411D01*
X231963885Y72570026D01*
X232010000Y72338191D01*
X232010000Y72101809D01*
X231963885Y71869974D01*
X231873427Y71651589D01*
X231873426Y71651587D01*
X231742101Y71455045D01*
X231574955Y71287899D01*
X231378413Y71156574D01*
X231378412Y71156573D01*
X231378411Y71156573D01*
X231160026Y71066115D01*
X230928191Y71020000D01*
X230691809Y71020000D01*
X230459974Y71066115D01*
X230241589Y71156573D01*
X230241588Y71156573D01*
X230241587Y71156574D01*
X230045045Y71287899D01*
X229877899Y71455045D01*
X229746574Y71651587D01*
X229746573Y71651589D01*
X229656115Y71869974D01*
X229610000Y72101809D01*
X229610000Y72338191D01*
X229656115Y72570026D01*
X229746573Y72788411D01*
X229792711Y72857461D01*
X229877899Y72984955D01*
X230045045Y73152101D01*
X230241587Y73283426D01*
X230241589Y73283427D01*
X230459974Y73373885D01*
X230691809Y73420000D01*
X230928191Y73420000D01*
X231160026Y73373885D01*
X231160026Y73373885D01*
G37*
G36*
X223540026Y73373885D02*
G01*
X223758411Y73283427D01*
X223758413Y73283426D01*
X223954955Y73152101D01*
X224122101Y72984955D01*
X224207290Y72857461D01*
X224253427Y72788411D01*
X224343885Y72570026D01*
X224390000Y72338191D01*
X224390000Y72101809D01*
X224343885Y71869974D01*
X224253427Y71651589D01*
X224253426Y71651587D01*
X224122101Y71455045D01*
X223954955Y71287899D01*
X223758413Y71156574D01*
X223758412Y71156573D01*
X223758411Y71156573D01*
X223540026Y71066115D01*
X223308191Y71020000D01*
X223071809Y71020000D01*
X222839974Y71066115D01*
X222621589Y71156573D01*
X222621588Y71156573D01*
X222621587Y71156574D01*
X222425045Y71287899D01*
X222257899Y71455045D01*
X222126574Y71651587D01*
X222126573Y71651589D01*
X222036115Y71869974D01*
X221990000Y72101809D01*
X221990000Y72338191D01*
X222036115Y72570026D01*
X222126573Y72788411D01*
X222172711Y72857461D01*
X222257899Y72984955D01*
X222425045Y73152101D01*
X222621587Y73283426D01*
X222621589Y73283427D01*
X222839974Y73373885D01*
X223071809Y73420000D01*
X223308191Y73420000D01*
X223540026Y73373885D01*
X223540026Y73373885D01*
G37*
G36*
X39540026Y73373885D02*
G01*
X39758411Y73283427D01*
X39758413Y73283426D01*
X39954955Y73152101D01*
X40122101Y72984955D01*
X40207290Y72857461D01*
X40253427Y72788411D01*
X40343885Y72570026D01*
X40390000Y72338191D01*
X40390000Y72101809D01*
X40343885Y71869974D01*
X40253427Y71651589D01*
X40253426Y71651587D01*
X40122101Y71455045D01*
X39954955Y71287899D01*
X39758413Y71156574D01*
X39758412Y71156573D01*
X39758411Y71156573D01*
X39540026Y71066115D01*
X39308191Y71020000D01*
X39071809Y71020000D01*
X38839974Y71066115D01*
X38621589Y71156573D01*
X38621588Y71156573D01*
X38621587Y71156574D01*
X38425045Y71287899D01*
X38257899Y71455045D01*
X38126574Y71651587D01*
X38126573Y71651589D01*
X38036115Y71869974D01*
X37990000Y72101809D01*
X37990000Y72338191D01*
X38036115Y72570026D01*
X38126573Y72788411D01*
X38172711Y72857461D01*
X38257899Y72984955D01*
X38425045Y73152101D01*
X38621587Y73283426D01*
X38621589Y73283427D01*
X38839974Y73373885D01*
X39071809Y73420000D01*
X39308191Y73420000D01*
X39540026Y73373885D01*
X39540026Y73373885D01*
G37*
G36*
X177540026Y73373885D02*
G01*
X177758411Y73283427D01*
X177758413Y73283426D01*
X177954955Y73152101D01*
X178122101Y72984955D01*
X178207290Y72857461D01*
X178253427Y72788411D01*
X178343885Y72570026D01*
X178390000Y72338191D01*
X178390000Y72101809D01*
X178343885Y71869974D01*
X178253427Y71651589D01*
X178253426Y71651587D01*
X178122101Y71455045D01*
X177954955Y71287899D01*
X177758413Y71156574D01*
X177758412Y71156573D01*
X177758411Y71156573D01*
X177540026Y71066115D01*
X177308191Y71020000D01*
X177071809Y71020000D01*
X176839974Y71066115D01*
X176621589Y71156573D01*
X176621588Y71156573D01*
X176621587Y71156574D01*
X176425045Y71287899D01*
X176257899Y71455045D01*
X176126574Y71651587D01*
X176126573Y71651589D01*
X176036115Y71869974D01*
X175990000Y72101809D01*
X175990000Y72338191D01*
X176036115Y72570026D01*
X176126573Y72788411D01*
X176172711Y72857461D01*
X176257899Y72984955D01*
X176425045Y73152101D01*
X176621587Y73283426D01*
X176621589Y73283427D01*
X176839974Y73373885D01*
X177071809Y73420000D01*
X177308191Y73420000D01*
X177540026Y73373885D01*
X177540026Y73373885D01*
G37*
G36*
X185160026Y73373885D02*
G01*
X185378411Y73283427D01*
X185378413Y73283426D01*
X185574955Y73152101D01*
X185742101Y72984955D01*
X185827290Y72857461D01*
X185873427Y72788411D01*
X185963885Y72570026D01*
X186010000Y72338191D01*
X186010000Y72101809D01*
X185963885Y71869974D01*
X185873427Y71651589D01*
X185873426Y71651587D01*
X185742101Y71455045D01*
X185574955Y71287899D01*
X185378413Y71156574D01*
X185378412Y71156573D01*
X185378411Y71156573D01*
X185160026Y71066115D01*
X184928191Y71020000D01*
X184691809Y71020000D01*
X184459974Y71066115D01*
X184241589Y71156573D01*
X184241588Y71156573D01*
X184241587Y71156574D01*
X184045045Y71287899D01*
X183877899Y71455045D01*
X183746574Y71651587D01*
X183746573Y71651589D01*
X183656115Y71869974D01*
X183610000Y72101809D01*
X183610000Y72338191D01*
X183656115Y72570026D01*
X183746573Y72788411D01*
X183792711Y72857461D01*
X183877899Y72984955D01*
X184045045Y73152101D01*
X184241587Y73283426D01*
X184241589Y73283427D01*
X184459974Y73373885D01*
X184691809Y73420000D01*
X184928191Y73420000D01*
X185160026Y73373885D01*
X185160026Y73373885D01*
G37*
G36*
X24160026Y73373885D02*
G01*
X24378411Y73283427D01*
X24378413Y73283426D01*
X24574955Y73152101D01*
X24742101Y72984955D01*
X24827290Y72857461D01*
X24873427Y72788411D01*
X24963885Y72570026D01*
X25010000Y72338191D01*
X25010000Y72101809D01*
X24963885Y71869974D01*
X24873427Y71651589D01*
X24873426Y71651587D01*
X24742101Y71455045D01*
X24574955Y71287899D01*
X24378413Y71156574D01*
X24378412Y71156573D01*
X24378411Y71156573D01*
X24160026Y71066115D01*
X23928191Y71020000D01*
X23691809Y71020000D01*
X23459974Y71066115D01*
X23241589Y71156573D01*
X23241588Y71156573D01*
X23241587Y71156574D01*
X23045045Y71287899D01*
X22877899Y71455045D01*
X22746574Y71651587D01*
X22746573Y71651589D01*
X22656115Y71869974D01*
X22610000Y72101809D01*
X22610000Y72338191D01*
X22656115Y72570026D01*
X22746573Y72788411D01*
X22792711Y72857461D01*
X22877899Y72984955D01*
X23045045Y73152101D01*
X23241587Y73283426D01*
X23241589Y73283427D01*
X23459974Y73373885D01*
X23691809Y73420000D01*
X23928191Y73420000D01*
X24160026Y73373885D01*
X24160026Y73373885D01*
G37*
G36*
X16540026Y73373885D02*
G01*
X16758411Y73283427D01*
X16758413Y73283426D01*
X16954955Y73152101D01*
X17122101Y72984955D01*
X17207290Y72857461D01*
X17253427Y72788411D01*
X17343885Y72570026D01*
X17390000Y72338191D01*
X17390000Y72101809D01*
X17343885Y71869974D01*
X17253427Y71651589D01*
X17253426Y71651587D01*
X17122101Y71455045D01*
X16954955Y71287899D01*
X16758413Y71156574D01*
X16758412Y71156573D01*
X16758411Y71156573D01*
X16540026Y71066115D01*
X16308191Y71020000D01*
X16071809Y71020000D01*
X15839974Y71066115D01*
X15621589Y71156573D01*
X15621588Y71156573D01*
X15621587Y71156574D01*
X15425045Y71287899D01*
X15257899Y71455045D01*
X15126574Y71651587D01*
X15126573Y71651589D01*
X15036115Y71869974D01*
X14990000Y72101809D01*
X14990000Y72338191D01*
X15036115Y72570026D01*
X15126573Y72788411D01*
X15172711Y72857461D01*
X15257899Y72984955D01*
X15425045Y73152101D01*
X15621587Y73283426D01*
X15621589Y73283427D01*
X15839974Y73373885D01*
X16071809Y73420000D01*
X16308191Y73420000D01*
X16540026Y73373885D01*
X16540026Y73373885D01*
G37*
G36*
X181227290Y73194381D02*
G01*
X181291689Y73181571D01*
X181473678Y73106189D01*
X181637463Y72996751D01*
X181776751Y72857463D01*
X181886189Y72693678D01*
X181961571Y72511689D01*
X181961571Y72511688D01*
X182000000Y72318493D01*
X182000000Y72121507D01*
X181990401Y72073249D01*
X181961571Y71928311D01*
X181886189Y71746322D01*
X181776751Y71582537D01*
X181637463Y71443249D01*
X181473678Y71333811D01*
X181291689Y71258429D01*
X181227290Y71245619D01*
X181098493Y71220000D01*
X180901507Y71220000D01*
X180772710Y71245619D01*
X180708311Y71258429D01*
X180526322Y71333811D01*
X180362537Y71443249D01*
X180223249Y71582537D01*
X180113811Y71746322D01*
X180038429Y71928311D01*
X180009599Y72073249D01*
X180000000Y72121507D01*
X180000000Y72318493D01*
X180038429Y72511688D01*
X180038429Y72511689D01*
X180113811Y72693678D01*
X180223249Y72857463D01*
X180362537Y72996751D01*
X180526322Y73106189D01*
X180708311Y73181571D01*
X180772710Y73194381D01*
X180901507Y73220000D01*
X181098493Y73220000D01*
X181227290Y73194381D01*
X181227290Y73194381D01*
G37*
G36*
X20227290Y73194381D02*
G01*
X20291689Y73181571D01*
X20473678Y73106189D01*
X20637463Y72996751D01*
X20776751Y72857463D01*
X20886189Y72693678D01*
X20961571Y72511689D01*
X20961571Y72511688D01*
X21000000Y72318493D01*
X21000000Y72121507D01*
X20990401Y72073249D01*
X20961571Y71928311D01*
X20886189Y71746322D01*
X20776751Y71582537D01*
X20637463Y71443249D01*
X20473678Y71333811D01*
X20291689Y71258429D01*
X20227290Y71245619D01*
X20098493Y71220000D01*
X19901507Y71220000D01*
X19772710Y71245619D01*
X19708311Y71258429D01*
X19526322Y71333811D01*
X19362537Y71443249D01*
X19223249Y71582537D01*
X19113811Y71746322D01*
X19038429Y71928311D01*
X19009599Y72073249D01*
X19000000Y72121507D01*
X19000000Y72318493D01*
X19038429Y72511688D01*
X19038429Y72511689D01*
X19113811Y72693678D01*
X19223249Y72857463D01*
X19362537Y72996751D01*
X19526322Y73106189D01*
X19708311Y73181571D01*
X19772710Y73194381D01*
X19901507Y73220000D01*
X20098493Y73220000D01*
X20227290Y73194381D01*
X20227290Y73194381D01*
G37*
G36*
X89227290Y73194381D02*
G01*
X89291689Y73181571D01*
X89473678Y73106189D01*
X89637463Y72996751D01*
X89776751Y72857463D01*
X89886189Y72693678D01*
X89961571Y72511689D01*
X89961571Y72511688D01*
X90000000Y72318493D01*
X90000000Y72121507D01*
X89990401Y72073249D01*
X89961571Y71928311D01*
X89886189Y71746322D01*
X89776751Y71582537D01*
X89637463Y71443249D01*
X89473678Y71333811D01*
X89291689Y71258429D01*
X89227290Y71245619D01*
X89098493Y71220000D01*
X88901507Y71220000D01*
X88772710Y71245619D01*
X88708311Y71258429D01*
X88526322Y71333811D01*
X88362537Y71443249D01*
X88223249Y71582537D01*
X88113811Y71746322D01*
X88038429Y71928311D01*
X88009599Y72073249D01*
X88000000Y72121507D01*
X88000000Y72318493D01*
X88038429Y72511688D01*
X88038429Y72511689D01*
X88113811Y72693678D01*
X88223249Y72857463D01*
X88362537Y72996751D01*
X88526322Y73106189D01*
X88708311Y73181571D01*
X88772710Y73194381D01*
X88901507Y73220000D01*
X89098493Y73220000D01*
X89227290Y73194381D01*
X89227290Y73194381D01*
G37*
G36*
X112227290Y73194381D02*
G01*
X112291689Y73181571D01*
X112473678Y73106189D01*
X112637463Y72996751D01*
X112776751Y72857463D01*
X112886189Y72693678D01*
X112961571Y72511689D01*
X112961571Y72511688D01*
X113000000Y72318493D01*
X113000000Y72121507D01*
X112990401Y72073249D01*
X112961571Y71928311D01*
X112886189Y71746322D01*
X112776751Y71582537D01*
X112637463Y71443249D01*
X112473678Y71333811D01*
X112291689Y71258429D01*
X112227290Y71245619D01*
X112098493Y71220000D01*
X111901507Y71220000D01*
X111772710Y71245619D01*
X111708311Y71258429D01*
X111526322Y71333811D01*
X111362537Y71443249D01*
X111223249Y71582537D01*
X111113811Y71746322D01*
X111038429Y71928311D01*
X111009599Y72073249D01*
X111000000Y72121507D01*
X111000000Y72318493D01*
X111038429Y72511688D01*
X111038429Y72511689D01*
X111113811Y72693678D01*
X111223249Y72857463D01*
X111362537Y72996751D01*
X111526322Y73106189D01*
X111708311Y73181571D01*
X111772710Y73194381D01*
X111901507Y73220000D01*
X112098493Y73220000D01*
X112227290Y73194381D01*
X112227290Y73194381D01*
G37*
G36*
X43227290Y73194381D02*
G01*
X43291689Y73181571D01*
X43473678Y73106189D01*
X43637463Y72996751D01*
X43776751Y72857463D01*
X43886189Y72693678D01*
X43961571Y72511689D01*
X43961571Y72511688D01*
X44000000Y72318493D01*
X44000000Y72121507D01*
X43990401Y72073249D01*
X43961571Y71928311D01*
X43886189Y71746322D01*
X43776751Y71582537D01*
X43637463Y71443249D01*
X43473678Y71333811D01*
X43291689Y71258429D01*
X43227290Y71245619D01*
X43098493Y71220000D01*
X42901507Y71220000D01*
X42772710Y71245619D01*
X42708311Y71258429D01*
X42526322Y71333811D01*
X42362537Y71443249D01*
X42223249Y71582537D01*
X42113811Y71746322D01*
X42038429Y71928311D01*
X42009599Y72073249D01*
X42000000Y72121507D01*
X42000000Y72318493D01*
X42038429Y72511688D01*
X42038429Y72511689D01*
X42113811Y72693678D01*
X42223249Y72857463D01*
X42362537Y72996751D01*
X42526322Y73106189D01*
X42708311Y73181571D01*
X42772710Y73194381D01*
X42901507Y73220000D01*
X43098493Y73220000D01*
X43227290Y73194381D01*
X43227290Y73194381D01*
G37*
G36*
X66227290Y73194381D02*
G01*
X66291689Y73181571D01*
X66473678Y73106189D01*
X66637463Y72996751D01*
X66776751Y72857463D01*
X66886189Y72693678D01*
X66961571Y72511689D01*
X66961571Y72511688D01*
X67000000Y72318493D01*
X67000000Y72121507D01*
X66990401Y72073249D01*
X66961571Y71928311D01*
X66886189Y71746322D01*
X66776751Y71582537D01*
X66637463Y71443249D01*
X66473678Y71333811D01*
X66291689Y71258429D01*
X66227290Y71245619D01*
X66098493Y71220000D01*
X65901507Y71220000D01*
X65772710Y71245619D01*
X65708311Y71258429D01*
X65526322Y71333811D01*
X65362537Y71443249D01*
X65223249Y71582537D01*
X65113811Y71746322D01*
X65038429Y71928311D01*
X65009599Y72073249D01*
X65000000Y72121507D01*
X65000000Y72318493D01*
X65038429Y72511688D01*
X65038429Y72511689D01*
X65113811Y72693678D01*
X65223249Y72857463D01*
X65362537Y72996751D01*
X65526322Y73106189D01*
X65708311Y73181571D01*
X65772710Y73194381D01*
X65901507Y73220000D01*
X66098493Y73220000D01*
X66227290Y73194381D01*
X66227290Y73194381D01*
G37*
G36*
X135227290Y73194381D02*
G01*
X135291689Y73181571D01*
X135473678Y73106189D01*
X135637463Y72996751D01*
X135776751Y72857463D01*
X135886189Y72693678D01*
X135961571Y72511689D01*
X135961571Y72511688D01*
X136000000Y72318493D01*
X136000000Y72121507D01*
X135990401Y72073249D01*
X135961571Y71928311D01*
X135886189Y71746322D01*
X135776751Y71582537D01*
X135637463Y71443249D01*
X135473678Y71333811D01*
X135291689Y71258429D01*
X135227290Y71245619D01*
X135098493Y71220000D01*
X134901507Y71220000D01*
X134772710Y71245619D01*
X134708311Y71258429D01*
X134526322Y71333811D01*
X134362537Y71443249D01*
X134223249Y71582537D01*
X134113811Y71746322D01*
X134038429Y71928311D01*
X134009599Y72073249D01*
X134000000Y72121507D01*
X134000000Y72318493D01*
X134038429Y72511688D01*
X134038429Y72511689D01*
X134113811Y72693678D01*
X134223249Y72857463D01*
X134362537Y72996751D01*
X134526322Y73106189D01*
X134708311Y73181571D01*
X134772710Y73194381D01*
X134901507Y73220000D01*
X135098493Y73220000D01*
X135227290Y73194381D01*
X135227290Y73194381D01*
G37*
G36*
X158227290Y73194381D02*
G01*
X158291689Y73181571D01*
X158473678Y73106189D01*
X158637463Y72996751D01*
X158776751Y72857463D01*
X158886189Y72693678D01*
X158961571Y72511689D01*
X158961571Y72511688D01*
X159000000Y72318493D01*
X159000000Y72121507D01*
X158990401Y72073249D01*
X158961571Y71928311D01*
X158886189Y71746322D01*
X158776751Y71582537D01*
X158637463Y71443249D01*
X158473678Y71333811D01*
X158291689Y71258429D01*
X158227290Y71245619D01*
X158098493Y71220000D01*
X157901507Y71220000D01*
X157772710Y71245619D01*
X157708311Y71258429D01*
X157526322Y71333811D01*
X157362537Y71443249D01*
X157223249Y71582537D01*
X157113811Y71746322D01*
X157038429Y71928311D01*
X157009599Y72073249D01*
X157000000Y72121507D01*
X157000000Y72318493D01*
X157038429Y72511688D01*
X157038429Y72511689D01*
X157113811Y72693678D01*
X157223249Y72857463D01*
X157362537Y72996751D01*
X157526322Y73106189D01*
X157708311Y73181571D01*
X157772710Y73194381D01*
X157901507Y73220000D01*
X158098493Y73220000D01*
X158227290Y73194381D01*
X158227290Y73194381D01*
G37*
G36*
X227227290Y73194381D02*
G01*
X227291689Y73181571D01*
X227473678Y73106189D01*
X227637463Y72996751D01*
X227776751Y72857463D01*
X227886189Y72693678D01*
X227961571Y72511689D01*
X227961571Y72511688D01*
X228000000Y72318493D01*
X228000000Y72121507D01*
X227990401Y72073249D01*
X227961571Y71928311D01*
X227886189Y71746322D01*
X227776751Y71582537D01*
X227637463Y71443249D01*
X227473678Y71333811D01*
X227291689Y71258429D01*
X227227290Y71245619D01*
X227098493Y71220000D01*
X226901507Y71220000D01*
X226772710Y71245619D01*
X226708311Y71258429D01*
X226526322Y71333811D01*
X226362537Y71443249D01*
X226223249Y71582537D01*
X226113811Y71746322D01*
X226038429Y71928311D01*
X226009599Y72073249D01*
X226000000Y72121507D01*
X226000000Y72318493D01*
X226038429Y72511688D01*
X226038429Y72511689D01*
X226113811Y72693678D01*
X226223249Y72857463D01*
X226362537Y72996751D01*
X226526322Y73106189D01*
X226708311Y73181571D01*
X226772710Y73194381D01*
X226901507Y73220000D01*
X227098493Y73220000D01*
X227227290Y73194381D01*
X227227290Y73194381D01*
G37*
G36*
X-48772710Y73824381D02*
G01*
X-48708311Y73811571D01*
X-48526322Y73736189D01*
X-48362537Y73626751D01*
X-48223249Y73487463D01*
X-48113811Y73323678D01*
X-48054949Y73181571D01*
X-48038429Y73141688D01*
X-48000000Y72948493D01*
X-48000000Y72751507D01*
X-48025619Y72622710D01*
X-48038429Y72558311D01*
X-48113811Y72376322D01*
X-48223249Y72212537D01*
X-48362537Y72073249D01*
X-48526322Y71963811D01*
X-48708311Y71888429D01*
X-48772710Y71875619D01*
X-48901507Y71850000D01*
X-49098493Y71850000D01*
X-49227290Y71875619D01*
X-49291689Y71888429D01*
X-49473678Y71963811D01*
X-49637463Y72073249D01*
X-49776751Y72212537D01*
X-49886189Y72376322D01*
X-49961571Y72558311D01*
X-49974381Y72622710D01*
X-50000000Y72751507D01*
X-50000000Y72948493D01*
X-49961571Y73141688D01*
X-49945051Y73181571D01*
X-49886189Y73323678D01*
X-49776751Y73487463D01*
X-49637463Y73626751D01*
X-49473678Y73736189D01*
X-49291689Y73811571D01*
X-49227290Y73824381D01*
X-49098493Y73850000D01*
X-48901507Y73850000D01*
X-48772710Y73824381D01*
X-48772710Y73824381D01*
G37*
G36*
X204227290Y73824381D02*
G01*
X204291689Y73811571D01*
X204473678Y73736189D01*
X204637463Y73626751D01*
X204776751Y73487463D01*
X204886189Y73323678D01*
X204945051Y73181571D01*
X204961571Y73141688D01*
X205000000Y72948493D01*
X205000000Y72751507D01*
X204974381Y72622710D01*
X204961571Y72558311D01*
X204886189Y72376322D01*
X204776751Y72212537D01*
X204637463Y72073249D01*
X204473678Y71963811D01*
X204291689Y71888429D01*
X204227290Y71875619D01*
X204098493Y71850000D01*
X203901507Y71850000D01*
X203772710Y71875619D01*
X203708311Y71888429D01*
X203526322Y71963811D01*
X203362537Y72073249D01*
X203223249Y72212537D01*
X203113811Y72376322D01*
X203038429Y72558311D01*
X203025619Y72622710D01*
X203000000Y72751507D01*
X203000000Y72948493D01*
X203038429Y73141688D01*
X203054949Y73181571D01*
X203113811Y73323678D01*
X203223249Y73487463D01*
X203362537Y73626751D01*
X203526322Y73736189D01*
X203708311Y73811571D01*
X203772710Y73824381D01*
X203901507Y73850000D01*
X204098493Y73850000D01*
X204227290Y73824381D01*
X204227290Y73824381D01*
G37*
G36*
X-71772710Y73824381D02*
G01*
X-71708311Y73811571D01*
X-71526322Y73736189D01*
X-71362537Y73626751D01*
X-71223249Y73487463D01*
X-71113811Y73323678D01*
X-71054949Y73181571D01*
X-71038429Y73141688D01*
X-71000000Y72948493D01*
X-71000000Y72751507D01*
X-71025619Y72622710D01*
X-71038429Y72558311D01*
X-71113811Y72376322D01*
X-71223249Y72212537D01*
X-71362537Y72073249D01*
X-71526322Y71963811D01*
X-71708311Y71888429D01*
X-71772710Y71875619D01*
X-71901507Y71850000D01*
X-72098493Y71850000D01*
X-72227290Y71875619D01*
X-72291689Y71888429D01*
X-72473678Y71963811D01*
X-72637463Y72073249D01*
X-72776751Y72212537D01*
X-72886189Y72376322D01*
X-72961571Y72558311D01*
X-72974381Y72622710D01*
X-73000000Y72751507D01*
X-73000000Y72948493D01*
X-72961571Y73141688D01*
X-72945051Y73181571D01*
X-72886189Y73323678D01*
X-72776751Y73487463D01*
X-72637463Y73626751D01*
X-72473678Y73736189D01*
X-72291689Y73811571D01*
X-72227290Y73824381D01*
X-72098493Y73850000D01*
X-71901507Y73850000D01*
X-71772710Y73824381D01*
X-71772710Y73824381D01*
G37*
G36*
X-25772710Y73824381D02*
G01*
X-25708311Y73811571D01*
X-25526322Y73736189D01*
X-25362537Y73626751D01*
X-25223249Y73487463D01*
X-25113811Y73323678D01*
X-25054949Y73181571D01*
X-25038429Y73141688D01*
X-25000000Y72948493D01*
X-25000000Y72751507D01*
X-25025619Y72622710D01*
X-25038429Y72558311D01*
X-25113811Y72376322D01*
X-25223249Y72212537D01*
X-25362537Y72073249D01*
X-25526322Y71963811D01*
X-25708311Y71888429D01*
X-25772710Y71875619D01*
X-25901507Y71850000D01*
X-26098493Y71850000D01*
X-26227290Y71875619D01*
X-26291689Y71888429D01*
X-26473678Y71963811D01*
X-26637463Y72073249D01*
X-26776751Y72212537D01*
X-26886189Y72376322D01*
X-26961571Y72558311D01*
X-26974381Y72622710D01*
X-27000000Y72751507D01*
X-27000000Y72948493D01*
X-26961571Y73141688D01*
X-26945051Y73181571D01*
X-26886189Y73323678D01*
X-26776751Y73487463D01*
X-26637463Y73626751D01*
X-26473678Y73736189D01*
X-26291689Y73811571D01*
X-26227290Y73824381D01*
X-26098493Y73850000D01*
X-25901507Y73850000D01*
X-25772710Y73824381D01*
X-25772710Y73824381D01*
G37*
G36*
X-2772710Y73824381D02*
G01*
X-2708311Y73811571D01*
X-2526322Y73736189D01*
X-2362537Y73626751D01*
X-2223249Y73487463D01*
X-2113811Y73323678D01*
X-2054949Y73181571D01*
X-2038429Y73141688D01*
X-2000000Y72948493D01*
X-2000000Y72751507D01*
X-2025619Y72622710D01*
X-2038429Y72558311D01*
X-2113811Y72376322D01*
X-2223249Y72212537D01*
X-2362537Y72073249D01*
X-2526322Y71963811D01*
X-2708311Y71888429D01*
X-2772710Y71875619D01*
X-2901507Y71850000D01*
X-3098493Y71850000D01*
X-3227290Y71875619D01*
X-3291689Y71888429D01*
X-3473678Y71963811D01*
X-3637463Y72073249D01*
X-3776751Y72212537D01*
X-3886189Y72376322D01*
X-3961571Y72558311D01*
X-3974381Y72622710D01*
X-4000000Y72751507D01*
X-4000000Y72948493D01*
X-3961571Y73141688D01*
X-3945051Y73181571D01*
X-3886189Y73323678D01*
X-3776751Y73487463D01*
X-3637463Y73626751D01*
X-3473678Y73736189D01*
X-3291689Y73811571D01*
X-3227290Y73824381D01*
X-3098493Y73850000D01*
X-2901507Y73850000D01*
X-2772710Y73824381D01*
X-2772710Y73824381D01*
G37*
G36*
X-67839974Y77818885D02*
G01*
X-67621589Y77728427D01*
X-67621587Y77728426D01*
X-67425045Y77597101D01*
X-67257899Y77429955D01*
X-67139503Y77252763D01*
X-67126573Y77233411D01*
X-67036115Y77015026D01*
X-66990000Y76783191D01*
X-66990000Y76546809D01*
X-67036115Y76314974D01*
X-67106059Y76146115D01*
X-67126574Y76096587D01*
X-67257899Y75900045D01*
X-67425045Y75732899D01*
X-67621587Y75601574D01*
X-67621588Y75601573D01*
X-67621589Y75601573D01*
X-67839974Y75511115D01*
X-68071809Y75465000D01*
X-68308191Y75465000D01*
X-68540026Y75511115D01*
X-68758411Y75601573D01*
X-68758412Y75601573D01*
X-68758413Y75601574D01*
X-68954955Y75732899D01*
X-69122101Y75900045D01*
X-69253426Y76096587D01*
X-69273941Y76146115D01*
X-69343885Y76314974D01*
X-69390000Y76546809D01*
X-69390000Y76783191D01*
X-69343885Y77015026D01*
X-69253427Y77233411D01*
X-69240496Y77252763D01*
X-69122101Y77429955D01*
X-68954955Y77597101D01*
X-68758413Y77728426D01*
X-68758411Y77728427D01*
X-68540026Y77818885D01*
X-68308191Y77865000D01*
X-68071809Y77865000D01*
X-67839974Y77818885D01*
X-67839974Y77818885D01*
G37*
G36*
X-21839974Y77818885D02*
G01*
X-21621589Y77728427D01*
X-21621587Y77728426D01*
X-21425045Y77597101D01*
X-21257899Y77429955D01*
X-21139503Y77252763D01*
X-21126573Y77233411D01*
X-21036115Y77015026D01*
X-20990000Y76783191D01*
X-20990000Y76546809D01*
X-21036115Y76314974D01*
X-21106059Y76146115D01*
X-21126574Y76096587D01*
X-21257899Y75900045D01*
X-21425045Y75732899D01*
X-21621587Y75601574D01*
X-21621588Y75601573D01*
X-21621589Y75601573D01*
X-21839974Y75511115D01*
X-22071809Y75465000D01*
X-22308191Y75465000D01*
X-22540026Y75511115D01*
X-22758411Y75601573D01*
X-22758412Y75601573D01*
X-22758413Y75601574D01*
X-22954955Y75732899D01*
X-23122101Y75900045D01*
X-23253426Y76096587D01*
X-23273941Y76146115D01*
X-23343885Y76314974D01*
X-23390000Y76546809D01*
X-23390000Y76783191D01*
X-23343885Y77015026D01*
X-23253427Y77233411D01*
X-23240496Y77252763D01*
X-23122101Y77429955D01*
X-22954955Y77597101D01*
X-22758413Y77728426D01*
X-22758411Y77728427D01*
X-22540026Y77818885D01*
X-22308191Y77865000D01*
X-22071809Y77865000D01*
X-21839974Y77818885D01*
X-21839974Y77818885D01*
G37*
G36*
X208160026Y77818885D02*
G01*
X208378411Y77728427D01*
X208378413Y77728426D01*
X208574955Y77597101D01*
X208742101Y77429955D01*
X208860497Y77252763D01*
X208873427Y77233411D01*
X208963885Y77015026D01*
X209010000Y76783191D01*
X209010000Y76546809D01*
X208963885Y76314974D01*
X208893941Y76146115D01*
X208873426Y76096587D01*
X208742101Y75900045D01*
X208574955Y75732899D01*
X208378413Y75601574D01*
X208378412Y75601573D01*
X208378411Y75601573D01*
X208160026Y75511115D01*
X207928191Y75465000D01*
X207691809Y75465000D01*
X207459974Y75511115D01*
X207241589Y75601573D01*
X207241588Y75601573D01*
X207241587Y75601574D01*
X207045045Y75732899D01*
X206877899Y75900045D01*
X206746574Y76096587D01*
X206726059Y76146115D01*
X206656115Y76314974D01*
X206610000Y76546809D01*
X206610000Y76783191D01*
X206656115Y77015026D01*
X206746573Y77233411D01*
X206759504Y77252763D01*
X206877899Y77429955D01*
X207045045Y77597101D01*
X207241587Y77728426D01*
X207241589Y77728427D01*
X207459974Y77818885D01*
X207691809Y77865000D01*
X207928191Y77865000D01*
X208160026Y77818885D01*
X208160026Y77818885D01*
G37*
G36*
X-44839974Y77818885D02*
G01*
X-44621589Y77728427D01*
X-44621587Y77728426D01*
X-44425045Y77597101D01*
X-44257899Y77429955D01*
X-44139503Y77252763D01*
X-44126573Y77233411D01*
X-44036115Y77015026D01*
X-43990000Y76783191D01*
X-43990000Y76546809D01*
X-44036115Y76314974D01*
X-44106059Y76146115D01*
X-44126574Y76096587D01*
X-44257899Y75900045D01*
X-44425045Y75732899D01*
X-44621587Y75601574D01*
X-44621588Y75601573D01*
X-44621589Y75601573D01*
X-44839974Y75511115D01*
X-45071809Y75465000D01*
X-45308191Y75465000D01*
X-45540026Y75511115D01*
X-45758411Y75601573D01*
X-45758412Y75601573D01*
X-45758413Y75601574D01*
X-45954955Y75732899D01*
X-46122101Y75900045D01*
X-46253426Y76096587D01*
X-46273941Y76146115D01*
X-46343885Y76314974D01*
X-46390000Y76546809D01*
X-46390000Y76783191D01*
X-46343885Y77015026D01*
X-46253427Y77233411D01*
X-46240496Y77252763D01*
X-46122101Y77429955D01*
X-45954955Y77597101D01*
X-45758413Y77728426D01*
X-45758411Y77728427D01*
X-45540026Y77818885D01*
X-45308191Y77865000D01*
X-45071809Y77865000D01*
X-44839974Y77818885D01*
X-44839974Y77818885D01*
G37*
G36*
X1160026Y77818885D02*
G01*
X1378411Y77728427D01*
X1378413Y77728426D01*
X1574955Y77597101D01*
X1742101Y77429955D01*
X1860497Y77252763D01*
X1873427Y77233411D01*
X1963885Y77015026D01*
X2010000Y76783191D01*
X2010000Y76546809D01*
X1963885Y76314974D01*
X1893941Y76146115D01*
X1873426Y76096587D01*
X1742101Y75900045D01*
X1574955Y75732899D01*
X1378413Y75601574D01*
X1378412Y75601573D01*
X1378411Y75601573D01*
X1160026Y75511115D01*
X928191Y75465000D01*
X691809Y75465000D01*
X459974Y75511115D01*
X241589Y75601573D01*
X241588Y75601573D01*
X241587Y75601574D01*
X45045Y75732899D01*
X-122101Y75900045D01*
X-253426Y76096587D01*
X-273941Y76146115D01*
X-343885Y76314974D01*
X-390000Y76546809D01*
X-390000Y76783191D01*
X-343885Y77015026D01*
X-253427Y77233411D01*
X-240496Y77252763D01*
X-122101Y77429955D01*
X45045Y77597101D01*
X241587Y77728426D01*
X241589Y77728427D01*
X459974Y77818885D01*
X691809Y77865000D01*
X928191Y77865000D01*
X1160026Y77818885D01*
X1160026Y77818885D01*
G37*
G36*
X-6459974Y78453885D02*
G01*
X-6241589Y78363427D01*
X-6241587Y78363426D01*
X-6045045Y78232101D01*
X-5877899Y78064955D01*
X-5771188Y77905251D01*
X-5746573Y77868411D01*
X-5656115Y77650026D01*
X-5610000Y77418191D01*
X-5610000Y77181809D01*
X-5656115Y76949974D01*
X-5725199Y76783191D01*
X-5746574Y76731587D01*
X-5877899Y76535045D01*
X-6045045Y76367899D01*
X-6241587Y76236574D01*
X-6241588Y76236573D01*
X-6241589Y76236573D01*
X-6459974Y76146115D01*
X-6691809Y76100000D01*
X-6928191Y76100000D01*
X-7160026Y76146115D01*
X-7378411Y76236573D01*
X-7378412Y76236573D01*
X-7378413Y76236574D01*
X-7574955Y76367899D01*
X-7742101Y76535045D01*
X-7873426Y76731587D01*
X-7894801Y76783191D01*
X-7963885Y76949974D01*
X-8010000Y77181809D01*
X-8010000Y77418191D01*
X-7963885Y77650026D01*
X-7873427Y77868411D01*
X-7848811Y77905251D01*
X-7742101Y78064955D01*
X-7574955Y78232101D01*
X-7378413Y78363426D01*
X-7378411Y78363427D01*
X-7160026Y78453885D01*
X-6928191Y78500000D01*
X-6691809Y78500000D01*
X-6459974Y78453885D01*
X-6459974Y78453885D01*
G37*
G36*
X-52459974Y78453885D02*
G01*
X-52241589Y78363427D01*
X-52241587Y78363426D01*
X-52045045Y78232101D01*
X-51877899Y78064955D01*
X-51771188Y77905251D01*
X-51746573Y77868411D01*
X-51656115Y77650026D01*
X-51610000Y77418191D01*
X-51610000Y77181809D01*
X-51656115Y76949974D01*
X-51725199Y76783191D01*
X-51746574Y76731587D01*
X-51877899Y76535045D01*
X-52045045Y76367899D01*
X-52241587Y76236574D01*
X-52241588Y76236573D01*
X-52241589Y76236573D01*
X-52459974Y76146115D01*
X-52691809Y76100000D01*
X-52928191Y76100000D01*
X-53160026Y76146115D01*
X-53378411Y76236573D01*
X-53378412Y76236573D01*
X-53378413Y76236574D01*
X-53574955Y76367899D01*
X-53742101Y76535045D01*
X-53873426Y76731587D01*
X-53894801Y76783191D01*
X-53963885Y76949974D01*
X-54010000Y77181809D01*
X-54010000Y77418191D01*
X-53963885Y77650026D01*
X-53873427Y77868411D01*
X-53848811Y77905251D01*
X-53742101Y78064955D01*
X-53574955Y78232101D01*
X-53378413Y78363426D01*
X-53378411Y78363427D01*
X-53160026Y78453885D01*
X-52928191Y78500000D01*
X-52691809Y78500000D01*
X-52459974Y78453885D01*
X-52459974Y78453885D01*
G37*
G36*
X200540026Y78453885D02*
G01*
X200758411Y78363427D01*
X200758413Y78363426D01*
X200954955Y78232101D01*
X201122101Y78064955D01*
X201228812Y77905251D01*
X201253427Y77868411D01*
X201343885Y77650026D01*
X201390000Y77418191D01*
X201390000Y77181809D01*
X201343885Y76949974D01*
X201274801Y76783191D01*
X201253426Y76731587D01*
X201122101Y76535045D01*
X200954955Y76367899D01*
X200758413Y76236574D01*
X200758412Y76236573D01*
X200758411Y76236573D01*
X200540026Y76146115D01*
X200308191Y76100000D01*
X200071809Y76100000D01*
X199839974Y76146115D01*
X199621589Y76236573D01*
X199621588Y76236573D01*
X199621587Y76236574D01*
X199425045Y76367899D01*
X199257899Y76535045D01*
X199126574Y76731587D01*
X199105199Y76783191D01*
X199036115Y76949974D01*
X198990000Y77181809D01*
X198990000Y77418191D01*
X199036115Y77650026D01*
X199126573Y77868411D01*
X199151189Y77905251D01*
X199257899Y78064955D01*
X199425045Y78232101D01*
X199621587Y78363426D01*
X199621589Y78363427D01*
X199839974Y78453885D01*
X200071809Y78500000D01*
X200308191Y78500000D01*
X200540026Y78453885D01*
X200540026Y78453885D01*
G37*
G36*
X-29459974Y78453885D02*
G01*
X-29241589Y78363427D01*
X-29241587Y78363426D01*
X-29045045Y78232101D01*
X-28877899Y78064955D01*
X-28771188Y77905251D01*
X-28746573Y77868411D01*
X-28656115Y77650026D01*
X-28610000Y77418191D01*
X-28610000Y77181809D01*
X-28656115Y76949974D01*
X-28725199Y76783191D01*
X-28746574Y76731587D01*
X-28877899Y76535045D01*
X-29045045Y76367899D01*
X-29241587Y76236574D01*
X-29241588Y76236573D01*
X-29241589Y76236573D01*
X-29459974Y76146115D01*
X-29691809Y76100000D01*
X-29928191Y76100000D01*
X-30160026Y76146115D01*
X-30378411Y76236573D01*
X-30378412Y76236573D01*
X-30378413Y76236574D01*
X-30574955Y76367899D01*
X-30742101Y76535045D01*
X-30873426Y76731587D01*
X-30894801Y76783191D01*
X-30963885Y76949974D01*
X-31010000Y77181809D01*
X-31010000Y77418191D01*
X-30963885Y77650026D01*
X-30873427Y77868411D01*
X-30848811Y77905251D01*
X-30742101Y78064955D01*
X-30574955Y78232101D01*
X-30378413Y78363426D01*
X-30378411Y78363427D01*
X-30160026Y78453885D01*
X-29928191Y78500000D01*
X-29691809Y78500000D01*
X-29459974Y78453885D01*
X-29459974Y78453885D01*
G37*
G36*
X-75459974Y78453885D02*
G01*
X-75241589Y78363427D01*
X-75241587Y78363426D01*
X-75045045Y78232101D01*
X-74877899Y78064955D01*
X-74771188Y77905251D01*
X-74746573Y77868411D01*
X-74656115Y77650026D01*
X-74610000Y77418191D01*
X-74610000Y77181809D01*
X-74656115Y76949974D01*
X-74725199Y76783191D01*
X-74746574Y76731587D01*
X-74877899Y76535045D01*
X-75045045Y76367899D01*
X-75241587Y76236574D01*
X-75241588Y76236573D01*
X-75241589Y76236573D01*
X-75459974Y76146115D01*
X-75691809Y76100000D01*
X-75928191Y76100000D01*
X-76160026Y76146115D01*
X-76378411Y76236573D01*
X-76378412Y76236573D01*
X-76378413Y76236574D01*
X-76574955Y76367899D01*
X-76742101Y76535045D01*
X-76873426Y76731587D01*
X-76894801Y76783191D01*
X-76963885Y76949974D01*
X-77010000Y77181809D01*
X-77010000Y77418191D01*
X-76963885Y77650026D01*
X-76873427Y77868411D01*
X-76848811Y77905251D01*
X-76742101Y78064955D01*
X-76574955Y78232101D01*
X-76378413Y78363426D01*
X-76378411Y78363427D01*
X-76160026Y78453885D01*
X-75928191Y78500000D01*
X-75691809Y78500000D01*
X-75459974Y78453885D01*
X-75459974Y78453885D01*
G37*
G36*
X181227290Y78274381D02*
G01*
X181291689Y78261571D01*
X181473678Y78186189D01*
X181637463Y78076751D01*
X181776751Y77937463D01*
X181886189Y77773678D01*
X181937407Y77650026D01*
X181961571Y77591688D01*
X182000000Y77398493D01*
X182000000Y77201507D01*
X181974830Y77074969D01*
X181961571Y77008311D01*
X181886189Y76826322D01*
X181776751Y76662537D01*
X181637463Y76523249D01*
X181473678Y76413811D01*
X181291689Y76338429D01*
X181227290Y76325619D01*
X181098493Y76300000D01*
X180901507Y76300000D01*
X180772710Y76325619D01*
X180708311Y76338429D01*
X180526322Y76413811D01*
X180362537Y76523249D01*
X180223249Y76662537D01*
X180113811Y76826322D01*
X180038429Y77008311D01*
X180025170Y77074969D01*
X180000000Y77201507D01*
X180000000Y77398493D01*
X180038429Y77591688D01*
X180062593Y77650026D01*
X180113811Y77773678D01*
X180223249Y77937463D01*
X180362537Y78076751D01*
X180526322Y78186189D01*
X180708311Y78261571D01*
X180772710Y78274381D01*
X180901507Y78300000D01*
X181098493Y78300000D01*
X181227290Y78274381D01*
X181227290Y78274381D01*
G37*
G36*
X89227290Y78274381D02*
G01*
X89291689Y78261571D01*
X89473678Y78186189D01*
X89637463Y78076751D01*
X89776751Y77937463D01*
X89886189Y77773678D01*
X89937407Y77650026D01*
X89961571Y77591688D01*
X90000000Y77398493D01*
X90000000Y77201507D01*
X89974830Y77074969D01*
X89961571Y77008311D01*
X89886189Y76826322D01*
X89776751Y76662537D01*
X89637463Y76523249D01*
X89473678Y76413811D01*
X89291689Y76338429D01*
X89227290Y76325619D01*
X89098493Y76300000D01*
X88901507Y76300000D01*
X88772710Y76325619D01*
X88708311Y76338429D01*
X88526322Y76413811D01*
X88362537Y76523249D01*
X88223249Y76662537D01*
X88113811Y76826322D01*
X88038429Y77008311D01*
X88025170Y77074969D01*
X88000000Y77201507D01*
X88000000Y77398493D01*
X88038429Y77591688D01*
X88062593Y77650026D01*
X88113811Y77773678D01*
X88223249Y77937463D01*
X88362537Y78076751D01*
X88526322Y78186189D01*
X88708311Y78261571D01*
X88772710Y78274381D01*
X88901507Y78300000D01*
X89098493Y78300000D01*
X89227290Y78274381D01*
X89227290Y78274381D01*
G37*
G36*
X112227290Y78274381D02*
G01*
X112291689Y78261571D01*
X112473678Y78186189D01*
X112637463Y78076751D01*
X112776751Y77937463D01*
X112886189Y77773678D01*
X112937407Y77650026D01*
X112961571Y77591688D01*
X113000000Y77398493D01*
X113000000Y77201507D01*
X112974830Y77074969D01*
X112961571Y77008311D01*
X112886189Y76826322D01*
X112776751Y76662537D01*
X112637463Y76523249D01*
X112473678Y76413811D01*
X112291689Y76338429D01*
X112227290Y76325619D01*
X112098493Y76300000D01*
X111901507Y76300000D01*
X111772710Y76325619D01*
X111708311Y76338429D01*
X111526322Y76413811D01*
X111362537Y76523249D01*
X111223249Y76662537D01*
X111113811Y76826322D01*
X111038429Y77008311D01*
X111025170Y77074969D01*
X111000000Y77201507D01*
X111000000Y77398493D01*
X111038429Y77591688D01*
X111062593Y77650026D01*
X111113811Y77773678D01*
X111223249Y77937463D01*
X111362537Y78076751D01*
X111526322Y78186189D01*
X111708311Y78261571D01*
X111772710Y78274381D01*
X111901507Y78300000D01*
X112098493Y78300000D01*
X112227290Y78274381D01*
X112227290Y78274381D01*
G37*
G36*
X66227290Y78274381D02*
G01*
X66291689Y78261571D01*
X66473678Y78186189D01*
X66637463Y78076751D01*
X66776751Y77937463D01*
X66886189Y77773678D01*
X66937407Y77650026D01*
X66961571Y77591688D01*
X67000000Y77398493D01*
X67000000Y77201507D01*
X66974830Y77074969D01*
X66961571Y77008311D01*
X66886189Y76826322D01*
X66776751Y76662537D01*
X66637463Y76523249D01*
X66473678Y76413811D01*
X66291689Y76338429D01*
X66227290Y76325619D01*
X66098493Y76300000D01*
X65901507Y76300000D01*
X65772710Y76325619D01*
X65708311Y76338429D01*
X65526322Y76413811D01*
X65362537Y76523249D01*
X65223249Y76662537D01*
X65113811Y76826322D01*
X65038429Y77008311D01*
X65025170Y77074969D01*
X65000000Y77201507D01*
X65000000Y77398493D01*
X65038429Y77591688D01*
X65062593Y77650026D01*
X65113811Y77773678D01*
X65223249Y77937463D01*
X65362537Y78076751D01*
X65526322Y78186189D01*
X65708311Y78261571D01*
X65772710Y78274381D01*
X65901507Y78300000D01*
X66098493Y78300000D01*
X66227290Y78274381D01*
X66227290Y78274381D01*
G37*
G36*
X135227290Y78274381D02*
G01*
X135291689Y78261571D01*
X135473678Y78186189D01*
X135637463Y78076751D01*
X135776751Y77937463D01*
X135886189Y77773678D01*
X135937407Y77650026D01*
X135961571Y77591688D01*
X136000000Y77398493D01*
X136000000Y77201507D01*
X135974830Y77074969D01*
X135961571Y77008311D01*
X135886189Y76826322D01*
X135776751Y76662537D01*
X135637463Y76523249D01*
X135473678Y76413811D01*
X135291689Y76338429D01*
X135227290Y76325619D01*
X135098493Y76300000D01*
X134901507Y76300000D01*
X134772710Y76325619D01*
X134708311Y76338429D01*
X134526322Y76413811D01*
X134362537Y76523249D01*
X134223249Y76662537D01*
X134113811Y76826322D01*
X134038429Y77008311D01*
X134025170Y77074969D01*
X134000000Y77201507D01*
X134000000Y77398493D01*
X134038429Y77591688D01*
X134062593Y77650026D01*
X134113811Y77773678D01*
X134223249Y77937463D01*
X134362537Y78076751D01*
X134526322Y78186189D01*
X134708311Y78261571D01*
X134772710Y78274381D01*
X134901507Y78300000D01*
X135098493Y78300000D01*
X135227290Y78274381D01*
X135227290Y78274381D01*
G37*
G36*
X227227290Y78274381D02*
G01*
X227291689Y78261571D01*
X227473678Y78186189D01*
X227637463Y78076751D01*
X227776751Y77937463D01*
X227886189Y77773678D01*
X227937407Y77650026D01*
X227961571Y77591688D01*
X228000000Y77398493D01*
X228000000Y77201507D01*
X227974830Y77074969D01*
X227961571Y77008311D01*
X227886189Y76826322D01*
X227776751Y76662537D01*
X227637463Y76523249D01*
X227473678Y76413811D01*
X227291689Y76338429D01*
X227227290Y76325619D01*
X227098493Y76300000D01*
X226901507Y76300000D01*
X226772710Y76325619D01*
X226708311Y76338429D01*
X226526322Y76413811D01*
X226362537Y76523249D01*
X226223249Y76662537D01*
X226113811Y76826322D01*
X226038429Y77008311D01*
X226025170Y77074969D01*
X226000000Y77201507D01*
X226000000Y77398493D01*
X226038429Y77591688D01*
X226062593Y77650026D01*
X226113811Y77773678D01*
X226223249Y77937463D01*
X226362537Y78076751D01*
X226526322Y78186189D01*
X226708311Y78261571D01*
X226772710Y78274381D01*
X226901507Y78300000D01*
X227098493Y78300000D01*
X227227290Y78274381D01*
X227227290Y78274381D01*
G37*
G36*
X43227290Y78274381D02*
G01*
X43291689Y78261571D01*
X43473678Y78186189D01*
X43637463Y78076751D01*
X43776751Y77937463D01*
X43886189Y77773678D01*
X43937407Y77650026D01*
X43961571Y77591688D01*
X44000000Y77398493D01*
X44000000Y77201507D01*
X43974830Y77074969D01*
X43961571Y77008311D01*
X43886189Y76826322D01*
X43776751Y76662537D01*
X43637463Y76523249D01*
X43473678Y76413811D01*
X43291689Y76338429D01*
X43227290Y76325619D01*
X43098493Y76300000D01*
X42901507Y76300000D01*
X42772710Y76325619D01*
X42708311Y76338429D01*
X42526322Y76413811D01*
X42362537Y76523249D01*
X42223249Y76662537D01*
X42113811Y76826322D01*
X42038429Y77008311D01*
X42025170Y77074969D01*
X42000000Y77201507D01*
X42000000Y77398493D01*
X42038429Y77591688D01*
X42062593Y77650026D01*
X42113811Y77773678D01*
X42223249Y77937463D01*
X42362537Y78076751D01*
X42526322Y78186189D01*
X42708311Y78261571D01*
X42772710Y78274381D01*
X42901507Y78300000D01*
X43098493Y78300000D01*
X43227290Y78274381D01*
X43227290Y78274381D01*
G37*
G36*
X158227290Y78274381D02*
G01*
X158291689Y78261571D01*
X158473678Y78186189D01*
X158637463Y78076751D01*
X158776751Y77937463D01*
X158886189Y77773678D01*
X158937407Y77650026D01*
X158961571Y77591688D01*
X159000000Y77398493D01*
X159000000Y77201507D01*
X158974830Y77074969D01*
X158961571Y77008311D01*
X158886189Y76826322D01*
X158776751Y76662537D01*
X158637463Y76523249D01*
X158473678Y76413811D01*
X158291689Y76338429D01*
X158227290Y76325619D01*
X158098493Y76300000D01*
X157901507Y76300000D01*
X157772710Y76325619D01*
X157708311Y76338429D01*
X157526322Y76413811D01*
X157362537Y76523249D01*
X157223249Y76662537D01*
X157113811Y76826322D01*
X157038429Y77008311D01*
X157025170Y77074969D01*
X157000000Y77201507D01*
X157000000Y77398493D01*
X157038429Y77591688D01*
X157062593Y77650026D01*
X157113811Y77773678D01*
X157223249Y77937463D01*
X157362537Y78076751D01*
X157526322Y78186189D01*
X157708311Y78261571D01*
X157772710Y78274381D01*
X157901507Y78300000D01*
X158098493Y78300000D01*
X158227290Y78274381D01*
X158227290Y78274381D01*
G37*
G36*
X20227290Y78274381D02*
G01*
X20291689Y78261571D01*
X20473678Y78186189D01*
X20637463Y78076751D01*
X20776751Y77937463D01*
X20886189Y77773678D01*
X20937407Y77650026D01*
X20961571Y77591688D01*
X21000000Y77398493D01*
X21000000Y77201507D01*
X20974830Y77074969D01*
X20961571Y77008311D01*
X20886189Y76826322D01*
X20776751Y76662537D01*
X20637463Y76523249D01*
X20473678Y76413811D01*
X20291689Y76338429D01*
X20227290Y76325619D01*
X20098493Y76300000D01*
X19901507Y76300000D01*
X19772710Y76325619D01*
X19708311Y76338429D01*
X19526322Y76413811D01*
X19362537Y76523249D01*
X19223249Y76662537D01*
X19113811Y76826322D01*
X19038429Y77008311D01*
X19025170Y77074969D01*
X19000000Y77201507D01*
X19000000Y77398493D01*
X19038429Y77591688D01*
X19062593Y77650026D01*
X19113811Y77773678D01*
X19223249Y77937463D01*
X19362537Y78076751D01*
X19526322Y78186189D01*
X19708311Y78261571D01*
X19772710Y78274381D01*
X19901507Y78300000D01*
X20098493Y78300000D01*
X20227290Y78274381D01*
X20227290Y78274381D01*
G37*
G36*
X276010604Y80924012D02*
G01*
X276098142Y80887752D01*
X276185678Y80851494D01*
X276185679Y80851493D01*
X276343237Y80746217D01*
X276477237Y80612217D01*
X276565007Y80480859D01*
X276582514Y80454658D01*
X276655032Y80279584D01*
X276692000Y80093730D01*
X276692000Y79904230D01*
X276655032Y79718376D01*
X276632590Y79664197D01*
X276582514Y79543302D01*
X276582513Y79543301D01*
X276477237Y79385743D01*
X276343237Y79251743D01*
X276185681Y79146468D01*
X276185678Y79146466D01*
X276109645Y79114972D01*
X276088038Y79103423D01*
X276069096Y79087877D01*
X276053551Y79068935D01*
X276042000Y79047324D01*
X276034887Y79023876D01*
X276032485Y78999489D01*
X276034887Y78975103D01*
X276042000Y78951654D01*
X276053551Y78930044D01*
X276069097Y78911102D01*
X276088039Y78895557D01*
X276109645Y78884008D01*
X276185678Y78852514D01*
X276185681Y78852512D01*
X276343237Y78747237D01*
X276477237Y78613237D01*
X276552899Y78500000D01*
X276582514Y78455678D01*
X276583257Y78453884D01*
X276655032Y78280604D01*
X276692000Y78094750D01*
X276692000Y77905250D01*
X276655032Y77719396D01*
X276626298Y77650027D01*
X276582514Y77544322D01*
X276582513Y77544321D01*
X276477237Y77386763D01*
X276343237Y77252763D01*
X276211879Y77164993D01*
X276185678Y77147486D01*
X276010604Y77074968D01*
X275824750Y77038000D01*
X275635250Y77038000D01*
X275449396Y77074968D01*
X275274322Y77147486D01*
X275248121Y77164993D01*
X275116763Y77252763D01*
X274982763Y77386763D01*
X274877487Y77544321D01*
X274877486Y77544322D01*
X274833702Y77650027D01*
X274804968Y77719396D01*
X274768000Y77905250D01*
X274768000Y78094750D01*
X274804968Y78280604D01*
X274876743Y78453884D01*
X274877486Y78455678D01*
X274907101Y78500000D01*
X274982763Y78613237D01*
X275116763Y78747237D01*
X275274319Y78852512D01*
X275274322Y78852514D01*
X275350355Y78884008D01*
X275371962Y78895557D01*
X275390904Y78911103D01*
X275406449Y78930045D01*
X275418000Y78951656D01*
X275425113Y78975104D01*
X275427515Y78999491D01*
X275425113Y79023877D01*
X275418000Y79047326D01*
X275406449Y79068936D01*
X275390903Y79087878D01*
X275371961Y79103423D01*
X275350355Y79114972D01*
X275274322Y79146466D01*
X275274319Y79146468D01*
X275116763Y79251743D01*
X274982763Y79385743D01*
X274877487Y79543301D01*
X274877486Y79543302D01*
X274827410Y79664197D01*
X274804968Y79718376D01*
X274768000Y79904230D01*
X274768000Y80093730D01*
X274804968Y80279584D01*
X274841228Y80367122D01*
X274877486Y80454658D01*
X274894993Y80480859D01*
X274982763Y80612217D01*
X275116763Y80746217D01*
X275274321Y80851493D01*
X275274322Y80851494D01*
X275449396Y80924012D01*
X275635250Y80960980D01*
X275824750Y80960980D01*
X276010604Y80924012D01*
X276010604Y80924012D01*
G37*
G36*
X278550604Y80924012D02*
G01*
X278638142Y80887752D01*
X278725678Y80851494D01*
X278725679Y80851493D01*
X278883237Y80746217D01*
X279017237Y80612217D01*
X279105007Y80480859D01*
X279122514Y80454658D01*
X279195032Y80279584D01*
X279232000Y80093730D01*
X279232000Y79904230D01*
X279195032Y79718376D01*
X279172590Y79664197D01*
X279122514Y79543302D01*
X279122513Y79543301D01*
X279017237Y79385743D01*
X278883237Y79251743D01*
X278725681Y79146468D01*
X278725678Y79146466D01*
X278649645Y79114972D01*
X278628038Y79103423D01*
X278609096Y79087877D01*
X278593551Y79068935D01*
X278582000Y79047324D01*
X278574887Y79023876D01*
X278572485Y78999489D01*
X278574887Y78975103D01*
X278582000Y78951654D01*
X278593551Y78930044D01*
X278609097Y78911102D01*
X278628039Y78895557D01*
X278649645Y78884008D01*
X278725678Y78852514D01*
X278725681Y78852512D01*
X278883237Y78747237D01*
X279017237Y78613237D01*
X279092899Y78500000D01*
X279122514Y78455678D01*
X279123257Y78453884D01*
X279195032Y78280604D01*
X279232000Y78094750D01*
X279232000Y77905250D01*
X279195032Y77719396D01*
X279166298Y77650027D01*
X279122514Y77544322D01*
X279122513Y77544321D01*
X279017237Y77386763D01*
X278883237Y77252763D01*
X278751879Y77164993D01*
X278725678Y77147486D01*
X278550604Y77074968D01*
X278364750Y77038000D01*
X278175250Y77038000D01*
X277989396Y77074968D01*
X277814322Y77147486D01*
X277788121Y77164993D01*
X277656763Y77252763D01*
X277522763Y77386763D01*
X277417487Y77544321D01*
X277417486Y77544322D01*
X277373702Y77650027D01*
X277344968Y77719396D01*
X277308000Y77905250D01*
X277308000Y78094750D01*
X277344968Y78280604D01*
X277416743Y78453884D01*
X277417486Y78455678D01*
X277447101Y78500000D01*
X277522763Y78613237D01*
X277656763Y78747237D01*
X277814319Y78852512D01*
X277814322Y78852514D01*
X277890355Y78884008D01*
X277911962Y78895557D01*
X277930904Y78911103D01*
X277946449Y78930045D01*
X277958000Y78951656D01*
X277965113Y78975104D01*
X277967515Y78999491D01*
X277965113Y79023877D01*
X277958000Y79047326D01*
X277946449Y79068936D01*
X277930903Y79087878D01*
X277911961Y79103423D01*
X277890355Y79114972D01*
X277814322Y79146466D01*
X277814319Y79146468D01*
X277656763Y79251743D01*
X277522763Y79385743D01*
X277417487Y79543301D01*
X277417486Y79543302D01*
X277367410Y79664197D01*
X277344968Y79718376D01*
X277308000Y79904230D01*
X277308000Y80093730D01*
X277344968Y80279584D01*
X277381228Y80367122D01*
X277417486Y80454658D01*
X277434993Y80480859D01*
X277522763Y80612217D01*
X277656763Y80746217D01*
X277814321Y80851493D01*
X277814322Y80851494D01*
X277989396Y80924012D01*
X278175250Y80960980D01*
X278364750Y80960980D01*
X278550604Y80924012D01*
X278550604Y80924012D01*
G37*
G36*
X291933404Y85577026D02*
G01*
X292515767Y85335804D01*
X292515768Y85335803D01*
X293039881Y84985602D01*
X293485602Y84539881D01*
X293679956Y84249010D01*
X293835804Y84015767D01*
X294077026Y83433404D01*
X294200000Y82815174D01*
X294200000Y82184826D01*
X294077026Y81566596D01*
X293835804Y80984233D01*
X293795565Y80924011D01*
X293485602Y80460119D01*
X293039881Y80014398D01*
X292689679Y79780401D01*
X292515767Y79664196D01*
X291933404Y79422974D01*
X291315174Y79300000D01*
X290684826Y79300000D01*
X290066596Y79422974D01*
X289484233Y79664196D01*
X289310321Y79780401D01*
X288960119Y80014398D01*
X288514398Y80460119D01*
X288204435Y80924011D01*
X288164196Y80984233D01*
X287922974Y81566596D01*
X287800000Y82184826D01*
X287800000Y82815174D01*
X287922974Y83433404D01*
X288164196Y84015767D01*
X288320044Y84249010D01*
X288514398Y84539881D01*
X288960119Y84985602D01*
X289484232Y85335803D01*
X289484233Y85335804D01*
X290066596Y85577026D01*
X290684826Y85700000D01*
X291315174Y85700000D01*
X291933404Y85577026D01*
X291933404Y85577026D01*
G37*
G36*
X47160026Y82263885D02*
G01*
X47350891Y82184826D01*
X47378413Y82173426D01*
X47574955Y82042101D01*
X47742101Y81874955D01*
X47851702Y81710926D01*
X47873427Y81678411D01*
X47963885Y81460026D01*
X48010000Y81228191D01*
X48010000Y80991809D01*
X47963885Y80759974D01*
X47958185Y80746214D01*
X47873426Y80541587D01*
X47742101Y80345045D01*
X47574955Y80177899D01*
X47378413Y80046574D01*
X47378412Y80046573D01*
X47378411Y80046573D01*
X47160026Y79956115D01*
X46928191Y79910000D01*
X46691809Y79910000D01*
X46459974Y79956115D01*
X46241589Y80046573D01*
X46241588Y80046573D01*
X46241587Y80046574D01*
X46045045Y80177899D01*
X45877899Y80345045D01*
X45746574Y80541587D01*
X45661815Y80746214D01*
X45656115Y80759974D01*
X45610000Y80991809D01*
X45610000Y81228191D01*
X45656115Y81460026D01*
X45746573Y81678411D01*
X45768299Y81710926D01*
X45877899Y81874955D01*
X46045045Y82042101D01*
X46241587Y82173426D01*
X46269109Y82184826D01*
X46459974Y82263885D01*
X46691809Y82310000D01*
X46928191Y82310000D01*
X47160026Y82263885D01*
X47160026Y82263885D01*
G37*
G36*
X1160026Y82263885D02*
G01*
X1350891Y82184826D01*
X1378413Y82173426D01*
X1574955Y82042101D01*
X1742101Y81874955D01*
X1851702Y81710926D01*
X1873427Y81678411D01*
X1963885Y81460026D01*
X2010000Y81228191D01*
X2010000Y80991809D01*
X1963885Y80759974D01*
X1958185Y80746214D01*
X1873426Y80541587D01*
X1742101Y80345045D01*
X1574955Y80177899D01*
X1378413Y80046574D01*
X1378412Y80046573D01*
X1378411Y80046573D01*
X1160026Y79956115D01*
X928191Y79910000D01*
X691809Y79910000D01*
X459974Y79956115D01*
X241589Y80046573D01*
X241588Y80046573D01*
X241587Y80046574D01*
X45045Y80177899D01*
X-122101Y80345045D01*
X-253426Y80541587D01*
X-338185Y80746214D01*
X-343885Y80759974D01*
X-390000Y80991809D01*
X-390000Y81228191D01*
X-343885Y81460026D01*
X-253427Y81678411D01*
X-231701Y81710926D01*
X-122101Y81874955D01*
X45045Y82042101D01*
X241587Y82173426D01*
X269109Y82184826D01*
X459974Y82263885D01*
X691809Y82310000D01*
X928191Y82310000D01*
X1160026Y82263885D01*
X1160026Y82263885D01*
G37*
G36*
X70160026Y82263885D02*
G01*
X70350891Y82184826D01*
X70378413Y82173426D01*
X70574955Y82042101D01*
X70742101Y81874955D01*
X70851702Y81710926D01*
X70873427Y81678411D01*
X70963885Y81460026D01*
X71010000Y81228191D01*
X71010000Y80991809D01*
X70963885Y80759974D01*
X70958185Y80746214D01*
X70873426Y80541587D01*
X70742101Y80345045D01*
X70574955Y80177899D01*
X70378413Y80046574D01*
X70378412Y80046573D01*
X70378411Y80046573D01*
X70160026Y79956115D01*
X69928191Y79910000D01*
X69691809Y79910000D01*
X69459974Y79956115D01*
X69241589Y80046573D01*
X69241588Y80046573D01*
X69241587Y80046574D01*
X69045045Y80177899D01*
X68877899Y80345045D01*
X68746574Y80541587D01*
X68661815Y80746214D01*
X68656115Y80759974D01*
X68610000Y80991809D01*
X68610000Y81228191D01*
X68656115Y81460026D01*
X68746573Y81678411D01*
X68768299Y81710926D01*
X68877899Y81874955D01*
X69045045Y82042101D01*
X69241587Y82173426D01*
X69269109Y82184826D01*
X69459974Y82263885D01*
X69691809Y82310000D01*
X69928191Y82310000D01*
X70160026Y82263885D01*
X70160026Y82263885D01*
G37*
G36*
X231160026Y82263885D02*
G01*
X231350891Y82184826D01*
X231378413Y82173426D01*
X231574955Y82042101D01*
X231742101Y81874955D01*
X231851702Y81710926D01*
X231873427Y81678411D01*
X231963885Y81460026D01*
X232010000Y81228191D01*
X232010000Y80991809D01*
X231963885Y80759974D01*
X231958185Y80746214D01*
X231873426Y80541587D01*
X231742101Y80345045D01*
X231574955Y80177899D01*
X231378413Y80046574D01*
X231378412Y80046573D01*
X231378411Y80046573D01*
X231160026Y79956115D01*
X230928191Y79910000D01*
X230691809Y79910000D01*
X230459974Y79956115D01*
X230241589Y80046573D01*
X230241588Y80046573D01*
X230241587Y80046574D01*
X230045045Y80177899D01*
X229877899Y80345045D01*
X229746574Y80541587D01*
X229661815Y80746214D01*
X229656115Y80759974D01*
X229610000Y80991809D01*
X229610000Y81228191D01*
X229656115Y81460026D01*
X229746573Y81678411D01*
X229768299Y81710926D01*
X229877899Y81874955D01*
X230045045Y82042101D01*
X230241587Y82173426D01*
X230269109Y82184826D01*
X230459974Y82263885D01*
X230691809Y82310000D01*
X230928191Y82310000D01*
X231160026Y82263885D01*
X231160026Y82263885D01*
G37*
G36*
X93160026Y82263885D02*
G01*
X93350891Y82184826D01*
X93378413Y82173426D01*
X93574955Y82042101D01*
X93742101Y81874955D01*
X93851702Y81710926D01*
X93873427Y81678411D01*
X93963885Y81460026D01*
X94010000Y81228191D01*
X94010000Y80991809D01*
X93963885Y80759974D01*
X93958185Y80746214D01*
X93873426Y80541587D01*
X93742101Y80345045D01*
X93574955Y80177899D01*
X93378413Y80046574D01*
X93378412Y80046573D01*
X93378411Y80046573D01*
X93160026Y79956115D01*
X92928191Y79910000D01*
X92691809Y79910000D01*
X92459974Y79956115D01*
X92241589Y80046573D01*
X92241588Y80046573D01*
X92241587Y80046574D01*
X92045045Y80177899D01*
X91877899Y80345045D01*
X91746574Y80541587D01*
X91661815Y80746214D01*
X91656115Y80759974D01*
X91610000Y80991809D01*
X91610000Y81228191D01*
X91656115Y81460026D01*
X91746573Y81678411D01*
X91768299Y81710926D01*
X91877899Y81874955D01*
X92045045Y82042101D01*
X92241587Y82173426D01*
X92269109Y82184826D01*
X92459974Y82263885D01*
X92691809Y82310000D01*
X92928191Y82310000D01*
X93160026Y82263885D01*
X93160026Y82263885D01*
G37*
G36*
X208160026Y82263885D02*
G01*
X208350891Y82184826D01*
X208378413Y82173426D01*
X208574955Y82042101D01*
X208742101Y81874955D01*
X208851702Y81710926D01*
X208873427Y81678411D01*
X208963885Y81460026D01*
X209010000Y81228191D01*
X209010000Y80991809D01*
X208963885Y80759974D01*
X208958185Y80746214D01*
X208873426Y80541587D01*
X208742101Y80345045D01*
X208574955Y80177899D01*
X208378413Y80046574D01*
X208378412Y80046573D01*
X208378411Y80046573D01*
X208160026Y79956115D01*
X207928191Y79910000D01*
X207691809Y79910000D01*
X207459974Y79956115D01*
X207241589Y80046573D01*
X207241588Y80046573D01*
X207241587Y80046574D01*
X207045045Y80177899D01*
X206877899Y80345045D01*
X206746574Y80541587D01*
X206661815Y80746214D01*
X206656115Y80759974D01*
X206610000Y80991809D01*
X206610000Y81228191D01*
X206656115Y81460026D01*
X206746573Y81678411D01*
X206768299Y81710926D01*
X206877899Y81874955D01*
X207045045Y82042101D01*
X207241587Y82173426D01*
X207269109Y82184826D01*
X207459974Y82263885D01*
X207691809Y82310000D01*
X207928191Y82310000D01*
X208160026Y82263885D01*
X208160026Y82263885D01*
G37*
G36*
X116160026Y82263885D02*
G01*
X116350891Y82184826D01*
X116378413Y82173426D01*
X116574955Y82042101D01*
X116742101Y81874955D01*
X116851702Y81710926D01*
X116873427Y81678411D01*
X116963885Y81460026D01*
X117010000Y81228191D01*
X117010000Y80991809D01*
X116963885Y80759974D01*
X116958185Y80746214D01*
X116873426Y80541587D01*
X116742101Y80345045D01*
X116574955Y80177899D01*
X116378413Y80046574D01*
X116378412Y80046573D01*
X116378411Y80046573D01*
X116160026Y79956115D01*
X115928191Y79910000D01*
X115691809Y79910000D01*
X115459974Y79956115D01*
X115241589Y80046573D01*
X115241588Y80046573D01*
X115241587Y80046574D01*
X115045045Y80177899D01*
X114877899Y80345045D01*
X114746574Y80541587D01*
X114661815Y80746214D01*
X114656115Y80759974D01*
X114610000Y80991809D01*
X114610000Y81228191D01*
X114656115Y81460026D01*
X114746573Y81678411D01*
X114768299Y81710926D01*
X114877899Y81874955D01*
X115045045Y82042101D01*
X115241587Y82173426D01*
X115269109Y82184826D01*
X115459974Y82263885D01*
X115691809Y82310000D01*
X115928191Y82310000D01*
X116160026Y82263885D01*
X116160026Y82263885D01*
G37*
G36*
X-67839974Y82263885D02*
G01*
X-67649109Y82184826D01*
X-67621587Y82173426D01*
X-67425045Y82042101D01*
X-67257899Y81874955D01*
X-67148298Y81710926D01*
X-67126573Y81678411D01*
X-67036115Y81460026D01*
X-66990000Y81228191D01*
X-66990000Y80991809D01*
X-67036115Y80759974D01*
X-67041815Y80746214D01*
X-67126574Y80541587D01*
X-67257899Y80345045D01*
X-67425045Y80177899D01*
X-67621587Y80046574D01*
X-67621588Y80046573D01*
X-67621589Y80046573D01*
X-67839974Y79956115D01*
X-68071809Y79910000D01*
X-68308191Y79910000D01*
X-68540026Y79956115D01*
X-68758411Y80046573D01*
X-68758412Y80046573D01*
X-68758413Y80046574D01*
X-68954955Y80177899D01*
X-69122101Y80345045D01*
X-69253426Y80541587D01*
X-69338185Y80746214D01*
X-69343885Y80759974D01*
X-69390000Y80991809D01*
X-69390000Y81228191D01*
X-69343885Y81460026D01*
X-69253427Y81678411D01*
X-69231701Y81710926D01*
X-69122101Y81874955D01*
X-68954955Y82042101D01*
X-68758413Y82173426D01*
X-68730891Y82184826D01*
X-68540026Y82263885D01*
X-68308191Y82310000D01*
X-68071809Y82310000D01*
X-67839974Y82263885D01*
X-67839974Y82263885D01*
G37*
G36*
X-44839974Y82263885D02*
G01*
X-44649109Y82184826D01*
X-44621587Y82173426D01*
X-44425045Y82042101D01*
X-44257899Y81874955D01*
X-44148298Y81710926D01*
X-44126573Y81678411D01*
X-44036115Y81460026D01*
X-43990000Y81228191D01*
X-43990000Y80991809D01*
X-44036115Y80759974D01*
X-44041815Y80746214D01*
X-44126574Y80541587D01*
X-44257899Y80345045D01*
X-44425045Y80177899D01*
X-44621587Y80046574D01*
X-44621588Y80046573D01*
X-44621589Y80046573D01*
X-44839974Y79956115D01*
X-45071809Y79910000D01*
X-45308191Y79910000D01*
X-45540026Y79956115D01*
X-45758411Y80046573D01*
X-45758412Y80046573D01*
X-45758413Y80046574D01*
X-45954955Y80177899D01*
X-46122101Y80345045D01*
X-46253426Y80541587D01*
X-46338185Y80746214D01*
X-46343885Y80759974D01*
X-46390000Y80991809D01*
X-46390000Y81228191D01*
X-46343885Y81460026D01*
X-46253427Y81678411D01*
X-46231701Y81710926D01*
X-46122101Y81874955D01*
X-45954955Y82042101D01*
X-45758413Y82173426D01*
X-45730891Y82184826D01*
X-45540026Y82263885D01*
X-45308191Y82310000D01*
X-45071809Y82310000D01*
X-44839974Y82263885D01*
X-44839974Y82263885D01*
G37*
G36*
X24160026Y82263885D02*
G01*
X24350891Y82184826D01*
X24378413Y82173426D01*
X24574955Y82042101D01*
X24742101Y81874955D01*
X24851702Y81710926D01*
X24873427Y81678411D01*
X24963885Y81460026D01*
X25010000Y81228191D01*
X25010000Y80991809D01*
X24963885Y80759974D01*
X24958185Y80746214D01*
X24873426Y80541587D01*
X24742101Y80345045D01*
X24574955Y80177899D01*
X24378413Y80046574D01*
X24378412Y80046573D01*
X24378411Y80046573D01*
X24160026Y79956115D01*
X23928191Y79910000D01*
X23691809Y79910000D01*
X23459974Y79956115D01*
X23241589Y80046573D01*
X23241588Y80046573D01*
X23241587Y80046574D01*
X23045045Y80177899D01*
X22877899Y80345045D01*
X22746574Y80541587D01*
X22661815Y80746214D01*
X22656115Y80759974D01*
X22610000Y80991809D01*
X22610000Y81228191D01*
X22656115Y81460026D01*
X22746573Y81678411D01*
X22768299Y81710926D01*
X22877899Y81874955D01*
X23045045Y82042101D01*
X23241587Y82173426D01*
X23269109Y82184826D01*
X23459974Y82263885D01*
X23691809Y82310000D01*
X23928191Y82310000D01*
X24160026Y82263885D01*
X24160026Y82263885D01*
G37*
G36*
X-21839974Y82263885D02*
G01*
X-21649109Y82184826D01*
X-21621587Y82173426D01*
X-21425045Y82042101D01*
X-21257899Y81874955D01*
X-21148298Y81710926D01*
X-21126573Y81678411D01*
X-21036115Y81460026D01*
X-20990000Y81228191D01*
X-20990000Y80991809D01*
X-21036115Y80759974D01*
X-21041815Y80746214D01*
X-21126574Y80541587D01*
X-21257899Y80345045D01*
X-21425045Y80177899D01*
X-21621587Y80046574D01*
X-21621588Y80046573D01*
X-21621589Y80046573D01*
X-21839974Y79956115D01*
X-22071809Y79910000D01*
X-22308191Y79910000D01*
X-22540026Y79956115D01*
X-22758411Y80046573D01*
X-22758412Y80046573D01*
X-22758413Y80046574D01*
X-22954955Y80177899D01*
X-23122101Y80345045D01*
X-23253426Y80541587D01*
X-23338185Y80746214D01*
X-23343885Y80759974D01*
X-23390000Y80991809D01*
X-23390000Y81228191D01*
X-23343885Y81460026D01*
X-23253427Y81678411D01*
X-23231701Y81710926D01*
X-23122101Y81874955D01*
X-22954955Y82042101D01*
X-22758413Y82173426D01*
X-22730891Y82184826D01*
X-22540026Y82263885D01*
X-22308191Y82310000D01*
X-22071809Y82310000D01*
X-21839974Y82263885D01*
X-21839974Y82263885D01*
G37*
G36*
X185160026Y82263885D02*
G01*
X185350891Y82184826D01*
X185378413Y82173426D01*
X185574955Y82042101D01*
X185742101Y81874955D01*
X185851702Y81710926D01*
X185873427Y81678411D01*
X185963885Y81460026D01*
X186010000Y81228191D01*
X186010000Y80991809D01*
X185963885Y80759974D01*
X185958185Y80746214D01*
X185873426Y80541587D01*
X185742101Y80345045D01*
X185574955Y80177899D01*
X185378413Y80046574D01*
X185378412Y80046573D01*
X185378411Y80046573D01*
X185160026Y79956115D01*
X184928191Y79910000D01*
X184691809Y79910000D01*
X184459974Y79956115D01*
X184241589Y80046573D01*
X184241588Y80046573D01*
X184241587Y80046574D01*
X184045045Y80177899D01*
X183877899Y80345045D01*
X183746574Y80541587D01*
X183661815Y80746214D01*
X183656115Y80759974D01*
X183610000Y80991809D01*
X183610000Y81228191D01*
X183656115Y81460026D01*
X183746573Y81678411D01*
X183768299Y81710926D01*
X183877899Y81874955D01*
X184045045Y82042101D01*
X184241587Y82173426D01*
X184269109Y82184826D01*
X184459974Y82263885D01*
X184691809Y82310000D01*
X184928191Y82310000D01*
X185160026Y82263885D01*
X185160026Y82263885D01*
G37*
G36*
X139160026Y82263885D02*
G01*
X139350891Y82184826D01*
X139378413Y82173426D01*
X139574955Y82042101D01*
X139742101Y81874955D01*
X139851702Y81710926D01*
X139873427Y81678411D01*
X139963885Y81460026D01*
X140010000Y81228191D01*
X140010000Y80991809D01*
X139963885Y80759974D01*
X139958185Y80746214D01*
X139873426Y80541587D01*
X139742101Y80345045D01*
X139574955Y80177899D01*
X139378413Y80046574D01*
X139378412Y80046573D01*
X139378411Y80046573D01*
X139160026Y79956115D01*
X138928191Y79910000D01*
X138691809Y79910000D01*
X138459974Y79956115D01*
X138241589Y80046573D01*
X138241588Y80046573D01*
X138241587Y80046574D01*
X138045045Y80177899D01*
X137877899Y80345045D01*
X137746574Y80541587D01*
X137661815Y80746214D01*
X137656115Y80759974D01*
X137610000Y80991809D01*
X137610000Y81228191D01*
X137656115Y81460026D01*
X137746573Y81678411D01*
X137768299Y81710926D01*
X137877899Y81874955D01*
X138045045Y82042101D01*
X138241587Y82173426D01*
X138269109Y82184826D01*
X138459974Y82263885D01*
X138691809Y82310000D01*
X138928191Y82310000D01*
X139160026Y82263885D01*
X139160026Y82263885D01*
G37*
G36*
X162160026Y82263885D02*
G01*
X162350891Y82184826D01*
X162378413Y82173426D01*
X162574955Y82042101D01*
X162742101Y81874955D01*
X162851702Y81710926D01*
X162873427Y81678411D01*
X162963885Y81460026D01*
X163010000Y81228191D01*
X163010000Y80991809D01*
X162963885Y80759974D01*
X162958185Y80746214D01*
X162873426Y80541587D01*
X162742101Y80345045D01*
X162574955Y80177899D01*
X162378413Y80046574D01*
X162378412Y80046573D01*
X162378411Y80046573D01*
X162160026Y79956115D01*
X161928191Y79910000D01*
X161691809Y79910000D01*
X161459974Y79956115D01*
X161241589Y80046573D01*
X161241588Y80046573D01*
X161241587Y80046574D01*
X161045045Y80177899D01*
X160877899Y80345045D01*
X160746574Y80541587D01*
X160661815Y80746214D01*
X160656115Y80759974D01*
X160610000Y80991809D01*
X160610000Y81228191D01*
X160656115Y81460026D01*
X160746573Y81678411D01*
X160768299Y81710926D01*
X160877899Y81874955D01*
X161045045Y82042101D01*
X161241587Y82173426D01*
X161269109Y82184826D01*
X161459974Y82263885D01*
X161691809Y82310000D01*
X161928191Y82310000D01*
X162160026Y82263885D01*
X162160026Y82263885D01*
G37*
G36*
X249802520Y82865414D02*
G01*
X249835716Y82851664D01*
X249966310Y82797570D01*
X250113717Y82699076D01*
X250239076Y82573717D01*
X250257371Y82546336D01*
X250337571Y82426308D01*
X250405414Y82262520D01*
X250423136Y82173427D01*
X250440000Y82088642D01*
X250440000Y81911358D01*
X250405414Y81737480D01*
X250337570Y81573690D01*
X250239076Y81426283D01*
X250113717Y81300924D01*
X249966310Y81202430D01*
X249966309Y81202429D01*
X249966308Y81202429D01*
X249802520Y81134586D01*
X249628644Y81100000D01*
X249451356Y81100000D01*
X249277480Y81134586D01*
X249113692Y81202429D01*
X249113691Y81202429D01*
X249113690Y81202430D01*
X248966283Y81300924D01*
X248840924Y81426283D01*
X248742430Y81573690D01*
X248674586Y81737480D01*
X248640000Y81911358D01*
X248640000Y82088642D01*
X248656865Y82173427D01*
X248674586Y82262520D01*
X248742429Y82426308D01*
X248822629Y82546336D01*
X248840924Y82573717D01*
X248966283Y82699076D01*
X249113690Y82797570D01*
X249244285Y82851664D01*
X249277480Y82865414D01*
X249451356Y82900000D01*
X249628644Y82900000D01*
X249802520Y82865414D01*
X249802520Y82865414D01*
G37*
G36*
X247262520Y82865414D02*
G01*
X247295716Y82851664D01*
X247426310Y82797570D01*
X247573717Y82699076D01*
X247699076Y82573717D01*
X247717371Y82546336D01*
X247797571Y82426308D01*
X247865414Y82262520D01*
X247883136Y82173427D01*
X247900000Y82088642D01*
X247900000Y81911358D01*
X247865414Y81737480D01*
X247797570Y81573690D01*
X247699076Y81426283D01*
X247573717Y81300924D01*
X247426310Y81202430D01*
X247426309Y81202429D01*
X247426308Y81202429D01*
X247262520Y81134586D01*
X247088644Y81100000D01*
X246911356Y81100000D01*
X246737480Y81134586D01*
X246573692Y81202429D01*
X246573691Y81202429D01*
X246573690Y81202430D01*
X246426283Y81300924D01*
X246300924Y81426283D01*
X246202430Y81573690D01*
X246134586Y81737480D01*
X246100000Y81911358D01*
X246100000Y82088642D01*
X246116865Y82173427D01*
X246134586Y82262520D01*
X246202429Y82426308D01*
X246282629Y82546336D01*
X246300924Y82573717D01*
X246426283Y82699076D01*
X246573690Y82797570D01*
X246704285Y82851664D01*
X246737480Y82865414D01*
X246911356Y82900000D01*
X247088644Y82900000D01*
X247262520Y82865414D01*
X247262520Y82865414D01*
G37*
G36*
X263802520Y82865414D02*
G01*
X263835716Y82851664D01*
X263966310Y82797570D01*
X264113717Y82699076D01*
X264239076Y82573717D01*
X264257371Y82546336D01*
X264337571Y82426308D01*
X264405414Y82262520D01*
X264423136Y82173427D01*
X264440000Y82088642D01*
X264440000Y81911358D01*
X264405414Y81737480D01*
X264337570Y81573690D01*
X264239076Y81426283D01*
X264113717Y81300924D01*
X263966310Y81202430D01*
X263966309Y81202429D01*
X263966308Y81202429D01*
X263802520Y81134586D01*
X263628644Y81100000D01*
X263451356Y81100000D01*
X263277480Y81134586D01*
X263113692Y81202429D01*
X263113691Y81202429D01*
X263113690Y81202430D01*
X262966283Y81300924D01*
X262840924Y81426283D01*
X262742430Y81573690D01*
X262674586Y81737480D01*
X262640000Y81911358D01*
X262640000Y82088642D01*
X262656865Y82173427D01*
X262674586Y82262520D01*
X262742429Y82426308D01*
X262822629Y82546336D01*
X262840924Y82573717D01*
X262966283Y82699076D01*
X263113690Y82797570D01*
X263244285Y82851664D01*
X263277480Y82865414D01*
X263451356Y82900000D01*
X263628644Y82900000D01*
X263802520Y82865414D01*
X263802520Y82865414D01*
G37*
G36*
X261262520Y82865414D02*
G01*
X261295716Y82851664D01*
X261426310Y82797570D01*
X261573717Y82699076D01*
X261699076Y82573717D01*
X261717371Y82546336D01*
X261797571Y82426308D01*
X261865414Y82262520D01*
X261883136Y82173427D01*
X261900000Y82088642D01*
X261900000Y81911358D01*
X261865414Y81737480D01*
X261797570Y81573690D01*
X261699076Y81426283D01*
X261573717Y81300924D01*
X261426310Y81202430D01*
X261426309Y81202429D01*
X261426308Y81202429D01*
X261262520Y81134586D01*
X261088644Y81100000D01*
X260911356Y81100000D01*
X260737480Y81134586D01*
X260573692Y81202429D01*
X260573691Y81202429D01*
X260573690Y81202430D01*
X260426283Y81300924D01*
X260300924Y81426283D01*
X260202430Y81573690D01*
X260134586Y81737480D01*
X260100000Y81911358D01*
X260100000Y82088642D01*
X260116865Y82173427D01*
X260134586Y82262520D01*
X260202429Y82426308D01*
X260282629Y82546336D01*
X260300924Y82573717D01*
X260426283Y82699076D01*
X260573690Y82797570D01*
X260704285Y82851664D01*
X260737480Y82865414D01*
X260911356Y82900000D01*
X261088644Y82900000D01*
X261262520Y82865414D01*
X261262520Y82865414D01*
G37*
G36*
X258722520Y82865414D02*
G01*
X258755716Y82851664D01*
X258886310Y82797570D01*
X259033717Y82699076D01*
X259159076Y82573717D01*
X259177371Y82546336D01*
X259257571Y82426308D01*
X259325414Y82262520D01*
X259343136Y82173427D01*
X259360000Y82088642D01*
X259360000Y81911358D01*
X259325414Y81737480D01*
X259257570Y81573690D01*
X259159076Y81426283D01*
X259033717Y81300924D01*
X258886310Y81202430D01*
X258886309Y81202429D01*
X258886308Y81202429D01*
X258722520Y81134586D01*
X258548644Y81100000D01*
X258371356Y81100000D01*
X258197480Y81134586D01*
X258033692Y81202429D01*
X258033691Y81202429D01*
X258033690Y81202430D01*
X257886283Y81300924D01*
X257760924Y81426283D01*
X257662430Y81573690D01*
X257594586Y81737480D01*
X257560000Y81911358D01*
X257560000Y82088642D01*
X257576865Y82173427D01*
X257594586Y82262520D01*
X257662429Y82426308D01*
X257742629Y82546336D01*
X257760924Y82573717D01*
X257886283Y82699076D01*
X258033690Y82797570D01*
X258164285Y82851664D01*
X258197480Y82865414D01*
X258371356Y82900000D01*
X258548644Y82900000D01*
X258722520Y82865414D01*
X258722520Y82865414D01*
G37*
G36*
X244722520Y82865414D02*
G01*
X244755716Y82851664D01*
X244886310Y82797570D01*
X245033717Y82699076D01*
X245159076Y82573717D01*
X245177371Y82546336D01*
X245257571Y82426308D01*
X245325414Y82262520D01*
X245343136Y82173427D01*
X245360000Y82088642D01*
X245360000Y81911358D01*
X245325414Y81737480D01*
X245257570Y81573690D01*
X245159076Y81426283D01*
X245033717Y81300924D01*
X244886310Y81202430D01*
X244886309Y81202429D01*
X244886308Y81202429D01*
X244722520Y81134586D01*
X244548644Y81100000D01*
X244371356Y81100000D01*
X244197480Y81134586D01*
X244033692Y81202429D01*
X244033691Y81202429D01*
X244033690Y81202430D01*
X243886283Y81300924D01*
X243760924Y81426283D01*
X243662430Y81573690D01*
X243594586Y81737480D01*
X243560000Y81911358D01*
X243560000Y82088642D01*
X243576865Y82173427D01*
X243594586Y82262520D01*
X243662429Y82426308D01*
X243742629Y82546336D01*
X243760924Y82573717D01*
X243886283Y82699076D01*
X244033690Y82797570D01*
X244164285Y82851664D01*
X244197480Y82865414D01*
X244371356Y82900000D01*
X244548644Y82900000D01*
X244722520Y82865414D01*
X244722520Y82865414D01*
G37*
G36*
X271452640Y84189445D02*
G01*
X271734723Y84072602D01*
X271734725Y84072601D01*
X271988594Y83902972D01*
X272204492Y83687074D01*
X272242627Y83630000D01*
X272374122Y83433203D01*
X272490965Y83151120D01*
X272550530Y82851664D01*
X272550530Y82546336D01*
X272490965Y82246880D01*
X272460539Y82173426D01*
X272374121Y81964795D01*
X272204492Y81710926D01*
X271988594Y81495028D01*
X271734725Y81325399D01*
X271734724Y81325398D01*
X271734723Y81325398D01*
X271452640Y81208555D01*
X271153184Y81148990D01*
X270847856Y81148990D01*
X270548400Y81208555D01*
X270266317Y81325398D01*
X270266316Y81325398D01*
X270266315Y81325399D01*
X270012446Y81495028D01*
X269796548Y81710926D01*
X269626919Y81964795D01*
X269540501Y82173426D01*
X269510075Y82246880D01*
X269450510Y82546336D01*
X269450510Y82851664D01*
X269510075Y83151120D01*
X269626918Y83433203D01*
X269758413Y83630000D01*
X269796548Y83687074D01*
X270012446Y83902972D01*
X270266315Y84072601D01*
X270266317Y84072602D01*
X270548400Y84189445D01*
X270847856Y84249010D01*
X271153184Y84249010D01*
X271452640Y84189445D01*
X271452640Y84189445D01*
G37*
G36*
X283451600Y84189445D02*
G01*
X283733683Y84072602D01*
X283733685Y84072601D01*
X283987554Y83902972D01*
X284203452Y83687074D01*
X284241587Y83630000D01*
X284373082Y83433203D01*
X284489925Y83151120D01*
X284549490Y82851664D01*
X284549490Y82546336D01*
X284489925Y82246880D01*
X284459499Y82173426D01*
X284373081Y81964795D01*
X284203452Y81710926D01*
X283987554Y81495028D01*
X283733685Y81325399D01*
X283733684Y81325398D01*
X283733683Y81325398D01*
X283451600Y81208555D01*
X283152144Y81148990D01*
X282846816Y81148990D01*
X282547360Y81208555D01*
X282265277Y81325398D01*
X282265276Y81325398D01*
X282265275Y81325399D01*
X282011406Y81495028D01*
X281795508Y81710926D01*
X281625879Y81964795D01*
X281539461Y82173426D01*
X281509035Y82246880D01*
X281449470Y82546336D01*
X281449470Y82851664D01*
X281509035Y83151120D01*
X281625878Y83433203D01*
X281757373Y83630000D01*
X281795508Y83687074D01*
X282011406Y83902972D01*
X282265275Y84072601D01*
X282265277Y84072602D01*
X282547360Y84189445D01*
X282846816Y84249010D01*
X283152144Y84249010D01*
X283451600Y84189445D01*
X283451600Y84189445D01*
G37*
G36*
X258687290Y85594381D02*
G01*
X258751689Y85581571D01*
X258933678Y85506189D01*
X259097463Y85396751D01*
X259236751Y85257463D01*
X259346189Y85093678D01*
X259421571Y84911689D01*
X259460000Y84718491D01*
X259460000Y84521509D01*
X259421571Y84328311D01*
X259346189Y84146322D01*
X259236751Y83982537D01*
X259097463Y83843249D01*
X258933678Y83733811D01*
X258751689Y83658429D01*
X258687290Y83645619D01*
X258558493Y83620000D01*
X258361507Y83620000D01*
X258232710Y83645619D01*
X258168311Y83658429D01*
X257986322Y83733811D01*
X257822537Y83843249D01*
X257683249Y83982537D01*
X257573811Y84146322D01*
X257498429Y84328311D01*
X257460000Y84521509D01*
X257460000Y84718491D01*
X257498429Y84911689D01*
X257573811Y85093678D01*
X257683249Y85257463D01*
X257822537Y85396751D01*
X257986322Y85506189D01*
X258168311Y85581571D01*
X258232710Y85594381D01*
X258361507Y85620000D01*
X258558493Y85620000D01*
X258687290Y85594381D01*
X258687290Y85594381D01*
G37*
G36*
X263767290Y85594381D02*
G01*
X263831689Y85581571D01*
X264013678Y85506189D01*
X264177463Y85396751D01*
X264316751Y85257463D01*
X264426189Y85093678D01*
X264501571Y84911689D01*
X264540000Y84718491D01*
X264540000Y84521509D01*
X264501571Y84328311D01*
X264426189Y84146322D01*
X264316751Y83982537D01*
X264177463Y83843249D01*
X264013678Y83733811D01*
X263831689Y83658429D01*
X263767290Y83645619D01*
X263638493Y83620000D01*
X263441507Y83620000D01*
X263312710Y83645619D01*
X263248311Y83658429D01*
X263066322Y83733811D01*
X262902537Y83843249D01*
X262763249Y83982537D01*
X262653811Y84146322D01*
X262578429Y84328311D01*
X262540000Y84521509D01*
X262540000Y84718491D01*
X262578429Y84911689D01*
X262653811Y85093678D01*
X262763249Y85257463D01*
X262902537Y85396751D01*
X263066322Y85506189D01*
X263248311Y85581571D01*
X263312710Y85594381D01*
X263441507Y85620000D01*
X263638493Y85620000D01*
X263767290Y85594381D01*
X263767290Y85594381D01*
G37*
G36*
X249767290Y85604381D02*
G01*
X249831689Y85591571D01*
X250013678Y85516189D01*
X250177463Y85406751D01*
X250316751Y85267463D01*
X250426189Y85103678D01*
X250501571Y84921689D01*
X250540000Y84728491D01*
X250540000Y84531509D01*
X250501571Y84338311D01*
X250426189Y84156322D01*
X250316751Y83992537D01*
X250177463Y83853249D01*
X250013678Y83743811D01*
X249831689Y83668429D01*
X249781415Y83658429D01*
X249638493Y83630000D01*
X249441507Y83630000D01*
X249298585Y83658429D01*
X249248311Y83668429D01*
X249066322Y83743811D01*
X248902537Y83853249D01*
X248763249Y83992537D01*
X248653811Y84156322D01*
X248578429Y84338311D01*
X248540000Y84531509D01*
X248540000Y84728491D01*
X248578429Y84921689D01*
X248653811Y85103678D01*
X248763249Y85267463D01*
X248902537Y85406751D01*
X249066322Y85516189D01*
X249248311Y85591571D01*
X249312710Y85604381D01*
X249441507Y85630000D01*
X249638493Y85630000D01*
X249767290Y85604381D01*
X249767290Y85604381D01*
G37*
G36*
X244687290Y85604381D02*
G01*
X244751689Y85591571D01*
X244933678Y85516189D01*
X245097463Y85406751D01*
X245236751Y85267463D01*
X245346189Y85103678D01*
X245421571Y84921689D01*
X245460000Y84728491D01*
X245460000Y84531509D01*
X245421571Y84338311D01*
X245346189Y84156322D01*
X245236751Y83992537D01*
X245097463Y83853249D01*
X244933678Y83743811D01*
X244751689Y83668429D01*
X244701415Y83658429D01*
X244558493Y83630000D01*
X244361507Y83630000D01*
X244218585Y83658429D01*
X244168311Y83668429D01*
X243986322Y83743811D01*
X243822537Y83853249D01*
X243683249Y83992537D01*
X243573811Y84156322D01*
X243498429Y84338311D01*
X243460000Y84531509D01*
X243460000Y84728491D01*
X243498429Y84921689D01*
X243573811Y85103678D01*
X243683249Y85267463D01*
X243822537Y85406751D01*
X243986322Y85516189D01*
X244168311Y85591571D01*
X244232710Y85604381D01*
X244361507Y85630000D01*
X244558493Y85630000D01*
X244687290Y85604381D01*
X244687290Y85604381D01*
G37*
G36*
X223540026Y87343885D02*
G01*
X223758411Y87253427D01*
X223758413Y87253426D01*
X223954955Y87122101D01*
X224122101Y86954955D01*
X224253427Y86758411D01*
X224343885Y86540026D01*
X224390000Y86308191D01*
X224390000Y86071809D01*
X224343885Y85839974D01*
X224285906Y85700000D01*
X224253426Y85621587D01*
X224122101Y85425045D01*
X223954955Y85257899D01*
X223758413Y85126574D01*
X223758412Y85126573D01*
X223758411Y85126573D01*
X223540026Y85036115D01*
X223308191Y84990000D01*
X223071809Y84990000D01*
X222839974Y85036115D01*
X222621589Y85126573D01*
X222621588Y85126573D01*
X222621587Y85126574D01*
X222425045Y85257899D01*
X222257899Y85425045D01*
X222126574Y85621587D01*
X222094094Y85700000D01*
X222036115Y85839974D01*
X221990000Y86071809D01*
X221990000Y86308191D01*
X222036115Y86540026D01*
X222126573Y86758411D01*
X222257899Y86954955D01*
X222425045Y87122101D01*
X222621587Y87253426D01*
X222621589Y87253427D01*
X222839974Y87343885D01*
X223071809Y87390000D01*
X223308191Y87390000D01*
X223540026Y87343885D01*
X223540026Y87343885D01*
G37*
G36*
X200540026Y87343885D02*
G01*
X200758411Y87253427D01*
X200758413Y87253426D01*
X200954955Y87122101D01*
X201122101Y86954955D01*
X201253427Y86758411D01*
X201343885Y86540026D01*
X201390000Y86308191D01*
X201390000Y86071809D01*
X201343885Y85839974D01*
X201285906Y85700000D01*
X201253426Y85621587D01*
X201122101Y85425045D01*
X200954955Y85257899D01*
X200758413Y85126574D01*
X200758412Y85126573D01*
X200758411Y85126573D01*
X200540026Y85036115D01*
X200308191Y84990000D01*
X200071809Y84990000D01*
X199839974Y85036115D01*
X199621589Y85126573D01*
X199621588Y85126573D01*
X199621587Y85126574D01*
X199425045Y85257899D01*
X199257899Y85425045D01*
X199126574Y85621587D01*
X199094094Y85700000D01*
X199036115Y85839974D01*
X198990000Y86071809D01*
X198990000Y86308191D01*
X199036115Y86540026D01*
X199126573Y86758411D01*
X199257899Y86954955D01*
X199425045Y87122101D01*
X199621587Y87253426D01*
X199621589Y87253427D01*
X199839974Y87343885D01*
X200071809Y87390000D01*
X200308191Y87390000D01*
X200540026Y87343885D01*
X200540026Y87343885D01*
G37*
G36*
X177540026Y87343885D02*
G01*
X177758411Y87253427D01*
X177758413Y87253426D01*
X177954955Y87122101D01*
X178122101Y86954955D01*
X178253427Y86758411D01*
X178343885Y86540026D01*
X178390000Y86308191D01*
X178390000Y86071809D01*
X178343885Y85839974D01*
X178285906Y85700000D01*
X178253426Y85621587D01*
X178122101Y85425045D01*
X177954955Y85257899D01*
X177758413Y85126574D01*
X177758412Y85126573D01*
X177758411Y85126573D01*
X177540026Y85036115D01*
X177308191Y84990000D01*
X177071809Y84990000D01*
X176839974Y85036115D01*
X176621589Y85126573D01*
X176621588Y85126573D01*
X176621587Y85126574D01*
X176425045Y85257899D01*
X176257899Y85425045D01*
X176126574Y85621587D01*
X176094094Y85700000D01*
X176036115Y85839974D01*
X175990000Y86071809D01*
X175990000Y86308191D01*
X176036115Y86540026D01*
X176126573Y86758411D01*
X176257899Y86954955D01*
X176425045Y87122101D01*
X176621587Y87253426D01*
X176621589Y87253427D01*
X176839974Y87343885D01*
X177071809Y87390000D01*
X177308191Y87390000D01*
X177540026Y87343885D01*
X177540026Y87343885D01*
G37*
G36*
X154540026Y87343885D02*
G01*
X154758411Y87253427D01*
X154758413Y87253426D01*
X154954955Y87122101D01*
X155122101Y86954955D01*
X155253427Y86758411D01*
X155343885Y86540026D01*
X155390000Y86308191D01*
X155390000Y86071809D01*
X155343885Y85839974D01*
X155285906Y85700000D01*
X155253426Y85621587D01*
X155122101Y85425045D01*
X154954955Y85257899D01*
X154758413Y85126574D01*
X154758412Y85126573D01*
X154758411Y85126573D01*
X154540026Y85036115D01*
X154308191Y84990000D01*
X154071809Y84990000D01*
X153839974Y85036115D01*
X153621589Y85126573D01*
X153621588Y85126573D01*
X153621587Y85126574D01*
X153425045Y85257899D01*
X153257899Y85425045D01*
X153126574Y85621587D01*
X153094094Y85700000D01*
X153036115Y85839974D01*
X152990000Y86071809D01*
X152990000Y86308191D01*
X153036115Y86540026D01*
X153126573Y86758411D01*
X153257899Y86954955D01*
X153425045Y87122101D01*
X153621587Y87253426D01*
X153621589Y87253427D01*
X153839974Y87343885D01*
X154071809Y87390000D01*
X154308191Y87390000D01*
X154540026Y87343885D01*
X154540026Y87343885D01*
G37*
G36*
X131540026Y87343885D02*
G01*
X131758411Y87253427D01*
X131758413Y87253426D01*
X131954955Y87122101D01*
X132122101Y86954955D01*
X132253427Y86758411D01*
X132343885Y86540026D01*
X132390000Y86308191D01*
X132390000Y86071809D01*
X132343885Y85839974D01*
X132285906Y85700000D01*
X132253426Y85621587D01*
X132122101Y85425045D01*
X131954955Y85257899D01*
X131758413Y85126574D01*
X131758412Y85126573D01*
X131758411Y85126573D01*
X131540026Y85036115D01*
X131308191Y84990000D01*
X131071809Y84990000D01*
X130839974Y85036115D01*
X130621589Y85126573D01*
X130621588Y85126573D01*
X130621587Y85126574D01*
X130425045Y85257899D01*
X130257899Y85425045D01*
X130126574Y85621587D01*
X130094094Y85700000D01*
X130036115Y85839974D01*
X129990000Y86071809D01*
X129990000Y86308191D01*
X130036115Y86540026D01*
X130126573Y86758411D01*
X130257899Y86954955D01*
X130425045Y87122101D01*
X130621587Y87253426D01*
X130621589Y87253427D01*
X130839974Y87343885D01*
X131071809Y87390000D01*
X131308191Y87390000D01*
X131540026Y87343885D01*
X131540026Y87343885D01*
G37*
G36*
X108540026Y87343885D02*
G01*
X108758411Y87253427D01*
X108758413Y87253426D01*
X108954955Y87122101D01*
X109122101Y86954955D01*
X109253427Y86758411D01*
X109343885Y86540026D01*
X109390000Y86308191D01*
X109390000Y86071809D01*
X109343885Y85839974D01*
X109285906Y85700000D01*
X109253426Y85621587D01*
X109122101Y85425045D01*
X108954955Y85257899D01*
X108758413Y85126574D01*
X108758412Y85126573D01*
X108758411Y85126573D01*
X108540026Y85036115D01*
X108308191Y84990000D01*
X108071809Y84990000D01*
X107839974Y85036115D01*
X107621589Y85126573D01*
X107621588Y85126573D01*
X107621587Y85126574D01*
X107425045Y85257899D01*
X107257899Y85425045D01*
X107126574Y85621587D01*
X107094094Y85700000D01*
X107036115Y85839974D01*
X106990000Y86071809D01*
X106990000Y86308191D01*
X107036115Y86540026D01*
X107126573Y86758411D01*
X107257899Y86954955D01*
X107425045Y87122101D01*
X107621587Y87253426D01*
X107621589Y87253427D01*
X107839974Y87343885D01*
X108071809Y87390000D01*
X108308191Y87390000D01*
X108540026Y87343885D01*
X108540026Y87343885D01*
G37*
G36*
X85540026Y87343885D02*
G01*
X85758411Y87253427D01*
X85758413Y87253426D01*
X85954955Y87122101D01*
X86122101Y86954955D01*
X86253427Y86758411D01*
X86343885Y86540026D01*
X86390000Y86308191D01*
X86390000Y86071809D01*
X86343885Y85839974D01*
X86285906Y85700000D01*
X86253426Y85621587D01*
X86122101Y85425045D01*
X85954955Y85257899D01*
X85758413Y85126574D01*
X85758412Y85126573D01*
X85758411Y85126573D01*
X85540026Y85036115D01*
X85308191Y84990000D01*
X85071809Y84990000D01*
X84839974Y85036115D01*
X84621589Y85126573D01*
X84621588Y85126573D01*
X84621587Y85126574D01*
X84425045Y85257899D01*
X84257899Y85425045D01*
X84126574Y85621587D01*
X84094094Y85700000D01*
X84036115Y85839974D01*
X83990000Y86071809D01*
X83990000Y86308191D01*
X84036115Y86540026D01*
X84126573Y86758411D01*
X84257899Y86954955D01*
X84425045Y87122101D01*
X84621587Y87253426D01*
X84621589Y87253427D01*
X84839974Y87343885D01*
X85071809Y87390000D01*
X85308191Y87390000D01*
X85540026Y87343885D01*
X85540026Y87343885D01*
G37*
G36*
X62540026Y87343885D02*
G01*
X62758411Y87253427D01*
X62758413Y87253426D01*
X62954955Y87122101D01*
X63122101Y86954955D01*
X63253427Y86758411D01*
X63343885Y86540026D01*
X63390000Y86308191D01*
X63390000Y86071809D01*
X63343885Y85839974D01*
X63285906Y85700000D01*
X63253426Y85621587D01*
X63122101Y85425045D01*
X62954955Y85257899D01*
X62758413Y85126574D01*
X62758412Y85126573D01*
X62758411Y85126573D01*
X62540026Y85036115D01*
X62308191Y84990000D01*
X62071809Y84990000D01*
X61839974Y85036115D01*
X61621589Y85126573D01*
X61621588Y85126573D01*
X61621587Y85126574D01*
X61425045Y85257899D01*
X61257899Y85425045D01*
X61126574Y85621587D01*
X61094094Y85700000D01*
X61036115Y85839974D01*
X60990000Y86071809D01*
X60990000Y86308191D01*
X61036115Y86540026D01*
X61126573Y86758411D01*
X61257899Y86954955D01*
X61425045Y87122101D01*
X61621587Y87253426D01*
X61621589Y87253427D01*
X61839974Y87343885D01*
X62071809Y87390000D01*
X62308191Y87390000D01*
X62540026Y87343885D01*
X62540026Y87343885D01*
G37*
G36*
X39540026Y87343885D02*
G01*
X39758411Y87253427D01*
X39758413Y87253426D01*
X39954955Y87122101D01*
X40122101Y86954955D01*
X40253427Y86758411D01*
X40343885Y86540026D01*
X40390000Y86308191D01*
X40390000Y86071809D01*
X40343885Y85839974D01*
X40285906Y85700000D01*
X40253426Y85621587D01*
X40122101Y85425045D01*
X39954955Y85257899D01*
X39758413Y85126574D01*
X39758412Y85126573D01*
X39758411Y85126573D01*
X39540026Y85036115D01*
X39308191Y84990000D01*
X39071809Y84990000D01*
X38839974Y85036115D01*
X38621589Y85126573D01*
X38621588Y85126573D01*
X38621587Y85126574D01*
X38425045Y85257899D01*
X38257899Y85425045D01*
X38126574Y85621587D01*
X38094094Y85700000D01*
X38036115Y85839974D01*
X37990000Y86071809D01*
X37990000Y86308191D01*
X38036115Y86540026D01*
X38126573Y86758411D01*
X38257899Y86954955D01*
X38425045Y87122101D01*
X38621587Y87253426D01*
X38621589Y87253427D01*
X38839974Y87343885D01*
X39071809Y87390000D01*
X39308191Y87390000D01*
X39540026Y87343885D01*
X39540026Y87343885D01*
G37*
G36*
X16540026Y87343885D02*
G01*
X16758411Y87253427D01*
X16758413Y87253426D01*
X16954955Y87122101D01*
X17122101Y86954955D01*
X17253427Y86758411D01*
X17343885Y86540026D01*
X17390000Y86308191D01*
X17390000Y86071809D01*
X17343885Y85839974D01*
X17285906Y85700000D01*
X17253426Y85621587D01*
X17122101Y85425045D01*
X16954955Y85257899D01*
X16758413Y85126574D01*
X16758412Y85126573D01*
X16758411Y85126573D01*
X16540026Y85036115D01*
X16308191Y84990000D01*
X16071809Y84990000D01*
X15839974Y85036115D01*
X15621589Y85126573D01*
X15621588Y85126573D01*
X15621587Y85126574D01*
X15425045Y85257899D01*
X15257899Y85425045D01*
X15126574Y85621587D01*
X15094094Y85700000D01*
X15036115Y85839974D01*
X14990000Y86071809D01*
X14990000Y86308191D01*
X15036115Y86540026D01*
X15126573Y86758411D01*
X15257899Y86954955D01*
X15425045Y87122101D01*
X15621587Y87253426D01*
X15621589Y87253427D01*
X15839974Y87343885D01*
X16071809Y87390000D01*
X16308191Y87390000D01*
X16540026Y87343885D01*
X16540026Y87343885D01*
G37*
G36*
X-6459974Y87343885D02*
G01*
X-6241589Y87253427D01*
X-6241587Y87253426D01*
X-6045045Y87122101D01*
X-5877899Y86954955D01*
X-5746573Y86758411D01*
X-5656115Y86540026D01*
X-5610000Y86308191D01*
X-5610000Y86071809D01*
X-5656115Y85839974D01*
X-5714094Y85700000D01*
X-5746574Y85621587D01*
X-5877899Y85425045D01*
X-6045045Y85257899D01*
X-6241587Y85126574D01*
X-6241588Y85126573D01*
X-6241589Y85126573D01*
X-6459974Y85036115D01*
X-6691809Y84990000D01*
X-6928191Y84990000D01*
X-7160026Y85036115D01*
X-7378411Y85126573D01*
X-7378412Y85126573D01*
X-7378413Y85126574D01*
X-7574955Y85257899D01*
X-7742101Y85425045D01*
X-7873426Y85621587D01*
X-7905906Y85700000D01*
X-7963885Y85839974D01*
X-8010000Y86071809D01*
X-8010000Y86308191D01*
X-7963885Y86540026D01*
X-7873427Y86758411D01*
X-7742101Y86954955D01*
X-7574955Y87122101D01*
X-7378413Y87253426D01*
X-7378411Y87253427D01*
X-7160026Y87343885D01*
X-6928191Y87390000D01*
X-6691809Y87390000D01*
X-6459974Y87343885D01*
X-6459974Y87343885D01*
G37*
G36*
X-29459974Y87343885D02*
G01*
X-29241589Y87253427D01*
X-29241587Y87253426D01*
X-29045045Y87122101D01*
X-28877899Y86954955D01*
X-28746573Y86758411D01*
X-28656115Y86540026D01*
X-28610000Y86308191D01*
X-28610000Y86071809D01*
X-28656115Y85839974D01*
X-28714094Y85700000D01*
X-28746574Y85621587D01*
X-28877899Y85425045D01*
X-29045045Y85257899D01*
X-29241587Y85126574D01*
X-29241588Y85126573D01*
X-29241589Y85126573D01*
X-29459974Y85036115D01*
X-29691809Y84990000D01*
X-29928191Y84990000D01*
X-30160026Y85036115D01*
X-30378411Y85126573D01*
X-30378412Y85126573D01*
X-30378413Y85126574D01*
X-30574955Y85257899D01*
X-30742101Y85425045D01*
X-30873426Y85621587D01*
X-30905906Y85700000D01*
X-30963885Y85839974D01*
X-31010000Y86071809D01*
X-31010000Y86308191D01*
X-30963885Y86540026D01*
X-30873427Y86758411D01*
X-30742101Y86954955D01*
X-30574955Y87122101D01*
X-30378413Y87253426D01*
X-30378411Y87253427D01*
X-30160026Y87343885D01*
X-29928191Y87390000D01*
X-29691809Y87390000D01*
X-29459974Y87343885D01*
X-29459974Y87343885D01*
G37*
G36*
X-75459974Y87343885D02*
G01*
X-75241589Y87253427D01*
X-75241587Y87253426D01*
X-75045045Y87122101D01*
X-74877899Y86954955D01*
X-74746573Y86758411D01*
X-74656115Y86540026D01*
X-74610000Y86308191D01*
X-74610000Y86071809D01*
X-74656115Y85839974D01*
X-74714094Y85700000D01*
X-74746574Y85621587D01*
X-74877899Y85425045D01*
X-75045045Y85257899D01*
X-75241587Y85126574D01*
X-75241588Y85126573D01*
X-75241589Y85126573D01*
X-75459974Y85036115D01*
X-75691809Y84990000D01*
X-75928191Y84990000D01*
X-76160026Y85036115D01*
X-76378411Y85126573D01*
X-76378412Y85126573D01*
X-76378413Y85126574D01*
X-76574955Y85257899D01*
X-76742101Y85425045D01*
X-76873426Y85621587D01*
X-76905906Y85700000D01*
X-76963885Y85839974D01*
X-77010000Y86071809D01*
X-77010000Y86308191D01*
X-76963885Y86540026D01*
X-76873427Y86758411D01*
X-76742101Y86954955D01*
X-76574955Y87122101D01*
X-76378413Y87253426D01*
X-76378411Y87253427D01*
X-76160026Y87343885D01*
X-75928191Y87390000D01*
X-75691809Y87390000D01*
X-75459974Y87343885D01*
X-75459974Y87343885D01*
G37*
G36*
X-52459974Y87343885D02*
G01*
X-52241589Y87253427D01*
X-52241587Y87253426D01*
X-52045045Y87122101D01*
X-51877899Y86954955D01*
X-51746573Y86758411D01*
X-51656115Y86540026D01*
X-51610000Y86308191D01*
X-51610000Y86071809D01*
X-51656115Y85839974D01*
X-51714094Y85700000D01*
X-51746574Y85621587D01*
X-51877899Y85425045D01*
X-52045045Y85257899D01*
X-52241587Y85126574D01*
X-52241588Y85126573D01*
X-52241589Y85126573D01*
X-52459974Y85036115D01*
X-52691809Y84990000D01*
X-52928191Y84990000D01*
X-53160026Y85036115D01*
X-53378411Y85126573D01*
X-53378412Y85126573D01*
X-53378413Y85126574D01*
X-53574955Y85257899D01*
X-53742101Y85425045D01*
X-53873426Y85621587D01*
X-53905906Y85700000D01*
X-53963885Y85839974D01*
X-54010000Y86071809D01*
X-54010000Y86308191D01*
X-53963885Y86540026D01*
X-53873427Y86758411D01*
X-53742101Y86954955D01*
X-53574955Y87122101D01*
X-53378413Y87253426D01*
X-53378411Y87253427D01*
X-53160026Y87343885D01*
X-52928191Y87390000D01*
X-52691809Y87390000D01*
X-52459974Y87343885D01*
X-52459974Y87343885D01*
G37*
M02*
