M48
INCH,TZ
T1C0.0118
T2C0.0197
T3C0.0315
T4C0.0394
T5C0.0400
T6C0.0433
T7C0.0472
T8C0.0591
T9C0.1260
T10C0.0433
%
G90
G05
T1
X40079Y-29370
X40079Y-29921
X40079Y-34173
X40079Y-39094
X40118Y-20039
X40433Y-21417
X40433Y-22795
X40433Y-23819
X40433Y-25394
X40433Y-26339
X40433Y-27992
X40433Y-31299
X40433Y-32717
X40433Y-35354
X40433Y-36299
X40433Y-37638
X40433Y-37638
X41535Y-22776
X41535Y-23465
X41535Y-27717
X41535Y-28366
X41535Y-32717
X41535Y-33346
X42008Y-25276
X42008Y-30236
X42008Y-35551
X42047Y-20354
X42244Y-25630
X42244Y-30551
X42283Y-53150
X42284Y-20630
X42323Y-43228
X42323Y-48189
X42402Y-48661
X42402Y-49291
X42402Y-50315
X42402Y-50945
X42441Y-53622
X42441Y-43701
X42441Y-55906
X42441Y-44331
X42441Y-45354
X42441Y-45984
X42441Y-54252
X42441Y-55276
X42520Y-21102
X42520Y-23425
X42520Y-26063
X42520Y-28386
X42520Y-31024
X42520Y-33346
X42520Y-34173
X42520Y-35984
X42638Y-58110
X42717Y-48661
X42717Y-49291
X42717Y-50315
X42717Y-50945
X42756Y-43701
X42756Y-44331
X42756Y-45354
X42756Y-45984
X42756Y-53622
X42756Y-54252
X42756Y-55276
X42756Y-55906
X43504Y-45984
X43504Y-50945
X43504Y-55906
X43976Y-41260
X43976Y-46220
X43976Y-51181
X43976Y-56142
X44331Y-20630
X44331Y-25630
X44331Y-30551
X44331Y-35551
X44331Y-48189
X44331Y-53150
X44331Y-58110
X44370Y-21102
X44370Y-26063
X44370Y-31024
X44370Y-35984
X44370Y-43228
X44567Y-17943
X44567Y-18740
X44567Y-23701
X44567Y-28661
X44567Y-33622
X44685Y-46220
X44685Y-51181
X44685Y-56142
X45276Y-23701
X45276Y-28661
X45276Y-33622
X45563Y-48729
X45563Y-58650
X45568Y-43767
X45568Y-53688
X45630Y-18740
X45787Y-28386
X45794Y-23431
X45816Y-33346
X46063Y-26181
X46063Y-31142
X46065Y-21220
X46065Y-36102
X46077Y-52652
X46116Y-47652
X46116Y-57573
X46220Y-20118
X46220Y-25079
X46220Y-30039
X46220Y-35000
X46220Y-42874
X46339Y-44291
X46358Y-49252
X46358Y-54213
X46358Y-59173
X47598Y-18898
X47598Y-23898
X47598Y-28819
X47598Y-33819
X47598Y-42205
X47598Y-44252
X47598Y-47165
X47598Y-49213
X47598Y-52126
X47598Y-54173
X47598Y-57087
X47598Y-59134
X47835Y-40984
X48052Y-23425
X48061Y-17943
X48068Y-18664
X48071Y-28386
X48071Y-33346
X48106Y-21772
X48110Y-22480
X48150Y-35512
X48150Y-20630
X48150Y-25591
X48150Y-30551
X48150Y-31654
X48150Y-32480
X48189Y-26772
X48189Y-27441
X48307Y-41457
X48701Y-23425
X48720Y-28386
X48720Y-33346
X48937Y-20630
X48937Y-25591
X48937Y-30551
X48937Y-35512
X48964Y-37650
X48964Y-38307
X48976Y-40984
X49094Y-36181
X49094Y-45354
X49094Y-50315
X49094Y-55276
X49134Y-35157
X49606Y-20354
X49606Y-25315
X49606Y-30276
X49803Y-43228
X49843Y-20630
X49843Y-25591
X49843Y-30551
X49843Y-35512
X49843Y-37677
X49843Y-38622
X49843Y-48189
X49843Y-53150
X49862Y-40335
X49862Y-41299
X49961Y-36102
X50000Y-48661
X50000Y-53622
X50000Y-43701
X50000Y-44331
X50000Y-45354
X50000Y-45984
X50000Y-49291
X50000Y-50315
X50000Y-50945
X50000Y-54252
X50000Y-55236
X50000Y-55906
X50079Y-21102
X50079Y-26063
X50079Y-31024
X50157Y-58110
X50315Y-43701
X50315Y-44331
X50315Y-45354
X50315Y-45984
X50315Y-48661
X50315Y-49291
X50315Y-50315
X50315Y-50945
X50315Y-53622
X50315Y-54252
X50315Y-55276
X50315Y-55906
X51102Y-50945
X51102Y-55906
X51142Y-45984
X51143Y-40984
X51417Y-40354
X51535Y-41260
X51535Y-46220
X51535Y-51181
X51535Y-56142
X51732Y-28386
X51732Y-33346
X51752Y-23425
X51890Y-20630
X51890Y-25591
X51890Y-30551
X51890Y-35512
X51890Y-48189
X51890Y-58110
X51929Y-21102
X51929Y-26063
X51929Y-31024
X51929Y-35984
X51929Y-37480
X51929Y-43228
X51929Y-53150
X52244Y-41260
X52244Y-46220
X52244Y-51181
X52244Y-56142
X52545Y-39120
X52835Y-18740
X53127Y-43767
X53127Y-53688
X53132Y-48723
X53132Y-58644
X53184Y-23740
X53184Y-28701
X53189Y-33622
X53228Y-23425
X53228Y-28386
X53228Y-33307
X53622Y-26181
X53622Y-31142
X53624Y-21220
X53624Y-36102
X53656Y-47671
X53656Y-52632
X53656Y-57593
X53661Y-42717
X53780Y-20118
X53780Y-25079
X53780Y-30039
X53780Y-35000
X53917Y-44291
X53917Y-49252
X53917Y-54213
X53917Y-59173
X54094Y-55906
X55000Y-39685
X55048Y-28386
X55128Y-23425
X55157Y-18898
X55157Y-23858
X55157Y-28819
X55157Y-33780
X55157Y-42205
X55157Y-44252
X55157Y-47165
X55157Y-49213
X55157Y-52126
X55157Y-54173
X55157Y-57087
X55157Y-59134
X55591Y-28031
X55705Y-30004
X55709Y-18258
X55790Y-55515
X55827Y-59882
X55944Y-23423
X56017Y-29425
X56457Y-55512
X56772Y-42008
X56811Y-32461
X56811Y-33091
X57205Y-33858
X57598Y-35098
X57835Y-33858
X57913Y-57913
X57919Y-51176
X58268Y-30433
X58268Y-42402
X58268Y-43189
X58268Y-43661
X58425Y-29567
X58425Y-32008
X58425Y-52835
X58587Y-44689
X58661Y-51575
X58819Y-46142
X58898Y-58307
X58976Y-36811
X58976Y-41634
X58976Y-42402
X58976Y-43189
X58976Y-44016
X59055Y-30433
X59213Y-52835
X59591Y-37419
X59606Y-46142
X59646Y-34311
X59646Y-36024
X59646Y-37992
X59646Y-38937
X59646Y-40197
X59646Y-41142
X60079Y-21890
X60079Y-23976
X60217Y-53205
X60236Y-56063
X60236Y-56850
X60354Y-36024
X60354Y-37992
X60354Y-38937
X60354Y-40197
X60354Y-43189
X60534Y-29983
X60534Y-30376
X60534Y-30770
X60534Y-31164
X60534Y-31558
X60645Y-53205
X60669Y-59961
X60928Y-29983
X60928Y-30376
X60928Y-30770
X60928Y-31164
X60928Y-31558
X60945Y-28898
X60945Y-32638
X61024Y-36811
X61024Y-42402
X61321Y-29983
X61321Y-30376
X61321Y-30770
X61321Y-31164
X61321Y-31558
X61339Y-53110
X61656Y-28701
X61715Y-29983
X61715Y-30376
X61715Y-30770
X61715Y-31164
X61715Y-31558
X61732Y-35512
X61732Y-36811
X61732Y-38543
X61732Y-39055
X61732Y-39567
X61732Y-40079
X61732Y-40591
X61732Y-42402
X61732Y-43701
X61772Y-53110
X61811Y-33780
X62109Y-29983
X62109Y-30376
X62109Y-30770
X62109Y-31164
X62109Y-31558
X62244Y-38543
X62244Y-39055
X62244Y-39567
X62244Y-40079
X62244Y-40591
X62362Y-44331
X62402Y-47244
X62476Y-42366
X62520Y-45236
X62598Y-23780
X62598Y-33780
X62756Y-38543
X62756Y-39055
X62756Y-39567
X62756Y-40079
X62756Y-40591
X62809Y-29134
X62992Y-44331
X62992Y-45236
X63031Y-31024
X63031Y-31853
X63031Y-49646
X63031Y-50335
X63105Y-54101
X63150Y-42835
X63268Y-38543
X63268Y-39055
X63268Y-39567
X63268Y-40079
X63268Y-40591
X63281Y-29134
X63425Y-49449
X63425Y-50787
X63504Y-47799
X63540Y-30371
X63543Y-31980
X63661Y-50472
X63661Y-49252
X63702Y-32252
X63740Y-57087
X63755Y-48287
X63780Y-38543
X63780Y-39055
X63780Y-39567
X63780Y-40079
X63780Y-40591
X63780Y-46969
X63780Y-30630
X63819Y-47815
X63849Y-40994
X63898Y-49437
X63898Y-50787
X63937Y-42126
X63937Y-42835
X63976Y-33425
X64016Y-30866
X64016Y-32225
X64134Y-23071
X64134Y-46969
X64134Y-49252
X64134Y-50469
X64134Y-55787
X64163Y-47992
X64173Y-51598
X64173Y-52175
X64232Y-37343
X64376Y-49454
X64449Y-32913
X64488Y-45689
X64488Y-46319
X64488Y-51460
X64488Y-52165
X64528Y-50374
X64646Y-57087
X64685Y-43307
X64724Y-41614
X64724Y-42835
X64724Y-47874
X64764Y-59370
X64764Y-60157
X64882Y-47283
X64882Y-46811
X64961Y-38425
X64961Y-38898
X64961Y-39370
X64961Y-40217
X65039Y-53858
X65118Y-30630
X65118Y-31417
X65125Y-32237
X65181Y-42244
X65184Y-42717
X65276Y-27638
X65308Y-40727
X65335Y-38661
X65472Y-47244
X65472Y-47559
X65492Y-39134
X65512Y-53858
X65532Y-27382
X65591Y-28386
X65591Y-29783
X65610Y-45709
X65650Y-38228
X65669Y-27087
X65748Y-37913
X65787Y-30591
X65787Y-31496
X65846Y-36454
X65866Y-41378
X66004Y-36181
X66024Y-45394
X66024Y-46024
X66024Y-49545
X66063Y-60236
X66142Y-27087
X66181Y-33858
X66181Y-34646
X66181Y-46535
X66194Y-47539
X66240Y-51220
X66240Y-52047
X66240Y-52638
X66240Y-53071
X66240Y-53543
X66240Y-54173
X66240Y-54921
X66271Y-55759
X66299Y-30236
X66299Y-43307
X66378Y-29094
X66433Y-50213
X66457Y-45236
X66457Y-46024
X66496Y-55276
X66614Y-49134
X66673Y-36614
X66673Y-37165
X66673Y-51220
X66673Y-52047
X66673Y-52638
X66673Y-53071
X66673Y-53543
X66673Y-54173
X66715Y-50125
X66772Y-29488
X66772Y-45236
X66772Y-46024
X66772Y-47756
X66890Y-33858
X66909Y-38228
X66909Y-40630
X67008Y-30236
X67067Y-37913
X67087Y-46024
X67126Y-49466
X67165Y-27953
X67165Y-28386
X67165Y-29724
X67244Y-38819
X67283Y-42244
X67323Y-49016
X67362Y-27638
X67382Y-36142
X67441Y-50125
X67480Y-49453
X67520Y-39134
X67520Y-40276
X67520Y-40787
X67559Y-26171
X67559Y-26837
X67598Y-36378
X67598Y-56417
X67618Y-37165
X67624Y-27402
X67638Y-34528
X67638Y-35236
X67657Y-29961
X67657Y-33898
X67756Y-50133
X67913Y-26181
X67913Y-26850
X67953Y-28386
X67953Y-58740
X67959Y-36699
X67992Y-30315
X67992Y-30787
X67992Y-33189
X67992Y-33543
X67992Y-48701
X67992Y-49016
X67992Y-50512
X67992Y-51220
X67992Y-52638
X68126Y-53543
X68154Y-36337
X68228Y-27953
X68307Y-48740
X68307Y-49232
X68307Y-50512
X68425Y-57146
X68530Y-30223
X68575Y-52047
X68583Y-57795
X68622Y-50512
X68661Y-53071
X68686Y-56479
X68701Y-27100
X68740Y-33649
X68740Y-34882
X68751Y-30220
X68770Y-49016
X68780Y-38307
X68780Y-55000
X68807Y-54646
X68819Y-54173
X68839Y-31142
X68839Y-31535
X68839Y-31929
X68839Y-32323
X68839Y-32717
X68858Y-48701
X68976Y-56378
X69047Y-23878
X69055Y-22933
X69094Y-56713
X69094Y-57146
X69134Y-49528
X69142Y-35875
X69173Y-40787
X69232Y-31142
X69232Y-31535
X69232Y-31929
X69232Y-32323
X69232Y-32717
X69252Y-50512
X69291Y-55000
X69409Y-27100
X69409Y-40551
X69567Y-56732
X69567Y-57146
X69579Y-47283
X69591Y-55299
X69606Y-28957
X69626Y-26100
X69626Y-31142
X69626Y-31535
X69626Y-31929
X69626Y-32323
X69626Y-32717
X69646Y-52165
X69646Y-52559
X69646Y-52953
X69646Y-53346
X69646Y-53740
X69724Y-21299
X69724Y-22087
X69724Y-23248
X69724Y-24134
X69724Y-49449
X70020Y-31142
X70020Y-31535
X70020Y-31929
X70020Y-32323
X70020Y-32717
X70039Y-52165
X70039Y-52559
X70039Y-52953
X70039Y-53346
X70039Y-53740
X70118Y-30210
X70168Y-29636
X70315Y-27992
X70315Y-35787
X70315Y-33649
X70413Y-31142
X70413Y-31535
X70413Y-31929
X70413Y-32323
X70413Y-32717
X70433Y-52165
X70433Y-52559
X70433Y-52953
X70433Y-53346
X70433Y-53740
X70472Y-24173
X70512Y-54843
X70512Y-56713
X70512Y-57146
X70591Y-49488
X70591Y-50512
X70827Y-52165
X70827Y-52559
X70827Y-52953
X70827Y-53346
X70827Y-53740
X70906Y-25551
X70906Y-27047
X70906Y-48780
X70984Y-56713
X70984Y-57146
X70984Y-55299
X71079Y-37756
X71220Y-30315
X71220Y-52165
X71220Y-52559
X71220Y-52953
X71220Y-53346
X71220Y-53740
X71260Y-33543
X71260Y-57795
X71272Y-30629
X71339Y-28031
X71339Y-29449
X71339Y-39370
X71339Y-39764
X71339Y-40157
X71339Y-40551
X71339Y-40945
X71346Y-31043
X71364Y-50512
X71417Y-34528
X71457Y-57146
X71496Y-35276
X71535Y-30000
X71575Y-38166
X71583Y-42874
X71583Y-43346
X71594Y-33898
X71614Y-49232
X71654Y-48799
X71732Y-28386
X71732Y-29685
X71732Y-39370
X71732Y-39764
X71732Y-40157
X71732Y-40551
X71732Y-40945
X71768Y-50259
X71772Y-25551
X71772Y-27677
X71890Y-31240
X71969Y-54861
X71969Y-56713
X71969Y-57146
X72126Y-24791
X72126Y-39370
X72126Y-39764
X72126Y-40157
X72126Y-40551
X72126Y-40945
X72165Y-29094
X72165Y-48799
X72165Y-49232
X72239Y-27987
X72244Y-30079
X72244Y-31654
X72244Y-32441
X72244Y-33543
X72244Y-47008
X72291Y-50797
X72520Y-39370
X72520Y-39764
X72520Y-40157
X72520Y-40551
X72520Y-40945
X72583Y-42717
X72583Y-43346
X72598Y-57402
X72717Y-51929
X72717Y-53307
X72717Y-56614
X72835Y-48425
X72913Y-24882
X72913Y-39370
X72913Y-39764
X72913Y-40157
X72913Y-40551
X72913Y-40945
X72953Y-30079
X72953Y-33386
X72953Y-34331
X72953Y-32579
X73031Y-51102
X73031Y-54685
X73307Y-48425
X73386Y-47677
X73457Y-55701
X73543Y-35669
X73622Y-30079
X73622Y-33386
X73622Y-32579
X73661Y-50197
X74079Y-37205
X74079Y-42559
X74079Y-43346
X74173Y-55276
X74193Y-51102
X74193Y-51929
X74193Y-53307
X74193Y-53858
X74193Y-54685
X74291Y-47323
X74331Y-29449
X74331Y-32441
X74331Y-35669
X74409Y-57874
X74449Y-48425
X74626Y-51102
X74626Y-51929
X74626Y-52598
X74626Y-53307
X74626Y-53858
X74626Y-54685
X74646Y-34941
X74685Y-37992
X74738Y-28084
X74764Y-32559
X74764Y-33228
X74803Y-48465
X74803Y-49291
X74810Y-47760
X74882Y-22598
X74941Y-53551
X75000Y-33465
X75000Y-50866
X75079Y-37205
X75079Y-44449
X75079Y-32559
X75118Y-35669
X75118Y-36378
X75118Y-55787
X75170Y-55477
X75183Y-28530
X75197Y-21890
X75248Y-25051
X75276Y-50709
X75315Y-41043
X75335Y-47402
X75391Y-38664
X75413Y-33527
X75413Y-34016
X75413Y-34528
X75433Y-31142
X75433Y-57795
X75437Y-45437
X75472Y-53819
X75563Y-29409
X75669Y-39637
X75787Y-22947
X75787Y-23740
X75866Y-32756
X75940Y-43588
X75945Y-40551
X75945Y-42480
X75945Y-43110
X75945Y-44094
X75949Y-54278
X75984Y-55000
X76193Y-29409
X76205Y-34528
X76205Y-35551
X76220Y-33543
X76391Y-39632
X76929Y-22947
X76929Y-23583
X77047Y-42480
X77795Y-38583
T2
X77283Y-43110
X77283Y-43602
X77283Y-44094
X77283Y-44587
X77283Y-45079
X77283Y-40551
X77362Y-22126
X77283Y-41535
X76378Y-22126
X76870Y-22126
X77283Y-41043
T3
X41142Y-26811
X41929Y-26811
X48701Y-44449
X48701Y-21850
X49488Y-21850
X49488Y-44449
X56772Y-35866
X56772Y-36654
X56457Y-31890
X57244Y-31890
X48701Y-26811
X49488Y-26811
X41142Y-51929
X41929Y-51929
X48701Y-24370
X49488Y-24370
X60709Y-18780
X60709Y-20157
X48701Y-36732
X49488Y-36732
X48701Y-56890
X49488Y-56890
X41142Y-39370
X41929Y-39370
X57323Y-18819
X57323Y-20197
X76402Y-50642
X48701Y-42008
X76402Y-51642
X76402Y-52642
X76402Y-53642
X76402Y-54642
X76402Y-55642
X76402Y-56642
X77402Y-51142
X77402Y-52142
X77402Y-53142
X77402Y-54142
X77402Y-55142
X77402Y-56142
X77402Y-57142
X56772Y-40276
X56772Y-41063
X41142Y-46969
X41929Y-46969
X41142Y-54370
X41929Y-54370
X56772Y-38071
X56772Y-38858
X41142Y-31772
X41929Y-31772
X41142Y-29331
X41929Y-29331
X48701Y-51929
X49488Y-51929
X58268Y-27992
X59055Y-27992
X41142Y-59331
X41929Y-59331
X49488Y-42008
X41142Y-21850
X41929Y-21850
X41142Y-42008
X41929Y-42008
X58268Y-33583
X43346Y-39370
X44134Y-39370
X41142Y-19409
X41929Y-19409
X49961Y-39370
X50748Y-39370
X76390Y-23774
X76390Y-24774
X76390Y-25774
X76390Y-26774
X76390Y-27774
X77390Y-24274
X77390Y-25274
X77390Y-26274
X77390Y-27274
X59055Y-33583
X56772Y-42520
X56772Y-43307
X48701Y-46969
X49488Y-46969
X48701Y-54370
X49488Y-54370
X48701Y-31772
X49488Y-31772
X47756Y-39370
X48543Y-39370
X48701Y-34291
X49488Y-34291
X41142Y-34291
X41929Y-34291
X48701Y-59331
X49488Y-59331
X77390Y-28274
X41142Y-44449
X41929Y-44449
X48701Y-19409
X49488Y-19409
X48701Y-49409
X49488Y-49409
X41142Y-24370
X41929Y-24370
X41142Y-49409
X41929Y-49409
X64094Y-18780
X64094Y-20157
X41142Y-36732
X41929Y-36732
X45551Y-39370
X46339Y-39370
X41142Y-56890
X41929Y-56890
X56457Y-29646
X57244Y-29646
X48701Y-29331
X49488Y-29331
T4
X68976Y-45039
X69976Y-45039
X70976Y-45039
X71976Y-45039
X72976Y-45039
X73976Y-45039
X66937Y-59724
X67937Y-59724
X68937Y-59724
X69937Y-59724
X70937Y-59724
T5
X76441Y-30039
X76441Y-31039
X76441Y-32039
X76441Y-33039
X76441Y-34039
X76441Y-35039
X76441Y-36039
X76441Y-37039
X77441Y-30039
X77441Y-31039
X77441Y-32039
X77441Y-33039
X77441Y-34039
X77441Y-35039
X77441Y-36039
X77441Y-37039
X36736Y-25441
X36736Y-26441
X36736Y-27441
X36736Y-28441
X36736Y-29441
X36736Y-30441
X36736Y-31441
X36736Y-32441
X36736Y-33441
X36736Y-34441
X37736Y-47654
X36736Y-35441
X36736Y-36441
X36736Y-37441
X37736Y-25441
X37736Y-26441
X37736Y-27441
X37736Y-28441
X37736Y-29441
X37736Y-30441
X36736Y-43654
X37736Y-31441
X37736Y-32441
X37736Y-33441
X37736Y-34441
X37736Y-35441
X37736Y-36441
X37736Y-37441
X64488Y-28173
X64488Y-29173
X60984Y-46614
X60984Y-47614
X60984Y-48614
X60984Y-49614
X60984Y-50614
X60984Y-51614
X60984Y-52614
X60984Y-53614
X60984Y-54614
X60984Y-55614
X61984Y-46614
X61984Y-47614
X61984Y-48614
X61984Y-49614
X61984Y-50614
X57228Y-59724
X58228Y-59724
X36736Y-41654
X36736Y-42654
X36736Y-44654
X36736Y-45654
X36736Y-46654
X36736Y-47654
X36736Y-48654
X36736Y-49654
X36736Y-50654
X36736Y-51654
X36736Y-52654
X36736Y-53654
X37736Y-41654
X37736Y-42654
X37736Y-43654
X37736Y-44654
X37736Y-45654
X37736Y-46654
X37736Y-48654
X37736Y-49654
X37736Y-50654
X37736Y-51654
X37736Y-52654
X61984Y-51614
X61984Y-52614
X61984Y-54614
X37736Y-53654
X61984Y-53614
X61984Y-55614
T6
X67638Y-18819
X67638Y-20000
X68819Y-18819
X68819Y-20000
T7
X76693Y-46409
X76693Y-47409
X76693Y-48409
X76693Y-49409
T8
X77110Y-50091
X76681Y-28825
T9
X37402Y-19685
X76772Y-19685
X76772Y-59055
X37402Y-59055
T10
X66457Y-20370
X70000Y-20394
T0
M30
