G04 #@! TF.GenerationSoftware,KiCad,Pcbnew,(5.1.0-0)*
G04 #@! TF.CreationDate,2019-11-06T10:25:11+01:00*
G04 #@! TF.ProjectId,AddOnD,4164644f-6e44-42e6-9b69-6361645f7063,rev?*
G04 #@! TF.SameCoordinates,Original*
G04 #@! TF.FileFunction,Legend,Bot*
G04 #@! TF.FilePolarity,Positive*
%FSLAX46Y46*%
G04 Gerber Fmt 4.6, Leading zero omitted, Abs format (unit mm)*
G04 Created by KiCad (PCBNEW (5.1.0-0)) date 2019-11-06 10:25:11*
%MOMM*%
%LPD*%
G04 APERTURE LIST*
%ADD10C,0.150000*%
%ADD11C,0.010000*%
G04 APERTURE END LIST*
D10*
X7500000Y45000000D02*
X7500000Y90000000D01*
X193500000Y45000000D02*
X7500000Y45000000D01*
X193500000Y90000000D02*
X193500000Y45000000D01*
X7500000Y90000000D02*
X193500000Y90000000D01*
D11*
G36*
X174766665Y52083594D02*
G01*
X175061015Y52083305D01*
X175162990Y52082880D01*
X175243645Y52081592D01*
X175308112Y52079086D01*
X175361524Y52075004D01*
X175409012Y52068992D01*
X175455711Y52060692D01*
X175489611Y52053564D01*
X175719451Y51990246D01*
X175938768Y51903988D01*
X176145799Y51795991D01*
X176338780Y51667456D01*
X176515951Y51519582D01*
X176675547Y51353570D01*
X176815807Y51170621D01*
X176840446Y51133551D01*
X176892244Y51046598D01*
X176945145Y50945180D01*
X176996164Y50836134D01*
X177042318Y50726298D01*
X177080625Y50622512D01*
X177108102Y50531612D01*
X177114196Y50506016D01*
X177123561Y50463021D01*
X175361979Y50463021D01*
X175361979Y49523750D01*
X177123561Y49523750D01*
X177114196Y49480756D01*
X177089136Y49389389D01*
X177051648Y49283531D01*
X177004815Y49170122D01*
X176951718Y49056108D01*
X176895440Y48948431D01*
X176839064Y48854033D01*
X176829608Y48839681D01*
X176685866Y48648209D01*
X176524667Y48476370D01*
X176347010Y48324837D01*
X176153891Y48194281D01*
X175946309Y48085376D01*
X175725262Y47998794D01*
X175491745Y47935206D01*
X175486044Y47933979D01*
X175433462Y47923378D01*
X175385042Y47915487D01*
X175335391Y47909922D01*
X175279119Y47906298D01*
X175210832Y47904231D01*
X175125141Y47903336D01*
X175054401Y47903201D01*
X174766667Y47903224D01*
X174766667Y46970521D01*
X175054401Y46972238D01*
X175146376Y46973291D01*
X175236109Y46975234D01*
X175317842Y46977874D01*
X175385821Y46981019D01*
X175434289Y46984474D01*
X175441354Y46985211D01*
X175666763Y47021406D01*
X175898614Y47078624D01*
X176130575Y47154716D01*
X176356315Y47247535D01*
X176569501Y47354932D01*
X176625303Y47386865D01*
X176788844Y47492333D01*
X176954786Y47616455D01*
X177116573Y47753569D01*
X177267650Y47898018D01*
X177401460Y48044141D01*
X177438007Y48088393D01*
X177599327Y48309988D01*
X177740652Y48547622D01*
X177860975Y48798911D01*
X177959289Y49061468D01*
X178034588Y49332908D01*
X178085865Y49610845D01*
X178088410Y49629584D01*
X178095359Y49701249D01*
X178100292Y49791954D01*
X178103208Y49895077D01*
X178104105Y50003991D01*
X178102981Y50112075D01*
X178099834Y50212702D01*
X178094662Y50299248D01*
X178088617Y50357188D01*
X178036661Y50642106D01*
X177961431Y50917646D01*
X177863609Y51182191D01*
X177743879Y51434123D01*
X177602924Y51671823D01*
X177441427Y51893675D01*
X177438007Y51897921D01*
X177257720Y52100879D01*
X177058578Y52287344D01*
X176843027Y52455786D01*
X176613515Y52604675D01*
X176372491Y52732483D01*
X176122400Y52837678D01*
X175865691Y52918733D01*
X175765381Y52943231D01*
X175641470Y52969062D01*
X175526300Y52988408D01*
X175412480Y53002019D01*
X175292615Y53010644D01*
X175159313Y53015032D01*
X175047787Y53015992D01*
X174766667Y53016250D01*
X174766665Y52083594D01*
X174766665Y52083594D01*
G37*
X174766665Y52083594D02*
X175061015Y52083305D01*
X175162990Y52082880D01*
X175243645Y52081592D01*
X175308112Y52079086D01*
X175361524Y52075004D01*
X175409012Y52068992D01*
X175455711Y52060692D01*
X175489611Y52053564D01*
X175719451Y51990246D01*
X175938768Y51903988D01*
X176145799Y51795991D01*
X176338780Y51667456D01*
X176515951Y51519582D01*
X176675547Y51353570D01*
X176815807Y51170621D01*
X176840446Y51133551D01*
X176892244Y51046598D01*
X176945145Y50945180D01*
X176996164Y50836134D01*
X177042318Y50726298D01*
X177080625Y50622512D01*
X177108102Y50531612D01*
X177114196Y50506016D01*
X177123561Y50463021D01*
X175361979Y50463021D01*
X175361979Y49523750D01*
X177123561Y49523750D01*
X177114196Y49480756D01*
X177089136Y49389389D01*
X177051648Y49283531D01*
X177004815Y49170122D01*
X176951718Y49056108D01*
X176895440Y48948431D01*
X176839064Y48854033D01*
X176829608Y48839681D01*
X176685866Y48648209D01*
X176524667Y48476370D01*
X176347010Y48324837D01*
X176153891Y48194281D01*
X175946309Y48085376D01*
X175725262Y47998794D01*
X175491745Y47935206D01*
X175486044Y47933979D01*
X175433462Y47923378D01*
X175385042Y47915487D01*
X175335391Y47909922D01*
X175279119Y47906298D01*
X175210832Y47904231D01*
X175125141Y47903336D01*
X175054401Y47903201D01*
X174766667Y47903224D01*
X174766667Y46970521D01*
X175054401Y46972238D01*
X175146376Y46973291D01*
X175236109Y46975234D01*
X175317842Y46977874D01*
X175385821Y46981019D01*
X175434289Y46984474D01*
X175441354Y46985211D01*
X175666763Y47021406D01*
X175898614Y47078624D01*
X176130575Y47154716D01*
X176356315Y47247535D01*
X176569501Y47354932D01*
X176625303Y47386865D01*
X176788844Y47492333D01*
X176954786Y47616455D01*
X177116573Y47753569D01*
X177267650Y47898018D01*
X177401460Y48044141D01*
X177438007Y48088393D01*
X177599327Y48309988D01*
X177740652Y48547622D01*
X177860975Y48798911D01*
X177959289Y49061468D01*
X178034588Y49332908D01*
X178085865Y49610845D01*
X178088410Y49629584D01*
X178095359Y49701249D01*
X178100292Y49791954D01*
X178103208Y49895077D01*
X178104105Y50003991D01*
X178102981Y50112075D01*
X178099834Y50212702D01*
X178094662Y50299248D01*
X178088617Y50357188D01*
X178036661Y50642106D01*
X177961431Y50917646D01*
X177863609Y51182191D01*
X177743879Y51434123D01*
X177602924Y51671823D01*
X177441427Y51893675D01*
X177438007Y51897921D01*
X177257720Y52100879D01*
X177058578Y52287344D01*
X176843027Y52455786D01*
X176613515Y52604675D01*
X176372491Y52732483D01*
X176122400Y52837678D01*
X175865691Y52918733D01*
X175765381Y52943231D01*
X175641470Y52969062D01*
X175526300Y52988408D01*
X175412480Y53002019D01*
X175292615Y53010644D01*
X175159313Y53015032D01*
X175047787Y53015992D01*
X174766667Y53016250D01*
X174766665Y52083594D01*
G36*
X180060813Y53015685D02*
G01*
X179996330Y53014025D01*
X179949697Y53011055D01*
X179929349Y53007912D01*
X179899583Y52999935D01*
X179899583Y52079470D01*
X180109119Y52086741D01*
X180318953Y52086477D01*
X180513141Y52069618D01*
X180697580Y52034925D01*
X180878168Y51981161D01*
X181060803Y51907089D01*
X181136511Y51871121D01*
X181317062Y51772023D01*
X181479702Y51660674D01*
X181632099Y51531592D01*
X181691378Y51474295D01*
X181848015Y51299139D01*
X181983527Y51108480D01*
X182097234Y50903606D01*
X182188456Y50685807D01*
X182256515Y50456371D01*
X182276674Y50363803D01*
X182288823Y50279756D01*
X182296934Y50176766D01*
X182301015Y50062035D01*
X182301074Y49942766D01*
X182297116Y49826163D01*
X182289149Y49719429D01*
X182277181Y49629767D01*
X182275943Y49622969D01*
X182220089Y49394241D01*
X182140701Y49176035D01*
X182039069Y48969823D01*
X181916478Y48777072D01*
X181774219Y48599252D01*
X181613579Y48437832D01*
X181435845Y48294281D01*
X181242307Y48170069D01*
X181034252Y48066664D01*
X180850763Y47997465D01*
X180747623Y47965882D01*
X180652893Y47941871D01*
X180560130Y47924537D01*
X180462894Y47912984D01*
X180354742Y47906320D01*
X180229233Y47903648D01*
X180174089Y47903496D01*
X179899583Y47903814D01*
X179899583Y46986836D01*
X179929349Y46978859D01*
X179954749Y46975862D01*
X180001744Y46973797D01*
X180065490Y46972618D01*
X180141142Y46972277D01*
X180223854Y46972726D01*
X180308783Y46973917D01*
X180391083Y46975803D01*
X180465909Y46978337D01*
X180528417Y46981469D01*
X180573762Y46985153D01*
X180574271Y46985211D01*
X180687271Y47001659D01*
X180814872Y47026294D01*
X180947338Y47056917D01*
X181074934Y47091333D01*
X181156016Y47116464D01*
X181420553Y47217502D01*
X181671277Y47340487D01*
X181907195Y47484223D01*
X182127320Y47647513D01*
X182330660Y47829162D01*
X182516227Y48027974D01*
X182683030Y48242753D01*
X182830079Y48472302D01*
X182956385Y48715427D01*
X183060958Y48970930D01*
X183142808Y49237617D01*
X183200945Y49514291D01*
X183214162Y49603125D01*
X183222618Y49687893D01*
X183228437Y49791882D01*
X183231618Y49907991D01*
X183232161Y50029113D01*
X183230066Y50148146D01*
X183225334Y50257986D01*
X183217963Y50351528D01*
X183214162Y50383646D01*
X183163241Y50666294D01*
X183087795Y50939386D01*
X182988081Y51202286D01*
X182864354Y51454363D01*
X182716872Y51694983D01*
X182638048Y51805782D01*
X182459770Y52023277D01*
X182263767Y52221656D01*
X182051402Y52400118D01*
X181824041Y52557867D01*
X181583047Y52694103D01*
X181329787Y52808029D01*
X181065623Y52898847D01*
X180791921Y52965759D01*
X180601120Y52997187D01*
X180548646Y53002510D01*
X180479782Y53007070D01*
X180399419Y53010788D01*
X180312450Y53013587D01*
X180223764Y53015388D01*
X180138255Y53016113D01*
X180060813Y53015685D01*
X180060813Y53015685D01*
G37*
X180060813Y53015685D02*
X179996330Y53014025D01*
X179949697Y53011055D01*
X179929349Y53007912D01*
X179899583Y52999935D01*
X179899583Y52079470D01*
X180109119Y52086741D01*
X180318953Y52086477D01*
X180513141Y52069618D01*
X180697580Y52034925D01*
X180878168Y51981161D01*
X181060803Y51907089D01*
X181136511Y51871121D01*
X181317062Y51772023D01*
X181479702Y51660674D01*
X181632099Y51531592D01*
X181691378Y51474295D01*
X181848015Y51299139D01*
X181983527Y51108480D01*
X182097234Y50903606D01*
X182188456Y50685807D01*
X182256515Y50456371D01*
X182276674Y50363803D01*
X182288823Y50279756D01*
X182296934Y50176766D01*
X182301015Y50062035D01*
X182301074Y49942766D01*
X182297116Y49826163D01*
X182289149Y49719429D01*
X182277181Y49629767D01*
X182275943Y49622969D01*
X182220089Y49394241D01*
X182140701Y49176035D01*
X182039069Y48969823D01*
X181916478Y48777072D01*
X181774219Y48599252D01*
X181613579Y48437832D01*
X181435845Y48294281D01*
X181242307Y48170069D01*
X181034252Y48066664D01*
X180850763Y47997465D01*
X180747623Y47965882D01*
X180652893Y47941871D01*
X180560130Y47924537D01*
X180462894Y47912984D01*
X180354742Y47906320D01*
X180229233Y47903648D01*
X180174089Y47903496D01*
X179899583Y47903814D01*
X179899583Y46986836D01*
X179929349Y46978859D01*
X179954749Y46975862D01*
X180001744Y46973797D01*
X180065490Y46972618D01*
X180141142Y46972277D01*
X180223854Y46972726D01*
X180308783Y46973917D01*
X180391083Y46975803D01*
X180465909Y46978337D01*
X180528417Y46981469D01*
X180573762Y46985153D01*
X180574271Y46985211D01*
X180687271Y47001659D01*
X180814872Y47026294D01*
X180947338Y47056917D01*
X181074934Y47091333D01*
X181156016Y47116464D01*
X181420553Y47217502D01*
X181671277Y47340487D01*
X181907195Y47484223D01*
X182127320Y47647513D01*
X182330660Y47829162D01*
X182516227Y48027974D01*
X182683030Y48242753D01*
X182830079Y48472302D01*
X182956385Y48715427D01*
X183060958Y48970930D01*
X183142808Y49237617D01*
X183200945Y49514291D01*
X183214162Y49603125D01*
X183222618Y49687893D01*
X183228437Y49791882D01*
X183231618Y49907991D01*
X183232161Y50029113D01*
X183230066Y50148146D01*
X183225334Y50257986D01*
X183217963Y50351528D01*
X183214162Y50383646D01*
X183163241Y50666294D01*
X183087795Y50939386D01*
X182988081Y51202286D01*
X182864354Y51454363D01*
X182716872Y51694983D01*
X182638048Y51805782D01*
X182459770Y52023277D01*
X182263767Y52221656D01*
X182051402Y52400118D01*
X181824041Y52557867D01*
X181583047Y52694103D01*
X181329787Y52808029D01*
X181065623Y52898847D01*
X180791921Y52965759D01*
X180601120Y52997187D01*
X180548646Y53002510D01*
X180479782Y53007070D01*
X180399419Y53010788D01*
X180312450Y53013587D01*
X180223764Y53015388D01*
X180138255Y53016113D01*
X180060813Y53015685D01*
G36*
X185176744Y53900663D02*
G01*
X185177567Y53784934D01*
X185777885Y53175000D01*
X186378204Y52565066D01*
X186378641Y52285165D01*
X186379079Y52005263D01*
X186744663Y52005263D01*
X186754083Y51934244D01*
X186757650Y51901873D01*
X186763662Y51840913D01*
X186771799Y51755002D01*
X186781738Y51647774D01*
X186793157Y51522867D01*
X186805736Y51383917D01*
X186819153Y51234559D01*
X186833085Y51078432D01*
X186847212Y50919170D01*
X186861212Y50760410D01*
X186874763Y50605789D01*
X186887544Y50458943D01*
X186899233Y50323507D01*
X186909508Y50203120D01*
X186918048Y50101416D01*
X186924531Y50022033D01*
X186928636Y49968606D01*
X186930041Y49944771D01*
X186930040Y49944658D01*
X186919796Y49925534D01*
X186889026Y49886045D01*
X186837311Y49825734D01*
X186764233Y49744139D01*
X186669373Y49640802D01*
X186552313Y49515262D01*
X186412633Y49367060D01*
X186249916Y49195737D01*
X186204179Y49147763D01*
X185478805Y48387434D01*
X185537449Y48328948D01*
X185596092Y48270461D01*
X185690974Y48373690D01*
X185725685Y48410997D01*
X185779906Y48468689D01*
X185850059Y48542987D01*
X185932568Y48630111D01*
X186023855Y48726282D01*
X186120342Y48827720D01*
X186178065Y48888305D01*
X186286434Y49001803D01*
X186374028Y49092715D01*
X186443080Y49162693D01*
X186495824Y49213390D01*
X186534494Y49246460D01*
X186561323Y49263556D01*
X186578544Y49266331D01*
X186588392Y49256437D01*
X186593099Y49235529D01*
X186594899Y49205259D01*
X186595141Y49196998D01*
X186607658Y49140091D01*
X186638497Y49071307D01*
X186681503Y49001525D01*
X186730520Y48941622D01*
X186750134Y48923118D01*
X186850770Y48858372D01*
X186968327Y48822146D01*
X187072262Y48813553D01*
X187190049Y48829761D01*
X187298831Y48877288D01*
X187395110Y48954489D01*
X187412875Y48973705D01*
X187477832Y49047500D01*
X188601579Y49047500D01*
X188601579Y48813553D01*
X188902368Y48813553D01*
X188902368Y48922848D01*
X188906143Y48997461D01*
X188918825Y49049250D01*
X188934237Y49077420D01*
X188945250Y49097576D01*
X188954679Y49126800D01*
X188963151Y49169425D01*
X188971290Y49229783D01*
X188979721Y49312207D01*
X188989068Y49421028D01*
X188995469Y49501983D01*
X189024831Y49881268D01*
X189745659Y49151062D01*
X189875992Y49018934D01*
X190001108Y48891904D01*
X190118721Y48772305D01*
X190226545Y48662472D01*
X190322295Y48564737D01*
X190403683Y48481434D01*
X190468423Y48414896D01*
X190514230Y48367458D01*
X190538792Y48341480D01*
X190579145Y48300351D01*
X190612805Y48271665D01*
X190630910Y48262105D01*
X190654035Y48273303D01*
X190687743Y48301281D01*
X190699169Y48312674D01*
X190747617Y48363243D01*
X190480881Y48634298D01*
X190412831Y48703348D01*
X190325085Y48792226D01*
X190221492Y48897041D01*
X190105900Y49013903D01*
X189982159Y49138921D01*
X189854119Y49268205D01*
X189725628Y49397864D01*
X189633454Y49490821D01*
X189493342Y49632480D01*
X189375632Y49752409D01*
X189278820Y49852232D01*
X189201399Y49933572D01*
X189141864Y49998052D01*
X189112358Y50031723D01*
X188875409Y50031723D01*
X188845743Y49652408D01*
X188836797Y49541223D01*
X188828142Y49439547D01*
X188820271Y49352696D01*
X188813672Y49285982D01*
X188808836Y49244721D01*
X188807280Y49235494D01*
X188798482Y49197895D01*
X187536681Y49197895D01*
X187528258Y49302827D01*
X187502828Y49426805D01*
X187449611Y49536476D01*
X187371963Y49627844D01*
X187273237Y49696917D01*
X187162428Y49738380D01*
X187126480Y49757829D01*
X187108483Y49799570D01*
X187108106Y49801411D01*
X187105947Y49819033D01*
X187108616Y49837078D01*
X187118720Y49858892D01*
X187138863Y49887823D01*
X187171651Y49927217D01*
X187219690Y49980423D01*
X187285584Y50050786D01*
X187371940Y50141654D01*
X187377520Y50147507D01*
X187470405Y50245044D01*
X187569155Y50348933D01*
X187666984Y50452023D01*
X187757107Y50547161D01*
X187832738Y50627196D01*
X187849605Y50645089D01*
X187914265Y50712556D01*
X187971705Y50770291D01*
X188017801Y50814325D01*
X188048431Y50840686D01*
X188058715Y50846479D01*
X188074052Y50834354D01*
X188109917Y50801090D01*
X188163488Y50749458D01*
X188231940Y50682225D01*
X188312447Y50602163D01*
X188402187Y50512039D01*
X188475532Y50437802D01*
X188875409Y50031723D01*
X189112358Y50031723D01*
X189098709Y50047297D01*
X189070429Y50082929D01*
X189055517Y50106571D01*
X189052199Y50117520D01*
X189053456Y50141414D01*
X189057274Y50195499D01*
X189063407Y50276662D01*
X189071607Y50381790D01*
X189081627Y50507772D01*
X189093220Y50651495D01*
X189106140Y50809846D01*
X189120138Y50979713D01*
X189131419Y51115472D01*
X189195250Y51880894D01*
X189031004Y51880894D01*
X189030297Y51864376D01*
X189026969Y51817855D01*
X189021290Y51744622D01*
X189013526Y51647972D01*
X189003943Y51531195D01*
X188992811Y51397586D01*
X188980395Y51250437D01*
X188968480Y51110729D01*
X188954984Y50952213D01*
X188942413Y50802579D01*
X188931055Y50665398D01*
X188921198Y50544241D01*
X188913130Y50442680D01*
X188907140Y50364288D01*
X188903515Y50312637D01*
X188902509Y50292577D01*
X188900940Y50280092D01*
X188894722Y50275138D01*
X188881459Y50279782D01*
X188858753Y50296091D01*
X188824208Y50326132D01*
X188775427Y50371973D01*
X188710013Y50435680D01*
X188625569Y50519321D01*
X188535971Y50608701D01*
X188169574Y50974814D01*
X188172141Y50977566D01*
X187929951Y50977566D01*
X187918913Y50962450D01*
X187888013Y50926858D01*
X187840347Y50874059D01*
X187779013Y50807327D01*
X187707107Y50729930D01*
X187627727Y50645142D01*
X187543969Y50556233D01*
X187458930Y50466474D01*
X187375708Y50379136D01*
X187297399Y50297491D01*
X187227100Y50224809D01*
X187167909Y50164363D01*
X187122922Y50119422D01*
X187095236Y50093258D01*
X187087686Y50087928D01*
X187085197Y50105133D01*
X187080030Y50152652D01*
X187072470Y50227511D01*
X187062800Y50326736D01*
X187051305Y50447351D01*
X187038269Y50586382D01*
X187023976Y50740855D01*
X187008710Y50907794D01*
X186996521Y51042403D01*
X186980929Y51216946D01*
X186966523Y51381373D01*
X186953547Y51532701D01*
X186942241Y51667947D01*
X186932848Y51784130D01*
X186925611Y51878265D01*
X186920772Y51947370D01*
X186918573Y51988462D01*
X186918824Y51999132D01*
X186931970Y51989628D01*
X186965446Y51959080D01*
X187016326Y51910444D01*
X187081683Y51846677D01*
X187158591Y51770735D01*
X187244124Y51685576D01*
X187335354Y51594155D01*
X187429356Y51499431D01*
X187523202Y51404359D01*
X187613967Y51311897D01*
X187698723Y51225001D01*
X187774544Y51146628D01*
X187838503Y51079735D01*
X187887674Y51027278D01*
X187919131Y50992215D01*
X187929951Y50977566D01*
X188172141Y50977566D01*
X188306202Y51121240D01*
X188375784Y51195552D01*
X188453881Y51278517D01*
X188537406Y51366898D01*
X188623270Y51457459D01*
X188708385Y51546964D01*
X188789664Y51632177D01*
X188864019Y51709861D01*
X188928363Y51776780D01*
X188979606Y51829697D01*
X189014663Y51865377D01*
X189030444Y51880584D01*
X189031004Y51880894D01*
X189195250Y51880894D01*
X189211204Y52072193D01*
X190009286Y52911515D01*
X190807368Y53750836D01*
X190806781Y53868148D01*
X190806194Y53985461D01*
X190677275Y53847747D01*
X190605124Y53770937D01*
X190519940Y53680696D01*
X190424021Y53579425D01*
X190319666Y53469524D01*
X190209174Y53353396D01*
X190094844Y53233442D01*
X189978975Y53112064D01*
X189863865Y52991662D01*
X189751814Y52874638D01*
X189645119Y52763394D01*
X189546080Y52660331D01*
X189456997Y52567850D01*
X189380166Y52488353D01*
X189317888Y52424242D01*
X189272462Y52377917D01*
X189246185Y52351781D01*
X189240426Y52346767D01*
X189240030Y52364209D01*
X189242208Y52408865D01*
X189246583Y52474660D01*
X189252775Y52555517D01*
X189255433Y52587817D01*
X189275228Y52824079D01*
X189120242Y52824079D01*
X189112240Y52786480D01*
X189108160Y52756745D01*
X189102425Y52700797D01*
X189095701Y52625764D01*
X189088648Y52538775D01*
X189086207Y52506579D01*
X189079008Y52414139D01*
X189071742Y52328293D01*
X189065136Y52257153D01*
X189059916Y52208831D01*
X189058739Y52200061D01*
X189054298Y52182058D01*
X189044687Y52160983D01*
X189027860Y52134475D01*
X189001775Y52100172D01*
X188964387Y52055711D01*
X188913654Y51998729D01*
X188847530Y51926864D01*
X188763974Y51837754D01*
X188660940Y51729036D01*
X188555833Y51618725D01*
X188451262Y51509559D01*
X188353649Y51408460D01*
X188265422Y51317885D01*
X188189012Y51240292D01*
X188126849Y51178138D01*
X188081363Y51133882D01*
X188054983Y51109982D01*
X188049357Y51106426D01*
X188034557Y51119319D01*
X187999961Y51152940D01*
X187948929Y51203918D01*
X187884817Y51268880D01*
X187810984Y51344452D01*
X187757589Y51399507D01*
X187478827Y51687763D01*
X188300790Y51687763D01*
X188300790Y52005263D01*
X187298158Y52005263D01*
X187298158Y51863794D01*
X187114342Y52047040D01*
X186983948Y52177029D01*
X186730000Y52177029D01*
X186727571Y52156523D01*
X186715276Y52145098D01*
X186685604Y52140120D01*
X186631045Y52138956D01*
X186621382Y52138948D01*
X186512763Y52138948D01*
X186512763Y52430416D01*
X186621382Y52322763D01*
X186682654Y52257313D01*
X186719301Y52207171D01*
X186730000Y52177029D01*
X186983948Y52177029D01*
X186930526Y52230285D01*
X186930526Y52393498D01*
X186930015Y52468586D01*
X186927672Y52516355D01*
X186922289Y52542902D01*
X186912656Y52554321D01*
X186898129Y52556711D01*
X186881973Y52560220D01*
X186870031Y52574289D01*
X186860861Y52604231D01*
X186853018Y52655358D01*
X186845058Y52732983D01*
X186842504Y52761415D01*
X186836974Y52824079D01*
X189120242Y52824079D01*
X189275228Y52824079D01*
X189487237Y52824079D01*
X189487237Y52974474D01*
X189397141Y52974474D01*
X189344445Y52975917D01*
X189315812Y52982884D01*
X189312309Y52987030D01*
X189127766Y52987030D01*
X189118054Y52977558D01*
X189084412Y52974634D01*
X189061706Y52974474D01*
X188985921Y52974474D01*
X188703306Y52974474D01*
X186823481Y52974474D01*
X186887062Y53039587D01*
X186985814Y53119938D01*
X187108032Y53181911D01*
X187255787Y53226354D01*
X187402599Y53250935D01*
X187498684Y53262404D01*
X187498684Y53141579D01*
X188267368Y53141579D01*
X188267368Y53278655D01*
X188380165Y53267224D01*
X188458975Y53257575D01*
X188542943Y53244786D01*
X188593224Y53235652D01*
X188693487Y53215512D01*
X188698397Y53094993D01*
X188703306Y52974474D01*
X188985921Y52974474D01*
X188985921Y53041316D01*
X188988131Y53083190D01*
X188993650Y53106464D01*
X188995874Y53108158D01*
X189020613Y53097440D01*
X189056757Y53071437D01*
X189092990Y53039377D01*
X189117999Y53010489D01*
X189120227Y53006733D01*
X189127766Y52987030D01*
X189312309Y52987030D01*
X189301919Y52999326D01*
X189296311Y53017238D01*
X189273422Y53063721D01*
X189229460Y53119600D01*
X189171989Y53177040D01*
X189108573Y53228207D01*
X189066918Y53254857D01*
X189019466Y53284028D01*
X188995141Y53308533D01*
X188986595Y53337428D01*
X188985938Y53354638D01*
X188985937Y53358816D01*
X188133684Y53358816D01*
X188133684Y53275263D01*
X187632368Y53275263D01*
X187632368Y53358816D01*
X188133684Y53358816D01*
X188985937Y53358816D01*
X188985921Y53408948D01*
X188845274Y53408948D01*
X188780564Y53407383D01*
X188730130Y53403215D01*
X188702094Y53397227D01*
X188699057Y53394803D01*
X188681273Y53391082D01*
X188637992Y53392606D01*
X188576651Y53398925D01*
X188534737Y53404760D01*
X188458737Y53416222D01*
X188389230Y53426570D01*
X188336997Y53434204D01*
X188321678Y53436373D01*
X188281653Y53448768D01*
X188267368Y53468192D01*
X188263025Y53476102D01*
X188247490Y53482137D01*
X188217001Y53486534D01*
X188167800Y53489531D01*
X188096126Y53491365D01*
X187998219Y53492275D01*
X187883026Y53492500D01*
X187760086Y53492372D01*
X187666559Y53491770D01*
X187598440Y53490361D01*
X187551719Y53487819D01*
X187522391Y53483811D01*
X187506449Y53478009D01*
X187499885Y53470083D01*
X187498684Y53460867D01*
X187488460Y53431615D01*
X187454970Y53414969D01*
X187393988Y53409032D01*
X187383017Y53408948D01*
X187279746Y53398294D01*
X187162453Y53368967D01*
X187041715Y53324916D01*
X186928111Y53270089D01*
X186832219Y53208436D01*
X186819799Y53198668D01*
X186779318Y53166885D01*
X186755345Y53154156D01*
X186738604Y53158271D01*
X186721419Y53175250D01*
X186670664Y53208508D01*
X186604607Y53221275D01*
X186533474Y53214635D01*
X186467486Y53189673D01*
X186416868Y53147471D01*
X186413203Y53142566D01*
X186375328Y53063789D01*
X186368281Y52982246D01*
X186391285Y52904513D01*
X186443563Y52837165D01*
X186449956Y52831604D01*
X186487073Y52805187D01*
X186524733Y52793553D01*
X186577676Y52792713D01*
X186590902Y52793458D01*
X186642703Y52795359D01*
X186669386Y52791004D01*
X186679045Y52777862D01*
X186680037Y52765592D01*
X186682061Y52729998D01*
X186687086Y52676467D01*
X186690697Y52644441D01*
X186695934Y52593573D01*
X186693756Y52567532D01*
X186681125Y52558014D01*
X186658625Y52556711D01*
X186645282Y52561014D01*
X186623756Y52574943D01*
X186592452Y52600023D01*
X186549776Y52637781D01*
X186494132Y52689744D01*
X186423925Y52757438D01*
X186337560Y52842389D01*
X186233442Y52946125D01*
X186109975Y53070172D01*
X185965564Y53216056D01*
X185895969Y53286551D01*
X185175921Y54016390D01*
X185176744Y53900663D01*
X185176744Y53900663D01*
G37*
X185176744Y53900663D02*
X185177567Y53784934D01*
X185777885Y53175000D01*
X186378204Y52565066D01*
X186378641Y52285165D01*
X186379079Y52005263D01*
X186744663Y52005263D01*
X186754083Y51934244D01*
X186757650Y51901873D01*
X186763662Y51840913D01*
X186771799Y51755002D01*
X186781738Y51647774D01*
X186793157Y51522867D01*
X186805736Y51383917D01*
X186819153Y51234559D01*
X186833085Y51078432D01*
X186847212Y50919170D01*
X186861212Y50760410D01*
X186874763Y50605789D01*
X186887544Y50458943D01*
X186899233Y50323507D01*
X186909508Y50203120D01*
X186918048Y50101416D01*
X186924531Y50022033D01*
X186928636Y49968606D01*
X186930041Y49944771D01*
X186930040Y49944658D01*
X186919796Y49925534D01*
X186889026Y49886045D01*
X186837311Y49825734D01*
X186764233Y49744139D01*
X186669373Y49640802D01*
X186552313Y49515262D01*
X186412633Y49367060D01*
X186249916Y49195737D01*
X186204179Y49147763D01*
X185478805Y48387434D01*
X185537449Y48328948D01*
X185596092Y48270461D01*
X185690974Y48373690D01*
X185725685Y48410997D01*
X185779906Y48468689D01*
X185850059Y48542987D01*
X185932568Y48630111D01*
X186023855Y48726282D01*
X186120342Y48827720D01*
X186178065Y48888305D01*
X186286434Y49001803D01*
X186374028Y49092715D01*
X186443080Y49162693D01*
X186495824Y49213390D01*
X186534494Y49246460D01*
X186561323Y49263556D01*
X186578544Y49266331D01*
X186588392Y49256437D01*
X186593099Y49235529D01*
X186594899Y49205259D01*
X186595141Y49196998D01*
X186607658Y49140091D01*
X186638497Y49071307D01*
X186681503Y49001525D01*
X186730520Y48941622D01*
X186750134Y48923118D01*
X186850770Y48858372D01*
X186968327Y48822146D01*
X187072262Y48813553D01*
X187190049Y48829761D01*
X187298831Y48877288D01*
X187395110Y48954489D01*
X187412875Y48973705D01*
X187477832Y49047500D01*
X188601579Y49047500D01*
X188601579Y48813553D01*
X188902368Y48813553D01*
X188902368Y48922848D01*
X188906143Y48997461D01*
X188918825Y49049250D01*
X188934237Y49077420D01*
X188945250Y49097576D01*
X188954679Y49126800D01*
X188963151Y49169425D01*
X188971290Y49229783D01*
X188979721Y49312207D01*
X188989068Y49421028D01*
X188995469Y49501983D01*
X189024831Y49881268D01*
X189745659Y49151062D01*
X189875992Y49018934D01*
X190001108Y48891904D01*
X190118721Y48772305D01*
X190226545Y48662472D01*
X190322295Y48564737D01*
X190403683Y48481434D01*
X190468423Y48414896D01*
X190514230Y48367458D01*
X190538792Y48341480D01*
X190579145Y48300351D01*
X190612805Y48271665D01*
X190630910Y48262105D01*
X190654035Y48273303D01*
X190687743Y48301281D01*
X190699169Y48312674D01*
X190747617Y48363243D01*
X190480881Y48634298D01*
X190412831Y48703348D01*
X190325085Y48792226D01*
X190221492Y48897041D01*
X190105900Y49013903D01*
X189982159Y49138921D01*
X189854119Y49268205D01*
X189725628Y49397864D01*
X189633454Y49490821D01*
X189493342Y49632480D01*
X189375632Y49752409D01*
X189278820Y49852232D01*
X189201399Y49933572D01*
X189141864Y49998052D01*
X189112358Y50031723D01*
X188875409Y50031723D01*
X188845743Y49652408D01*
X188836797Y49541223D01*
X188828142Y49439547D01*
X188820271Y49352696D01*
X188813672Y49285982D01*
X188808836Y49244721D01*
X188807280Y49235494D01*
X188798482Y49197895D01*
X187536681Y49197895D01*
X187528258Y49302827D01*
X187502828Y49426805D01*
X187449611Y49536476D01*
X187371963Y49627844D01*
X187273237Y49696917D01*
X187162428Y49738380D01*
X187126480Y49757829D01*
X187108483Y49799570D01*
X187108106Y49801411D01*
X187105947Y49819033D01*
X187108616Y49837078D01*
X187118720Y49858892D01*
X187138863Y49887823D01*
X187171651Y49927217D01*
X187219690Y49980423D01*
X187285584Y50050786D01*
X187371940Y50141654D01*
X187377520Y50147507D01*
X187470405Y50245044D01*
X187569155Y50348933D01*
X187666984Y50452023D01*
X187757107Y50547161D01*
X187832738Y50627196D01*
X187849605Y50645089D01*
X187914265Y50712556D01*
X187971705Y50770291D01*
X188017801Y50814325D01*
X188048431Y50840686D01*
X188058715Y50846479D01*
X188074052Y50834354D01*
X188109917Y50801090D01*
X188163488Y50749458D01*
X188231940Y50682225D01*
X188312447Y50602163D01*
X188402187Y50512039D01*
X188475532Y50437802D01*
X188875409Y50031723D01*
X189112358Y50031723D01*
X189098709Y50047297D01*
X189070429Y50082929D01*
X189055517Y50106571D01*
X189052199Y50117520D01*
X189053456Y50141414D01*
X189057274Y50195499D01*
X189063407Y50276662D01*
X189071607Y50381790D01*
X189081627Y50507772D01*
X189093220Y50651495D01*
X189106140Y50809846D01*
X189120138Y50979713D01*
X189131419Y51115472D01*
X189195250Y51880894D01*
X189031004Y51880894D01*
X189030297Y51864376D01*
X189026969Y51817855D01*
X189021290Y51744622D01*
X189013526Y51647972D01*
X189003943Y51531195D01*
X188992811Y51397586D01*
X188980395Y51250437D01*
X188968480Y51110729D01*
X188954984Y50952213D01*
X188942413Y50802579D01*
X188931055Y50665398D01*
X188921198Y50544241D01*
X188913130Y50442680D01*
X188907140Y50364288D01*
X188903515Y50312637D01*
X188902509Y50292577D01*
X188900940Y50280092D01*
X188894722Y50275138D01*
X188881459Y50279782D01*
X188858753Y50296091D01*
X188824208Y50326132D01*
X188775427Y50371973D01*
X188710013Y50435680D01*
X188625569Y50519321D01*
X188535971Y50608701D01*
X188169574Y50974814D01*
X188172141Y50977566D01*
X187929951Y50977566D01*
X187918913Y50962450D01*
X187888013Y50926858D01*
X187840347Y50874059D01*
X187779013Y50807327D01*
X187707107Y50729930D01*
X187627727Y50645142D01*
X187543969Y50556233D01*
X187458930Y50466474D01*
X187375708Y50379136D01*
X187297399Y50297491D01*
X187227100Y50224809D01*
X187167909Y50164363D01*
X187122922Y50119422D01*
X187095236Y50093258D01*
X187087686Y50087928D01*
X187085197Y50105133D01*
X187080030Y50152652D01*
X187072470Y50227511D01*
X187062800Y50326736D01*
X187051305Y50447351D01*
X187038269Y50586382D01*
X187023976Y50740855D01*
X187008710Y50907794D01*
X186996521Y51042403D01*
X186980929Y51216946D01*
X186966523Y51381373D01*
X186953547Y51532701D01*
X186942241Y51667947D01*
X186932848Y51784130D01*
X186925611Y51878265D01*
X186920772Y51947370D01*
X186918573Y51988462D01*
X186918824Y51999132D01*
X186931970Y51989628D01*
X186965446Y51959080D01*
X187016326Y51910444D01*
X187081683Y51846677D01*
X187158591Y51770735D01*
X187244124Y51685576D01*
X187335354Y51594155D01*
X187429356Y51499431D01*
X187523202Y51404359D01*
X187613967Y51311897D01*
X187698723Y51225001D01*
X187774544Y51146628D01*
X187838503Y51079735D01*
X187887674Y51027278D01*
X187919131Y50992215D01*
X187929951Y50977566D01*
X188172141Y50977566D01*
X188306202Y51121240D01*
X188375784Y51195552D01*
X188453881Y51278517D01*
X188537406Y51366898D01*
X188623270Y51457459D01*
X188708385Y51546964D01*
X188789664Y51632177D01*
X188864019Y51709861D01*
X188928363Y51776780D01*
X188979606Y51829697D01*
X189014663Y51865377D01*
X189030444Y51880584D01*
X189031004Y51880894D01*
X189195250Y51880894D01*
X189211204Y52072193D01*
X190009286Y52911515D01*
X190807368Y53750836D01*
X190806781Y53868148D01*
X190806194Y53985461D01*
X190677275Y53847747D01*
X190605124Y53770937D01*
X190519940Y53680696D01*
X190424021Y53579425D01*
X190319666Y53469524D01*
X190209174Y53353396D01*
X190094844Y53233442D01*
X189978975Y53112064D01*
X189863865Y52991662D01*
X189751814Y52874638D01*
X189645119Y52763394D01*
X189546080Y52660331D01*
X189456997Y52567850D01*
X189380166Y52488353D01*
X189317888Y52424242D01*
X189272462Y52377917D01*
X189246185Y52351781D01*
X189240426Y52346767D01*
X189240030Y52364209D01*
X189242208Y52408865D01*
X189246583Y52474660D01*
X189252775Y52555517D01*
X189255433Y52587817D01*
X189275228Y52824079D01*
X189120242Y52824079D01*
X189112240Y52786480D01*
X189108160Y52756745D01*
X189102425Y52700797D01*
X189095701Y52625764D01*
X189088648Y52538775D01*
X189086207Y52506579D01*
X189079008Y52414139D01*
X189071742Y52328293D01*
X189065136Y52257153D01*
X189059916Y52208831D01*
X189058739Y52200061D01*
X189054298Y52182058D01*
X189044687Y52160983D01*
X189027860Y52134475D01*
X189001775Y52100172D01*
X188964387Y52055711D01*
X188913654Y51998729D01*
X188847530Y51926864D01*
X188763974Y51837754D01*
X188660940Y51729036D01*
X188555833Y51618725D01*
X188451262Y51509559D01*
X188353649Y51408460D01*
X188265422Y51317885D01*
X188189012Y51240292D01*
X188126849Y51178138D01*
X188081363Y51133882D01*
X188054983Y51109982D01*
X188049357Y51106426D01*
X188034557Y51119319D01*
X187999961Y51152940D01*
X187948929Y51203918D01*
X187884817Y51268880D01*
X187810984Y51344452D01*
X187757589Y51399507D01*
X187478827Y51687763D01*
X188300790Y51687763D01*
X188300790Y52005263D01*
X187298158Y52005263D01*
X187298158Y51863794D01*
X187114342Y52047040D01*
X186983948Y52177029D01*
X186730000Y52177029D01*
X186727571Y52156523D01*
X186715276Y52145098D01*
X186685604Y52140120D01*
X186631045Y52138956D01*
X186621382Y52138948D01*
X186512763Y52138948D01*
X186512763Y52430416D01*
X186621382Y52322763D01*
X186682654Y52257313D01*
X186719301Y52207171D01*
X186730000Y52177029D01*
X186983948Y52177029D01*
X186930526Y52230285D01*
X186930526Y52393498D01*
X186930015Y52468586D01*
X186927672Y52516355D01*
X186922289Y52542902D01*
X186912656Y52554321D01*
X186898129Y52556711D01*
X186881973Y52560220D01*
X186870031Y52574289D01*
X186860861Y52604231D01*
X186853018Y52655358D01*
X186845058Y52732983D01*
X186842504Y52761415D01*
X186836974Y52824079D01*
X189120242Y52824079D01*
X189275228Y52824079D01*
X189487237Y52824079D01*
X189487237Y52974474D01*
X189397141Y52974474D01*
X189344445Y52975917D01*
X189315812Y52982884D01*
X189312309Y52987030D01*
X189127766Y52987030D01*
X189118054Y52977558D01*
X189084412Y52974634D01*
X189061706Y52974474D01*
X188985921Y52974474D01*
X188703306Y52974474D01*
X186823481Y52974474D01*
X186887062Y53039587D01*
X186985814Y53119938D01*
X187108032Y53181911D01*
X187255787Y53226354D01*
X187402599Y53250935D01*
X187498684Y53262404D01*
X187498684Y53141579D01*
X188267368Y53141579D01*
X188267368Y53278655D01*
X188380165Y53267224D01*
X188458975Y53257575D01*
X188542943Y53244786D01*
X188593224Y53235652D01*
X188693487Y53215512D01*
X188698397Y53094993D01*
X188703306Y52974474D01*
X188985921Y52974474D01*
X188985921Y53041316D01*
X188988131Y53083190D01*
X188993650Y53106464D01*
X188995874Y53108158D01*
X189020613Y53097440D01*
X189056757Y53071437D01*
X189092990Y53039377D01*
X189117999Y53010489D01*
X189120227Y53006733D01*
X189127766Y52987030D01*
X189312309Y52987030D01*
X189301919Y52999326D01*
X189296311Y53017238D01*
X189273422Y53063721D01*
X189229460Y53119600D01*
X189171989Y53177040D01*
X189108573Y53228207D01*
X189066918Y53254857D01*
X189019466Y53284028D01*
X188995141Y53308533D01*
X188986595Y53337428D01*
X188985938Y53354638D01*
X188985937Y53358816D01*
X188133684Y53358816D01*
X188133684Y53275263D01*
X187632368Y53275263D01*
X187632368Y53358816D01*
X188133684Y53358816D01*
X188985937Y53358816D01*
X188985921Y53408948D01*
X188845274Y53408948D01*
X188780564Y53407383D01*
X188730130Y53403215D01*
X188702094Y53397227D01*
X188699057Y53394803D01*
X188681273Y53391082D01*
X188637992Y53392606D01*
X188576651Y53398925D01*
X188534737Y53404760D01*
X188458737Y53416222D01*
X188389230Y53426570D01*
X188336997Y53434204D01*
X188321678Y53436373D01*
X188281653Y53448768D01*
X188267368Y53468192D01*
X188263025Y53476102D01*
X188247490Y53482137D01*
X188217001Y53486534D01*
X188167800Y53489531D01*
X188096126Y53491365D01*
X187998219Y53492275D01*
X187883026Y53492500D01*
X187760086Y53492372D01*
X187666559Y53491770D01*
X187598440Y53490361D01*
X187551719Y53487819D01*
X187522391Y53483811D01*
X187506449Y53478009D01*
X187499885Y53470083D01*
X187498684Y53460867D01*
X187488460Y53431615D01*
X187454970Y53414969D01*
X187393988Y53409032D01*
X187383017Y53408948D01*
X187279746Y53398294D01*
X187162453Y53368967D01*
X187041715Y53324916D01*
X186928111Y53270089D01*
X186832219Y53208436D01*
X186819799Y53198668D01*
X186779318Y53166885D01*
X186755345Y53154156D01*
X186738604Y53158271D01*
X186721419Y53175250D01*
X186670664Y53208508D01*
X186604607Y53221275D01*
X186533474Y53214635D01*
X186467486Y53189673D01*
X186416868Y53147471D01*
X186413203Y53142566D01*
X186375328Y53063789D01*
X186368281Y52982246D01*
X186391285Y52904513D01*
X186443563Y52837165D01*
X186449956Y52831604D01*
X186487073Y52805187D01*
X186524733Y52793553D01*
X186577676Y52792713D01*
X186590902Y52793458D01*
X186642703Y52795359D01*
X186669386Y52791004D01*
X186679045Y52777862D01*
X186680037Y52765592D01*
X186682061Y52729998D01*
X186687086Y52676467D01*
X186690697Y52644441D01*
X186695934Y52593573D01*
X186693756Y52567532D01*
X186681125Y52558014D01*
X186658625Y52556711D01*
X186645282Y52561014D01*
X186623756Y52574943D01*
X186592452Y52600023D01*
X186549776Y52637781D01*
X186494132Y52689744D01*
X186423925Y52757438D01*
X186337560Y52842389D01*
X186233442Y52946125D01*
X186109975Y53070172D01*
X185965564Y53216056D01*
X185895969Y53286551D01*
X185175921Y54016390D01*
X185176744Y53900663D01*
G36*
X185677237Y45989474D02*
G01*
X190356184Y45989474D01*
X190356184Y47142500D01*
X185677237Y47142500D01*
X185677237Y45989474D01*
X185677237Y45989474D01*
G37*
X185677237Y45989474D02*
X190356184Y45989474D01*
X190356184Y47142500D01*
X185677237Y47142500D01*
X185677237Y45989474D01*
D10*
X15900000Y70875000D02*
X14700000Y70875000D01*
X14700000Y69125000D02*
X15900000Y69125000D01*
X18500000Y69125000D02*
X19700000Y69125000D01*
X19700000Y70875000D02*
X18500000Y70875000D01*
X38900000Y70875000D02*
X37700000Y70875000D01*
X37700000Y69125000D02*
X38900000Y69125000D01*
X41500000Y69125000D02*
X42700000Y69125000D01*
X42700000Y70875000D02*
X41500000Y70875000D01*
X61325000Y69900000D02*
X61325000Y68700000D01*
X63075000Y68700000D02*
X63075000Y69900000D01*
X66875000Y68700000D02*
X66875000Y69900000D01*
X65125000Y69900000D02*
X65125000Y68700000D01*
X84325000Y69900000D02*
X84325000Y68700000D01*
X86075000Y68700000D02*
X86075000Y69900000D01*
X89875000Y68700000D02*
X89875000Y69900000D01*
X88125000Y69900000D02*
X88125000Y68700000D01*
X107325000Y69900000D02*
X107325000Y68700000D01*
X109075000Y68700000D02*
X109075000Y69900000D01*
X112875000Y68700000D02*
X112875000Y69900000D01*
X111125000Y69900000D02*
X111125000Y68700000D01*
X130325000Y69900000D02*
X130325000Y68700000D01*
X132075000Y68700000D02*
X132075000Y69900000D01*
X135875000Y68700000D02*
X135875000Y69900000D01*
X134125000Y69900000D02*
X134125000Y68700000D01*
X153325000Y69900000D02*
X153325000Y68700000D01*
X155075000Y68700000D02*
X155075000Y69900000D01*
X158875000Y68700000D02*
X158875000Y69900000D01*
X157125000Y69900000D02*
X157125000Y68700000D01*
X176325000Y69900000D02*
X176325000Y68700000D01*
X178075000Y68700000D02*
X178075000Y69900000D01*
X181875000Y68700000D02*
X181875000Y69900000D01*
X180125000Y69900000D02*
X180125000Y68700000D01*
X12919047Y69547619D02*
X13252380Y70023809D01*
X13490476Y69547619D02*
X13490476Y70547619D01*
X13109523Y70547619D01*
X13014285Y70500000D01*
X12966666Y70452380D01*
X12919047Y70357142D01*
X12919047Y70214285D01*
X12966666Y70119047D01*
X13014285Y70071428D01*
X13109523Y70023809D01*
X13490476Y70023809D01*
X11966666Y69547619D02*
X12538095Y69547619D01*
X12252380Y69547619D02*
X12252380Y70547619D01*
X12347619Y70404761D01*
X12442857Y70309523D01*
X12538095Y70261904D01*
X11347619Y70547619D02*
X11252380Y70547619D01*
X11157142Y70500000D01*
X11109523Y70452380D01*
X11061904Y70357142D01*
X11014285Y70166666D01*
X11014285Y69928571D01*
X11061904Y69738095D01*
X11109523Y69642857D01*
X11157142Y69595238D01*
X11252380Y69547619D01*
X11347619Y69547619D01*
X11442857Y69595238D01*
X11490476Y69642857D01*
X11538095Y69738095D01*
X11585714Y69928571D01*
X11585714Y70166666D01*
X11538095Y70357142D01*
X11490476Y70452380D01*
X11442857Y70500000D01*
X11347619Y70547619D01*
X10061904Y69547619D02*
X10633333Y69547619D01*
X10347619Y69547619D02*
X10347619Y70547619D01*
X10442857Y70404761D01*
X10538095Y70309523D01*
X10633333Y70261904D01*
X23819047Y69547619D02*
X24152380Y70023809D01*
X24390476Y69547619D02*
X24390476Y70547619D01*
X24009523Y70547619D01*
X23914285Y70500000D01*
X23866666Y70452380D01*
X23819047Y70357142D01*
X23819047Y70214285D01*
X23866666Y70119047D01*
X23914285Y70071428D01*
X24009523Y70023809D01*
X24390476Y70023809D01*
X22866666Y69547619D02*
X23438095Y69547619D01*
X23152380Y69547619D02*
X23152380Y70547619D01*
X23247619Y70404761D01*
X23342857Y70309523D01*
X23438095Y70261904D01*
X22247619Y70547619D02*
X22152380Y70547619D01*
X22057142Y70500000D01*
X22009523Y70452380D01*
X21961904Y70357142D01*
X21914285Y70166666D01*
X21914285Y69928571D01*
X21961904Y69738095D01*
X22009523Y69642857D01*
X22057142Y69595238D01*
X22152380Y69547619D01*
X22247619Y69547619D01*
X22342857Y69595238D01*
X22390476Y69642857D01*
X22438095Y69738095D01*
X22485714Y69928571D01*
X22485714Y70166666D01*
X22438095Y70357142D01*
X22390476Y70452380D01*
X22342857Y70500000D01*
X22247619Y70547619D01*
X21533333Y70452380D02*
X21485714Y70500000D01*
X21390476Y70547619D01*
X21152380Y70547619D01*
X21057142Y70500000D01*
X21009523Y70452380D01*
X20961904Y70357142D01*
X20961904Y70261904D01*
X21009523Y70119047D01*
X21580952Y69547619D01*
X20961904Y69547619D01*
X35919047Y69547619D02*
X36252380Y70023809D01*
X36490476Y69547619D02*
X36490476Y70547619D01*
X36109523Y70547619D01*
X36014285Y70500000D01*
X35966666Y70452380D01*
X35919047Y70357142D01*
X35919047Y70214285D01*
X35966666Y70119047D01*
X36014285Y70071428D01*
X36109523Y70023809D01*
X36490476Y70023809D01*
X34966666Y69547619D02*
X35538095Y69547619D01*
X35252380Y69547619D02*
X35252380Y70547619D01*
X35347619Y70404761D01*
X35442857Y70309523D01*
X35538095Y70261904D01*
X34347619Y70547619D02*
X34252380Y70547619D01*
X34157142Y70500000D01*
X34109523Y70452380D01*
X34061904Y70357142D01*
X34014285Y70166666D01*
X34014285Y69928571D01*
X34061904Y69738095D01*
X34109523Y69642857D01*
X34157142Y69595238D01*
X34252380Y69547619D01*
X34347619Y69547619D01*
X34442857Y69595238D01*
X34490476Y69642857D01*
X34538095Y69738095D01*
X34585714Y69928571D01*
X34585714Y70166666D01*
X34538095Y70357142D01*
X34490476Y70452380D01*
X34442857Y70500000D01*
X34347619Y70547619D01*
X33680952Y70547619D02*
X33061904Y70547619D01*
X33395238Y70166666D01*
X33252380Y70166666D01*
X33157142Y70119047D01*
X33109523Y70071428D01*
X33061904Y69976190D01*
X33061904Y69738095D01*
X33109523Y69642857D01*
X33157142Y69595238D01*
X33252380Y69547619D01*
X33538095Y69547619D01*
X33633333Y69595238D01*
X33680952Y69642857D01*
X46819047Y69547619D02*
X47152380Y70023809D01*
X47390476Y69547619D02*
X47390476Y70547619D01*
X47009523Y70547619D01*
X46914285Y70500000D01*
X46866666Y70452380D01*
X46819047Y70357142D01*
X46819047Y70214285D01*
X46866666Y70119047D01*
X46914285Y70071428D01*
X47009523Y70023809D01*
X47390476Y70023809D01*
X45866666Y69547619D02*
X46438095Y69547619D01*
X46152380Y69547619D02*
X46152380Y70547619D01*
X46247619Y70404761D01*
X46342857Y70309523D01*
X46438095Y70261904D01*
X45247619Y70547619D02*
X45152380Y70547619D01*
X45057142Y70500000D01*
X45009523Y70452380D01*
X44961904Y70357142D01*
X44914285Y70166666D01*
X44914285Y69928571D01*
X44961904Y69738095D01*
X45009523Y69642857D01*
X45057142Y69595238D01*
X45152380Y69547619D01*
X45247619Y69547619D01*
X45342857Y69595238D01*
X45390476Y69642857D01*
X45438095Y69738095D01*
X45485714Y69928571D01*
X45485714Y70166666D01*
X45438095Y70357142D01*
X45390476Y70452380D01*
X45342857Y70500000D01*
X45247619Y70547619D01*
X44057142Y70214285D02*
X44057142Y69547619D01*
X44295238Y70595238D02*
X44533333Y69880952D01*
X43914285Y69880952D01*
X61052380Y70519047D02*
X60576190Y70852380D01*
X61052380Y71090476D02*
X60052380Y71090476D01*
X60052380Y70709523D01*
X60100000Y70614285D01*
X60147619Y70566666D01*
X60242857Y70519047D01*
X60385714Y70519047D01*
X60480952Y70566666D01*
X60528571Y70614285D01*
X60576190Y70709523D01*
X60576190Y71090476D01*
X61052380Y69566666D02*
X61052380Y70138095D01*
X61052380Y69852380D02*
X60052380Y69852380D01*
X60195238Y69947619D01*
X60290476Y70042857D01*
X60338095Y70138095D01*
X60052380Y68947619D02*
X60052380Y68852380D01*
X60100000Y68757142D01*
X60147619Y68709523D01*
X60242857Y68661904D01*
X60433333Y68614285D01*
X60671428Y68614285D01*
X60861904Y68661904D01*
X60957142Y68709523D01*
X61004761Y68757142D01*
X61052380Y68852380D01*
X61052380Y68947619D01*
X61004761Y69042857D01*
X60957142Y69090476D01*
X60861904Y69138095D01*
X60671428Y69185714D01*
X60433333Y69185714D01*
X60242857Y69138095D01*
X60147619Y69090476D01*
X60100000Y69042857D01*
X60052380Y68947619D01*
X60052380Y67709523D02*
X60052380Y68185714D01*
X60528571Y68233333D01*
X60480952Y68185714D01*
X60433333Y68090476D01*
X60433333Y67852380D01*
X60480952Y67757142D01*
X60528571Y67709523D01*
X60623809Y67661904D01*
X60861904Y67661904D01*
X60957142Y67709523D01*
X61004761Y67757142D01*
X61052380Y67852380D01*
X61052380Y68090476D01*
X61004761Y68185714D01*
X60957142Y68233333D01*
X64852380Y70519047D02*
X64376190Y70852380D01*
X64852380Y71090476D02*
X63852380Y71090476D01*
X63852380Y70709523D01*
X63900000Y70614285D01*
X63947619Y70566666D01*
X64042857Y70519047D01*
X64185714Y70519047D01*
X64280952Y70566666D01*
X64328571Y70614285D01*
X64376190Y70709523D01*
X64376190Y71090476D01*
X64852380Y69566666D02*
X64852380Y70138095D01*
X64852380Y69852380D02*
X63852380Y69852380D01*
X63995238Y69947619D01*
X64090476Y70042857D01*
X64138095Y70138095D01*
X63852380Y68947619D02*
X63852380Y68852380D01*
X63900000Y68757142D01*
X63947619Y68709523D01*
X64042857Y68661904D01*
X64233333Y68614285D01*
X64471428Y68614285D01*
X64661904Y68661904D01*
X64757142Y68709523D01*
X64804761Y68757142D01*
X64852380Y68852380D01*
X64852380Y68947619D01*
X64804761Y69042857D01*
X64757142Y69090476D01*
X64661904Y69138095D01*
X64471428Y69185714D01*
X64233333Y69185714D01*
X64042857Y69138095D01*
X63947619Y69090476D01*
X63900000Y69042857D01*
X63852380Y68947619D01*
X63852380Y67757142D02*
X63852380Y67947619D01*
X63900000Y68042857D01*
X63947619Y68090476D01*
X64090476Y68185714D01*
X64280952Y68233333D01*
X64661904Y68233333D01*
X64757142Y68185714D01*
X64804761Y68138095D01*
X64852380Y68042857D01*
X64852380Y67852380D01*
X64804761Y67757142D01*
X64757142Y67709523D01*
X64661904Y67661904D01*
X64423809Y67661904D01*
X64328571Y67709523D01*
X64280952Y67757142D01*
X64233333Y67852380D01*
X64233333Y68042857D01*
X64280952Y68138095D01*
X64328571Y68185714D01*
X64423809Y68233333D01*
X84052380Y70419047D02*
X83576190Y70752380D01*
X84052380Y70990476D02*
X83052380Y70990476D01*
X83052380Y70609523D01*
X83100000Y70514285D01*
X83147619Y70466666D01*
X83242857Y70419047D01*
X83385714Y70419047D01*
X83480952Y70466666D01*
X83528571Y70514285D01*
X83576190Y70609523D01*
X83576190Y70990476D01*
X84052380Y69466666D02*
X84052380Y70038095D01*
X84052380Y69752380D02*
X83052380Y69752380D01*
X83195238Y69847619D01*
X83290476Y69942857D01*
X83338095Y70038095D01*
X83052380Y68847619D02*
X83052380Y68752380D01*
X83100000Y68657142D01*
X83147619Y68609523D01*
X83242857Y68561904D01*
X83433333Y68514285D01*
X83671428Y68514285D01*
X83861904Y68561904D01*
X83957142Y68609523D01*
X84004761Y68657142D01*
X84052380Y68752380D01*
X84052380Y68847619D01*
X84004761Y68942857D01*
X83957142Y68990476D01*
X83861904Y69038095D01*
X83671428Y69085714D01*
X83433333Y69085714D01*
X83242857Y69038095D01*
X83147619Y68990476D01*
X83100000Y68942857D01*
X83052380Y68847619D01*
X83052380Y68180952D02*
X83052380Y67514285D01*
X84052380Y67942857D01*
X87852380Y70419047D02*
X87376190Y70752380D01*
X87852380Y70990476D02*
X86852380Y70990476D01*
X86852380Y70609523D01*
X86900000Y70514285D01*
X86947619Y70466666D01*
X87042857Y70419047D01*
X87185714Y70419047D01*
X87280952Y70466666D01*
X87328571Y70514285D01*
X87376190Y70609523D01*
X87376190Y70990476D01*
X87852380Y69466666D02*
X87852380Y70038095D01*
X87852380Y69752380D02*
X86852380Y69752380D01*
X86995238Y69847619D01*
X87090476Y69942857D01*
X87138095Y70038095D01*
X86852380Y68847619D02*
X86852380Y68752380D01*
X86900000Y68657142D01*
X86947619Y68609523D01*
X87042857Y68561904D01*
X87233333Y68514285D01*
X87471428Y68514285D01*
X87661904Y68561904D01*
X87757142Y68609523D01*
X87804761Y68657142D01*
X87852380Y68752380D01*
X87852380Y68847619D01*
X87804761Y68942857D01*
X87757142Y68990476D01*
X87661904Y69038095D01*
X87471428Y69085714D01*
X87233333Y69085714D01*
X87042857Y69038095D01*
X86947619Y68990476D01*
X86900000Y68942857D01*
X86852380Y68847619D01*
X87280952Y67942857D02*
X87233333Y68038095D01*
X87185714Y68085714D01*
X87090476Y68133333D01*
X87042857Y68133333D01*
X86947619Y68085714D01*
X86900000Y68038095D01*
X86852380Y67942857D01*
X86852380Y67752380D01*
X86900000Y67657142D01*
X86947619Y67609523D01*
X87042857Y67561904D01*
X87090476Y67561904D01*
X87185714Y67609523D01*
X87233333Y67657142D01*
X87280952Y67752380D01*
X87280952Y67942857D01*
X87328571Y68038095D01*
X87376190Y68085714D01*
X87471428Y68133333D01*
X87661904Y68133333D01*
X87757142Y68085714D01*
X87804761Y68038095D01*
X87852380Y67942857D01*
X87852380Y67752380D01*
X87804761Y67657142D01*
X87757142Y67609523D01*
X87661904Y67561904D01*
X87471428Y67561904D01*
X87376190Y67609523D01*
X87328571Y67657142D01*
X87280952Y67752380D01*
X107052380Y70419047D02*
X106576190Y70752380D01*
X107052380Y70990476D02*
X106052380Y70990476D01*
X106052380Y70609523D01*
X106100000Y70514285D01*
X106147619Y70466666D01*
X106242857Y70419047D01*
X106385714Y70419047D01*
X106480952Y70466666D01*
X106528571Y70514285D01*
X106576190Y70609523D01*
X106576190Y70990476D01*
X107052380Y69466666D02*
X107052380Y70038095D01*
X107052380Y69752380D02*
X106052380Y69752380D01*
X106195238Y69847619D01*
X106290476Y69942857D01*
X106338095Y70038095D01*
X106052380Y68847619D02*
X106052380Y68752380D01*
X106100000Y68657142D01*
X106147619Y68609523D01*
X106242857Y68561904D01*
X106433333Y68514285D01*
X106671428Y68514285D01*
X106861904Y68561904D01*
X106957142Y68609523D01*
X107004761Y68657142D01*
X107052380Y68752380D01*
X107052380Y68847619D01*
X107004761Y68942857D01*
X106957142Y68990476D01*
X106861904Y69038095D01*
X106671428Y69085714D01*
X106433333Y69085714D01*
X106242857Y69038095D01*
X106147619Y68990476D01*
X106100000Y68942857D01*
X106052380Y68847619D01*
X107052380Y68038095D02*
X107052380Y67847619D01*
X107004761Y67752380D01*
X106957142Y67704761D01*
X106814285Y67609523D01*
X106623809Y67561904D01*
X106242857Y67561904D01*
X106147619Y67609523D01*
X106100000Y67657142D01*
X106052380Y67752380D01*
X106052380Y67942857D01*
X106100000Y68038095D01*
X106147619Y68085714D01*
X106242857Y68133333D01*
X106480952Y68133333D01*
X106576190Y68085714D01*
X106623809Y68038095D01*
X106671428Y67942857D01*
X106671428Y67752380D01*
X106623809Y67657142D01*
X106576190Y67609523D01*
X106480952Y67561904D01*
X110852380Y70419047D02*
X110376190Y70752380D01*
X110852380Y70990476D02*
X109852380Y70990476D01*
X109852380Y70609523D01*
X109900000Y70514285D01*
X109947619Y70466666D01*
X110042857Y70419047D01*
X110185714Y70419047D01*
X110280952Y70466666D01*
X110328571Y70514285D01*
X110376190Y70609523D01*
X110376190Y70990476D01*
X110852380Y69466666D02*
X110852380Y70038095D01*
X110852380Y69752380D02*
X109852380Y69752380D01*
X109995238Y69847619D01*
X110090476Y69942857D01*
X110138095Y70038095D01*
X110852380Y68514285D02*
X110852380Y69085714D01*
X110852380Y68800000D02*
X109852380Y68800000D01*
X109995238Y68895238D01*
X110090476Y68990476D01*
X110138095Y69085714D01*
X109852380Y67895238D02*
X109852380Y67800000D01*
X109900000Y67704761D01*
X109947619Y67657142D01*
X110042857Y67609523D01*
X110233333Y67561904D01*
X110471428Y67561904D01*
X110661904Y67609523D01*
X110757142Y67657142D01*
X110804761Y67704761D01*
X110852380Y67800000D01*
X110852380Y67895238D01*
X110804761Y67990476D01*
X110757142Y68038095D01*
X110661904Y68085714D01*
X110471428Y68133333D01*
X110233333Y68133333D01*
X110042857Y68085714D01*
X109947619Y68038095D01*
X109900000Y67990476D01*
X109852380Y67895238D01*
X130052380Y70419047D02*
X129576190Y70752380D01*
X130052380Y70990476D02*
X129052380Y70990476D01*
X129052380Y70609523D01*
X129100000Y70514285D01*
X129147619Y70466666D01*
X129242857Y70419047D01*
X129385714Y70419047D01*
X129480952Y70466666D01*
X129528571Y70514285D01*
X129576190Y70609523D01*
X129576190Y70990476D01*
X130052380Y69466666D02*
X130052380Y70038095D01*
X130052380Y69752380D02*
X129052380Y69752380D01*
X129195238Y69847619D01*
X129290476Y69942857D01*
X129338095Y70038095D01*
X130052380Y68514285D02*
X130052380Y69085714D01*
X130052380Y68800000D02*
X129052380Y68800000D01*
X129195238Y68895238D01*
X129290476Y68990476D01*
X129338095Y69085714D01*
X130052380Y67561904D02*
X130052380Y68133333D01*
X130052380Y67847619D02*
X129052380Y67847619D01*
X129195238Y67942857D01*
X129290476Y68038095D01*
X129338095Y68133333D01*
X133852380Y70419047D02*
X133376190Y70752380D01*
X133852380Y70990476D02*
X132852380Y70990476D01*
X132852380Y70609523D01*
X132900000Y70514285D01*
X132947619Y70466666D01*
X133042857Y70419047D01*
X133185714Y70419047D01*
X133280952Y70466666D01*
X133328571Y70514285D01*
X133376190Y70609523D01*
X133376190Y70990476D01*
X133852380Y69466666D02*
X133852380Y70038095D01*
X133852380Y69752380D02*
X132852380Y69752380D01*
X132995238Y69847619D01*
X133090476Y69942857D01*
X133138095Y70038095D01*
X133852380Y68514285D02*
X133852380Y69085714D01*
X133852380Y68800000D02*
X132852380Y68800000D01*
X132995238Y68895238D01*
X133090476Y68990476D01*
X133138095Y69085714D01*
X132947619Y68133333D02*
X132900000Y68085714D01*
X132852380Y67990476D01*
X132852380Y67752380D01*
X132900000Y67657142D01*
X132947619Y67609523D01*
X133042857Y67561904D01*
X133138095Y67561904D01*
X133280952Y67609523D01*
X133852380Y68180952D01*
X133852380Y67561904D01*
X153052380Y70419047D02*
X152576190Y70752380D01*
X153052380Y70990476D02*
X152052380Y70990476D01*
X152052380Y70609523D01*
X152100000Y70514285D01*
X152147619Y70466666D01*
X152242857Y70419047D01*
X152385714Y70419047D01*
X152480952Y70466666D01*
X152528571Y70514285D01*
X152576190Y70609523D01*
X152576190Y70990476D01*
X153052380Y69466666D02*
X153052380Y70038095D01*
X153052380Y69752380D02*
X152052380Y69752380D01*
X152195238Y69847619D01*
X152290476Y69942857D01*
X152338095Y70038095D01*
X153052380Y68514285D02*
X153052380Y69085714D01*
X153052380Y68800000D02*
X152052380Y68800000D01*
X152195238Y68895238D01*
X152290476Y68990476D01*
X152338095Y69085714D01*
X152052380Y68180952D02*
X152052380Y67561904D01*
X152433333Y67895238D01*
X152433333Y67752380D01*
X152480952Y67657142D01*
X152528571Y67609523D01*
X152623809Y67561904D01*
X152861904Y67561904D01*
X152957142Y67609523D01*
X153004761Y67657142D01*
X153052380Y67752380D01*
X153052380Y68038095D01*
X153004761Y68133333D01*
X152957142Y68180952D01*
X156852380Y70419047D02*
X156376190Y70752380D01*
X156852380Y70990476D02*
X155852380Y70990476D01*
X155852380Y70609523D01*
X155900000Y70514285D01*
X155947619Y70466666D01*
X156042857Y70419047D01*
X156185714Y70419047D01*
X156280952Y70466666D01*
X156328571Y70514285D01*
X156376190Y70609523D01*
X156376190Y70990476D01*
X156852380Y69466666D02*
X156852380Y70038095D01*
X156852380Y69752380D02*
X155852380Y69752380D01*
X155995238Y69847619D01*
X156090476Y69942857D01*
X156138095Y70038095D01*
X156852380Y68514285D02*
X156852380Y69085714D01*
X156852380Y68800000D02*
X155852380Y68800000D01*
X155995238Y68895238D01*
X156090476Y68990476D01*
X156138095Y69085714D01*
X156185714Y67657142D02*
X156852380Y67657142D01*
X155804761Y67895238D02*
X156519047Y68133333D01*
X156519047Y67514285D01*
X176052380Y70419047D02*
X175576190Y70752380D01*
X176052380Y70990476D02*
X175052380Y70990476D01*
X175052380Y70609523D01*
X175100000Y70514285D01*
X175147619Y70466666D01*
X175242857Y70419047D01*
X175385714Y70419047D01*
X175480952Y70466666D01*
X175528571Y70514285D01*
X175576190Y70609523D01*
X175576190Y70990476D01*
X176052380Y69466666D02*
X176052380Y70038095D01*
X176052380Y69752380D02*
X175052380Y69752380D01*
X175195238Y69847619D01*
X175290476Y69942857D01*
X175338095Y70038095D01*
X176052380Y68514285D02*
X176052380Y69085714D01*
X176052380Y68800000D02*
X175052380Y68800000D01*
X175195238Y68895238D01*
X175290476Y68990476D01*
X175338095Y69085714D01*
X175052380Y67609523D02*
X175052380Y68085714D01*
X175528571Y68133333D01*
X175480952Y68085714D01*
X175433333Y67990476D01*
X175433333Y67752380D01*
X175480952Y67657142D01*
X175528571Y67609523D01*
X175623809Y67561904D01*
X175861904Y67561904D01*
X175957142Y67609523D01*
X176004761Y67657142D01*
X176052380Y67752380D01*
X176052380Y67990476D01*
X176004761Y68085714D01*
X175957142Y68133333D01*
X179852380Y70419047D02*
X179376190Y70752380D01*
X179852380Y70990476D02*
X178852380Y70990476D01*
X178852380Y70609523D01*
X178900000Y70514285D01*
X178947619Y70466666D01*
X179042857Y70419047D01*
X179185714Y70419047D01*
X179280952Y70466666D01*
X179328571Y70514285D01*
X179376190Y70609523D01*
X179376190Y70990476D01*
X179852380Y69466666D02*
X179852380Y70038095D01*
X179852380Y69752380D02*
X178852380Y69752380D01*
X178995238Y69847619D01*
X179090476Y69942857D01*
X179138095Y70038095D01*
X179852380Y68514285D02*
X179852380Y69085714D01*
X179852380Y68800000D02*
X178852380Y68800000D01*
X178995238Y68895238D01*
X179090476Y68990476D01*
X179138095Y69085714D01*
X178852380Y67657142D02*
X178852380Y67847619D01*
X178900000Y67942857D01*
X178947619Y67990476D01*
X179090476Y68085714D01*
X179280952Y68133333D01*
X179661904Y68133333D01*
X179757142Y68085714D01*
X179804761Y68038095D01*
X179852380Y67942857D01*
X179852380Y67752380D01*
X179804761Y67657142D01*
X179757142Y67609523D01*
X179661904Y67561904D01*
X179423809Y67561904D01*
X179328571Y67609523D01*
X179280952Y67657142D01*
X179233333Y67752380D01*
X179233333Y67942857D01*
X179280952Y68038095D01*
X179328571Y68085714D01*
X179423809Y68133333D01*
M02*
