G04 #@! TF.GenerationSoftware,KiCad,Pcbnew,(5.1.0-0)*
G04 #@! TF.CreationDate,2019-11-06T10:25:11+01:00*
G04 #@! TF.ProjectId,AddOnD,4164644f-6e44-42e6-9b69-6361645f7063,rev?*
G04 #@! TF.SameCoordinates,Original*
G04 #@! TF.FileFunction,Soldermask,Bot*
G04 #@! TF.FilePolarity,Negative*
%FSLAX46Y46*%
G04 Gerber Fmt 4.6, Leading zero omitted, Abs format (unit mm)*
G04 Created by KiCad (PCBNEW (5.1.0-0)) date 2019-11-06 10:25:11*
%MOMM*%
%LPD*%
G04 APERTURE LIST*
%ADD10C,0.150000*%
%ADD11C,0.100000*%
G04 APERTURE END LIST*
D10*
X7500000Y45000000D02*
X7500000Y90000000D01*
X193500000Y45000000D02*
X7500000Y45000000D01*
X193500000Y90000000D02*
X193500000Y45000000D01*
X7500000Y90000000D02*
X193500000Y90000000D01*
D11*
G36*
X43208500Y49408211D02*
G01*
X43408994Y49347392D01*
X43593759Y49248633D01*
X43593762Y49248631D01*
X43593763Y49248630D01*
X43755718Y49115718D01*
X43888630Y48953763D01*
X43888633Y48953759D01*
X43987392Y48768994D01*
X44048211Y48568500D01*
X44068746Y48360000D01*
X44048211Y48151500D01*
X43987392Y47951006D01*
X43888633Y47766241D01*
X43888631Y47766238D01*
X43888630Y47766237D01*
X43755718Y47604282D01*
X43593763Y47471370D01*
X43593759Y47471367D01*
X43408994Y47372608D01*
X43208500Y47311789D01*
X43052251Y47296400D01*
X42947749Y47296400D01*
X42791500Y47311789D01*
X42591006Y47372608D01*
X42406241Y47471367D01*
X42406237Y47471370D01*
X42244282Y47604282D01*
X42111370Y47766237D01*
X42111369Y47766238D01*
X42111367Y47766241D01*
X42012608Y47951006D01*
X41951789Y48151500D01*
X41931254Y48360000D01*
X41951789Y48568500D01*
X42012608Y48768994D01*
X42111367Y48953759D01*
X42111370Y48953763D01*
X42244282Y49115718D01*
X42406237Y49248630D01*
X42406238Y49248631D01*
X42406241Y49248633D01*
X42591006Y49347392D01*
X42791500Y49408211D01*
X42947749Y49423600D01*
X43052251Y49423600D01*
X43208500Y49408211D01*
X43208500Y49408211D01*
G37*
G36*
X40668500Y49408211D02*
G01*
X40868994Y49347392D01*
X41053759Y49248633D01*
X41053762Y49248631D01*
X41053763Y49248630D01*
X41215718Y49115718D01*
X41348630Y48953763D01*
X41348633Y48953759D01*
X41447392Y48768994D01*
X41508211Y48568500D01*
X41528746Y48360000D01*
X41508211Y48151500D01*
X41447392Y47951006D01*
X41348633Y47766241D01*
X41348631Y47766238D01*
X41348630Y47766237D01*
X41215718Y47604282D01*
X41053763Y47471370D01*
X41053759Y47471367D01*
X40868994Y47372608D01*
X40668500Y47311789D01*
X40512251Y47296400D01*
X40407749Y47296400D01*
X40251500Y47311789D01*
X40051006Y47372608D01*
X39866241Y47471367D01*
X39866237Y47471370D01*
X39704282Y47604282D01*
X39571370Y47766237D01*
X39571369Y47766238D01*
X39571367Y47766241D01*
X39472608Y47951006D01*
X39411789Y48151500D01*
X39391254Y48360000D01*
X39411789Y48568500D01*
X39472608Y48768994D01*
X39571367Y48953759D01*
X39571370Y48953763D01*
X39704282Y49115718D01*
X39866237Y49248630D01*
X39866238Y49248631D01*
X39866241Y49248633D01*
X40051006Y49347392D01*
X40251500Y49408211D01*
X40407749Y49423600D01*
X40512251Y49423600D01*
X40668500Y49408211D01*
X40668500Y49408211D01*
G37*
G36*
X38128500Y49408211D02*
G01*
X38328994Y49347392D01*
X38513759Y49248633D01*
X38513762Y49248631D01*
X38513763Y49248630D01*
X38675718Y49115718D01*
X38808630Y48953763D01*
X38808633Y48953759D01*
X38907392Y48768994D01*
X38968211Y48568500D01*
X38988746Y48360000D01*
X38968211Y48151500D01*
X38907392Y47951006D01*
X38808633Y47766241D01*
X38808631Y47766238D01*
X38808630Y47766237D01*
X38675718Y47604282D01*
X38513763Y47471370D01*
X38513759Y47471367D01*
X38328994Y47372608D01*
X38128500Y47311789D01*
X37972251Y47296400D01*
X37867749Y47296400D01*
X37711500Y47311789D01*
X37511006Y47372608D01*
X37326241Y47471367D01*
X37326237Y47471370D01*
X37164282Y47604282D01*
X37031370Y47766237D01*
X37031369Y47766238D01*
X37031367Y47766241D01*
X36932608Y47951006D01*
X36871789Y48151500D01*
X36851254Y48360000D01*
X36871789Y48568500D01*
X36932608Y48768994D01*
X37031367Y48953759D01*
X37031370Y48953763D01*
X37164282Y49115718D01*
X37326237Y49248630D01*
X37326238Y49248631D01*
X37326241Y49248633D01*
X37511006Y49347392D01*
X37711500Y49408211D01*
X37867749Y49423600D01*
X37972251Y49423600D01*
X38128500Y49408211D01*
X38128500Y49408211D01*
G37*
G36*
X35588500Y49408211D02*
G01*
X35788994Y49347392D01*
X35973759Y49248633D01*
X35973762Y49248631D01*
X35973763Y49248630D01*
X36135718Y49115718D01*
X36268630Y48953763D01*
X36268633Y48953759D01*
X36367392Y48768994D01*
X36428211Y48568500D01*
X36448746Y48360000D01*
X36428211Y48151500D01*
X36367392Y47951006D01*
X36268633Y47766241D01*
X36268631Y47766238D01*
X36268630Y47766237D01*
X36135718Y47604282D01*
X35973763Y47471370D01*
X35973759Y47471367D01*
X35788994Y47372608D01*
X35588500Y47311789D01*
X35432251Y47296400D01*
X35327749Y47296400D01*
X35171500Y47311789D01*
X34971006Y47372608D01*
X34786241Y47471367D01*
X34786237Y47471370D01*
X34624282Y47604282D01*
X34491370Y47766237D01*
X34491369Y47766238D01*
X34491367Y47766241D01*
X34392608Y47951006D01*
X34331789Y48151500D01*
X34311254Y48360000D01*
X34331789Y48568500D01*
X34392608Y48768994D01*
X34491367Y48953759D01*
X34491370Y48953763D01*
X34624282Y49115718D01*
X34786237Y49248630D01*
X34786238Y49248631D01*
X34786241Y49248633D01*
X34971006Y49347392D01*
X35171500Y49408211D01*
X35327749Y49423600D01*
X35432251Y49423600D01*
X35588500Y49408211D01*
X35588500Y49408211D01*
G37*
G36*
X33048500Y49408211D02*
G01*
X33248994Y49347392D01*
X33433759Y49248633D01*
X33433762Y49248631D01*
X33433763Y49248630D01*
X33595718Y49115718D01*
X33728630Y48953763D01*
X33728633Y48953759D01*
X33827392Y48768994D01*
X33888211Y48568500D01*
X33908746Y48360000D01*
X33888211Y48151500D01*
X33827392Y47951006D01*
X33728633Y47766241D01*
X33728631Y47766238D01*
X33728630Y47766237D01*
X33595718Y47604282D01*
X33433763Y47471370D01*
X33433759Y47471367D01*
X33248994Y47372608D01*
X33048500Y47311789D01*
X32892251Y47296400D01*
X32787749Y47296400D01*
X32631500Y47311789D01*
X32431006Y47372608D01*
X32246241Y47471367D01*
X32246237Y47471370D01*
X32084282Y47604282D01*
X31951370Y47766237D01*
X31951369Y47766238D01*
X31951367Y47766241D01*
X31852608Y47951006D01*
X31791789Y48151500D01*
X31771254Y48360000D01*
X31791789Y48568500D01*
X31852608Y48768994D01*
X31951367Y48953759D01*
X31951370Y48953763D01*
X32084282Y49115718D01*
X32246237Y49248630D01*
X32246238Y49248631D01*
X32246241Y49248633D01*
X32431006Y49347392D01*
X32631500Y49408211D01*
X32787749Y49423600D01*
X32892251Y49423600D01*
X33048500Y49408211D01*
X33048500Y49408211D01*
G37*
G36*
X30508500Y49408211D02*
G01*
X30708994Y49347392D01*
X30893759Y49248633D01*
X30893762Y49248631D01*
X30893763Y49248630D01*
X31055718Y49115718D01*
X31188630Y48953763D01*
X31188633Y48953759D01*
X31287392Y48768994D01*
X31348211Y48568500D01*
X31368746Y48360000D01*
X31348211Y48151500D01*
X31287392Y47951006D01*
X31188633Y47766241D01*
X31188631Y47766238D01*
X31188630Y47766237D01*
X31055718Y47604282D01*
X30893763Y47471370D01*
X30893759Y47471367D01*
X30708994Y47372608D01*
X30508500Y47311789D01*
X30352251Y47296400D01*
X30247749Y47296400D01*
X30091500Y47311789D01*
X29891006Y47372608D01*
X29706241Y47471367D01*
X29706237Y47471370D01*
X29544282Y47604282D01*
X29411370Y47766237D01*
X29411369Y47766238D01*
X29411367Y47766241D01*
X29312608Y47951006D01*
X29251789Y48151500D01*
X29231254Y48360000D01*
X29251789Y48568500D01*
X29312608Y48768994D01*
X29411367Y48953759D01*
X29411370Y48953763D01*
X29544282Y49115718D01*
X29706237Y49248630D01*
X29706238Y49248631D01*
X29706241Y49248633D01*
X29891006Y49347392D01*
X30091500Y49408211D01*
X30247749Y49423600D01*
X30352251Y49423600D01*
X30508500Y49408211D01*
X30508500Y49408211D01*
G37*
G36*
X27968500Y49408211D02*
G01*
X28168994Y49347392D01*
X28353759Y49248633D01*
X28353762Y49248631D01*
X28353763Y49248630D01*
X28515718Y49115718D01*
X28648630Y48953763D01*
X28648633Y48953759D01*
X28747392Y48768994D01*
X28808211Y48568500D01*
X28828746Y48360000D01*
X28808211Y48151500D01*
X28747392Y47951006D01*
X28648633Y47766241D01*
X28648631Y47766238D01*
X28648630Y47766237D01*
X28515718Y47604282D01*
X28353763Y47471370D01*
X28353759Y47471367D01*
X28168994Y47372608D01*
X27968500Y47311789D01*
X27812251Y47296400D01*
X27707749Y47296400D01*
X27551500Y47311789D01*
X27351006Y47372608D01*
X27166241Y47471367D01*
X27166237Y47471370D01*
X27004282Y47604282D01*
X26871370Y47766237D01*
X26871369Y47766238D01*
X26871367Y47766241D01*
X26772608Y47951006D01*
X26711789Y48151500D01*
X26691254Y48360000D01*
X26711789Y48568500D01*
X26772608Y48768994D01*
X26871367Y48953759D01*
X26871370Y48953763D01*
X27004282Y49115718D01*
X27166237Y49248630D01*
X27166238Y49248631D01*
X27166241Y49248633D01*
X27351006Y49347392D01*
X27551500Y49408211D01*
X27707749Y49423600D01*
X27812251Y49423600D01*
X27968500Y49408211D01*
X27968500Y49408211D01*
G37*
G36*
X25428500Y49408211D02*
G01*
X25628994Y49347392D01*
X25813759Y49248633D01*
X25813762Y49248631D01*
X25813763Y49248630D01*
X25975718Y49115718D01*
X26108630Y48953763D01*
X26108633Y48953759D01*
X26207392Y48768994D01*
X26268211Y48568500D01*
X26288746Y48360000D01*
X26268211Y48151500D01*
X26207392Y47951006D01*
X26108633Y47766241D01*
X26108631Y47766238D01*
X26108630Y47766237D01*
X25975718Y47604282D01*
X25813763Y47471370D01*
X25813759Y47471367D01*
X25628994Y47372608D01*
X25428500Y47311789D01*
X25272251Y47296400D01*
X25167749Y47296400D01*
X25011500Y47311789D01*
X24811006Y47372608D01*
X24626241Y47471367D01*
X24626237Y47471370D01*
X24464282Y47604282D01*
X24331370Y47766237D01*
X24331369Y47766238D01*
X24331367Y47766241D01*
X24232608Y47951006D01*
X24171789Y48151500D01*
X24151254Y48360000D01*
X24171789Y48568500D01*
X24232608Y48768994D01*
X24331367Y48953759D01*
X24331370Y48953763D01*
X24464282Y49115718D01*
X24626237Y49248630D01*
X24626238Y49248631D01*
X24626241Y49248633D01*
X24811006Y49347392D01*
X25011500Y49408211D01*
X25167749Y49423600D01*
X25272251Y49423600D01*
X25428500Y49408211D01*
X25428500Y49408211D01*
G37*
G36*
X22888500Y49408211D02*
G01*
X23088994Y49347392D01*
X23273759Y49248633D01*
X23273762Y49248631D01*
X23273763Y49248630D01*
X23435718Y49115718D01*
X23568630Y48953763D01*
X23568633Y48953759D01*
X23667392Y48768994D01*
X23728211Y48568500D01*
X23748746Y48360000D01*
X23728211Y48151500D01*
X23667392Y47951006D01*
X23568633Y47766241D01*
X23568631Y47766238D01*
X23568630Y47766237D01*
X23435718Y47604282D01*
X23273763Y47471370D01*
X23273759Y47471367D01*
X23088994Y47372608D01*
X22888500Y47311789D01*
X22732251Y47296400D01*
X22627749Y47296400D01*
X22471500Y47311789D01*
X22271006Y47372608D01*
X22086241Y47471367D01*
X22086237Y47471370D01*
X21924282Y47604282D01*
X21791370Y47766237D01*
X21791369Y47766238D01*
X21791367Y47766241D01*
X21692608Y47951006D01*
X21631789Y48151500D01*
X21611254Y48360000D01*
X21631789Y48568500D01*
X21692608Y48768994D01*
X21791367Y48953759D01*
X21791370Y48953763D01*
X21924282Y49115718D01*
X22086237Y49248630D01*
X22086238Y49248631D01*
X22086241Y49248633D01*
X22271006Y49347392D01*
X22471500Y49408211D01*
X22627749Y49423600D01*
X22732251Y49423600D01*
X22888500Y49408211D01*
X22888500Y49408211D01*
G37*
G36*
X20348500Y49408211D02*
G01*
X20548994Y49347392D01*
X20733759Y49248633D01*
X20733762Y49248631D01*
X20733763Y49248630D01*
X20895718Y49115718D01*
X21028630Y48953763D01*
X21028633Y48953759D01*
X21127392Y48768994D01*
X21188211Y48568500D01*
X21208746Y48360000D01*
X21188211Y48151500D01*
X21127392Y47951006D01*
X21028633Y47766241D01*
X21028631Y47766238D01*
X21028630Y47766237D01*
X20895718Y47604282D01*
X20733763Y47471370D01*
X20733759Y47471367D01*
X20548994Y47372608D01*
X20348500Y47311789D01*
X20192251Y47296400D01*
X20087749Y47296400D01*
X19931500Y47311789D01*
X19731006Y47372608D01*
X19546241Y47471367D01*
X19546237Y47471370D01*
X19384282Y47604282D01*
X19251370Y47766237D01*
X19251369Y47766238D01*
X19251367Y47766241D01*
X19152608Y47951006D01*
X19091789Y48151500D01*
X19071254Y48360000D01*
X19091789Y48568500D01*
X19152608Y48768994D01*
X19251367Y48953759D01*
X19251370Y48953763D01*
X19384282Y49115718D01*
X19546237Y49248630D01*
X19546238Y49248631D01*
X19546241Y49248633D01*
X19731006Y49347392D01*
X19931500Y49408211D01*
X20087749Y49423600D01*
X20192251Y49423600D01*
X20348500Y49408211D01*
X20348500Y49408211D01*
G37*
G36*
X17808500Y49408211D02*
G01*
X18008994Y49347392D01*
X18193759Y49248633D01*
X18193762Y49248631D01*
X18193763Y49248630D01*
X18355718Y49115718D01*
X18488630Y48953763D01*
X18488633Y48953759D01*
X18587392Y48768994D01*
X18648211Y48568500D01*
X18668746Y48360000D01*
X18648211Y48151500D01*
X18587392Y47951006D01*
X18488633Y47766241D01*
X18488631Y47766238D01*
X18488630Y47766237D01*
X18355718Y47604282D01*
X18193763Y47471370D01*
X18193759Y47471367D01*
X18008994Y47372608D01*
X17808500Y47311789D01*
X17652251Y47296400D01*
X17547749Y47296400D01*
X17391500Y47311789D01*
X17191006Y47372608D01*
X17006241Y47471367D01*
X17006237Y47471370D01*
X16844282Y47604282D01*
X16711370Y47766237D01*
X16711369Y47766238D01*
X16711367Y47766241D01*
X16612608Y47951006D01*
X16551789Y48151500D01*
X16531254Y48360000D01*
X16551789Y48568500D01*
X16612608Y48768994D01*
X16711367Y48953759D01*
X16711370Y48953763D01*
X16844282Y49115718D01*
X17006237Y49248630D01*
X17006238Y49248631D01*
X17006241Y49248633D01*
X17191006Y49347392D01*
X17391500Y49408211D01*
X17547749Y49423600D01*
X17652251Y49423600D01*
X17808500Y49408211D01*
X17808500Y49408211D01*
G37*
G36*
X15268500Y49408211D02*
G01*
X15468994Y49347392D01*
X15653759Y49248633D01*
X15653762Y49248631D01*
X15653763Y49248630D01*
X15815718Y49115718D01*
X15948630Y48953763D01*
X15948633Y48953759D01*
X16047392Y48768994D01*
X16108211Y48568500D01*
X16128746Y48360000D01*
X16108211Y48151500D01*
X16047392Y47951006D01*
X15948633Y47766241D01*
X15948631Y47766238D01*
X15948630Y47766237D01*
X15815718Y47604282D01*
X15653763Y47471370D01*
X15653759Y47471367D01*
X15468994Y47372608D01*
X15268500Y47311789D01*
X15112251Y47296400D01*
X15007749Y47296400D01*
X14851500Y47311789D01*
X14651006Y47372608D01*
X14466241Y47471367D01*
X14466237Y47471370D01*
X14304282Y47604282D01*
X14171370Y47766237D01*
X14171369Y47766238D01*
X14171367Y47766241D01*
X14072608Y47951006D01*
X14011789Y48151500D01*
X13991254Y48360000D01*
X14011789Y48568500D01*
X14072608Y48768994D01*
X14171367Y48953759D01*
X14171370Y48953763D01*
X14304282Y49115718D01*
X14466237Y49248630D01*
X14466238Y49248631D01*
X14466241Y49248633D01*
X14651006Y49347392D01*
X14851500Y49408211D01*
X15007749Y49423600D01*
X15112251Y49423600D01*
X15268500Y49408211D01*
X15268500Y49408211D01*
G37*
G36*
X12728500Y49408211D02*
G01*
X12928994Y49347392D01*
X13113759Y49248633D01*
X13113762Y49248631D01*
X13113763Y49248630D01*
X13275718Y49115718D01*
X13408630Y48953763D01*
X13408633Y48953759D01*
X13507392Y48768994D01*
X13568211Y48568500D01*
X13588746Y48360000D01*
X13568211Y48151500D01*
X13507392Y47951006D01*
X13408633Y47766241D01*
X13408631Y47766238D01*
X13408630Y47766237D01*
X13275718Y47604282D01*
X13113763Y47471370D01*
X13113759Y47471367D01*
X12928994Y47372608D01*
X12728500Y47311789D01*
X12572251Y47296400D01*
X12467749Y47296400D01*
X12311500Y47311789D01*
X12111006Y47372608D01*
X11926241Y47471367D01*
X11926237Y47471370D01*
X11764282Y47604282D01*
X11631370Y47766237D01*
X11631369Y47766238D01*
X11631367Y47766241D01*
X11532608Y47951006D01*
X11471789Y48151500D01*
X11451254Y48360000D01*
X11471789Y48568500D01*
X11532608Y48768994D01*
X11631367Y48953759D01*
X11631370Y48953763D01*
X11764282Y49115718D01*
X11926237Y49248630D01*
X11926238Y49248631D01*
X11926241Y49248633D01*
X12111006Y49347392D01*
X12311500Y49408211D01*
X12467749Y49423600D01*
X12572251Y49423600D01*
X12728500Y49408211D01*
X12728500Y49408211D01*
G37*
G36*
X27968500Y51948211D02*
G01*
X28168994Y51887392D01*
X28353759Y51788633D01*
X28353762Y51788631D01*
X28353763Y51788630D01*
X28515718Y51655718D01*
X28648630Y51493763D01*
X28648633Y51493759D01*
X28747392Y51308994D01*
X28808211Y51108500D01*
X28828746Y50900000D01*
X28808211Y50691500D01*
X28747392Y50491006D01*
X28648633Y50306241D01*
X28648631Y50306238D01*
X28648630Y50306237D01*
X28515718Y50144282D01*
X28353763Y50011370D01*
X28353759Y50011367D01*
X28168994Y49912608D01*
X27968500Y49851789D01*
X27812251Y49836400D01*
X27707749Y49836400D01*
X27551500Y49851789D01*
X27351006Y49912608D01*
X27166241Y50011367D01*
X27166237Y50011370D01*
X27004282Y50144282D01*
X26871370Y50306237D01*
X26871369Y50306238D01*
X26871367Y50306241D01*
X26772608Y50491006D01*
X26711789Y50691500D01*
X26691254Y50900000D01*
X26711789Y51108500D01*
X26772608Y51308994D01*
X26871367Y51493759D01*
X26871370Y51493763D01*
X27004282Y51655718D01*
X27166237Y51788630D01*
X27166238Y51788631D01*
X27166241Y51788633D01*
X27351006Y51887392D01*
X27551500Y51948211D01*
X27707749Y51963600D01*
X27812251Y51963600D01*
X27968500Y51948211D01*
X27968500Y51948211D01*
G37*
G36*
X12728500Y51948211D02*
G01*
X12928994Y51887392D01*
X13113759Y51788633D01*
X13113762Y51788631D01*
X13113763Y51788630D01*
X13275718Y51655718D01*
X13408630Y51493763D01*
X13408633Y51493759D01*
X13507392Y51308994D01*
X13568211Y51108500D01*
X13588746Y50900000D01*
X13568211Y50691500D01*
X13507392Y50491006D01*
X13408633Y50306241D01*
X13408631Y50306238D01*
X13408630Y50306237D01*
X13275718Y50144282D01*
X13113763Y50011370D01*
X13113759Y50011367D01*
X12928994Y49912608D01*
X12728500Y49851789D01*
X12572251Y49836400D01*
X12467749Y49836400D01*
X12311500Y49851789D01*
X12111006Y49912608D01*
X11926241Y50011367D01*
X11926237Y50011370D01*
X11764282Y50144282D01*
X11631370Y50306237D01*
X11631369Y50306238D01*
X11631367Y50306241D01*
X11532608Y50491006D01*
X11471789Y50691500D01*
X11451254Y50900000D01*
X11471789Y51108500D01*
X11532608Y51308994D01*
X11631367Y51493759D01*
X11631370Y51493763D01*
X11764282Y51655718D01*
X11926237Y51788630D01*
X11926238Y51788631D01*
X11926241Y51788633D01*
X12111006Y51887392D01*
X12311500Y51948211D01*
X12467749Y51963600D01*
X12572251Y51963600D01*
X12728500Y51948211D01*
X12728500Y51948211D01*
G37*
G36*
X44063600Y49836400D02*
G01*
X41936400Y49836400D01*
X41936400Y51963600D01*
X44063600Y51963600D01*
X44063600Y49836400D01*
X44063600Y49836400D01*
G37*
G36*
X15268500Y51948211D02*
G01*
X15468994Y51887392D01*
X15653759Y51788633D01*
X15653762Y51788631D01*
X15653763Y51788630D01*
X15815718Y51655718D01*
X15948630Y51493763D01*
X15948633Y51493759D01*
X16047392Y51308994D01*
X16108211Y51108500D01*
X16128746Y50900000D01*
X16108211Y50691500D01*
X16047392Y50491006D01*
X15948633Y50306241D01*
X15948631Y50306238D01*
X15948630Y50306237D01*
X15815718Y50144282D01*
X15653763Y50011370D01*
X15653759Y50011367D01*
X15468994Y49912608D01*
X15268500Y49851789D01*
X15112251Y49836400D01*
X15007749Y49836400D01*
X14851500Y49851789D01*
X14651006Y49912608D01*
X14466241Y50011367D01*
X14466237Y50011370D01*
X14304282Y50144282D01*
X14171370Y50306237D01*
X14171369Y50306238D01*
X14171367Y50306241D01*
X14072608Y50491006D01*
X14011789Y50691500D01*
X13991254Y50900000D01*
X14011789Y51108500D01*
X14072608Y51308994D01*
X14171367Y51493759D01*
X14171370Y51493763D01*
X14304282Y51655718D01*
X14466237Y51788630D01*
X14466238Y51788631D01*
X14466241Y51788633D01*
X14651006Y51887392D01*
X14851500Y51948211D01*
X15007749Y51963600D01*
X15112251Y51963600D01*
X15268500Y51948211D01*
X15268500Y51948211D01*
G37*
G36*
X40668500Y51948211D02*
G01*
X40868994Y51887392D01*
X41053759Y51788633D01*
X41053762Y51788631D01*
X41053763Y51788630D01*
X41215718Y51655718D01*
X41348630Y51493763D01*
X41348633Y51493759D01*
X41447392Y51308994D01*
X41508211Y51108500D01*
X41528746Y50900000D01*
X41508211Y50691500D01*
X41447392Y50491006D01*
X41348633Y50306241D01*
X41348631Y50306238D01*
X41348630Y50306237D01*
X41215718Y50144282D01*
X41053763Y50011370D01*
X41053759Y50011367D01*
X40868994Y49912608D01*
X40668500Y49851789D01*
X40512251Y49836400D01*
X40407749Y49836400D01*
X40251500Y49851789D01*
X40051006Y49912608D01*
X39866241Y50011367D01*
X39866237Y50011370D01*
X39704282Y50144282D01*
X39571370Y50306237D01*
X39571369Y50306238D01*
X39571367Y50306241D01*
X39472608Y50491006D01*
X39411789Y50691500D01*
X39391254Y50900000D01*
X39411789Y51108500D01*
X39472608Y51308994D01*
X39571367Y51493759D01*
X39571370Y51493763D01*
X39704282Y51655718D01*
X39866237Y51788630D01*
X39866238Y51788631D01*
X39866241Y51788633D01*
X40051006Y51887392D01*
X40251500Y51948211D01*
X40407749Y51963600D01*
X40512251Y51963600D01*
X40668500Y51948211D01*
X40668500Y51948211D01*
G37*
G36*
X17808500Y51948211D02*
G01*
X18008994Y51887392D01*
X18193759Y51788633D01*
X18193762Y51788631D01*
X18193763Y51788630D01*
X18355718Y51655718D01*
X18488630Y51493763D01*
X18488633Y51493759D01*
X18587392Y51308994D01*
X18648211Y51108500D01*
X18668746Y50900000D01*
X18648211Y50691500D01*
X18587392Y50491006D01*
X18488633Y50306241D01*
X18488631Y50306238D01*
X18488630Y50306237D01*
X18355718Y50144282D01*
X18193763Y50011370D01*
X18193759Y50011367D01*
X18008994Y49912608D01*
X17808500Y49851789D01*
X17652251Y49836400D01*
X17547749Y49836400D01*
X17391500Y49851789D01*
X17191006Y49912608D01*
X17006241Y50011367D01*
X17006237Y50011370D01*
X16844282Y50144282D01*
X16711370Y50306237D01*
X16711369Y50306238D01*
X16711367Y50306241D01*
X16612608Y50491006D01*
X16551789Y50691500D01*
X16531254Y50900000D01*
X16551789Y51108500D01*
X16612608Y51308994D01*
X16711367Y51493759D01*
X16711370Y51493763D01*
X16844282Y51655718D01*
X17006237Y51788630D01*
X17006238Y51788631D01*
X17006241Y51788633D01*
X17191006Y51887392D01*
X17391500Y51948211D01*
X17547749Y51963600D01*
X17652251Y51963600D01*
X17808500Y51948211D01*
X17808500Y51948211D01*
G37*
G36*
X38128500Y51948211D02*
G01*
X38328994Y51887392D01*
X38513759Y51788633D01*
X38513762Y51788631D01*
X38513763Y51788630D01*
X38675718Y51655718D01*
X38808630Y51493763D01*
X38808633Y51493759D01*
X38907392Y51308994D01*
X38968211Y51108500D01*
X38988746Y50900000D01*
X38968211Y50691500D01*
X38907392Y50491006D01*
X38808633Y50306241D01*
X38808631Y50306238D01*
X38808630Y50306237D01*
X38675718Y50144282D01*
X38513763Y50011370D01*
X38513759Y50011367D01*
X38328994Y49912608D01*
X38128500Y49851789D01*
X37972251Y49836400D01*
X37867749Y49836400D01*
X37711500Y49851789D01*
X37511006Y49912608D01*
X37326241Y50011367D01*
X37326237Y50011370D01*
X37164282Y50144282D01*
X37031370Y50306237D01*
X37031369Y50306238D01*
X37031367Y50306241D01*
X36932608Y50491006D01*
X36871789Y50691500D01*
X36851254Y50900000D01*
X36871789Y51108500D01*
X36932608Y51308994D01*
X37031367Y51493759D01*
X37031370Y51493763D01*
X37164282Y51655718D01*
X37326237Y51788630D01*
X37326238Y51788631D01*
X37326241Y51788633D01*
X37511006Y51887392D01*
X37711500Y51948211D01*
X37867749Y51963600D01*
X37972251Y51963600D01*
X38128500Y51948211D01*
X38128500Y51948211D01*
G37*
G36*
X20348500Y51948211D02*
G01*
X20548994Y51887392D01*
X20733759Y51788633D01*
X20733762Y51788631D01*
X20733763Y51788630D01*
X20895718Y51655718D01*
X21028630Y51493763D01*
X21028633Y51493759D01*
X21127392Y51308994D01*
X21188211Y51108500D01*
X21208746Y50900000D01*
X21188211Y50691500D01*
X21127392Y50491006D01*
X21028633Y50306241D01*
X21028631Y50306238D01*
X21028630Y50306237D01*
X20895718Y50144282D01*
X20733763Y50011370D01*
X20733759Y50011367D01*
X20548994Y49912608D01*
X20348500Y49851789D01*
X20192251Y49836400D01*
X20087749Y49836400D01*
X19931500Y49851789D01*
X19731006Y49912608D01*
X19546241Y50011367D01*
X19546237Y50011370D01*
X19384282Y50144282D01*
X19251370Y50306237D01*
X19251369Y50306238D01*
X19251367Y50306241D01*
X19152608Y50491006D01*
X19091789Y50691500D01*
X19071254Y50900000D01*
X19091789Y51108500D01*
X19152608Y51308994D01*
X19251367Y51493759D01*
X19251370Y51493763D01*
X19384282Y51655718D01*
X19546237Y51788630D01*
X19546238Y51788631D01*
X19546241Y51788633D01*
X19731006Y51887392D01*
X19931500Y51948211D01*
X20087749Y51963600D01*
X20192251Y51963600D01*
X20348500Y51948211D01*
X20348500Y51948211D01*
G37*
G36*
X35588500Y51948211D02*
G01*
X35788994Y51887392D01*
X35973759Y51788633D01*
X35973762Y51788631D01*
X35973763Y51788630D01*
X36135718Y51655718D01*
X36268630Y51493763D01*
X36268633Y51493759D01*
X36367392Y51308994D01*
X36428211Y51108500D01*
X36448746Y50900000D01*
X36428211Y50691500D01*
X36367392Y50491006D01*
X36268633Y50306241D01*
X36268631Y50306238D01*
X36268630Y50306237D01*
X36135718Y50144282D01*
X35973763Y50011370D01*
X35973759Y50011367D01*
X35788994Y49912608D01*
X35588500Y49851789D01*
X35432251Y49836400D01*
X35327749Y49836400D01*
X35171500Y49851789D01*
X34971006Y49912608D01*
X34786241Y50011367D01*
X34786237Y50011370D01*
X34624282Y50144282D01*
X34491370Y50306237D01*
X34491369Y50306238D01*
X34491367Y50306241D01*
X34392608Y50491006D01*
X34331789Y50691500D01*
X34311254Y50900000D01*
X34331789Y51108500D01*
X34392608Y51308994D01*
X34491367Y51493759D01*
X34491370Y51493763D01*
X34624282Y51655718D01*
X34786237Y51788630D01*
X34786238Y51788631D01*
X34786241Y51788633D01*
X34971006Y51887392D01*
X35171500Y51948211D01*
X35327749Y51963600D01*
X35432251Y51963600D01*
X35588500Y51948211D01*
X35588500Y51948211D01*
G37*
G36*
X22888500Y51948211D02*
G01*
X23088994Y51887392D01*
X23273759Y51788633D01*
X23273762Y51788631D01*
X23273763Y51788630D01*
X23435718Y51655718D01*
X23568630Y51493763D01*
X23568633Y51493759D01*
X23667392Y51308994D01*
X23728211Y51108500D01*
X23748746Y50900000D01*
X23728211Y50691500D01*
X23667392Y50491006D01*
X23568633Y50306241D01*
X23568631Y50306238D01*
X23568630Y50306237D01*
X23435718Y50144282D01*
X23273763Y50011370D01*
X23273759Y50011367D01*
X23088994Y49912608D01*
X22888500Y49851789D01*
X22732251Y49836400D01*
X22627749Y49836400D01*
X22471500Y49851789D01*
X22271006Y49912608D01*
X22086241Y50011367D01*
X22086237Y50011370D01*
X21924282Y50144282D01*
X21791370Y50306237D01*
X21791369Y50306238D01*
X21791367Y50306241D01*
X21692608Y50491006D01*
X21631789Y50691500D01*
X21611254Y50900000D01*
X21631789Y51108500D01*
X21692608Y51308994D01*
X21791367Y51493759D01*
X21791370Y51493763D01*
X21924282Y51655718D01*
X22086237Y51788630D01*
X22086238Y51788631D01*
X22086241Y51788633D01*
X22271006Y51887392D01*
X22471500Y51948211D01*
X22627749Y51963600D01*
X22732251Y51963600D01*
X22888500Y51948211D01*
X22888500Y51948211D01*
G37*
G36*
X33048500Y51948211D02*
G01*
X33248994Y51887392D01*
X33433759Y51788633D01*
X33433762Y51788631D01*
X33433763Y51788630D01*
X33595718Y51655718D01*
X33728630Y51493763D01*
X33728633Y51493759D01*
X33827392Y51308994D01*
X33888211Y51108500D01*
X33908746Y50900000D01*
X33888211Y50691500D01*
X33827392Y50491006D01*
X33728633Y50306241D01*
X33728631Y50306238D01*
X33728630Y50306237D01*
X33595718Y50144282D01*
X33433763Y50011370D01*
X33433759Y50011367D01*
X33248994Y49912608D01*
X33048500Y49851789D01*
X32892251Y49836400D01*
X32787749Y49836400D01*
X32631500Y49851789D01*
X32431006Y49912608D01*
X32246241Y50011367D01*
X32246237Y50011370D01*
X32084282Y50144282D01*
X31951370Y50306237D01*
X31951369Y50306238D01*
X31951367Y50306241D01*
X31852608Y50491006D01*
X31791789Y50691500D01*
X31771254Y50900000D01*
X31791789Y51108500D01*
X31852608Y51308994D01*
X31951367Y51493759D01*
X31951370Y51493763D01*
X32084282Y51655718D01*
X32246237Y51788630D01*
X32246238Y51788631D01*
X32246241Y51788633D01*
X32431006Y51887392D01*
X32631500Y51948211D01*
X32787749Y51963600D01*
X32892251Y51963600D01*
X33048500Y51948211D01*
X33048500Y51948211D01*
G37*
G36*
X25428500Y51948211D02*
G01*
X25628994Y51887392D01*
X25813759Y51788633D01*
X25813762Y51788631D01*
X25813763Y51788630D01*
X25975718Y51655718D01*
X26108630Y51493763D01*
X26108633Y51493759D01*
X26207392Y51308994D01*
X26268211Y51108500D01*
X26288746Y50900000D01*
X26268211Y50691500D01*
X26207392Y50491006D01*
X26108633Y50306241D01*
X26108631Y50306238D01*
X26108630Y50306237D01*
X25975718Y50144282D01*
X25813763Y50011370D01*
X25813759Y50011367D01*
X25628994Y49912608D01*
X25428500Y49851789D01*
X25272251Y49836400D01*
X25167749Y49836400D01*
X25011500Y49851789D01*
X24811006Y49912608D01*
X24626241Y50011367D01*
X24626237Y50011370D01*
X24464282Y50144282D01*
X24331370Y50306237D01*
X24331369Y50306238D01*
X24331367Y50306241D01*
X24232608Y50491006D01*
X24171789Y50691500D01*
X24151254Y50900000D01*
X24171789Y51108500D01*
X24232608Y51308994D01*
X24331367Y51493759D01*
X24331370Y51493763D01*
X24464282Y51655718D01*
X24626237Y51788630D01*
X24626238Y51788631D01*
X24626241Y51788633D01*
X24811006Y51887392D01*
X25011500Y51948211D01*
X25167749Y51963600D01*
X25272251Y51963600D01*
X25428500Y51948211D01*
X25428500Y51948211D01*
G37*
G36*
X30508500Y51948211D02*
G01*
X30708994Y51887392D01*
X30893759Y51788633D01*
X30893762Y51788631D01*
X30893763Y51788630D01*
X31055718Y51655718D01*
X31188630Y51493763D01*
X31188633Y51493759D01*
X31287392Y51308994D01*
X31348211Y51108500D01*
X31368746Y50900000D01*
X31348211Y50691500D01*
X31287392Y50491006D01*
X31188633Y50306241D01*
X31188631Y50306238D01*
X31188630Y50306237D01*
X31055718Y50144282D01*
X30893763Y50011370D01*
X30893759Y50011367D01*
X30708994Y49912608D01*
X30508500Y49851789D01*
X30352251Y49836400D01*
X30247749Y49836400D01*
X30091500Y49851789D01*
X29891006Y49912608D01*
X29706241Y50011367D01*
X29706237Y50011370D01*
X29544282Y50144282D01*
X29411370Y50306237D01*
X29411369Y50306238D01*
X29411367Y50306241D01*
X29312608Y50491006D01*
X29251789Y50691500D01*
X29231254Y50900000D01*
X29251789Y51108500D01*
X29312608Y51308994D01*
X29411367Y51493759D01*
X29411370Y51493763D01*
X29544282Y51655718D01*
X29706237Y51788630D01*
X29706238Y51788631D01*
X29706241Y51788633D01*
X29891006Y51887392D01*
X30091500Y51948211D01*
X30247749Y51963600D01*
X30352251Y51963600D01*
X30508500Y51948211D01*
X30508500Y51948211D01*
G37*
G36*
X181850000Y67700000D02*
G01*
X180150000Y67700000D01*
X180150000Y69100000D01*
X181850000Y69100000D01*
X181850000Y67700000D01*
X181850000Y67700000D01*
G37*
G36*
X135850000Y67700000D02*
G01*
X134150000Y67700000D01*
X134150000Y69100000D01*
X135850000Y69100000D01*
X135850000Y67700000D01*
X135850000Y67700000D01*
G37*
G36*
X155050000Y67700000D02*
G01*
X153350000Y67700000D01*
X153350000Y69100000D01*
X155050000Y69100000D01*
X155050000Y67700000D01*
X155050000Y67700000D01*
G37*
G36*
X132050000Y67700000D02*
G01*
X130350000Y67700000D01*
X130350000Y69100000D01*
X132050000Y69100000D01*
X132050000Y67700000D01*
X132050000Y67700000D01*
G37*
G36*
X112850000Y67700000D02*
G01*
X111150000Y67700000D01*
X111150000Y69100000D01*
X112850000Y69100000D01*
X112850000Y67700000D01*
X112850000Y67700000D01*
G37*
G36*
X158850000Y67700000D02*
G01*
X157150000Y67700000D01*
X157150000Y69100000D01*
X158850000Y69100000D01*
X158850000Y67700000D01*
X158850000Y67700000D01*
G37*
G36*
X178050000Y67700000D02*
G01*
X176350000Y67700000D01*
X176350000Y69100000D01*
X178050000Y69100000D01*
X178050000Y67700000D01*
X178050000Y67700000D01*
G37*
G36*
X109050000Y67700000D02*
G01*
X107350000Y67700000D01*
X107350000Y69100000D01*
X109050000Y69100000D01*
X109050000Y67700000D01*
X109050000Y67700000D01*
G37*
G36*
X89850000Y67700000D02*
G01*
X88150000Y67700000D01*
X88150000Y69100000D01*
X89850000Y69100000D01*
X89850000Y67700000D01*
X89850000Y67700000D01*
G37*
G36*
X63050000Y67700000D02*
G01*
X61350000Y67700000D01*
X61350000Y69100000D01*
X63050000Y69100000D01*
X63050000Y67700000D01*
X63050000Y67700000D01*
G37*
G36*
X66850000Y67700000D02*
G01*
X65150000Y67700000D01*
X65150000Y69100000D01*
X66850000Y69100000D01*
X66850000Y67700000D01*
X66850000Y67700000D01*
G37*
G36*
X86050000Y67700000D02*
G01*
X84350000Y67700000D01*
X84350000Y69100000D01*
X86050000Y69100000D01*
X86050000Y67700000D01*
X86050000Y67700000D01*
G37*
G36*
X15100000Y69150000D02*
G01*
X13700000Y69150000D01*
X13700000Y70850000D01*
X15100000Y70850000D01*
X15100000Y69150000D01*
X15100000Y69150000D01*
G37*
G36*
X41900000Y69150000D02*
G01*
X40500000Y69150000D01*
X40500000Y70850000D01*
X41900000Y70850000D01*
X41900000Y69150000D01*
X41900000Y69150000D01*
G37*
G36*
X39540026Y73373885D02*
G01*
X39758411Y73283427D01*
X39758413Y73283426D01*
X39954955Y73152101D01*
X40122101Y72984955D01*
X40207290Y72857461D01*
X40253427Y72788411D01*
X40343885Y72570026D01*
X40390000Y72338191D01*
X40390000Y72101809D01*
X40343885Y71869974D01*
X40253427Y71651589D01*
X40253426Y71651587D01*
X40122101Y71455045D01*
X39954955Y71287899D01*
X39758413Y71156574D01*
X39758412Y71156573D01*
X39758411Y71156573D01*
X39598856Y71090483D01*
X39577245Y71078932D01*
X39558303Y71063387D01*
X39542758Y71044445D01*
X39531207Y71022834D01*
X39524094Y70999385D01*
X39521692Y70974999D01*
X39524094Y70950613D01*
X39531207Y70927164D01*
X39542758Y70905553D01*
X39558303Y70886611D01*
X39577245Y70871066D01*
X39598856Y70859515D01*
X39622305Y70852402D01*
X39646691Y70850000D01*
X39900000Y70850000D01*
X39900000Y69150000D01*
X38500000Y69150000D01*
X38500000Y70850000D01*
X38733309Y70850000D01*
X38757695Y70852402D01*
X38781144Y70859515D01*
X38802755Y70871066D01*
X38821697Y70886611D01*
X38837242Y70905553D01*
X38848793Y70927164D01*
X38855906Y70950613D01*
X38858308Y70974999D01*
X38855906Y70999385D01*
X38848793Y71022834D01*
X38837242Y71044445D01*
X38821697Y71063387D01*
X38802755Y71078932D01*
X38781144Y71090483D01*
X38621589Y71156573D01*
X38621588Y71156573D01*
X38621587Y71156574D01*
X38425045Y71287899D01*
X38257899Y71455045D01*
X38126574Y71651587D01*
X38126573Y71651589D01*
X38036115Y71869974D01*
X37990000Y72101809D01*
X37990000Y72338191D01*
X38036115Y72570026D01*
X38126573Y72788411D01*
X38172711Y72857461D01*
X38257899Y72984955D01*
X38425045Y73152101D01*
X38621587Y73283426D01*
X38621589Y73283427D01*
X38839974Y73373885D01*
X39071809Y73420000D01*
X39308191Y73420000D01*
X39540026Y73373885D01*
X39540026Y73373885D01*
G37*
G36*
X38100000Y69150000D02*
G01*
X36700000Y69150000D01*
X36700000Y70850000D01*
X38100000Y70850000D01*
X38100000Y69150000D01*
X38100000Y69150000D01*
G37*
G36*
X20700000Y69150000D02*
G01*
X19300000Y69150000D01*
X19300000Y70850000D01*
X20700000Y70850000D01*
X20700000Y69150000D01*
X20700000Y69150000D01*
G37*
G36*
X18900000Y69150000D02*
G01*
X17500000Y69150000D01*
X17500000Y70850000D01*
X18900000Y70850000D01*
X18900000Y69150000D01*
X18900000Y69150000D01*
G37*
G36*
X16540026Y73373885D02*
G01*
X16758411Y73283427D01*
X16758413Y73283426D01*
X16954955Y73152101D01*
X17122101Y72984955D01*
X17207290Y72857461D01*
X17253427Y72788411D01*
X17343885Y72570026D01*
X17390000Y72338191D01*
X17390000Y72101809D01*
X17343885Y71869974D01*
X17253427Y71651589D01*
X17253426Y71651587D01*
X17122101Y71455045D01*
X16954955Y71287899D01*
X16758413Y71156574D01*
X16758412Y71156573D01*
X16758411Y71156573D01*
X16598856Y71090483D01*
X16577245Y71078932D01*
X16558303Y71063387D01*
X16542758Y71044445D01*
X16531207Y71022834D01*
X16524094Y70999385D01*
X16521692Y70974999D01*
X16524094Y70950613D01*
X16531207Y70927164D01*
X16542758Y70905553D01*
X16558303Y70886611D01*
X16577245Y70871066D01*
X16598856Y70859515D01*
X16622305Y70852402D01*
X16646691Y70850000D01*
X16900000Y70850000D01*
X16900000Y69150000D01*
X15500000Y69150000D01*
X15500000Y70850000D01*
X15733309Y70850000D01*
X15757695Y70852402D01*
X15781144Y70859515D01*
X15802755Y70871066D01*
X15821697Y70886611D01*
X15837242Y70905553D01*
X15848793Y70927164D01*
X15855906Y70950613D01*
X15858308Y70974999D01*
X15855906Y70999385D01*
X15848793Y71022834D01*
X15837242Y71044445D01*
X15821697Y71063387D01*
X15802755Y71078932D01*
X15781144Y71090483D01*
X15621589Y71156573D01*
X15621588Y71156573D01*
X15621587Y71156574D01*
X15425045Y71287899D01*
X15257899Y71455045D01*
X15126574Y71651587D01*
X15126573Y71651589D01*
X15036115Y71869974D01*
X14990000Y72101809D01*
X14990000Y72338191D01*
X15036115Y72570026D01*
X15126573Y72788411D01*
X15172711Y72857461D01*
X15257899Y72984955D01*
X15425045Y73152101D01*
X15621587Y73283426D01*
X15621589Y73283427D01*
X15839974Y73373885D01*
X16071809Y73420000D01*
X16308191Y73420000D01*
X16540026Y73373885D01*
X16540026Y73373885D01*
G37*
G36*
X43700000Y69150000D02*
G01*
X42300000Y69150000D01*
X42300000Y70850000D01*
X43700000Y70850000D01*
X43700000Y69150000D01*
X43700000Y69150000D01*
G37*
G36*
X135850000Y69500000D02*
G01*
X134150000Y69500000D01*
X134150000Y70900000D01*
X135850000Y70900000D01*
X135850000Y69500000D01*
X135850000Y69500000D01*
G37*
G36*
X131540026Y73373885D02*
G01*
X131758411Y73283427D01*
X131758413Y73283426D01*
X131954955Y73152101D01*
X132122101Y72984955D01*
X132207290Y72857461D01*
X132253427Y72788411D01*
X132343885Y72570026D01*
X132390000Y72338191D01*
X132390000Y72101809D01*
X132343885Y71869974D01*
X132253427Y71651589D01*
X132253426Y71651587D01*
X132122101Y71455045D01*
X131954955Y71287899D01*
X131758413Y71156574D01*
X131758412Y71156573D01*
X131758411Y71156573D01*
X131719567Y71140483D01*
X131697956Y71128932D01*
X131679014Y71113386D01*
X131663469Y71094444D01*
X131651918Y71072834D01*
X131644805Y71049385D01*
X131642403Y71024999D01*
X131644805Y71000612D01*
X131651918Y70977164D01*
X131663469Y70955553D01*
X131679015Y70936611D01*
X131697957Y70921066D01*
X131719567Y70909515D01*
X131743016Y70902402D01*
X131767402Y70900000D01*
X132050000Y70900000D01*
X132050000Y69500000D01*
X130350000Y69500000D01*
X130350000Y70900000D01*
X130612598Y70900000D01*
X130636984Y70902402D01*
X130660433Y70909515D01*
X130682044Y70921066D01*
X130700986Y70936611D01*
X130716531Y70955553D01*
X130728082Y70977164D01*
X130735195Y71000613D01*
X130737597Y71024999D01*
X130735195Y71049385D01*
X130728082Y71072834D01*
X130716531Y71094445D01*
X130700986Y71113387D01*
X130682044Y71128932D01*
X130660433Y71140483D01*
X130621589Y71156573D01*
X130621588Y71156573D01*
X130621587Y71156574D01*
X130425045Y71287899D01*
X130257899Y71455045D01*
X130126574Y71651587D01*
X130126573Y71651589D01*
X130036115Y71869974D01*
X129990000Y72101809D01*
X129990000Y72338191D01*
X130036115Y72570026D01*
X130126573Y72788411D01*
X130172711Y72857461D01*
X130257899Y72984955D01*
X130425045Y73152101D01*
X130621587Y73283426D01*
X130621589Y73283427D01*
X130839974Y73373885D01*
X131071809Y73420000D01*
X131308191Y73420000D01*
X131540026Y73373885D01*
X131540026Y73373885D01*
G37*
G36*
X154540026Y73373885D02*
G01*
X154758411Y73283427D01*
X154758413Y73283426D01*
X154954955Y73152101D01*
X155122101Y72984955D01*
X155207290Y72857461D01*
X155253427Y72788411D01*
X155343885Y72570026D01*
X155390000Y72338191D01*
X155390000Y72101809D01*
X155343885Y71869974D01*
X155253427Y71651589D01*
X155253426Y71651587D01*
X155122101Y71455045D01*
X154954955Y71287899D01*
X154758413Y71156574D01*
X154758412Y71156573D01*
X154758411Y71156573D01*
X154719567Y71140483D01*
X154697956Y71128932D01*
X154679014Y71113386D01*
X154663469Y71094444D01*
X154651918Y71072834D01*
X154644805Y71049385D01*
X154642403Y71024999D01*
X154644805Y71000612D01*
X154651918Y70977164D01*
X154663469Y70955553D01*
X154679015Y70936611D01*
X154697957Y70921066D01*
X154719567Y70909515D01*
X154743016Y70902402D01*
X154767402Y70900000D01*
X155050000Y70900000D01*
X155050000Y69500000D01*
X153350000Y69500000D01*
X153350000Y70900000D01*
X153612598Y70900000D01*
X153636984Y70902402D01*
X153660433Y70909515D01*
X153682044Y70921066D01*
X153700986Y70936611D01*
X153716531Y70955553D01*
X153728082Y70977164D01*
X153735195Y71000613D01*
X153737597Y71024999D01*
X153735195Y71049385D01*
X153728082Y71072834D01*
X153716531Y71094445D01*
X153700986Y71113387D01*
X153682044Y71128932D01*
X153660433Y71140483D01*
X153621589Y71156573D01*
X153621588Y71156573D01*
X153621587Y71156574D01*
X153425045Y71287899D01*
X153257899Y71455045D01*
X153126574Y71651587D01*
X153126573Y71651589D01*
X153036115Y71869974D01*
X152990000Y72101809D01*
X152990000Y72338191D01*
X153036115Y72570026D01*
X153126573Y72788411D01*
X153172711Y72857461D01*
X153257899Y72984955D01*
X153425045Y73152101D01*
X153621587Y73283426D01*
X153621589Y73283427D01*
X153839974Y73373885D01*
X154071809Y73420000D01*
X154308191Y73420000D01*
X154540026Y73373885D01*
X154540026Y73373885D01*
G37*
G36*
X158850000Y69500000D02*
G01*
X157150000Y69500000D01*
X157150000Y70900000D01*
X158850000Y70900000D01*
X158850000Y69500000D01*
X158850000Y69500000D01*
G37*
G36*
X112850000Y69500000D02*
G01*
X111150000Y69500000D01*
X111150000Y70900000D01*
X112850000Y70900000D01*
X112850000Y69500000D01*
X112850000Y69500000D01*
G37*
G36*
X108540026Y73373885D02*
G01*
X108758411Y73283427D01*
X108758413Y73283426D01*
X108954955Y73152101D01*
X109122101Y72984955D01*
X109207290Y72857461D01*
X109253427Y72788411D01*
X109343885Y72570026D01*
X109390000Y72338191D01*
X109390000Y72101809D01*
X109343885Y71869974D01*
X109253427Y71651589D01*
X109253426Y71651587D01*
X109122101Y71455045D01*
X108954955Y71287899D01*
X108758413Y71156574D01*
X108758412Y71156573D01*
X108758411Y71156573D01*
X108719567Y71140483D01*
X108697956Y71128932D01*
X108679014Y71113386D01*
X108663469Y71094444D01*
X108651918Y71072834D01*
X108644805Y71049385D01*
X108642403Y71024999D01*
X108644805Y71000612D01*
X108651918Y70977164D01*
X108663469Y70955553D01*
X108679015Y70936611D01*
X108697957Y70921066D01*
X108719567Y70909515D01*
X108743016Y70902402D01*
X108767402Y70900000D01*
X109050000Y70900000D01*
X109050000Y69500000D01*
X107350000Y69500000D01*
X107350000Y70900000D01*
X107612598Y70900000D01*
X107636984Y70902402D01*
X107660433Y70909515D01*
X107682044Y70921066D01*
X107700986Y70936611D01*
X107716531Y70955553D01*
X107728082Y70977164D01*
X107735195Y71000613D01*
X107737597Y71024999D01*
X107735195Y71049385D01*
X107728082Y71072834D01*
X107716531Y71094445D01*
X107700986Y71113387D01*
X107682044Y71128932D01*
X107660433Y71140483D01*
X107621589Y71156573D01*
X107621588Y71156573D01*
X107621587Y71156574D01*
X107425045Y71287899D01*
X107257899Y71455045D01*
X107126574Y71651587D01*
X107126573Y71651589D01*
X107036115Y71869974D01*
X106990000Y72101809D01*
X106990000Y72338191D01*
X107036115Y72570026D01*
X107126573Y72788411D01*
X107172711Y72857461D01*
X107257899Y72984955D01*
X107425045Y73152101D01*
X107621587Y73283426D01*
X107621589Y73283427D01*
X107839974Y73373885D01*
X108071809Y73420000D01*
X108308191Y73420000D01*
X108540026Y73373885D01*
X108540026Y73373885D01*
G37*
G36*
X177540026Y73373885D02*
G01*
X177758411Y73283427D01*
X177758413Y73283426D01*
X177954955Y73152101D01*
X178122101Y72984955D01*
X178207290Y72857461D01*
X178253427Y72788411D01*
X178343885Y72570026D01*
X178390000Y72338191D01*
X178390000Y72101809D01*
X178343885Y71869974D01*
X178253427Y71651589D01*
X178253426Y71651587D01*
X178122101Y71455045D01*
X177954955Y71287899D01*
X177758413Y71156574D01*
X177758412Y71156573D01*
X177758411Y71156573D01*
X177719567Y71140483D01*
X177697956Y71128932D01*
X177679014Y71113386D01*
X177663469Y71094444D01*
X177651918Y71072834D01*
X177644805Y71049385D01*
X177642403Y71024999D01*
X177644805Y71000612D01*
X177651918Y70977164D01*
X177663469Y70955553D01*
X177679015Y70936611D01*
X177697957Y70921066D01*
X177719567Y70909515D01*
X177743016Y70902402D01*
X177767402Y70900000D01*
X178050000Y70900000D01*
X178050000Y69500000D01*
X176350000Y69500000D01*
X176350000Y70900000D01*
X176612598Y70900000D01*
X176636984Y70902402D01*
X176660433Y70909515D01*
X176682044Y70921066D01*
X176700986Y70936611D01*
X176716531Y70955553D01*
X176728082Y70977164D01*
X176735195Y71000613D01*
X176737597Y71024999D01*
X176735195Y71049385D01*
X176728082Y71072834D01*
X176716531Y71094445D01*
X176700986Y71113387D01*
X176682044Y71128932D01*
X176660433Y71140483D01*
X176621589Y71156573D01*
X176621588Y71156573D01*
X176621587Y71156574D01*
X176425045Y71287899D01*
X176257899Y71455045D01*
X176126574Y71651587D01*
X176126573Y71651589D01*
X176036115Y71869974D01*
X175990000Y72101809D01*
X175990000Y72338191D01*
X176036115Y72570026D01*
X176126573Y72788411D01*
X176172711Y72857461D01*
X176257899Y72984955D01*
X176425045Y73152101D01*
X176621587Y73283426D01*
X176621589Y73283427D01*
X176839974Y73373885D01*
X177071809Y73420000D01*
X177308191Y73420000D01*
X177540026Y73373885D01*
X177540026Y73373885D01*
G37*
G36*
X89850000Y69500000D02*
G01*
X88150000Y69500000D01*
X88150000Y70900000D01*
X89850000Y70900000D01*
X89850000Y69500000D01*
X89850000Y69500000D01*
G37*
G36*
X85540026Y73373885D02*
G01*
X85758411Y73283427D01*
X85758413Y73283426D01*
X85954955Y73152101D01*
X86122101Y72984955D01*
X86207290Y72857461D01*
X86253427Y72788411D01*
X86343885Y72570026D01*
X86390000Y72338191D01*
X86390000Y72101809D01*
X86343885Y71869974D01*
X86253427Y71651589D01*
X86253426Y71651587D01*
X86122101Y71455045D01*
X85954955Y71287899D01*
X85758413Y71156574D01*
X85758412Y71156573D01*
X85758411Y71156573D01*
X85719567Y71140483D01*
X85697956Y71128932D01*
X85679014Y71113386D01*
X85663469Y71094444D01*
X85651918Y71072834D01*
X85644805Y71049385D01*
X85642403Y71024999D01*
X85644805Y71000612D01*
X85651918Y70977164D01*
X85663469Y70955553D01*
X85679015Y70936611D01*
X85697957Y70921066D01*
X85719567Y70909515D01*
X85743016Y70902402D01*
X85767402Y70900000D01*
X86050000Y70900000D01*
X86050000Y69500000D01*
X84350000Y69500000D01*
X84350000Y70900000D01*
X84612598Y70900000D01*
X84636984Y70902402D01*
X84660433Y70909515D01*
X84682044Y70921066D01*
X84700986Y70936611D01*
X84716531Y70955553D01*
X84728082Y70977164D01*
X84735195Y71000613D01*
X84737597Y71024999D01*
X84735195Y71049385D01*
X84728082Y71072834D01*
X84716531Y71094445D01*
X84700986Y71113387D01*
X84682044Y71128932D01*
X84660433Y71140483D01*
X84621589Y71156573D01*
X84621588Y71156573D01*
X84621587Y71156574D01*
X84425045Y71287899D01*
X84257899Y71455045D01*
X84126574Y71651587D01*
X84126573Y71651589D01*
X84036115Y71869974D01*
X83990000Y72101809D01*
X83990000Y72338191D01*
X84036115Y72570026D01*
X84126573Y72788411D01*
X84172711Y72857461D01*
X84257899Y72984955D01*
X84425045Y73152101D01*
X84621587Y73283426D01*
X84621589Y73283427D01*
X84839974Y73373885D01*
X85071809Y73420000D01*
X85308191Y73420000D01*
X85540026Y73373885D01*
X85540026Y73373885D01*
G37*
G36*
X181850000Y69500000D02*
G01*
X180150000Y69500000D01*
X180150000Y70900000D01*
X181850000Y70900000D01*
X181850000Y69500000D01*
X181850000Y69500000D01*
G37*
G36*
X66850000Y69500000D02*
G01*
X65150000Y69500000D01*
X65150000Y70900000D01*
X66850000Y70900000D01*
X66850000Y69500000D01*
X66850000Y69500000D01*
G37*
G36*
X62540026Y73373885D02*
G01*
X62758411Y73283427D01*
X62758413Y73283426D01*
X62954955Y73152101D01*
X63122101Y72984955D01*
X63207290Y72857461D01*
X63253427Y72788411D01*
X63343885Y72570026D01*
X63390000Y72338191D01*
X63390000Y72101809D01*
X63343885Y71869974D01*
X63253427Y71651589D01*
X63253426Y71651587D01*
X63122101Y71455045D01*
X62954955Y71287899D01*
X62758413Y71156574D01*
X62758412Y71156573D01*
X62758411Y71156573D01*
X62719567Y71140483D01*
X62697956Y71128932D01*
X62679014Y71113386D01*
X62663469Y71094444D01*
X62651918Y71072834D01*
X62644805Y71049385D01*
X62642403Y71024999D01*
X62644805Y71000612D01*
X62651918Y70977164D01*
X62663469Y70955553D01*
X62679015Y70936611D01*
X62697957Y70921066D01*
X62719567Y70909515D01*
X62743016Y70902402D01*
X62767402Y70900000D01*
X63050000Y70900000D01*
X63050000Y69500000D01*
X61350000Y69500000D01*
X61350000Y70900000D01*
X61612598Y70900000D01*
X61636984Y70902402D01*
X61660433Y70909515D01*
X61682044Y70921066D01*
X61700986Y70936611D01*
X61716531Y70955553D01*
X61728082Y70977164D01*
X61735195Y71000613D01*
X61737597Y71024999D01*
X61735195Y71049385D01*
X61728082Y71072834D01*
X61716531Y71094445D01*
X61700986Y71113387D01*
X61682044Y71128932D01*
X61660433Y71140483D01*
X61621589Y71156573D01*
X61621588Y71156573D01*
X61621587Y71156574D01*
X61425045Y71287899D01*
X61257899Y71455045D01*
X61126574Y71651587D01*
X61126573Y71651589D01*
X61036115Y71869974D01*
X60990000Y72101809D01*
X60990000Y72338191D01*
X61036115Y72570026D01*
X61126573Y72788411D01*
X61172711Y72857461D01*
X61257899Y72984955D01*
X61425045Y73152101D01*
X61621587Y73283426D01*
X61621589Y73283427D01*
X61839974Y73373885D01*
X62071809Y73420000D01*
X62308191Y73420000D01*
X62540026Y73373885D01*
X62540026Y73373885D01*
G37*
G36*
X24160026Y73373885D02*
G01*
X24378411Y73283427D01*
X24378413Y73283426D01*
X24574955Y73152101D01*
X24742101Y72984955D01*
X24827290Y72857461D01*
X24873427Y72788411D01*
X24963885Y72570026D01*
X25010000Y72338191D01*
X25010000Y72101809D01*
X24963885Y71869974D01*
X24873427Y71651589D01*
X24873426Y71651587D01*
X24742101Y71455045D01*
X24574955Y71287899D01*
X24378413Y71156574D01*
X24378412Y71156573D01*
X24378411Y71156573D01*
X24160026Y71066115D01*
X23928191Y71020000D01*
X23691809Y71020000D01*
X23459974Y71066115D01*
X23241589Y71156573D01*
X23241588Y71156573D01*
X23241587Y71156574D01*
X23045045Y71287899D01*
X22877899Y71455045D01*
X22746574Y71651587D01*
X22746573Y71651589D01*
X22656115Y71869974D01*
X22610000Y72101809D01*
X22610000Y72338191D01*
X22656115Y72570026D01*
X22746573Y72788411D01*
X22792711Y72857461D01*
X22877899Y72984955D01*
X23045045Y73152101D01*
X23241587Y73283426D01*
X23241589Y73283427D01*
X23459974Y73373885D01*
X23691809Y73420000D01*
X23928191Y73420000D01*
X24160026Y73373885D01*
X24160026Y73373885D01*
G37*
G36*
X185160026Y73373885D02*
G01*
X185378411Y73283427D01*
X185378413Y73283426D01*
X185574955Y73152101D01*
X185742101Y72984955D01*
X185827290Y72857461D01*
X185873427Y72788411D01*
X185963885Y72570026D01*
X186010000Y72338191D01*
X186010000Y72101809D01*
X185963885Y71869974D01*
X185873427Y71651589D01*
X185873426Y71651587D01*
X185742101Y71455045D01*
X185574955Y71287899D01*
X185378413Y71156574D01*
X185378412Y71156573D01*
X185378411Y71156573D01*
X185160026Y71066115D01*
X184928191Y71020000D01*
X184691809Y71020000D01*
X184459974Y71066115D01*
X184241589Y71156573D01*
X184241588Y71156573D01*
X184241587Y71156574D01*
X184045045Y71287899D01*
X183877899Y71455045D01*
X183746574Y71651587D01*
X183746573Y71651589D01*
X183656115Y71869974D01*
X183610000Y72101809D01*
X183610000Y72338191D01*
X183656115Y72570026D01*
X183746573Y72788411D01*
X183792711Y72857461D01*
X183877899Y72984955D01*
X184045045Y73152101D01*
X184241587Y73283426D01*
X184241589Y73283427D01*
X184459974Y73373885D01*
X184691809Y73420000D01*
X184928191Y73420000D01*
X185160026Y73373885D01*
X185160026Y73373885D01*
G37*
G36*
X93160026Y73373885D02*
G01*
X93378411Y73283427D01*
X93378413Y73283426D01*
X93574955Y73152101D01*
X93742101Y72984955D01*
X93827290Y72857461D01*
X93873427Y72788411D01*
X93963885Y72570026D01*
X94010000Y72338191D01*
X94010000Y72101809D01*
X93963885Y71869974D01*
X93873427Y71651589D01*
X93873426Y71651587D01*
X93742101Y71455045D01*
X93574955Y71287899D01*
X93378413Y71156574D01*
X93378412Y71156573D01*
X93378411Y71156573D01*
X93160026Y71066115D01*
X92928191Y71020000D01*
X92691809Y71020000D01*
X92459974Y71066115D01*
X92241589Y71156573D01*
X92241588Y71156573D01*
X92241587Y71156574D01*
X92045045Y71287899D01*
X91877899Y71455045D01*
X91746574Y71651587D01*
X91746573Y71651589D01*
X91656115Y71869974D01*
X91610000Y72101809D01*
X91610000Y72338191D01*
X91656115Y72570026D01*
X91746573Y72788411D01*
X91792711Y72857461D01*
X91877899Y72984955D01*
X92045045Y73152101D01*
X92241587Y73283426D01*
X92241589Y73283427D01*
X92459974Y73373885D01*
X92691809Y73420000D01*
X92928191Y73420000D01*
X93160026Y73373885D01*
X93160026Y73373885D01*
G37*
G36*
X47160026Y73373885D02*
G01*
X47378411Y73283427D01*
X47378413Y73283426D01*
X47574955Y73152101D01*
X47742101Y72984955D01*
X47827290Y72857461D01*
X47873427Y72788411D01*
X47963885Y72570026D01*
X48010000Y72338191D01*
X48010000Y72101809D01*
X47963885Y71869974D01*
X47873427Y71651589D01*
X47873426Y71651587D01*
X47742101Y71455045D01*
X47574955Y71287899D01*
X47378413Y71156574D01*
X47378412Y71156573D01*
X47378411Y71156573D01*
X47160026Y71066115D01*
X46928191Y71020000D01*
X46691809Y71020000D01*
X46459974Y71066115D01*
X46241589Y71156573D01*
X46241588Y71156573D01*
X46241587Y71156574D01*
X46045045Y71287899D01*
X45877899Y71455045D01*
X45746574Y71651587D01*
X45746573Y71651589D01*
X45656115Y71869974D01*
X45610000Y72101809D01*
X45610000Y72338191D01*
X45656115Y72570026D01*
X45746573Y72788411D01*
X45792711Y72857461D01*
X45877899Y72984955D01*
X46045045Y73152101D01*
X46241587Y73283426D01*
X46241589Y73283427D01*
X46459974Y73373885D01*
X46691809Y73420000D01*
X46928191Y73420000D01*
X47160026Y73373885D01*
X47160026Y73373885D01*
G37*
G36*
X162160026Y73373885D02*
G01*
X162378411Y73283427D01*
X162378413Y73283426D01*
X162574955Y73152101D01*
X162742101Y72984955D01*
X162827290Y72857461D01*
X162873427Y72788411D01*
X162963885Y72570026D01*
X163010000Y72338191D01*
X163010000Y72101809D01*
X162963885Y71869974D01*
X162873427Y71651589D01*
X162873426Y71651587D01*
X162742101Y71455045D01*
X162574955Y71287899D01*
X162378413Y71156574D01*
X162378412Y71156573D01*
X162378411Y71156573D01*
X162160026Y71066115D01*
X161928191Y71020000D01*
X161691809Y71020000D01*
X161459974Y71066115D01*
X161241589Y71156573D01*
X161241588Y71156573D01*
X161241587Y71156574D01*
X161045045Y71287899D01*
X160877899Y71455045D01*
X160746574Y71651587D01*
X160746573Y71651589D01*
X160656115Y71869974D01*
X160610000Y72101809D01*
X160610000Y72338191D01*
X160656115Y72570026D01*
X160746573Y72788411D01*
X160792711Y72857461D01*
X160877899Y72984955D01*
X161045045Y73152101D01*
X161241587Y73283426D01*
X161241589Y73283427D01*
X161459974Y73373885D01*
X161691809Y73420000D01*
X161928191Y73420000D01*
X162160026Y73373885D01*
X162160026Y73373885D01*
G37*
G36*
X139160026Y73373885D02*
G01*
X139378411Y73283427D01*
X139378413Y73283426D01*
X139574955Y73152101D01*
X139742101Y72984955D01*
X139827290Y72857461D01*
X139873427Y72788411D01*
X139963885Y72570026D01*
X140010000Y72338191D01*
X140010000Y72101809D01*
X139963885Y71869974D01*
X139873427Y71651589D01*
X139873426Y71651587D01*
X139742101Y71455045D01*
X139574955Y71287899D01*
X139378413Y71156574D01*
X139378412Y71156573D01*
X139378411Y71156573D01*
X139160026Y71066115D01*
X138928191Y71020000D01*
X138691809Y71020000D01*
X138459974Y71066115D01*
X138241589Y71156573D01*
X138241588Y71156573D01*
X138241587Y71156574D01*
X138045045Y71287899D01*
X137877899Y71455045D01*
X137746574Y71651587D01*
X137746573Y71651589D01*
X137656115Y71869974D01*
X137610000Y72101809D01*
X137610000Y72338191D01*
X137656115Y72570026D01*
X137746573Y72788411D01*
X137792711Y72857461D01*
X137877899Y72984955D01*
X138045045Y73152101D01*
X138241587Y73283426D01*
X138241589Y73283427D01*
X138459974Y73373885D01*
X138691809Y73420000D01*
X138928191Y73420000D01*
X139160026Y73373885D01*
X139160026Y73373885D01*
G37*
G36*
X116160026Y73373885D02*
G01*
X116378411Y73283427D01*
X116378413Y73283426D01*
X116574955Y73152101D01*
X116742101Y72984955D01*
X116827290Y72857461D01*
X116873427Y72788411D01*
X116963885Y72570026D01*
X117010000Y72338191D01*
X117010000Y72101809D01*
X116963885Y71869974D01*
X116873427Y71651589D01*
X116873426Y71651587D01*
X116742101Y71455045D01*
X116574955Y71287899D01*
X116378413Y71156574D01*
X116378412Y71156573D01*
X116378411Y71156573D01*
X116160026Y71066115D01*
X115928191Y71020000D01*
X115691809Y71020000D01*
X115459974Y71066115D01*
X115241589Y71156573D01*
X115241588Y71156573D01*
X115241587Y71156574D01*
X115045045Y71287899D01*
X114877899Y71455045D01*
X114746574Y71651587D01*
X114746573Y71651589D01*
X114656115Y71869974D01*
X114610000Y72101809D01*
X114610000Y72338191D01*
X114656115Y72570026D01*
X114746573Y72788411D01*
X114792711Y72857461D01*
X114877899Y72984955D01*
X115045045Y73152101D01*
X115241587Y73283426D01*
X115241589Y73283427D01*
X115459974Y73373885D01*
X115691809Y73420000D01*
X115928191Y73420000D01*
X116160026Y73373885D01*
X116160026Y73373885D01*
G37*
G36*
X70160026Y73373885D02*
G01*
X70378411Y73283427D01*
X70378413Y73283426D01*
X70574955Y73152101D01*
X70742101Y72984955D01*
X70827290Y72857461D01*
X70873427Y72788411D01*
X70963885Y72570026D01*
X71010000Y72338191D01*
X71010000Y72101809D01*
X70963885Y71869974D01*
X70873427Y71651589D01*
X70873426Y71651587D01*
X70742101Y71455045D01*
X70574955Y71287899D01*
X70378413Y71156574D01*
X70378412Y71156573D01*
X70378411Y71156573D01*
X70160026Y71066115D01*
X69928191Y71020000D01*
X69691809Y71020000D01*
X69459974Y71066115D01*
X69241589Y71156573D01*
X69241588Y71156573D01*
X69241587Y71156574D01*
X69045045Y71287899D01*
X68877899Y71455045D01*
X68746574Y71651587D01*
X68746573Y71651589D01*
X68656115Y71869974D01*
X68610000Y72101809D01*
X68610000Y72338191D01*
X68656115Y72570026D01*
X68746573Y72788411D01*
X68792711Y72857461D01*
X68877899Y72984955D01*
X69045045Y73152101D01*
X69241587Y73283426D01*
X69241589Y73283427D01*
X69459974Y73373885D01*
X69691809Y73420000D01*
X69928191Y73420000D01*
X70160026Y73373885D01*
X70160026Y73373885D01*
G37*
G36*
X89227290Y73194381D02*
G01*
X89291689Y73181571D01*
X89473678Y73106189D01*
X89637463Y72996751D01*
X89776751Y72857463D01*
X89886189Y72693678D01*
X89937407Y72570026D01*
X89961571Y72511688D01*
X90000000Y72318493D01*
X90000000Y72121507D01*
X89974381Y71992710D01*
X89961571Y71928311D01*
X89886189Y71746322D01*
X89776751Y71582537D01*
X89637463Y71443249D01*
X89473678Y71333811D01*
X89291689Y71258429D01*
X89227290Y71245619D01*
X89098493Y71220000D01*
X88901507Y71220000D01*
X88772710Y71245619D01*
X88708311Y71258429D01*
X88526322Y71333811D01*
X88362537Y71443249D01*
X88223249Y71582537D01*
X88113811Y71746322D01*
X88038429Y71928311D01*
X88025619Y71992710D01*
X88000000Y72121507D01*
X88000000Y72318493D01*
X88038429Y72511688D01*
X88062593Y72570026D01*
X88113811Y72693678D01*
X88223249Y72857463D01*
X88362537Y72996751D01*
X88526322Y73106189D01*
X88708311Y73181571D01*
X88772710Y73194381D01*
X88901507Y73220000D01*
X89098493Y73220000D01*
X89227290Y73194381D01*
X89227290Y73194381D01*
G37*
G36*
X158227290Y73194381D02*
G01*
X158291689Y73181571D01*
X158473678Y73106189D01*
X158637463Y72996751D01*
X158776751Y72857463D01*
X158886189Y72693678D01*
X158937407Y72570026D01*
X158961571Y72511688D01*
X159000000Y72318493D01*
X159000000Y72121507D01*
X158974381Y71992710D01*
X158961571Y71928311D01*
X158886189Y71746322D01*
X158776751Y71582537D01*
X158637463Y71443249D01*
X158473678Y71333811D01*
X158291689Y71258429D01*
X158227290Y71245619D01*
X158098493Y71220000D01*
X157901507Y71220000D01*
X157772710Y71245619D01*
X157708311Y71258429D01*
X157526322Y71333811D01*
X157362537Y71443249D01*
X157223249Y71582537D01*
X157113811Y71746322D01*
X157038429Y71928311D01*
X157025619Y71992710D01*
X157000000Y72121507D01*
X157000000Y72318493D01*
X157038429Y72511688D01*
X157062593Y72570026D01*
X157113811Y72693678D01*
X157223249Y72857463D01*
X157362537Y72996751D01*
X157526322Y73106189D01*
X157708311Y73181571D01*
X157772710Y73194381D01*
X157901507Y73220000D01*
X158098493Y73220000D01*
X158227290Y73194381D01*
X158227290Y73194381D01*
G37*
G36*
X181227290Y73194381D02*
G01*
X181291689Y73181571D01*
X181473678Y73106189D01*
X181637463Y72996751D01*
X181776751Y72857463D01*
X181886189Y72693678D01*
X181937407Y72570026D01*
X181961571Y72511688D01*
X182000000Y72318493D01*
X182000000Y72121507D01*
X181974381Y71992710D01*
X181961571Y71928311D01*
X181886189Y71746322D01*
X181776751Y71582537D01*
X181637463Y71443249D01*
X181473678Y71333811D01*
X181291689Y71258429D01*
X181227290Y71245619D01*
X181098493Y71220000D01*
X180901507Y71220000D01*
X180772710Y71245619D01*
X180708311Y71258429D01*
X180526322Y71333811D01*
X180362537Y71443249D01*
X180223249Y71582537D01*
X180113811Y71746322D01*
X180038429Y71928311D01*
X180025619Y71992710D01*
X180000000Y72121507D01*
X180000000Y72318493D01*
X180038429Y72511688D01*
X180062593Y72570026D01*
X180113811Y72693678D01*
X180223249Y72857463D01*
X180362537Y72996751D01*
X180526322Y73106189D01*
X180708311Y73181571D01*
X180772710Y73194381D01*
X180901507Y73220000D01*
X181098493Y73220000D01*
X181227290Y73194381D01*
X181227290Y73194381D01*
G37*
G36*
X20227290Y73194381D02*
G01*
X20291689Y73181571D01*
X20473678Y73106189D01*
X20637463Y72996751D01*
X20776751Y72857463D01*
X20886189Y72693678D01*
X20937407Y72570026D01*
X20961571Y72511688D01*
X21000000Y72318493D01*
X21000000Y72121507D01*
X20974381Y71992710D01*
X20961571Y71928311D01*
X20886189Y71746322D01*
X20776751Y71582537D01*
X20637463Y71443249D01*
X20473678Y71333811D01*
X20291689Y71258429D01*
X20227290Y71245619D01*
X20098493Y71220000D01*
X19901507Y71220000D01*
X19772710Y71245619D01*
X19708311Y71258429D01*
X19526322Y71333811D01*
X19362537Y71443249D01*
X19223249Y71582537D01*
X19113811Y71746322D01*
X19038429Y71928311D01*
X19025619Y71992710D01*
X19000000Y72121507D01*
X19000000Y72318493D01*
X19038429Y72511688D01*
X19062593Y72570026D01*
X19113811Y72693678D01*
X19223249Y72857463D01*
X19362537Y72996751D01*
X19526322Y73106189D01*
X19708311Y73181571D01*
X19772710Y73194381D01*
X19901507Y73220000D01*
X20098493Y73220000D01*
X20227290Y73194381D01*
X20227290Y73194381D01*
G37*
G36*
X135227290Y73194381D02*
G01*
X135291689Y73181571D01*
X135473678Y73106189D01*
X135637463Y72996751D01*
X135776751Y72857463D01*
X135886189Y72693678D01*
X135937407Y72570026D01*
X135961571Y72511688D01*
X136000000Y72318493D01*
X136000000Y72121507D01*
X135974381Y71992710D01*
X135961571Y71928311D01*
X135886189Y71746322D01*
X135776751Y71582537D01*
X135637463Y71443249D01*
X135473678Y71333811D01*
X135291689Y71258429D01*
X135227290Y71245619D01*
X135098493Y71220000D01*
X134901507Y71220000D01*
X134772710Y71245619D01*
X134708311Y71258429D01*
X134526322Y71333811D01*
X134362537Y71443249D01*
X134223249Y71582537D01*
X134113811Y71746322D01*
X134038429Y71928311D01*
X134025619Y71992710D01*
X134000000Y72121507D01*
X134000000Y72318493D01*
X134038429Y72511688D01*
X134062593Y72570026D01*
X134113811Y72693678D01*
X134223249Y72857463D01*
X134362537Y72996751D01*
X134526322Y73106189D01*
X134708311Y73181571D01*
X134772710Y73194381D01*
X134901507Y73220000D01*
X135098493Y73220000D01*
X135227290Y73194381D01*
X135227290Y73194381D01*
G37*
G36*
X43227290Y73194381D02*
G01*
X43291689Y73181571D01*
X43473678Y73106189D01*
X43637463Y72996751D01*
X43776751Y72857463D01*
X43886189Y72693678D01*
X43937407Y72570026D01*
X43961571Y72511688D01*
X44000000Y72318493D01*
X44000000Y72121507D01*
X43974381Y71992710D01*
X43961571Y71928311D01*
X43886189Y71746322D01*
X43776751Y71582537D01*
X43637463Y71443249D01*
X43473678Y71333811D01*
X43291689Y71258429D01*
X43227290Y71245619D01*
X43098493Y71220000D01*
X42901507Y71220000D01*
X42772710Y71245619D01*
X42708311Y71258429D01*
X42526322Y71333811D01*
X42362537Y71443249D01*
X42223249Y71582537D01*
X42113811Y71746322D01*
X42038429Y71928311D01*
X42025619Y71992710D01*
X42000000Y72121507D01*
X42000000Y72318493D01*
X42038429Y72511688D01*
X42062593Y72570026D01*
X42113811Y72693678D01*
X42223249Y72857463D01*
X42362537Y72996751D01*
X42526322Y73106189D01*
X42708311Y73181571D01*
X42772710Y73194381D01*
X42901507Y73220000D01*
X43098493Y73220000D01*
X43227290Y73194381D01*
X43227290Y73194381D01*
G37*
G36*
X66227290Y73194381D02*
G01*
X66291689Y73181571D01*
X66473678Y73106189D01*
X66637463Y72996751D01*
X66776751Y72857463D01*
X66886189Y72693678D01*
X66937407Y72570026D01*
X66961571Y72511688D01*
X67000000Y72318493D01*
X67000000Y72121507D01*
X66974381Y71992710D01*
X66961571Y71928311D01*
X66886189Y71746322D01*
X66776751Y71582537D01*
X66637463Y71443249D01*
X66473678Y71333811D01*
X66291689Y71258429D01*
X66227290Y71245619D01*
X66098493Y71220000D01*
X65901507Y71220000D01*
X65772710Y71245619D01*
X65708311Y71258429D01*
X65526322Y71333811D01*
X65362537Y71443249D01*
X65223249Y71582537D01*
X65113811Y71746322D01*
X65038429Y71928311D01*
X65025619Y71992710D01*
X65000000Y72121507D01*
X65000000Y72318493D01*
X65038429Y72511688D01*
X65062593Y72570026D01*
X65113811Y72693678D01*
X65223249Y72857463D01*
X65362537Y72996751D01*
X65526322Y73106189D01*
X65708311Y73181571D01*
X65772710Y73194381D01*
X65901507Y73220000D01*
X66098493Y73220000D01*
X66227290Y73194381D01*
X66227290Y73194381D01*
G37*
G36*
X112227290Y73194381D02*
G01*
X112291689Y73181571D01*
X112473678Y73106189D01*
X112637463Y72996751D01*
X112776751Y72857463D01*
X112886189Y72693678D01*
X112937407Y72570026D01*
X112961571Y72511688D01*
X113000000Y72318493D01*
X113000000Y72121507D01*
X112974381Y71992710D01*
X112961571Y71928311D01*
X112886189Y71746322D01*
X112776751Y71582537D01*
X112637463Y71443249D01*
X112473678Y71333811D01*
X112291689Y71258429D01*
X112227290Y71245619D01*
X112098493Y71220000D01*
X111901507Y71220000D01*
X111772710Y71245619D01*
X111708311Y71258429D01*
X111526322Y71333811D01*
X111362537Y71443249D01*
X111223249Y71582537D01*
X111113811Y71746322D01*
X111038429Y71928311D01*
X111025619Y71992710D01*
X111000000Y72121507D01*
X111000000Y72318493D01*
X111038429Y72511688D01*
X111062593Y72570026D01*
X111113811Y72693678D01*
X111223249Y72857463D01*
X111362537Y72996751D01*
X111526322Y73106189D01*
X111708311Y73181571D01*
X111772710Y73194381D01*
X111901507Y73220000D01*
X112098493Y73220000D01*
X112227290Y73194381D01*
X112227290Y73194381D01*
G37*
G36*
X181227290Y78274381D02*
G01*
X181291689Y78261571D01*
X181473678Y78186189D01*
X181637463Y78076751D01*
X181776751Y77937463D01*
X181886189Y77773678D01*
X181961571Y77591689D01*
X182000000Y77398491D01*
X182000000Y77201509D01*
X181961571Y77008311D01*
X181886189Y76826322D01*
X181776751Y76662537D01*
X181637463Y76523249D01*
X181473678Y76413811D01*
X181291689Y76338429D01*
X181227290Y76325619D01*
X181098493Y76300000D01*
X180901507Y76300000D01*
X180772710Y76325619D01*
X180708311Y76338429D01*
X180526322Y76413811D01*
X180362537Y76523249D01*
X180223249Y76662537D01*
X180113811Y76826322D01*
X180038429Y77008311D01*
X180000000Y77201509D01*
X180000000Y77398491D01*
X180038429Y77591689D01*
X180113811Y77773678D01*
X180223249Y77937463D01*
X180362537Y78076751D01*
X180526322Y78186189D01*
X180708311Y78261571D01*
X180772710Y78274381D01*
X180901507Y78300000D01*
X181098493Y78300000D01*
X181227290Y78274381D01*
X181227290Y78274381D01*
G37*
G36*
X43227290Y78274381D02*
G01*
X43291689Y78261571D01*
X43473678Y78186189D01*
X43637463Y78076751D01*
X43776751Y77937463D01*
X43886189Y77773678D01*
X43961571Y77591689D01*
X44000000Y77398491D01*
X44000000Y77201509D01*
X43961571Y77008311D01*
X43886189Y76826322D01*
X43776751Y76662537D01*
X43637463Y76523249D01*
X43473678Y76413811D01*
X43291689Y76338429D01*
X43227290Y76325619D01*
X43098493Y76300000D01*
X42901507Y76300000D01*
X42772710Y76325619D01*
X42708311Y76338429D01*
X42526322Y76413811D01*
X42362537Y76523249D01*
X42223249Y76662537D01*
X42113811Y76826322D01*
X42038429Y77008311D01*
X42000000Y77201509D01*
X42000000Y77398491D01*
X42038429Y77591689D01*
X42113811Y77773678D01*
X42223249Y77937463D01*
X42362537Y78076751D01*
X42526322Y78186189D01*
X42708311Y78261571D01*
X42772710Y78274381D01*
X42901507Y78300000D01*
X43098493Y78300000D01*
X43227290Y78274381D01*
X43227290Y78274381D01*
G37*
G36*
X112227290Y78274381D02*
G01*
X112291689Y78261571D01*
X112473678Y78186189D01*
X112637463Y78076751D01*
X112776751Y77937463D01*
X112886189Y77773678D01*
X112961571Y77591689D01*
X113000000Y77398491D01*
X113000000Y77201509D01*
X112961571Y77008311D01*
X112886189Y76826322D01*
X112776751Y76662537D01*
X112637463Y76523249D01*
X112473678Y76413811D01*
X112291689Y76338429D01*
X112227290Y76325619D01*
X112098493Y76300000D01*
X111901507Y76300000D01*
X111772710Y76325619D01*
X111708311Y76338429D01*
X111526322Y76413811D01*
X111362537Y76523249D01*
X111223249Y76662537D01*
X111113811Y76826322D01*
X111038429Y77008311D01*
X111000000Y77201509D01*
X111000000Y77398491D01*
X111038429Y77591689D01*
X111113811Y77773678D01*
X111223249Y77937463D01*
X111362537Y78076751D01*
X111526322Y78186189D01*
X111708311Y78261571D01*
X111772710Y78274381D01*
X111901507Y78300000D01*
X112098493Y78300000D01*
X112227290Y78274381D01*
X112227290Y78274381D01*
G37*
G36*
X66227290Y78274381D02*
G01*
X66291689Y78261571D01*
X66473678Y78186189D01*
X66637463Y78076751D01*
X66776751Y77937463D01*
X66886189Y77773678D01*
X66961571Y77591689D01*
X67000000Y77398491D01*
X67000000Y77201509D01*
X66961571Y77008311D01*
X66886189Y76826322D01*
X66776751Y76662537D01*
X66637463Y76523249D01*
X66473678Y76413811D01*
X66291689Y76338429D01*
X66227290Y76325619D01*
X66098493Y76300000D01*
X65901507Y76300000D01*
X65772710Y76325619D01*
X65708311Y76338429D01*
X65526322Y76413811D01*
X65362537Y76523249D01*
X65223249Y76662537D01*
X65113811Y76826322D01*
X65038429Y77008311D01*
X65000000Y77201509D01*
X65000000Y77398491D01*
X65038429Y77591689D01*
X65113811Y77773678D01*
X65223249Y77937463D01*
X65362537Y78076751D01*
X65526322Y78186189D01*
X65708311Y78261571D01*
X65772710Y78274381D01*
X65901507Y78300000D01*
X66098493Y78300000D01*
X66227290Y78274381D01*
X66227290Y78274381D01*
G37*
G36*
X135227290Y78274381D02*
G01*
X135291689Y78261571D01*
X135473678Y78186189D01*
X135637463Y78076751D01*
X135776751Y77937463D01*
X135886189Y77773678D01*
X135961571Y77591689D01*
X136000000Y77398491D01*
X136000000Y77201509D01*
X135961571Y77008311D01*
X135886189Y76826322D01*
X135776751Y76662537D01*
X135637463Y76523249D01*
X135473678Y76413811D01*
X135291689Y76338429D01*
X135227290Y76325619D01*
X135098493Y76300000D01*
X134901507Y76300000D01*
X134772710Y76325619D01*
X134708311Y76338429D01*
X134526322Y76413811D01*
X134362537Y76523249D01*
X134223249Y76662537D01*
X134113811Y76826322D01*
X134038429Y77008311D01*
X134000000Y77201509D01*
X134000000Y77398491D01*
X134038429Y77591689D01*
X134113811Y77773678D01*
X134223249Y77937463D01*
X134362537Y78076751D01*
X134526322Y78186189D01*
X134708311Y78261571D01*
X134772710Y78274381D01*
X134901507Y78300000D01*
X135098493Y78300000D01*
X135227290Y78274381D01*
X135227290Y78274381D01*
G37*
G36*
X89227290Y78274381D02*
G01*
X89291689Y78261571D01*
X89473678Y78186189D01*
X89637463Y78076751D01*
X89776751Y77937463D01*
X89886189Y77773678D01*
X89961571Y77591689D01*
X90000000Y77398491D01*
X90000000Y77201509D01*
X89961571Y77008311D01*
X89886189Y76826322D01*
X89776751Y76662537D01*
X89637463Y76523249D01*
X89473678Y76413811D01*
X89291689Y76338429D01*
X89227290Y76325619D01*
X89098493Y76300000D01*
X88901507Y76300000D01*
X88772710Y76325619D01*
X88708311Y76338429D01*
X88526322Y76413811D01*
X88362537Y76523249D01*
X88223249Y76662537D01*
X88113811Y76826322D01*
X88038429Y77008311D01*
X88000000Y77201509D01*
X88000000Y77398491D01*
X88038429Y77591689D01*
X88113811Y77773678D01*
X88223249Y77937463D01*
X88362537Y78076751D01*
X88526322Y78186189D01*
X88708311Y78261571D01*
X88772710Y78274381D01*
X88901507Y78300000D01*
X89098493Y78300000D01*
X89227290Y78274381D01*
X89227290Y78274381D01*
G37*
G36*
X20227290Y78274381D02*
G01*
X20291689Y78261571D01*
X20473678Y78186189D01*
X20637463Y78076751D01*
X20776751Y77937463D01*
X20886189Y77773678D01*
X20961571Y77591689D01*
X21000000Y77398491D01*
X21000000Y77201509D01*
X20961571Y77008311D01*
X20886189Y76826322D01*
X20776751Y76662537D01*
X20637463Y76523249D01*
X20473678Y76413811D01*
X20291689Y76338429D01*
X20227290Y76325619D01*
X20098493Y76300000D01*
X19901507Y76300000D01*
X19772710Y76325619D01*
X19708311Y76338429D01*
X19526322Y76413811D01*
X19362537Y76523249D01*
X19223249Y76662537D01*
X19113811Y76826322D01*
X19038429Y77008311D01*
X19000000Y77201509D01*
X19000000Y77398491D01*
X19038429Y77591689D01*
X19113811Y77773678D01*
X19223249Y77937463D01*
X19362537Y78076751D01*
X19526322Y78186189D01*
X19708311Y78261571D01*
X19772710Y78274381D01*
X19901507Y78300000D01*
X20098493Y78300000D01*
X20227290Y78274381D01*
X20227290Y78274381D01*
G37*
G36*
X158227290Y78274381D02*
G01*
X158291689Y78261571D01*
X158473678Y78186189D01*
X158637463Y78076751D01*
X158776751Y77937463D01*
X158886189Y77773678D01*
X158961571Y77591689D01*
X159000000Y77398491D01*
X159000000Y77201509D01*
X158961571Y77008311D01*
X158886189Y76826322D01*
X158776751Y76662537D01*
X158637463Y76523249D01*
X158473678Y76413811D01*
X158291689Y76338429D01*
X158227290Y76325619D01*
X158098493Y76300000D01*
X157901507Y76300000D01*
X157772710Y76325619D01*
X157708311Y76338429D01*
X157526322Y76413811D01*
X157362537Y76523249D01*
X157223249Y76662537D01*
X157113811Y76826322D01*
X157038429Y77008311D01*
X157000000Y77201509D01*
X157000000Y77398491D01*
X157038429Y77591689D01*
X157113811Y77773678D01*
X157223249Y77937463D01*
X157362537Y78076751D01*
X157526322Y78186189D01*
X157708311Y78261571D01*
X157772710Y78274381D01*
X157901507Y78300000D01*
X158098493Y78300000D01*
X158227290Y78274381D01*
X158227290Y78274381D01*
G37*
G36*
X47160026Y82263885D02*
G01*
X47378411Y82173427D01*
X47378413Y82173426D01*
X47574955Y82042101D01*
X47742101Y81874955D01*
X47873427Y81678411D01*
X47963885Y81460026D01*
X48010000Y81228191D01*
X48010000Y80991809D01*
X47963885Y80759974D01*
X47873427Y80541589D01*
X47873426Y80541587D01*
X47742101Y80345045D01*
X47574955Y80177899D01*
X47378413Y80046574D01*
X47378412Y80046573D01*
X47378411Y80046573D01*
X47160026Y79956115D01*
X46928191Y79910000D01*
X46691809Y79910000D01*
X46459974Y79956115D01*
X46241589Y80046573D01*
X46241588Y80046573D01*
X46241587Y80046574D01*
X46045045Y80177899D01*
X45877899Y80345045D01*
X45746574Y80541587D01*
X45746573Y80541589D01*
X45656115Y80759974D01*
X45610000Y80991809D01*
X45610000Y81228191D01*
X45656115Y81460026D01*
X45746573Y81678411D01*
X45877899Y81874955D01*
X46045045Y82042101D01*
X46241587Y82173426D01*
X46241589Y82173427D01*
X46459974Y82263885D01*
X46691809Y82310000D01*
X46928191Y82310000D01*
X47160026Y82263885D01*
X47160026Y82263885D01*
G37*
G36*
X70160026Y82263885D02*
G01*
X70378411Y82173427D01*
X70378413Y82173426D01*
X70574955Y82042101D01*
X70742101Y81874955D01*
X70873427Y81678411D01*
X70963885Y81460026D01*
X71010000Y81228191D01*
X71010000Y80991809D01*
X70963885Y80759974D01*
X70873427Y80541589D01*
X70873426Y80541587D01*
X70742101Y80345045D01*
X70574955Y80177899D01*
X70378413Y80046574D01*
X70378412Y80046573D01*
X70378411Y80046573D01*
X70160026Y79956115D01*
X69928191Y79910000D01*
X69691809Y79910000D01*
X69459974Y79956115D01*
X69241589Y80046573D01*
X69241588Y80046573D01*
X69241587Y80046574D01*
X69045045Y80177899D01*
X68877899Y80345045D01*
X68746574Y80541587D01*
X68746573Y80541589D01*
X68656115Y80759974D01*
X68610000Y80991809D01*
X68610000Y81228191D01*
X68656115Y81460026D01*
X68746573Y81678411D01*
X68877899Y81874955D01*
X69045045Y82042101D01*
X69241587Y82173426D01*
X69241589Y82173427D01*
X69459974Y82263885D01*
X69691809Y82310000D01*
X69928191Y82310000D01*
X70160026Y82263885D01*
X70160026Y82263885D01*
G37*
G36*
X93160026Y82263885D02*
G01*
X93378411Y82173427D01*
X93378413Y82173426D01*
X93574955Y82042101D01*
X93742101Y81874955D01*
X93873427Y81678411D01*
X93963885Y81460026D01*
X94010000Y81228191D01*
X94010000Y80991809D01*
X93963885Y80759974D01*
X93873427Y80541589D01*
X93873426Y80541587D01*
X93742101Y80345045D01*
X93574955Y80177899D01*
X93378413Y80046574D01*
X93378412Y80046573D01*
X93378411Y80046573D01*
X93160026Y79956115D01*
X92928191Y79910000D01*
X92691809Y79910000D01*
X92459974Y79956115D01*
X92241589Y80046573D01*
X92241588Y80046573D01*
X92241587Y80046574D01*
X92045045Y80177899D01*
X91877899Y80345045D01*
X91746574Y80541587D01*
X91746573Y80541589D01*
X91656115Y80759974D01*
X91610000Y80991809D01*
X91610000Y81228191D01*
X91656115Y81460026D01*
X91746573Y81678411D01*
X91877899Y81874955D01*
X92045045Y82042101D01*
X92241587Y82173426D01*
X92241589Y82173427D01*
X92459974Y82263885D01*
X92691809Y82310000D01*
X92928191Y82310000D01*
X93160026Y82263885D01*
X93160026Y82263885D01*
G37*
G36*
X116160026Y82263885D02*
G01*
X116378411Y82173427D01*
X116378413Y82173426D01*
X116574955Y82042101D01*
X116742101Y81874955D01*
X116873427Y81678411D01*
X116963885Y81460026D01*
X117010000Y81228191D01*
X117010000Y80991809D01*
X116963885Y80759974D01*
X116873427Y80541589D01*
X116873426Y80541587D01*
X116742101Y80345045D01*
X116574955Y80177899D01*
X116378413Y80046574D01*
X116378412Y80046573D01*
X116378411Y80046573D01*
X116160026Y79956115D01*
X115928191Y79910000D01*
X115691809Y79910000D01*
X115459974Y79956115D01*
X115241589Y80046573D01*
X115241588Y80046573D01*
X115241587Y80046574D01*
X115045045Y80177899D01*
X114877899Y80345045D01*
X114746574Y80541587D01*
X114746573Y80541589D01*
X114656115Y80759974D01*
X114610000Y80991809D01*
X114610000Y81228191D01*
X114656115Y81460026D01*
X114746573Y81678411D01*
X114877899Y81874955D01*
X115045045Y82042101D01*
X115241587Y82173426D01*
X115241589Y82173427D01*
X115459974Y82263885D01*
X115691809Y82310000D01*
X115928191Y82310000D01*
X116160026Y82263885D01*
X116160026Y82263885D01*
G37*
G36*
X139160026Y82263885D02*
G01*
X139378411Y82173427D01*
X139378413Y82173426D01*
X139574955Y82042101D01*
X139742101Y81874955D01*
X139873427Y81678411D01*
X139963885Y81460026D01*
X140010000Y81228191D01*
X140010000Y80991809D01*
X139963885Y80759974D01*
X139873427Y80541589D01*
X139873426Y80541587D01*
X139742101Y80345045D01*
X139574955Y80177899D01*
X139378413Y80046574D01*
X139378412Y80046573D01*
X139378411Y80046573D01*
X139160026Y79956115D01*
X138928191Y79910000D01*
X138691809Y79910000D01*
X138459974Y79956115D01*
X138241589Y80046573D01*
X138241588Y80046573D01*
X138241587Y80046574D01*
X138045045Y80177899D01*
X137877899Y80345045D01*
X137746574Y80541587D01*
X137746573Y80541589D01*
X137656115Y80759974D01*
X137610000Y80991809D01*
X137610000Y81228191D01*
X137656115Y81460026D01*
X137746573Y81678411D01*
X137877899Y81874955D01*
X138045045Y82042101D01*
X138241587Y82173426D01*
X138241589Y82173427D01*
X138459974Y82263885D01*
X138691809Y82310000D01*
X138928191Y82310000D01*
X139160026Y82263885D01*
X139160026Y82263885D01*
G37*
G36*
X162160026Y82263885D02*
G01*
X162378411Y82173427D01*
X162378413Y82173426D01*
X162574955Y82042101D01*
X162742101Y81874955D01*
X162873427Y81678411D01*
X162963885Y81460026D01*
X163010000Y81228191D01*
X163010000Y80991809D01*
X162963885Y80759974D01*
X162873427Y80541589D01*
X162873426Y80541587D01*
X162742101Y80345045D01*
X162574955Y80177899D01*
X162378413Y80046574D01*
X162378412Y80046573D01*
X162378411Y80046573D01*
X162160026Y79956115D01*
X161928191Y79910000D01*
X161691809Y79910000D01*
X161459974Y79956115D01*
X161241589Y80046573D01*
X161241588Y80046573D01*
X161241587Y80046574D01*
X161045045Y80177899D01*
X160877899Y80345045D01*
X160746574Y80541587D01*
X160746573Y80541589D01*
X160656115Y80759974D01*
X160610000Y80991809D01*
X160610000Y81228191D01*
X160656115Y81460026D01*
X160746573Y81678411D01*
X160877899Y81874955D01*
X161045045Y82042101D01*
X161241587Y82173426D01*
X161241589Y82173427D01*
X161459974Y82263885D01*
X161691809Y82310000D01*
X161928191Y82310000D01*
X162160026Y82263885D01*
X162160026Y82263885D01*
G37*
G36*
X185160026Y82263885D02*
G01*
X185378411Y82173427D01*
X185378413Y82173426D01*
X185574955Y82042101D01*
X185742101Y81874955D01*
X185873427Y81678411D01*
X185963885Y81460026D01*
X186010000Y81228191D01*
X186010000Y80991809D01*
X185963885Y80759974D01*
X185873427Y80541589D01*
X185873426Y80541587D01*
X185742101Y80345045D01*
X185574955Y80177899D01*
X185378413Y80046574D01*
X185378412Y80046573D01*
X185378411Y80046573D01*
X185160026Y79956115D01*
X184928191Y79910000D01*
X184691809Y79910000D01*
X184459974Y79956115D01*
X184241589Y80046573D01*
X184241588Y80046573D01*
X184241587Y80046574D01*
X184045045Y80177899D01*
X183877899Y80345045D01*
X183746574Y80541587D01*
X183746573Y80541589D01*
X183656115Y80759974D01*
X183610000Y80991809D01*
X183610000Y81228191D01*
X183656115Y81460026D01*
X183746573Y81678411D01*
X183877899Y81874955D01*
X184045045Y82042101D01*
X184241587Y82173426D01*
X184241589Y82173427D01*
X184459974Y82263885D01*
X184691809Y82310000D01*
X184928191Y82310000D01*
X185160026Y82263885D01*
X185160026Y82263885D01*
G37*
G36*
X24160026Y82263885D02*
G01*
X24378411Y82173427D01*
X24378413Y82173426D01*
X24574955Y82042101D01*
X24742101Y81874955D01*
X24873427Y81678411D01*
X24963885Y81460026D01*
X25010000Y81228191D01*
X25010000Y80991809D01*
X24963885Y80759974D01*
X24873427Y80541589D01*
X24873426Y80541587D01*
X24742101Y80345045D01*
X24574955Y80177899D01*
X24378413Y80046574D01*
X24378412Y80046573D01*
X24378411Y80046573D01*
X24160026Y79956115D01*
X23928191Y79910000D01*
X23691809Y79910000D01*
X23459974Y79956115D01*
X23241589Y80046573D01*
X23241588Y80046573D01*
X23241587Y80046574D01*
X23045045Y80177899D01*
X22877899Y80345045D01*
X22746574Y80541587D01*
X22746573Y80541589D01*
X22656115Y80759974D01*
X22610000Y80991809D01*
X22610000Y81228191D01*
X22656115Y81460026D01*
X22746573Y81678411D01*
X22877899Y81874955D01*
X23045045Y82042101D01*
X23241587Y82173426D01*
X23241589Y82173427D01*
X23459974Y82263885D01*
X23691809Y82310000D01*
X23928191Y82310000D01*
X24160026Y82263885D01*
X24160026Y82263885D01*
G37*
G36*
X16540026Y87343885D02*
G01*
X16758411Y87253427D01*
X16758413Y87253426D01*
X16954955Y87122101D01*
X17122101Y86954955D01*
X17253427Y86758411D01*
X17343885Y86540026D01*
X17390000Y86308191D01*
X17390000Y86071809D01*
X17343885Y85839974D01*
X17253427Y85621589D01*
X17253426Y85621587D01*
X17122101Y85425045D01*
X16954955Y85257899D01*
X16758413Y85126574D01*
X16758412Y85126573D01*
X16758411Y85126573D01*
X16540026Y85036115D01*
X16308191Y84990000D01*
X16071809Y84990000D01*
X15839974Y85036115D01*
X15621589Y85126573D01*
X15621588Y85126573D01*
X15621587Y85126574D01*
X15425045Y85257899D01*
X15257899Y85425045D01*
X15126574Y85621587D01*
X15126573Y85621589D01*
X15036115Y85839974D01*
X14990000Y86071809D01*
X14990000Y86308191D01*
X15036115Y86540026D01*
X15126573Y86758411D01*
X15257899Y86954955D01*
X15425045Y87122101D01*
X15621587Y87253426D01*
X15621589Y87253427D01*
X15839974Y87343885D01*
X16071809Y87390000D01*
X16308191Y87390000D01*
X16540026Y87343885D01*
X16540026Y87343885D01*
G37*
G36*
X39540026Y87343885D02*
G01*
X39758411Y87253427D01*
X39758413Y87253426D01*
X39954955Y87122101D01*
X40122101Y86954955D01*
X40253427Y86758411D01*
X40343885Y86540026D01*
X40390000Y86308191D01*
X40390000Y86071809D01*
X40343885Y85839974D01*
X40253427Y85621589D01*
X40253426Y85621587D01*
X40122101Y85425045D01*
X39954955Y85257899D01*
X39758413Y85126574D01*
X39758412Y85126573D01*
X39758411Y85126573D01*
X39540026Y85036115D01*
X39308191Y84990000D01*
X39071809Y84990000D01*
X38839974Y85036115D01*
X38621589Y85126573D01*
X38621588Y85126573D01*
X38621587Y85126574D01*
X38425045Y85257899D01*
X38257899Y85425045D01*
X38126574Y85621587D01*
X38126573Y85621589D01*
X38036115Y85839974D01*
X37990000Y86071809D01*
X37990000Y86308191D01*
X38036115Y86540026D01*
X38126573Y86758411D01*
X38257899Y86954955D01*
X38425045Y87122101D01*
X38621587Y87253426D01*
X38621589Y87253427D01*
X38839974Y87343885D01*
X39071809Y87390000D01*
X39308191Y87390000D01*
X39540026Y87343885D01*
X39540026Y87343885D01*
G37*
G36*
X62540026Y87343885D02*
G01*
X62758411Y87253427D01*
X62758413Y87253426D01*
X62954955Y87122101D01*
X63122101Y86954955D01*
X63253427Y86758411D01*
X63343885Y86540026D01*
X63390000Y86308191D01*
X63390000Y86071809D01*
X63343885Y85839974D01*
X63253427Y85621589D01*
X63253426Y85621587D01*
X63122101Y85425045D01*
X62954955Y85257899D01*
X62758413Y85126574D01*
X62758412Y85126573D01*
X62758411Y85126573D01*
X62540026Y85036115D01*
X62308191Y84990000D01*
X62071809Y84990000D01*
X61839974Y85036115D01*
X61621589Y85126573D01*
X61621588Y85126573D01*
X61621587Y85126574D01*
X61425045Y85257899D01*
X61257899Y85425045D01*
X61126574Y85621587D01*
X61126573Y85621589D01*
X61036115Y85839974D01*
X60990000Y86071809D01*
X60990000Y86308191D01*
X61036115Y86540026D01*
X61126573Y86758411D01*
X61257899Y86954955D01*
X61425045Y87122101D01*
X61621587Y87253426D01*
X61621589Y87253427D01*
X61839974Y87343885D01*
X62071809Y87390000D01*
X62308191Y87390000D01*
X62540026Y87343885D01*
X62540026Y87343885D01*
G37*
G36*
X85540026Y87343885D02*
G01*
X85758411Y87253427D01*
X85758413Y87253426D01*
X85954955Y87122101D01*
X86122101Y86954955D01*
X86253427Y86758411D01*
X86343885Y86540026D01*
X86390000Y86308191D01*
X86390000Y86071809D01*
X86343885Y85839974D01*
X86253427Y85621589D01*
X86253426Y85621587D01*
X86122101Y85425045D01*
X85954955Y85257899D01*
X85758413Y85126574D01*
X85758412Y85126573D01*
X85758411Y85126573D01*
X85540026Y85036115D01*
X85308191Y84990000D01*
X85071809Y84990000D01*
X84839974Y85036115D01*
X84621589Y85126573D01*
X84621588Y85126573D01*
X84621587Y85126574D01*
X84425045Y85257899D01*
X84257899Y85425045D01*
X84126574Y85621587D01*
X84126573Y85621589D01*
X84036115Y85839974D01*
X83990000Y86071809D01*
X83990000Y86308191D01*
X84036115Y86540026D01*
X84126573Y86758411D01*
X84257899Y86954955D01*
X84425045Y87122101D01*
X84621587Y87253426D01*
X84621589Y87253427D01*
X84839974Y87343885D01*
X85071809Y87390000D01*
X85308191Y87390000D01*
X85540026Y87343885D01*
X85540026Y87343885D01*
G37*
G36*
X177540026Y87343885D02*
G01*
X177758411Y87253427D01*
X177758413Y87253426D01*
X177954955Y87122101D01*
X178122101Y86954955D01*
X178253427Y86758411D01*
X178343885Y86540026D01*
X178390000Y86308191D01*
X178390000Y86071809D01*
X178343885Y85839974D01*
X178253427Y85621589D01*
X178253426Y85621587D01*
X178122101Y85425045D01*
X177954955Y85257899D01*
X177758413Y85126574D01*
X177758412Y85126573D01*
X177758411Y85126573D01*
X177540026Y85036115D01*
X177308191Y84990000D01*
X177071809Y84990000D01*
X176839974Y85036115D01*
X176621589Y85126573D01*
X176621588Y85126573D01*
X176621587Y85126574D01*
X176425045Y85257899D01*
X176257899Y85425045D01*
X176126574Y85621587D01*
X176126573Y85621589D01*
X176036115Y85839974D01*
X175990000Y86071809D01*
X175990000Y86308191D01*
X176036115Y86540026D01*
X176126573Y86758411D01*
X176257899Y86954955D01*
X176425045Y87122101D01*
X176621587Y87253426D01*
X176621589Y87253427D01*
X176839974Y87343885D01*
X177071809Y87390000D01*
X177308191Y87390000D01*
X177540026Y87343885D01*
X177540026Y87343885D01*
G37*
G36*
X108540026Y87343885D02*
G01*
X108758411Y87253427D01*
X108758413Y87253426D01*
X108954955Y87122101D01*
X109122101Y86954955D01*
X109253427Y86758411D01*
X109343885Y86540026D01*
X109390000Y86308191D01*
X109390000Y86071809D01*
X109343885Y85839974D01*
X109253427Y85621589D01*
X109253426Y85621587D01*
X109122101Y85425045D01*
X108954955Y85257899D01*
X108758413Y85126574D01*
X108758412Y85126573D01*
X108758411Y85126573D01*
X108540026Y85036115D01*
X108308191Y84990000D01*
X108071809Y84990000D01*
X107839974Y85036115D01*
X107621589Y85126573D01*
X107621588Y85126573D01*
X107621587Y85126574D01*
X107425045Y85257899D01*
X107257899Y85425045D01*
X107126574Y85621587D01*
X107126573Y85621589D01*
X107036115Y85839974D01*
X106990000Y86071809D01*
X106990000Y86308191D01*
X107036115Y86540026D01*
X107126573Y86758411D01*
X107257899Y86954955D01*
X107425045Y87122101D01*
X107621587Y87253426D01*
X107621589Y87253427D01*
X107839974Y87343885D01*
X108071809Y87390000D01*
X108308191Y87390000D01*
X108540026Y87343885D01*
X108540026Y87343885D01*
G37*
G36*
X154540026Y87343885D02*
G01*
X154758411Y87253427D01*
X154758413Y87253426D01*
X154954955Y87122101D01*
X155122101Y86954955D01*
X155253427Y86758411D01*
X155343885Y86540026D01*
X155390000Y86308191D01*
X155390000Y86071809D01*
X155343885Y85839974D01*
X155253427Y85621589D01*
X155253426Y85621587D01*
X155122101Y85425045D01*
X154954955Y85257899D01*
X154758413Y85126574D01*
X154758412Y85126573D01*
X154758411Y85126573D01*
X154540026Y85036115D01*
X154308191Y84990000D01*
X154071809Y84990000D01*
X153839974Y85036115D01*
X153621589Y85126573D01*
X153621588Y85126573D01*
X153621587Y85126574D01*
X153425045Y85257899D01*
X153257899Y85425045D01*
X153126574Y85621587D01*
X153126573Y85621589D01*
X153036115Y85839974D01*
X152990000Y86071809D01*
X152990000Y86308191D01*
X153036115Y86540026D01*
X153126573Y86758411D01*
X153257899Y86954955D01*
X153425045Y87122101D01*
X153621587Y87253426D01*
X153621589Y87253427D01*
X153839974Y87343885D01*
X154071809Y87390000D01*
X154308191Y87390000D01*
X154540026Y87343885D01*
X154540026Y87343885D01*
G37*
G36*
X131540026Y87343885D02*
G01*
X131758411Y87253427D01*
X131758413Y87253426D01*
X131954955Y87122101D01*
X132122101Y86954955D01*
X132253427Y86758411D01*
X132343885Y86540026D01*
X132390000Y86308191D01*
X132390000Y86071809D01*
X132343885Y85839974D01*
X132253427Y85621589D01*
X132253426Y85621587D01*
X132122101Y85425045D01*
X131954955Y85257899D01*
X131758413Y85126574D01*
X131758412Y85126573D01*
X131758411Y85126573D01*
X131540026Y85036115D01*
X131308191Y84990000D01*
X131071809Y84990000D01*
X130839974Y85036115D01*
X130621589Y85126573D01*
X130621588Y85126573D01*
X130621587Y85126574D01*
X130425045Y85257899D01*
X130257899Y85425045D01*
X130126574Y85621587D01*
X130126573Y85621589D01*
X130036115Y85839974D01*
X129990000Y86071809D01*
X129990000Y86308191D01*
X130036115Y86540026D01*
X130126573Y86758411D01*
X130257899Y86954955D01*
X130425045Y87122101D01*
X130621587Y87253426D01*
X130621589Y87253427D01*
X130839974Y87343885D01*
X131071809Y87390000D01*
X131308191Y87390000D01*
X131540026Y87343885D01*
X131540026Y87343885D01*
G37*
M02*
