G04 #@! TF.GenerationSoftware,KiCad,Pcbnew,(5.1.0-0)*
G04 #@! TF.CreationDate,2019-11-06T10:25:11+01:00*
G04 #@! TF.ProjectId,AddOnD,4164644f-6e44-42e6-9b69-6361645f7063,rev?*
G04 #@! TF.SameCoordinates,Original*
G04 #@! TF.FileFunction,Paste,Bot*
G04 #@! TF.FilePolarity,Positive*
%FSLAX46Y46*%
G04 Gerber Fmt 4.6, Leading zero omitted, Abs format (unit mm)*
G04 Created by KiCad (PCBNEW (5.1.0-0)) date 2019-11-06 10:25:11*
%MOMM*%
%LPD*%
G04 APERTURE LIST*
%ADD10C,0.150000*%
%ADD11R,1.000000X1.300000*%
%ADD12R,1.300000X1.000000*%
G04 APERTURE END LIST*
D10*
X7500000Y45000000D02*
X7500000Y90000000D01*
X193500000Y45000000D02*
X7500000Y45000000D01*
X193500000Y90000000D02*
X193500000Y45000000D01*
X7500000Y90000000D02*
X193500000Y90000000D01*
D11*
X14400000Y70000000D03*
X16200000Y70000000D03*
X20000000Y70000000D03*
X18200000Y70000000D03*
X37400000Y70000000D03*
X39200000Y70000000D03*
X43000000Y70000000D03*
X41200000Y70000000D03*
D12*
X62200000Y68400000D03*
X62200000Y70200000D03*
X66000000Y70200000D03*
X66000000Y68400000D03*
X85200000Y68400000D03*
X85200000Y70200000D03*
X89000000Y70200000D03*
X89000000Y68400000D03*
X108200000Y68400000D03*
X108200000Y70200000D03*
X112000000Y70200000D03*
X112000000Y68400000D03*
X131200000Y68400000D03*
X131200000Y70200000D03*
X135000000Y70200000D03*
X135000000Y68400000D03*
X154200000Y68400000D03*
X154200000Y70200000D03*
X158000000Y70200000D03*
X158000000Y68400000D03*
X177200000Y68400000D03*
X177200000Y70200000D03*
X181000000Y70200000D03*
X181000000Y68400000D03*
M02*
