M48
; DRILL file {KiCad (5.1.0-0)} date 2019 November 06, Wednesday 10:17:43
; FORMAT={-:-/ absolute / metric / decimal}
; #@! TF.CreationDate,2019-11-06T10:17:43+01:00
; #@! TF.GenerationSoftware,Kicad,Pcbnew,(5.1.0-0)
FMAT,2
METRIC
T1C1.016
T2C1.200
T3C1.600
%
G90
G05
T1
X12.52Y50.9
X12.52Y48.36
X15.06Y50.9
X15.06Y48.36
X17.6Y50.9
X17.6Y48.36
X20.14Y50.9
X20.14Y48.36
X22.68Y50.9
X22.68Y48.36
X25.22Y50.9
X25.22Y48.36
X27.76Y50.9
X27.76Y48.36
X30.3Y50.9
X30.3Y48.36
X32.84Y50.9
X32.84Y48.36
X35.38Y50.9
X35.38Y48.36
X37.92Y50.9
X37.92Y48.36
X40.46Y50.9
X40.46Y48.36
X43.0Y50.9
X43.0Y48.36
T2
X135.0Y77.3
X135.0Y72.22
X158.0Y77.3
X158.0Y72.22
X20.0Y77.3
X89.0Y72.22
X20.0Y72.22
X112.0Y77.3
X112.0Y72.22
X181.0Y77.3
X181.0Y72.22
X66.0Y77.3
X66.0Y72.22
X43.0Y77.3
X43.0Y72.22
X89.0Y77.3
T3
X39.19Y86.19
X39.19Y72.22
X46.81Y81.11
X46.81Y72.22
X85.19Y86.19
X85.19Y72.22
X92.81Y81.11
X92.81Y72.22
X131.19Y86.19
X108.19Y86.19
X62.19Y72.22
X69.81Y72.22
X154.19Y72.22
X62.19Y86.19
X69.81Y81.11
X131.19Y72.22
X138.81Y81.11
X138.81Y72.22
X154.19Y86.19
X16.19Y86.19
X16.19Y72.22
X23.81Y81.11
X23.81Y72.22
X161.81Y81.11
X161.81Y72.22
X108.19Y72.22
X115.81Y81.11
X115.81Y72.22
X177.19Y86.19
X177.19Y72.22
X184.81Y81.11
X184.81Y72.22
T0
M30
