G04 #@! TF.GenerationSoftware,KiCad,Pcbnew,(5.1.0-0)*
G04 #@! TF.CreationDate,2019-11-06T10:25:11+01:00*
G04 #@! TF.ProjectId,AddOnD,4164644f-6e44-42e6-9b69-6361645f7063,rev?*
G04 #@! TF.SameCoordinates,Original*
G04 #@! TF.FileFunction,Legend,Top*
G04 #@! TF.FilePolarity,Positive*
%FSLAX46Y46*%
G04 Gerber Fmt 4.6, Leading zero omitted, Abs format (unit mm)*
G04 Created by KiCad (PCBNEW (5.1.0-0)) date 2019-11-06 10:25:11*
%MOMM*%
%LPD*%
G04 APERTURE LIST*
%ADD10C,0.300000*%
%ADD11C,0.150000*%
G04 APERTURE END LIST*
D10*
X53971428Y53371428D02*
X54971428Y51871428D01*
X54971428Y53371428D02*
X53971428Y51871428D01*
X56257142Y51871428D02*
X55542857Y51871428D01*
X55542857Y53371428D01*
X57614285Y51871428D02*
X57114285Y52585714D01*
X56757142Y51871428D02*
X56757142Y53371428D01*
X57328571Y53371428D01*
X57471428Y53300000D01*
X57542857Y53228571D01*
X57614285Y53085714D01*
X57614285Y52871428D01*
X57542857Y52728571D01*
X57471428Y52657142D01*
X57328571Y52585714D01*
X56757142Y52585714D01*
X59685714Y53371428D02*
X59971428Y53371428D01*
X60114285Y53300000D01*
X60257142Y53157142D01*
X60328571Y52871428D01*
X60328571Y52371428D01*
X60257142Y52085714D01*
X60114285Y51942857D01*
X59971428Y51871428D01*
X59685714Y51871428D01*
X59542857Y51942857D01*
X59400000Y52085714D01*
X59328571Y52371428D01*
X59328571Y52871428D01*
X59400000Y53157142D01*
X59542857Y53300000D01*
X59685714Y53371428D01*
X61614285Y52871428D02*
X61614285Y51871428D01*
X60971428Y52871428D02*
X60971428Y52085714D01*
X61042857Y51942857D01*
X61185714Y51871428D01*
X61400000Y51871428D01*
X61542857Y51942857D01*
X61614285Y52014285D01*
X62114285Y52871428D02*
X62685714Y52871428D01*
X62328571Y53371428D02*
X62328571Y52085714D01*
X62400000Y51942857D01*
X62542857Y51871428D01*
X62685714Y51871428D01*
X63185714Y52871428D02*
X63185714Y51371428D01*
X63185714Y52800000D02*
X63328571Y52871428D01*
X63614285Y52871428D01*
X63757142Y52800000D01*
X63828571Y52728571D01*
X63900000Y52585714D01*
X63900000Y52157142D01*
X63828571Y52014285D01*
X63757142Y51942857D01*
X63614285Y51871428D01*
X63328571Y51871428D01*
X63185714Y51942857D01*
X65185714Y52871428D02*
X65185714Y51871428D01*
X64542857Y52871428D02*
X64542857Y52085714D01*
X64614285Y51942857D01*
X64757142Y51871428D01*
X64971428Y51871428D01*
X65114285Y51942857D01*
X65185714Y52014285D01*
X65685714Y52871428D02*
X66257142Y52871428D01*
X65900000Y53371428D02*
X65900000Y52085714D01*
X65971428Y51942857D01*
X66114285Y51871428D01*
X66257142Y51871428D01*
X68400000Y52657142D02*
X68614285Y52585714D01*
X68685714Y52514285D01*
X68757142Y52371428D01*
X68757142Y52157142D01*
X68685714Y52014285D01*
X68614285Y51942857D01*
X68471428Y51871428D01*
X67900000Y51871428D01*
X67900000Y53371428D01*
X68400000Y53371428D01*
X68542857Y53300000D01*
X68614285Y53228571D01*
X68685714Y53085714D01*
X68685714Y52942857D01*
X68614285Y52800000D01*
X68542857Y52728571D01*
X68400000Y52657142D01*
X67900000Y52657142D01*
X69614285Y51871428D02*
X69471428Y51942857D01*
X69400000Y52014285D01*
X69328571Y52157142D01*
X69328571Y52585714D01*
X69400000Y52728571D01*
X69471428Y52800000D01*
X69614285Y52871428D01*
X69828571Y52871428D01*
X69971428Y52800000D01*
X70042857Y52728571D01*
X70114285Y52585714D01*
X70114285Y52157142D01*
X70042857Y52014285D01*
X69971428Y51942857D01*
X69828571Y51871428D01*
X69614285Y51871428D01*
X71400000Y51871428D02*
X71400000Y52657142D01*
X71328571Y52800000D01*
X71185714Y52871428D01*
X70900000Y52871428D01*
X70757142Y52800000D01*
X71400000Y51942857D02*
X71257142Y51871428D01*
X70900000Y51871428D01*
X70757142Y51942857D01*
X70685714Y52085714D01*
X70685714Y52228571D01*
X70757142Y52371428D01*
X70900000Y52442857D01*
X71257142Y52442857D01*
X71400000Y52514285D01*
X72114285Y51871428D02*
X72114285Y52871428D01*
X72114285Y52585714D02*
X72185714Y52728571D01*
X72257142Y52800000D01*
X72400000Y52871428D01*
X72542857Y52871428D01*
X73685714Y51871428D02*
X73685714Y53371428D01*
X73685714Y51942857D02*
X73542857Y51871428D01*
X73257142Y51871428D01*
X73114285Y51942857D01*
X73042857Y52014285D01*
X72971428Y52157142D01*
X72971428Y52585714D01*
X73042857Y52728571D01*
X73114285Y52800000D01*
X73257142Y52871428D01*
X73542857Y52871428D01*
X73685714Y52800000D01*
X59471428Y49321428D02*
X59471428Y50107142D01*
X59399999Y50250000D01*
X59257142Y50321428D01*
X58971428Y50321428D01*
X58828571Y50250000D01*
X59471428Y49392857D02*
X59328571Y49321428D01*
X58971428Y49321428D01*
X58828571Y49392857D01*
X58757142Y49535714D01*
X58757142Y49678571D01*
X58828571Y49821428D01*
X58971428Y49892857D01*
X59328571Y49892857D01*
X59471428Y49964285D01*
X60828571Y50321428D02*
X60828571Y49321428D01*
X60185714Y50321428D02*
X60185714Y49535714D01*
X60257142Y49392857D01*
X60399999Y49321428D01*
X60614285Y49321428D01*
X60757142Y49392857D01*
X60828571Y49464285D01*
X61399999Y50321428D02*
X61757142Y49321428D01*
X62114285Y50321428D01*
X63257142Y49392857D02*
X63114285Y49321428D01*
X62828571Y49321428D01*
X62685714Y49392857D01*
X62614285Y49535714D01*
X62614285Y50107142D01*
X62685714Y50250000D01*
X62828571Y50321428D01*
X63114285Y50321428D01*
X63257142Y50250000D01*
X63328571Y50107142D01*
X63328571Y49964285D01*
X62614285Y49821428D01*
X63971428Y49321428D02*
X63971428Y50321428D01*
X63971428Y50035714D02*
X64042857Y50178571D01*
X64114285Y50250000D01*
X64257142Y50321428D01*
X64399999Y50321428D01*
X65542857Y49321428D02*
X65542857Y50821428D01*
X65542857Y49392857D02*
X65399999Y49321428D01*
X65114285Y49321428D01*
X64971428Y49392857D01*
X64899999Y49464285D01*
X64828571Y49607142D01*
X64828571Y50035714D01*
X64899999Y50178571D01*
X64971428Y50250000D01*
X65114285Y50321428D01*
X65399999Y50321428D01*
X65542857Y50250000D01*
X66257142Y49321428D02*
X66257142Y50321428D01*
X66257142Y50821428D02*
X66185714Y50750000D01*
X66257142Y50678571D01*
X66328571Y50750000D01*
X66257142Y50821428D01*
X66257142Y50678571D01*
X67185714Y49321428D02*
X67042857Y49392857D01*
X66971428Y49464285D01*
X66900000Y49607142D01*
X66900000Y50035714D01*
X66971428Y50178571D01*
X67042857Y50250000D01*
X67185714Y50321428D01*
X67400000Y50321428D01*
X67542857Y50250000D01*
X67614285Y50178571D01*
X67685714Y50035714D01*
X67685714Y49607142D01*
X67614285Y49464285D01*
X67542857Y49392857D01*
X67400000Y49321428D01*
X67185714Y49321428D01*
X68328571Y50321428D02*
X68328571Y49321428D01*
X68328571Y50178571D02*
X68400000Y50250000D01*
X68542857Y50321428D01*
X68757142Y50321428D01*
X68900000Y50250000D01*
X68971428Y50107142D01*
X68971428Y49321428D01*
X62185714Y46771428D02*
X61328571Y46771428D01*
X61757142Y46771428D02*
X61757142Y48271428D01*
X61614285Y48057142D01*
X61471428Y47914285D01*
X61328571Y47842857D01*
X62828571Y46914285D02*
X62900000Y46842857D01*
X62828571Y46771428D01*
X62757142Y46842857D01*
X62828571Y46914285D01*
X62828571Y46771428D01*
X63828571Y48271428D02*
X63971428Y48271428D01*
X64114285Y48200000D01*
X64185714Y48128571D01*
X64257142Y47985714D01*
X64328571Y47700000D01*
X64328571Y47342857D01*
X64257142Y47057142D01*
X64185714Y46914285D01*
X64114285Y46842857D01*
X63971428Y46771428D01*
X63828571Y46771428D01*
X63685714Y46842857D01*
X63614285Y46914285D01*
X63542857Y47057142D01*
X63471428Y47342857D01*
X63471428Y47700000D01*
X63542857Y47985714D01*
X63614285Y48128571D01*
X63685714Y48200000D01*
X63828571Y48271428D01*
X64971428Y46914285D02*
X65042857Y46842857D01*
X64971428Y46771428D01*
X64900000Y46842857D01*
X64971428Y46914285D01*
X64971428Y46771428D01*
X65971428Y48271428D02*
X66114285Y48271428D01*
X66257142Y48200000D01*
X66328571Y48128571D01*
X66400000Y47985714D01*
X66471428Y47700000D01*
X66471428Y47342857D01*
X66400000Y47057142D01*
X66328571Y46914285D01*
X66257142Y46842857D01*
X66114285Y46771428D01*
X65971428Y46771428D01*
X65828571Y46842857D01*
X65757142Y46914285D01*
X65685714Y47057142D01*
X65614285Y47342857D01*
X65614285Y47700000D01*
X65685714Y47985714D01*
X65757142Y48128571D01*
X65828571Y48200000D01*
X65971428Y48271428D01*
D11*
X7500000Y45000000D02*
X7500000Y90000000D01*
X193500000Y45000000D02*
X7500000Y45000000D01*
X193500000Y90000000D02*
X193500000Y45000000D01*
X7500000Y90000000D02*
X193500000Y90000000D01*
X7500000Y90000000D02*
X7500000Y71400000D01*
X7500000Y71400000D02*
X32800000Y71400000D01*
X32800000Y71400000D02*
X32800000Y90000000D01*
X32800000Y90000000D02*
X7500000Y90000000D01*
X9000000Y90000000D02*
X9000000Y92700000D01*
X9000000Y92700000D02*
X31000000Y92700000D01*
X31000000Y92700000D02*
X31000000Y90000000D01*
X30500000Y90000000D02*
X30500000Y71400000D01*
X30500000Y71400000D02*
X55800000Y71400000D01*
X55800000Y71400000D02*
X55800000Y90000000D01*
X55800000Y90000000D02*
X30500000Y90000000D01*
X32000000Y90000000D02*
X32000000Y92700000D01*
X32000000Y92700000D02*
X54000000Y92700000D01*
X54000000Y92700000D02*
X54000000Y90000000D01*
X53500000Y90000000D02*
X53500000Y71400000D01*
X53500000Y71400000D02*
X78800000Y71400000D01*
X78800000Y71400000D02*
X78800000Y90000000D01*
X78800000Y90000000D02*
X53500000Y90000000D01*
X55000000Y90000000D02*
X55000000Y92700000D01*
X55000000Y92700000D02*
X77000000Y92700000D01*
X77000000Y92700000D02*
X77000000Y90000000D01*
X76500000Y90000000D02*
X76500000Y71400000D01*
X76500000Y71400000D02*
X101800000Y71400000D01*
X101800000Y71400000D02*
X101800000Y90000000D01*
X101800000Y90000000D02*
X76500000Y90000000D01*
X78000000Y90000000D02*
X78000000Y92700000D01*
X78000000Y92700000D02*
X100000000Y92700000D01*
X100000000Y92700000D02*
X100000000Y90000000D01*
X99500000Y90000000D02*
X99500000Y71400000D01*
X99500000Y71400000D02*
X124800000Y71400000D01*
X124800000Y71400000D02*
X124800000Y90000000D01*
X124800000Y90000000D02*
X99500000Y90000000D01*
X101000000Y90000000D02*
X101000000Y92700000D01*
X101000000Y92700000D02*
X123000000Y92700000D01*
X123000000Y92700000D02*
X123000000Y90000000D01*
X122500000Y90000000D02*
X122500000Y71400000D01*
X122500000Y71400000D02*
X147800000Y71400000D01*
X147800000Y71400000D02*
X147800000Y90000000D01*
X147800000Y90000000D02*
X122500000Y90000000D01*
X124000000Y90000000D02*
X124000000Y92700000D01*
X124000000Y92700000D02*
X146000000Y92700000D01*
X146000000Y92700000D02*
X146000000Y90000000D01*
X145500000Y90000000D02*
X145500000Y71400000D01*
X145500000Y71400000D02*
X170800000Y71400000D01*
X170800000Y71400000D02*
X170800000Y90000000D01*
X170800000Y90000000D02*
X145500000Y90000000D01*
X147000000Y90000000D02*
X147000000Y92700000D01*
X147000000Y92700000D02*
X169000000Y92700000D01*
X169000000Y92700000D02*
X169000000Y90000000D01*
X168500000Y90000000D02*
X168500000Y71400000D01*
X168500000Y71400000D02*
X193800000Y71400000D01*
X193800000Y71400000D02*
X193800000Y90000000D01*
X193800000Y90000000D02*
X168500000Y90000000D01*
X170000000Y90000000D02*
X170000000Y92700000D01*
X170000000Y92700000D02*
X192000000Y92700000D01*
X192000000Y92700000D02*
X192000000Y90000000D01*
X48080000Y45080000D02*
X7440000Y45080000D01*
X47540000Y45630000D02*
X8000000Y45630000D01*
X48080000Y54180000D02*
X7440000Y54180000D01*
X47540000Y53630000D02*
X30010000Y53630000D01*
X25510000Y53630000D02*
X8000000Y53630000D01*
X30010000Y53630000D02*
X30010000Y54180000D01*
X25510000Y53630000D02*
X25510000Y54180000D01*
X48080000Y45080000D02*
X48080000Y54180000D01*
X47540000Y45630000D02*
X47540000Y53630000D01*
X7440000Y45080000D02*
X7440000Y54180000D01*
X8000000Y45630000D02*
X8000000Y53630000D01*
X48080000Y45080000D02*
X47540000Y45630000D01*
X7440000Y45080000D02*
X8000000Y45630000D01*
X48080000Y54180000D02*
X47540000Y53630000D01*
X7440000Y54180000D02*
X8000000Y53630000D01*
X24838095Y71047619D02*
X25504761Y70047619D01*
X25504761Y71047619D02*
X24838095Y70047619D01*
X26409523Y70047619D02*
X25838095Y70047619D01*
X26123809Y70047619D02*
X26123809Y71047619D01*
X26028571Y70904761D01*
X25933333Y70809523D01*
X25838095Y70761904D01*
X27028571Y71047619D02*
X27123809Y71047619D01*
X27219047Y71000000D01*
X27266666Y70952380D01*
X27314285Y70857142D01*
X27361904Y70666666D01*
X27361904Y70428571D01*
X27314285Y70238095D01*
X27266666Y70142857D01*
X27219047Y70095238D01*
X27123809Y70047619D01*
X27028571Y70047619D01*
X26933333Y70095238D01*
X26885714Y70142857D01*
X26838095Y70238095D01*
X26790476Y70428571D01*
X26790476Y70666666D01*
X26838095Y70857142D01*
X26885714Y70952380D01*
X26933333Y71000000D01*
X27028571Y71047619D01*
X28314285Y70047619D02*
X27742857Y70047619D01*
X28028571Y70047619D02*
X28028571Y71047619D01*
X27933333Y70904761D01*
X27838095Y70809523D01*
X27742857Y70761904D01*
X48038095Y71047619D02*
X48704761Y70047619D01*
X48704761Y71047619D02*
X48038095Y70047619D01*
X49609523Y70047619D02*
X49038095Y70047619D01*
X49323809Y70047619D02*
X49323809Y71047619D01*
X49228571Y70904761D01*
X49133333Y70809523D01*
X49038095Y70761904D01*
X50228571Y71047619D02*
X50323809Y71047619D01*
X50419047Y71000000D01*
X50466666Y70952380D01*
X50514285Y70857142D01*
X50561904Y70666666D01*
X50561904Y70428571D01*
X50514285Y70238095D01*
X50466666Y70142857D01*
X50419047Y70095238D01*
X50323809Y70047619D01*
X50228571Y70047619D01*
X50133333Y70095238D01*
X50085714Y70142857D01*
X50038095Y70238095D01*
X49990476Y70428571D01*
X49990476Y70666666D01*
X50038095Y70857142D01*
X50085714Y70952380D01*
X50133333Y71000000D01*
X50228571Y71047619D01*
X50942857Y70952380D02*
X50990476Y71000000D01*
X51085714Y71047619D01*
X51323809Y71047619D01*
X51419047Y71000000D01*
X51466666Y70952380D01*
X51514285Y70857142D01*
X51514285Y70761904D01*
X51466666Y70619047D01*
X50895238Y70047619D01*
X51514285Y70047619D01*
X70938095Y71047619D02*
X71604761Y70047619D01*
X71604761Y71047619D02*
X70938095Y70047619D01*
X72509523Y70047619D02*
X71938095Y70047619D01*
X72223809Y70047619D02*
X72223809Y71047619D01*
X72128571Y70904761D01*
X72033333Y70809523D01*
X71938095Y70761904D01*
X73128571Y71047619D02*
X73223809Y71047619D01*
X73319047Y71000000D01*
X73366666Y70952380D01*
X73414285Y70857142D01*
X73461904Y70666666D01*
X73461904Y70428571D01*
X73414285Y70238095D01*
X73366666Y70142857D01*
X73319047Y70095238D01*
X73223809Y70047619D01*
X73128571Y70047619D01*
X73033333Y70095238D01*
X72985714Y70142857D01*
X72938095Y70238095D01*
X72890476Y70428571D01*
X72890476Y70666666D01*
X72938095Y70857142D01*
X72985714Y70952380D01*
X73033333Y71000000D01*
X73128571Y71047619D01*
X73795238Y71047619D02*
X74414285Y71047619D01*
X74080952Y70666666D01*
X74223809Y70666666D01*
X74319047Y70619047D01*
X74366666Y70571428D01*
X74414285Y70476190D01*
X74414285Y70238095D01*
X74366666Y70142857D01*
X74319047Y70095238D01*
X74223809Y70047619D01*
X73938095Y70047619D01*
X73842857Y70095238D01*
X73795238Y70142857D01*
X93938095Y71047619D02*
X94604761Y70047619D01*
X94604761Y71047619D02*
X93938095Y70047619D01*
X95509523Y70047619D02*
X94938095Y70047619D01*
X95223809Y70047619D02*
X95223809Y71047619D01*
X95128571Y70904761D01*
X95033333Y70809523D01*
X94938095Y70761904D01*
X96128571Y71047619D02*
X96223809Y71047619D01*
X96319047Y71000000D01*
X96366666Y70952380D01*
X96414285Y70857142D01*
X96461904Y70666666D01*
X96461904Y70428571D01*
X96414285Y70238095D01*
X96366666Y70142857D01*
X96319047Y70095238D01*
X96223809Y70047619D01*
X96128571Y70047619D01*
X96033333Y70095238D01*
X95985714Y70142857D01*
X95938095Y70238095D01*
X95890476Y70428571D01*
X95890476Y70666666D01*
X95938095Y70857142D01*
X95985714Y70952380D01*
X96033333Y71000000D01*
X96128571Y71047619D01*
X97319047Y70714285D02*
X97319047Y70047619D01*
X97080952Y71095238D02*
X96842857Y70380952D01*
X97461904Y70380952D01*
X110238095Y77347619D02*
X110904761Y76347619D01*
X110904761Y77347619D02*
X110238095Y76347619D01*
X111809523Y76347619D02*
X111238095Y76347619D01*
X111523809Y76347619D02*
X111523809Y77347619D01*
X111428571Y77204761D01*
X111333333Y77109523D01*
X111238095Y77061904D01*
X112428571Y77347619D02*
X112523809Y77347619D01*
X112619047Y77300000D01*
X112666666Y77252380D01*
X112714285Y77157142D01*
X112761904Y76966666D01*
X112761904Y76728571D01*
X112714285Y76538095D01*
X112666666Y76442857D01*
X112619047Y76395238D01*
X112523809Y76347619D01*
X112428571Y76347619D01*
X112333333Y76395238D01*
X112285714Y76442857D01*
X112238095Y76538095D01*
X112190476Y76728571D01*
X112190476Y76966666D01*
X112238095Y77157142D01*
X112285714Y77252380D01*
X112333333Y77300000D01*
X112428571Y77347619D01*
X113666666Y77347619D02*
X113190476Y77347619D01*
X113142857Y76871428D01*
X113190476Y76919047D01*
X113285714Y76966666D01*
X113523809Y76966666D01*
X113619047Y76919047D01*
X113666666Y76871428D01*
X113714285Y76776190D01*
X113714285Y76538095D01*
X113666666Y76442857D01*
X113619047Y76395238D01*
X113523809Y76347619D01*
X113285714Y76347619D01*
X113190476Y76395238D01*
X113142857Y76442857D01*
X139838095Y71047619D02*
X140504761Y70047619D01*
X140504761Y71047619D02*
X139838095Y70047619D01*
X141409523Y70047619D02*
X140838095Y70047619D01*
X141123809Y70047619D02*
X141123809Y71047619D01*
X141028571Y70904761D01*
X140933333Y70809523D01*
X140838095Y70761904D01*
X142028571Y71047619D02*
X142123809Y71047619D01*
X142219047Y71000000D01*
X142266666Y70952380D01*
X142314285Y70857142D01*
X142361904Y70666666D01*
X142361904Y70428571D01*
X142314285Y70238095D01*
X142266666Y70142857D01*
X142219047Y70095238D01*
X142123809Y70047619D01*
X142028571Y70047619D01*
X141933333Y70095238D01*
X141885714Y70142857D01*
X141838095Y70238095D01*
X141790476Y70428571D01*
X141790476Y70666666D01*
X141838095Y70857142D01*
X141885714Y70952380D01*
X141933333Y71000000D01*
X142028571Y71047619D01*
X143219047Y71047619D02*
X143028571Y71047619D01*
X142933333Y71000000D01*
X142885714Y70952380D01*
X142790476Y70809523D01*
X142742857Y70619047D01*
X142742857Y70238095D01*
X142790476Y70142857D01*
X142838095Y70095238D01*
X142933333Y70047619D01*
X143123809Y70047619D01*
X143219047Y70095238D01*
X143266666Y70142857D01*
X143314285Y70238095D01*
X143314285Y70476190D01*
X143266666Y70571428D01*
X143219047Y70619047D01*
X143123809Y70666666D01*
X142933333Y70666666D01*
X142838095Y70619047D01*
X142790476Y70571428D01*
X142742857Y70476190D01*
X162838095Y71047619D02*
X163504761Y70047619D01*
X163504761Y71047619D02*
X162838095Y70047619D01*
X164409523Y70047619D02*
X163838095Y70047619D01*
X164123809Y70047619D02*
X164123809Y71047619D01*
X164028571Y70904761D01*
X163933333Y70809523D01*
X163838095Y70761904D01*
X165028571Y71047619D02*
X165123809Y71047619D01*
X165219047Y71000000D01*
X165266666Y70952380D01*
X165314285Y70857142D01*
X165361904Y70666666D01*
X165361904Y70428571D01*
X165314285Y70238095D01*
X165266666Y70142857D01*
X165219047Y70095238D01*
X165123809Y70047619D01*
X165028571Y70047619D01*
X164933333Y70095238D01*
X164885714Y70142857D01*
X164838095Y70238095D01*
X164790476Y70428571D01*
X164790476Y70666666D01*
X164838095Y70857142D01*
X164885714Y70952380D01*
X164933333Y71000000D01*
X165028571Y71047619D01*
X165695238Y71047619D02*
X166361904Y71047619D01*
X165933333Y70047619D01*
X185838095Y71147619D02*
X186504761Y70147619D01*
X186504761Y71147619D02*
X185838095Y70147619D01*
X187409523Y70147619D02*
X186838095Y70147619D01*
X187123809Y70147619D02*
X187123809Y71147619D01*
X187028571Y71004761D01*
X186933333Y70909523D01*
X186838095Y70861904D01*
X188028571Y71147619D02*
X188123809Y71147619D01*
X188219047Y71100000D01*
X188266666Y71052380D01*
X188314285Y70957142D01*
X188361904Y70766666D01*
X188361904Y70528571D01*
X188314285Y70338095D01*
X188266666Y70242857D01*
X188219047Y70195238D01*
X188123809Y70147619D01*
X188028571Y70147619D01*
X187933333Y70195238D01*
X187885714Y70242857D01*
X187838095Y70338095D01*
X187790476Y70528571D01*
X187790476Y70766666D01*
X187838095Y70957142D01*
X187885714Y71052380D01*
X187933333Y71100000D01*
X188028571Y71147619D01*
X188933333Y70719047D02*
X188838095Y70766666D01*
X188790476Y70814285D01*
X188742857Y70909523D01*
X188742857Y70957142D01*
X188790476Y71052380D01*
X188838095Y71100000D01*
X188933333Y71147619D01*
X189123809Y71147619D01*
X189219047Y71100000D01*
X189266666Y71052380D01*
X189314285Y70957142D01*
X189314285Y70909523D01*
X189266666Y70814285D01*
X189219047Y70766666D01*
X189123809Y70719047D01*
X188933333Y70719047D01*
X188838095Y70671428D01*
X188790476Y70623809D01*
X188742857Y70528571D01*
X188742857Y70338095D01*
X188790476Y70242857D01*
X188838095Y70195238D01*
X188933333Y70147619D01*
X189123809Y70147619D01*
X189219047Y70195238D01*
X189266666Y70242857D01*
X189314285Y70338095D01*
X189314285Y70528571D01*
X189266666Y70623809D01*
X189219047Y70671428D01*
X189123809Y70719047D01*
X41238095Y55547619D02*
X41904761Y54547619D01*
X41904761Y55547619D02*
X41238095Y54547619D01*
X42809523Y54547619D02*
X42238095Y54547619D01*
X42523809Y54547619D02*
X42523809Y55547619D01*
X42428571Y55404761D01*
X42333333Y55309523D01*
X42238095Y55261904D01*
X43761904Y54547619D02*
X43190476Y54547619D01*
X43476190Y54547619D02*
X43476190Y55547619D01*
X43380952Y55404761D01*
X43285714Y55309523D01*
X43190476Y55261904D01*
X44666666Y55547619D02*
X44190476Y55547619D01*
X44142857Y55071428D01*
X44190476Y55119047D01*
X44285714Y55166666D01*
X44523809Y55166666D01*
X44619047Y55119047D01*
X44666666Y55071428D01*
X44714285Y54976190D01*
X44714285Y54738095D01*
X44666666Y54642857D01*
X44619047Y54595238D01*
X44523809Y54547619D01*
X44285714Y54547619D01*
X44190476Y54595238D01*
X44142857Y54642857D01*
M02*
